G04 EAGLE Gerber RS-274X export*
G75*
%MOIN*%
%FSLAX34Y34*%
%LPD*%
%INSilkscreen Top*%
%IPPOS*%
%AMOC8*
5,1,8,0,0,1.08239X$1,22.5*%
G01*
%ADD10C,0.003000*%
%ADD11C,0.008000*%
%ADD12C,0.001000*%
%ADD13C,0.005000*%
%ADD14C,0.016000*%
%ADD15C,0.004000*%
%ADD16R,0.023622X0.043307*%
%ADD17R,0.001969X0.019685*%
%ADD18C,0.003937*%
%ADD19C,0.006000*%
%ADD20C,0.007000*%
%ADD21C,0.000000*%
%ADD22C,0.016000*%
%ADD23C,0.012000*%
%ADD24C,0.002000*%
%ADD25C,0.007874*%
%ADD26C,0.011811*%


D10*
X12845Y2669D02*
X12893Y2669D01*
X12893Y2508D01*
X12796Y2508D01*
X12782Y2510D01*
X12768Y2514D01*
X12756Y2522D01*
X12746Y2532D01*
X12738Y2544D01*
X12734Y2558D01*
X12732Y2572D01*
X12732Y2733D01*
X12734Y2747D01*
X12738Y2761D01*
X12746Y2773D01*
X12756Y2783D01*
X12768Y2791D01*
X12782Y2795D01*
X12796Y2797D01*
X12796Y2798D02*
X12893Y2798D01*
X13041Y2798D02*
X13041Y2508D01*
X13041Y2798D02*
X13122Y2798D01*
X13139Y2796D01*
X13155Y2791D01*
X13170Y2783D01*
X13182Y2771D01*
X13192Y2758D01*
X13199Y2742D01*
X13203Y2725D01*
X13203Y2709D01*
X13199Y2692D01*
X13192Y2677D01*
X13182Y2663D01*
X13170Y2651D01*
X13155Y2643D01*
X13139Y2638D01*
X13122Y2636D01*
X13041Y2636D01*
X13138Y2636D02*
X13202Y2508D01*
X13311Y2508D02*
X13408Y2798D01*
X13504Y2508D01*
X13480Y2580D02*
X13335Y2580D01*
X13625Y2508D02*
X13625Y2798D01*
X13786Y2508D01*
X13786Y2798D01*
X13932Y2798D02*
X13932Y2588D01*
X13931Y2588D02*
X13933Y2571D01*
X13938Y2555D01*
X13946Y2540D01*
X13958Y2528D01*
X13972Y2518D01*
X13987Y2511D01*
X14004Y2507D01*
X14020Y2507D01*
X14037Y2511D01*
X14053Y2518D01*
X14066Y2528D01*
X14078Y2540D01*
X14086Y2555D01*
X14091Y2571D01*
X14093Y2588D01*
X14093Y2798D01*
X14240Y2798D02*
X14240Y2508D01*
X14369Y2508D01*
X14479Y2588D02*
X14479Y2717D01*
X14481Y2734D01*
X14486Y2750D01*
X14494Y2765D01*
X14506Y2777D01*
X14520Y2787D01*
X14535Y2794D01*
X14552Y2798D01*
X14568Y2798D01*
X14585Y2794D01*
X14601Y2787D01*
X14614Y2777D01*
X14626Y2765D01*
X14634Y2750D01*
X14639Y2734D01*
X14641Y2717D01*
X14640Y2717D02*
X14640Y2588D01*
X14641Y2588D02*
X14639Y2571D01*
X14634Y2555D01*
X14626Y2540D01*
X14614Y2528D01*
X14601Y2518D01*
X14585Y2511D01*
X14568Y2507D01*
X14552Y2507D01*
X14535Y2511D01*
X14520Y2518D01*
X14506Y2528D01*
X14494Y2540D01*
X14486Y2555D01*
X14481Y2571D01*
X14479Y2588D01*
X14781Y2669D02*
X14862Y2669D01*
X14879Y2667D01*
X14895Y2662D01*
X14910Y2654D01*
X14922Y2642D01*
X14932Y2629D01*
X14939Y2613D01*
X14943Y2596D01*
X14943Y2580D01*
X14939Y2563D01*
X14932Y2548D01*
X14922Y2534D01*
X14910Y2522D01*
X14895Y2514D01*
X14879Y2509D01*
X14862Y2507D01*
X14862Y2508D02*
X14781Y2508D01*
X14781Y2798D01*
X14862Y2798D01*
X14862Y2797D02*
X14876Y2795D01*
X14890Y2791D01*
X14902Y2783D01*
X14912Y2773D01*
X14920Y2761D01*
X14924Y2747D01*
X14926Y2733D01*
X14924Y2719D01*
X14920Y2705D01*
X14912Y2693D01*
X14902Y2683D01*
X14890Y2675D01*
X14876Y2671D01*
X14862Y2669D01*
X15055Y2717D02*
X15055Y2588D01*
X15055Y2717D02*
X15057Y2734D01*
X15062Y2750D01*
X15070Y2765D01*
X15082Y2777D01*
X15096Y2787D01*
X15111Y2794D01*
X15128Y2798D01*
X15144Y2798D01*
X15161Y2794D01*
X15177Y2787D01*
X15190Y2777D01*
X15202Y2765D01*
X15210Y2750D01*
X15215Y2734D01*
X15217Y2717D01*
X15216Y2717D02*
X15216Y2588D01*
X15217Y2588D02*
X15215Y2571D01*
X15210Y2555D01*
X15202Y2540D01*
X15190Y2528D01*
X15177Y2518D01*
X15161Y2511D01*
X15144Y2507D01*
X15128Y2507D01*
X15111Y2511D01*
X15096Y2518D01*
X15082Y2528D01*
X15070Y2540D01*
X15062Y2555D01*
X15057Y2571D01*
X15055Y2588D01*
X15404Y2508D02*
X15404Y2798D01*
X15324Y2798D02*
X15485Y2798D01*
X12829Y2066D02*
X12732Y2356D01*
X12925Y2356D02*
X12829Y2066D01*
X13036Y2291D02*
X13117Y2356D01*
X13117Y2066D01*
X13197Y2066D02*
X13036Y2066D01*
X13310Y2066D02*
X13310Y2082D01*
X13326Y2082D01*
X13326Y2066D01*
X13310Y2066D01*
X13439Y2291D02*
X13520Y2356D01*
X13520Y2066D01*
X13600Y2066D02*
X13439Y2066D01*
X12829Y1914D02*
X12829Y1689D01*
X12828Y1689D02*
X12826Y1675D01*
X12822Y1661D01*
X12814Y1649D01*
X12804Y1639D01*
X12792Y1631D01*
X12778Y1627D01*
X12764Y1625D01*
X12764Y1624D02*
X12732Y1624D01*
X13015Y1737D02*
X13088Y1737D01*
X13015Y1737D02*
X13002Y1735D01*
X12989Y1731D01*
X12978Y1723D01*
X12969Y1713D01*
X12963Y1701D01*
X12959Y1688D01*
X12959Y1674D01*
X12963Y1661D01*
X12969Y1649D01*
X12978Y1639D01*
X12989Y1631D01*
X13002Y1627D01*
X13015Y1625D01*
X13015Y1624D02*
X13088Y1624D01*
X13088Y1769D01*
X13086Y1781D01*
X13082Y1793D01*
X13074Y1803D01*
X13064Y1811D01*
X13052Y1815D01*
X13040Y1817D01*
X13040Y1818D02*
X12975Y1818D01*
X13229Y1818D02*
X13229Y1624D01*
X13229Y1818D02*
X13310Y1818D01*
X13310Y1817D02*
X13322Y1815D01*
X13334Y1811D01*
X13344Y1803D01*
X13352Y1793D01*
X13356Y1781D01*
X13358Y1769D01*
X13358Y1624D01*
X13734Y1915D02*
X13750Y1913D01*
X13766Y1908D01*
X13780Y1899D01*
X13791Y1888D01*
X13800Y1874D01*
X13805Y1858D01*
X13807Y1842D01*
X13734Y1914D02*
X13717Y1913D01*
X13701Y1908D01*
X13686Y1901D01*
X13673Y1891D01*
X13661Y1879D01*
X13652Y1865D01*
X13646Y1850D01*
X13783Y1786D02*
X13793Y1797D01*
X13801Y1811D01*
X13805Y1826D01*
X13807Y1842D01*
X13782Y1785D02*
X13645Y1624D01*
X13806Y1624D01*
X13933Y1769D02*
X13935Y1796D01*
X13939Y1823D01*
X13947Y1849D01*
X13957Y1874D01*
X13964Y1888D01*
X13973Y1899D01*
X13985Y1908D01*
X13999Y1913D01*
X14014Y1915D01*
X14029Y1913D01*
X14043Y1908D01*
X14055Y1899D01*
X14064Y1888D01*
X14071Y1874D01*
X14081Y1849D01*
X14089Y1823D01*
X14093Y1796D01*
X14095Y1769D01*
X13933Y1769D02*
X13935Y1742D01*
X13939Y1715D01*
X13947Y1689D01*
X13957Y1664D01*
X13957Y1665D02*
X13964Y1651D01*
X13973Y1640D01*
X13985Y1631D01*
X13999Y1626D01*
X14014Y1624D01*
X14071Y1664D02*
X14081Y1689D01*
X14089Y1715D01*
X14093Y1742D01*
X14095Y1769D01*
X14071Y1665D02*
X14064Y1651D01*
X14055Y1640D01*
X14043Y1631D01*
X14029Y1626D01*
X14014Y1624D01*
X13949Y1689D02*
X14078Y1850D01*
X14310Y1915D02*
X14326Y1913D01*
X14342Y1908D01*
X14356Y1899D01*
X14367Y1888D01*
X14376Y1874D01*
X14381Y1858D01*
X14383Y1842D01*
X14310Y1914D02*
X14293Y1913D01*
X14277Y1908D01*
X14262Y1901D01*
X14249Y1891D01*
X14237Y1879D01*
X14228Y1865D01*
X14222Y1850D01*
X14359Y1786D02*
X14369Y1797D01*
X14377Y1811D01*
X14381Y1826D01*
X14383Y1842D01*
X14358Y1785D02*
X14221Y1624D01*
X14382Y1624D01*
X14509Y1850D02*
X14590Y1914D01*
X14590Y1624D01*
X14670Y1624D02*
X14509Y1624D01*
D11*
X2612Y2860D02*
X2612Y3060D01*
D12*
X2434Y3153D02*
X2400Y3153D01*
X2390Y3155D01*
X2381Y3159D01*
X2373Y3167D01*
X2369Y3176D01*
X2367Y3186D01*
X2367Y3269D01*
X2369Y3279D01*
X2373Y3288D01*
X2381Y3296D01*
X2390Y3300D01*
X2400Y3302D01*
X2400Y3303D02*
X2434Y3303D01*
X2487Y3269D02*
X2529Y3303D01*
X2529Y3153D01*
X2487Y3153D02*
X2571Y3153D01*
X2631Y3228D02*
X2632Y3247D01*
X2637Y3265D01*
X2644Y3282D01*
X2648Y3291D01*
X2655Y3297D01*
X2664Y3302D01*
X2673Y3303D01*
X2682Y3302D01*
X2691Y3297D01*
X2698Y3291D01*
X2702Y3282D01*
X2709Y3265D01*
X2714Y3247D01*
X2715Y3228D01*
X2631Y3228D02*
X2632Y3209D01*
X2637Y3191D01*
X2644Y3174D01*
X2644Y3173D02*
X2648Y3164D01*
X2655Y3158D01*
X2664Y3153D01*
X2673Y3152D01*
X2702Y3174D02*
X2709Y3191D01*
X2714Y3209D01*
X2715Y3228D01*
X2702Y3173D02*
X2698Y3164D01*
X2691Y3158D01*
X2682Y3153D01*
X2673Y3152D01*
X2640Y3186D02*
X2706Y3269D01*
D11*
X2944Y5211D02*
X2881Y5289D01*
D12*
X3135Y4992D02*
X3161Y5013D01*
X3135Y4992D02*
X3126Y4987D01*
X3116Y4985D01*
X3105Y4986D01*
X3096Y4990D01*
X3088Y4997D01*
X3036Y5062D01*
X3031Y5071D01*
X3029Y5081D01*
X3030Y5092D01*
X3034Y5101D01*
X3041Y5109D01*
X3067Y5130D01*
X3130Y5137D02*
X3142Y5189D01*
X3236Y5072D01*
X3268Y5098D02*
X3203Y5046D01*
X3257Y5283D02*
X3266Y5288D01*
X3275Y5291D01*
X3285Y5291D01*
X3295Y5288D01*
X3303Y5284D01*
X3311Y5277D01*
X3258Y5281D02*
X3250Y5273D01*
X3244Y5262D01*
X3240Y5251D01*
X3240Y5239D01*
X3243Y5227D01*
X3319Y5246D02*
X3319Y5256D01*
X3316Y5267D01*
X3310Y5276D01*
X3319Y5246D02*
X3315Y5136D01*
X3381Y5188D01*
D11*
X7595Y2090D02*
X7665Y2020D01*
D12*
X7649Y1856D02*
X7755Y1750D01*
X7649Y1856D02*
X7678Y1885D01*
X7678Y1886D02*
X7688Y1893D01*
X7699Y1897D01*
X7711Y1898D01*
X7723Y1895D01*
X7733Y1890D01*
X7742Y1881D01*
X7747Y1871D01*
X7750Y1859D01*
X7749Y1847D01*
X7745Y1836D01*
X7738Y1826D01*
X7737Y1826D02*
X7708Y1797D01*
X7743Y1832D02*
X7814Y1808D01*
X7833Y1874D02*
X7774Y1980D01*
X7833Y1874D02*
X7892Y1933D01*
X7897Y1892D02*
X7850Y1939D01*
D11*
X5093Y4037D02*
X5095Y4050D01*
X5100Y4063D01*
X5109Y4074D01*
X5120Y4081D01*
X5133Y4086D01*
X5146Y4087D01*
X5160Y4084D01*
X5172Y4078D01*
X5182Y4069D01*
X5189Y4057D01*
X5193Y4044D01*
X5193Y4030D01*
X5189Y4017D01*
X5182Y4005D01*
X5172Y3996D01*
X5160Y3990D01*
X5146Y3987D01*
X5133Y3988D01*
X5120Y3993D01*
X5109Y4000D01*
X5100Y4011D01*
X5095Y4024D01*
X5093Y4037D01*
X5223Y1784D02*
X5320Y1686D01*
X5417Y1784D01*
X4304Y2703D02*
X4206Y2800D01*
X4304Y2897D01*
X6336Y2703D02*
X6434Y2800D01*
X6336Y2897D01*
X5417Y3816D02*
X5223Y3816D01*
D12*
X5445Y2894D02*
X5339Y2788D01*
X5327Y2800D02*
X5351Y2776D01*
X5457Y2882D02*
X5433Y2906D01*
X5414Y2713D02*
X5438Y2689D01*
X5415Y2713D02*
X5409Y2721D01*
X5405Y2731D01*
X5405Y2741D01*
X5409Y2751D01*
X5415Y2759D01*
X5414Y2760D02*
X5473Y2819D01*
X5474Y2818D02*
X5482Y2824D01*
X5492Y2828D01*
X5502Y2828D01*
X5512Y2824D01*
X5520Y2818D01*
X5520Y2819D02*
X5544Y2795D01*
X5614Y2725D02*
X5620Y2718D01*
X5624Y2709D01*
X5625Y2699D01*
X5624Y2689D01*
X5620Y2681D01*
X5614Y2673D01*
X5614Y2725D02*
X5604Y2732D01*
X5593Y2737D01*
X5581Y2739D01*
X5569Y2738D01*
X5558Y2734D01*
X5585Y2660D02*
X5596Y2661D01*
X5606Y2665D01*
X5614Y2672D01*
X5585Y2660D02*
X5476Y2651D01*
X5535Y2592D01*
D11*
X3950Y2100D02*
X3850Y2100D01*
D12*
X3814Y1570D02*
X3781Y1570D01*
X3771Y1572D01*
X3762Y1576D01*
X3754Y1584D01*
X3750Y1593D01*
X3748Y1603D01*
X3747Y1603D02*
X3747Y1687D01*
X3748Y1687D02*
X3750Y1697D01*
X3754Y1706D01*
X3762Y1714D01*
X3771Y1718D01*
X3781Y1720D01*
X3814Y1720D01*
X3868Y1687D02*
X3909Y1720D01*
X3909Y1570D01*
X3868Y1570D02*
X3951Y1570D01*
X4012Y1603D02*
X4045Y1720D01*
X4012Y1603D02*
X4095Y1603D01*
X4070Y1570D02*
X4070Y1637D01*
D11*
X3550Y2100D02*
X3450Y2100D01*
D12*
X3343Y1718D02*
X3343Y1568D01*
X3343Y1718D02*
X3384Y1718D01*
X3396Y1716D01*
X3407Y1711D01*
X3416Y1704D01*
X3422Y1693D01*
X3426Y1682D01*
X3426Y1670D01*
X3422Y1659D01*
X3416Y1648D01*
X3407Y1641D01*
X3396Y1636D01*
X3384Y1634D01*
X3343Y1634D01*
X3393Y1634D02*
X3426Y1568D01*
X3485Y1609D02*
X3487Y1621D01*
X3492Y1632D01*
X3499Y1641D01*
X3510Y1647D01*
X3521Y1651D01*
X3533Y1651D01*
X3544Y1647D01*
X3555Y1641D01*
X3562Y1632D01*
X3567Y1621D01*
X3569Y1609D01*
X3567Y1597D01*
X3562Y1586D01*
X3555Y1577D01*
X3544Y1571D01*
X3533Y1567D01*
X3521Y1567D01*
X3510Y1571D01*
X3499Y1577D01*
X3492Y1586D01*
X3487Y1597D01*
X3485Y1609D01*
X3494Y1684D02*
X3496Y1694D01*
X3500Y1703D01*
X3508Y1711D01*
X3517Y1715D01*
X3527Y1717D01*
X3537Y1715D01*
X3546Y1711D01*
X3554Y1703D01*
X3558Y1694D01*
X3560Y1684D01*
X3558Y1674D01*
X3554Y1665D01*
X3546Y1657D01*
X3537Y1653D01*
X3527Y1651D01*
X3517Y1653D01*
X3508Y1657D01*
X3500Y1665D01*
X3496Y1674D01*
X3494Y1684D01*
D13*
X7650Y2765D02*
X8039Y3154D01*
X7650Y2765D02*
X7261Y3154D01*
D12*
X6909Y4772D02*
X7015Y4878D01*
X7045Y4848D01*
X7045Y4849D02*
X7052Y4839D01*
X7056Y4828D01*
X7057Y4816D01*
X7054Y4804D01*
X7049Y4794D01*
X7040Y4785D01*
X7030Y4780D01*
X7018Y4777D01*
X7006Y4778D01*
X6995Y4782D01*
X6985Y4789D01*
X6986Y4789D02*
X6956Y4819D01*
X7015Y4666D02*
X7121Y4772D01*
X7027Y4654D02*
X7003Y4677D01*
X7110Y4783D02*
X7133Y4760D01*
X7091Y4590D02*
X7114Y4567D01*
X7091Y4591D02*
X7085Y4599D01*
X7081Y4609D01*
X7081Y4619D01*
X7085Y4629D01*
X7091Y4637D01*
X7149Y4696D01*
X7150Y4696D02*
X7158Y4702D01*
X7168Y4706D01*
X7178Y4706D01*
X7188Y4702D01*
X7196Y4696D01*
X7197Y4696D02*
X7220Y4673D01*
X7229Y4605D02*
X7182Y4558D01*
X7228Y4606D02*
X7238Y4613D01*
X7249Y4617D01*
X7261Y4618D01*
X7273Y4615D01*
X7283Y4610D01*
X7292Y4601D01*
X7297Y4591D01*
X7300Y4579D01*
X7299Y4567D01*
X7295Y4556D01*
X7288Y4546D01*
X7240Y4499D01*
X7241Y4499D02*
X7231Y4492D01*
X7220Y4488D01*
X7208Y4487D01*
X7196Y4490D01*
X7186Y4495D01*
X7177Y4504D01*
X7172Y4514D01*
X7169Y4526D01*
X7170Y4538D01*
X7174Y4549D01*
X7181Y4559D01*
X7296Y4467D02*
X7367Y4397D01*
X7373Y4308D02*
X7479Y4414D01*
X7508Y4385D01*
X7509Y4385D02*
X7515Y4376D01*
X7520Y4366D01*
X7521Y4355D01*
X7520Y4344D01*
X7515Y4334D01*
X7509Y4325D01*
X7508Y4326D02*
X7461Y4279D01*
X7462Y4278D02*
X7453Y4272D01*
X7443Y4267D01*
X7432Y4266D01*
X7421Y4267D01*
X7411Y4272D01*
X7402Y4278D01*
X7402Y4279D02*
X7373Y4308D01*
X7501Y4226D02*
X7608Y4285D01*
X7501Y4226D02*
X7560Y4167D01*
X7519Y4162D02*
X7566Y4209D01*
D11*
X8830Y3045D02*
X8900Y2975D01*
D12*
X9100Y2752D02*
X9076Y2728D01*
X9075Y2729D02*
X9067Y2723D01*
X9057Y2719D01*
X9047Y2719D01*
X9037Y2723D01*
X9029Y2729D01*
X9029Y2728D02*
X8970Y2787D01*
X8971Y2788D02*
X8965Y2796D01*
X8961Y2806D01*
X8961Y2816D01*
X8965Y2826D01*
X8971Y2834D01*
X8970Y2834D02*
X8994Y2858D01*
X9055Y2872D02*
X9061Y2925D01*
X9167Y2819D01*
X9138Y2790D02*
X9197Y2849D01*
D14*
X7032Y2460D03*
D12*
X6416Y2012D02*
X6369Y1964D01*
X6416Y2012D02*
X6426Y2019D01*
X6437Y2023D01*
X6449Y2024D01*
X6461Y2021D01*
X6471Y2016D01*
X6480Y2007D01*
X6485Y1997D01*
X6488Y1985D01*
X6487Y1973D01*
X6483Y1962D01*
X6476Y1952D01*
X6475Y1953D02*
X6428Y1906D01*
X6428Y1905D02*
X6418Y1898D01*
X6407Y1894D01*
X6395Y1893D01*
X6383Y1896D01*
X6373Y1901D01*
X6364Y1910D01*
X6359Y1920D01*
X6356Y1932D01*
X6357Y1944D01*
X6361Y1955D01*
X6368Y1965D01*
X6410Y1911D02*
X6410Y1864D01*
X6439Y1835D02*
X6469Y1806D01*
X6468Y1805D02*
X6478Y1798D01*
X6489Y1794D01*
X6501Y1793D01*
X6513Y1796D01*
X6523Y1801D01*
X6532Y1810D01*
X6537Y1820D01*
X6540Y1832D01*
X6539Y1844D01*
X6535Y1855D01*
X6528Y1865D01*
X6581Y1906D02*
X6546Y1941D01*
X6580Y1905D02*
X6586Y1897D01*
X6590Y1887D01*
X6590Y1877D01*
X6586Y1867D01*
X6580Y1859D01*
X6572Y1853D01*
X6562Y1849D01*
X6552Y1849D01*
X6542Y1853D01*
X6534Y1859D01*
X6510Y1882D01*
D11*
X9355Y3575D02*
X9425Y3505D01*
D12*
X9587Y3267D02*
X9563Y3244D01*
X9555Y3238D01*
X9545Y3234D01*
X9535Y3234D01*
X9525Y3238D01*
X9517Y3244D01*
X9516Y3244D02*
X9457Y3303D01*
X9458Y3303D02*
X9452Y3311D01*
X9448Y3321D01*
X9448Y3331D01*
X9452Y3341D01*
X9458Y3349D01*
X9457Y3350D02*
X9481Y3374D01*
X9550Y3444D02*
X9560Y3451D01*
X9571Y3455D01*
X9583Y3455D01*
X9594Y3451D01*
X9604Y3444D01*
X9551Y3444D02*
X9544Y3434D01*
X9539Y3423D01*
X9537Y3411D01*
X9538Y3399D01*
X9542Y3388D01*
X9616Y3414D02*
X9615Y3425D01*
X9611Y3435D01*
X9604Y3443D01*
X9616Y3414D02*
X9625Y3305D01*
X9684Y3364D01*
D15*
X3220Y3373D02*
X2550Y3373D01*
X2550Y3807D02*
X3220Y3807D01*
D16*
X3023Y3590D03*
D12*
X2128Y3523D02*
X1978Y3523D01*
X1978Y3565D01*
X1977Y3565D02*
X1978Y3576D01*
X1983Y3586D01*
X1989Y3595D01*
X1998Y3601D01*
X2008Y3606D01*
X2019Y3607D01*
X2019Y3606D02*
X2086Y3606D01*
X2086Y3607D02*
X2097Y3606D01*
X2107Y3601D01*
X2116Y3595D01*
X2122Y3586D01*
X2127Y3576D01*
X2128Y3565D01*
X2128Y3523D01*
X2094Y3672D02*
X1978Y3705D01*
X2094Y3672D02*
X2094Y3755D01*
X2061Y3730D02*
X2128Y3730D01*
D11*
X3430Y4850D02*
X3430Y5480D01*
X4730Y5480D02*
X4730Y4850D01*
X4237Y5578D02*
X3923Y5578D01*
D12*
X4820Y4471D02*
X4820Y4437D01*
X4818Y4427D01*
X4814Y4418D01*
X4806Y4410D01*
X4797Y4406D01*
X4787Y4404D01*
X4703Y4404D01*
X4693Y4406D01*
X4684Y4410D01*
X4676Y4418D01*
X4672Y4427D01*
X4670Y4437D01*
X4670Y4471D01*
X4670Y4529D02*
X4820Y4529D01*
X4737Y4529D02*
X4737Y4613D01*
X4670Y4613D02*
X4820Y4613D01*
X4820Y4684D02*
X4670Y4684D01*
X4670Y4725D01*
X4672Y4737D01*
X4677Y4748D01*
X4684Y4757D01*
X4695Y4763D01*
X4706Y4767D01*
X4718Y4767D01*
X4729Y4763D01*
X4740Y4757D01*
X4747Y4748D01*
X4752Y4737D01*
X4754Y4725D01*
X4753Y4725D02*
X4753Y4684D01*
X4753Y4734D02*
X4820Y4767D01*
X4737Y4890D02*
X4737Y4915D01*
X4820Y4915D01*
X4820Y4865D01*
X4818Y4855D01*
X4814Y4846D01*
X4806Y4838D01*
X4797Y4834D01*
X4787Y4832D01*
X4703Y4832D01*
X4693Y4834D01*
X4684Y4838D01*
X4676Y4846D01*
X4672Y4855D01*
X4670Y4865D01*
X4670Y4915D01*
D11*
X2700Y2100D02*
X2600Y2100D01*
D12*
X2530Y1743D02*
X2530Y1593D01*
X2530Y1743D02*
X2572Y1743D01*
X2584Y1741D01*
X2595Y1736D01*
X2604Y1729D01*
X2610Y1718D01*
X2614Y1707D01*
X2614Y1695D01*
X2610Y1684D01*
X2604Y1673D01*
X2595Y1666D01*
X2584Y1661D01*
X2572Y1659D01*
X2530Y1659D01*
X2580Y1659D02*
X2613Y1593D01*
X2673Y1709D02*
X2715Y1743D01*
X2715Y1593D01*
X2673Y1593D02*
X2757Y1593D01*
D11*
X4095Y3860D02*
X4095Y4060D01*
D12*
X3570Y3953D02*
X3570Y3920D01*
X3568Y3910D01*
X3564Y3901D01*
X3556Y3893D01*
X3547Y3889D01*
X3537Y3887D01*
X3537Y3886D02*
X3453Y3886D01*
X3453Y3887D02*
X3443Y3889D01*
X3434Y3893D01*
X3426Y3901D01*
X3422Y3910D01*
X3420Y3920D01*
X3420Y3953D01*
X3570Y4007D02*
X3570Y4048D01*
X3568Y4060D01*
X3563Y4071D01*
X3556Y4080D01*
X3545Y4086D01*
X3534Y4090D01*
X3522Y4090D01*
X3511Y4086D01*
X3500Y4080D01*
X3493Y4071D01*
X3488Y4060D01*
X3486Y4048D01*
X3420Y4057D02*
X3420Y4007D01*
X3420Y4057D02*
X3422Y4067D01*
X3426Y4076D01*
X3434Y4084D01*
X3443Y4088D01*
X3453Y4090D01*
X3463Y4088D01*
X3472Y4084D01*
X3480Y4076D01*
X3484Y4067D01*
X3486Y4057D01*
X3487Y4057D02*
X3487Y4023D01*
D11*
X4275Y6050D02*
X4275Y6150D01*
D12*
X4280Y6293D02*
X4280Y6443D01*
X4322Y6443D01*
X4334Y6441D01*
X4345Y6436D01*
X4354Y6429D01*
X4360Y6418D01*
X4364Y6407D01*
X4364Y6395D01*
X4360Y6384D01*
X4354Y6373D01*
X4345Y6366D01*
X4334Y6361D01*
X4322Y6359D01*
X4280Y6359D01*
X4330Y6359D02*
X4363Y6293D01*
X4423Y6293D02*
X4465Y6293D01*
X4465Y6292D02*
X4477Y6294D01*
X4488Y6299D01*
X4497Y6306D01*
X4503Y6317D01*
X4507Y6328D01*
X4507Y6340D01*
X4503Y6351D01*
X4497Y6362D01*
X4488Y6369D01*
X4477Y6374D01*
X4465Y6376D01*
X4473Y6443D02*
X4423Y6443D01*
X4473Y6442D02*
X4483Y6440D01*
X4492Y6436D01*
X4500Y6428D01*
X4504Y6419D01*
X4506Y6409D01*
X4504Y6399D01*
X4500Y6390D01*
X4492Y6382D01*
X4483Y6378D01*
X4473Y6376D01*
X4440Y6376D01*
D11*
X11025Y4755D02*
X11025Y4655D01*
D12*
X11063Y4710D02*
X11097Y4710D01*
X11063Y4710D02*
X11053Y4712D01*
X11044Y4716D01*
X11036Y4724D01*
X11032Y4733D01*
X11030Y4743D01*
X11030Y4827D01*
X11032Y4837D01*
X11036Y4846D01*
X11044Y4854D01*
X11053Y4858D01*
X11063Y4860D01*
X11097Y4860D01*
X11150Y4710D02*
X11200Y4710D01*
X11210Y4712D01*
X11219Y4716D01*
X11227Y4724D01*
X11231Y4733D01*
X11233Y4743D01*
X11234Y4743D02*
X11234Y4760D01*
X11233Y4760D02*
X11231Y4770D01*
X11227Y4779D01*
X11219Y4787D01*
X11210Y4791D01*
X11200Y4793D01*
X11150Y4793D01*
X11150Y4860D01*
X11234Y4860D01*
D17*
X2111Y2150D03*
X2289Y2150D03*
D18*
X2200Y2111D02*
X2121Y2111D01*
X2200Y2111D02*
X2279Y2111D01*
X2200Y2111D02*
X2200Y2189D01*
D12*
X2113Y1758D02*
X2113Y1608D01*
X2113Y1758D02*
X2155Y1758D01*
X2166Y1757D01*
X2176Y1752D01*
X2185Y1746D01*
X2191Y1737D01*
X2196Y1727D01*
X2197Y1716D01*
X2196Y1716D02*
X2196Y1649D01*
X2197Y1649D02*
X2196Y1638D01*
X2191Y1628D01*
X2185Y1619D01*
X2176Y1613D01*
X2166Y1608D01*
X2155Y1607D01*
X2155Y1608D02*
X2113Y1608D01*
X2262Y1724D02*
X2303Y1758D01*
X2303Y1608D01*
X2262Y1608D02*
X2345Y1608D01*
D17*
X3011Y2150D03*
X3189Y2150D03*
D18*
X3100Y2111D02*
X3021Y2111D01*
X3100Y2111D02*
X3179Y2111D01*
X3100Y2111D02*
X3100Y2189D01*
D12*
X2988Y1720D02*
X2988Y1570D01*
X2988Y1720D02*
X3030Y1720D01*
X3041Y1719D01*
X3051Y1714D01*
X3060Y1708D01*
X3066Y1699D01*
X3071Y1689D01*
X3072Y1678D01*
X3071Y1678D02*
X3071Y1612D01*
X3072Y1612D02*
X3071Y1601D01*
X3066Y1591D01*
X3060Y1582D01*
X3051Y1576D01*
X3041Y1571D01*
X3030Y1570D01*
X2988Y1570D01*
X3137Y1570D02*
X3178Y1570D01*
X3190Y1572D01*
X3201Y1577D01*
X3210Y1584D01*
X3216Y1595D01*
X3220Y1606D01*
X3220Y1618D01*
X3216Y1629D01*
X3210Y1640D01*
X3201Y1647D01*
X3190Y1652D01*
X3178Y1654D01*
X3187Y1720D02*
X3137Y1720D01*
X3187Y1720D02*
X3197Y1718D01*
X3206Y1714D01*
X3214Y1706D01*
X3218Y1697D01*
X3220Y1687D01*
X3218Y1677D01*
X3214Y1668D01*
X3206Y1660D01*
X3197Y1656D01*
X3187Y1654D01*
X3187Y1653D02*
X3153Y1653D01*
D11*
X5285Y5320D02*
X5285Y5420D01*
D12*
X5165Y5213D02*
X5165Y5063D01*
X5165Y5213D02*
X5207Y5213D01*
X5219Y5211D01*
X5230Y5206D01*
X5239Y5199D01*
X5245Y5188D01*
X5249Y5177D01*
X5249Y5165D01*
X5245Y5154D01*
X5239Y5143D01*
X5230Y5136D01*
X5219Y5131D01*
X5207Y5129D01*
X5165Y5129D01*
X5215Y5129D02*
X5248Y5063D01*
X5308Y5146D02*
X5358Y5146D01*
X5368Y5144D01*
X5377Y5140D01*
X5385Y5132D01*
X5389Y5123D01*
X5391Y5113D01*
X5392Y5113D02*
X5392Y5104D01*
X5390Y5092D01*
X5385Y5081D01*
X5378Y5072D01*
X5367Y5066D01*
X5356Y5062D01*
X5344Y5062D01*
X5333Y5066D01*
X5322Y5072D01*
X5315Y5081D01*
X5310Y5092D01*
X5308Y5104D01*
X5308Y5146D01*
X5310Y5161D01*
X5315Y5175D01*
X5323Y5188D01*
X5333Y5198D01*
X5346Y5206D01*
X5360Y5211D01*
X5375Y5213D01*
D11*
X5285Y5750D02*
X5285Y5850D01*
D12*
X4918Y5741D02*
X4768Y5741D01*
X4768Y5783D01*
X4767Y5783D02*
X4769Y5795D01*
X4774Y5806D01*
X4781Y5815D01*
X4792Y5821D01*
X4803Y5825D01*
X4815Y5825D01*
X4826Y5821D01*
X4837Y5815D01*
X4844Y5806D01*
X4849Y5795D01*
X4851Y5783D01*
X4851Y5741D01*
X4851Y5791D02*
X4918Y5824D01*
X4784Y5884D02*
X4768Y5884D01*
X4768Y5968D01*
X4918Y5926D01*
X3524Y2678D02*
X3524Y2528D01*
X3483Y2678D02*
X3566Y2678D01*
X3663Y2678D02*
X3673Y2677D01*
X3682Y2673D01*
X3690Y2667D01*
X3696Y2659D01*
X3700Y2650D01*
X3701Y2640D01*
X3663Y2677D02*
X3651Y2675D01*
X3640Y2671D01*
X3630Y2664D01*
X3622Y2655D01*
X3617Y2644D01*
X3688Y2611D02*
X3694Y2619D01*
X3699Y2629D01*
X3700Y2640D01*
X3688Y2611D02*
X3617Y2528D01*
X3700Y2528D01*
D11*
X3850Y2960D02*
X3950Y2960D01*
D12*
X3664Y3308D02*
X3664Y3458D01*
X3706Y3458D01*
X3718Y3456D01*
X3729Y3451D01*
X3738Y3444D01*
X3744Y3433D01*
X3748Y3422D01*
X3748Y3410D01*
X3744Y3399D01*
X3738Y3388D01*
X3729Y3381D01*
X3718Y3376D01*
X3706Y3374D01*
X3664Y3374D01*
X3714Y3374D02*
X3748Y3308D01*
X3808Y3424D02*
X3849Y3458D01*
X3849Y3308D01*
X3808Y3308D02*
X3891Y3308D01*
X4036Y3420D02*
X4035Y3430D01*
X4031Y3439D01*
X4025Y3447D01*
X4017Y3453D01*
X4008Y3457D01*
X3998Y3458D01*
X3998Y3457D02*
X3986Y3455D01*
X3975Y3451D01*
X3965Y3444D01*
X3957Y3435D01*
X3952Y3424D01*
X4023Y3391D02*
X4029Y3399D01*
X4034Y3409D01*
X4035Y3420D01*
X4023Y3391D02*
X3952Y3308D01*
X4035Y3308D01*
D11*
X2850Y4100D02*
X2850Y4200D01*
D12*
X2505Y4145D02*
X2505Y4112D01*
X2503Y4102D01*
X2499Y4093D01*
X2491Y4085D01*
X2482Y4081D01*
X2472Y4079D01*
X2388Y4079D01*
X2378Y4081D01*
X2369Y4085D01*
X2361Y4093D01*
X2357Y4102D01*
X2355Y4112D01*
X2355Y4145D01*
X2355Y4199D02*
X2372Y4199D01*
X2355Y4199D02*
X2355Y4283D01*
X2505Y4241D01*
D13*
X1704Y-4251D02*
X1586Y-4251D01*
X1626Y-4172D02*
X1704Y-4251D01*
X1626Y-4172D02*
X1547Y-4251D01*
X1586Y-4251D01*
X1626Y-4211D01*
D12*
X1388Y-4464D02*
X1238Y-4464D01*
X1388Y-4464D02*
X1388Y-4397D01*
X1388Y-4339D02*
X1388Y-4273D01*
X1388Y-4339D02*
X1238Y-4339D01*
X1238Y-4273D01*
X1304Y-4289D02*
X1304Y-4339D01*
X1238Y-4215D02*
X1388Y-4215D01*
X1238Y-4215D02*
X1238Y-4173D01*
X1237Y-4173D02*
X1238Y-4162D01*
X1243Y-4152D01*
X1249Y-4143D01*
X1258Y-4137D01*
X1268Y-4132D01*
X1279Y-4131D01*
X1346Y-4131D01*
X1357Y-4132D01*
X1367Y-4137D01*
X1376Y-4143D01*
X1382Y-4152D01*
X1387Y-4162D01*
X1388Y-4173D01*
X1388Y-4215D01*
X1271Y-4066D02*
X1238Y-4024D01*
X1388Y-4024D01*
X1388Y-3983D02*
X1388Y-4066D01*
D13*
X10250Y1180D02*
X10350Y1180D01*
X10250Y1180D02*
X10250Y1680D01*
X10250Y6200D02*
X10250Y6593D01*
X10644Y6593D01*
X11915Y6593D02*
X12309Y6593D01*
X12309Y6200D01*
X12310Y1574D02*
X12310Y1180D01*
X12309Y1180D02*
X11915Y1180D01*
D18*
X3031Y5024D02*
X3033Y5034D01*
X3038Y5042D01*
X3046Y5048D01*
X3056Y5051D01*
X3065Y5050D01*
X3074Y5046D01*
X3081Y5038D01*
X3085Y5029D01*
X3085Y5019D01*
X3081Y5010D01*
X3074Y5002D01*
X3065Y4998D01*
X3056Y4997D01*
X3046Y5000D01*
X3038Y5006D01*
X3033Y5014D01*
X3031Y5024D01*
D12*
X2588Y4588D02*
X2480Y4588D01*
X2588Y4588D02*
X2600Y4590D01*
X2611Y4595D01*
X2620Y4602D01*
X2626Y4613D01*
X2630Y4624D01*
X2630Y4636D01*
X2626Y4647D01*
X2620Y4658D01*
X2611Y4665D01*
X2600Y4670D01*
X2588Y4672D01*
X2588Y4671D02*
X2480Y4671D01*
X2513Y4737D02*
X2480Y4778D01*
X2630Y4778D01*
X2630Y4737D02*
X2630Y4820D01*
D11*
X8575Y5785D02*
X8645Y5855D01*
D12*
X8617Y6070D02*
X8723Y6176D01*
X8753Y6147D01*
X8760Y6137D01*
X8764Y6126D01*
X8765Y6114D01*
X8762Y6102D01*
X8757Y6092D01*
X8748Y6083D01*
X8738Y6078D01*
X8726Y6075D01*
X8714Y6076D01*
X8703Y6080D01*
X8693Y6087D01*
X8694Y6088D02*
X8664Y6117D01*
X8700Y6082D02*
X8676Y6011D01*
X8718Y5969D02*
X8754Y5933D01*
X8754Y5934D02*
X8762Y5928D01*
X8772Y5924D01*
X8782Y5924D01*
X8792Y5928D01*
X8800Y5934D01*
X8801Y5933D02*
X8813Y5945D01*
X8812Y5946D02*
X8818Y5954D01*
X8822Y5964D01*
X8822Y5974D01*
X8818Y5984D01*
X8812Y5992D01*
X8813Y5992D02*
X8777Y6028D01*
X8824Y6075D01*
X8883Y6016D01*
D11*
X6550Y5850D02*
X6550Y5750D01*
D12*
X6470Y5958D02*
X6437Y5958D01*
X6427Y5960D01*
X6418Y5964D01*
X6410Y5972D01*
X6406Y5981D01*
X6404Y5991D01*
X6404Y6074D01*
X6406Y6084D01*
X6410Y6093D01*
X6418Y6101D01*
X6427Y6105D01*
X6437Y6107D01*
X6437Y6108D02*
X6470Y6108D01*
X6524Y6041D02*
X6574Y6041D01*
X6584Y6039D01*
X6593Y6035D01*
X6601Y6027D01*
X6605Y6018D01*
X6607Y6008D01*
X6608Y6008D02*
X6608Y5999D01*
X6606Y5987D01*
X6601Y5976D01*
X6594Y5967D01*
X6583Y5961D01*
X6572Y5957D01*
X6560Y5957D01*
X6549Y5961D01*
X6538Y5967D01*
X6531Y5976D01*
X6526Y5987D01*
X6524Y5999D01*
X6524Y6041D01*
X6526Y6056D01*
X6531Y6070D01*
X6539Y6083D01*
X6549Y6093D01*
X6562Y6101D01*
X6576Y6106D01*
X6591Y6108D01*
X11355Y4480D02*
X11505Y4480D01*
X11505Y4547D01*
X11388Y4600D02*
X11355Y4641D01*
X11505Y4641D01*
X11505Y4600D02*
X11505Y4683D01*
D11*
X10575Y4500D02*
X10475Y4500D01*
D12*
X10680Y4358D02*
X10680Y4325D01*
X10678Y4315D01*
X10674Y4306D01*
X10666Y4298D01*
X10657Y4294D01*
X10647Y4292D01*
X10647Y4291D02*
X10563Y4291D01*
X10563Y4292D02*
X10553Y4294D01*
X10544Y4298D01*
X10536Y4306D01*
X10532Y4315D01*
X10530Y4325D01*
X10530Y4358D01*
X10530Y4445D02*
X10647Y4412D01*
X10647Y4495D01*
X10680Y4470D02*
X10613Y4470D01*
D19*
X9212Y-5288D02*
X8943Y-5557D01*
X9084Y-5698D01*
X9353Y-5430D02*
X9212Y-5288D01*
X9014Y-5090D02*
X8745Y-5359D01*
X9014Y-5090D02*
X8872Y-4949D01*
X8603Y-5217D02*
X8745Y-5359D01*
X9014Y-5090D02*
X9212Y-5288D01*
X8872Y-4949D02*
X8603Y-5217D01*
X8745Y-5359D02*
X8943Y-5557D01*
X9084Y-5698D02*
X9353Y-5430D01*
D12*
X8991Y-4867D02*
X9097Y-4761D01*
X9126Y-4790D01*
X9127Y-4790D02*
X9134Y-4800D01*
X9138Y-4811D01*
X9139Y-4823D01*
X9136Y-4835D01*
X9131Y-4845D01*
X9122Y-4854D01*
X9112Y-4859D01*
X9100Y-4862D01*
X9088Y-4861D01*
X9077Y-4857D01*
X9067Y-4850D01*
X9067Y-4849D02*
X9038Y-4820D01*
X9073Y-4855D02*
X9049Y-4926D01*
X9095Y-4972D02*
X9201Y-4865D01*
X9249Y-4913D01*
X9201Y-4960D02*
X9154Y-4913D01*
X9244Y-5002D02*
X9273Y-5031D01*
X9274Y-5031D02*
X9281Y-5041D01*
X9285Y-5052D01*
X9286Y-5064D01*
X9283Y-5076D01*
X9278Y-5086D01*
X9269Y-5095D01*
X9259Y-5100D01*
X9247Y-5103D01*
X9235Y-5102D01*
X9224Y-5098D01*
X9214Y-5091D01*
X9214Y-5090D02*
X9185Y-5061D01*
X9291Y-4955D01*
X9320Y-4984D01*
X9320Y-4985D02*
X9326Y-4993D01*
X9330Y-5003D01*
X9330Y-5013D01*
X9326Y-5023D01*
X9320Y-5031D01*
X9312Y-5037D01*
X9302Y-5041D01*
X9292Y-5041D01*
X9282Y-5037D01*
X9274Y-5031D01*
X9345Y-5104D02*
X9375Y-5133D01*
X9382Y-5143D01*
X9386Y-5154D01*
X9387Y-5166D01*
X9384Y-5178D01*
X9379Y-5188D01*
X9370Y-5197D01*
X9360Y-5202D01*
X9348Y-5205D01*
X9336Y-5204D01*
X9325Y-5200D01*
X9315Y-5193D01*
X9316Y-5192D02*
X9287Y-5163D01*
X9393Y-5057D01*
X9422Y-5086D01*
X9422Y-5087D02*
X9428Y-5095D01*
X9432Y-5105D01*
X9432Y-5115D01*
X9428Y-5125D01*
X9422Y-5133D01*
X9414Y-5139D01*
X9404Y-5143D01*
X9394Y-5143D01*
X9384Y-5139D01*
X9376Y-5133D01*
D19*
X7543Y-4147D02*
X7345Y-4345D01*
X7444Y-4444D01*
X7642Y-4246D02*
X7543Y-4147D01*
X7642Y-4246D02*
X7444Y-4444D01*
D12*
X7294Y-4280D02*
X7270Y-4303D01*
X7262Y-4309D01*
X7252Y-4313D01*
X7242Y-4313D01*
X7232Y-4309D01*
X7224Y-4303D01*
X7223Y-4303D02*
X7164Y-4244D01*
X7165Y-4244D02*
X7159Y-4236D01*
X7155Y-4226D01*
X7155Y-4216D01*
X7159Y-4206D01*
X7165Y-4198D01*
X7164Y-4197D02*
X7188Y-4174D01*
X7355Y-4219D02*
X7379Y-4195D01*
X7355Y-4218D02*
X7347Y-4224D01*
X7337Y-4228D01*
X7327Y-4228D01*
X7317Y-4224D01*
X7309Y-4218D01*
X7308Y-4219D02*
X7249Y-4160D01*
X7250Y-4159D02*
X7244Y-4151D01*
X7240Y-4141D01*
X7240Y-4131D01*
X7244Y-4121D01*
X7250Y-4113D01*
X7249Y-4112D02*
X7273Y-4089D01*
X7343Y-4018D02*
X7353Y-4011D01*
X7364Y-4007D01*
X7376Y-4007D01*
X7387Y-4011D01*
X7397Y-4018D01*
X7343Y-4019D02*
X7336Y-4029D01*
X7331Y-4040D01*
X7329Y-4052D01*
X7330Y-4064D01*
X7334Y-4075D01*
X7408Y-4048D02*
X7407Y-4037D01*
X7403Y-4027D01*
X7396Y-4019D01*
X7408Y-4048D02*
X7417Y-4157D01*
X7476Y-4098D01*
D19*
X8052Y-7415D02*
X7882Y-7584D01*
X7995Y-7698D01*
X8165Y-7528D02*
X8052Y-7415D01*
X7967Y-7330D02*
X7804Y-7507D01*
X7967Y-7330D02*
X7854Y-7217D01*
X7684Y-7386D02*
X7804Y-7507D01*
X7967Y-7330D02*
X8052Y-7415D01*
X7854Y-7217D02*
X7684Y-7386D01*
X7804Y-7507D02*
X7882Y-7584D01*
X7995Y-7698D02*
X8165Y-7528D01*
D12*
X8311Y-7592D02*
X8334Y-7568D01*
X8335Y-7569D02*
X8343Y-7563D01*
X8353Y-7559D01*
X8363Y-7559D01*
X8373Y-7563D01*
X8381Y-7569D01*
X8382Y-7568D02*
X8441Y-7627D01*
X8440Y-7627D02*
X8446Y-7635D01*
X8450Y-7645D01*
X8450Y-7655D01*
X8446Y-7665D01*
X8440Y-7673D01*
X8441Y-7674D02*
X8417Y-7698D01*
X8370Y-7745D02*
X8264Y-7639D01*
X8276Y-7627D02*
X8252Y-7650D01*
X8358Y-7756D02*
X8382Y-7733D01*
X8315Y-7800D02*
X8208Y-7694D01*
X8150Y-7753D02*
X8315Y-7800D01*
X8256Y-7859D02*
X8150Y-7753D01*
X8124Y-7937D02*
X8132Y-7943D01*
X8140Y-7947D01*
X8150Y-7948D01*
X8160Y-7947D01*
X8169Y-7943D01*
X8176Y-7937D01*
X8177Y-7938D02*
X8184Y-7928D01*
X8189Y-7917D01*
X8191Y-7905D01*
X8190Y-7893D01*
X8186Y-7882D01*
X8112Y-7908D02*
X8113Y-7919D01*
X8117Y-7929D01*
X8124Y-7937D01*
X8112Y-7908D02*
X8103Y-7799D01*
X8044Y-7858D01*
D20*
X8295Y-5150D02*
X8457Y-4988D01*
X8295Y-5150D02*
X8012Y-4867D01*
X8174Y-4705D01*
X8811Y-4634D02*
X8973Y-4471D01*
X8691Y-4189D01*
X8528Y-4351D01*
D19*
X8995Y-4478D02*
X8302Y-5171D01*
X7991Y-4860D02*
X8684Y-4167D01*
X8995Y-4478D01*
X8302Y-5171D02*
X7991Y-4860D01*
D12*
X7950Y-4808D02*
X7967Y-4791D01*
X7950Y-4808D02*
X7942Y-4813D01*
X7933Y-4815D01*
X7924Y-4813D01*
X7916Y-4808D01*
X7872Y-4765D01*
X7873Y-4765D02*
X7868Y-4757D01*
X7866Y-4748D01*
X7868Y-4739D01*
X7873Y-4731D01*
X7872Y-4731D02*
X7890Y-4713D01*
X7915Y-4688D02*
X8018Y-4740D01*
X7966Y-4636D01*
X8090Y-4668D02*
X8107Y-4651D01*
X8090Y-4668D02*
X8082Y-4673D01*
X8073Y-4675D01*
X8064Y-4673D01*
X8056Y-4668D01*
X8012Y-4625D01*
X8013Y-4625D02*
X8008Y-4617D01*
X8006Y-4608D01*
X8008Y-4599D01*
X8013Y-4591D01*
X8012Y-4591D02*
X8030Y-4573D01*
X8154Y-4605D02*
X8171Y-4587D01*
X8154Y-4604D02*
X8146Y-4609D01*
X8137Y-4611D01*
X8128Y-4609D01*
X8120Y-4604D01*
X8119Y-4605D02*
X8076Y-4562D01*
X8076Y-4561D02*
X8071Y-4553D01*
X8069Y-4544D01*
X8071Y-4535D01*
X8076Y-4527D01*
X8093Y-4510D01*
D19*
X9519Y-5690D02*
X9604Y-5774D01*
X9519Y-5690D02*
X9462Y-5746D01*
X9547Y-5831D02*
X9604Y-5774D01*
X9667Y-5711D02*
X9568Y-5626D01*
X9667Y-5711D02*
X9717Y-5661D01*
X9632Y-5576D02*
X9625Y-5569D01*
X9568Y-5626D01*
X9667Y-5711D02*
X9604Y-5774D01*
X9717Y-5661D02*
X9632Y-5576D01*
X9519Y-5690D01*
X9462Y-5746D02*
X9547Y-5831D01*
D12*
X9845Y-5765D02*
X9951Y-5871D01*
X9922Y-5901D01*
X9923Y-5901D02*
X9913Y-5908D01*
X9902Y-5912D01*
X9890Y-5913D01*
X9878Y-5910D01*
X9868Y-5905D01*
X9859Y-5896D01*
X9854Y-5886D01*
X9851Y-5874D01*
X9852Y-5862D01*
X9856Y-5851D01*
X9863Y-5841D01*
X9863Y-5842D02*
X9893Y-5812D01*
X9857Y-5848D02*
X9786Y-5824D01*
X9721Y-5889D02*
X9828Y-5995D01*
X9857Y-5966D02*
X9798Y-6025D01*
D19*
X6791Y-6684D02*
X6452Y-7023D01*
X6961Y-7532D02*
X7300Y-7193D01*
X7392Y-7101D02*
X6883Y-6592D01*
X7392Y-7101D02*
X7604Y-6889D01*
X7095Y-6379D02*
X6883Y-6592D01*
X6360Y-7115D02*
X6869Y-7624D01*
X6360Y-7115D02*
X6155Y-7334D01*
X6657Y-7836D01*
X6869Y-7624D01*
X6148Y-7327D02*
X6883Y-6592D01*
X6148Y-7327D02*
X6155Y-7334D01*
X6869Y-7624D02*
X7392Y-7101D01*
X7604Y-6889D02*
X7095Y-6379D01*
D12*
X6237Y-7064D02*
X6213Y-7087D01*
X6212Y-7087D02*
X6204Y-7093D01*
X6194Y-7097D01*
X6184Y-7097D01*
X6174Y-7093D01*
X6166Y-7087D01*
X6107Y-7028D01*
X6101Y-7020D01*
X6097Y-7010D01*
X6097Y-7000D01*
X6101Y-6990D01*
X6107Y-6982D01*
X6107Y-6981D02*
X6130Y-6958D01*
X6198Y-6949D02*
X6245Y-6996D01*
X6197Y-6950D02*
X6190Y-6940D01*
X6186Y-6929D01*
X6185Y-6917D01*
X6188Y-6905D01*
X6193Y-6895D01*
X6202Y-6886D01*
X6212Y-6881D01*
X6224Y-6878D01*
X6236Y-6879D01*
X6247Y-6883D01*
X6257Y-6890D01*
X6304Y-6937D01*
X6305Y-6937D02*
X6312Y-6947D01*
X6316Y-6958D01*
X6317Y-6970D01*
X6314Y-6982D01*
X6309Y-6992D01*
X6300Y-7001D01*
X6290Y-7006D01*
X6278Y-7009D01*
X6266Y-7008D01*
X6255Y-7004D01*
X6245Y-6997D01*
X6350Y-6891D02*
X6274Y-6815D01*
X6350Y-6892D02*
X6360Y-6899D01*
X6371Y-6903D01*
X6383Y-6904D01*
X6395Y-6901D01*
X6405Y-6896D01*
X6414Y-6887D01*
X6419Y-6877D01*
X6422Y-6865D01*
X6421Y-6853D01*
X6417Y-6842D01*
X6410Y-6832D01*
X6409Y-6832D02*
X6333Y-6756D01*
X6402Y-6687D02*
X6508Y-6793D01*
X6372Y-6716D02*
X6431Y-6657D01*
D19*
X9193Y-5827D02*
X9448Y-6082D01*
X8826Y-7468D02*
X9080Y-7722D01*
X10084Y-6718D01*
X9830Y-6463D01*
X9193Y-5827D02*
X8189Y-6831D01*
X8444Y-7086D01*
X8302Y-7609D02*
X8308Y-7616D01*
X8311Y-7625D01*
X8311Y-7635D01*
X8308Y-7644D01*
X8302Y-7651D01*
X8295Y-7657D01*
X8286Y-7660D01*
X8276Y-7660D01*
X8267Y-7657D01*
X8260Y-7651D01*
X8254Y-7644D01*
X8251Y-7635D01*
X8251Y-7625D01*
X8254Y-7616D01*
X8260Y-7609D01*
X8267Y-7603D01*
X8276Y-7600D01*
X8286Y-7600D01*
X8295Y-7603D01*
X8302Y-7609D01*
X9080Y-7722D02*
X10084Y-6718D01*
X9193Y-5827D01*
X8189Y-6831D01*
X9080Y-7722D01*
D21*
X8302Y-7609D02*
X8308Y-7616D01*
X8311Y-7625D01*
X8311Y-7635D01*
X8308Y-7644D01*
X8302Y-7651D01*
X8295Y-7657D01*
X8286Y-7660D01*
X8276Y-7660D01*
X8267Y-7657D01*
X8260Y-7651D01*
X8254Y-7644D01*
X8251Y-7635D01*
X8251Y-7625D01*
X8254Y-7616D01*
X8260Y-7609D01*
X8267Y-7603D01*
X8276Y-7600D01*
X8286Y-7600D01*
X8295Y-7603D01*
X8302Y-7609D01*
D12*
X9861Y-7194D02*
X9967Y-7300D01*
X9861Y-7194D02*
X9813Y-7241D01*
X9797Y-7417D02*
X9805Y-7423D01*
X9813Y-7427D01*
X9823Y-7428D01*
X9833Y-7427D01*
X9842Y-7423D01*
X9849Y-7417D01*
X9856Y-7407D01*
X9861Y-7396D01*
X9863Y-7384D01*
X9862Y-7372D01*
X9858Y-7361D01*
X9785Y-7388D02*
X9786Y-7399D01*
X9790Y-7409D01*
X9797Y-7417D01*
X9785Y-7388D02*
X9776Y-7279D01*
X9717Y-7338D01*
D19*
X8049Y-5838D02*
X7879Y-5668D01*
X7766Y-5781D01*
X7936Y-5951D02*
X8049Y-5838D01*
X8134Y-5753D02*
X7957Y-5590D01*
X8134Y-5753D02*
X8247Y-5640D01*
X8077Y-5470D02*
X7957Y-5590D01*
X8134Y-5753D02*
X8049Y-5838D01*
X8247Y-5640D02*
X8077Y-5470D01*
X7957Y-5590D02*
X7879Y-5668D01*
X7766Y-5781D02*
X7936Y-5951D01*
D12*
X8008Y-5322D02*
X8114Y-5216D01*
X8144Y-5245D01*
X8151Y-5255D01*
X8155Y-5266D01*
X8156Y-5278D01*
X8153Y-5290D01*
X8148Y-5300D01*
X8139Y-5309D01*
X8129Y-5314D01*
X8117Y-5317D01*
X8105Y-5316D01*
X8094Y-5312D01*
X8084Y-5305D01*
X8085Y-5304D02*
X8055Y-5275D01*
X8091Y-5310D02*
X8067Y-5381D01*
X8113Y-5427D02*
X8219Y-5321D01*
X8266Y-5368D01*
X8219Y-5415D02*
X8172Y-5368D01*
X8261Y-5457D02*
X8291Y-5487D01*
X8291Y-5486D02*
X8298Y-5496D01*
X8302Y-5507D01*
X8303Y-5519D01*
X8300Y-5531D01*
X8295Y-5541D01*
X8286Y-5550D01*
X8276Y-5555D01*
X8264Y-5558D01*
X8252Y-5557D01*
X8241Y-5553D01*
X8231Y-5546D01*
X8232Y-5546D02*
X8203Y-5516D01*
X8309Y-5410D01*
X8338Y-5440D01*
X8337Y-5440D02*
X8343Y-5448D01*
X8347Y-5458D01*
X8347Y-5468D01*
X8343Y-5478D01*
X8337Y-5486D01*
X8329Y-5492D01*
X8319Y-5496D01*
X8309Y-5496D01*
X8299Y-5492D01*
X8291Y-5486D01*
X8428Y-5530D02*
X8322Y-5636D01*
X8399Y-5500D02*
X8458Y-5559D01*
D19*
X6453Y-6129D02*
X6283Y-6298D01*
X6397Y-6412D01*
X6566Y-6242D02*
X6453Y-6129D01*
X6368Y-6044D02*
X6206Y-6221D01*
X6368Y-6044D02*
X6255Y-5931D01*
X6085Y-6100D02*
X6206Y-6221D01*
X6368Y-6044D02*
X6453Y-6129D01*
X6255Y-5931D02*
X6085Y-6100D01*
X6206Y-6221D02*
X6283Y-6298D01*
X6397Y-6412D02*
X6566Y-6242D01*
D12*
X6357Y-6481D02*
X6251Y-6587D01*
X6222Y-6557D01*
X6221Y-6558D02*
X6214Y-6548D01*
X6210Y-6537D01*
X6209Y-6525D01*
X6212Y-6513D01*
X6217Y-6503D01*
X6226Y-6494D01*
X6236Y-6489D01*
X6248Y-6486D01*
X6260Y-6487D01*
X6271Y-6491D01*
X6281Y-6498D01*
X6280Y-6499D02*
X6310Y-6528D01*
X6275Y-6493D02*
X6298Y-6422D01*
X6252Y-6376D02*
X6146Y-6482D01*
X6252Y-6376D02*
X6205Y-6329D01*
X6158Y-6282D02*
X6052Y-6388D01*
X6170Y-6294D02*
X6147Y-6271D01*
X6041Y-6377D02*
X6064Y-6400D01*
X5996Y-6332D02*
X6102Y-6226D01*
X6020Y-6238D02*
X5996Y-6332D01*
X6020Y-6238D02*
X5925Y-6261D01*
X6031Y-6155D01*
D19*
X7936Y-7997D02*
X7540Y-8393D01*
X7752Y-8605D01*
X8148Y-8209D02*
X7936Y-7997D01*
X7738Y-7799D02*
X7342Y-8195D01*
X7738Y-7799D02*
X7525Y-7586D01*
X7129Y-7982D02*
X7122Y-7989D01*
X7342Y-8195D01*
X7738Y-7799D02*
X7936Y-7997D01*
X7525Y-7586D02*
X7129Y-7982D01*
X7540Y-8393D01*
X7752Y-8605D02*
X8148Y-8209D01*
D12*
X7459Y-8507D02*
X7435Y-8483D01*
X7458Y-8507D02*
X7464Y-8515D01*
X7468Y-8525D01*
X7468Y-8535D01*
X7464Y-8545D01*
X7458Y-8553D01*
X7459Y-8554D02*
X7400Y-8613D01*
X7399Y-8612D02*
X7391Y-8618D01*
X7381Y-8622D01*
X7371Y-8622D01*
X7361Y-8618D01*
X7353Y-8612D01*
X7353Y-8613D02*
X7329Y-8589D01*
X7282Y-8542D02*
X7388Y-8436D01*
X7400Y-8448D02*
X7376Y-8424D01*
X7270Y-8530D02*
X7294Y-8554D01*
X7227Y-8487D02*
X7333Y-8381D01*
X7274Y-8322D02*
X7227Y-8487D01*
X7168Y-8428D02*
X7274Y-8322D01*
D19*
X7715Y-4574D02*
X7630Y-4489D01*
X7574Y-4545D01*
X7659Y-4630D02*
X7715Y-4574D01*
X7779Y-4510D02*
X7680Y-4425D01*
X7779Y-4510D02*
X7828Y-4460D01*
X7743Y-4376D02*
X7736Y-4368D01*
X7680Y-4425D01*
X7779Y-4510D02*
X7715Y-4574D01*
X7828Y-4460D02*
X7743Y-4376D01*
X7630Y-4489D01*
X7574Y-4545D02*
X7659Y-4630D01*
D12*
X7689Y-4706D02*
X7766Y-4784D01*
X7689Y-4706D02*
X7710Y-4685D01*
X7710Y-4684D02*
X7719Y-4678D01*
X7729Y-4675D01*
X7740Y-4676D01*
X7750Y-4681D01*
X7757Y-4688D01*
X7762Y-4698D01*
X7763Y-4709D01*
X7760Y-4719D01*
X7754Y-4728D01*
X7753Y-4728D02*
X7732Y-4749D01*
X7758Y-4724D02*
X7810Y-4741D01*
X7859Y-4691D02*
X7876Y-4674D01*
X7859Y-4691D02*
X7851Y-4696D01*
X7842Y-4698D01*
X7833Y-4696D01*
X7825Y-4691D01*
X7781Y-4648D01*
X7782Y-4648D02*
X7777Y-4640D01*
X7775Y-4631D01*
X7777Y-4622D01*
X7782Y-4614D01*
X7781Y-4613D02*
X7799Y-4596D01*
X7845Y-4584D02*
X7850Y-4545D01*
X7927Y-4623D01*
X7906Y-4645D02*
X7949Y-4601D01*
D19*
X7350Y-4640D02*
X6629Y-5361D01*
X7209Y-5941D02*
X7930Y-5220D01*
X7209Y-5941D02*
X6629Y-5361D01*
X7350Y-4640D02*
X7930Y-5220D01*
D10*
X7676Y-5177D02*
X7665Y-5169D01*
X7653Y-5163D01*
X7640Y-5161D01*
X7627Y-5162D01*
X7614Y-5166D01*
X7603Y-5173D01*
X7594Y-5182D01*
X7587Y-5193D01*
X7583Y-5206D01*
X7582Y-5219D01*
X7584Y-5232D01*
X7590Y-5244D01*
X7598Y-5255D01*
X7609Y-5263D01*
X7621Y-5269D01*
X7634Y-5271D01*
X7647Y-5270D01*
X7660Y-5266D01*
X7671Y-5259D01*
X7680Y-5250D01*
X7687Y-5239D01*
X7691Y-5226D01*
X7692Y-5213D01*
X7690Y-5200D01*
X7684Y-5188D01*
X7676Y-5177D01*
D11*
X7280Y-5927D02*
X7216Y-5990D01*
X7810Y-5396D02*
X7980Y-5227D01*
X6643Y-5290D02*
X6580Y-5354D01*
X7280Y-4654D02*
X7343Y-4590D01*
D12*
X6756Y-4961D02*
X6680Y-4885D01*
X6756Y-4962D02*
X6766Y-4969D01*
X6777Y-4973D01*
X6789Y-4974D01*
X6801Y-4971D01*
X6811Y-4966D01*
X6820Y-4957D01*
X6825Y-4947D01*
X6828Y-4935D01*
X6827Y-4923D01*
X6823Y-4912D01*
X6816Y-4902D01*
X6815Y-4903D02*
X6739Y-4826D01*
X6817Y-4747D02*
X6827Y-4740D01*
X6838Y-4736D01*
X6850Y-4736D01*
X6861Y-4740D01*
X6871Y-4747D01*
X6817Y-4747D02*
X6810Y-4757D01*
X6805Y-4768D01*
X6803Y-4780D01*
X6804Y-4792D01*
X6808Y-4803D01*
X6882Y-4777D02*
X6881Y-4766D01*
X6877Y-4756D01*
X6870Y-4748D01*
X6882Y-4777D02*
X6891Y-4886D01*
X6950Y-4827D01*
D19*
X8246Y-6038D02*
X8416Y-6208D01*
X8246Y-6038D02*
X8133Y-6151D01*
X8303Y-6321D02*
X8416Y-6208D01*
X8501Y-6123D02*
X8324Y-5960D01*
X8501Y-6123D02*
X8614Y-6010D01*
X8444Y-5840D02*
X8324Y-5960D01*
X8501Y-6123D02*
X8416Y-6208D01*
X8614Y-6010D02*
X8444Y-5840D01*
X8324Y-5960D02*
X8246Y-6038D01*
X8133Y-6151D02*
X8303Y-6321D01*
D12*
X8639Y-6061D02*
X8663Y-6037D01*
X8663Y-6038D02*
X8671Y-6032D01*
X8681Y-6028D01*
X8691Y-6028D01*
X8701Y-6032D01*
X8709Y-6038D01*
X8710Y-6037D02*
X8769Y-6096D01*
X8768Y-6097D02*
X8774Y-6105D01*
X8778Y-6115D01*
X8778Y-6125D01*
X8774Y-6135D01*
X8768Y-6143D01*
X8769Y-6143D02*
X8745Y-6167D01*
X8655Y-6162D02*
X8626Y-6192D01*
X8616Y-6199D01*
X8605Y-6203D01*
X8593Y-6204D01*
X8581Y-6201D01*
X8571Y-6196D01*
X8562Y-6187D01*
X8557Y-6177D01*
X8554Y-6165D01*
X8555Y-6153D01*
X8559Y-6142D01*
X8566Y-6132D01*
X8567Y-6133D02*
X8596Y-6103D01*
X8702Y-6209D01*
X8673Y-6239D01*
X8672Y-6238D02*
X8664Y-6244D01*
X8654Y-6248D01*
X8644Y-6248D01*
X8634Y-6244D01*
X8626Y-6238D01*
X8620Y-6230D01*
X8616Y-6220D01*
X8616Y-6210D01*
X8620Y-6200D01*
X8626Y-6192D01*
X8468Y-6233D02*
X8462Y-6241D01*
X8458Y-6251D01*
X8458Y-6261D01*
X8462Y-6271D01*
X8468Y-6279D01*
X8468Y-6233D02*
X8478Y-6224D01*
X8490Y-6217D01*
X8504Y-6213D01*
X8517Y-6212D01*
X8582Y-6283D02*
X8588Y-6291D01*
X8592Y-6301D01*
X8592Y-6311D01*
X8588Y-6321D01*
X8582Y-6329D01*
X8583Y-6330D02*
X8572Y-6338D01*
X8560Y-6344D01*
X8547Y-6347D01*
X8582Y-6282D02*
X8575Y-6277D01*
X8567Y-6273D01*
X8558Y-6272D01*
X8549Y-6273D01*
X8500Y-6289D02*
X8491Y-6290D01*
X8482Y-6289D01*
X8474Y-6285D01*
X8467Y-6280D01*
X8500Y-6288D02*
X8550Y-6274D01*
X8488Y-6424D02*
X8381Y-6318D01*
X8517Y-6395D02*
X8458Y-6454D01*
D19*
X7978Y-4296D02*
X8148Y-4126D01*
X7978Y-4296D02*
X8092Y-4409D01*
X8261Y-4239D02*
X8148Y-4126D01*
X8063Y-4041D02*
X7901Y-4218D01*
X8063Y-4041D02*
X7950Y-3928D01*
X7780Y-4098D02*
X7901Y-4218D01*
X8063Y-4041D02*
X8148Y-4126D01*
X7950Y-3928D02*
X7780Y-4098D01*
X7901Y-4218D02*
X7978Y-4296D01*
X8092Y-4409D02*
X8261Y-4239D01*
D12*
X8120Y-4006D02*
X8096Y-3983D01*
X8097Y-3982D02*
X8091Y-3974D01*
X8087Y-3964D01*
X8087Y-3954D01*
X8091Y-3944D01*
X8097Y-3936D01*
X8096Y-3935D02*
X8155Y-3876D01*
X8156Y-3877D02*
X8164Y-3871D01*
X8174Y-3867D01*
X8184Y-3867D01*
X8194Y-3871D01*
X8202Y-3877D01*
X8202Y-3876D02*
X8226Y-3900D01*
X8181Y-4067D02*
X8205Y-4091D01*
X8182Y-4067D02*
X8176Y-4059D01*
X8172Y-4049D01*
X8172Y-4039D01*
X8176Y-4029D01*
X8182Y-4021D01*
X8181Y-4020D02*
X8240Y-3961D01*
X8241Y-3962D02*
X8249Y-3956D01*
X8259Y-3952D01*
X8269Y-3952D01*
X8279Y-3956D01*
X8287Y-3962D01*
X8287Y-3961D02*
X8311Y-3985D01*
X8325Y-4046D02*
X8378Y-4052D01*
X8272Y-4158D01*
X8243Y-4129D02*
X8302Y-4188D01*
D22*
X4626Y-4969D02*
X4628Y-4951D01*
X4634Y-4935D01*
X4643Y-4920D01*
X4656Y-4907D01*
X4671Y-4898D01*
X4687Y-4892D01*
X4705Y-4890D01*
X4723Y-4892D01*
X4739Y-4898D01*
X4754Y-4907D01*
X4767Y-4920D01*
X4776Y-4935D01*
X4782Y-4951D01*
X4784Y-4969D01*
X4782Y-4987D01*
X4776Y-5003D01*
X4767Y-5018D01*
X4754Y-5031D01*
X4739Y-5040D01*
X4723Y-5046D01*
X4705Y-5048D01*
X4687Y-5046D01*
X4671Y-5040D01*
X4656Y-5031D01*
X4643Y-5018D01*
X4634Y-5003D01*
X4628Y-4987D01*
X4626Y-4969D01*
D11*
X6570Y-3493D02*
X5345Y-2268D01*
X3842Y-3772D02*
X5067Y-4997D01*
D19*
X5949Y-2590D02*
X6082Y-2458D01*
X5949Y-2590D02*
X5939Y-2603D01*
X5932Y-2617D01*
X5928Y-2633D01*
X5928Y-2649D01*
X5932Y-2665D01*
X5939Y-2679D01*
X5949Y-2692D01*
X5962Y-2702D01*
X5976Y-2709D01*
X5992Y-2713D01*
X6008Y-2713D01*
X6024Y-2709D01*
X6038Y-2702D01*
X6051Y-2692D01*
X6051Y-2693D02*
X6184Y-2560D01*
X6108Y-2852D02*
X6159Y-2903D01*
X6160Y-2903D02*
X6173Y-2913D01*
X6187Y-2920D01*
X6203Y-2924D01*
X6219Y-2924D01*
X6235Y-2920D01*
X6249Y-2913D01*
X6262Y-2903D01*
X6272Y-2890D01*
X6279Y-2876D01*
X6283Y-2860D01*
X6283Y-2844D01*
X6279Y-2828D01*
X6272Y-2814D01*
X6262Y-2801D01*
X6354Y-2729D02*
X6292Y-2668D01*
X6354Y-2729D02*
X6363Y-2740D01*
X6368Y-2753D01*
X6371Y-2766D01*
X6370Y-2780D01*
X6366Y-2794D01*
X6359Y-2806D01*
X6349Y-2816D01*
X6337Y-2823D01*
X6323Y-2827D01*
X6309Y-2828D01*
X6296Y-2825D01*
X6283Y-2820D01*
X6272Y-2811D01*
X6231Y-2770D01*
D11*
X3764Y-4194D02*
X5036Y-5467D01*
X4400Y-6103D01*
X3127Y-4830D01*
X3764Y-4194D01*
D15*
X3172Y-4588D02*
X3030Y-4446D01*
X3069Y-4407D01*
X3069Y-4406D02*
X3081Y-4398D01*
X3095Y-4392D01*
X3109Y-4390D01*
X3123Y-4392D01*
X3137Y-4398D01*
X3149Y-4406D01*
X3157Y-4418D01*
X3163Y-4432D01*
X3165Y-4446D01*
X3163Y-4460D01*
X3157Y-4474D01*
X3149Y-4486D01*
X3148Y-4486D02*
X3109Y-4525D01*
X3156Y-4478D02*
X3250Y-4509D01*
X3213Y-4327D02*
X3221Y-4256D01*
X3362Y-4397D01*
X3323Y-4437D02*
X3401Y-4358D01*
X3404Y-4214D02*
X3388Y-4195D01*
X3375Y-4174D01*
X3365Y-4151D01*
X3365Y-4150D02*
X3362Y-4140D01*
X3361Y-4130D01*
X3363Y-4120D01*
X3367Y-4111D01*
X3373Y-4103D01*
X3381Y-4097D01*
X3390Y-4093D01*
X3400Y-4091D01*
X3410Y-4092D01*
X3420Y-4095D01*
X3421Y-4095D02*
X3444Y-4105D01*
X3465Y-4118D01*
X3484Y-4134D01*
X3404Y-4214D02*
X3423Y-4230D01*
X3444Y-4243D01*
X3467Y-4253D01*
X3468Y-4253D02*
X3478Y-4256D01*
X3488Y-4257D01*
X3498Y-4255D01*
X3507Y-4251D01*
X3515Y-4245D01*
X3523Y-4197D02*
X3513Y-4174D01*
X3500Y-4153D01*
X3484Y-4134D01*
X3523Y-4198D02*
X3526Y-4208D01*
X3527Y-4218D01*
X3525Y-4228D01*
X3521Y-4237D01*
X3515Y-4245D01*
X3452Y-4245D02*
X3436Y-4103D01*
D23*
X2862Y-2490D02*
X3145Y-2207D01*
D19*
X2352Y-2724D02*
X2311Y-2683D01*
X2303Y-2673D01*
X2297Y-2661D01*
X2294Y-2648D01*
X2294Y-2636D01*
X2297Y-2623D01*
X2303Y-2611D01*
X2311Y-2601D01*
X2413Y-2499D01*
X2423Y-2491D01*
X2435Y-2485D01*
X2448Y-2482D01*
X2460Y-2482D01*
X2473Y-2485D01*
X2485Y-2491D01*
X2495Y-2499D01*
X2536Y-2540D01*
X2584Y-2670D02*
X2676Y-2680D01*
X2492Y-2864D01*
X2441Y-2813D02*
X2543Y-2915D01*
X2645Y-3016D02*
X2696Y-3067D01*
X2709Y-3077D01*
X2723Y-3084D01*
X2739Y-3088D01*
X2755Y-3088D01*
X2771Y-3084D01*
X2785Y-3077D01*
X2798Y-3067D01*
X2808Y-3054D01*
X2815Y-3040D01*
X2819Y-3024D01*
X2819Y-3008D01*
X2815Y-2992D01*
X2808Y-2978D01*
X2798Y-2965D01*
X2890Y-2894D02*
X2829Y-2832D01*
X2890Y-2894D02*
X2899Y-2905D01*
X2904Y-2918D01*
X2907Y-2931D01*
X2906Y-2945D01*
X2902Y-2959D01*
X2895Y-2971D01*
X2885Y-2981D01*
X2873Y-2988D01*
X2859Y-2992D01*
X2845Y-2993D01*
X2832Y-2990D01*
X2819Y-2985D01*
X2808Y-2976D01*
X2808Y-2975D02*
X2767Y-2935D01*
D23*
X4047Y-1889D02*
X4329Y-2171D01*
D19*
X4566Y-1375D02*
X4525Y-1334D01*
X4517Y-1324D01*
X4511Y-1312D01*
X4508Y-1299D01*
X4508Y-1287D01*
X4511Y-1274D01*
X4517Y-1262D01*
X4525Y-1252D01*
X4525Y-1253D02*
X4627Y-1150D01*
X4637Y-1142D01*
X4649Y-1136D01*
X4662Y-1133D01*
X4674Y-1133D01*
X4687Y-1136D01*
X4699Y-1142D01*
X4709Y-1150D01*
X4750Y-1191D01*
X4798Y-1321D02*
X4890Y-1331D01*
X4706Y-1515D01*
X4655Y-1464D02*
X4757Y-1566D01*
X4859Y-1668D02*
X4920Y-1729D01*
X4930Y-1737D01*
X4942Y-1743D01*
X4955Y-1746D01*
X4967Y-1746D01*
X4980Y-1743D01*
X4992Y-1737D01*
X5002Y-1729D01*
X5022Y-1709D01*
X5030Y-1699D01*
X5036Y-1687D01*
X5039Y-1674D01*
X5039Y-1662D01*
X5036Y-1649D01*
X5030Y-1637D01*
X5022Y-1627D01*
X4961Y-1566D01*
X5043Y-1484D01*
X5145Y-1586D01*
D23*
X4011Y-1477D02*
X3728Y-1194D01*
D19*
X4247Y-631D02*
X4206Y-591D01*
X4198Y-581D01*
X4192Y-569D01*
X4189Y-556D01*
X4189Y-544D01*
X4192Y-531D01*
X4198Y-519D01*
X4206Y-509D01*
X4308Y-407D01*
X4318Y-399D01*
X4330Y-393D01*
X4343Y-390D01*
X4355Y-390D01*
X4368Y-393D01*
X4380Y-399D01*
X4390Y-407D01*
X4430Y-448D01*
X4479Y-577D02*
X4570Y-588D01*
X4387Y-771D01*
X4336Y-720D02*
X4438Y-822D01*
X4641Y-822D02*
X4703Y-883D01*
X4711Y-893D01*
X4717Y-905D01*
X4720Y-918D01*
X4720Y-930D01*
X4717Y-943D01*
X4711Y-955D01*
X4703Y-965D01*
X4692Y-975D01*
X4679Y-985D01*
X4665Y-992D01*
X4649Y-996D01*
X4633Y-996D01*
X4617Y-992D01*
X4603Y-985D01*
X4590Y-975D01*
X4580Y-962D01*
X4573Y-948D01*
X4569Y-932D01*
X4569Y-916D01*
X4573Y-900D01*
X4580Y-886D01*
X4590Y-873D01*
X4641Y-822D01*
X4656Y-809D01*
X4674Y-799D01*
X4693Y-792D01*
X4713Y-788D01*
X4733Y-788D01*
X4753Y-792D01*
X4772Y-799D01*
X4790Y-809D01*
X4805Y-822D01*
D23*
X3379Y-1136D02*
X3097Y-853D01*
D19*
X3416Y-176D02*
X3375Y-135D01*
X3367Y-125D01*
X3361Y-113D01*
X3358Y-100D01*
X3358Y-88D01*
X3361Y-75D01*
X3367Y-63D01*
X3375Y-53D01*
X3375Y-54D02*
X3478Y49D01*
X3477Y49D02*
X3487Y57D01*
X3499Y63D01*
X3512Y66D01*
X3524Y66D01*
X3537Y63D01*
X3549Y57D01*
X3559Y49D01*
X3600Y8D01*
X3648Y-122D02*
X3740Y-132D01*
X3556Y-316D01*
X3505Y-265D02*
X3607Y-367D01*
X3872Y-305D02*
X3893Y-285D01*
X3995Y-387D01*
X3760Y-520D01*
D11*
X5907Y317D02*
X6353Y763D01*
X5545Y1570D02*
X5100Y1124D01*
X6049Y776D02*
X6051Y788D01*
X6056Y799D01*
X6065Y808D01*
X6076Y813D01*
X6088Y815D01*
X6100Y813D01*
X6111Y808D01*
X6120Y799D01*
X6125Y788D01*
X6127Y776D01*
X6125Y764D01*
X6120Y753D01*
X6111Y744D01*
X6100Y739D01*
X6088Y737D01*
X6076Y739D01*
X6065Y744D01*
X6056Y753D01*
X6051Y764D01*
X6049Y776D01*
D10*
X6258Y532D02*
X6350Y440D01*
X6284Y557D02*
X6232Y506D01*
X6331Y605D02*
X6423Y513D01*
X6464Y554D01*
X6533Y623D02*
X6411Y684D01*
X6472Y745D02*
X6533Y623D01*
D13*
X15048Y-1550D02*
X15225Y-1727D01*
X15401Y-1550D01*
X14482Y-985D02*
X14305Y-808D01*
X14482Y-631D01*
X15083Y-30D02*
X15260Y-207D01*
X15083Y-30D02*
X14906Y-207D01*
X15826Y-1126D02*
X16002Y-949D01*
X15826Y-773D01*
D19*
X14836Y-2306D02*
X14810Y-2331D01*
X14836Y-2306D02*
X14861Y-2331D01*
X14836Y-2357D01*
X14810Y-2331D01*
D24*
X15522Y-344D02*
X15677Y-189D01*
X15522Y-344D02*
X15591Y-414D01*
X15695Y-519D02*
X15706Y-526D01*
X15717Y-531D01*
X15730Y-533D01*
X15743Y-531D01*
X15754Y-526D01*
X15765Y-519D01*
X15695Y-518D02*
X15685Y-505D01*
X15676Y-492D01*
X15670Y-477D01*
X15666Y-461D01*
X15665Y-445D01*
X15768Y-349D02*
X15779Y-342D01*
X15790Y-337D01*
X15803Y-335D01*
X15816Y-337D01*
X15828Y-342D01*
X15838Y-349D01*
X15848Y-360D01*
X15855Y-373D01*
X15861Y-387D01*
X15864Y-401D01*
X15769Y-350D02*
X15761Y-360D01*
X15756Y-372D01*
X15754Y-385D01*
X15756Y-398D01*
X15777Y-470D02*
X15779Y-483D01*
X15777Y-496D01*
X15772Y-508D01*
X15764Y-518D01*
X15777Y-471D02*
X15756Y-397D01*
X15953Y-465D02*
X15798Y-621D01*
X15919Y-603D02*
X15953Y-465D01*
X15919Y-603D02*
X16057Y-569D01*
X15901Y-724D01*
X16061Y-711D02*
X16113Y-763D01*
X16113Y-762D02*
X16120Y-773D01*
X16125Y-784D01*
X16127Y-797D01*
X16125Y-810D01*
X16120Y-822D01*
X16113Y-832D01*
X16104Y-840D01*
X16093Y-849D01*
X16079Y-855D01*
X16065Y-858D01*
X16050Y-857D01*
X16036Y-853D01*
X16023Y-845D01*
X16013Y-835D01*
X16005Y-822D01*
X16001Y-808D01*
X16000Y-793D01*
X16003Y-779D01*
X16009Y-765D01*
X16018Y-754D01*
X16061Y-711D01*
X16076Y-699D01*
X16092Y-689D01*
X16111Y-684D01*
X16130Y-682D01*
X16149Y-684D01*
X16168Y-689D01*
X16184Y-699D01*
X16199Y-711D01*
D23*
X14486Y-236D02*
X14264Y-14D01*
D10*
X14811Y367D02*
X14832Y346D01*
X14811Y366D02*
X14806Y374D01*
X14803Y382D01*
X14803Y392D01*
X14806Y400D01*
X14811Y408D01*
X14862Y459D01*
X14870Y464D01*
X14878Y467D01*
X14888Y467D01*
X14896Y464D01*
X14904Y459D01*
X14903Y459D02*
X14924Y438D01*
X14902Y327D02*
X14911Y334D01*
X14921Y338D01*
X14933Y338D01*
X14943Y334D01*
X14952Y327D01*
X14959Y318D01*
X14963Y308D01*
X14963Y296D01*
X14959Y286D01*
X14952Y277D01*
X14943Y270D01*
X14933Y266D01*
X14921Y266D01*
X14911Y270D01*
X14902Y277D01*
X14895Y286D01*
X14891Y296D01*
X14891Y308D01*
X14895Y318D01*
X14902Y327D01*
X14952Y369D02*
X14961Y374D01*
X14970Y377D01*
X14981Y376D01*
X14990Y372D01*
X14997Y365D01*
X15001Y356D01*
X15002Y345D01*
X14999Y336D01*
X14994Y327D01*
X14986Y322D01*
X14978Y319D01*
X14968Y319D01*
X14960Y322D01*
X14952Y327D01*
X14947Y335D01*
X14944Y343D01*
X14944Y353D01*
X14947Y361D01*
X14952Y369D01*
D12*
X13583Y715D02*
X13477Y821D01*
X13506Y850D01*
X13506Y851D02*
X13516Y858D01*
X13527Y862D01*
X13539Y863D01*
X13551Y860D01*
X13561Y855D01*
X13570Y846D01*
X13575Y836D01*
X13578Y824D01*
X13577Y812D01*
X13573Y801D01*
X13566Y791D01*
X13565Y792D02*
X13536Y762D01*
X13571Y797D02*
X13642Y774D01*
X13664Y955D02*
X13654Y962D01*
X13643Y966D01*
X13631Y966D01*
X13620Y962D01*
X13610Y955D01*
X13611Y955D02*
X13604Y945D01*
X13599Y934D01*
X13597Y922D01*
X13598Y910D01*
X13602Y899D01*
X13675Y925D02*
X13674Y936D01*
X13670Y946D01*
X13663Y954D01*
X13675Y925D02*
X13684Y816D01*
X13743Y875D01*
X13208Y-1224D02*
X13102Y-1330D01*
X13208Y-1224D02*
X13237Y-1254D01*
X13238Y-1253D02*
X13245Y-1263D01*
X13249Y-1274D01*
X13250Y-1286D01*
X13247Y-1298D01*
X13242Y-1308D01*
X13233Y-1317D01*
X13223Y-1322D01*
X13211Y-1325D01*
X13199Y-1324D01*
X13188Y-1320D01*
X13178Y-1313D01*
X13179Y-1313D02*
X13149Y-1283D01*
X13184Y-1319D02*
X13161Y-1389D01*
X13274Y-1408D02*
X13309Y-1443D01*
X13274Y-1407D02*
X13268Y-1399D01*
X13264Y-1389D01*
X13264Y-1379D01*
X13268Y-1369D01*
X13274Y-1361D01*
X13280Y-1355D01*
X13279Y-1354D02*
X13289Y-1347D01*
X13300Y-1343D01*
X13312Y-1342D01*
X13324Y-1345D01*
X13334Y-1350D01*
X13343Y-1359D01*
X13348Y-1369D01*
X13351Y-1381D01*
X13350Y-1393D01*
X13346Y-1404D01*
X13339Y-1414D01*
X13309Y-1443D01*
X13298Y-1453D01*
X13284Y-1459D01*
X13270Y-1463D01*
X13254Y-1463D01*
X13240Y-1459D01*
X13226Y-1453D01*
X13215Y-1443D01*
D11*
X14131Y3392D02*
X12990Y4589D01*
X13860Y5418D02*
X15001Y4220D01*
D19*
X13185Y4197D02*
X12997Y4018D01*
X13185Y4197D02*
X13235Y4145D01*
X13245Y4132D01*
X13252Y4117D01*
X13255Y4101D01*
X13254Y4085D01*
X13250Y4070D01*
X13243Y4055D01*
X13233Y4043D01*
X13220Y4033D01*
X13205Y4026D01*
X13189Y4023D01*
X13173Y4024D01*
X13158Y4028D01*
X13143Y4035D01*
X13131Y4045D01*
X13081Y4097D01*
X13141Y4035D02*
X13097Y3913D01*
X13201Y3804D02*
X13281Y3720D01*
X13201Y3804D02*
X13389Y3983D01*
X13469Y3899D01*
X13365Y3841D02*
X13305Y3903D01*
X13419Y3575D02*
X13429Y3567D01*
X13441Y3561D01*
X13453Y3558D01*
X13466Y3557D01*
X13479Y3560D01*
X13491Y3565D01*
X13501Y3573D01*
X13419Y3575D02*
X13407Y3590D01*
X13397Y3606D01*
X13390Y3624D01*
X13386Y3643D01*
X13385Y3662D01*
X13510Y3772D02*
X13520Y3780D01*
X13532Y3785D01*
X13545Y3788D01*
X13558Y3787D01*
X13570Y3784D01*
X13582Y3778D01*
X13592Y3770D01*
X13592Y3769D02*
X13603Y3756D01*
X13612Y3741D01*
X13618Y3725D01*
X13621Y3708D01*
X13494Y3716D02*
X13492Y3728D01*
X13493Y3740D01*
X13497Y3752D01*
X13502Y3762D01*
X13510Y3772D01*
X13517Y3628D02*
X13519Y3616D01*
X13518Y3604D01*
X13514Y3592D01*
X13509Y3582D01*
X13501Y3572D01*
X13517Y3629D02*
X13494Y3716D01*
X13558Y3428D02*
X13638Y3345D01*
X13558Y3428D02*
X13747Y3608D01*
X13826Y3524D01*
X13723Y3465D02*
X13663Y3528D01*
X13948Y3396D02*
X13760Y3217D01*
X13898Y3448D02*
X13998Y3344D01*
X13264Y-2724D02*
X13883Y-3343D01*
X14858Y-4318D02*
X15477Y-4937D01*
X15268Y-5146D01*
X14294Y-6120D02*
X14085Y-6329D01*
X11872Y-4116D01*
X12081Y-3907D01*
X13055Y-2933D02*
X13264Y-2724D01*
X11990Y-7191D02*
X12609Y-7811D01*
X11015Y-6217D02*
X10396Y-5597D01*
X10605Y-5389D01*
X11579Y-4414D02*
X11788Y-4205D01*
X14001Y-6419D01*
X13792Y-6627D01*
X12818Y-7602D02*
X12609Y-7811D01*
D25*
X2276Y37D02*
X2278Y49D01*
X2283Y60D01*
X2292Y69D01*
X2303Y74D01*
X2315Y76D01*
X2327Y74D01*
X2338Y69D01*
X2347Y60D01*
X2352Y49D01*
X2354Y37D01*
X2352Y25D01*
X2347Y14D01*
X2338Y5D01*
X2327Y0D01*
X2315Y-2D01*
X2303Y0D01*
X2292Y5D01*
X2283Y14D01*
X2278Y25D01*
X2276Y37D01*
D13*
X367Y746D02*
X367Y-2246D01*
X1371Y746D02*
X1528Y746D01*
X1528Y-2246D02*
X1371Y-2246D01*
X504Y746D02*
X386Y746D01*
X386Y-2246D02*
X504Y-2246D01*
D15*
X2475Y284D02*
X2833Y284D01*
X2851Y282D01*
X2868Y278D01*
X2884Y270D01*
X2899Y260D01*
X2911Y248D01*
X2921Y233D01*
X2929Y217D01*
X2933Y200D01*
X2935Y182D01*
X2935Y131D01*
X2577Y492D02*
X2475Y620D01*
X2935Y620D01*
X2935Y747D02*
X2935Y492D01*
D13*
X9265Y-4563D02*
X10239Y-5537D01*
X13162Y-2614D02*
X12188Y-1640D01*
D26*
X10790Y-5361D02*
X10792Y-5349D01*
X10797Y-5338D01*
X10806Y-5329D01*
X10817Y-5324D01*
X10829Y-5322D01*
X10841Y-5324D01*
X10852Y-5329D01*
X10861Y-5338D01*
X10866Y-5349D01*
X10868Y-5361D01*
X10866Y-5373D01*
X10861Y-5384D01*
X10852Y-5393D01*
X10841Y-5398D01*
X10829Y-5400D01*
X10817Y-5398D01*
X10806Y-5393D01*
X10797Y-5384D01*
X10792Y-5373D01*
X10790Y-5361D01*
D13*
X10239Y-5537D02*
X13162Y-2614D01*
X12188Y-1640D02*
X9265Y-4563D01*
X12985Y-3437D02*
X13232Y-3685D01*
X13243Y-3699D01*
X13252Y-3714D01*
X13258Y-3730D01*
X13261Y-3747D01*
X13261Y-3765D01*
X13258Y-3782D01*
X13252Y-3798D01*
X13243Y-3813D01*
X13232Y-3827D01*
X13232Y-3826D02*
X13197Y-3862D01*
X13232Y-3189D02*
X13247Y-3176D01*
X13264Y-3167D01*
X13283Y-3160D01*
X13302Y-3156D01*
X13322Y-3156D01*
X13341Y-3160D01*
X13360Y-3167D01*
X13377Y-3176D01*
X13392Y-3189D01*
X13232Y-3189D02*
X13218Y-3207D01*
X13206Y-3226D01*
X13197Y-3247D01*
X13192Y-3269D01*
X13190Y-3292D01*
X13192Y-3315D01*
X13197Y-3337D01*
X13206Y-3358D01*
X13427Y-3278D02*
X13426Y-3258D01*
X13422Y-3239D01*
X13414Y-3221D01*
X13404Y-3204D01*
X13392Y-3189D01*
X13427Y-3278D02*
X13453Y-3605D01*
X13630Y-3428D01*
M02*
