G04 EAGLE Gerber RS-274X export*
G75*
%MOIN*%
%FSLAX34Y34*%
%LPD*%
%INSilkscreen Bottom*%
%IPPOS*%
%AMOC8*
5,1,8,0,0,1.08239X$1,22.5*%
G01*
%ADD10C,0.008000*%
%ADD11C,0.003000*%


D10*
X6803Y3044D02*
X6803Y4696D01*
X6781Y4125D02*
X6751Y4123D01*
X6721Y4118D01*
X6692Y4109D01*
X6665Y4096D01*
X6639Y4081D01*
X6615Y4062D01*
X6594Y4041D01*
X6575Y4017D01*
X6560Y3991D01*
X6547Y3964D01*
X6538Y3935D01*
X6533Y3905D01*
X6531Y3875D01*
X6533Y3845D01*
X6538Y3815D01*
X6547Y3786D01*
X6560Y3759D01*
X6575Y3733D01*
X6594Y3709D01*
X6615Y3688D01*
X6639Y3669D01*
X6665Y3654D01*
X6692Y3641D01*
X6721Y3632D01*
X6751Y3627D01*
X6781Y3625D01*
D11*
X5745Y5515D02*
X5745Y5805D01*
X5664Y5805D01*
X5647Y5803D01*
X5631Y5798D01*
X5616Y5790D01*
X5604Y5778D01*
X5594Y5765D01*
X5587Y5749D01*
X5583Y5732D01*
X5583Y5716D01*
X5587Y5699D01*
X5594Y5684D01*
X5604Y5670D01*
X5616Y5658D01*
X5631Y5650D01*
X5647Y5645D01*
X5664Y5643D01*
X5664Y5644D02*
X5745Y5644D01*
X5384Y5515D02*
X5370Y5517D01*
X5356Y5521D01*
X5344Y5529D01*
X5334Y5539D01*
X5326Y5551D01*
X5322Y5565D01*
X5320Y5579D01*
X5384Y5515D02*
X5405Y5517D01*
X5426Y5522D01*
X5446Y5530D01*
X5464Y5541D01*
X5481Y5555D01*
X5472Y5741D02*
X5470Y5755D01*
X5466Y5769D01*
X5458Y5781D01*
X5448Y5791D01*
X5436Y5799D01*
X5422Y5803D01*
X5408Y5805D01*
X5389Y5803D01*
X5370Y5799D01*
X5352Y5791D01*
X5335Y5781D01*
X5440Y5685D02*
X5451Y5693D01*
X5460Y5703D01*
X5466Y5715D01*
X5471Y5728D01*
X5472Y5741D01*
X5352Y5635D02*
X5341Y5627D01*
X5332Y5617D01*
X5326Y5605D01*
X5321Y5592D01*
X5320Y5579D01*
X5352Y5636D02*
X5441Y5684D01*
X5191Y5805D02*
X5191Y5515D01*
X5191Y5805D02*
X5110Y5805D01*
X5093Y5803D01*
X5077Y5798D01*
X5062Y5790D01*
X5050Y5778D01*
X5040Y5765D01*
X5033Y5749D01*
X5029Y5732D01*
X5029Y5716D01*
X5033Y5699D01*
X5040Y5684D01*
X5050Y5670D01*
X5062Y5658D01*
X5077Y5650D01*
X5093Y5645D01*
X5110Y5643D01*
X5110Y5644D02*
X5191Y5644D01*
X5094Y5644D02*
X5030Y5515D01*
X4921Y5515D02*
X4824Y5805D01*
X4728Y5515D01*
X4752Y5588D02*
X4897Y5588D01*
X4604Y5515D02*
X4604Y5805D01*
X4507Y5644D01*
X4411Y5805D01*
X4411Y5515D01*
M02*
