G04 EAGLE Gerber RS-274X export*
G75*
%MOIN*%
%FSLAX34Y34*%
%LPD*%
%INSoldermask Top*%
%IPPOS*%
%AMOC8*
5,1,8,0,0,1.08239X$1,22.5*%
G01*
%ADD10C,0.092500*%
%ADD11R,0.033996X0.033996*%
%ADD12R,0.022185X0.022185*%
%ADD13C,0.007979*%
%ADD14R,0.092500X0.092500*%
%ADD15R,0.022185X0.022185*%
%ADD16C,0.004000*%
%ADD17R,0.180000X0.180000*%
%ADD18R,0.014311X0.028484*%
%ADD19R,0.033996X0.026122*%
%ADD20R,0.024154X0.049744*%
%ADD21R,0.023622X0.031496*%
%ADD22R,0.031496X0.019685*%
%ADD23R,0.013780X0.019685*%
%ADD24R,0.016280X0.030059*%
%ADD25R,0.036358X0.033996*%
%ADD26R,0.021500X0.021500*%
%ADD27R,0.019685X0.031496*%
%ADD28R,0.019685X0.013780*%
%ADD29R,0.026122X0.026122*%
%ADD30R,0.028500X0.040500*%
%ADD31R,0.010374X0.010374*%
%ADD32R,0.024500X0.026500*%
%ADD33R,0.026122X0.033996*%
%ADD34R,0.016500X0.015500*%
%ADD35R,0.046500X0.073500*%
%ADD36R,0.030500X0.071500*%
%ADD37R,0.046500X0.059500*%
%ADD38R,0.024154X0.012343*%
%ADD39R,0.045807X0.020217*%
%ADD40R,0.045807X0.045807*%
%ADD41R,0.014311X0.065492*%
%ADD42R,0.191476X0.128484*%
%ADD43R,0.057618X0.073366*%
%ADD44R,0.051319X0.061555*%
%ADD45R,0.021201X0.012343*%
%ADD46R,0.044823X0.041870*%
%ADD47R,0.041870X0.045807*%
%ADD48R,0.037933X0.037933*%
%ADD49R,0.041870X0.219035*%
%ADD50R,0.065492X0.120610*%
%ADD51R,0.055650X0.018248*%
%ADD52R,0.057618X0.065492*%
%ADD53R,0.077303X0.077303*%
%ADD54C,0.022185*%
%ADD55C,0.037933*%
%ADD56R,0.043839X0.043839*%
%ADD57C,0.043839*%
%ADD58C,0.024280*%

G36*
X7489Y-5754D02*
X7489Y-5754D01*
X7491Y-5753D01*
X7533Y-5711D01*
X7533Y-5710D01*
X7534Y-5710D01*
X7534Y-5708D01*
X7534Y-5680D01*
X7534Y-5679D01*
X7533Y-5677D01*
X7456Y-5600D01*
X7456Y-5576D01*
X7565Y-5467D01*
X7590Y-5467D01*
X7666Y-5544D01*
X7667Y-5544D01*
X7669Y-5545D01*
X7697Y-5545D01*
X7698Y-5545D01*
X7700Y-5544D01*
X7742Y-5502D01*
X7743Y-5501D01*
X7743Y-5499D01*
X7743Y-5471D01*
X7743Y-5470D01*
X7742Y-5468D01*
X7491Y-5218D01*
X7491Y-5217D01*
X7488Y-5216D01*
X7461Y-5216D01*
X7460Y-5217D01*
X7459Y-5217D01*
X7458Y-5218D01*
X7207Y-5468D01*
X7207Y-5469D01*
X7206Y-5469D01*
X7206Y-5471D01*
X7206Y-5499D01*
X7206Y-5500D01*
X7207Y-5502D01*
X7458Y-5753D01*
X7461Y-5754D01*
X7488Y-5754D01*
X7489Y-5754D01*
G37*
G36*
X3069Y4743D02*
X3069Y4743D01*
X3069Y4976D01*
X2887Y4976D01*
X2887Y4862D01*
X3006Y4743D01*
X3069Y4743D01*
X3069Y4743D01*
G37*
G36*
X2694Y4743D02*
X2694Y4743D01*
X2813Y4862D01*
X2813Y4976D01*
X2631Y4976D01*
X2631Y4743D01*
X2694Y4743D01*
X2694Y4743D01*
G37*
G36*
X2813Y4424D02*
X2813Y4424D01*
X2813Y4538D01*
X2694Y4657D01*
X2631Y4657D01*
X2631Y4424D01*
X2813Y4424D01*
X2813Y4424D01*
G37*
G36*
X3069Y4424D02*
X3069Y4424D01*
X3069Y4657D01*
X3006Y4657D01*
X2887Y4538D01*
X2887Y4424D01*
X3069Y4424D01*
X3069Y4424D01*
G37*
G36*
X7522Y-4383D02*
X7522Y-4383D01*
X7523Y-4383D01*
X7525Y-4382D01*
X7580Y-4327D01*
X7581Y-4326D01*
X7581Y-4325D01*
X7582Y-4323D01*
X7580Y-4321D01*
X7469Y-4209D01*
X7467Y-4208D01*
X7466Y-4208D01*
X7465Y-4208D01*
X7463Y-4209D01*
X7407Y-4265D01*
X7407Y-4267D01*
X7406Y-4268D01*
X7406Y-4269D01*
X7407Y-4271D01*
X7519Y-4382D01*
X7519Y-4383D01*
X7520Y-4383D01*
X7522Y-4383D01*
X7522Y-4383D01*
G37*
D10*
X15688Y750D03*
X8750Y6813D03*
X3250Y-6313D03*
D11*
X2312Y2960D03*
X2912Y2960D03*
D12*
G36*
X2913Y5392D02*
X3086Y5531D01*
X3225Y5358D01*
X3052Y5219D01*
X2913Y5392D01*
G37*
G36*
X2600Y5142D02*
X2773Y5281D01*
X2912Y5108D01*
X2739Y4969D01*
X2600Y5142D01*
G37*
G36*
X7645Y1914D02*
X7489Y1758D01*
X7333Y1914D01*
X7489Y2070D01*
X7645Y1914D01*
G37*
G36*
X7927Y2196D02*
X7771Y2040D01*
X7615Y2196D01*
X7771Y2352D01*
X7927Y2196D01*
G37*
D13*
X5221Y3633D02*
X5057Y3797D01*
X5221Y3633D02*
X5183Y3595D01*
X5019Y3759D01*
X5057Y3797D01*
X5107Y3671D02*
X5183Y3671D01*
X5107Y3747D02*
X5031Y3747D01*
X4918Y3658D02*
X5082Y3494D01*
X5044Y3456D01*
X4880Y3620D01*
X4918Y3658D01*
X4968Y3532D02*
X5044Y3532D01*
X4968Y3608D02*
X4892Y3608D01*
X4779Y3519D02*
X4943Y3355D01*
X4905Y3317D01*
X4741Y3481D01*
X4779Y3519D01*
X4829Y3393D02*
X4905Y3393D01*
X4829Y3469D02*
X4753Y3469D01*
X4639Y3379D02*
X4803Y3215D01*
X4765Y3177D01*
X4601Y3341D01*
X4639Y3379D01*
X4689Y3253D02*
X4765Y3253D01*
X4689Y3329D02*
X4613Y3329D01*
X4500Y3240D02*
X4664Y3076D01*
X4626Y3038D01*
X4462Y3202D01*
X4500Y3240D01*
X4550Y3114D02*
X4626Y3114D01*
X4550Y3190D02*
X4474Y3190D01*
X4361Y3101D02*
X4525Y2937D01*
X4487Y2899D01*
X4323Y3063D01*
X4361Y3101D01*
X4411Y2975D02*
X4487Y2975D01*
X4411Y3051D02*
X4335Y3051D01*
X4525Y2663D02*
X4361Y2499D01*
X4323Y2537D01*
X4487Y2701D01*
X4525Y2663D01*
X4437Y2575D02*
X4361Y2575D01*
X4437Y2651D02*
X4513Y2651D01*
X4664Y2524D02*
X4500Y2360D01*
X4462Y2398D01*
X4626Y2562D01*
X4664Y2524D01*
X4576Y2436D02*
X4500Y2436D01*
X4576Y2512D02*
X4652Y2512D01*
X4803Y2385D02*
X4639Y2221D01*
X4601Y2259D01*
X4765Y2423D01*
X4803Y2385D01*
X4715Y2297D02*
X4639Y2297D01*
X4715Y2373D02*
X4791Y2373D01*
X4943Y2245D02*
X4779Y2081D01*
X4741Y2119D01*
X4905Y2283D01*
X4943Y2245D01*
X4855Y2157D02*
X4779Y2157D01*
X4855Y2233D02*
X4931Y2233D01*
X5082Y2106D02*
X4918Y1942D01*
X4880Y1980D01*
X5044Y2144D01*
X5082Y2106D01*
X4994Y2018D02*
X4918Y2018D01*
X4994Y2094D02*
X5070Y2094D01*
X5221Y1967D02*
X5057Y1803D01*
X5019Y1841D01*
X5183Y2005D01*
X5221Y1967D01*
X5133Y1879D02*
X5057Y1879D01*
X5133Y1955D02*
X5209Y1955D01*
X5419Y1967D02*
X5583Y1803D01*
X5419Y1967D02*
X5457Y2005D01*
X5621Y1841D01*
X5583Y1803D01*
X5583Y1879D02*
X5507Y1879D01*
X5507Y1955D02*
X5431Y1955D01*
X5558Y2106D02*
X5722Y1942D01*
X5558Y2106D02*
X5596Y2144D01*
X5760Y1980D01*
X5722Y1942D01*
X5722Y2018D02*
X5646Y2018D01*
X5646Y2094D02*
X5570Y2094D01*
X5697Y2245D02*
X5861Y2081D01*
X5697Y2245D02*
X5735Y2283D01*
X5899Y2119D01*
X5861Y2081D01*
X5861Y2157D02*
X5785Y2157D01*
X5785Y2233D02*
X5709Y2233D01*
X5837Y2385D02*
X6001Y2221D01*
X5837Y2385D02*
X5875Y2423D01*
X6039Y2259D01*
X6001Y2221D01*
X6001Y2297D02*
X5925Y2297D01*
X5925Y2373D02*
X5849Y2373D01*
X5976Y2524D02*
X6140Y2360D01*
X5976Y2524D02*
X6014Y2562D01*
X6178Y2398D01*
X6140Y2360D01*
X6140Y2436D02*
X6064Y2436D01*
X6064Y2512D02*
X5988Y2512D01*
X6189Y2589D02*
X6275Y2503D01*
X6189Y2589D02*
X6227Y2627D01*
X6313Y2541D01*
X6275Y2503D01*
X6275Y2579D02*
X6199Y2579D01*
X6115Y2937D02*
X6279Y3101D01*
X6317Y3063D01*
X6153Y2899D01*
X6115Y2937D01*
X6153Y2975D02*
X6229Y2975D01*
X6229Y3051D02*
X6305Y3051D01*
X6140Y3240D02*
X5976Y3076D01*
X6140Y3240D02*
X6178Y3202D01*
X6014Y3038D01*
X5976Y3076D01*
X6014Y3114D02*
X6090Y3114D01*
X6090Y3190D02*
X6166Y3190D01*
X6001Y3379D02*
X5837Y3215D01*
X6001Y3379D02*
X6039Y3341D01*
X5875Y3177D01*
X5837Y3215D01*
X5875Y3253D02*
X5951Y3253D01*
X5951Y3329D02*
X6027Y3329D01*
X5861Y3519D02*
X5697Y3355D01*
X5861Y3519D02*
X5899Y3481D01*
X5735Y3317D01*
X5697Y3355D01*
X5735Y3393D02*
X5811Y3393D01*
X5811Y3469D02*
X5887Y3469D01*
X5722Y3658D02*
X5558Y3494D01*
X5722Y3658D02*
X5760Y3620D01*
X5596Y3456D01*
X5558Y3494D01*
X5596Y3532D02*
X5672Y3532D01*
X5672Y3608D02*
X5748Y3608D01*
X5583Y3797D02*
X5419Y3633D01*
X5583Y3797D02*
X5621Y3759D01*
X5457Y3595D01*
X5419Y3633D01*
X5457Y3671D02*
X5533Y3671D01*
X5533Y3747D02*
X5609Y3747D01*
D14*
G36*
X5320Y2147D02*
X4667Y2800D01*
X5320Y3453D01*
X5973Y2800D01*
X5320Y2147D01*
G37*
D15*
X3900Y2300D03*
X3900Y1900D03*
X3500Y2300D03*
X3500Y1900D03*
D16*
X7708Y2608D02*
X7861Y2455D01*
X7708Y2608D02*
X7761Y2660D01*
X7914Y2508D01*
X7861Y2455D01*
X7874Y2495D02*
X7749Y2620D01*
X7848Y2747D02*
X8000Y2594D01*
X7848Y2747D02*
X7901Y2800D01*
X8053Y2647D01*
X8000Y2594D01*
X8014Y2633D02*
X7888Y2759D01*
X7987Y2886D02*
X8139Y2733D01*
X7987Y2886D02*
X8040Y2939D01*
X8192Y2786D01*
X8139Y2733D01*
X8154Y2772D02*
X8027Y2898D01*
X8126Y3025D02*
X8279Y2873D01*
X8126Y3025D02*
X8179Y3078D01*
X8331Y2925D01*
X8279Y2873D01*
X8291Y2913D02*
X8166Y3038D01*
X8265Y3164D02*
X8418Y3012D01*
X8265Y3164D02*
X8318Y3217D01*
X8471Y3065D01*
X8418Y3012D01*
X8430Y3052D02*
X8306Y3177D01*
X8404Y3303D02*
X8557Y3151D01*
X8404Y3303D02*
X8457Y3356D01*
X8610Y3204D01*
X8557Y3151D01*
X8571Y3190D02*
X8445Y3316D01*
X8544Y3443D02*
X8696Y3290D01*
X8544Y3443D02*
X8597Y3496D01*
X8749Y3343D01*
X8696Y3290D01*
X8707Y3332D02*
X8584Y3455D01*
X8683Y3582D02*
X8835Y3429D01*
X8683Y3582D02*
X8736Y3635D01*
X8888Y3482D01*
X8835Y3429D01*
X8848Y3470D02*
X8723Y3594D01*
X8822Y3721D02*
X8975Y3569D01*
X8822Y3721D02*
X8875Y3774D01*
X9027Y3621D01*
X8975Y3569D01*
X8984Y3612D02*
X8862Y3734D01*
X8961Y3860D02*
X9114Y3708D01*
X8961Y3860D02*
X9014Y3913D01*
X9167Y3761D01*
X9114Y3708D01*
X9125Y3750D02*
X9002Y3873D01*
X9100Y3999D02*
X9253Y3847D01*
X9100Y3999D02*
X9153Y4052D01*
X9306Y3900D01*
X9253Y3847D01*
X9269Y3884D02*
X9141Y4012D01*
X9240Y4139D02*
X9392Y3986D01*
X9240Y4139D02*
X9292Y4192D01*
X9445Y4039D01*
X9392Y3986D01*
X9405Y4026D02*
X9280Y4151D01*
X9292Y4308D02*
X9445Y4461D01*
X9292Y4308D02*
X9240Y4361D01*
X9392Y4514D01*
X9445Y4461D01*
X9406Y4475D02*
X9280Y4349D01*
X9153Y4448D02*
X9306Y4600D01*
X9153Y4448D02*
X9100Y4501D01*
X9253Y4653D01*
X9306Y4600D01*
X9267Y4614D02*
X9141Y4488D01*
X9014Y4587D02*
X9167Y4739D01*
X9014Y4587D02*
X8961Y4640D01*
X9114Y4792D01*
X9167Y4739D01*
X9128Y4754D02*
X9002Y4627D01*
X8875Y4726D02*
X9027Y4879D01*
X8875Y4726D02*
X8822Y4779D01*
X8975Y4931D01*
X9027Y4879D01*
X8987Y4891D02*
X8862Y4766D01*
X8736Y4865D02*
X8888Y5018D01*
X8736Y4865D02*
X8683Y4918D01*
X8835Y5071D01*
X8888Y5018D01*
X8851Y5034D02*
X8723Y4906D01*
X8597Y5004D02*
X8749Y5157D01*
X8597Y5004D02*
X8544Y5057D01*
X8696Y5210D01*
X8749Y5157D01*
X8709Y5170D02*
X8584Y5045D01*
X8457Y5144D02*
X8610Y5296D01*
X8457Y5144D02*
X8404Y5197D01*
X8557Y5349D01*
X8610Y5296D01*
X8571Y5310D02*
X8445Y5184D01*
X8318Y5283D02*
X8471Y5435D01*
X8318Y5283D02*
X8265Y5336D01*
X8418Y5488D01*
X8471Y5435D01*
X8436Y5453D02*
X8306Y5323D01*
X8179Y5422D02*
X8331Y5575D01*
X8179Y5422D02*
X8126Y5475D01*
X8279Y5627D01*
X8331Y5575D01*
X8295Y5591D02*
X8166Y5462D01*
X8040Y5561D02*
X8192Y5714D01*
X8040Y5561D02*
X7987Y5614D01*
X8139Y5767D01*
X8192Y5714D01*
X8155Y5730D02*
X8027Y5602D01*
X7901Y5700D02*
X8053Y5853D01*
X7901Y5700D02*
X7848Y5753D01*
X8000Y5906D01*
X8053Y5853D01*
X8011Y5864D02*
X7888Y5741D01*
X7761Y5840D02*
X7914Y5992D01*
X7761Y5840D02*
X7708Y5892D01*
X7861Y6045D01*
X7914Y5992D01*
X7870Y6001D02*
X7749Y5880D01*
X7592Y5892D02*
X7439Y6045D01*
X7592Y5892D02*
X7539Y5840D01*
X7386Y5992D01*
X7439Y6045D01*
X7428Y6003D02*
X7551Y5880D01*
X7452Y5753D02*
X7300Y5906D01*
X7452Y5753D02*
X7399Y5700D01*
X7247Y5853D01*
X7300Y5906D01*
X7287Y5865D02*
X7412Y5741D01*
X7313Y5614D02*
X7161Y5767D01*
X7313Y5614D02*
X7260Y5561D01*
X7108Y5714D01*
X7161Y5767D01*
X7150Y5725D02*
X7273Y5602D01*
X7174Y5475D02*
X7023Y5629D01*
X7174Y5475D02*
X7121Y5422D01*
X6970Y5576D01*
X7023Y5629D01*
X7009Y5587D02*
X7134Y5462D01*
X7035Y5336D02*
X6882Y5488D01*
X7035Y5336D02*
X6982Y5283D01*
X6829Y5435D01*
X6882Y5488D01*
X6870Y5448D02*
X6994Y5323D01*
X6896Y5197D02*
X6743Y5349D01*
X6896Y5197D02*
X6843Y5144D01*
X6690Y5296D01*
X6743Y5349D01*
X6730Y5309D02*
X6855Y5184D01*
X6756Y5057D02*
X6604Y5210D01*
X6756Y5057D02*
X6703Y5004D01*
X6551Y5157D01*
X6604Y5210D01*
X6590Y5171D02*
X6716Y5045D01*
X6617Y4918D02*
X6465Y5071D01*
X6617Y4918D02*
X6564Y4865D01*
X6412Y5018D01*
X6465Y5071D01*
X6450Y5032D02*
X6577Y4906D01*
X6478Y4779D02*
X6325Y4931D01*
X6478Y4779D02*
X6425Y4726D01*
X6273Y4879D01*
X6325Y4931D01*
X6313Y4891D02*
X6438Y4766D01*
X6339Y4640D02*
X6186Y4792D01*
X6339Y4640D02*
X6286Y4587D01*
X6133Y4739D01*
X6186Y4792D01*
X6174Y4752D02*
X6298Y4627D01*
X6200Y4501D02*
X6047Y4653D01*
X6200Y4501D02*
X6147Y4448D01*
X5994Y4600D01*
X6047Y4653D01*
X6035Y4613D02*
X6159Y4488D01*
X6060Y4361D02*
X5908Y4514D01*
X6060Y4361D02*
X6008Y4308D01*
X5855Y4461D01*
X5908Y4514D01*
X5897Y4472D02*
X6020Y4349D01*
X6008Y4192D02*
X5855Y4039D01*
X6008Y4192D02*
X6060Y4139D01*
X5908Y3986D01*
X5855Y4039D01*
X5895Y4026D02*
X6020Y4151D01*
X6147Y4052D02*
X5994Y3900D01*
X6147Y4052D02*
X6200Y3999D01*
X6047Y3847D01*
X5994Y3900D01*
X6031Y3884D02*
X6159Y4012D01*
X6286Y3913D02*
X6133Y3761D01*
X6286Y3913D02*
X6339Y3860D01*
X6186Y3708D01*
X6133Y3761D01*
X6174Y3748D02*
X6298Y3873D01*
X6425Y3774D02*
X6273Y3621D01*
X6425Y3774D02*
X6478Y3721D01*
X6325Y3569D01*
X6273Y3621D01*
X6315Y3611D02*
X6438Y3734D01*
X6564Y3635D02*
X6412Y3482D01*
X6564Y3635D02*
X6617Y3582D01*
X6465Y3429D01*
X6412Y3482D01*
X6456Y3473D02*
X6577Y3594D01*
X6703Y3496D02*
X6551Y3343D01*
X6703Y3496D02*
X6756Y3443D01*
X6604Y3290D01*
X6551Y3343D01*
X6593Y3332D02*
X6716Y3455D01*
X6843Y3356D02*
X6690Y3204D01*
X6843Y3356D02*
X6896Y3303D01*
X6743Y3151D01*
X6690Y3204D01*
X6732Y3193D02*
X6855Y3316D01*
X6982Y3217D02*
X6829Y3065D01*
X6982Y3217D02*
X7035Y3164D01*
X6882Y3012D01*
X6829Y3065D01*
X6871Y3054D02*
X6994Y3177D01*
X7121Y3078D02*
X6969Y2925D01*
X7121Y3078D02*
X7174Y3025D01*
X7021Y2873D01*
X6969Y2925D01*
X7007Y2911D02*
X7134Y3038D01*
X7260Y2939D02*
X7108Y2786D01*
X7260Y2939D02*
X7313Y2886D01*
X7161Y2733D01*
X7108Y2786D01*
X7143Y2768D02*
X7273Y2898D01*
X7399Y2800D02*
X7247Y2647D01*
X7399Y2800D02*
X7452Y2747D01*
X7300Y2594D01*
X7247Y2647D01*
X7286Y2633D02*
X7412Y2759D01*
X7539Y2660D02*
X7386Y2508D01*
X7539Y2660D02*
X7592Y2608D01*
X7439Y2455D01*
X7386Y2508D01*
X7421Y2490D02*
X7551Y2620D01*
D17*
G36*
X7650Y5522D02*
X8922Y4250D01*
X7650Y2978D01*
X6378Y4250D01*
X7650Y5522D01*
G37*
D12*
G36*
X8880Y2869D02*
X8724Y2713D01*
X8568Y2869D01*
X8724Y3025D01*
X8880Y2869D01*
G37*
G36*
X9162Y3151D02*
X9006Y2995D01*
X8850Y3151D01*
X9006Y3307D01*
X9162Y3151D01*
G37*
D18*
G36*
X6947Y2617D02*
X6847Y2517D01*
X6647Y2717D01*
X6747Y2817D01*
X6947Y2617D01*
G37*
G36*
X6766Y2436D02*
X6666Y2336D01*
X6466Y2536D01*
X6566Y2636D01*
X6766Y2436D01*
G37*
G36*
X6585Y2255D02*
X6485Y2155D01*
X6285Y2355D01*
X6385Y2455D01*
X6585Y2255D01*
G37*
G36*
X6798Y1843D02*
X6898Y1943D01*
X7098Y1743D01*
X6998Y1643D01*
X6798Y1843D01*
G37*
G36*
X6979Y2024D02*
X7079Y2124D01*
X7279Y1924D01*
X7179Y1824D01*
X6979Y2024D01*
G37*
G36*
X7160Y2205D02*
X7260Y2305D01*
X7460Y2105D01*
X7360Y2005D01*
X7160Y2205D01*
G37*
D12*
G36*
X9375Y3681D02*
X9531Y3837D01*
X9687Y3681D01*
X9531Y3525D01*
X9375Y3681D01*
G37*
G36*
X9093Y3399D02*
X9249Y3555D01*
X9405Y3399D01*
X9249Y3243D01*
X9093Y3399D01*
G37*
D19*
X3377Y3590D03*
X2393Y3590D03*
D20*
X3706Y4653D03*
X4080Y4653D03*
X4454Y4653D03*
X4454Y5677D03*
X3706Y5677D03*
D15*
X2650Y2300D03*
X2650Y1900D03*
D11*
X4395Y3960D03*
X3795Y3960D03*
D15*
X4075Y6100D03*
X4475Y6100D03*
X10825Y4705D03*
X11225Y4705D03*
D21*
X2200Y1933D03*
X2200Y2367D03*
X3100Y1933D03*
X3100Y2367D03*
D15*
X5085Y5370D03*
X5485Y5370D03*
X5485Y5800D03*
X5085Y5800D03*
D22*
X3460Y2822D03*
D23*
X3549Y3098D03*
X3371Y3098D03*
D15*
X3900Y2760D03*
X3900Y3160D03*
X3050Y4150D03*
X2650Y4150D03*
D24*
X1625Y-3916D03*
X1920Y-3916D03*
X2215Y-3916D03*
X2215Y-4664D03*
X1920Y-4664D03*
X1625Y-4664D03*
D25*
X10577Y1337D03*
X10577Y5550D03*
X11982Y5550D03*
X11982Y4684D03*
D26*
G36*
X2699Y4700D02*
X2850Y4851D01*
X3001Y4700D01*
X2850Y4549D01*
X2699Y4700D01*
G37*
D12*
G36*
X8469Y5805D02*
X8313Y5961D01*
X8469Y6117D01*
X8625Y5961D01*
X8469Y5805D01*
G37*
G36*
X8751Y5523D02*
X8595Y5679D01*
X8751Y5835D01*
X8907Y5679D01*
X8751Y5523D01*
G37*
D27*
X2188Y-3410D03*
D28*
X1912Y-3321D03*
X1912Y-3499D03*
D15*
X6750Y5800D03*
X6350Y5800D03*
D29*
X11510Y4258D03*
X11510Y4692D03*
D15*
X10525Y4700D03*
X10525Y4300D03*
D30*
G36*
X9215Y-5275D02*
X9416Y-5476D01*
X9131Y-5761D01*
X8930Y-5560D01*
X9215Y-5275D01*
G37*
G36*
X8826Y-4886D02*
X9027Y-5087D01*
X8742Y-5372D01*
X8541Y-5171D01*
X8826Y-4886D01*
G37*
D31*
G36*
X7438Y-4278D02*
X7511Y-4351D01*
X7438Y-4424D01*
X7365Y-4351D01*
X7438Y-4278D01*
G37*
G36*
X7550Y-4167D02*
X7623Y-4240D01*
X7550Y-4313D01*
X7477Y-4240D01*
X7550Y-4167D01*
G37*
D32*
G36*
X8048Y-7395D02*
X8220Y-7567D01*
X8034Y-7753D01*
X7862Y-7581D01*
X8048Y-7395D01*
G37*
G36*
X7815Y-7162D02*
X7987Y-7334D01*
X7801Y-7520D01*
X7629Y-7348D01*
X7815Y-7162D01*
G37*
D33*
G36*
X8354Y-4624D02*
X8538Y-4808D01*
X8298Y-5048D01*
X8114Y-4864D01*
X8354Y-4624D01*
G37*
G36*
X8688Y-4290D02*
X8872Y-4474D01*
X8632Y-4714D01*
X8448Y-4530D01*
X8688Y-4290D01*
G37*
D34*
G36*
X9620Y-5782D02*
X9505Y-5897D01*
X9396Y-5788D01*
X9511Y-5673D01*
X9620Y-5782D01*
G37*
G36*
X9783Y-5619D02*
X9668Y-5734D01*
X9559Y-5625D01*
X9674Y-5510D01*
X9783Y-5619D01*
G37*
D35*
G36*
X6870Y-6596D02*
X7198Y-6268D01*
X7716Y-6786D01*
X7388Y-7114D01*
X6870Y-6596D01*
G37*
G36*
X6036Y-7430D02*
X6364Y-7102D01*
X6882Y-7620D01*
X6554Y-7948D01*
X6036Y-7430D01*
G37*
D36*
G36*
X8980Y-6716D02*
X9195Y-6931D01*
X8692Y-7434D01*
X8477Y-7219D01*
X8980Y-6716D01*
G37*
G36*
X9581Y-6115D02*
X9796Y-6330D01*
X9293Y-6833D01*
X9078Y-6618D01*
X9581Y-6115D01*
G37*
D32*
G36*
X8069Y-5834D02*
X7897Y-6006D01*
X7711Y-5820D01*
X7883Y-5648D01*
X8069Y-5834D01*
G37*
G36*
X8302Y-5601D02*
X8130Y-5773D01*
X7944Y-5587D01*
X8116Y-5415D01*
X8302Y-5601D01*
G37*
G36*
X6449Y-6109D02*
X6621Y-6281D01*
X6435Y-6467D01*
X6263Y-6295D01*
X6449Y-6109D01*
G37*
G36*
X6216Y-5875D02*
X6388Y-6047D01*
X6202Y-6233D01*
X6030Y-6061D01*
X6216Y-5875D01*
G37*
D37*
G36*
X7935Y-7973D02*
X8264Y-8302D01*
X7845Y-8721D01*
X7516Y-8392D01*
X7935Y-7973D01*
G37*
G36*
X7433Y-7471D02*
X7762Y-7800D01*
X7343Y-8219D01*
X7014Y-7890D01*
X7433Y-7471D01*
G37*
D34*
G36*
X7732Y-4581D02*
X7617Y-4696D01*
X7508Y-4587D01*
X7623Y-4472D01*
X7732Y-4581D01*
G37*
G36*
X7894Y-4419D02*
X7779Y-4534D01*
X7670Y-4425D01*
X7785Y-4310D01*
X7894Y-4419D01*
G37*
D38*
G36*
X7687Y-5214D02*
X7857Y-5044D01*
X7943Y-5130D01*
X7773Y-5300D01*
X7687Y-5214D01*
G37*
G36*
X7548Y-5075D02*
X7718Y-4905D01*
X7804Y-4991D01*
X7634Y-5161D01*
X7548Y-5075D01*
G37*
G36*
X7409Y-4936D02*
X7579Y-4766D01*
X7665Y-4852D01*
X7495Y-5022D01*
X7409Y-4936D01*
G37*
G36*
X7270Y-4796D02*
X7440Y-4626D01*
X7526Y-4712D01*
X7356Y-4882D01*
X7270Y-4796D01*
G37*
D39*
G36*
X7272Y-5231D02*
X6949Y-4908D01*
X7092Y-4765D01*
X7415Y-5088D01*
X7272Y-5231D01*
G37*
G36*
X7077Y-5426D02*
X6754Y-5103D01*
X6897Y-4960D01*
X7220Y-5283D01*
X7077Y-5426D01*
G37*
D38*
G36*
X6616Y-5451D02*
X6786Y-5281D01*
X6872Y-5367D01*
X6702Y-5537D01*
X6616Y-5451D01*
G37*
G36*
X6755Y-5590D02*
X6925Y-5420D01*
X7011Y-5506D01*
X6841Y-5676D01*
X6755Y-5590D01*
G37*
G36*
X6894Y-5729D02*
X7064Y-5559D01*
X7150Y-5645D01*
X6980Y-5815D01*
X6894Y-5729D01*
G37*
G36*
X7033Y-5868D02*
X7203Y-5698D01*
X7289Y-5784D01*
X7119Y-5954D01*
X7033Y-5868D01*
G37*
D40*
G36*
X7151Y-5485D02*
X7474Y-5162D01*
X7797Y-5485D01*
X7474Y-5808D01*
X7151Y-5485D01*
G37*
D32*
G36*
X8436Y-6204D02*
X8264Y-6376D01*
X8078Y-6190D01*
X8250Y-6018D01*
X8436Y-6204D01*
G37*
G36*
X8669Y-5971D02*
X8497Y-6143D01*
X8311Y-5957D01*
X8483Y-5785D01*
X8669Y-5971D01*
G37*
G36*
X8145Y-4106D02*
X8317Y-4278D01*
X8131Y-4464D01*
X7959Y-4292D01*
X8145Y-4106D01*
G37*
G36*
X7911Y-3873D02*
X8083Y-4045D01*
X7897Y-4231D01*
X7725Y-4059D01*
X7911Y-3873D01*
G37*
D41*
G36*
X5633Y-5226D02*
X5533Y-5326D01*
X5071Y-4864D01*
X5171Y-4764D01*
X5633Y-5226D01*
G37*
G36*
X5814Y-5045D02*
X5714Y-5145D01*
X5252Y-4683D01*
X5352Y-4583D01*
X5814Y-5045D01*
G37*
G36*
X5995Y-4864D02*
X5895Y-4964D01*
X5433Y-4502D01*
X5533Y-4402D01*
X5995Y-4864D01*
G37*
G36*
X6176Y-4684D02*
X6076Y-4784D01*
X5614Y-4322D01*
X5714Y-4222D01*
X6176Y-4684D01*
G37*
G36*
X6357Y-4503D02*
X6257Y-4603D01*
X5795Y-4141D01*
X5895Y-4041D01*
X6357Y-4503D01*
G37*
G36*
X6538Y-4322D02*
X6438Y-4422D01*
X5976Y-3960D01*
X6076Y-3860D01*
X6538Y-4322D01*
G37*
G36*
X6719Y-4141D02*
X6619Y-4241D01*
X6157Y-3779D01*
X6257Y-3679D01*
X6719Y-4141D01*
G37*
G36*
X6900Y-3960D02*
X6800Y-4060D01*
X6338Y-3598D01*
X6438Y-3498D01*
X6900Y-3960D01*
G37*
G36*
X5341Y-2401D02*
X5241Y-2501D01*
X4779Y-2039D01*
X4879Y-1939D01*
X5341Y-2401D01*
G37*
G36*
X5160Y-2582D02*
X5060Y-2682D01*
X4598Y-2220D01*
X4698Y-2120D01*
X5160Y-2582D01*
G37*
G36*
X4979Y-2763D02*
X4879Y-2863D01*
X4417Y-2401D01*
X4517Y-2301D01*
X4979Y-2763D01*
G37*
G36*
X4798Y-2944D02*
X4698Y-3044D01*
X4236Y-2582D01*
X4336Y-2482D01*
X4798Y-2944D01*
G37*
G36*
X4617Y-3125D02*
X4517Y-3225D01*
X4055Y-2763D01*
X4155Y-2663D01*
X4617Y-3125D01*
G37*
G36*
X4436Y-3306D02*
X4336Y-3406D01*
X3874Y-2944D01*
X3974Y-2844D01*
X4436Y-3306D01*
G37*
G36*
X4255Y-3486D02*
X4155Y-3586D01*
X3693Y-3124D01*
X3793Y-3024D01*
X4255Y-3486D01*
G37*
G36*
X4074Y-3667D02*
X3974Y-3767D01*
X3512Y-3305D01*
X3612Y-3205D01*
X4074Y-3667D01*
G37*
D42*
G36*
X6336Y-3411D02*
X4984Y-4763D01*
X4076Y-3855D01*
X5428Y-2503D01*
X6336Y-3411D01*
G37*
D43*
G36*
X4380Y-5965D02*
X3972Y-5557D01*
X4490Y-5039D01*
X4898Y-5447D01*
X4380Y-5965D01*
G37*
G36*
X3673Y-5258D02*
X3265Y-4850D01*
X3783Y-4332D01*
X4191Y-4740D01*
X3673Y-5258D01*
G37*
D44*
G36*
X3304Y-2215D02*
X3666Y-2577D01*
X3232Y-3011D01*
X2870Y-2649D01*
X3304Y-2215D01*
G37*
G36*
X2775Y-1686D02*
X3137Y-2048D01*
X2703Y-2482D01*
X2341Y-2120D01*
X2775Y-1686D01*
G37*
G36*
X4321Y-2330D02*
X3959Y-2692D01*
X3525Y-2258D01*
X3887Y-1896D01*
X4321Y-2330D01*
G37*
G36*
X4850Y-1802D02*
X4488Y-2164D01*
X4054Y-1730D01*
X4416Y-1368D01*
X4850Y-1802D01*
G37*
G36*
X4003Y-1636D02*
X3641Y-1998D01*
X3207Y-1564D01*
X3569Y-1202D01*
X4003Y-1636D01*
G37*
G36*
X4532Y-1107D02*
X4170Y-1469D01*
X3736Y-1035D01*
X4098Y-673D01*
X4532Y-1107D01*
G37*
G36*
X3105Y-694D02*
X3467Y-332D01*
X3901Y-766D01*
X3539Y-1128D01*
X3105Y-694D01*
G37*
G36*
X2576Y-1223D02*
X2938Y-861D01*
X3372Y-1295D01*
X3010Y-1657D01*
X2576Y-1223D01*
G37*
D20*
G36*
X6442Y1301D02*
X6613Y1130D01*
X6264Y781D01*
X6093Y952D01*
X6442Y1301D01*
G37*
G36*
X6177Y1565D02*
X6348Y1394D01*
X5999Y1045D01*
X5828Y1216D01*
X6177Y1565D01*
G37*
G36*
X5913Y1830D02*
X6084Y1659D01*
X5735Y1310D01*
X5564Y1481D01*
X5913Y1830D01*
G37*
G36*
X5189Y1106D02*
X5360Y935D01*
X5011Y586D01*
X4840Y757D01*
X5189Y1106D01*
G37*
G36*
X5453Y842D02*
X5624Y671D01*
X5275Y322D01*
X5104Y493D01*
X5453Y842D01*
G37*
G36*
X5718Y577D02*
X5889Y406D01*
X5540Y57D01*
X5369Y228D01*
X5718Y577D01*
G37*
D45*
G36*
X15238Y-1293D02*
X15387Y-1442D01*
X15300Y-1529D01*
X15151Y-1380D01*
X15238Y-1293D01*
G37*
G36*
X15377Y-1154D02*
X15526Y-1303D01*
X15439Y-1390D01*
X15290Y-1241D01*
X15377Y-1154D01*
G37*
G36*
X15516Y-1015D02*
X15665Y-1164D01*
X15578Y-1251D01*
X15429Y-1102D01*
X15516Y-1015D01*
G37*
G36*
X15655Y-876D02*
X15804Y-1025D01*
X15717Y-1112D01*
X15568Y-963D01*
X15655Y-876D01*
G37*
G36*
X15429Y-795D02*
X15578Y-646D01*
X15665Y-733D01*
X15516Y-882D01*
X15429Y-795D01*
G37*
G36*
X15290Y-656D02*
X15439Y-507D01*
X15526Y-594D01*
X15377Y-743D01*
X15290Y-656D01*
G37*
G36*
X15151Y-516D02*
X15300Y-367D01*
X15387Y-454D01*
X15238Y-603D01*
X15151Y-516D01*
G37*
G36*
X15070Y-464D02*
X14921Y-315D01*
X15008Y-228D01*
X15157Y-377D01*
X15070Y-464D01*
G37*
G36*
X14931Y-603D02*
X14782Y-454D01*
X14869Y-367D01*
X15018Y-516D01*
X14931Y-603D01*
G37*
G36*
X14792Y-743D02*
X14643Y-594D01*
X14730Y-507D01*
X14879Y-656D01*
X14792Y-743D01*
G37*
G36*
X14652Y-882D02*
X14503Y-733D01*
X14590Y-646D01*
X14739Y-795D01*
X14652Y-882D01*
G37*
G36*
X14879Y-963D02*
X14730Y-1112D01*
X14643Y-1025D01*
X14792Y-876D01*
X14879Y-963D01*
G37*
G36*
X15018Y-1102D02*
X14869Y-1251D01*
X14782Y-1164D01*
X14931Y-1015D01*
X15018Y-1102D01*
G37*
G36*
X15157Y-1241D02*
X15008Y-1390D01*
X14921Y-1303D01*
X15070Y-1154D01*
X15157Y-1241D01*
G37*
D46*
G36*
X14444Y-352D02*
X14128Y-668D01*
X13832Y-372D01*
X14148Y-56D01*
X14444Y-352D01*
G37*
G36*
X14918Y122D02*
X14602Y-194D01*
X14306Y102D01*
X14622Y418D01*
X14918Y122D01*
G37*
D47*
G36*
X14088Y395D02*
X13793Y100D01*
X13470Y423D01*
X13765Y718D01*
X14088Y395D01*
G37*
G36*
X14561Y868D02*
X14266Y573D01*
X13943Y896D01*
X14238Y1191D01*
X14561Y868D01*
G37*
G36*
X12719Y-1710D02*
X12424Y-1415D01*
X12747Y-1092D01*
X13042Y-1387D01*
X12719Y-1710D01*
G37*
G36*
X13193Y-2183D02*
X12898Y-1888D01*
X13221Y-1565D01*
X13516Y-1860D01*
X13193Y-2183D01*
G37*
D48*
G36*
X13217Y5039D02*
X13478Y4766D01*
X13205Y4505D01*
X12944Y4778D01*
X13217Y5039D01*
G37*
G36*
X13673Y5473D02*
X13934Y5200D01*
X13661Y4939D01*
X13400Y5212D01*
X13673Y5473D01*
G37*
G36*
X14786Y4305D02*
X15047Y4032D01*
X14774Y3771D01*
X14513Y4044D01*
X14786Y4305D01*
G37*
G36*
X14330Y3870D02*
X14591Y3597D01*
X14318Y3336D01*
X14057Y3609D01*
X14330Y3870D01*
G37*
D49*
G36*
X13953Y-5101D02*
X13657Y-4805D01*
X15205Y-3257D01*
X15501Y-3553D01*
X13953Y-5101D01*
G37*
G36*
X13397Y-4544D02*
X13101Y-4248D01*
X14649Y-2700D01*
X14945Y-2996D01*
X13397Y-4544D01*
G37*
D50*
G36*
X14426Y-6130D02*
X13964Y-5668D01*
X14816Y-4816D01*
X15278Y-5278D01*
X14426Y-6130D01*
G37*
G36*
X12533Y-4237D02*
X12071Y-3775D01*
X12923Y-2923D01*
X13385Y-3385D01*
X12533Y-4237D01*
G37*
D49*
G36*
X11920Y-5434D02*
X12216Y-5730D01*
X10668Y-7278D01*
X10372Y-6982D01*
X11920Y-5434D01*
G37*
G36*
X12476Y-5991D02*
X12772Y-6287D01*
X11224Y-7835D01*
X10928Y-7539D01*
X12476Y-5991D01*
G37*
D50*
G36*
X11447Y-4405D02*
X11909Y-4867D01*
X11057Y-5719D01*
X10595Y-5257D01*
X11447Y-4405D01*
G37*
G36*
X13340Y-6298D02*
X13802Y-6760D01*
X12950Y-7612D01*
X12488Y-7150D01*
X13340Y-6298D01*
G37*
D51*
X1991Y-238D03*
X1991Y-494D03*
X1991Y-750D03*
X1991Y-1006D03*
X1991Y-1262D03*
D52*
X1902Y510D03*
X1902Y-2010D03*
D53*
X938Y-278D03*
X938Y-1222D03*
D54*
X938Y549D03*
X938Y-2049D03*
D55*
X760Y549D02*
X1115Y549D01*
X1115Y-2049D02*
X760Y-2049D01*
D56*
G36*
X10044Y-4198D02*
X10353Y-4507D01*
X10044Y-4816D01*
X9735Y-4507D01*
X10044Y-4198D01*
G37*
D57*
X10462Y-4090D03*
X10880Y-3672D03*
X11297Y-3255D03*
X12132Y-2419D03*
X11715Y-2837D03*
D58*
X6813Y-5938D03*
X8125Y-7125D03*
X4063Y5625D03*
X2188Y4438D03*
M02*
