M48
;GenerationSoftware,Autodesk,EAGLE,9.6.1*%
;CreationDate,2021-01-14T01:28:27Z*%
FMAT,2
ICI,OFF
INCH,TZ,000.000
T7C0.008
T6C0.010
T5C0.012
T4C0.014
T3C0.020
T2C0.028
T1C0.090
%
G90
M72
T1
X1569Y75
X875Y681
X325Y-631
T2
X1171Y-284
X1004Y-451
X1046Y-409
X1088Y-367
X1130Y-325
X1213Y-242
T3
X94Y55
X94Y-205
X94Y55
X94Y-205
T4
X681Y-594
X813Y-713
X406Y563
X219Y444
T5
X473Y280
X763Y516
X859Y424
X763Y353
X666Y430
X716Y460
X813Y463
X805Y386
X716Y391
X762Y427
X526Y244
X169Y-281
T6
X656Y-525
X756Y-600
T7
X1226Y212
X1226Y262
X1226Y362
X1125Y665
X1226Y615
X1026Y215
X1026Y265
X1226Y112
X1126Y115
X1076Y615
X1075Y665
X1176Y615
X1175Y665
X1176Y312
X1176Y162
X1176Y212
X1176Y262
X1176Y362
X1176Y112
X1076Y365
X1076Y315
X1076Y265
X1076Y215
X931Y312
X1026Y315
X328Y467
X610Y580
X1106Y425
X1313Y544
X613Y188
X388Y-56
X225Y-506
X622Y421
X761Y280
X832Y506
X329Y556
X150Y-338
X500Y138
X1381Y-181
X1488Y113
X983Y412
X1513Y369
X956Y231
X721Y243
X763Y570
X1126Y315
X419Y355
X626Y279
X683Y208
X600Y617
X893Y406
X894Y538
X169Y-250
X181Y-306
X800Y625
X813Y525
X63Y-263
X733Y539
X604Y543
X310Y267
X419Y505
X390Y166
X223Y266
X413Y419
X313Y325
X333Y254
X425Y529
X875Y389
X529Y600
X146Y100
X396Y355
X271Y266
X425Y230
X1126Y62
X1176Y62
X709Y516
X626Y518
X656Y543
X585Y552
X675Y557
X781Y-481
X794Y-538
X1026Y615
X1226Y412
X961Y456
X638Y-569
X588Y-531
X644Y-488
X481Y419
X431Y6
X481Y-56
X519Y-525
X899Y440
X338Y-313
X868Y470
X356Y-294
X649Y395
X544Y131
X600Y25
X1231Y-69
X689Y355
X550Y106
X196Y101
X1238Y-94
X851Y487
X469Y38
X525Y438
X450Y19
X506Y-81
X1126Y615
X1126Y365
X1226Y312
X1126Y265
X1126Y565
X1126Y165
X1126Y215
X1026Y665
X1026Y715
X100Y116
X1226Y62
X1226Y162
X544Y-13
M30