M48
;GenerationSoftware,Autodesk,EAGLE,9.6.1*%
;CreationDate,2021-01-13T17:02:45Z*%
FMAT,2
ICI,OFF
METRIC,TZ,000.000
T7C0.200
T6C0.250
T5C0.300
T4C0.350
T3C0.500
T2C0.700
T1C2.286
%
G90
M71
T1
X39846Y1905
X22225Y17304
X8255Y-16034
T2
X29755Y-7206
X25513Y-11449
X26574Y-10388
X27634Y-9327
X28695Y-8267
X30816Y-6145
T3
X2381Y1395
X2381Y-5205
X2381Y1395
X2381Y-5205
T4
X17304Y-15081
X20638Y-18098
X10319Y14287
X5556Y11271
T5
X12014Y7112
X19368Y13094
X21806Y10770
X19368Y8966
X16904Y10909
X18186Y11684
X20650Y11760
X20447Y9804
X18186Y9919
X19355Y10833
X13360Y6198
X4286Y-7144
T6
X16669Y-13335
X19209Y-15240
T7
X31140Y5385
X31140Y6655
X31140Y9195
X28575Y16891
X31140Y15621
X26060Y5461
X26060Y6731
X31140Y2845
X28600Y2921
X27330Y15621
X27305Y16891
X29870Y15621
X29845Y16891
X29870Y7925
X29870Y4115
X29870Y5385
X29870Y6655
X29870Y9195
X29870Y2845
X27330Y9271
X27330Y8001
X27330Y6731
X27330Y5461
X23635Y7912
X26060Y8001
X8331Y11849
X15494Y14732
X28099Y10795
X33338Y13811
X15557Y4763
X9843Y-1429
X5715Y-12859
X15799Y10693
X19338Y7102
X21133Y12852
X8357Y14122
X3810Y-8573
X12700Y3492
X35084Y-4604
X37783Y2857
X24962Y10471
X38418Y9366
X24289Y5874
X18320Y6159
X19379Y14466
X28600Y8001
X10639Y9027
X15906Y7075
X17348Y5296
X15227Y15659
X22682Y10300
X22701Y13652
X4286Y-6350
X4604Y-7779
X20320Y15875
X20638Y13335
X1587Y-6667
X18622Y13690
X15342Y13792
X7879Y6775
X10630Y12827
X9906Y4204
X5664Y6756
X10478Y10636
X7937Y8255
X8458Y6452
X10801Y13437
X22231Y9874
X13437Y15240
X3702Y2540
X10058Y9025
X6883Y6756
X10788Y5849
X28600Y1575
X29870Y1575
X18005Y13110
X15900Y13144
X16665Y13795
X14853Y14021
X17142Y14143
X19844Y-12224
X20161Y-13652
X26060Y15621
X31140Y10465
X24409Y11589
X16192Y-14446
X14922Y-13494
X16351Y-12382
X12224Y10636
X10954Y159
X12224Y-1429
X13176Y-13335
X22829Y11169
X8573Y-7937
X22035Y11950
X9049Y-7461
X16484Y10032
X13811Y3334
X15240Y635
X31274Y-1746
X17501Y9017
X13970Y2699
X4972Y2554
X31432Y-2381
X21603Y12370
X11906Y952
X13335Y11112
X11430Y476
X12859Y-2064
X28600Y15621
X28600Y9271
X31140Y7925
X28600Y6731
X28600Y14351
X28600Y4191
X28600Y5461
X26060Y16891
X26060Y18161
X2540Y2946
X31140Y1575
X31140Y4115
X13811Y-318
M30