G04 EAGLE Gerber RS-274X export*
G75*
%MOMM*%
%FSLAX34Y34*%
%LPD*%
%INCopper Layer 15*%
%IPPOS*%
%AMOC8*
5,1,8,0,0,1.08239X$1,22.5*%
G01*
%ADD10C,0.750000*%
%ADD11C,1.050000*%
%ADD12C,0.403200*%
%ADD13C,0.503200*%
%ADD14C,0.553200*%
%ADD15C,0.453200*%

G36*
X206483Y-227896D02*
X206483Y-227896D01*
X206498Y-227897D01*
X234390Y-226964D01*
X234422Y-226958D01*
X234492Y-226954D01*
X262011Y-222312D01*
X262041Y-222302D01*
X262110Y-222289D01*
X288765Y-214020D01*
X288794Y-214006D01*
X288860Y-213984D01*
X314175Y-202236D01*
X314202Y-202218D01*
X314265Y-202187D01*
X337788Y-187170D01*
X337812Y-187149D01*
X337870Y-187110D01*
X359182Y-169092D01*
X359203Y-169067D01*
X359255Y-169021D01*
X377976Y-148323D01*
X377993Y-148296D01*
X378039Y-148243D01*
X378457Y-147633D01*
X378458Y-147633D01*
X378980Y-146872D01*
X379503Y-146111D01*
X379503Y-146110D01*
X380025Y-145349D01*
X380548Y-144588D01*
X381070Y-143827D01*
X381593Y-143066D01*
X381593Y-143065D01*
X382115Y-142304D01*
X382116Y-142304D01*
X382638Y-141543D01*
X383160Y-140782D01*
X383161Y-140782D01*
X383161Y-140781D01*
X383683Y-140021D01*
X383683Y-140020D01*
X384206Y-139259D01*
X384728Y-138498D01*
X385251Y-137737D01*
X385773Y-136976D01*
X385773Y-136975D01*
X386296Y-136214D01*
X386818Y-135453D01*
X386819Y-135453D01*
X387341Y-134692D01*
X387341Y-134691D01*
X387864Y-133931D01*
X387864Y-133930D01*
X388386Y-133169D01*
X388909Y-132408D01*
X389431Y-131647D01*
X389432Y-131646D01*
X389954Y-130886D01*
X389954Y-130885D01*
X390476Y-130124D01*
X390477Y-130124D01*
X390999Y-129363D01*
X391522Y-128602D01*
X392044Y-127841D01*
X392044Y-127840D01*
X392567Y-127079D01*
X393089Y-126318D01*
X393612Y-125557D01*
X393612Y-125556D01*
X393833Y-125234D01*
X393847Y-125205D01*
X393885Y-125147D01*
X406472Y-100238D01*
X406482Y-100208D01*
X406512Y-100144D01*
X415666Y-73780D01*
X415672Y-73749D01*
X415693Y-73682D01*
X421252Y-46333D01*
X421253Y-46301D01*
X421266Y-46233D01*
X423130Y-18387D01*
X423127Y-18355D01*
X423130Y-18285D01*
X421266Y9561D01*
X421258Y9592D01*
X421252Y9662D01*
X415693Y37011D01*
X415682Y37041D01*
X415666Y37109D01*
X406512Y63473D01*
X406497Y63501D01*
X406472Y63567D01*
X406332Y63843D01*
X406280Y63915D01*
X406235Y63991D01*
X406208Y64014D01*
X406187Y64042D01*
X406115Y64093D01*
X406048Y64151D01*
X406015Y64164D01*
X405986Y64184D01*
X405902Y64210D01*
X405819Y64243D01*
X405775Y64248D01*
X405751Y64255D01*
X405719Y64254D01*
X405653Y64261D01*
X373063Y64261D01*
X372972Y64247D01*
X372882Y64239D01*
X372852Y64227D01*
X372820Y64222D01*
X372739Y64179D01*
X372655Y64143D01*
X372623Y64117D01*
X372602Y64106D01*
X372580Y64083D01*
X372524Y64038D01*
X340774Y32288D01*
X340721Y32214D01*
X340662Y32145D01*
X340650Y32115D01*
X340631Y32089D01*
X340604Y32002D01*
X340570Y31917D01*
X340565Y31876D01*
X340558Y31853D01*
X340559Y31821D01*
X340551Y31750D01*
X340551Y-6035D01*
X336235Y-10351D01*
X290655Y-10351D01*
X290588Y-10331D01*
X290558Y-10332D01*
X290528Y-10325D01*
X290435Y-10335D01*
X290343Y-10337D01*
X290314Y-10348D01*
X290283Y-10351D01*
X290199Y-10390D01*
X290112Y-10422D01*
X290088Y-10441D01*
X290060Y-10454D01*
X289992Y-10517D01*
X289920Y-10575D01*
X289903Y-10601D01*
X289881Y-10622D01*
X289837Y-10704D01*
X289787Y-10782D01*
X289779Y-10812D01*
X289765Y-10839D01*
X289728Y-11003D01*
X288867Y-18937D01*
X285385Y-27132D01*
X283265Y-29673D01*
X283237Y-29721D01*
X283200Y-29763D01*
X283174Y-29826D01*
X283140Y-29885D01*
X283128Y-29939D01*
X283107Y-29991D01*
X283107Y-29996D01*
X282486Y-30612D01*
X282471Y-30632D01*
X282437Y-30665D01*
X281867Y-31348D01*
X281866Y-31348D01*
X281801Y-31365D01*
X281754Y-31396D01*
X281701Y-31418D01*
X281620Y-31482D01*
X281595Y-31499D01*
X281586Y-31509D01*
X281570Y-31522D01*
X253869Y-59090D01*
X253868Y-59091D01*
X253867Y-59092D01*
X226337Y-86680D01*
X226291Y-86744D01*
X226238Y-86803D01*
X226220Y-86844D01*
X226209Y-86859D01*
X225435Y-87585D01*
X225429Y-87594D01*
X225416Y-87604D01*
X224665Y-88359D01*
X224617Y-88378D01*
X224569Y-88414D01*
X224542Y-88428D01*
X224524Y-88448D01*
X224483Y-88478D01*
X222036Y-90774D01*
X213690Y-94674D01*
X204545Y-95784D01*
X195508Y-93994D01*
X192216Y-92145D01*
X192112Y-92107D01*
X192010Y-92066D01*
X191994Y-92064D01*
X191985Y-92061D01*
X191957Y-92060D01*
X191843Y-92047D01*
X191674Y-92047D01*
X191277Y-91650D01*
X191260Y-91638D01*
X191248Y-91622D01*
X191111Y-91525D01*
X190621Y-91249D01*
X190576Y-91087D01*
X190529Y-90986D01*
X190486Y-90885D01*
X190476Y-90873D01*
X190472Y-90864D01*
X190452Y-90843D01*
X190381Y-90754D01*
X140246Y-40619D01*
X140188Y-40577D01*
X140136Y-40528D01*
X140072Y-40494D01*
X140046Y-40475D01*
X140024Y-40469D01*
X139987Y-40449D01*
X139670Y-40324D01*
X139513Y-39962D01*
X139481Y-39912D01*
X139458Y-39857D01*
X139398Y-39782D01*
X139380Y-39755D01*
X139369Y-39746D01*
X139353Y-39726D01*
X139074Y-39447D01*
X139074Y-39106D01*
X139071Y-39087D01*
X139073Y-39068D01*
X139062Y-39017D01*
X139061Y-38964D01*
X139040Y-38895D01*
X139034Y-38864D01*
X139025Y-38846D01*
X139021Y-38828D01*
X139016Y-38820D01*
X139011Y-38804D01*
X137334Y-34934D01*
X136337Y-25234D01*
X138315Y-15686D01*
X143083Y-7180D01*
X146603Y-3880D01*
X146609Y-3872D01*
X146621Y-3863D01*
X152247Y1764D01*
X152289Y1822D01*
X152338Y1874D01*
X152360Y1921D01*
X152391Y1963D01*
X152412Y2032D01*
X152442Y2097D01*
X152448Y2149D01*
X152463Y2199D01*
X152461Y2270D01*
X152469Y2341D01*
X152458Y2392D01*
X152457Y2444D01*
X152432Y2512D01*
X152417Y2582D01*
X152390Y2627D01*
X152372Y2675D01*
X152327Y2731D01*
X152291Y2793D01*
X152251Y2827D01*
X152219Y2867D01*
X152158Y2906D01*
X152104Y2953D01*
X152055Y2972D01*
X152012Y3000D01*
X151942Y3018D01*
X151876Y3045D01*
X151804Y3053D01*
X151773Y3061D01*
X151750Y3059D01*
X151709Y3063D01*
X151039Y3063D01*
X149113Y4989D01*
X149113Y7711D01*
X151039Y9637D01*
X153761Y9637D01*
X155687Y7711D01*
X155687Y7041D01*
X155698Y6970D01*
X155700Y6899D01*
X155718Y6850D01*
X155726Y6798D01*
X155760Y6735D01*
X155785Y6668D01*
X155817Y6627D01*
X155842Y6581D01*
X155893Y6532D01*
X155938Y6476D01*
X155982Y6447D01*
X156020Y6412D01*
X156085Y6381D01*
X156145Y6343D01*
X156196Y6330D01*
X156243Y6308D01*
X156314Y6300D01*
X156384Y6283D01*
X156436Y6287D01*
X156487Y6281D01*
X156558Y6296D01*
X156629Y6302D01*
X156677Y6322D01*
X156728Y6333D01*
X156789Y6370D01*
X156855Y6398D01*
X156911Y6443D01*
X156939Y6459D01*
X156954Y6477D01*
X156986Y6503D01*
X198115Y47632D01*
X199045Y48561D01*
X202432Y51949D01*
X210965Y56310D01*
X220425Y57834D01*
X229895Y56372D01*
X238455Y52066D01*
X240765Y49786D01*
X240822Y49746D01*
X240872Y49698D01*
X240921Y49675D01*
X240966Y49643D01*
X241032Y49624D01*
X241095Y49594D01*
X241149Y49588D01*
X241201Y49573D01*
X241271Y49575D01*
X241339Y49567D01*
X241393Y49579D01*
X241447Y49581D01*
X241512Y49605D01*
X241580Y49620D01*
X241627Y49648D01*
X241678Y49667D01*
X241732Y49710D01*
X241791Y49746D01*
X241826Y49787D01*
X241869Y49822D01*
X241906Y49880D01*
X241951Y49933D01*
X241971Y49983D01*
X242000Y50029D01*
X242017Y50096D01*
X242043Y50161D01*
X242051Y50237D01*
X242059Y50268D01*
X242057Y50290D01*
X242061Y50327D01*
X242061Y54690D01*
X242058Y54709D01*
X242060Y54729D01*
X242038Y54830D01*
X242022Y54932D01*
X242012Y54950D01*
X242008Y54969D01*
X241955Y55058D01*
X241906Y55150D01*
X241892Y55163D01*
X241882Y55180D01*
X241803Y55248D01*
X241728Y55319D01*
X241710Y55327D01*
X241695Y55340D01*
X241599Y55379D01*
X241597Y55380D01*
X239601Y57376D01*
X239601Y60099D01*
X241579Y62077D01*
X241580Y62078D01*
X241669Y62131D01*
X241760Y62179D01*
X241774Y62193D01*
X241791Y62204D01*
X241858Y62282D01*
X241930Y62357D01*
X241938Y62375D01*
X241951Y62391D01*
X241990Y62487D01*
X242033Y62580D01*
X242035Y62600D01*
X242043Y62619D01*
X242061Y62785D01*
X242061Y112957D01*
X242047Y113047D01*
X242039Y113138D01*
X242027Y113168D01*
X242022Y113200D01*
X241979Y113280D01*
X241943Y113364D01*
X241917Y113396D01*
X241906Y113417D01*
X241883Y113439D01*
X241838Y113495D01*
X240807Y114526D01*
X240807Y117249D01*
X241838Y118280D01*
X241891Y118354D01*
X241951Y118423D01*
X241963Y118453D01*
X241982Y118480D01*
X242009Y118567D01*
X242043Y118651D01*
X242047Y118692D01*
X242054Y118715D01*
X242053Y118747D01*
X242061Y118818D01*
X242061Y188362D01*
X242048Y188441D01*
X242045Y188520D01*
X242029Y188561D01*
X242022Y188605D01*
X241984Y188675D01*
X241955Y188750D01*
X241927Y188783D01*
X241906Y188822D01*
X241849Y188877D01*
X241798Y188938D01*
X241760Y188961D01*
X241728Y188992D01*
X241656Y189025D01*
X241588Y189067D01*
X241532Y189083D01*
X241505Y189095D01*
X241477Y189098D01*
X241427Y189113D01*
X234491Y190283D01*
X234459Y190283D01*
X234390Y190293D01*
X206498Y191225D01*
X206466Y191221D01*
X206396Y191222D01*
X178628Y188429D01*
X178597Y188420D01*
X178528Y188412D01*
X151380Y181942D01*
X151350Y181930D01*
X151283Y181912D01*
X125239Y171881D01*
X125212Y171865D01*
X125147Y171839D01*
X100673Y158426D01*
X100648Y158407D01*
X100587Y158372D01*
X78119Y141817D01*
X78101Y141799D01*
X78080Y141786D01*
X78067Y141771D01*
X78041Y141751D01*
X75671Y139459D01*
X75613Y139381D01*
X75549Y139306D01*
X75539Y139282D01*
X75524Y139261D01*
X75494Y139169D01*
X75457Y139078D01*
X75454Y139046D01*
X75448Y139028D01*
X75448Y138995D01*
X75439Y138912D01*
X75439Y111125D01*
X75454Y111035D01*
X75461Y110944D01*
X75473Y110914D01*
X75479Y110882D01*
X75521Y110802D01*
X75557Y110718D01*
X75583Y110686D01*
X75594Y110665D01*
X75617Y110643D01*
X75662Y110587D01*
X95998Y90251D01*
X96056Y90209D01*
X96108Y90159D01*
X96155Y90137D01*
X96197Y90107D01*
X96266Y90086D01*
X96331Y90056D01*
X96383Y90050D01*
X96433Y90035D01*
X96504Y90037D01*
X96575Y90029D01*
X96626Y90040D01*
X96678Y90041D01*
X96746Y90066D01*
X96816Y90081D01*
X96861Y90108D01*
X96909Y90126D01*
X96965Y90170D01*
X97027Y90207D01*
X97061Y90247D01*
X97101Y90279D01*
X97140Y90340D01*
X97187Y90394D01*
X97206Y90442D01*
X97234Y90486D01*
X97252Y90556D01*
X97279Y90622D01*
X97287Y90694D01*
X97295Y90725D01*
X97293Y90748D01*
X97297Y90789D01*
X97297Y91611D01*
X99223Y93537D01*
X101945Y93537D01*
X102938Y92544D01*
X102954Y92532D01*
X102967Y92517D01*
X103054Y92461D01*
X103138Y92400D01*
X103157Y92394D01*
X103174Y92384D01*
X103274Y92358D01*
X103373Y92328D01*
X103393Y92328D01*
X103412Y92324D01*
X103515Y92332D01*
X103619Y92334D01*
X103638Y92341D01*
X103658Y92343D01*
X103752Y92383D01*
X103850Y92419D01*
X103866Y92431D01*
X103884Y92439D01*
X104015Y92544D01*
X105024Y93553D01*
X107747Y93553D01*
X109672Y91627D01*
X109672Y88905D01*
X107747Y86979D01*
X105024Y86979D01*
X104031Y87972D01*
X104015Y87984D01*
X104002Y87999D01*
X103915Y88056D01*
X103831Y88116D01*
X103812Y88122D01*
X103795Y88132D01*
X103695Y88158D01*
X103596Y88188D01*
X103576Y88188D01*
X103557Y88192D01*
X103454Y88184D01*
X103350Y88182D01*
X103331Y88175D01*
X103312Y88173D01*
X103217Y88133D01*
X103119Y88097D01*
X103104Y88085D01*
X103085Y88077D01*
X102954Y87972D01*
X101945Y86963D01*
X101123Y86963D01*
X101052Y86952D01*
X100981Y86950D01*
X100932Y86932D01*
X100880Y86924D01*
X100817Y86890D01*
X100750Y86865D01*
X100709Y86833D01*
X100663Y86808D01*
X100614Y86757D01*
X100558Y86712D01*
X100529Y86668D01*
X100493Y86630D01*
X100463Y86565D01*
X100425Y86505D01*
X100412Y86454D01*
X100390Y86407D01*
X100382Y86336D01*
X100364Y86266D01*
X100369Y86214D01*
X100363Y86163D01*
X100378Y86092D01*
X100384Y86021D01*
X100404Y85973D01*
X100415Y85922D01*
X100452Y85861D01*
X100480Y85795D01*
X100525Y85739D01*
X100541Y85711D01*
X100559Y85696D01*
X100585Y85664D01*
X115056Y71193D01*
X115114Y71151D01*
X115166Y71101D01*
X115213Y71079D01*
X115255Y71049D01*
X115324Y71028D01*
X115389Y70998D01*
X115441Y70992D01*
X115491Y70977D01*
X115562Y70979D01*
X115633Y70971D01*
X115684Y70982D01*
X115736Y70983D01*
X115804Y71008D01*
X115874Y71023D01*
X115918Y71050D01*
X115967Y71068D01*
X116023Y71112D01*
X116085Y71149D01*
X116119Y71189D01*
X116159Y71221D01*
X116198Y71282D01*
X116245Y71336D01*
X116264Y71384D01*
X116292Y71428D01*
X116310Y71498D01*
X116337Y71564D01*
X116345Y71636D01*
X116353Y71667D01*
X116351Y71690D01*
X116355Y71731D01*
X116355Y72689D01*
X118573Y74907D01*
X121711Y74907D01*
X123929Y72689D01*
X123929Y69551D01*
X121591Y67213D01*
X121549Y67155D01*
X121499Y67103D01*
X121477Y67056D01*
X121447Y67014D01*
X121426Y66945D01*
X121396Y66880D01*
X121390Y66828D01*
X121375Y66778D01*
X121377Y66707D01*
X121369Y66636D01*
X121380Y66585D01*
X121381Y66533D01*
X121406Y66465D01*
X121421Y66395D01*
X121448Y66351D01*
X121465Y66302D01*
X121476Y66288D01*
X121476Y12075D01*
X121491Y11985D01*
X121498Y11894D01*
X121511Y11864D01*
X121516Y11832D01*
X121559Y11751D01*
X121594Y11667D01*
X121620Y11635D01*
X121631Y11615D01*
X121654Y11592D01*
X121699Y11536D01*
X122349Y10886D01*
X122349Y8164D01*
X120424Y6238D01*
X118348Y6238D01*
X118328Y6235D01*
X118309Y6237D01*
X118207Y6215D01*
X118105Y6199D01*
X118088Y6189D01*
X118068Y6185D01*
X117979Y6132D01*
X117888Y6083D01*
X117874Y6069D01*
X117857Y6059D01*
X117790Y5980D01*
X117718Y5905D01*
X117710Y5887D01*
X117697Y5872D01*
X117658Y5776D01*
X117615Y5682D01*
X117613Y5662D01*
X117605Y5644D01*
X117587Y5477D01*
X117587Y3401D01*
X115661Y1476D01*
X113585Y1476D01*
X113566Y1473D01*
X113546Y1475D01*
X113445Y1453D01*
X113343Y1436D01*
X113325Y1427D01*
X113306Y1422D01*
X113217Y1369D01*
X113125Y1321D01*
X113112Y1307D01*
X113095Y1296D01*
X113027Y1218D01*
X112956Y1143D01*
X112948Y1125D01*
X112935Y1109D01*
X112896Y1013D01*
X112852Y920D01*
X112850Y900D01*
X112843Y881D01*
X112824Y715D01*
X112824Y226D01*
X110899Y-1699D01*
X108176Y-1699D01*
X106251Y226D01*
X106251Y2949D01*
X108176Y4874D01*
X110252Y4874D01*
X110272Y4877D01*
X110291Y4875D01*
X110393Y4897D01*
X110495Y4914D01*
X110512Y4923D01*
X110532Y4928D01*
X110621Y4981D01*
X110712Y5029D01*
X110726Y5043D01*
X110743Y5054D01*
X110810Y5132D01*
X110882Y5207D01*
X110890Y5225D01*
X110903Y5241D01*
X110942Y5337D01*
X110985Y5430D01*
X110987Y5450D01*
X110995Y5469D01*
X111013Y5635D01*
X111013Y6124D01*
X112939Y8049D01*
X115015Y8049D01*
X115034Y8052D01*
X115054Y8050D01*
X115155Y8072D01*
X115257Y8089D01*
X115275Y8098D01*
X115294Y8103D01*
X115383Y8156D01*
X115475Y8204D01*
X115488Y8218D01*
X115505Y8229D01*
X115573Y8307D01*
X115644Y8382D01*
X115652Y8400D01*
X115665Y8416D01*
X115704Y8512D01*
X115748Y8605D01*
X115750Y8625D01*
X115757Y8644D01*
X115776Y8810D01*
X115776Y9525D01*
X115773Y9545D01*
X115775Y9564D01*
X115753Y9666D01*
X115736Y9768D01*
X115727Y9785D01*
X115722Y9805D01*
X115669Y9894D01*
X115621Y9985D01*
X115607Y9999D01*
X115596Y10016D01*
X115518Y10083D01*
X115443Y10155D01*
X115425Y10163D01*
X115409Y10176D01*
X115313Y10215D01*
X115220Y10258D01*
X115200Y10260D01*
X115181Y10268D01*
X115015Y10286D01*
X27564Y10286D01*
X27474Y10272D01*
X27383Y10264D01*
X27354Y10252D01*
X27322Y10247D01*
X27241Y10204D01*
X27157Y10168D01*
X27125Y10142D01*
X27104Y10131D01*
X27082Y10108D01*
X27026Y10063D01*
X25892Y8929D01*
X21733Y8929D01*
X20599Y10063D01*
X20525Y10116D01*
X20455Y10176D01*
X20425Y10188D01*
X20399Y10207D01*
X20312Y10234D01*
X20227Y10268D01*
X20186Y10272D01*
X20164Y10279D01*
X20132Y10278D01*
X20061Y10286D01*
X6873Y10286D01*
X6782Y10271D01*
X6690Y10264D01*
X6661Y10252D01*
X6630Y10247D01*
X6549Y10203D01*
X6464Y10167D01*
X6440Y10146D01*
X6413Y10131D01*
X6349Y10065D01*
X6281Y10003D01*
X6265Y9976D01*
X6243Y9953D01*
X6205Y9869D01*
X6159Y9789D01*
X6149Y9751D01*
X6140Y9730D01*
X6136Y9698D01*
X6118Y9626D01*
X4248Y-4280D01*
X4249Y-4312D01*
X4241Y-4382D01*
X4241Y-32290D01*
X4247Y-32321D01*
X4248Y-32391D01*
X7968Y-60051D01*
X7977Y-60081D01*
X7988Y-60150D01*
X15362Y-87067D01*
X15375Y-87096D01*
X15395Y-87163D01*
X26290Y-112857D01*
X26307Y-112884D01*
X26336Y-112947D01*
X40558Y-136960D01*
X40579Y-136984D01*
X40616Y-137044D01*
X57912Y-158946D01*
X57936Y-158967D01*
X57980Y-159021D01*
X78041Y-178423D01*
X78068Y-178441D01*
X78119Y-178489D01*
X100587Y-195043D01*
X100605Y-195052D01*
X100606Y-195053D01*
X100610Y-195055D01*
X100615Y-195058D01*
X100673Y-195098D01*
X125147Y-208510D01*
X125177Y-208521D01*
X125239Y-208553D01*
X151283Y-218583D01*
X151314Y-218590D01*
X151380Y-218613D01*
X178528Y-225083D01*
X178559Y-225085D01*
X178628Y-225100D01*
X206396Y-227894D01*
X206423Y-227892D01*
X206472Y-227897D01*
X206473Y-227897D01*
X206483Y-227896D01*
G37*
G36*
X19163Y16841D02*
X19163Y16841D01*
X19262Y16844D01*
X19320Y16861D01*
X19380Y16868D01*
X19472Y16905D01*
X19567Y16932D01*
X19620Y16963D01*
X19676Y16985D01*
X19756Y17043D01*
X19841Y17094D01*
X19917Y17160D01*
X19933Y17172D01*
X19941Y17181D01*
X19962Y17200D01*
X20968Y18206D01*
X21300Y18344D01*
X21308Y18348D01*
X21317Y18351D01*
X21447Y18427D01*
X21576Y18501D01*
X21583Y18508D01*
X21591Y18512D01*
X21712Y18619D01*
X21830Y18737D01*
X21996Y18737D01*
X22006Y18738D01*
X22015Y18737D01*
X22164Y18758D01*
X22312Y18777D01*
X22321Y18780D01*
X22330Y18781D01*
X22482Y18833D01*
X22814Y18971D01*
X24811Y18971D01*
X25143Y18833D01*
X25152Y18831D01*
X25160Y18826D01*
X25305Y18789D01*
X25450Y18749D01*
X25459Y18749D01*
X25468Y18747D01*
X25629Y18737D01*
X25795Y18737D01*
X25913Y18619D01*
X25920Y18613D01*
X25926Y18606D01*
X26045Y18516D01*
X26164Y18424D01*
X26173Y18420D01*
X26180Y18415D01*
X26325Y18344D01*
X26657Y18206D01*
X27663Y17200D01*
X27741Y17139D01*
X27813Y17071D01*
X27866Y17042D01*
X27914Y17005D01*
X28005Y16966D01*
X28092Y16918D01*
X28150Y16903D01*
X28206Y16879D01*
X28304Y16863D01*
X28400Y16838D01*
X28500Y16832D01*
X28520Y16829D01*
X28532Y16830D01*
X28560Y16828D01*
X112014Y16828D01*
X112132Y16843D01*
X112251Y16851D01*
X112289Y16863D01*
X112330Y16868D01*
X112440Y16912D01*
X112553Y16949D01*
X112588Y16970D01*
X112625Y16985D01*
X112721Y17055D01*
X112822Y17119D01*
X112850Y17148D01*
X112883Y17172D01*
X112959Y17264D01*
X113040Y17350D01*
X113060Y17386D01*
X113085Y17417D01*
X113136Y17525D01*
X113194Y17629D01*
X113204Y17668D01*
X113221Y17705D01*
X113243Y17821D01*
X113273Y17937D01*
X113277Y17997D01*
X113281Y18017D01*
X113279Y18037D01*
X113283Y18098D01*
X113283Y59817D01*
X113271Y59915D01*
X113268Y60014D01*
X113251Y60072D01*
X113243Y60133D01*
X113207Y60225D01*
X113179Y60320D01*
X113149Y60372D01*
X113126Y60428D01*
X113068Y60508D01*
X113018Y60594D01*
X112952Y60669D01*
X112940Y60686D01*
X112930Y60693D01*
X112912Y60715D01*
X65404Y108222D01*
X65404Y126538D01*
X65388Y126666D01*
X65378Y126794D01*
X65368Y126823D01*
X65364Y126854D01*
X65317Y126973D01*
X65276Y127095D01*
X65259Y127121D01*
X65247Y127149D01*
X65172Y127253D01*
X65102Y127361D01*
X65079Y127382D01*
X65061Y127407D01*
X64961Y127489D01*
X64867Y127575D01*
X64839Y127590D01*
X64816Y127609D01*
X64699Y127664D01*
X64586Y127725D01*
X64556Y127732D01*
X64528Y127745D01*
X64402Y127769D01*
X64277Y127799D01*
X64246Y127799D01*
X64216Y127805D01*
X64088Y127797D01*
X63959Y127795D01*
X63929Y127787D01*
X63898Y127785D01*
X63776Y127745D01*
X63652Y127712D01*
X63625Y127696D01*
X63596Y127687D01*
X63487Y127618D01*
X63375Y127555D01*
X63341Y127526D01*
X63327Y127517D01*
X63312Y127501D01*
X63253Y127450D01*
X58004Y122374D01*
X58001Y122371D01*
X57998Y122368D01*
X57890Y122248D01*
X40636Y100399D01*
X40634Y100396D01*
X40631Y100393D01*
X40540Y100260D01*
X26352Y76306D01*
X26350Y76302D01*
X26348Y76298D01*
X26276Y76154D01*
X15407Y50523D01*
X15406Y50519D01*
X15404Y50515D01*
X15351Y50363D01*
X7996Y23512D01*
X7996Y23507D01*
X7994Y23503D01*
X7962Y23346D01*
X7279Y18267D01*
X7279Y18222D01*
X7271Y18178D01*
X7278Y18064D01*
X7277Y17949D01*
X7288Y17905D01*
X7290Y17861D01*
X7326Y17752D01*
X7353Y17640D01*
X7375Y17601D01*
X7388Y17558D01*
X7450Y17461D01*
X7504Y17360D01*
X7535Y17327D01*
X7559Y17289D01*
X7642Y17211D01*
X7720Y17126D01*
X7758Y17102D01*
X7790Y17071D01*
X7891Y17016D01*
X7987Y16954D01*
X8029Y16940D01*
X8069Y16918D01*
X8180Y16889D01*
X8289Y16853D01*
X8333Y16850D01*
X8377Y16838D01*
X8537Y16828D01*
X19065Y16828D01*
X19163Y16841D01*
G37*
%LPC*%
G36*
X219522Y159321D02*
X219522Y159321D01*
X214480Y161409D01*
X210622Y165268D01*
X208533Y170309D01*
X208533Y175766D01*
X210622Y180807D01*
X214480Y184666D01*
X219522Y186754D01*
X224978Y186754D01*
X230020Y184666D01*
X233878Y180807D01*
X235967Y175766D01*
X235967Y170309D01*
X233878Y165268D01*
X230020Y161409D01*
X224978Y159321D01*
X219522Y159321D01*
G37*
%LPD*%
%LPC*%
G36*
X79822Y-174054D02*
X79822Y-174054D01*
X74780Y-171966D01*
X70922Y-168107D01*
X68833Y-163066D01*
X68833Y-157609D01*
X70922Y-152568D01*
X74780Y-148709D01*
X79822Y-146621D01*
X85278Y-146621D01*
X90320Y-148709D01*
X94178Y-152568D01*
X96267Y-157609D01*
X96267Y-163066D01*
X94178Y-168107D01*
X90320Y-171966D01*
X85278Y-174054D01*
X79822Y-174054D01*
G37*
%LPD*%
%LPC*%
G36*
X395734Y5333D02*
X395734Y5333D01*
X390693Y7422D01*
X386834Y11280D01*
X384746Y16322D01*
X384746Y21778D01*
X386834Y26820D01*
X390693Y30678D01*
X395734Y32767D01*
X401191Y32767D01*
X406232Y30678D01*
X410091Y26820D01*
X412179Y21778D01*
X412179Y16322D01*
X410091Y11280D01*
X406232Y7422D01*
X401191Y5333D01*
X395734Y5333D01*
G37*
%LPD*%
%LPC*%
G36*
X275045Y-99794D02*
X275045Y-99794D01*
X272648Y-98801D01*
X270814Y-96967D01*
X269821Y-94570D01*
X269821Y-91976D01*
X270814Y-89580D01*
X272648Y-87745D01*
X275045Y-86753D01*
X277639Y-86753D01*
X279042Y-87334D01*
X279112Y-87350D01*
X279179Y-87376D01*
X279231Y-87378D01*
X279282Y-87390D01*
X279353Y-87383D01*
X279425Y-87386D01*
X279475Y-87372D01*
X279527Y-87367D01*
X279592Y-87338D01*
X279661Y-87318D01*
X279704Y-87288D01*
X279751Y-87267D01*
X279804Y-87219D01*
X279863Y-87178D01*
X279894Y-87136D01*
X279933Y-87101D01*
X279967Y-87038D01*
X280010Y-86980D01*
X280026Y-86931D01*
X280051Y-86885D01*
X280064Y-86815D01*
X280086Y-86746D01*
X280086Y-86694D01*
X280095Y-86643D01*
X280084Y-86572D01*
X280084Y-86500D01*
X280064Y-86432D01*
X280059Y-86400D01*
X280048Y-86379D01*
X280037Y-86339D01*
X279457Y-84939D01*
X279158Y-83434D01*
X279158Y-81899D01*
X279457Y-80394D01*
X280044Y-78976D01*
X280469Y-78341D01*
X285332Y-83205D01*
X285349Y-83217D01*
X285361Y-83232D01*
X285448Y-83288D01*
X285532Y-83348D01*
X285551Y-83354D01*
X285568Y-83365D01*
X285668Y-83390D01*
X285767Y-83421D01*
X285787Y-83420D01*
X285806Y-83425D01*
X285909Y-83417D01*
X286013Y-83414D01*
X286032Y-83408D01*
X286052Y-83406D01*
X286146Y-83366D01*
X286244Y-83330D01*
X286260Y-83318D01*
X286278Y-83310D01*
X286409Y-83205D01*
X287487Y-82127D01*
X287498Y-82111D01*
X287514Y-82099D01*
X287570Y-82011D01*
X287630Y-81928D01*
X287636Y-81909D01*
X287647Y-81892D01*
X287672Y-81791D01*
X287702Y-81693D01*
X287702Y-81673D01*
X287707Y-81653D01*
X287699Y-81550D01*
X287696Y-81447D01*
X287689Y-81428D01*
X287688Y-81408D01*
X287647Y-81313D01*
X287612Y-81216D01*
X287599Y-81200D01*
X287591Y-81182D01*
X287487Y-81051D01*
X282623Y-76187D01*
X283258Y-75763D01*
X284676Y-75175D01*
X286181Y-74876D01*
X287716Y-74876D01*
X289221Y-75175D01*
X290621Y-75755D01*
X290691Y-75772D01*
X290758Y-75797D01*
X290810Y-75800D01*
X290860Y-75812D01*
X290932Y-75805D01*
X291003Y-75808D01*
X291053Y-75793D01*
X291105Y-75788D01*
X291171Y-75759D01*
X291240Y-75739D01*
X291282Y-75710D01*
X291330Y-75688D01*
X291383Y-75640D01*
X291442Y-75599D01*
X291473Y-75557D01*
X291511Y-75522D01*
X291546Y-75459D01*
X291588Y-75402D01*
X291605Y-75352D01*
X291630Y-75307D01*
X291642Y-75236D01*
X291665Y-75168D01*
X291664Y-75116D01*
X291673Y-75064D01*
X291663Y-74994D01*
X291662Y-74922D01*
X291642Y-74853D01*
X291638Y-74821D01*
X291627Y-74800D01*
X291616Y-74761D01*
X291034Y-73357D01*
X291034Y-70763D01*
X292027Y-68366D01*
X293861Y-66532D01*
X296258Y-65539D01*
X298852Y-65539D01*
X301249Y-66532D01*
X303083Y-68366D01*
X304076Y-70763D01*
X304076Y-73357D01*
X303083Y-75754D01*
X301249Y-77588D01*
X298852Y-78581D01*
X296258Y-78581D01*
X294854Y-78000D01*
X294784Y-77983D01*
X294718Y-77957D01*
X294666Y-77955D01*
X294615Y-77943D01*
X294544Y-77950D01*
X294472Y-77947D01*
X294422Y-77962D01*
X294370Y-77966D01*
X294304Y-77996D01*
X294236Y-78016D01*
X294193Y-78045D01*
X294145Y-78066D01*
X294092Y-78115D01*
X294034Y-78156D01*
X294003Y-78198D01*
X293964Y-78233D01*
X293929Y-78296D01*
X293887Y-78353D01*
X293871Y-78403D01*
X293846Y-78448D01*
X293833Y-78519D01*
X293811Y-78587D01*
X293811Y-78639D01*
X293802Y-78690D01*
X293812Y-78761D01*
X293813Y-78833D01*
X293833Y-78902D01*
X293838Y-78934D01*
X293848Y-78955D01*
X293860Y-78994D01*
X294440Y-80394D01*
X294739Y-81899D01*
X294739Y-83434D01*
X294440Y-84939D01*
X293852Y-86357D01*
X293428Y-86992D01*
X288564Y-82129D01*
X288548Y-82117D01*
X288536Y-82101D01*
X288448Y-82045D01*
X288365Y-81985D01*
X288346Y-81979D01*
X288329Y-81968D01*
X288228Y-81943D01*
X288130Y-81913D01*
X288110Y-81913D01*
X288090Y-81908D01*
X287987Y-81916D01*
X287884Y-81919D01*
X287865Y-81926D01*
X287845Y-81927D01*
X287750Y-81968D01*
X287653Y-82003D01*
X287637Y-82016D01*
X287619Y-82024D01*
X287488Y-82129D01*
X286410Y-83206D01*
X286399Y-83222D01*
X286383Y-83235D01*
X286327Y-83322D01*
X286267Y-83406D01*
X286261Y-83425D01*
X286250Y-83442D01*
X286225Y-83542D01*
X286194Y-83641D01*
X286195Y-83661D01*
X286190Y-83680D01*
X286198Y-83783D01*
X286201Y-83887D01*
X286207Y-83906D01*
X286209Y-83925D01*
X286249Y-84020D01*
X286285Y-84118D01*
X286298Y-84134D01*
X286305Y-84152D01*
X286410Y-84283D01*
X291274Y-89146D01*
X290639Y-89571D01*
X289221Y-90158D01*
X287716Y-90457D01*
X286181Y-90457D01*
X284676Y-90158D01*
X283276Y-89578D01*
X283206Y-89562D01*
X283139Y-89536D01*
X283087Y-89534D01*
X283036Y-89522D01*
X282965Y-89529D01*
X282893Y-89526D01*
X282843Y-89540D01*
X282791Y-89545D01*
X282726Y-89574D01*
X282657Y-89594D01*
X282614Y-89624D01*
X282567Y-89645D01*
X282514Y-89694D01*
X282455Y-89734D01*
X282424Y-89776D01*
X282386Y-89811D01*
X282351Y-89874D01*
X282308Y-89932D01*
X282292Y-89981D01*
X282267Y-90027D01*
X282254Y-90098D01*
X282232Y-90166D01*
X282232Y-90218D01*
X282223Y-90269D01*
X282234Y-90340D01*
X282234Y-90412D01*
X282254Y-90481D01*
X282259Y-90512D01*
X282270Y-90533D01*
X282281Y-90573D01*
X282862Y-91976D01*
X282862Y-94570D01*
X281870Y-96967D01*
X280035Y-98801D01*
X277639Y-99794D01*
X275045Y-99794D01*
G37*
%LPD*%
%LPC*%
G36*
X253831Y-121007D02*
X253831Y-121007D01*
X251435Y-120015D01*
X249601Y-118180D01*
X248608Y-115784D01*
X248608Y-113190D01*
X249601Y-110793D01*
X251435Y-108959D01*
X253831Y-107966D01*
X256426Y-107966D01*
X258822Y-108959D01*
X260657Y-110793D01*
X261649Y-113190D01*
X261649Y-115784D01*
X260657Y-118180D01*
X258822Y-120015D01*
X256426Y-121007D01*
X253831Y-121007D01*
G37*
%LPD*%
%LPC*%
G36*
X264438Y-110401D02*
X264438Y-110401D01*
X262041Y-109408D01*
X260207Y-107574D01*
X259214Y-105177D01*
X259214Y-102583D01*
X260207Y-100186D01*
X262041Y-98352D01*
X264438Y-97359D01*
X267032Y-97359D01*
X269429Y-98352D01*
X271263Y-100186D01*
X272256Y-102583D01*
X272256Y-105177D01*
X271263Y-107574D01*
X269429Y-109408D01*
X267032Y-110401D01*
X264438Y-110401D01*
G37*
%LPD*%
%LPC*%
G36*
X306865Y-67974D02*
X306865Y-67974D01*
X304468Y-66982D01*
X302634Y-65147D01*
X301641Y-62751D01*
X301641Y-60156D01*
X302634Y-57760D01*
X304468Y-55926D01*
X306865Y-54933D01*
X309459Y-54933D01*
X311855Y-55926D01*
X313690Y-57760D01*
X314682Y-60156D01*
X314682Y-62751D01*
X313690Y-65147D01*
X311855Y-66982D01*
X309459Y-67974D01*
X306865Y-67974D01*
G37*
%LPD*%
%LPC*%
G36*
X44676Y-81074D02*
X44676Y-81074D01*
X42751Y-79149D01*
X42751Y-76400D01*
X42766Y-76366D01*
X42797Y-76324D01*
X42818Y-76256D01*
X42848Y-76190D01*
X42854Y-76139D01*
X42869Y-76089D01*
X42867Y-76017D01*
X42875Y-75946D01*
X42864Y-75895D01*
X42863Y-75843D01*
X42838Y-75776D01*
X42823Y-75706D01*
X42796Y-75661D01*
X42778Y-75612D01*
X42733Y-75556D01*
X42697Y-75495D01*
X42657Y-75461D01*
X42625Y-75420D01*
X42564Y-75381D01*
X42510Y-75335D01*
X42461Y-75315D01*
X42418Y-75287D01*
X42348Y-75270D01*
X42282Y-75243D01*
X42210Y-75235D01*
X42179Y-75227D01*
X42156Y-75229D01*
X42115Y-75224D01*
X41294Y-75224D01*
X39076Y-73006D01*
X39076Y-69869D01*
X41291Y-67653D01*
X41303Y-67637D01*
X41318Y-67625D01*
X41375Y-67538D01*
X41435Y-67454D01*
X41441Y-67435D01*
X41451Y-67418D01*
X41477Y-67317D01*
X41507Y-67219D01*
X41507Y-67199D01*
X41512Y-67179D01*
X41503Y-67076D01*
X41501Y-66973D01*
X41494Y-66954D01*
X41492Y-66934D01*
X41452Y-66839D01*
X41416Y-66742D01*
X41404Y-66726D01*
X41396Y-66708D01*
X41291Y-66577D01*
X39576Y-64861D01*
X39576Y-62139D01*
X41501Y-60213D01*
X44224Y-60213D01*
X46149Y-62139D01*
X46149Y-64861D01*
X44434Y-66577D01*
X44422Y-66593D01*
X44407Y-66606D01*
X44350Y-66693D01*
X44290Y-66777D01*
X44284Y-66796D01*
X44274Y-66812D01*
X44248Y-66913D01*
X44218Y-67012D01*
X44218Y-67032D01*
X44213Y-67051D01*
X44222Y-67154D01*
X44224Y-67258D01*
X44231Y-67276D01*
X44233Y-67296D01*
X44273Y-67391D01*
X44309Y-67489D01*
X44321Y-67504D01*
X44329Y-67523D01*
X44434Y-67653D01*
X46649Y-69869D01*
X46649Y-73006D01*
X46454Y-73201D01*
X46412Y-73259D01*
X46363Y-73311D01*
X46341Y-73359D01*
X46310Y-73401D01*
X46289Y-73469D01*
X46259Y-73535D01*
X46253Y-73586D01*
X46238Y-73636D01*
X46240Y-73708D01*
X46232Y-73779D01*
X46243Y-73830D01*
X46244Y-73882D01*
X46269Y-73949D01*
X46284Y-74019D01*
X46311Y-74064D01*
X46329Y-74113D01*
X46374Y-74169D01*
X46411Y-74230D01*
X46450Y-74264D01*
X46483Y-74305D01*
X46543Y-74344D01*
X46597Y-74390D01*
X46646Y-74410D01*
X46690Y-74438D01*
X46759Y-74455D01*
X46826Y-74482D01*
X46897Y-74490D01*
X46928Y-74498D01*
X46951Y-74496D01*
X46992Y-74501D01*
X47399Y-74501D01*
X49324Y-76426D01*
X49324Y-79149D01*
X47399Y-81074D01*
X44676Y-81074D01*
G37*
%LPD*%
%LPC*%
G36*
X21733Y-57071D02*
X21733Y-57071D01*
X18792Y-54130D01*
X18792Y-49970D01*
X21733Y-47029D01*
X25892Y-47029D01*
X28833Y-49970D01*
X28833Y-54130D01*
X25892Y-57071D01*
X21733Y-57071D01*
G37*
%LPD*%
%LPC*%
G36*
X83221Y61229D02*
X83221Y61229D01*
X81295Y63155D01*
X81295Y63195D01*
X81280Y63313D01*
X81273Y63432D01*
X81260Y63470D01*
X81255Y63511D01*
X81212Y63621D01*
X81175Y63735D01*
X81153Y63769D01*
X81138Y63806D01*
X81069Y63903D01*
X81005Y64003D01*
X80975Y64031D01*
X80952Y64064D01*
X80860Y64140D01*
X80773Y64221D01*
X80738Y64241D01*
X80707Y64266D01*
X80599Y64317D01*
X80495Y64375D01*
X80455Y64385D01*
X80419Y64402D01*
X80302Y64424D01*
X80187Y64454D01*
X80127Y64458D01*
X80107Y64462D01*
X80086Y64461D01*
X80026Y64464D01*
X77433Y64464D01*
X75508Y66390D01*
X75508Y69113D01*
X77433Y71038D01*
X80156Y71038D01*
X82082Y69113D01*
X82082Y69072D01*
X82097Y68954D01*
X82104Y68835D01*
X82116Y68797D01*
X82121Y68756D01*
X82165Y68646D01*
X82202Y68533D01*
X82224Y68498D01*
X82239Y68461D01*
X82308Y68365D01*
X82372Y68264D01*
X82402Y68236D01*
X82425Y68203D01*
X82517Y68127D01*
X82604Y68046D01*
X82639Y68026D01*
X82670Y68001D01*
X82778Y67950D01*
X82882Y67892D01*
X82921Y67882D01*
X82958Y67865D01*
X83075Y67843D01*
X83190Y67813D01*
X83250Y67809D01*
X83270Y67805D01*
X83291Y67807D01*
X83351Y67803D01*
X85943Y67803D01*
X87869Y65877D01*
X87869Y63155D01*
X85943Y61229D01*
X83221Y61229D01*
G37*
%LPD*%
%LPC*%
G36*
X312964Y-27099D02*
X312964Y-27099D01*
X311038Y-25174D01*
X311038Y-22451D01*
X311520Y-21970D01*
X311531Y-21953D01*
X311547Y-21941D01*
X311603Y-21854D01*
X311663Y-21770D01*
X311669Y-21751D01*
X311680Y-21734D01*
X311705Y-21633D01*
X311736Y-21535D01*
X311735Y-21515D01*
X311740Y-21495D01*
X311732Y-21392D01*
X311729Y-21289D01*
X311722Y-21270D01*
X311721Y-21250D01*
X311681Y-21155D01*
X311645Y-21058D01*
X311632Y-21042D01*
X311625Y-21024D01*
X311520Y-20893D01*
X309451Y-18824D01*
X309451Y-16101D01*
X311376Y-14176D01*
X314099Y-14176D01*
X316024Y-16101D01*
X316024Y-18824D01*
X315543Y-19305D01*
X315531Y-19322D01*
X315515Y-19334D01*
X315460Y-19421D01*
X315399Y-19505D01*
X315393Y-19524D01*
X315382Y-19541D01*
X315357Y-19641D01*
X315327Y-19740D01*
X315327Y-19760D01*
X315322Y-19780D01*
X315330Y-19882D01*
X315333Y-19986D01*
X315340Y-20005D01*
X315342Y-20025D01*
X315382Y-20120D01*
X315418Y-20217D01*
X315430Y-20233D01*
X315438Y-20251D01*
X315543Y-20382D01*
X317612Y-22451D01*
X317612Y-25174D01*
X315686Y-27099D01*
X312964Y-27099D01*
G37*
%LPD*%
%LPC*%
G36*
X138339Y23701D02*
X138339Y23701D01*
X136413Y25626D01*
X136413Y28349D01*
X136895Y28830D01*
X136906Y28847D01*
X136922Y28859D01*
X136978Y28946D01*
X137038Y29030D01*
X137044Y29049D01*
X137055Y29066D01*
X137080Y29167D01*
X137111Y29265D01*
X137110Y29285D01*
X137115Y29305D01*
X137107Y29408D01*
X137104Y29511D01*
X137097Y29530D01*
X137096Y29550D01*
X137056Y29645D01*
X137020Y29742D01*
X137007Y29758D01*
X137000Y29776D01*
X136895Y29907D01*
X134826Y31976D01*
X134826Y34699D01*
X136751Y36624D01*
X139474Y36624D01*
X141399Y34699D01*
X141399Y31976D01*
X140918Y31495D01*
X140906Y31478D01*
X140890Y31466D01*
X140835Y31379D01*
X140774Y31295D01*
X140768Y31276D01*
X140757Y31259D01*
X140732Y31159D01*
X140702Y31060D01*
X140702Y31040D01*
X140697Y31020D01*
X140705Y30918D01*
X140708Y30814D01*
X140715Y30795D01*
X140717Y30775D01*
X140757Y30680D01*
X140793Y30583D01*
X140805Y30567D01*
X140813Y30549D01*
X140918Y30418D01*
X142987Y28349D01*
X142987Y25626D01*
X141061Y23701D01*
X138339Y23701D01*
G37*
%LPD*%
%LPC*%
G36*
X84364Y-82662D02*
X84364Y-82662D01*
X82438Y-80736D01*
X82438Y-78014D01*
X84364Y-76088D01*
X86440Y-76088D01*
X86459Y-76085D01*
X86479Y-76087D01*
X86580Y-76065D01*
X86682Y-76049D01*
X86700Y-76039D01*
X86719Y-76035D01*
X86808Y-75982D01*
X86900Y-75933D01*
X86913Y-75919D01*
X86930Y-75909D01*
X86998Y-75830D01*
X87069Y-75755D01*
X87077Y-75737D01*
X87090Y-75722D01*
X87129Y-75626D01*
X87173Y-75532D01*
X87175Y-75512D01*
X87182Y-75494D01*
X87201Y-75327D01*
X87201Y-73251D01*
X89126Y-71326D01*
X91849Y-71326D01*
X93774Y-73251D01*
X93774Y-75974D01*
X91849Y-77899D01*
X89773Y-77899D01*
X89753Y-77902D01*
X89734Y-77900D01*
X89632Y-77922D01*
X89530Y-77939D01*
X89513Y-77948D01*
X89493Y-77953D01*
X89404Y-78006D01*
X89313Y-78054D01*
X89299Y-78068D01*
X89282Y-78079D01*
X89215Y-78157D01*
X89143Y-78232D01*
X89135Y-78250D01*
X89122Y-78266D01*
X89083Y-78362D01*
X89040Y-78455D01*
X89038Y-78475D01*
X89030Y-78494D01*
X89012Y-78660D01*
X89012Y-80736D01*
X87086Y-82662D01*
X84364Y-82662D01*
G37*
%LPD*%
%LPC*%
G36*
X104938Y124983D02*
X104938Y124983D01*
X103012Y126909D01*
X103012Y129631D01*
X105018Y131637D01*
X105029Y131653D01*
X105045Y131666D01*
X105073Y131710D01*
X105108Y131746D01*
X105129Y131792D01*
X105161Y131837D01*
X105167Y131856D01*
X105178Y131873D01*
X105192Y131926D01*
X105211Y131969D01*
X105217Y132016D01*
X105234Y132072D01*
X105233Y132092D01*
X105238Y132111D01*
X105234Y132169D01*
X105238Y132213D01*
X105229Y132257D01*
X105227Y132318D01*
X105220Y132336D01*
X105219Y132356D01*
X105195Y132412D01*
X105186Y132454D01*
X105164Y132491D01*
X105143Y132549D01*
X105130Y132564D01*
X105123Y132583D01*
X105069Y132649D01*
X105060Y132665D01*
X105050Y132673D01*
X105018Y132714D01*
X104727Y133005D01*
X104727Y135727D01*
X106652Y137653D01*
X109375Y137653D01*
X111300Y135727D01*
X111300Y133005D01*
X109295Y130999D01*
X109283Y130983D01*
X109267Y130970D01*
X109211Y130883D01*
X109151Y130799D01*
X109145Y130780D01*
X109134Y130764D01*
X109109Y130663D01*
X109079Y130564D01*
X109079Y130544D01*
X109074Y130525D01*
X109082Y130422D01*
X109085Y130318D01*
X109092Y130300D01*
X109094Y130280D01*
X109134Y130185D01*
X109170Y130087D01*
X109182Y130072D01*
X109190Y130053D01*
X109295Y129922D01*
X109586Y129631D01*
X109586Y126909D01*
X107660Y124983D01*
X104938Y124983D01*
G37*
%LPD*%
%LPC*%
G36*
X220949Y95453D02*
X220949Y95453D01*
X219024Y97378D01*
X219024Y100101D01*
X220949Y102027D01*
X222774Y102027D01*
X222794Y102030D01*
X222813Y102028D01*
X222915Y102050D01*
X223017Y102066D01*
X223034Y102076D01*
X223054Y102080D01*
X223143Y102133D01*
X223234Y102181D01*
X223248Y102196D01*
X223265Y102206D01*
X223332Y102285D01*
X223404Y102360D01*
X223412Y102378D01*
X223425Y102393D01*
X223464Y102489D01*
X223507Y102583D01*
X223509Y102603D01*
X223517Y102621D01*
X223535Y102788D01*
X223535Y104358D01*
X225461Y106284D01*
X228183Y106284D01*
X230109Y104358D01*
X230109Y101636D01*
X228183Y99710D01*
X226359Y99710D01*
X226339Y99707D01*
X226319Y99709D01*
X226218Y99687D01*
X226116Y99671D01*
X226099Y99661D01*
X226079Y99657D01*
X225990Y99604D01*
X225899Y99555D01*
X225885Y99541D01*
X225868Y99531D01*
X225801Y99452D01*
X225729Y99377D01*
X225721Y99359D01*
X225708Y99344D01*
X225669Y99248D01*
X225626Y99154D01*
X225624Y99134D01*
X225616Y99116D01*
X225598Y98949D01*
X225598Y97378D01*
X223672Y95453D01*
X220949Y95453D01*
G37*
%LPD*%
%LPC*%
G36*
X218986Y116218D02*
X218986Y116218D01*
X217061Y118143D01*
X217061Y119650D01*
X217058Y119670D01*
X217060Y119689D01*
X217038Y119791D01*
X217021Y119893D01*
X217012Y119910D01*
X217008Y119930D01*
X216954Y120019D01*
X216906Y120110D01*
X216892Y120124D01*
X216881Y120141D01*
X216803Y120208D01*
X216728Y120280D01*
X216710Y120288D01*
X216694Y120301D01*
X216598Y120340D01*
X216505Y120383D01*
X216485Y120385D01*
X216466Y120393D01*
X216300Y120411D01*
X214666Y120411D01*
X212740Y122337D01*
X212740Y125059D01*
X214666Y126985D01*
X217388Y126985D01*
X219314Y125059D01*
X219314Y123552D01*
X219317Y123533D01*
X219315Y123513D01*
X219337Y123412D01*
X219353Y123310D01*
X219363Y123292D01*
X219367Y123273D01*
X219420Y123184D01*
X219469Y123092D01*
X219483Y123079D01*
X219493Y123061D01*
X219572Y122994D01*
X219647Y122923D01*
X219665Y122915D01*
X219680Y122902D01*
X219776Y122863D01*
X219870Y122819D01*
X219890Y122817D01*
X219908Y122810D01*
X220075Y122791D01*
X221709Y122791D01*
X223634Y120866D01*
X223634Y118143D01*
X221709Y116218D01*
X218986Y116218D01*
G37*
%LPD*%
%LPC*%
G36*
X165286Y134659D02*
X165286Y134659D01*
X163361Y136584D01*
X163361Y139307D01*
X165286Y141233D01*
X167372Y141233D01*
X167392Y141236D01*
X167412Y141234D01*
X167513Y141256D01*
X167615Y141272D01*
X167633Y141282D01*
X167652Y141286D01*
X167741Y141339D01*
X167832Y141387D01*
X167846Y141402D01*
X167863Y141412D01*
X167931Y141491D01*
X168002Y141566D01*
X168010Y141584D01*
X168023Y141599D01*
X168062Y141695D01*
X168105Y141789D01*
X168108Y141809D01*
X168115Y141827D01*
X168134Y141994D01*
X168134Y142795D01*
X170059Y144720D01*
X172782Y144720D01*
X174707Y142795D01*
X174707Y140072D01*
X172782Y138147D01*
X170696Y138147D01*
X170676Y138144D01*
X170656Y138146D01*
X170555Y138124D01*
X170453Y138107D01*
X170436Y138098D01*
X170416Y138094D01*
X170327Y138040D01*
X170236Y137992D01*
X170222Y137978D01*
X170205Y137968D01*
X170138Y137889D01*
X170066Y137814D01*
X170058Y137796D01*
X170045Y137781D01*
X170006Y137684D01*
X169963Y137591D01*
X169961Y137571D01*
X169953Y137552D01*
X169935Y137386D01*
X169935Y136584D01*
X168009Y134659D01*
X165286Y134659D01*
G37*
%LPD*%
%LPC*%
G36*
X152055Y134635D02*
X152055Y134635D01*
X149992Y136698D01*
X149918Y136751D01*
X149848Y136811D01*
X149818Y136823D01*
X149792Y136842D01*
X149705Y136869D01*
X149620Y136903D01*
X149579Y136907D01*
X149557Y136914D01*
X149525Y136913D01*
X149453Y136921D01*
X147165Y136921D01*
X145239Y138847D01*
X145239Y141569D01*
X147165Y143495D01*
X149887Y143495D01*
X151950Y141432D01*
X152024Y141379D01*
X152094Y141319D01*
X152124Y141307D01*
X152150Y141288D01*
X152237Y141261D01*
X152322Y141227D01*
X152363Y141223D01*
X152385Y141216D01*
X152417Y141217D01*
X152489Y141209D01*
X154777Y141209D01*
X156703Y139283D01*
X156703Y136561D01*
X154777Y134635D01*
X152055Y134635D01*
G37*
%LPD*%
%LPC*%
G36*
X171365Y-154849D02*
X171365Y-154849D01*
X169001Y-152485D01*
X169001Y-149140D01*
X171365Y-146776D01*
X174710Y-146776D01*
X177074Y-149140D01*
X177074Y-152485D01*
X174710Y-154849D01*
X171365Y-154849D01*
G37*
%LPD*%
%LPC*%
G36*
X204703Y-185012D02*
X204703Y-185012D01*
X202338Y-182647D01*
X202338Y-179303D01*
X204703Y-176938D01*
X208047Y-176938D01*
X210412Y-179303D01*
X210412Y-182647D01*
X208047Y-185012D01*
X204703Y-185012D01*
G37*
%LPD*%
%LPC*%
G36*
X101515Y138838D02*
X101515Y138838D01*
X99151Y141203D01*
X99151Y144547D01*
X101515Y146912D01*
X104860Y146912D01*
X107224Y144547D01*
X107224Y141203D01*
X104860Y138838D01*
X101515Y138838D01*
G37*
%LPD*%
%LPC*%
G36*
X204933Y113815D02*
X204933Y113815D01*
X202715Y116033D01*
X202715Y119171D01*
X204933Y121389D01*
X208071Y121389D01*
X210289Y119171D01*
X210289Y116033D01*
X208071Y113815D01*
X204933Y113815D01*
G37*
%LPD*%
%LPC*%
G36*
X132035Y58189D02*
X132035Y58189D01*
X129817Y60407D01*
X129817Y63545D01*
X132035Y65763D01*
X135173Y65763D01*
X137391Y63545D01*
X137391Y60407D01*
X135173Y58189D01*
X132035Y58189D01*
G37*
%LPD*%
%LPC*%
G36*
X180295Y113053D02*
X180295Y113053D01*
X178077Y115271D01*
X178077Y118409D01*
X180295Y120627D01*
X183433Y120627D01*
X185651Y118409D01*
X185651Y115271D01*
X183433Y113053D01*
X180295Y113053D01*
G37*
%LPD*%
%LPC*%
G36*
X192106Y127150D02*
X192106Y127150D01*
X189888Y129368D01*
X189888Y132506D01*
X192106Y134724D01*
X195244Y134724D01*
X197462Y132506D01*
X197462Y129368D01*
X195244Y127150D01*
X192106Y127150D01*
G37*
%LPD*%
%LPC*%
G36*
X192106Y85875D02*
X192106Y85875D01*
X189888Y88093D01*
X189888Y91231D01*
X192106Y93449D01*
X195244Y93449D01*
X197462Y91231D01*
X197462Y88093D01*
X195244Y85875D01*
X192106Y85875D01*
G37*
%LPD*%
%LPC*%
G36*
X202901Y94257D02*
X202901Y94257D01*
X200683Y96475D01*
X200683Y99613D01*
X202901Y101831D01*
X206039Y101831D01*
X208257Y99613D01*
X208257Y96475D01*
X206039Y94257D01*
X202901Y94257D01*
G37*
%LPD*%
%LPC*%
G36*
X180295Y95400D02*
X180295Y95400D01*
X178077Y97618D01*
X178077Y100756D01*
X180295Y102974D01*
X183433Y102974D01*
X185651Y100756D01*
X185651Y97618D01*
X183433Y95400D01*
X180295Y95400D01*
G37*
%LPD*%
%LPC*%
G36*
X216490Y103909D02*
X216490Y103909D01*
X214272Y106127D01*
X214272Y109265D01*
X216490Y111483D01*
X219628Y111483D01*
X221846Y109265D01*
X221846Y106127D01*
X219628Y103909D01*
X216490Y103909D01*
G37*
%LPD*%
%LPC*%
G36*
X191979Y104544D02*
X191979Y104544D01*
X189761Y106762D01*
X189761Y109900D01*
X191979Y112118D01*
X195117Y112118D01*
X197335Y109900D01*
X197335Y106762D01*
X195117Y104544D01*
X191979Y104544D01*
G37*
%LPD*%
%LPC*%
G36*
X167468Y105306D02*
X167468Y105306D01*
X165250Y107524D01*
X165250Y110662D01*
X167468Y112880D01*
X170606Y112880D01*
X172824Y110662D01*
X172824Y107524D01*
X170606Y105306D01*
X167468Y105306D01*
G37*
%LPD*%
%LPC*%
G36*
X165223Y-136887D02*
X165223Y-136887D01*
X163151Y-134815D01*
X163151Y-131885D01*
X165223Y-129813D01*
X168152Y-129813D01*
X170224Y-131885D01*
X170224Y-134815D01*
X168152Y-136887D01*
X165223Y-136887D01*
G37*
%LPD*%
%LPC*%
G36*
X190623Y-155937D02*
X190623Y-155937D01*
X188551Y-153865D01*
X188551Y-150935D01*
X190623Y-148863D01*
X193552Y-148863D01*
X195624Y-150935D01*
X195624Y-153865D01*
X193552Y-155937D01*
X190623Y-155937D01*
G37*
%LPD*%
%LPC*%
G36*
X178686Y127816D02*
X178686Y127816D01*
X176761Y129741D01*
X176761Y132464D01*
X178686Y134389D01*
X181409Y134389D01*
X183334Y132464D01*
X183334Y129741D01*
X181409Y127816D01*
X178686Y127816D01*
G37*
%LPD*%
%LPC*%
G36*
X81951Y115204D02*
X81951Y115204D01*
X80025Y117130D01*
X80025Y119852D01*
X81951Y121778D01*
X84673Y121778D01*
X86599Y119852D01*
X86599Y117130D01*
X84673Y115204D01*
X81951Y115204D01*
G37*
%LPD*%
%LPC*%
G36*
X225651Y133238D02*
X225651Y133238D01*
X223726Y135164D01*
X223726Y137886D01*
X225651Y139812D01*
X228374Y139812D01*
X230299Y137886D01*
X230299Y135164D01*
X228374Y133238D01*
X225651Y133238D01*
G37*
%LPD*%
%LPC*%
G36*
X226929Y108402D02*
X226929Y108402D01*
X225004Y110327D01*
X225004Y113050D01*
X226929Y114975D01*
X229652Y114975D01*
X231577Y113050D01*
X231577Y110327D01*
X229652Y108402D01*
X226929Y108402D01*
G37*
%LPD*%
%LPC*%
G36*
X131989Y107838D02*
X131989Y107838D01*
X130063Y109764D01*
X130063Y112486D01*
X131989Y114412D01*
X134711Y114412D01*
X136637Y112486D01*
X136637Y109764D01*
X134711Y107838D01*
X131989Y107838D01*
G37*
%LPD*%
%LPC*%
G36*
X55281Y64277D02*
X55281Y64277D01*
X53355Y66203D01*
X53355Y68925D01*
X55281Y70851D01*
X58003Y70851D01*
X59929Y68925D01*
X59929Y66203D01*
X58003Y64277D01*
X55281Y64277D01*
G37*
%LPD*%
%LPC*%
G36*
X181836Y58308D02*
X181836Y58308D01*
X179911Y60234D01*
X179911Y62956D01*
X181836Y64882D01*
X184559Y64882D01*
X186484Y62956D01*
X186484Y60234D01*
X184559Y58308D01*
X181836Y58308D01*
G37*
%LPD*%
%LPC*%
G36*
X172121Y49672D02*
X172121Y49672D01*
X170195Y51598D01*
X170195Y54320D01*
X172121Y56246D01*
X174843Y56246D01*
X176769Y54320D01*
X176769Y51598D01*
X174843Y49672D01*
X172121Y49672D01*
G37*
%LPD*%
%LPC*%
G36*
X154214Y44338D02*
X154214Y44338D01*
X152288Y46264D01*
X152288Y48986D01*
X154214Y50912D01*
X156936Y50912D01*
X158862Y48986D01*
X158862Y46264D01*
X156936Y44338D01*
X154214Y44338D01*
G37*
%LPD*%
%LPC*%
G36*
X97699Y38750D02*
X97699Y38750D01*
X95773Y40676D01*
X95773Y43398D01*
X97699Y45324D01*
X100421Y45324D01*
X102347Y43398D01*
X102347Y40676D01*
X100421Y38750D01*
X97699Y38750D01*
G37*
%LPD*%
%LPC*%
G36*
X78014Y79263D02*
X78014Y79263D01*
X76088Y81189D01*
X76088Y83911D01*
X78014Y85837D01*
X80736Y85837D01*
X82662Y83911D01*
X82662Y81189D01*
X80736Y79263D01*
X78014Y79263D01*
G37*
%LPD*%
%LPC*%
G36*
X157696Y67458D02*
X157696Y67458D01*
X155771Y69384D01*
X155771Y72107D01*
X157696Y74032D01*
X160419Y74032D01*
X162345Y72107D01*
X162345Y69384D01*
X160419Y67458D01*
X157696Y67458D01*
G37*
%LPD*%
%LPC*%
G36*
X24039Y26177D02*
X24039Y26177D01*
X22113Y28103D01*
X22113Y30825D01*
X24039Y32751D01*
X26761Y32751D01*
X28687Y30825D01*
X28687Y28103D01*
X26761Y26177D01*
X24039Y26177D01*
G37*
%LPD*%
%LPC*%
G36*
X48359Y22256D02*
X48359Y22256D01*
X46434Y24182D01*
X46434Y26904D01*
X48359Y28830D01*
X51082Y28830D01*
X53007Y26904D01*
X53007Y24182D01*
X51082Y22256D01*
X48359Y22256D01*
G37*
%LPD*%
%LPC*%
G36*
X35659Y22113D02*
X35659Y22113D01*
X33734Y24039D01*
X33734Y26761D01*
X35659Y28687D01*
X38382Y28687D01*
X40307Y26761D01*
X40307Y24039D01*
X38382Y22113D01*
X35659Y22113D01*
G37*
%LPD*%
%LPC*%
G36*
X120876Y-17574D02*
X120876Y-17574D01*
X118951Y-15649D01*
X118951Y-12926D01*
X120876Y-11001D01*
X123599Y-11001D01*
X125524Y-12926D01*
X125524Y-15649D01*
X123599Y-17574D01*
X120876Y-17574D01*
G37*
%LPD*%
%LPC*%
G36*
X97064Y-17574D02*
X97064Y-17574D01*
X95138Y-15649D01*
X95138Y-12926D01*
X97064Y-11001D01*
X99786Y-11001D01*
X101712Y-12926D01*
X101712Y-15649D01*
X99786Y-17574D01*
X97064Y-17574D01*
G37*
%LPD*%
%LPC*%
G36*
X150912Y153304D02*
X150912Y153304D01*
X148986Y155230D01*
X148986Y157952D01*
X150912Y159878D01*
X153634Y159878D01*
X155560Y157952D01*
X155560Y155230D01*
X153634Y153304D01*
X150912Y153304D01*
G37*
%LPD*%
%LPC*%
G36*
X127226Y-23924D02*
X127226Y-23924D01*
X125301Y-21999D01*
X125301Y-19276D01*
X127226Y-17351D01*
X129949Y-17351D01*
X131874Y-19276D01*
X131874Y-21999D01*
X129949Y-23924D01*
X127226Y-23924D01*
G37*
%LPD*%
%LPC*%
G36*
X173645Y86883D02*
X173645Y86883D01*
X171719Y88809D01*
X171719Y91531D01*
X173645Y93457D01*
X176367Y93457D01*
X178293Y91531D01*
X178293Y88809D01*
X176367Y86883D01*
X173645Y86883D01*
G37*
%LPD*%
%LPC*%
G36*
X133005Y149113D02*
X133005Y149113D01*
X131079Y151039D01*
X131079Y153761D01*
X133005Y155687D01*
X135727Y155687D01*
X137653Y153761D01*
X137653Y151039D01*
X135727Y149113D01*
X133005Y149113D01*
G37*
%LPD*%
%LPC*%
G36*
X153579Y144033D02*
X153579Y144033D01*
X151653Y145959D01*
X151653Y148681D01*
X153579Y150607D01*
X156301Y150607D01*
X158227Y148681D01*
X158227Y145959D01*
X156301Y144033D01*
X153579Y144033D01*
G37*
%LPD*%
%LPC*%
G36*
X14514Y-69962D02*
X14514Y-69962D01*
X12588Y-68036D01*
X12588Y-65314D01*
X14514Y-63388D01*
X17236Y-63388D01*
X19162Y-65314D01*
X19162Y-68036D01*
X17236Y-69962D01*
X14514Y-69962D01*
G37*
%LPD*%
%LPC*%
G36*
X163475Y97033D02*
X163475Y97033D01*
X161549Y98959D01*
X161549Y101681D01*
X163475Y103607D01*
X166197Y103607D01*
X168123Y101681D01*
X168123Y98959D01*
X166197Y97033D01*
X163475Y97033D01*
G37*
%LPD*%
%LPC*%
G36*
X120876Y103076D02*
X120876Y103076D01*
X118951Y105001D01*
X118951Y107724D01*
X120876Y109649D01*
X123599Y109649D01*
X125524Y107724D01*
X125524Y105001D01*
X123599Y103076D01*
X120876Y103076D01*
G37*
%LPD*%
%LPC*%
G36*
X192430Y141377D02*
X192430Y141377D01*
X190505Y143302D01*
X190505Y146025D01*
X192430Y147950D01*
X195153Y147950D01*
X197078Y146025D01*
X197078Y143302D01*
X195153Y141377D01*
X192430Y141377D01*
G37*
%LPD*%
%LPC*%
G36*
X184857Y133615D02*
X184857Y133615D01*
X182931Y135541D01*
X182931Y138264D01*
X184857Y140189D01*
X187580Y140189D01*
X189505Y138264D01*
X189505Y135541D01*
X187580Y133615D01*
X184857Y133615D01*
G37*
%LPD*%
%LPC*%
G36*
X197076Y-125524D02*
X197076Y-125524D01*
X195151Y-123599D01*
X195151Y-120876D01*
X197076Y-118951D01*
X199799Y-118951D01*
X201724Y-120876D01*
X201724Y-123599D01*
X199799Y-125524D01*
X197076Y-125524D01*
G37*
%LPD*%
%LPC*%
G36*
X162151Y-127112D02*
X162151Y-127112D01*
X160226Y-125186D01*
X160226Y-122464D01*
X162151Y-120538D01*
X164874Y-120538D01*
X166799Y-122464D01*
X166799Y-125186D01*
X164874Y-127112D01*
X162151Y-127112D01*
G37*
%LPD*%
%LPC*%
G36*
X103414Y103076D02*
X103414Y103076D01*
X101488Y105001D01*
X101488Y107724D01*
X103414Y109649D01*
X106136Y109649D01*
X108062Y107724D01*
X108062Y105001D01*
X106136Y103076D01*
X103414Y103076D01*
G37*
%LPD*%
%LPC*%
G36*
X201839Y155463D02*
X201839Y155463D01*
X199913Y157389D01*
X199913Y160111D01*
X201839Y162037D01*
X204561Y162037D01*
X206487Y160111D01*
X206487Y157389D01*
X204561Y155463D01*
X201839Y155463D01*
G37*
%LPD*%
%LPC*%
G36*
X130401Y-136637D02*
X130401Y-136637D01*
X128476Y-134711D01*
X128476Y-131989D01*
X130401Y-130063D01*
X133124Y-130063D01*
X135049Y-131989D01*
X135049Y-134711D01*
X133124Y-136637D01*
X130401Y-136637D01*
G37*
%LPD*%
%LPC*%
G36*
X147864Y-138224D02*
X147864Y-138224D01*
X145938Y-136299D01*
X145938Y-133576D01*
X147864Y-131651D01*
X150586Y-131651D01*
X152512Y-133576D01*
X152512Y-136299D01*
X150586Y-138224D01*
X147864Y-138224D01*
G37*
%LPD*%
%LPC*%
G36*
X200251Y-139812D02*
X200251Y-139812D01*
X198326Y-137886D01*
X198326Y-135164D01*
X200251Y-133238D01*
X202974Y-133238D01*
X204899Y-135164D01*
X204899Y-137886D01*
X202974Y-139812D01*
X200251Y-139812D01*
G37*
%LPD*%
%LPC*%
G36*
X160564Y-147749D02*
X160564Y-147749D01*
X158638Y-145824D01*
X158638Y-143101D01*
X160564Y-141176D01*
X163286Y-141176D01*
X165212Y-143101D01*
X165212Y-145824D01*
X163286Y-147749D01*
X160564Y-147749D01*
G37*
%LPD*%
%LPC*%
G36*
X205014Y130063D02*
X205014Y130063D01*
X203088Y131989D01*
X203088Y134711D01*
X205014Y136637D01*
X207736Y136637D01*
X209662Y134711D01*
X209662Y131989D01*
X207736Y130063D01*
X205014Y130063D01*
G37*
%LPD*%
%LPC*%
G36*
X234986Y75834D02*
X234986Y75834D01*
X233060Y77760D01*
X233060Y80482D01*
X234986Y82408D01*
X237708Y82408D01*
X239634Y80482D01*
X239634Y77760D01*
X237708Y75834D01*
X234986Y75834D01*
G37*
%LPD*%
%LPC*%
G36*
X157643Y128158D02*
X157643Y128158D01*
X155717Y130084D01*
X155717Y132806D01*
X157643Y134732D01*
X160365Y134732D01*
X162291Y132806D01*
X162291Y130084D01*
X160365Y128158D01*
X157643Y128158D01*
G37*
%LPD*%
%LPC*%
G36*
X55789Y-131874D02*
X55789Y-131874D01*
X53863Y-129949D01*
X53863Y-127226D01*
X55789Y-125301D01*
X58511Y-125301D01*
X60437Y-127226D01*
X60437Y-129949D01*
X58511Y-131874D01*
X55789Y-131874D01*
G37*
%LPD*%
%LPC*%
G36*
X136751Y-6462D02*
X136751Y-6462D01*
X134826Y-4536D01*
X134826Y-1814D01*
X136751Y112D01*
X139474Y112D01*
X141399Y-1814D01*
X141399Y-4536D01*
X139474Y-6462D01*
X136751Y-6462D01*
G37*
%LPD*%
D10*
X23813Y13950D03*
X23813Y-52050D03*
D11*
X255129Y-114487D03*
X265735Y-103880D03*
X276342Y-93273D03*
X286948Y-82667D03*
X308162Y-61454D03*
X297555Y-72060D03*
D12*
X106299Y128270D03*
D13*
X193675Y130937D03*
X218059Y107696D03*
X193675Y89662D03*
X169037Y109093D03*
X181864Y116840D03*
X206502Y117602D03*
X204470Y98044D03*
X181864Y99187D03*
X193548Y108331D03*
X133604Y61976D03*
D12*
X99060Y42037D03*
X56642Y67564D03*
X286004Y15748D03*
X298704Y15748D03*
X260604Y156210D03*
X311404Y104648D03*
X286004Y156210D03*
X286004Y92710D03*
X286004Y80010D03*
X311404Y79248D03*
X286004Y67310D03*
X286004Y143510D03*
X286004Y41910D03*
X286004Y54610D03*
X260604Y168910D03*
X260604Y181610D03*
X25400Y29464D03*
X311404Y15748D03*
X311404Y41148D03*
X311404Y53848D03*
X311404Y66548D03*
X311404Y91948D03*
X285750Y168910D03*
X311404Y156210D03*
X260604Y54610D03*
X260604Y67310D03*
X311404Y28448D03*
X286004Y29210D03*
X273304Y156210D03*
X273050Y168910D03*
X298704Y156210D03*
X298450Y168910D03*
X298704Y79248D03*
X298704Y41148D03*
X298704Y53848D03*
X298704Y66548D03*
X298704Y91948D03*
X298704Y28448D03*
X273304Y92710D03*
X273304Y80010D03*
X273304Y67310D03*
X273304Y54610D03*
X236347Y79121D03*
X260604Y80010D03*
X83312Y118491D03*
X154940Y147320D03*
D13*
X120142Y71120D03*
D12*
X280988Y107950D03*
X333375Y138113D03*
X155575Y47625D03*
X98425Y-14288D03*
X57150Y-128588D03*
X157988Y106934D03*
X193383Y71021D03*
X211328Y128524D03*
X83566Y141224D03*
X38100Y-85725D03*
X127000Y34925D03*
X350838Y-46038D03*
X377825Y28575D03*
X249619Y104712D03*
X384175Y93663D03*
X242888Y58738D03*
X183198Y61595D03*
X193792Y144663D03*
X49721Y25543D03*
X106385Y90266D03*
X159058Y70745D03*
X173482Y52959D03*
X152273Y156591D03*
X226822Y102997D03*
X227013Y136525D03*
X42863Y-63500D03*
X46038Y-77788D03*
X203200Y158750D03*
X206375Y133350D03*
X15875Y-66675D03*
X186218Y136902D03*
X153416Y137922D03*
X78795Y67751D03*
D13*
X42863Y-71438D03*
D14*
X173038Y-150813D03*
X206375Y-180975D03*
D12*
X104775Y106363D03*
X79375Y82550D03*
X84582Y64516D03*
X108014Y134366D03*
X222311Y98740D03*
X134366Y152400D03*
X37021Y25400D03*
X100584Y90250D03*
X68834Y67564D03*
X107878Y58492D03*
D14*
X103188Y142875D03*
X55563Y112713D03*
D12*
X180047Y131103D03*
X159004Y131445D03*
X166648Y137946D03*
X148526Y140208D03*
X171420Y141434D03*
X198438Y-122238D03*
X201613Y-136525D03*
D15*
X192088Y-152400D03*
X166688Y-133350D03*
D12*
X244094Y115888D03*
X161925Y-144463D03*
X149225Y-134938D03*
X163513Y-123825D03*
X122238Y106363D03*
X109538Y1588D03*
X122238Y-14288D03*
X131763Y-133350D03*
X228290Y111689D03*
X85725Y-79375D03*
X220348Y119504D03*
X90488Y-74613D03*
X164836Y100320D03*
X138113Y33338D03*
X152400Y6350D03*
X312738Y-17463D03*
X175006Y90170D03*
X139700Y26988D03*
X138113Y-3175D03*
X314325Y-23813D03*
X216027Y123698D03*
X119063Y9525D03*
X133350Y111125D03*
X114300Y4763D03*
X128588Y-20638D03*
M02*
