G04 EAGLE Gerber RS-274X export*
G75*
%MOMM*%
%FSLAX34Y34*%
%LPD*%
%INBottom Copper*%
%IPPOS*%
%AMOC8*
5,1,8,0,0,1.08239X$1,22.5*%
G01*
%ADD10R,0.600000X1.600000*%
%ADD11C,0.900000*%
%ADD12R,1.050000X1.050000*%
%ADD13C,1.050000*%
%ADD14C,0.403200*%
%ADD15C,0.503200*%
%ADD16C,0.304800*%
%ADD17C,0.152400*%
%ADD18C,0.553200*%
%ADD19C,0.406400*%
%ADD20C,0.254000*%
%ADD21C,0.453200*%


D10*
X165354Y72425D03*
X152654Y72425D03*
X139954Y72425D03*
X127254Y72425D03*
X127254Y124425D03*
X139954Y124425D03*
X152654Y124425D03*
X165354Y124425D03*
D11*
X28313Y13950D02*
X19313Y13950D01*
X19313Y-52050D02*
X28313Y-52050D01*
D12*
G36*
X255129Y-107063D02*
X262553Y-114487D01*
X255129Y-121911D01*
X247705Y-114487D01*
X255129Y-107063D01*
G37*
D13*
X265735Y-103880D03*
X276342Y-93273D03*
X286948Y-82667D03*
X308162Y-61454D03*
X297555Y-72060D03*
D14*
X106299Y128270D03*
D15*
X193675Y130937D03*
X218059Y107696D03*
X193675Y89662D03*
X169037Y109093D03*
X181864Y116840D03*
X206502Y117602D03*
X204470Y98044D03*
X181864Y99187D03*
X193548Y108331D03*
X133604Y61976D03*
D14*
X99060Y42037D03*
X56642Y67564D03*
X286004Y15748D03*
X298704Y15748D03*
X260604Y156210D03*
X311404Y104648D03*
X286004Y156210D03*
X286004Y92710D03*
X286004Y80010D03*
X311404Y79248D03*
X286004Y67310D03*
X286004Y143510D03*
X286004Y41910D03*
X286004Y54610D03*
X260604Y168910D03*
X260604Y181610D03*
X25400Y29464D03*
X311404Y15748D03*
X311404Y41148D03*
X311404Y53848D03*
X311404Y66548D03*
X311404Y91948D03*
X285750Y168910D03*
X311404Y156210D03*
X260604Y54610D03*
X260604Y67310D03*
X311404Y28448D03*
X286004Y29210D03*
X273304Y156210D03*
X273050Y168910D03*
X298704Y156210D03*
X298450Y168910D03*
X298704Y79248D03*
X298704Y41148D03*
X298704Y53848D03*
X298704Y66548D03*
X298704Y91948D03*
X298704Y28448D03*
X273304Y92710D03*
X273304Y80010D03*
X273304Y67310D03*
X273304Y54610D03*
X236347Y79121D03*
X260604Y80010D03*
X83312Y118491D03*
X154940Y147320D03*
D16*
X127254Y72425D02*
X125949Y71120D01*
X120142Y71120D01*
D15*
X120142Y71120D03*
D14*
X280988Y107950D03*
X333375Y138113D03*
X155575Y47625D03*
X98425Y-14288D03*
X57150Y-128588D03*
X157988Y106934D03*
X193383Y71021D03*
X211328Y128524D03*
X83566Y141224D03*
X38100Y-85725D03*
X127000Y34925D03*
X350838Y-46038D03*
X377825Y28575D03*
X249619Y104712D03*
D17*
X248031Y103124D01*
X248031Y58738D01*
X248031Y45219D01*
D14*
X384175Y93663D03*
D17*
X334963Y44450D01*
X334963Y6350D01*
D14*
X242888Y58738D03*
D17*
X248031Y58738D01*
X248031Y45219D02*
X286900Y6350D01*
X334963Y6350D01*
D14*
X183198Y61595D03*
X193792Y144663D03*
D17*
X193792Y138059D01*
X188458Y132725D01*
X188458Y73083D01*
X183198Y67823D01*
X183198Y61595D01*
D14*
X49721Y25543D03*
X106385Y90266D03*
D17*
X77118Y71799D02*
X74747Y69428D01*
X74747Y66074D01*
X87918Y71799D02*
X106385Y90266D01*
X87918Y71799D02*
X77118Y71799D01*
X74747Y66074D02*
X54848Y46175D01*
X54848Y30671D02*
X49721Y25543D01*
X54848Y30671D02*
X54848Y46175D01*
D14*
X159058Y70745D03*
D17*
X159058Y64796D01*
D14*
X173482Y52959D03*
D17*
X170895Y52959D02*
X159058Y64796D01*
X170895Y52959D02*
X173482Y52959D01*
D14*
X152273Y156591D03*
D17*
X211836Y102997D02*
X226822Y102997D01*
X211836Y102997D02*
X201803Y113030D01*
D14*
X226822Y102997D03*
D17*
X201803Y113030D02*
X201803Y147823D01*
X193035Y156591D01*
X152273Y156591D01*
D14*
X227013Y136525D03*
D17*
X115396Y143106D02*
X115396Y87882D01*
X202956Y164719D02*
X207248Y160427D01*
X202956Y164719D02*
X137009Y164719D01*
X115396Y143106D01*
X115396Y87882D02*
X69850Y42336D01*
X207248Y156290D02*
X227013Y136525D01*
X207248Y156290D02*
X207248Y160427D01*
X69850Y-44532D02*
X49253Y-65128D01*
X69850Y-44532D02*
X69850Y42336D01*
X47625Y-63500D02*
X49253Y-65128D01*
X47625Y-63500D02*
X42863Y-63500D01*
D14*
X42863Y-63500D03*
X46038Y-77788D03*
D17*
X67056Y-56769D01*
X67056Y-54405D01*
X103830Y72365D02*
X118190Y86724D01*
X103830Y-17631D02*
X67056Y-54405D01*
X103830Y-17631D02*
X103830Y72365D01*
X118190Y86724D02*
X118190Y141948D01*
X136880Y160639D01*
X201311Y160639D01*
X203200Y158750D01*
D14*
X203200Y158750D03*
X206375Y133350D03*
D17*
X228689Y132477D02*
X231061Y134848D01*
X228689Y132477D02*
X223748Y132477D01*
X231061Y134848D02*
X231061Y140566D01*
X204113Y167513D01*
X206375Y133350D02*
X222875Y133350D01*
X223748Y132477D01*
X15875Y-66675D02*
X9525Y-60325D01*
D14*
X15875Y-66675D03*
D17*
X87985Y130096D02*
X97193Y130096D01*
X134611Y167513D02*
X204113Y167513D01*
X134611Y167513D02*
X97193Y130096D01*
X9525Y22225D02*
X9525Y-60325D01*
X9525Y22225D02*
X52594Y65294D01*
X52594Y94704D01*
X87985Y130096D01*
D14*
X186218Y136902D03*
D17*
X180122Y136902D01*
X174347Y131127D01*
X174347Y99223D01*
X152654Y77530D01*
X152654Y72425D01*
D14*
X153416Y137922D03*
D17*
X139954Y125730D02*
X139954Y124425D01*
X139954Y125730D02*
X152146Y137922D01*
X153416Y137922D01*
D14*
X78795Y67751D03*
D15*
X42863Y-71438D03*
D18*
X173038Y-150813D03*
D19*
X203200Y-180975D01*
X206375Y-180975D01*
D18*
X206375Y-180975D03*
D14*
X104775Y106363D03*
D16*
X103188Y106363D01*
X79375Y82550D01*
D14*
X79375Y82550D03*
D16*
X78303Y67259D02*
X78303Y64601D01*
X78303Y67259D02*
X78795Y67751D01*
X78303Y64601D02*
X58404Y44702D01*
X58404Y21074D01*
X42863Y-70302D02*
X42863Y-71438D01*
X42863Y-70302D02*
X38053Y-65492D01*
X38053Y723D01*
X58404Y21074D01*
D14*
X84582Y64516D03*
X108014Y134366D03*
D17*
X110941Y88843D02*
X86614Y64516D01*
X84582Y64516D01*
D14*
X222311Y98740D03*
X134366Y152400D03*
D17*
X198628Y146793D02*
X198628Y111746D01*
X211634Y98740D02*
X222311Y98740D01*
X211634Y98740D02*
X198628Y111746D01*
X110941Y131438D02*
X108014Y134366D01*
X110941Y131438D02*
X110941Y88843D01*
X193021Y152400D02*
X198628Y146793D01*
X193021Y152400D02*
X134366Y152400D01*
D14*
X37021Y25400D03*
X100584Y90250D03*
D17*
X84927Y74593D01*
X70138Y74593D01*
X37021Y41475D01*
X37021Y25400D01*
D14*
X68834Y67564D03*
X107878Y58492D03*
D18*
X103188Y142875D03*
D19*
X94472Y134160D01*
X86302Y134160D01*
X64855Y112713D02*
X55563Y112713D01*
X64855Y112713D02*
X86302Y134160D01*
D18*
X55563Y112713D03*
D14*
X180047Y131103D03*
D17*
X165354Y86278D02*
X165354Y72425D01*
X180047Y121455D02*
X180047Y131103D01*
X180047Y121455D02*
X177316Y118724D01*
X177316Y98240D01*
X165354Y86278D01*
D14*
X159004Y131445D03*
D17*
X159010Y131439D01*
X159010Y117475D02*
X159010Y113935D01*
X159010Y117475D02*
X159010Y131439D01*
X139954Y94879D02*
X139954Y72425D01*
X139954Y94879D02*
X159010Y113935D01*
D14*
X166648Y137946D03*
D17*
X159355Y137946D01*
X152654Y131245D01*
X152654Y124425D01*
D14*
X148526Y140208D03*
D17*
X144696Y136378D01*
X138033Y136378D01*
X127254Y125599D02*
X127254Y124425D01*
X127254Y125599D02*
X138033Y136378D01*
D20*
X165354Y127000D02*
X165354Y124425D01*
D14*
X171420Y141434D03*
D20*
X171420Y133066D01*
X165354Y127000D01*
D14*
X198438Y-122238D03*
D17*
X201613Y-125413D01*
X201613Y-136525D01*
D14*
X201613Y-136525D03*
D21*
X192088Y-152400D03*
D19*
X185738Y-152400D01*
X166688Y-133350D01*
D21*
X166688Y-133350D03*
D14*
X244094Y115888D03*
D17*
X244094Y100174D01*
D14*
X161925Y-144463D03*
D17*
X158207Y14288D02*
X244094Y100174D01*
X158207Y14288D02*
X148414Y14288D01*
X126286Y-7841D02*
X126286Y-15964D01*
X120650Y-21600D01*
X126286Y-7841D02*
X148414Y14288D01*
X156448Y-138986D02*
X161925Y-144463D01*
X156448Y-138986D02*
X147548Y-138986D01*
X120650Y-112087D02*
X120650Y-21600D01*
X120650Y-112087D02*
X147548Y-138986D01*
D14*
X149225Y-134938D03*
D17*
X165189Y-127873D02*
X175587Y-117475D01*
X156290Y-127873D02*
X149225Y-134938D01*
X156290Y-127873D02*
X165189Y-127873D01*
X175587Y-117475D02*
X241300Y-117475D01*
X252413Y-128588D01*
X265113Y-128588D01*
X308162Y-85538D01*
X308162Y-61454D01*
X308162Y-61454D01*
D14*
X163513Y-123825D03*
D17*
X173038Y-114300D01*
X264336Y-125413D02*
X298062Y-91687D01*
X242076Y-114300D02*
X173038Y-114300D01*
X242076Y-114300D02*
X253189Y-125413D01*
X264336Y-125413D01*
X298062Y-91687D02*
X298062Y-72567D01*
X297555Y-72060D01*
D14*
X122238Y106363D03*
D17*
X122238Y86821D01*
D14*
X109538Y1588D03*
X122238Y-14288D03*
D17*
X117475Y-19050D01*
X117475Y-119063D01*
X131763Y-133350D01*
D14*
X131763Y-133350D03*
D17*
X106624Y51514D02*
X111926Y56816D01*
X111926Y76509D01*
X106624Y4501D02*
X109538Y1588D01*
X111926Y76509D02*
X122238Y86821D01*
X106624Y51514D02*
X106624Y4501D01*
D14*
X228290Y111689D03*
D17*
X228290Y111205D01*
X235788Y103708D01*
X235788Y100850D01*
X155575Y20638D01*
X146050Y20638D01*
X85725Y-39688D01*
X85725Y-79375D01*
D14*
X85725Y-79375D03*
X220348Y119504D03*
D17*
X238582Y99693D02*
X156732Y17844D01*
X148019Y17844D01*
X224115Y115737D02*
X220348Y119504D01*
X224115Y115737D02*
X229967Y115737D01*
X238582Y107122D01*
X238582Y99693D01*
X148019Y17844D02*
X90488Y-39688D01*
X90488Y-74613D01*
D14*
X90488Y-74613D03*
X164836Y100320D03*
D17*
X146558Y84940D02*
X146558Y39307D01*
X161939Y100320D02*
X164836Y100320D01*
X161939Y100320D02*
X146558Y84940D01*
X146558Y39307D02*
X140589Y33338D01*
X138113Y33338D01*
D14*
X138113Y33338D03*
X152400Y6350D03*
D17*
X152400Y3104D01*
X141249Y-8896D02*
X135824Y-14320D01*
X141249Y-8047D02*
X152400Y3104D01*
X141249Y-8047D02*
X141249Y-8896D01*
X135824Y-14320D02*
X135824Y-38987D01*
X193106Y-96268D02*
X218868Y-96268D01*
X294118Y-21019D01*
X193106Y-96268D02*
X135824Y-38987D01*
X294118Y-21019D02*
X309182Y-21019D01*
X312738Y-17463D01*
D14*
X312738Y-17463D03*
X175006Y90170D03*
D17*
X161417Y34925D02*
X147638Y34925D01*
X161417Y34925D02*
X177530Y51038D01*
X177530Y87646D02*
X175006Y90170D01*
X177530Y87646D02*
X177530Y51038D01*
X147638Y34925D02*
X139700Y26988D01*
D14*
X139700Y26988D03*
X138113Y-3175D03*
D17*
X138113Y-7938D01*
X192088Y-100013D02*
X219075Y-100013D01*
X295275Y-23813D02*
X314325Y-23813D01*
X138113Y-7938D02*
X132636Y-13415D01*
X219075Y-100013D02*
X295275Y-23813D01*
D14*
X314325Y-23813D03*
D17*
X192088Y-100013D02*
X132636Y-40561D01*
X132636Y-13415D01*
D14*
X216027Y123698D03*
D17*
X216027Y116160D01*
X228499Y107045D02*
X232994Y102550D01*
X228499Y107045D02*
X225142Y107045D01*
X155859Y25416D02*
X144479Y25416D01*
X155859Y25416D02*
X232994Y102550D01*
X225142Y107045D02*
X216027Y116160D01*
X144479Y25416D02*
X128588Y9525D01*
X119063Y9525D01*
D14*
X119063Y9525D03*
X133350Y111125D03*
D17*
X133350Y93982D01*
D14*
X114300Y4763D03*
X128588Y-20638D03*
D17*
X114720Y55658D02*
X114720Y75352D01*
X114720Y55658D02*
X109538Y50476D01*
X109538Y9525D02*
X114300Y4763D01*
X114720Y75352D02*
X133350Y93982D01*
X109538Y50476D02*
X109538Y9525D01*
X191368Y-103907D02*
X191667Y-104206D01*
X191368Y-103907D02*
X128588Y-41126D01*
X128588Y-20638D01*
X262719Y-96598D02*
X273017Y-96598D01*
X262719Y-96598D02*
X255111Y-104206D01*
X276342Y-93273D02*
X276342Y-93273D01*
X273017Y-96598D01*
X254812Y-103907D02*
X191368Y-103907D01*
X254812Y-103907D02*
X255111Y-104206D01*
M02*
