G04 EAGLE Gerber RS-274X export*
G75*
%MOMM*%
%FSLAX34Y34*%
%LPD*%
%INCopper Layer 2*%
%IPPOS*%
%AMOC8*
5,1,8,0,0,1.08239X$1,22.5*%
G01*
%ADD10C,0.750000*%
%ADD11C,1.050000*%
%ADD12C,0.403200*%
%ADD13C,0.503200*%
%ADD14C,0.553200*%
%ADD15C,0.453200*%

G36*
X234356Y-226967D02*
X234356Y-226967D01*
X234361Y-226966D01*
X234365Y-226966D01*
X234525Y-226950D01*
X261978Y-222319D01*
X261982Y-222318D01*
X261986Y-222318D01*
X262143Y-222280D01*
X288733Y-214031D01*
X288737Y-214030D01*
X288741Y-214029D01*
X288891Y-213970D01*
X314145Y-202251D01*
X314149Y-202249D01*
X314153Y-202248D01*
X314294Y-202170D01*
X337760Y-187189D01*
X337763Y-187187D01*
X337767Y-187185D01*
X337897Y-187089D01*
X359157Y-169114D01*
X359160Y-169111D01*
X359164Y-169109D01*
X359279Y-168997D01*
X377954Y-148349D01*
X377956Y-148345D01*
X377960Y-148342D01*
X378059Y-148216D01*
X393815Y-125263D01*
X393817Y-125259D01*
X393820Y-125256D01*
X393901Y-125117D01*
X406458Y-100269D01*
X406459Y-100265D01*
X406462Y-100261D01*
X406524Y-100113D01*
X415656Y-73813D01*
X415657Y-73809D01*
X415659Y-73805D01*
X415701Y-73649D01*
X421246Y-46367D01*
X421247Y-46363D01*
X421248Y-46358D01*
X421269Y-46199D01*
X421336Y-45206D01*
X421420Y-43937D01*
X421421Y-43937D01*
X422270Y-31245D01*
X422270Y-31244D01*
X422355Y-29975D01*
X422440Y-28706D01*
X422525Y-27437D01*
X422525Y-27436D01*
X423129Y-18421D01*
X423128Y-18416D01*
X423129Y-18412D01*
X423129Y-18251D01*
X421269Y9527D01*
X421268Y9531D01*
X421268Y9536D01*
X421248Y9685D01*
X421248Y9689D01*
X421247Y9691D01*
X421246Y9695D01*
X415701Y36978D01*
X415700Y36982D01*
X415699Y36986D01*
X415656Y37141D01*
X406524Y63441D01*
X406522Y63445D01*
X406521Y63449D01*
X406458Y63597D01*
X393901Y88445D01*
X393899Y88449D01*
X393898Y88453D01*
X393815Y88591D01*
X389777Y94473D01*
X389713Y94545D01*
X389657Y94623D01*
X389608Y94664D01*
X389566Y94711D01*
X389486Y94765D01*
X389412Y94826D01*
X389355Y94853D01*
X389302Y94888D01*
X389211Y94921D01*
X389124Y94962D01*
X389062Y94974D01*
X389002Y94995D01*
X388906Y95003D01*
X388811Y95021D01*
X388749Y95018D01*
X388686Y95023D01*
X388590Y95008D01*
X388494Y95002D01*
X388434Y94982D01*
X388372Y94972D01*
X388283Y94933D01*
X388192Y94904D01*
X388138Y94870D01*
X388080Y94845D01*
X388004Y94785D01*
X387923Y94734D01*
X387880Y94688D01*
X387830Y94649D01*
X387771Y94572D01*
X387705Y94502D01*
X387674Y94447D01*
X387636Y94397D01*
X387598Y94308D01*
X387551Y94223D01*
X387536Y94162D01*
X387511Y94104D01*
X387496Y94009D01*
X387472Y93915D01*
X387465Y93809D01*
X387462Y93790D01*
X387463Y93779D01*
X387462Y93755D01*
X387462Y92301D01*
X385536Y90376D01*
X382814Y90376D01*
X380888Y92301D01*
X380888Y95024D01*
X382814Y96949D01*
X385667Y96949D01*
X385689Y96952D01*
X385712Y96950D01*
X385847Y96972D01*
X385982Y96989D01*
X386004Y96997D01*
X386026Y97001D01*
X386151Y97056D01*
X386278Y97106D01*
X386296Y97119D01*
X386317Y97129D01*
X386425Y97213D01*
X386535Y97293D01*
X386550Y97311D01*
X386568Y97325D01*
X386651Y97433D01*
X386738Y97538D01*
X386748Y97559D01*
X386762Y97577D01*
X386816Y97702D01*
X386874Y97826D01*
X386878Y97848D01*
X386887Y97869D01*
X386908Y98004D01*
X386934Y98138D01*
X386932Y98161D01*
X386936Y98183D01*
X386922Y98319D01*
X386914Y98455D01*
X386907Y98477D01*
X386905Y98500D01*
X386858Y98628D01*
X386816Y98758D01*
X386804Y98777D01*
X386796Y98799D01*
X386713Y98937D01*
X378059Y111544D01*
X378056Y111547D01*
X378054Y111551D01*
X377954Y111677D01*
X359279Y132325D01*
X359276Y132328D01*
X359273Y132331D01*
X359157Y132443D01*
X337897Y150417D01*
X337893Y150420D01*
X337890Y150423D01*
X337760Y150518D01*
X314294Y165498D01*
X314290Y165500D01*
X314286Y165503D01*
X314145Y165580D01*
X288891Y177299D01*
X288887Y177300D01*
X288883Y177302D01*
X288733Y177360D01*
X262143Y185608D01*
X262138Y185609D01*
X262134Y185611D01*
X261978Y185647D01*
X234525Y190278D01*
X234521Y190278D01*
X234517Y190280D01*
X234356Y190295D01*
X206532Y191225D01*
X206527Y191225D01*
X206523Y191226D01*
X206362Y191220D01*
X178662Y188433D01*
X178657Y188432D01*
X178653Y188432D01*
X178494Y188405D01*
X151412Y181951D01*
X151408Y181949D01*
X151404Y181949D01*
X151250Y181901D01*
X125270Y171895D01*
X125267Y171893D01*
X125262Y171891D01*
X125117Y171823D01*
X125000Y171759D01*
X122684Y170490D01*
X111103Y164144D01*
X108787Y162875D01*
X108787Y162874D01*
X106471Y161605D01*
X100702Y158444D01*
X100699Y158441D01*
X100694Y158440D01*
X100559Y158352D01*
X84778Y146725D01*
X84737Y146686D01*
X84692Y146655D01*
X84623Y146577D01*
X84547Y146505D01*
X84518Y146458D01*
X84481Y146417D01*
X84434Y146324D01*
X84379Y146236D01*
X84362Y146183D01*
X84337Y146134D01*
X84314Y146032D01*
X84282Y145933D01*
X84279Y145877D01*
X84267Y145823D01*
X84270Y145719D01*
X84264Y145615D01*
X84275Y145561D01*
X84277Y145505D01*
X84306Y145405D01*
X84326Y145303D01*
X84350Y145253D01*
X84365Y145200D01*
X84418Y145110D01*
X84463Y145016D01*
X84499Y144974D01*
X84527Y144926D01*
X84633Y144805D01*
X86853Y142585D01*
X86853Y139863D01*
X84927Y137937D01*
X82205Y137937D01*
X80279Y139863D01*
X80279Y140898D01*
X80274Y140942D01*
X80276Y140986D01*
X80254Y141099D01*
X80239Y141214D01*
X80223Y141255D01*
X80215Y141298D01*
X80165Y141402D01*
X80122Y141510D01*
X80097Y141545D01*
X80078Y141585D01*
X80003Y141674D01*
X79936Y141767D01*
X79902Y141795D01*
X79873Y141829D01*
X79780Y141896D01*
X79691Y141970D01*
X79651Y141989D01*
X79615Y142014D01*
X79507Y142056D01*
X79403Y142105D01*
X79360Y142114D01*
X79319Y142130D01*
X79204Y142143D01*
X79091Y142165D01*
X79047Y142162D01*
X79003Y142168D01*
X78888Y142153D01*
X78773Y142145D01*
X78731Y142132D01*
X78688Y142126D01*
X78581Y142083D01*
X78471Y142047D01*
X78433Y142024D01*
X78393Y142007D01*
X78257Y141920D01*
X78146Y141838D01*
X78142Y141835D01*
X78139Y141833D01*
X78105Y141804D01*
X78090Y141795D01*
X78075Y141779D01*
X78016Y141729D01*
X58004Y122374D01*
X58001Y122371D01*
X57998Y122368D01*
X57890Y122248D01*
X55171Y118805D01*
X55137Y118749D01*
X55096Y118699D01*
X55055Y118614D01*
X55007Y118533D01*
X54988Y118470D01*
X54960Y118411D01*
X54942Y118319D01*
X54915Y118228D01*
X54913Y118163D01*
X54900Y118099D01*
X54906Y118005D01*
X54902Y117910D01*
X54916Y117847D01*
X54920Y117782D01*
X54949Y117692D01*
X54969Y117599D01*
X54998Y117541D01*
X55018Y117479D01*
X55069Y117399D01*
X55111Y117315D01*
X55153Y117265D01*
X55188Y117210D01*
X55257Y117146D01*
X55319Y117074D01*
X55372Y117037D01*
X55420Y116992D01*
X55502Y116947D01*
X55580Y116893D01*
X55641Y116870D01*
X55698Y116839D01*
X55790Y116815D01*
X55878Y116783D01*
X55943Y116776D01*
X56006Y116759D01*
X56167Y116749D01*
X57235Y116749D01*
X59599Y114385D01*
X59599Y111040D01*
X57235Y108676D01*
X53890Y108676D01*
X51231Y111336D01*
X51182Y111402D01*
X51140Y111437D01*
X51105Y111478D01*
X51018Y111538D01*
X50937Y111605D01*
X50888Y111628D01*
X50843Y111659D01*
X50744Y111696D01*
X50649Y111741D01*
X50596Y111751D01*
X50545Y111770D01*
X50440Y111781D01*
X50337Y111801D01*
X50283Y111797D01*
X50229Y111803D01*
X50125Y111787D01*
X50020Y111781D01*
X49968Y111764D01*
X49914Y111756D01*
X49817Y111715D01*
X49717Y111683D01*
X49671Y111654D01*
X49621Y111633D01*
X49537Y111569D01*
X49448Y111513D01*
X49411Y111473D01*
X49368Y111440D01*
X49260Y111321D01*
X40636Y100399D01*
X40634Y100396D01*
X40631Y100393D01*
X40540Y100260D01*
X26352Y76306D01*
X26350Y76302D01*
X26348Y76298D01*
X26276Y76154D01*
X15407Y50523D01*
X15406Y50519D01*
X15404Y50515D01*
X15351Y50363D01*
X7996Y23512D01*
X7996Y23507D01*
X7994Y23503D01*
X7962Y23346D01*
X4252Y-4246D01*
X4252Y-4251D01*
X4251Y-4255D01*
X4240Y-4416D01*
X4240Y-32256D01*
X4241Y-32260D01*
X4240Y-32265D01*
X4252Y-32425D01*
X7962Y-60017D01*
X7964Y-60021D01*
X7964Y-60026D01*
X7996Y-60183D01*
X10095Y-67845D01*
X10153Y-67984D01*
X10207Y-68121D01*
X10213Y-68129D01*
X10217Y-68139D01*
X10306Y-68258D01*
X10393Y-68378D01*
X10401Y-68385D01*
X10408Y-68393D01*
X10524Y-68486D01*
X10536Y-68496D01*
X10529Y-68510D01*
X10527Y-68520D01*
X10522Y-68528D01*
X10490Y-68674D01*
X10455Y-68819D01*
X10455Y-68829D01*
X10453Y-68839D01*
X10457Y-68989D01*
X10459Y-69137D01*
X10462Y-69150D01*
X10462Y-69157D01*
X10466Y-69170D01*
X10492Y-69295D01*
X15351Y-87034D01*
X15353Y-87038D01*
X15354Y-87043D01*
X15407Y-87195D01*
X26276Y-112826D01*
X26278Y-112830D01*
X26279Y-112834D01*
X26352Y-112977D01*
X40540Y-136931D01*
X40543Y-136934D01*
X40544Y-136938D01*
X40636Y-137071D01*
X57890Y-158920D01*
X57893Y-158923D01*
X57895Y-158927D01*
X58004Y-159046D01*
X68898Y-169582D01*
X68945Y-169617D01*
X68987Y-169660D01*
X69072Y-169713D01*
X69153Y-169773D01*
X69207Y-169795D01*
X69258Y-169826D01*
X69354Y-169856D01*
X69447Y-169894D01*
X69505Y-169902D01*
X69562Y-169920D01*
X69662Y-169925D01*
X69761Y-169939D01*
X69820Y-169932D01*
X69879Y-169935D01*
X69978Y-169915D01*
X70078Y-169904D01*
X70133Y-169883D01*
X70191Y-169871D01*
X70281Y-169826D01*
X70375Y-169791D01*
X70423Y-169757D01*
X70477Y-169731D01*
X70553Y-169666D01*
X70635Y-169608D01*
X70674Y-169563D01*
X70719Y-169525D01*
X70776Y-169442D01*
X70842Y-169366D01*
X70868Y-169313D01*
X70902Y-169265D01*
X70937Y-169171D01*
X70981Y-169081D01*
X70993Y-169023D01*
X71014Y-168967D01*
X71026Y-168867D01*
X71046Y-168769D01*
X71043Y-168710D01*
X71050Y-168651D01*
X71036Y-168552D01*
X71031Y-168451D01*
X71014Y-168395D01*
X71005Y-168336D01*
X70953Y-168184D01*
X68833Y-163066D01*
X68833Y-157609D01*
X70921Y-152568D01*
X74780Y-148709D01*
X79822Y-146621D01*
X85278Y-146621D01*
X90320Y-148709D01*
X94179Y-152568D01*
X96267Y-157609D01*
X96267Y-163066D01*
X94179Y-168107D01*
X90320Y-171966D01*
X85278Y-174054D01*
X79822Y-174054D01*
X74967Y-172044D01*
X74890Y-172022D01*
X74816Y-171992D01*
X74737Y-171981D01*
X74661Y-171960D01*
X74580Y-171958D01*
X74501Y-171947D01*
X74422Y-171956D01*
X74343Y-171955D01*
X74264Y-171973D01*
X74185Y-171982D01*
X74111Y-172010D01*
X74033Y-172029D01*
X73962Y-172066D01*
X73887Y-172095D01*
X73822Y-172140D01*
X73752Y-172177D01*
X73693Y-172232D01*
X73627Y-172278D01*
X73576Y-172338D01*
X73517Y-172391D01*
X73473Y-172459D01*
X73421Y-172520D01*
X73386Y-172591D01*
X73342Y-172657D01*
X73316Y-172733D01*
X73281Y-172805D01*
X73265Y-172883D01*
X73239Y-172958D01*
X73233Y-173038D01*
X73216Y-173117D01*
X73220Y-173196D01*
X73214Y-173275D01*
X73228Y-173354D01*
X73231Y-173434D01*
X73255Y-173510D01*
X73268Y-173588D01*
X73301Y-173662D01*
X73325Y-173738D01*
X73366Y-173806D01*
X73399Y-173878D01*
X73449Y-173941D01*
X73491Y-174010D01*
X73596Y-174125D01*
X73597Y-174127D01*
X73598Y-174127D01*
X73599Y-174129D01*
X78016Y-178400D01*
X78020Y-178403D01*
X78022Y-178406D01*
X78146Y-178510D01*
X100559Y-195024D01*
X100563Y-195026D01*
X100566Y-195029D01*
X100702Y-195115D01*
X125117Y-208495D01*
X125121Y-208496D01*
X125124Y-208499D01*
X125270Y-208566D01*
X151251Y-218572D01*
X151255Y-218573D01*
X151259Y-218575D01*
X151412Y-218622D01*
X178494Y-225076D01*
X178499Y-225077D01*
X178503Y-225078D01*
X178662Y-225105D01*
X206362Y-227891D01*
X206366Y-227891D01*
X206371Y-227892D01*
X206532Y-227897D01*
X234356Y-226967D01*
G37*
%LPC*%
G36*
X195508Y-93994D02*
X195508Y-93994D01*
X192332Y-92210D01*
X192253Y-92178D01*
X192179Y-92137D01*
X192106Y-92119D01*
X192037Y-92090D01*
X191953Y-92079D01*
X191871Y-92058D01*
X191732Y-92049D01*
X191722Y-92048D01*
X191718Y-92048D01*
X191710Y-92047D01*
X191674Y-92047D01*
X191326Y-91699D01*
X191253Y-91642D01*
X191185Y-91578D01*
X191089Y-91515D01*
X191075Y-91504D01*
X191067Y-91501D01*
X191050Y-91490D01*
X190621Y-91249D01*
X190611Y-91215D01*
X190578Y-91136D01*
X190555Y-91055D01*
X190517Y-90991D01*
X190488Y-90922D01*
X190436Y-90854D01*
X190393Y-90781D01*
X190301Y-90676D01*
X190295Y-90669D01*
X190292Y-90666D01*
X190287Y-90660D01*
X140320Y-40694D01*
X140305Y-40681D01*
X140292Y-40666D01*
X140180Y-40584D01*
X140069Y-40499D01*
X140051Y-40491D01*
X140035Y-40479D01*
X139889Y-40411D01*
X139670Y-40324D01*
X139552Y-40051D01*
X139471Y-39914D01*
X139391Y-39779D01*
X139390Y-39778D01*
X139390Y-39777D01*
X139389Y-39776D01*
X139285Y-39658D01*
X139074Y-39447D01*
X139074Y-39212D01*
X139072Y-39192D01*
X139074Y-39173D01*
X139052Y-39035D01*
X139034Y-38896D01*
X139027Y-38878D01*
X139024Y-38858D01*
X138969Y-38707D01*
X137334Y-34934D01*
X136337Y-25234D01*
X138315Y-15686D01*
X143083Y-7180D01*
X146298Y-4166D01*
X146597Y-3886D01*
X146605Y-3876D01*
X146626Y-3857D01*
X151395Y912D01*
X151468Y1006D01*
X151547Y1095D01*
X151565Y1131D01*
X151590Y1163D01*
X151637Y1272D01*
X151691Y1378D01*
X151700Y1418D01*
X151716Y1455D01*
X151735Y1573D01*
X151761Y1689D01*
X151760Y1729D01*
X151766Y1769D01*
X151755Y1888D01*
X151751Y2006D01*
X151740Y2045D01*
X151736Y2086D01*
X151696Y2198D01*
X151663Y2312D01*
X151643Y2347D01*
X151629Y2385D01*
X151562Y2484D01*
X151502Y2586D01*
X151462Y2631D01*
X151450Y2648D01*
X151435Y2661D01*
X151395Y2707D01*
X149113Y4989D01*
X149113Y7711D01*
X151039Y9637D01*
X153761Y9637D01*
X156043Y7355D01*
X156137Y7282D01*
X156227Y7203D01*
X156263Y7185D01*
X156295Y7160D01*
X156404Y7113D01*
X156510Y7059D01*
X156549Y7050D01*
X156586Y7034D01*
X156704Y7015D01*
X156820Y6989D01*
X156860Y6990D01*
X156900Y6984D01*
X157019Y6995D01*
X157138Y6999D01*
X157177Y7010D01*
X157217Y7014D01*
X157329Y7054D01*
X157443Y7087D01*
X157478Y7107D01*
X157516Y7121D01*
X157615Y7188D01*
X157717Y7248D01*
X157763Y7288D01*
X157780Y7300D01*
X157793Y7315D01*
X157838Y7355D01*
X197967Y47483D01*
X199044Y48561D01*
X199045Y48561D01*
X199128Y48645D01*
X200122Y49639D01*
X200123Y49639D01*
X202432Y51949D01*
X210965Y56310D01*
X220425Y57834D01*
X229895Y56372D01*
X238455Y52066D01*
X240787Y49765D01*
X240828Y49733D01*
X241868Y48697D01*
X241870Y48696D01*
X241872Y48693D01*
X242880Y47699D01*
X242910Y47664D01*
X242922Y47648D01*
X242930Y47641D01*
X242946Y47624D01*
X257930Y32700D01*
X258039Y32616D01*
X258145Y32528D01*
X258165Y32518D01*
X258182Y32505D01*
X258309Y32451D01*
X258433Y32392D01*
X258454Y32388D01*
X258474Y32380D01*
X258611Y32358D01*
X258746Y32332D01*
X258767Y32334D01*
X258788Y32330D01*
X258926Y32344D01*
X259063Y32352D01*
X259083Y32359D01*
X259105Y32361D01*
X259235Y32408D01*
X259365Y32450D01*
X259384Y32462D01*
X259404Y32469D01*
X259518Y32547D01*
X259634Y32620D01*
X259649Y32636D01*
X259667Y32648D01*
X259757Y32751D01*
X259852Y32852D01*
X259862Y32871D01*
X259877Y32887D01*
X259939Y33010D01*
X260006Y33130D01*
X260011Y33151D01*
X260021Y33170D01*
X260051Y33305D01*
X260085Y33438D01*
X260087Y33468D01*
X260090Y33481D01*
X260089Y33502D01*
X260095Y33599D01*
X260095Y42046D01*
X260468Y42419D01*
X276869Y42419D01*
X277242Y42046D01*
X277242Y27232D01*
X276869Y26860D01*
X266867Y26860D01*
X266728Y26842D01*
X266588Y26829D01*
X266570Y26822D01*
X266551Y26820D01*
X266421Y26768D01*
X266289Y26721D01*
X266273Y26710D01*
X266256Y26703D01*
X266142Y26620D01*
X266026Y26541D01*
X266014Y26527D01*
X265998Y26516D01*
X265909Y26408D01*
X265816Y26303D01*
X265808Y26286D01*
X265796Y26271D01*
X265736Y26144D01*
X265672Y26019D01*
X265668Y26000D01*
X265660Y25983D01*
X265634Y25846D01*
X265603Y25709D01*
X265604Y25690D01*
X265600Y25671D01*
X265609Y25531D01*
X265614Y25391D01*
X265619Y25372D01*
X265620Y25354D01*
X265663Y25221D01*
X265703Y25085D01*
X265712Y25069D01*
X265718Y25051D01*
X265793Y24933D01*
X265865Y24812D01*
X265882Y24792D01*
X265888Y24782D01*
X265903Y24769D01*
X265971Y24691D01*
X279886Y10832D01*
X279958Y10777D01*
X280023Y10715D01*
X280043Y10703D01*
X280951Y9772D01*
X280956Y9768D01*
X280964Y9759D01*
X281890Y8837D01*
X281907Y8806D01*
X281988Y8712D01*
X281997Y8700D01*
X282003Y8696D01*
X282012Y8684D01*
X284078Y6567D01*
X288184Y-1334D01*
X289828Y-10085D01*
X288867Y-18937D01*
X285385Y-27132D01*
X283382Y-29532D01*
X283361Y-29566D01*
X283334Y-29594D01*
X283275Y-29699D01*
X283211Y-29800D01*
X283198Y-29837D01*
X283179Y-29872D01*
X283160Y-29943D01*
X282502Y-30595D01*
X282490Y-30612D01*
X282422Y-30683D01*
X281836Y-31385D01*
X281733Y-31445D01*
X281627Y-31498D01*
X281596Y-31525D01*
X281561Y-31546D01*
X281440Y-31652D01*
X253869Y-59090D01*
X253868Y-59091D01*
X253866Y-59093D01*
X226479Y-86538D01*
X226431Y-86600D01*
X226376Y-86655D01*
X226334Y-86725D01*
X226288Y-86785D01*
X225681Y-87355D01*
X225441Y-87580D01*
X225433Y-87590D01*
X225410Y-87610D01*
X224596Y-88428D01*
X224592Y-88430D01*
X224529Y-88476D01*
X224461Y-88513D01*
X224337Y-88615D01*
X224328Y-88624D01*
X222975Y-89893D01*
X222036Y-90774D01*
X213690Y-94674D01*
X204544Y-95784D01*
X195508Y-93994D01*
G37*
%LPD*%
%LPC*%
G36*
X256705Y-113589D02*
X256705Y-113589D01*
X256611Y-113516D01*
X256522Y-113437D01*
X256486Y-113419D01*
X256454Y-113394D01*
X256344Y-113347D01*
X256299Y-113324D01*
X256294Y-113305D01*
X256273Y-113270D01*
X256260Y-113232D01*
X256193Y-113133D01*
X256132Y-113031D01*
X256093Y-112986D01*
X256081Y-112969D01*
X256066Y-112955D01*
X256026Y-112910D01*
X250995Y-107879D01*
X251438Y-107582D01*
X252856Y-106995D01*
X254361Y-106696D01*
X255896Y-106696D01*
X257401Y-106995D01*
X257668Y-107106D01*
X257802Y-107143D01*
X257935Y-107183D01*
X257955Y-107184D01*
X257975Y-107190D01*
X258114Y-107192D01*
X258253Y-107199D01*
X258272Y-107195D01*
X258293Y-107195D01*
X258428Y-107162D01*
X258564Y-107134D01*
X258582Y-107125D01*
X258602Y-107121D01*
X258725Y-107056D01*
X258850Y-106995D01*
X258865Y-106981D01*
X258883Y-106972D01*
X258986Y-106879D01*
X259092Y-106788D01*
X259104Y-106772D01*
X259118Y-106758D01*
X259195Y-106642D01*
X259275Y-106528D01*
X259282Y-106509D01*
X259293Y-106492D01*
X259338Y-106361D01*
X259388Y-106231D01*
X259390Y-106211D01*
X259397Y-106192D01*
X259408Y-106053D01*
X259423Y-105915D01*
X259420Y-105895D01*
X259422Y-105875D01*
X259398Y-105738D01*
X259379Y-105600D01*
X259369Y-105573D01*
X259367Y-105561D01*
X259359Y-105543D01*
X259326Y-105448D01*
X259214Y-105177D01*
X259214Y-102583D01*
X260207Y-100186D01*
X262041Y-98352D01*
X264438Y-97359D01*
X267032Y-97359D01*
X268962Y-98159D01*
X269096Y-98195D01*
X269229Y-98236D01*
X269249Y-98237D01*
X269269Y-98242D01*
X269408Y-98245D01*
X269547Y-98251D01*
X269566Y-98247D01*
X269587Y-98248D01*
X269723Y-98215D01*
X269858Y-98187D01*
X269876Y-98178D01*
X269896Y-98173D01*
X270019Y-98108D01*
X270144Y-98047D01*
X270159Y-98034D01*
X270177Y-98025D01*
X270280Y-97931D01*
X270386Y-97841D01*
X270397Y-97824D01*
X270412Y-97811D01*
X270489Y-97694D01*
X270569Y-97581D01*
X270576Y-97562D01*
X270587Y-97545D01*
X270632Y-97413D01*
X270682Y-97284D01*
X270684Y-97263D01*
X270690Y-97244D01*
X270701Y-97106D01*
X270717Y-96967D01*
X270714Y-96947D01*
X270716Y-96927D01*
X270692Y-96790D01*
X270672Y-96653D01*
X270663Y-96626D01*
X270661Y-96614D01*
X270653Y-96595D01*
X270620Y-96500D01*
X269821Y-94570D01*
X269821Y-91976D01*
X270814Y-89580D01*
X272648Y-87745D01*
X275045Y-86753D01*
X277639Y-86753D01*
X279569Y-87552D01*
X279703Y-87589D01*
X279836Y-87630D01*
X279856Y-87631D01*
X279875Y-87636D01*
X280015Y-87638D01*
X280153Y-87645D01*
X280173Y-87641D01*
X280193Y-87641D01*
X280329Y-87608D01*
X280465Y-87580D01*
X280483Y-87572D01*
X280503Y-87567D01*
X280626Y-87502D01*
X280750Y-87441D01*
X280766Y-87428D01*
X280784Y-87418D01*
X280887Y-87325D01*
X280992Y-87234D01*
X281004Y-87218D01*
X281019Y-87204D01*
X281096Y-87088D01*
X281175Y-86974D01*
X281183Y-86955D01*
X281194Y-86938D01*
X281239Y-86807D01*
X281288Y-86677D01*
X281290Y-86657D01*
X281297Y-86638D01*
X281308Y-86499D01*
X281323Y-86361D01*
X281321Y-86341D01*
X281322Y-86321D01*
X281298Y-86183D01*
X281279Y-86046D01*
X281270Y-86019D01*
X281268Y-86007D01*
X281259Y-85989D01*
X281227Y-85894D01*
X280428Y-83964D01*
X280428Y-81370D01*
X281420Y-78973D01*
X283255Y-77139D01*
X285651Y-76146D01*
X288245Y-76146D01*
X290175Y-76945D01*
X290309Y-76982D01*
X290442Y-77023D01*
X290462Y-77024D01*
X290482Y-77029D01*
X290621Y-77032D01*
X290760Y-77038D01*
X290780Y-77034D01*
X290800Y-77034D01*
X290936Y-77002D01*
X291071Y-76974D01*
X291089Y-76965D01*
X291109Y-76960D01*
X291232Y-76895D01*
X291357Y-76834D01*
X291372Y-76821D01*
X291390Y-76811D01*
X291493Y-76718D01*
X291599Y-76628D01*
X291611Y-76611D01*
X291626Y-76598D01*
X291702Y-76481D01*
X291782Y-76368D01*
X291789Y-76349D01*
X291800Y-76332D01*
X291846Y-76200D01*
X291895Y-76070D01*
X291897Y-76050D01*
X291904Y-76031D01*
X291915Y-75892D01*
X291930Y-75754D01*
X291927Y-75734D01*
X291929Y-75714D01*
X291905Y-75577D01*
X291886Y-75439D01*
X291877Y-75413D01*
X291874Y-75401D01*
X291866Y-75382D01*
X291834Y-75287D01*
X291034Y-73357D01*
X291034Y-70763D01*
X292027Y-68366D01*
X293861Y-66532D01*
X296258Y-65539D01*
X298852Y-65539D01*
X300782Y-66339D01*
X300916Y-66375D01*
X301049Y-66416D01*
X301069Y-66417D01*
X301089Y-66423D01*
X301228Y-66425D01*
X301366Y-66432D01*
X301386Y-66427D01*
X301407Y-66428D01*
X301542Y-66395D01*
X301678Y-66367D01*
X301696Y-66358D01*
X301716Y-66354D01*
X301839Y-66289D01*
X301964Y-66228D01*
X301979Y-66214D01*
X301997Y-66205D01*
X302099Y-66112D01*
X302206Y-66021D01*
X302217Y-66005D01*
X302232Y-65991D01*
X302309Y-65875D01*
X302389Y-65761D01*
X302396Y-65742D01*
X302407Y-65725D01*
X302452Y-65594D01*
X302501Y-65464D01*
X302504Y-65444D01*
X302510Y-65424D01*
X302521Y-65286D01*
X302537Y-65148D01*
X302534Y-65128D01*
X302535Y-65107D01*
X302512Y-64970D01*
X302492Y-64833D01*
X302483Y-64806D01*
X302481Y-64794D01*
X302473Y-64775D01*
X302440Y-64680D01*
X301641Y-62751D01*
X301641Y-60156D01*
X302634Y-57760D01*
X304468Y-55925D01*
X306864Y-54933D01*
X309459Y-54933D01*
X311855Y-55925D01*
X313690Y-57760D01*
X314682Y-60156D01*
X314682Y-62751D01*
X313690Y-65147D01*
X311855Y-66982D01*
X309459Y-67974D01*
X306864Y-67974D01*
X304935Y-67175D01*
X304801Y-67138D01*
X304668Y-67097D01*
X304647Y-67096D01*
X304628Y-67091D01*
X304489Y-67089D01*
X304350Y-67082D01*
X304330Y-67086D01*
X304310Y-67086D01*
X304174Y-67118D01*
X304039Y-67146D01*
X304020Y-67155D01*
X304001Y-67160D01*
X303878Y-67225D01*
X303753Y-67286D01*
X303737Y-67299D01*
X303720Y-67309D01*
X303617Y-67402D01*
X303511Y-67493D01*
X303499Y-67509D01*
X303484Y-67523D01*
X303408Y-67639D01*
X303328Y-67753D01*
X303321Y-67772D01*
X303309Y-67788D01*
X303264Y-67920D01*
X303215Y-68050D01*
X303213Y-68070D01*
X303206Y-68089D01*
X303195Y-68228D01*
X303180Y-68366D01*
X303183Y-68386D01*
X303181Y-68406D01*
X303205Y-68543D01*
X303224Y-68681D01*
X303233Y-68708D01*
X303235Y-68720D01*
X303244Y-68738D01*
X303276Y-68833D01*
X304076Y-70763D01*
X304076Y-73357D01*
X303083Y-75754D01*
X301249Y-77588D01*
X298852Y-78581D01*
X296258Y-78581D01*
X294328Y-77782D01*
X294194Y-77745D01*
X294061Y-77704D01*
X294041Y-77703D01*
X294021Y-77698D01*
X293882Y-77695D01*
X293743Y-77689D01*
X293724Y-77693D01*
X293703Y-77693D01*
X293567Y-77725D01*
X293432Y-77753D01*
X293414Y-77762D01*
X293394Y-77767D01*
X293271Y-77832D01*
X293146Y-77893D01*
X293131Y-77906D01*
X293113Y-77915D01*
X293010Y-78009D01*
X292904Y-78099D01*
X292893Y-78116D01*
X292878Y-78129D01*
X292801Y-78246D01*
X292721Y-78359D01*
X292714Y-78378D01*
X292703Y-78395D01*
X292658Y-78527D01*
X292608Y-78657D01*
X292606Y-78677D01*
X292600Y-78696D01*
X292589Y-78834D01*
X292573Y-78973D01*
X292576Y-78993D01*
X292574Y-79013D01*
X292598Y-79150D01*
X292618Y-79288D01*
X292627Y-79314D01*
X292629Y-79326D01*
X292637Y-79345D01*
X292670Y-79440D01*
X293469Y-81370D01*
X293469Y-83964D01*
X292476Y-86360D01*
X290642Y-88195D01*
X288245Y-89187D01*
X285651Y-89187D01*
X283721Y-88388D01*
X283587Y-88351D01*
X283455Y-88311D01*
X283434Y-88310D01*
X283415Y-88304D01*
X283275Y-88302D01*
X283137Y-88295D01*
X283117Y-88299D01*
X283097Y-88299D01*
X282961Y-88332D01*
X282825Y-88360D01*
X282807Y-88369D01*
X282788Y-88373D01*
X282665Y-88438D01*
X282540Y-88499D01*
X282524Y-88513D01*
X282506Y-88522D01*
X282404Y-88615D01*
X282298Y-88706D01*
X282286Y-88722D01*
X282271Y-88736D01*
X282194Y-88852D01*
X282115Y-88966D01*
X282107Y-88985D01*
X282096Y-89002D01*
X282051Y-89133D01*
X282002Y-89263D01*
X282000Y-89283D01*
X281993Y-89302D01*
X281982Y-89441D01*
X281967Y-89579D01*
X281969Y-89599D01*
X281968Y-89619D01*
X281992Y-89757D01*
X282011Y-89894D01*
X282020Y-89921D01*
X282022Y-89933D01*
X282031Y-89952D01*
X282063Y-90046D01*
X282862Y-91976D01*
X282862Y-94570D01*
X281870Y-96967D01*
X280035Y-98801D01*
X277639Y-99794D01*
X275045Y-99794D01*
X273115Y-98995D01*
X272981Y-98958D01*
X272848Y-98917D01*
X272828Y-98916D01*
X272808Y-98911D01*
X272669Y-98909D01*
X272530Y-98902D01*
X272511Y-98906D01*
X272490Y-98906D01*
X272354Y-98938D01*
X272219Y-98966D01*
X272201Y-98975D01*
X272181Y-98980D01*
X272058Y-99045D01*
X271933Y-99106D01*
X271918Y-99119D01*
X271900Y-99129D01*
X271797Y-99222D01*
X271691Y-99312D01*
X271679Y-99329D01*
X271664Y-99343D01*
X271588Y-99459D01*
X271508Y-99572D01*
X271501Y-99591D01*
X271490Y-99608D01*
X271445Y-99740D01*
X271395Y-99870D01*
X271393Y-99890D01*
X271386Y-99909D01*
X271375Y-100048D01*
X271360Y-100186D01*
X271363Y-100206D01*
X271361Y-100226D01*
X271385Y-100363D01*
X271404Y-100501D01*
X271414Y-100527D01*
X271416Y-100539D01*
X271424Y-100558D01*
X271457Y-100653D01*
X272256Y-102583D01*
X272256Y-105177D01*
X271263Y-107574D01*
X269429Y-109408D01*
X267032Y-110401D01*
X264438Y-110401D01*
X264168Y-110289D01*
X264034Y-110252D01*
X263901Y-110211D01*
X263880Y-110210D01*
X263861Y-110205D01*
X263722Y-110202D01*
X263583Y-110196D01*
X263563Y-110200D01*
X263543Y-110200D01*
X263407Y-110232D01*
X263271Y-110260D01*
X263253Y-110269D01*
X263234Y-110274D01*
X263111Y-110339D01*
X262986Y-110400D01*
X262970Y-110413D01*
X262952Y-110423D01*
X262849Y-110516D01*
X262744Y-110606D01*
X262732Y-110623D01*
X262717Y-110636D01*
X262641Y-110752D01*
X262561Y-110866D01*
X262553Y-110885D01*
X262542Y-110902D01*
X262497Y-111034D01*
X262448Y-111164D01*
X262446Y-111184D01*
X262439Y-111203D01*
X262428Y-111342D01*
X262413Y-111480D01*
X262416Y-111500D01*
X262414Y-111520D01*
X262438Y-111657D01*
X262457Y-111795D01*
X262466Y-111821D01*
X262468Y-111833D01*
X262477Y-111852D01*
X262509Y-111947D01*
X262620Y-112214D01*
X262919Y-113719D01*
X262919Y-115254D01*
X262620Y-116759D01*
X262033Y-118177D01*
X261736Y-118620D01*
X256705Y-113589D01*
G37*
%LPD*%
%LPC*%
G36*
X219522Y159321D02*
X219522Y159321D01*
X214480Y161409D01*
X210621Y165268D01*
X208533Y170309D01*
X208533Y175766D01*
X210621Y180807D01*
X214480Y184666D01*
X219522Y186754D01*
X224978Y186754D01*
X230020Y184666D01*
X233879Y180807D01*
X235967Y175766D01*
X235967Y170309D01*
X233879Y165268D01*
X230020Y161409D01*
X224978Y159321D01*
X219522Y159321D01*
G37*
%LPD*%
%LPC*%
G36*
X395734Y5333D02*
X395734Y5333D01*
X390693Y7421D01*
X386834Y11280D01*
X384746Y16322D01*
X384746Y21778D01*
X386834Y26820D01*
X390693Y30679D01*
X395734Y32767D01*
X401191Y32767D01*
X406232Y30679D01*
X410091Y26820D01*
X412179Y21778D01*
X412179Y16322D01*
X410091Y11280D01*
X406232Y7421D01*
X401191Y5333D01*
X395734Y5333D01*
G37*
%LPD*%
%LPC*%
G36*
X260468Y132460D02*
X260468Y132460D01*
X260095Y132833D01*
X260095Y149234D01*
X260468Y149607D01*
X276869Y149607D01*
X277242Y149234D01*
X277242Y132833D01*
X276869Y132460D01*
X260468Y132460D01*
G37*
%LPD*%
%LPC*%
G36*
X297604Y112140D02*
X297604Y112140D01*
X297306Y112438D01*
X297306Y125780D01*
X297604Y126078D01*
X311234Y126078D01*
X311532Y125780D01*
X311532Y112438D01*
X311234Y112140D01*
X297604Y112140D01*
G37*
%LPD*%
%LPC*%
G36*
X218986Y116218D02*
X218986Y116218D01*
X217061Y118143D01*
X217061Y119142D01*
X217046Y119260D01*
X217039Y119379D01*
X217026Y119417D01*
X217021Y119458D01*
X216977Y119568D01*
X216941Y119681D01*
X216919Y119716D01*
X216904Y119753D01*
X216834Y119849D01*
X216770Y119950D01*
X216741Y119978D01*
X216717Y120011D01*
X216625Y120087D01*
X216539Y120168D01*
X216503Y120188D01*
X216472Y120213D01*
X216365Y120264D01*
X216260Y120322D01*
X216221Y120332D01*
X216184Y120349D01*
X216068Y120371D01*
X215952Y120401D01*
X215892Y120405D01*
X215872Y120409D01*
X215852Y120407D01*
X215792Y120411D01*
X214666Y120411D01*
X212740Y122337D01*
X212740Y123968D01*
X212725Y124086D01*
X212718Y124205D01*
X212705Y124243D01*
X212700Y124284D01*
X212657Y124394D01*
X212620Y124507D01*
X212598Y124542D01*
X212583Y124579D01*
X212514Y124675D01*
X212450Y124776D01*
X212420Y124804D01*
X212397Y124837D01*
X212305Y124913D01*
X212218Y124994D01*
X212183Y125014D01*
X212152Y125039D01*
X212044Y125090D01*
X211940Y125148D01*
X211900Y125158D01*
X211864Y125175D01*
X211747Y125197D01*
X211632Y125227D01*
X211572Y125231D01*
X211552Y125235D01*
X211531Y125233D01*
X211471Y125237D01*
X209967Y125237D01*
X208041Y127163D01*
X208041Y128794D01*
X208026Y128912D01*
X208019Y129031D01*
X208006Y129069D01*
X208001Y129110D01*
X207958Y129220D01*
X207921Y129333D01*
X207899Y129368D01*
X207884Y129405D01*
X207815Y129501D01*
X207751Y129602D01*
X207721Y129630D01*
X207698Y129663D01*
X207606Y129739D01*
X207519Y129820D01*
X207484Y129840D01*
X207453Y129865D01*
X207345Y129916D01*
X207241Y129974D01*
X207201Y129984D01*
X207165Y130001D01*
X207048Y130023D01*
X206933Y130053D01*
X206873Y130057D01*
X206853Y130061D01*
X206832Y130059D01*
X206772Y130063D01*
X205014Y130063D01*
X203088Y131989D01*
X203088Y134711D01*
X205014Y136637D01*
X207736Y136637D01*
X209662Y134711D01*
X209662Y133080D01*
X209677Y132962D01*
X209684Y132843D01*
X209697Y132805D01*
X209702Y132764D01*
X209745Y132654D01*
X209782Y132541D01*
X209804Y132506D01*
X209819Y132469D01*
X209888Y132373D01*
X209952Y132272D01*
X209982Y132244D01*
X210005Y132211D01*
X210097Y132135D01*
X210184Y132054D01*
X210219Y132034D01*
X210250Y132009D01*
X210358Y131958D01*
X210462Y131900D01*
X210502Y131890D01*
X210538Y131873D01*
X210655Y131851D01*
X210770Y131821D01*
X210830Y131817D01*
X210850Y131813D01*
X210871Y131815D01*
X210931Y131811D01*
X212689Y131811D01*
X214615Y129885D01*
X214615Y128254D01*
X214630Y128136D01*
X214637Y128017D01*
X214650Y127979D01*
X214655Y127938D01*
X214698Y127828D01*
X214735Y127715D01*
X214757Y127680D01*
X214772Y127643D01*
X214841Y127547D01*
X214905Y127446D01*
X214935Y127418D01*
X214958Y127385D01*
X215050Y127309D01*
X215137Y127228D01*
X215172Y127208D01*
X215203Y127183D01*
X215311Y127132D01*
X215415Y127074D01*
X215455Y127064D01*
X215491Y127047D01*
X215608Y127025D01*
X215723Y126995D01*
X215783Y126991D01*
X215803Y126987D01*
X215824Y126989D01*
X215884Y126985D01*
X217388Y126985D01*
X219314Y125059D01*
X219314Y124060D01*
X219329Y123942D01*
X219336Y123823D01*
X219349Y123785D01*
X219354Y123745D01*
X219397Y123634D01*
X219434Y123521D01*
X219456Y123487D01*
X219471Y123449D01*
X219540Y123353D01*
X219604Y123252D01*
X219634Y123225D01*
X219657Y123192D01*
X219749Y123116D01*
X219836Y123034D01*
X219871Y123015D01*
X219902Y122989D01*
X220010Y122938D01*
X220114Y122881D01*
X220154Y122871D01*
X220190Y122853D01*
X220307Y122831D01*
X220422Y122801D01*
X220482Y122798D01*
X220502Y122794D01*
X220523Y122795D01*
X220583Y122791D01*
X221709Y122791D01*
X223634Y120866D01*
X223634Y118143D01*
X221709Y116218D01*
X218986Y116218D01*
G37*
%LPD*%
%LPC*%
G36*
X44676Y-81074D02*
X44676Y-81074D01*
X42751Y-79149D01*
X42751Y-76493D01*
X42736Y-76375D01*
X42728Y-76257D01*
X42716Y-76218D01*
X42711Y-76178D01*
X42667Y-76067D01*
X42630Y-75954D01*
X42609Y-75920D01*
X42594Y-75882D01*
X42524Y-75786D01*
X42460Y-75685D01*
X42431Y-75658D01*
X42407Y-75625D01*
X42315Y-75549D01*
X42229Y-75467D01*
X42193Y-75448D01*
X42162Y-75422D01*
X42054Y-75371D01*
X41950Y-75314D01*
X41911Y-75304D01*
X41874Y-75287D01*
X41758Y-75264D01*
X41642Y-75234D01*
X41582Y-75231D01*
X41562Y-75227D01*
X41542Y-75228D01*
X41482Y-75224D01*
X41294Y-75224D01*
X39076Y-73006D01*
X39076Y-69869D01*
X40932Y-68013D01*
X41005Y-67919D01*
X41084Y-67829D01*
X41102Y-67793D01*
X41127Y-67761D01*
X41174Y-67652D01*
X41228Y-67546D01*
X41237Y-67507D01*
X41253Y-67470D01*
X41272Y-67352D01*
X41298Y-67236D01*
X41297Y-67195D01*
X41303Y-67155D01*
X41292Y-67037D01*
X41288Y-66918D01*
X41277Y-66879D01*
X41273Y-66839D01*
X41233Y-66727D01*
X41200Y-66612D01*
X41180Y-66578D01*
X41166Y-66540D01*
X41099Y-66441D01*
X41038Y-66339D01*
X40999Y-66293D01*
X40987Y-66276D01*
X40972Y-66263D01*
X40932Y-66218D01*
X39576Y-64861D01*
X39576Y-62139D01*
X41501Y-60213D01*
X44224Y-60213D01*
X46149Y-62139D01*
X46149Y-64861D01*
X44793Y-66218D01*
X44720Y-66312D01*
X44641Y-66401D01*
X44623Y-66437D01*
X44598Y-66469D01*
X44551Y-66578D01*
X44497Y-66684D01*
X44488Y-66724D01*
X44472Y-66761D01*
X44453Y-66879D01*
X44427Y-66995D01*
X44428Y-67035D01*
X44422Y-67075D01*
X44433Y-67194D01*
X44437Y-67312D01*
X44448Y-67351D01*
X44452Y-67392D01*
X44492Y-67504D01*
X44525Y-67618D01*
X44545Y-67653D01*
X44559Y-67691D01*
X44626Y-67790D01*
X44687Y-67892D01*
X44726Y-67937D01*
X44738Y-67954D01*
X44753Y-67967D01*
X44793Y-68013D01*
X46649Y-69869D01*
X46649Y-73232D01*
X46664Y-73350D01*
X46672Y-73468D01*
X46684Y-73507D01*
X46689Y-73547D01*
X46733Y-73658D01*
X46770Y-73771D01*
X46791Y-73805D01*
X46806Y-73843D01*
X46876Y-73939D01*
X46940Y-74040D01*
X46969Y-74067D01*
X46993Y-74100D01*
X47025Y-74127D01*
X47027Y-74129D01*
X49324Y-76426D01*
X49324Y-79149D01*
X47399Y-81074D01*
X44676Y-81074D01*
G37*
%LPD*%
%LPC*%
G36*
X25082Y-58106D02*
X25082Y-58106D01*
X25067Y-57988D01*
X25060Y-57869D01*
X25047Y-57831D01*
X25042Y-57790D01*
X24998Y-57680D01*
X24962Y-57567D01*
X24940Y-57532D01*
X24925Y-57495D01*
X24855Y-57399D01*
X24791Y-57298D01*
X24762Y-57270D01*
X24738Y-57237D01*
X24646Y-57162D01*
X24560Y-57080D01*
X24524Y-57060D01*
X24493Y-57035D01*
X24386Y-56984D01*
X24281Y-56926D01*
X24242Y-56916D01*
X24205Y-56899D01*
X24089Y-56877D01*
X23973Y-56847D01*
X23913Y-56843D01*
X23893Y-56839D01*
X23873Y-56841D01*
X23813Y-56837D01*
X23812Y-56837D01*
X23694Y-56852D01*
X23575Y-56859D01*
X23537Y-56872D01*
X23497Y-56877D01*
X23386Y-56920D01*
X23273Y-56957D01*
X23239Y-56979D01*
X23201Y-56994D01*
X23105Y-57063D01*
X23004Y-57127D01*
X22976Y-57157D01*
X22944Y-57180D01*
X22868Y-57272D01*
X22786Y-57359D01*
X22767Y-57394D01*
X22741Y-57425D01*
X22690Y-57533D01*
X22633Y-57637D01*
X22623Y-57677D01*
X22605Y-57713D01*
X22583Y-57830D01*
X22553Y-57945D01*
X22549Y-58005D01*
X22546Y-58025D01*
X22547Y-58046D01*
X22543Y-58106D01*
X22543Y-58211D01*
X21977Y-58099D01*
X20833Y-57625D01*
X19802Y-56936D01*
X18926Y-56060D01*
X18238Y-55030D01*
X17764Y-53885D01*
X17651Y-53319D01*
X17757Y-53319D01*
X17875Y-53304D01*
X17993Y-53297D01*
X18032Y-53285D01*
X18072Y-53280D01*
X18183Y-53236D01*
X18296Y-53199D01*
X18330Y-53177D01*
X18368Y-53163D01*
X18464Y-53093D01*
X18565Y-53029D01*
X18592Y-52999D01*
X18625Y-52976D01*
X18701Y-52884D01*
X18783Y-52797D01*
X18802Y-52762D01*
X18828Y-52731D01*
X18879Y-52623D01*
X18936Y-52519D01*
X18946Y-52480D01*
X18963Y-52443D01*
X18986Y-52326D01*
X19016Y-52211D01*
X19019Y-52151D01*
X19023Y-52131D01*
X19023Y-52130D01*
X19022Y-52110D01*
X19026Y-52050D01*
X19011Y-51932D01*
X19003Y-51813D01*
X18991Y-51774D01*
X18986Y-51734D01*
X18942Y-51624D01*
X18905Y-51510D01*
X18884Y-51476D01*
X18869Y-51439D01*
X18799Y-51342D01*
X18735Y-51242D01*
X18706Y-51214D01*
X18682Y-51181D01*
X18590Y-51105D01*
X18504Y-51024D01*
X18468Y-51004D01*
X18437Y-50978D01*
X18329Y-50928D01*
X18225Y-50870D01*
X18186Y-50860D01*
X18149Y-50843D01*
X18033Y-50821D01*
X17917Y-50791D01*
X17857Y-50787D01*
X17837Y-50783D01*
X17817Y-50784D01*
X17757Y-50781D01*
X17651Y-50781D01*
X17764Y-50215D01*
X18238Y-49070D01*
X18926Y-48040D01*
X19802Y-47164D01*
X20833Y-46475D01*
X21977Y-46001D01*
X22543Y-45889D01*
X22543Y-45994D01*
X22558Y-46112D01*
X22565Y-46231D01*
X22578Y-46269D01*
X22583Y-46310D01*
X22627Y-46420D01*
X22663Y-46533D01*
X22685Y-46568D01*
X22700Y-46605D01*
X22770Y-46701D01*
X22834Y-46802D01*
X22863Y-46830D01*
X22887Y-46863D01*
X22979Y-46939D01*
X23065Y-47020D01*
X23101Y-47040D01*
X23132Y-47065D01*
X23239Y-47116D01*
X23344Y-47174D01*
X23383Y-47184D01*
X23419Y-47201D01*
X23536Y-47223D01*
X23652Y-47253D01*
X23712Y-47257D01*
X23732Y-47261D01*
X23752Y-47259D01*
X23812Y-47263D01*
X23813Y-47263D01*
X23931Y-47248D01*
X24050Y-47241D01*
X24088Y-47228D01*
X24128Y-47223D01*
X24239Y-47180D01*
X24352Y-47143D01*
X24386Y-47121D01*
X24424Y-47106D01*
X24520Y-47037D01*
X24621Y-46973D01*
X24648Y-46943D01*
X24681Y-46920D01*
X24757Y-46828D01*
X24839Y-46741D01*
X24858Y-46706D01*
X24884Y-46675D01*
X24935Y-46567D01*
X24992Y-46463D01*
X25002Y-46423D01*
X25020Y-46387D01*
X25042Y-46270D01*
X25072Y-46155D01*
X25075Y-46095D01*
X25079Y-46075D01*
X25078Y-46054D01*
X25082Y-45994D01*
X25082Y-45889D01*
X25648Y-46001D01*
X26792Y-46475D01*
X27823Y-47164D01*
X28699Y-48040D01*
X29387Y-49070D01*
X29861Y-50215D01*
X29974Y-50781D01*
X29868Y-50781D01*
X29750Y-50796D01*
X29632Y-50803D01*
X29593Y-50815D01*
X29553Y-50820D01*
X29442Y-50864D01*
X29329Y-50901D01*
X29295Y-50923D01*
X29257Y-50937D01*
X29161Y-51007D01*
X29060Y-51071D01*
X29033Y-51101D01*
X29000Y-51124D01*
X28924Y-51216D01*
X28842Y-51303D01*
X28823Y-51338D01*
X28797Y-51369D01*
X28746Y-51477D01*
X28689Y-51581D01*
X28679Y-51620D01*
X28662Y-51657D01*
X28639Y-51774D01*
X28609Y-51889D01*
X28606Y-51949D01*
X28602Y-51969D01*
X28602Y-51970D01*
X28603Y-51990D01*
X28599Y-52050D01*
X28614Y-52168D01*
X28622Y-52287D01*
X28634Y-52325D01*
X28639Y-52366D01*
X28683Y-52476D01*
X28720Y-52590D01*
X28741Y-52624D01*
X28756Y-52661D01*
X28826Y-52758D01*
X28890Y-52858D01*
X28919Y-52886D01*
X28943Y-52919D01*
X29035Y-52995D01*
X29121Y-53076D01*
X29157Y-53096D01*
X29188Y-53122D01*
X29296Y-53172D01*
X29400Y-53230D01*
X29439Y-53240D01*
X29476Y-53257D01*
X29592Y-53279D01*
X29708Y-53309D01*
X29768Y-53313D01*
X29788Y-53317D01*
X29808Y-53316D01*
X29868Y-53319D01*
X29974Y-53319D01*
X29861Y-53885D01*
X29387Y-55030D01*
X28699Y-56060D01*
X27823Y-56936D01*
X26792Y-57625D01*
X25648Y-58099D01*
X25082Y-58211D01*
X25082Y-58106D01*
G37*
%LPD*%
%LPC*%
G36*
X25082Y7894D02*
X25082Y7894D01*
X25067Y8012D01*
X25060Y8131D01*
X25047Y8169D01*
X25042Y8210D01*
X24998Y8320D01*
X24962Y8433D01*
X24940Y8468D01*
X24925Y8505D01*
X24855Y8601D01*
X24791Y8702D01*
X24762Y8730D01*
X24738Y8763D01*
X24646Y8839D01*
X24560Y8920D01*
X24524Y8940D01*
X24493Y8965D01*
X24386Y9016D01*
X24281Y9074D01*
X24242Y9084D01*
X24205Y9101D01*
X24089Y9123D01*
X23973Y9153D01*
X23913Y9157D01*
X23893Y9161D01*
X23873Y9159D01*
X23813Y9163D01*
X23812Y9163D01*
X23694Y9148D01*
X23575Y9141D01*
X23537Y9128D01*
X23497Y9123D01*
X23386Y9080D01*
X23273Y9043D01*
X23239Y9021D01*
X23201Y9006D01*
X23105Y8937D01*
X23004Y8873D01*
X22976Y8843D01*
X22944Y8820D01*
X22868Y8728D01*
X22786Y8641D01*
X22767Y8606D01*
X22741Y8575D01*
X22690Y8467D01*
X22633Y8363D01*
X22623Y8323D01*
X22605Y8287D01*
X22583Y8170D01*
X22553Y8055D01*
X22549Y7995D01*
X22546Y7975D01*
X22547Y7954D01*
X22543Y7894D01*
X22543Y7789D01*
X21977Y7901D01*
X20833Y8375D01*
X19802Y9064D01*
X18926Y9940D01*
X18238Y10970D01*
X17764Y12115D01*
X17651Y12681D01*
X17757Y12681D01*
X17875Y12696D01*
X17993Y12703D01*
X18032Y12715D01*
X18072Y12720D01*
X18183Y12764D01*
X18296Y12801D01*
X18330Y12823D01*
X18368Y12837D01*
X18464Y12907D01*
X18565Y12971D01*
X18592Y13001D01*
X18625Y13024D01*
X18701Y13116D01*
X18783Y13203D01*
X18802Y13238D01*
X18828Y13269D01*
X18879Y13377D01*
X18936Y13481D01*
X18946Y13520D01*
X18963Y13557D01*
X18986Y13674D01*
X19016Y13789D01*
X19019Y13849D01*
X19023Y13869D01*
X19023Y13870D01*
X19022Y13890D01*
X19026Y13950D01*
X19011Y14068D01*
X19003Y14187D01*
X18991Y14225D01*
X18986Y14266D01*
X18942Y14376D01*
X18905Y14490D01*
X18884Y14524D01*
X18869Y14561D01*
X18799Y14658D01*
X18735Y14758D01*
X18706Y14786D01*
X18682Y14819D01*
X18590Y14895D01*
X18504Y14976D01*
X18468Y14996D01*
X18437Y15022D01*
X18329Y15072D01*
X18225Y15130D01*
X18186Y15140D01*
X18149Y15157D01*
X18033Y15179D01*
X17917Y15209D01*
X17857Y15213D01*
X17837Y15217D01*
X17817Y15216D01*
X17757Y15219D01*
X17651Y15219D01*
X17764Y15785D01*
X18238Y16930D01*
X18926Y17960D01*
X19802Y18836D01*
X20833Y19525D01*
X21977Y19999D01*
X22543Y20111D01*
X22543Y20006D01*
X22558Y19888D01*
X22565Y19769D01*
X22578Y19731D01*
X22583Y19690D01*
X22627Y19580D01*
X22663Y19467D01*
X22685Y19432D01*
X22700Y19395D01*
X22770Y19299D01*
X22834Y19198D01*
X22863Y19170D01*
X22887Y19137D01*
X22979Y19061D01*
X23065Y18980D01*
X23101Y18960D01*
X23132Y18935D01*
X23239Y18884D01*
X23344Y18826D01*
X23383Y18816D01*
X23419Y18799D01*
X23536Y18777D01*
X23652Y18747D01*
X23712Y18743D01*
X23732Y18739D01*
X23752Y18741D01*
X23812Y18737D01*
X23813Y18737D01*
X23931Y18752D01*
X24050Y18759D01*
X24088Y18772D01*
X24128Y18777D01*
X24239Y18820D01*
X24352Y18857D01*
X24386Y18879D01*
X24424Y18894D01*
X24520Y18963D01*
X24621Y19027D01*
X24648Y19057D01*
X24681Y19080D01*
X24757Y19172D01*
X24839Y19259D01*
X24858Y19294D01*
X24884Y19325D01*
X24935Y19433D01*
X24992Y19537D01*
X25002Y19577D01*
X25020Y19613D01*
X25042Y19730D01*
X25072Y19845D01*
X25075Y19905D01*
X25079Y19925D01*
X25078Y19946D01*
X25082Y20006D01*
X25082Y20111D01*
X25648Y19999D01*
X26792Y19525D01*
X27823Y18836D01*
X28699Y17960D01*
X29387Y16930D01*
X29861Y15785D01*
X29974Y15219D01*
X29868Y15219D01*
X29750Y15204D01*
X29632Y15197D01*
X29593Y15185D01*
X29553Y15180D01*
X29442Y15136D01*
X29329Y15099D01*
X29295Y15077D01*
X29257Y15063D01*
X29161Y14993D01*
X29060Y14929D01*
X29033Y14899D01*
X29000Y14876D01*
X28924Y14784D01*
X28842Y14697D01*
X28823Y14662D01*
X28797Y14631D01*
X28746Y14523D01*
X28689Y14419D01*
X28679Y14380D01*
X28662Y14343D01*
X28639Y14226D01*
X28609Y14111D01*
X28606Y14051D01*
X28602Y14031D01*
X28602Y14030D01*
X28603Y14010D01*
X28599Y13950D01*
X28614Y13832D01*
X28622Y13713D01*
X28634Y13674D01*
X28639Y13634D01*
X28683Y13524D01*
X28720Y13410D01*
X28741Y13376D01*
X28756Y13339D01*
X28826Y13242D01*
X28890Y13142D01*
X28919Y13114D01*
X28943Y13081D01*
X29035Y13005D01*
X29121Y12924D01*
X29157Y12904D01*
X29188Y12878D01*
X29296Y12828D01*
X29400Y12770D01*
X29439Y12760D01*
X29476Y12743D01*
X29592Y12721D01*
X29708Y12691D01*
X29768Y12687D01*
X29788Y12683D01*
X29808Y12684D01*
X29868Y12681D01*
X29974Y12681D01*
X29861Y12115D01*
X29387Y10970D01*
X28699Y9940D01*
X27823Y9064D01*
X26792Y8375D01*
X25648Y7901D01*
X25082Y7789D01*
X25082Y7894D01*
G37*
%LPD*%
%LPC*%
G36*
X220949Y95453D02*
X220949Y95453D01*
X219024Y97378D01*
X219024Y100101D01*
X220949Y102027D01*
X222266Y102027D01*
X222384Y102042D01*
X222503Y102049D01*
X222541Y102061D01*
X222582Y102066D01*
X222692Y102110D01*
X222805Y102147D01*
X222840Y102169D01*
X222877Y102184D01*
X222973Y102253D01*
X223074Y102317D01*
X223102Y102347D01*
X223135Y102370D01*
X223211Y102462D01*
X223292Y102549D01*
X223312Y102584D01*
X223337Y102615D01*
X223388Y102723D01*
X223446Y102827D01*
X223456Y102866D01*
X223473Y102903D01*
X223495Y103020D01*
X223525Y103135D01*
X223529Y103195D01*
X223533Y103215D01*
X223531Y103236D01*
X223535Y103296D01*
X223535Y104358D01*
X225461Y106284D01*
X225983Y106284D01*
X226120Y106301D01*
X226259Y106314D01*
X226278Y106321D01*
X226298Y106324D01*
X226427Y106375D01*
X226559Y106422D01*
X226575Y106433D01*
X226594Y106441D01*
X226707Y106522D01*
X226822Y106600D01*
X226835Y106616D01*
X226851Y106627D01*
X226940Y106735D01*
X227032Y106839D01*
X227041Y106857D01*
X227054Y106872D01*
X227114Y106998D01*
X227177Y107122D01*
X227181Y107142D01*
X227190Y107160D01*
X227216Y107296D01*
X227246Y107432D01*
X227246Y107453D01*
X227250Y107472D01*
X227241Y107611D01*
X227237Y107750D01*
X227231Y107770D01*
X227230Y107790D01*
X227187Y107922D01*
X227148Y108056D01*
X227138Y108073D01*
X227132Y108092D01*
X227057Y108210D01*
X226987Y108330D01*
X226968Y108351D01*
X226962Y108361D01*
X226947Y108375D01*
X226880Y108450D01*
X225004Y110327D01*
X225004Y113050D01*
X226929Y114975D01*
X229652Y114975D01*
X231577Y113050D01*
X231577Y110327D01*
X229652Y108402D01*
X229129Y108402D01*
X228992Y108385D01*
X228853Y108371D01*
X228834Y108365D01*
X228814Y108362D01*
X228685Y108311D01*
X228554Y108264D01*
X228537Y108252D01*
X228518Y108245D01*
X228406Y108163D01*
X228291Y108085D01*
X228277Y108070D01*
X228261Y108058D01*
X228172Y107951D01*
X228080Y107847D01*
X228071Y107829D01*
X228058Y107813D01*
X227999Y107687D01*
X227936Y107564D01*
X227931Y107544D01*
X227923Y107526D01*
X227896Y107389D01*
X227866Y107253D01*
X227867Y107233D01*
X227863Y107213D01*
X227871Y107075D01*
X227876Y106935D01*
X227881Y106916D01*
X227883Y106896D01*
X227925Y106764D01*
X227964Y106630D01*
X227974Y106613D01*
X227981Y106593D01*
X228055Y106475D01*
X228126Y106356D01*
X228144Y106335D01*
X228151Y106325D01*
X228166Y106310D01*
X228232Y106235D01*
X230109Y104358D01*
X230109Y101636D01*
X228183Y99710D01*
X226867Y99710D01*
X226749Y99695D01*
X226630Y99688D01*
X226592Y99675D01*
X226551Y99670D01*
X226441Y99627D01*
X226327Y99590D01*
X226293Y99568D01*
X226256Y99553D01*
X226159Y99484D01*
X226059Y99420D01*
X226031Y99390D01*
X225998Y99367D01*
X225922Y99275D01*
X225841Y99188D01*
X225821Y99153D01*
X225796Y99122D01*
X225745Y99014D01*
X225687Y98910D01*
X225677Y98870D01*
X225660Y98834D01*
X225638Y98717D01*
X225608Y98602D01*
X225604Y98542D01*
X225600Y98522D01*
X225601Y98501D01*
X225598Y98441D01*
X225598Y97378D01*
X223672Y95453D01*
X220949Y95453D01*
G37*
%LPD*%
%LPC*%
G36*
X157643Y128158D02*
X157643Y128158D01*
X155717Y130084D01*
X155717Y133116D01*
X155722Y133149D01*
X155749Y133286D01*
X155747Y133305D01*
X155750Y133325D01*
X155737Y133464D01*
X155729Y133603D01*
X155723Y133622D01*
X155721Y133642D01*
X155674Y133773D01*
X155631Y133905D01*
X155620Y133922D01*
X155613Y133941D01*
X155535Y134056D01*
X155461Y134174D01*
X155446Y134188D01*
X155435Y134204D01*
X155331Y134296D01*
X155229Y134392D01*
X155212Y134402D01*
X155197Y134415D01*
X155073Y134478D01*
X154951Y134546D01*
X154931Y134551D01*
X154913Y134560D01*
X154777Y134590D01*
X154643Y134625D01*
X154615Y134627D01*
X154603Y134629D01*
X154583Y134629D01*
X154482Y134635D01*
X152055Y134635D01*
X150140Y136550D01*
X150062Y136610D01*
X149990Y136678D01*
X149937Y136707D01*
X149889Y136744D01*
X149798Y136784D01*
X149711Y136832D01*
X149653Y136847D01*
X149597Y136871D01*
X149499Y136886D01*
X149404Y136911D01*
X149303Y136917D01*
X149283Y136921D01*
X149271Y136919D01*
X149243Y136921D01*
X147165Y136921D01*
X145239Y138847D01*
X145239Y141569D01*
X147165Y143495D01*
X149887Y143495D01*
X151802Y141580D01*
X151880Y141520D01*
X151952Y141452D01*
X152005Y141423D01*
X152053Y141386D01*
X152144Y141346D01*
X152231Y141298D01*
X152289Y141283D01*
X152345Y141259D01*
X152443Y141244D01*
X152538Y141219D01*
X152638Y141213D01*
X152659Y141209D01*
X152671Y141211D01*
X152699Y141209D01*
X154777Y141209D01*
X156703Y139283D01*
X156703Y136251D01*
X156698Y136218D01*
X156671Y136081D01*
X156673Y136062D01*
X156670Y136042D01*
X156683Y135903D01*
X156691Y135764D01*
X156697Y135745D01*
X156699Y135725D01*
X156746Y135594D01*
X156789Y135462D01*
X156800Y135445D01*
X156807Y135426D01*
X156885Y135311D01*
X156959Y135193D01*
X156974Y135179D01*
X156985Y135163D01*
X157089Y135071D01*
X157191Y134975D01*
X157208Y134965D01*
X157223Y134952D01*
X157348Y134889D01*
X157469Y134821D01*
X157489Y134816D01*
X157507Y134807D01*
X157643Y134777D01*
X157777Y134742D01*
X157805Y134740D01*
X157817Y134738D01*
X157837Y134738D01*
X157938Y134732D01*
X160365Y134732D01*
X162291Y132806D01*
X162291Y130084D01*
X160365Y128158D01*
X157643Y128158D01*
G37*
%LPD*%
%LPC*%
G36*
X108176Y-1699D02*
X108176Y-1699D01*
X106251Y226D01*
X106251Y2949D01*
X108176Y4874D01*
X109744Y4874D01*
X109862Y4889D01*
X109981Y4897D01*
X110019Y4909D01*
X110060Y4914D01*
X110170Y4958D01*
X110283Y4995D01*
X110318Y5016D01*
X110355Y5031D01*
X110451Y5101D01*
X110552Y5165D01*
X110580Y5194D01*
X110613Y5218D01*
X110689Y5310D01*
X110770Y5396D01*
X110790Y5432D01*
X110815Y5463D01*
X110866Y5571D01*
X110924Y5675D01*
X110934Y5714D01*
X110951Y5751D01*
X110973Y5867D01*
X111003Y5983D01*
X111007Y6043D01*
X111011Y6063D01*
X111009Y6083D01*
X111012Y6123D01*
X112939Y8049D01*
X114507Y8049D01*
X114625Y8064D01*
X114743Y8072D01*
X114782Y8084D01*
X114822Y8089D01*
X114933Y8133D01*
X115046Y8170D01*
X115080Y8191D01*
X115118Y8206D01*
X115214Y8276D01*
X115315Y8340D01*
X115342Y8369D01*
X115375Y8393D01*
X115451Y8485D01*
X115533Y8571D01*
X115552Y8607D01*
X115578Y8638D01*
X115629Y8746D01*
X115686Y8850D01*
X115696Y8889D01*
X115713Y8926D01*
X115736Y9042D01*
X115766Y9158D01*
X115769Y9218D01*
X115773Y9238D01*
X115772Y9258D01*
X115776Y9318D01*
X115776Y10886D01*
X117701Y12812D01*
X120424Y12812D01*
X122349Y10886D01*
X122349Y8164D01*
X120424Y6238D01*
X118856Y6238D01*
X118738Y6223D01*
X118619Y6216D01*
X118581Y6203D01*
X118540Y6198D01*
X118430Y6155D01*
X118317Y6118D01*
X118282Y6096D01*
X118245Y6081D01*
X118149Y6012D01*
X118048Y5948D01*
X118020Y5918D01*
X117987Y5895D01*
X117911Y5803D01*
X117830Y5716D01*
X117810Y5681D01*
X117785Y5650D01*
X117734Y5542D01*
X117676Y5438D01*
X117666Y5398D01*
X117649Y5362D01*
X117627Y5245D01*
X117597Y5130D01*
X117593Y5070D01*
X117589Y5050D01*
X117591Y5029D01*
X117587Y4969D01*
X117587Y3401D01*
X115661Y1476D01*
X114093Y1476D01*
X113975Y1461D01*
X113857Y1453D01*
X113818Y1441D01*
X113778Y1436D01*
X113667Y1392D01*
X113554Y1355D01*
X113520Y1334D01*
X113482Y1319D01*
X113386Y1249D01*
X113285Y1185D01*
X113258Y1156D01*
X113225Y1132D01*
X113149Y1040D01*
X113067Y954D01*
X113048Y918D01*
X113022Y887D01*
X112971Y779D01*
X112914Y675D01*
X112904Y636D01*
X112887Y599D01*
X112864Y483D01*
X112834Y367D01*
X112831Y307D01*
X112827Y287D01*
X112828Y267D01*
X112826Y227D01*
X110899Y-1699D01*
X108176Y-1699D01*
G37*
%LPD*%
%LPC*%
G36*
X127226Y-23924D02*
X127226Y-23924D01*
X125301Y-21999D01*
X125301Y-18843D01*
X125286Y-18725D01*
X125278Y-18607D01*
X125266Y-18568D01*
X125261Y-18528D01*
X125217Y-18417D01*
X125180Y-18304D01*
X125159Y-18270D01*
X125144Y-18232D01*
X125074Y-18136D01*
X125010Y-18035D01*
X124981Y-18008D01*
X124957Y-17975D01*
X124865Y-17899D01*
X124779Y-17817D01*
X124743Y-17798D01*
X124712Y-17772D01*
X124604Y-17721D01*
X124500Y-17664D01*
X124461Y-17654D01*
X124424Y-17637D01*
X124308Y-17614D01*
X124192Y-17584D01*
X124132Y-17581D01*
X124112Y-17577D01*
X124092Y-17578D01*
X124032Y-17574D01*
X120876Y-17574D01*
X118951Y-15649D01*
X118951Y-12926D01*
X120876Y-11001D01*
X123599Y-11001D01*
X125524Y-12926D01*
X125524Y-16082D01*
X125539Y-16200D01*
X125547Y-16318D01*
X125559Y-16357D01*
X125564Y-16397D01*
X125608Y-16508D01*
X125645Y-16621D01*
X125666Y-16655D01*
X125681Y-16693D01*
X125751Y-16789D01*
X125815Y-16890D01*
X125844Y-16917D01*
X125868Y-16950D01*
X125960Y-17026D01*
X126046Y-17108D01*
X126082Y-17127D01*
X126113Y-17153D01*
X126221Y-17204D01*
X126325Y-17261D01*
X126364Y-17271D01*
X126401Y-17288D01*
X126517Y-17311D01*
X126633Y-17341D01*
X126693Y-17344D01*
X126713Y-17348D01*
X126733Y-17347D01*
X126793Y-17351D01*
X129949Y-17351D01*
X131874Y-19276D01*
X131874Y-21999D01*
X129949Y-23924D01*
X127226Y-23924D01*
G37*
%LPD*%
%LPC*%
G36*
X178686Y127816D02*
X178686Y127816D01*
X176761Y129741D01*
X176761Y132464D01*
X178686Y134389D01*
X181662Y134389D01*
X181780Y134404D01*
X181899Y134412D01*
X181937Y134424D01*
X181978Y134429D01*
X182088Y134473D01*
X182202Y134510D01*
X182236Y134531D01*
X182273Y134546D01*
X182370Y134616D01*
X182470Y134680D01*
X182498Y134709D01*
X182531Y134733D01*
X182607Y134825D01*
X182688Y134912D01*
X182708Y134947D01*
X182734Y134978D01*
X182784Y135086D01*
X182842Y135190D01*
X182852Y135229D01*
X182869Y135266D01*
X182891Y135383D01*
X182921Y135498D01*
X182925Y135558D01*
X182929Y135578D01*
X182928Y135598D01*
X182931Y135659D01*
X182931Y138264D01*
X184857Y140189D01*
X187580Y140189D01*
X189505Y138264D01*
X189505Y135541D01*
X187580Y133615D01*
X184603Y133615D01*
X184485Y133601D01*
X184366Y133593D01*
X184328Y133581D01*
X184288Y133576D01*
X184177Y133532D01*
X184064Y133495D01*
X184030Y133473D01*
X183992Y133459D01*
X183896Y133389D01*
X183795Y133325D01*
X183767Y133295D01*
X183735Y133272D01*
X183659Y133180D01*
X183577Y133093D01*
X183558Y133058D01*
X183532Y133027D01*
X183481Y132919D01*
X183424Y132815D01*
X183414Y132776D01*
X183396Y132739D01*
X183374Y132622D01*
X183344Y132507D01*
X183340Y132447D01*
X183337Y132427D01*
X183338Y132406D01*
X183334Y132346D01*
X183334Y129741D01*
X181409Y127816D01*
X178686Y127816D01*
G37*
%LPD*%
%LPC*%
G36*
X83221Y61229D02*
X83221Y61229D01*
X81295Y63155D01*
X81295Y63195D01*
X81280Y63313D01*
X81273Y63432D01*
X81260Y63470D01*
X81255Y63511D01*
X81212Y63621D01*
X81175Y63735D01*
X81153Y63769D01*
X81138Y63806D01*
X81069Y63903D01*
X81005Y64003D01*
X80975Y64031D01*
X80952Y64064D01*
X80860Y64140D01*
X80773Y64221D01*
X80738Y64241D01*
X80707Y64266D01*
X80599Y64317D01*
X80495Y64375D01*
X80455Y64385D01*
X80419Y64402D01*
X80302Y64424D01*
X80187Y64454D01*
X80127Y64458D01*
X80107Y64462D01*
X80086Y64461D01*
X80026Y64464D01*
X77433Y64464D01*
X75508Y66390D01*
X75508Y69113D01*
X77433Y71038D01*
X80156Y71038D01*
X82082Y69113D01*
X82082Y69072D01*
X82097Y68954D01*
X82104Y68835D01*
X82116Y68797D01*
X82121Y68756D01*
X82165Y68646D01*
X82202Y68533D01*
X82224Y68498D01*
X82239Y68461D01*
X82308Y68365D01*
X82372Y68264D01*
X82402Y68236D01*
X82425Y68203D01*
X82517Y68127D01*
X82604Y68046D01*
X82639Y68026D01*
X82670Y68001D01*
X82778Y67950D01*
X82882Y67892D01*
X82921Y67882D01*
X82958Y67865D01*
X83075Y67843D01*
X83190Y67813D01*
X83250Y67809D01*
X83270Y67805D01*
X83291Y67807D01*
X83351Y67803D01*
X85943Y67803D01*
X87869Y65877D01*
X87869Y63155D01*
X85943Y61229D01*
X83221Y61229D01*
G37*
%LPD*%
%LPC*%
G36*
X312964Y-27099D02*
X312964Y-27099D01*
X311038Y-25174D01*
X311038Y-22451D01*
X311161Y-22329D01*
X311234Y-22235D01*
X311312Y-22145D01*
X311331Y-22109D01*
X311356Y-22077D01*
X311403Y-21968D01*
X311457Y-21862D01*
X311466Y-21823D01*
X311482Y-21786D01*
X311501Y-21668D01*
X311527Y-21552D01*
X311525Y-21512D01*
X311532Y-21472D01*
X311521Y-21353D01*
X311517Y-21234D01*
X311506Y-21195D01*
X311502Y-21155D01*
X311462Y-21043D01*
X311429Y-20929D01*
X311408Y-20894D01*
X311394Y-20856D01*
X311327Y-20757D01*
X311267Y-20655D01*
X311227Y-20609D01*
X311216Y-20592D01*
X311200Y-20579D01*
X311161Y-20534D01*
X309451Y-18824D01*
X309451Y-16101D01*
X311376Y-14176D01*
X314099Y-14176D01*
X316024Y-16101D01*
X316024Y-18824D01*
X315902Y-18946D01*
X315829Y-19040D01*
X315750Y-19130D01*
X315732Y-19166D01*
X315707Y-19197D01*
X315660Y-19307D01*
X315606Y-19413D01*
X315597Y-19452D01*
X315581Y-19489D01*
X315562Y-19607D01*
X315536Y-19723D01*
X315537Y-19763D01*
X315531Y-19803D01*
X315542Y-19922D01*
X315546Y-20041D01*
X315557Y-20080D01*
X315561Y-20120D01*
X315601Y-20232D01*
X315634Y-20346D01*
X315654Y-20381D01*
X315668Y-20419D01*
X315735Y-20518D01*
X315795Y-20620D01*
X315835Y-20666D01*
X315847Y-20682D01*
X315862Y-20696D01*
X315902Y-20741D01*
X317612Y-22451D01*
X317612Y-25174D01*
X315686Y-27099D01*
X312964Y-27099D01*
G37*
%LPD*%
%LPC*%
G36*
X138339Y23701D02*
X138339Y23701D01*
X136413Y25626D01*
X136413Y28349D01*
X136536Y28471D01*
X136609Y28565D01*
X136687Y28655D01*
X136706Y28691D01*
X136731Y28723D01*
X136778Y28832D01*
X136832Y28938D01*
X136841Y28977D01*
X136857Y29014D01*
X136876Y29132D01*
X136902Y29248D01*
X136900Y29288D01*
X136907Y29328D01*
X136896Y29447D01*
X136892Y29566D01*
X136881Y29605D01*
X136877Y29645D01*
X136837Y29757D01*
X136804Y29871D01*
X136783Y29906D01*
X136769Y29944D01*
X136702Y30043D01*
X136642Y30145D01*
X136602Y30191D01*
X136591Y30208D01*
X136575Y30221D01*
X136536Y30266D01*
X134826Y31976D01*
X134826Y34699D01*
X136751Y36624D01*
X139474Y36624D01*
X141399Y34699D01*
X141399Y31976D01*
X141277Y31854D01*
X141204Y31760D01*
X141125Y31670D01*
X141107Y31634D01*
X141082Y31603D01*
X141035Y31493D01*
X140981Y31387D01*
X140972Y31348D01*
X140956Y31311D01*
X140937Y31193D01*
X140911Y31077D01*
X140912Y31037D01*
X140906Y30997D01*
X140917Y30878D01*
X140921Y30759D01*
X140932Y30720D01*
X140936Y30680D01*
X140976Y30568D01*
X141009Y30454D01*
X141029Y30419D01*
X141043Y30381D01*
X141110Y30282D01*
X141170Y30180D01*
X141210Y30134D01*
X141222Y30118D01*
X141237Y30104D01*
X141277Y30059D01*
X142987Y28349D01*
X142987Y25626D01*
X141061Y23701D01*
X138339Y23701D01*
G37*
%LPD*%
%LPC*%
G36*
X84364Y-82662D02*
X84364Y-82662D01*
X82438Y-80736D01*
X82438Y-78014D01*
X84364Y-76088D01*
X85932Y-76088D01*
X86050Y-76073D01*
X86168Y-76066D01*
X86207Y-76053D01*
X86247Y-76048D01*
X86358Y-76005D01*
X86471Y-75968D01*
X86505Y-75946D01*
X86543Y-75931D01*
X86639Y-75862D01*
X86740Y-75798D01*
X86767Y-75768D01*
X86800Y-75745D01*
X86876Y-75653D01*
X86958Y-75566D01*
X86977Y-75531D01*
X87003Y-75500D01*
X87054Y-75392D01*
X87111Y-75288D01*
X87121Y-75248D01*
X87138Y-75212D01*
X87161Y-75095D01*
X87191Y-74980D01*
X87194Y-74920D01*
X87198Y-74900D01*
X87197Y-74879D01*
X87201Y-74819D01*
X87201Y-73251D01*
X89126Y-71326D01*
X91849Y-71326D01*
X93774Y-73251D01*
X93774Y-75974D01*
X91849Y-77899D01*
X90281Y-77899D01*
X90163Y-77914D01*
X90044Y-77922D01*
X90006Y-77934D01*
X89965Y-77939D01*
X89855Y-77983D01*
X89742Y-78020D01*
X89707Y-78041D01*
X89670Y-78056D01*
X89574Y-78126D01*
X89473Y-78190D01*
X89445Y-78219D01*
X89412Y-78243D01*
X89336Y-78335D01*
X89255Y-78421D01*
X89235Y-78457D01*
X89210Y-78488D01*
X89159Y-78596D01*
X89101Y-78700D01*
X89091Y-78739D01*
X89074Y-78776D01*
X89052Y-78892D01*
X89022Y-79008D01*
X89018Y-79068D01*
X89014Y-79088D01*
X89016Y-79108D01*
X89012Y-79168D01*
X89012Y-80736D01*
X87086Y-82662D01*
X84364Y-82662D01*
G37*
%LPD*%
%LPC*%
G36*
X165286Y134659D02*
X165286Y134659D01*
X163361Y136584D01*
X163361Y139307D01*
X165286Y141233D01*
X166864Y141233D01*
X166983Y141248D01*
X167101Y141255D01*
X167140Y141267D01*
X167180Y141272D01*
X167291Y141316D01*
X167404Y141353D01*
X167438Y141375D01*
X167476Y141389D01*
X167572Y141459D01*
X167672Y141523D01*
X167700Y141553D01*
X167733Y141576D01*
X167809Y141668D01*
X167890Y141755D01*
X167910Y141790D01*
X167936Y141821D01*
X167986Y141929D01*
X168044Y142033D01*
X168054Y142072D01*
X168071Y142109D01*
X168094Y142226D01*
X168123Y142341D01*
X168127Y142401D01*
X168131Y142421D01*
X168130Y142442D01*
X168134Y142502D01*
X168134Y142795D01*
X170059Y144720D01*
X172782Y144720D01*
X174707Y142795D01*
X174707Y140072D01*
X172782Y138147D01*
X171204Y138147D01*
X171086Y138132D01*
X170967Y138125D01*
X170928Y138112D01*
X170888Y138107D01*
X170778Y138063D01*
X170664Y138027D01*
X170630Y138005D01*
X170593Y137990D01*
X170496Y137920D01*
X170396Y137856D01*
X170368Y137827D01*
X170335Y137803D01*
X170259Y137712D01*
X170178Y137625D01*
X170158Y137589D01*
X170132Y137558D01*
X170082Y137451D01*
X170024Y137346D01*
X170014Y137307D01*
X169997Y137271D01*
X169975Y137154D01*
X169945Y137038D01*
X169941Y136978D01*
X169937Y136958D01*
X169938Y136938D01*
X169935Y136878D01*
X169935Y136584D01*
X168009Y134659D01*
X165286Y134659D01*
G37*
%LPD*%
%LPC*%
G36*
X99223Y86963D02*
X99223Y86963D01*
X97297Y88889D01*
X97297Y91611D01*
X99223Y93537D01*
X101945Y93537D01*
X102579Y92903D01*
X102673Y92830D01*
X102762Y92751D01*
X102798Y92733D01*
X102830Y92708D01*
X102939Y92661D01*
X103046Y92607D01*
X103085Y92598D01*
X103122Y92582D01*
X103240Y92563D01*
X103356Y92537D01*
X103396Y92538D01*
X103436Y92532D01*
X103555Y92543D01*
X103674Y92547D01*
X103713Y92558D01*
X103753Y92562D01*
X103865Y92602D01*
X103979Y92635D01*
X104014Y92656D01*
X104052Y92669D01*
X104151Y92736D01*
X104253Y92797D01*
X104299Y92837D01*
X104315Y92848D01*
X104329Y92863D01*
X104374Y92903D01*
X105024Y93553D01*
X107747Y93553D01*
X109672Y91627D01*
X109672Y88905D01*
X107747Y86979D01*
X105024Y86979D01*
X104390Y87613D01*
X104296Y87686D01*
X104207Y87765D01*
X104171Y87783D01*
X104139Y87808D01*
X104029Y87855D01*
X103924Y87909D01*
X103884Y87918D01*
X103847Y87934D01*
X103729Y87953D01*
X103613Y87979D01*
X103573Y87978D01*
X103533Y87984D01*
X103414Y87973D01*
X103295Y87969D01*
X103256Y87958D01*
X103216Y87954D01*
X103104Y87914D01*
X102990Y87881D01*
X102955Y87860D01*
X102917Y87847D01*
X102818Y87780D01*
X102716Y87719D01*
X102671Y87680D01*
X102654Y87668D01*
X102640Y87653D01*
X102595Y87613D01*
X101945Y86963D01*
X99223Y86963D01*
G37*
%LPD*%
%LPC*%
G36*
X105503Y138605D02*
X105503Y138605D01*
X105488Y138618D01*
X105363Y138682D01*
X105242Y138749D01*
X105222Y138754D01*
X105204Y138763D01*
X105069Y138793D01*
X104934Y138828D01*
X104906Y138830D01*
X104894Y138833D01*
X104874Y138832D01*
X104773Y138838D01*
X101515Y138838D01*
X99151Y141203D01*
X99151Y144547D01*
X101515Y146912D01*
X104860Y146912D01*
X107224Y144547D01*
X107224Y141203D01*
X105841Y139819D01*
X105756Y139710D01*
X105667Y139603D01*
X105658Y139584D01*
X105646Y139568D01*
X105590Y139440D01*
X105531Y139315D01*
X105528Y139295D01*
X105519Y139276D01*
X105498Y139138D01*
X105472Y139002D01*
X105473Y138982D01*
X105470Y138962D01*
X105483Y138823D01*
X105491Y138685D01*
X105498Y138666D01*
X105499Y138646D01*
X105517Y138597D01*
X105503Y138605D01*
G37*
%LPD*%
%LPC*%
G36*
X171365Y-154849D02*
X171365Y-154849D01*
X169001Y-152485D01*
X169001Y-149140D01*
X171365Y-146776D01*
X174710Y-146776D01*
X177074Y-149140D01*
X177074Y-152485D01*
X174710Y-154849D01*
X171365Y-154849D01*
G37*
%LPD*%
%LPC*%
G36*
X204703Y-185012D02*
X204703Y-185012D01*
X202338Y-182647D01*
X202338Y-179303D01*
X204703Y-176938D01*
X208047Y-176938D01*
X210412Y-179303D01*
X210412Y-182647D01*
X208047Y-185012D01*
X204703Y-185012D01*
G37*
%LPD*%
%LPC*%
G36*
X165223Y-136887D02*
X165223Y-136887D01*
X163151Y-134815D01*
X163151Y-131885D01*
X165223Y-129813D01*
X168152Y-129813D01*
X170224Y-131885D01*
X170224Y-134815D01*
X168152Y-136887D01*
X165223Y-136887D01*
G37*
%LPD*%
%LPC*%
G36*
X190623Y-155937D02*
X190623Y-155937D01*
X188551Y-153865D01*
X188551Y-150935D01*
X190623Y-148863D01*
X193552Y-148863D01*
X195624Y-150935D01*
X195624Y-153865D01*
X193552Y-155937D01*
X190623Y-155937D01*
G37*
%LPD*%
%LPC*%
G36*
X106652Y131079D02*
X106652Y131079D01*
X104727Y133005D01*
X104727Y135727D01*
X105671Y136672D01*
X105756Y136781D01*
X105845Y136888D01*
X105853Y136907D01*
X105866Y136923D01*
X105921Y137050D01*
X105980Y137176D01*
X105984Y137196D01*
X105992Y137215D01*
X106014Y137353D01*
X106040Y137489D01*
X106039Y137509D01*
X106042Y137529D01*
X106029Y137668D01*
X106020Y137806D01*
X106014Y137825D01*
X106012Y137845D01*
X105995Y137894D01*
X106009Y137886D01*
X106024Y137873D01*
X106148Y137809D01*
X106270Y137742D01*
X106289Y137737D01*
X106307Y137728D01*
X106443Y137698D01*
X106578Y137663D01*
X106606Y137661D01*
X106618Y137658D01*
X106638Y137659D01*
X106738Y137653D01*
X109375Y137653D01*
X111300Y135727D01*
X111300Y133005D01*
X109375Y131079D01*
X106652Y131079D01*
G37*
%LPD*%
%LPC*%
G36*
X14514Y-69962D02*
X14514Y-69962D01*
X12614Y-68062D01*
X12500Y-67973D01*
X12501Y-67968D01*
X12506Y-67959D01*
X12541Y-67814D01*
X12578Y-67670D01*
X12579Y-67656D01*
X12580Y-67650D01*
X12580Y-67635D01*
X12588Y-67509D01*
X12588Y-65314D01*
X14514Y-63388D01*
X17236Y-63388D01*
X19162Y-65314D01*
X19162Y-68036D01*
X17236Y-69962D01*
X14514Y-69962D01*
G37*
%LPD*%
%LPC*%
G36*
X133005Y149113D02*
X133005Y149113D01*
X131079Y151039D01*
X131079Y153761D01*
X133005Y155687D01*
X135727Y155687D01*
X137653Y153761D01*
X137653Y151039D01*
X135727Y149113D01*
X133005Y149113D01*
G37*
%LPD*%
%LPC*%
G36*
X192430Y141377D02*
X192430Y141377D01*
X190505Y143302D01*
X190505Y146025D01*
X192430Y147950D01*
X195153Y147950D01*
X197078Y146025D01*
X197078Y143302D01*
X195153Y141377D01*
X192430Y141377D01*
G37*
%LPD*%
%LPC*%
G36*
X225651Y133238D02*
X225651Y133238D01*
X223726Y135164D01*
X223726Y137886D01*
X225651Y139812D01*
X228374Y139812D01*
X230299Y137886D01*
X230299Y135164D01*
X228374Y133238D01*
X225651Y133238D01*
G37*
%LPD*%
%LPC*%
G36*
X242733Y112601D02*
X242733Y112601D01*
X240807Y114526D01*
X240807Y117249D01*
X242733Y119174D01*
X245455Y119174D01*
X247381Y117249D01*
X247381Y114526D01*
X245455Y112601D01*
X242733Y112601D01*
G37*
%LPD*%
%LPC*%
G36*
X131989Y107838D02*
X131989Y107838D01*
X130063Y109764D01*
X130063Y112486D01*
X131989Y114412D01*
X134711Y114412D01*
X136637Y112486D01*
X136637Y109764D01*
X134711Y107838D01*
X131989Y107838D01*
G37*
%LPD*%
%LPC*%
G36*
X156627Y103647D02*
X156627Y103647D01*
X154701Y105573D01*
X154701Y108295D01*
X156627Y110221D01*
X159349Y110221D01*
X161275Y108295D01*
X161275Y105573D01*
X159349Y103647D01*
X156627Y103647D01*
G37*
%LPD*%
%LPC*%
G36*
X172121Y49672D02*
X172121Y49672D01*
X170195Y51598D01*
X170195Y54320D01*
X172121Y56246D01*
X174843Y56246D01*
X176769Y54320D01*
X176769Y51598D01*
X174843Y49672D01*
X172121Y49672D01*
G37*
%LPD*%
%LPC*%
G36*
X125639Y31638D02*
X125639Y31638D01*
X123713Y33564D01*
X123713Y36286D01*
X125639Y38212D01*
X128361Y38212D01*
X130287Y36286D01*
X130287Y33564D01*
X128361Y31638D01*
X125639Y31638D01*
G37*
%LPD*%
%LPC*%
G36*
X181836Y58308D02*
X181836Y58308D01*
X179911Y60234D01*
X179911Y62956D01*
X181836Y64882D01*
X184559Y64882D01*
X186484Y62956D01*
X186484Y60234D01*
X184559Y58308D01*
X181836Y58308D01*
G37*
%LPD*%
%LPC*%
G36*
X67473Y64277D02*
X67473Y64277D01*
X65547Y66203D01*
X65547Y68925D01*
X67473Y70851D01*
X70195Y70851D01*
X72121Y68925D01*
X72121Y66203D01*
X70195Y64277D01*
X67473Y64277D01*
G37*
%LPD*%
%LPC*%
G36*
X376464Y25288D02*
X376464Y25288D01*
X374538Y27214D01*
X374538Y29936D01*
X376464Y31862D01*
X379186Y31862D01*
X381112Y29936D01*
X381112Y27214D01*
X379186Y25288D01*
X376464Y25288D01*
G37*
%LPD*%
%LPC*%
G36*
X48359Y22256D02*
X48359Y22256D01*
X46434Y24182D01*
X46434Y26904D01*
X48359Y28830D01*
X51082Y28830D01*
X53007Y26904D01*
X53007Y24182D01*
X51082Y22256D01*
X48359Y22256D01*
G37*
%LPD*%
%LPC*%
G36*
X35659Y22113D02*
X35659Y22113D01*
X33734Y24039D01*
X33734Y26761D01*
X35659Y28687D01*
X38382Y28687D01*
X40307Y26761D01*
X40307Y24039D01*
X38382Y22113D01*
X35659Y22113D01*
G37*
%LPD*%
%LPC*%
G36*
X157696Y67458D02*
X157696Y67458D01*
X155771Y69384D01*
X155771Y72107D01*
X157696Y74032D01*
X160419Y74032D01*
X162345Y72107D01*
X162345Y69384D01*
X160419Y67458D01*
X157696Y67458D01*
G37*
%LPD*%
%LPC*%
G36*
X192022Y67734D02*
X192022Y67734D01*
X190097Y69659D01*
X190097Y72382D01*
X192022Y74308D01*
X194745Y74308D01*
X196670Y72382D01*
X196670Y69659D01*
X194745Y67734D01*
X192022Y67734D01*
G37*
%LPD*%
%LPC*%
G36*
X78014Y79263D02*
X78014Y79263D01*
X76088Y81189D01*
X76088Y83911D01*
X78014Y85837D01*
X80736Y85837D01*
X82662Y83911D01*
X82662Y81189D01*
X80736Y79263D01*
X78014Y79263D01*
G37*
%LPD*%
%LPC*%
G36*
X173645Y86883D02*
X173645Y86883D01*
X171719Y88809D01*
X171719Y91531D01*
X173645Y93457D01*
X176367Y93457D01*
X178293Y91531D01*
X178293Y88809D01*
X176367Y86883D01*
X173645Y86883D01*
G37*
%LPD*%
%LPC*%
G36*
X349476Y-49324D02*
X349476Y-49324D01*
X347551Y-47399D01*
X347551Y-44676D01*
X349476Y-42751D01*
X352199Y-42751D01*
X354124Y-44676D01*
X354124Y-47399D01*
X352199Y-49324D01*
X349476Y-49324D01*
G37*
%LPD*%
%LPC*%
G36*
X163475Y97033D02*
X163475Y97033D01*
X161549Y98959D01*
X161549Y101681D01*
X163475Y103607D01*
X166197Y103607D01*
X168123Y101681D01*
X168123Y98959D01*
X166197Y97033D01*
X163475Y97033D01*
G37*
%LPD*%
%LPC*%
G36*
X248257Y101425D02*
X248257Y101425D01*
X246332Y103350D01*
X246332Y106073D01*
X248257Y107998D01*
X250980Y107998D01*
X252905Y106073D01*
X252905Y103350D01*
X250980Y101425D01*
X248257Y101425D01*
G37*
%LPD*%
%LPC*%
G36*
X103414Y103076D02*
X103414Y103076D01*
X101488Y105001D01*
X101488Y107724D01*
X103414Y109649D01*
X106136Y109649D01*
X108062Y107724D01*
X108062Y105001D01*
X106136Y103076D01*
X103414Y103076D01*
G37*
%LPD*%
%LPC*%
G36*
X120876Y103076D02*
X120876Y103076D01*
X118951Y105001D01*
X118951Y107724D01*
X120876Y109649D01*
X123599Y109649D01*
X125524Y107724D01*
X125524Y105001D01*
X123599Y103076D01*
X120876Y103076D01*
G37*
%LPD*%
%LPC*%
G36*
X36739Y-89012D02*
X36739Y-89012D01*
X34813Y-87086D01*
X34813Y-84364D01*
X36739Y-82438D01*
X39461Y-82438D01*
X41387Y-84364D01*
X41387Y-87086D01*
X39461Y-89012D01*
X36739Y-89012D01*
G37*
%LPD*%
%LPC*%
G36*
X197076Y-125524D02*
X197076Y-125524D01*
X195151Y-123599D01*
X195151Y-120876D01*
X197076Y-118951D01*
X199799Y-118951D01*
X201724Y-120876D01*
X201724Y-123599D01*
X199799Y-125524D01*
X197076Y-125524D01*
G37*
%LPD*%
%LPC*%
G36*
X106516Y55206D02*
X106516Y55206D01*
X104591Y57131D01*
X104591Y59854D01*
X106516Y61779D01*
X109239Y61779D01*
X111164Y59854D01*
X111164Y57131D01*
X109239Y55206D01*
X106516Y55206D01*
G37*
%LPD*%
%LPC*%
G36*
X201839Y155463D02*
X201839Y155463D01*
X199913Y157389D01*
X199913Y160111D01*
X201839Y162037D01*
X204561Y162037D01*
X206487Y160111D01*
X206487Y157389D01*
X204561Y155463D01*
X201839Y155463D01*
G37*
%LPD*%
%LPC*%
G36*
X130401Y-136637D02*
X130401Y-136637D01*
X128476Y-134711D01*
X128476Y-131989D01*
X130401Y-130063D01*
X133124Y-130063D01*
X135049Y-131989D01*
X135049Y-134711D01*
X133124Y-136637D01*
X130401Y-136637D01*
G37*
%LPD*%
%LPC*%
G36*
X147864Y-138224D02*
X147864Y-138224D01*
X145938Y-136299D01*
X145938Y-133576D01*
X147864Y-131651D01*
X150586Y-131651D01*
X152512Y-133576D01*
X152512Y-136299D01*
X150586Y-138224D01*
X147864Y-138224D01*
G37*
%LPD*%
%LPC*%
G36*
X200251Y-139812D02*
X200251Y-139812D01*
X198326Y-137886D01*
X198326Y-135164D01*
X200251Y-133238D01*
X202974Y-133238D01*
X204899Y-135164D01*
X204899Y-137886D01*
X202974Y-139812D01*
X200251Y-139812D01*
G37*
%LPD*%
%LPC*%
G36*
X160564Y-147749D02*
X160564Y-147749D01*
X158638Y-145824D01*
X158638Y-143101D01*
X160564Y-141176D01*
X163286Y-141176D01*
X165212Y-143101D01*
X165212Y-145824D01*
X163286Y-147749D01*
X160564Y-147749D01*
G37*
%LPD*%
%LPC*%
G36*
X241526Y55451D02*
X241526Y55451D01*
X239601Y57376D01*
X239601Y60099D01*
X241526Y62024D01*
X244249Y62024D01*
X246174Y60099D01*
X246174Y57376D01*
X244249Y55451D01*
X241526Y55451D01*
G37*
%LPD*%
%LPC*%
G36*
X150912Y153304D02*
X150912Y153304D01*
X148986Y155230D01*
X148986Y157952D01*
X150912Y159878D01*
X153634Y159878D01*
X155560Y157952D01*
X155560Y155230D01*
X153634Y153304D01*
X150912Y153304D01*
G37*
%LPD*%
%LPC*%
G36*
X162151Y-127112D02*
X162151Y-127112D01*
X160226Y-125186D01*
X160226Y-122464D01*
X162151Y-120538D01*
X164874Y-120538D01*
X166799Y-122464D01*
X166799Y-125186D01*
X164874Y-127112D01*
X162151Y-127112D01*
G37*
%LPD*%
%LPC*%
G36*
X136751Y-6462D02*
X136751Y-6462D01*
X134826Y-4536D01*
X134826Y-1814D01*
X136751Y112D01*
X139474Y112D01*
X141399Y-1814D01*
X141399Y-4536D01*
X139474Y-6462D01*
X136751Y-6462D01*
G37*
%LPD*%
%LPC*%
G36*
X254361Y-122277D02*
X254361Y-122277D01*
X252856Y-121978D01*
X251438Y-121391D01*
X250995Y-121094D01*
X255129Y-116960D01*
X259262Y-121094D01*
X258819Y-121391D01*
X257401Y-121978D01*
X255896Y-122277D01*
X254361Y-122277D01*
G37*
%LPD*%
%LPC*%
G36*
X248224Y-118177D02*
X248224Y-118177D01*
X247637Y-116759D01*
X247338Y-115254D01*
X247338Y-113719D01*
X247637Y-112214D01*
X248224Y-110796D01*
X248521Y-110353D01*
X252655Y-114487D01*
X248521Y-118620D01*
X248224Y-118177D01*
G37*
%LPD*%
D10*
X23813Y13950D03*
X23813Y-52050D03*
D11*
X255129Y-114487D03*
X265735Y-103880D03*
X276342Y-93273D03*
X286948Y-82667D03*
X308162Y-61454D03*
X297555Y-72060D03*
D12*
X106299Y128270D03*
D13*
X193675Y130937D03*
X218059Y107696D03*
X193675Y89662D03*
X169037Y109093D03*
X181864Y116840D03*
X206502Y117602D03*
X204470Y98044D03*
X181864Y99187D03*
X193548Y108331D03*
X133604Y61976D03*
D12*
X99060Y42037D03*
X56642Y67564D03*
X286004Y15748D03*
X298704Y15748D03*
X260604Y156210D03*
X311404Y104648D03*
X286004Y156210D03*
X286004Y92710D03*
X286004Y80010D03*
X311404Y79248D03*
X286004Y67310D03*
X286004Y143510D03*
X286004Y41910D03*
X286004Y54610D03*
X260604Y168910D03*
X260604Y181610D03*
X25400Y29464D03*
X311404Y15748D03*
X311404Y41148D03*
X311404Y53848D03*
X311404Y66548D03*
X311404Y91948D03*
X285750Y168910D03*
X311404Y156210D03*
X260604Y54610D03*
X260604Y67310D03*
X311404Y28448D03*
X286004Y29210D03*
X273304Y156210D03*
X273050Y168910D03*
X298704Y156210D03*
X298450Y168910D03*
X298704Y79248D03*
X298704Y41148D03*
X298704Y53848D03*
X298704Y66548D03*
X298704Y91948D03*
X298704Y28448D03*
X273304Y92710D03*
X273304Y80010D03*
X273304Y67310D03*
X273304Y54610D03*
X236347Y79121D03*
X260604Y80010D03*
X83312Y118491D03*
X154940Y147320D03*
D13*
X120142Y71120D03*
D12*
X280988Y107950D03*
X333375Y138113D03*
X155575Y47625D03*
X98425Y-14288D03*
X57150Y-128588D03*
X157988Y106934D03*
X193383Y71021D03*
X211328Y128524D03*
X83566Y141224D03*
X38100Y-85725D03*
X127000Y34925D03*
X350838Y-46038D03*
X377825Y28575D03*
X249619Y104712D03*
X384175Y93663D03*
X242888Y58738D03*
X183198Y61595D03*
X193792Y144663D03*
X49721Y25543D03*
X106385Y90266D03*
X159058Y70745D03*
X173482Y52959D03*
X152273Y156591D03*
X226822Y102997D03*
X227013Y136525D03*
X42863Y-63500D03*
X46038Y-77788D03*
X203200Y158750D03*
X206375Y133350D03*
X15875Y-66675D03*
X186218Y136902D03*
X153416Y137922D03*
X78795Y67751D03*
D13*
X42863Y-71438D03*
D14*
X173038Y-150813D03*
X206375Y-180975D03*
D12*
X104775Y106363D03*
X79375Y82550D03*
X84582Y64516D03*
X108014Y134366D03*
X222311Y98740D03*
X134366Y152400D03*
X37021Y25400D03*
X100584Y90250D03*
X68834Y67564D03*
X107878Y58492D03*
D14*
X103188Y142875D03*
X55563Y112713D03*
D12*
X180047Y131103D03*
X159004Y131445D03*
X166648Y137946D03*
X148526Y140208D03*
X171420Y141434D03*
X198438Y-122238D03*
X201613Y-136525D03*
D15*
X192088Y-152400D03*
X166688Y-133350D03*
D12*
X244094Y115888D03*
X161925Y-144463D03*
X149225Y-134938D03*
X163513Y-123825D03*
X122238Y106363D03*
X109538Y1588D03*
X122238Y-14288D03*
X131763Y-133350D03*
X228290Y111689D03*
X85725Y-79375D03*
X220348Y119504D03*
X90488Y-74613D03*
X164836Y100320D03*
X138113Y33338D03*
X152400Y6350D03*
X312738Y-17463D03*
X175006Y90170D03*
X139700Y26988D03*
X138113Y-3175D03*
X314325Y-23813D03*
X216027Y123698D03*
X119063Y9525D03*
X133350Y111125D03*
X114300Y4763D03*
X128588Y-20638D03*
M02*
