G04 EAGLE Gerber RS-274X export*
G75*
%MOMM*%
%FSLAX34Y34*%
%LPD*%
%IN*%
%IPPOS*%
%AMOC8*
5,1,8,0,0,1.08239X$1,22.5*%
G01*
%ADD10C,0.254000*%


D10*
X425543Y-20939D02*
X425543Y-15733D01*
X425415Y-10529D01*
X425160Y-5329D01*
X424777Y-138D01*
X424267Y5043D01*
X423630Y10210D01*
X422866Y15359D01*
X421976Y20488D01*
X420960Y25594D01*
X419820Y30673D01*
X418555Y35723D01*
X417166Y40740D01*
X415655Y45721D01*
X414022Y50664D01*
X412268Y55566D01*
X410395Y60423D01*
X408403Y65232D01*
X406293Y69991D01*
X404067Y74697D01*
X401727Y79347D01*
X399273Y83938D01*
X396707Y88468D01*
X394031Y92933D01*
X391246Y97331D01*
X388354Y101659D01*
X385356Y105915D01*
X382255Y110097D01*
X379052Y114201D01*
X375750Y118225D01*
X372350Y122167D01*
X368854Y126024D01*
X365264Y129794D01*
X361583Y133475D01*
X357813Y137065D01*
X353956Y140561D01*
X350014Y143961D01*
X345990Y147263D01*
X341886Y150466D01*
X337704Y153567D01*
X333448Y156565D01*
X329120Y159457D01*
X324722Y162242D01*
X320257Y164918D01*
X315727Y167484D01*
X311136Y169938D01*
X306486Y172278D01*
X301780Y174504D01*
X297021Y176614D01*
X292212Y178606D01*
X287355Y180479D01*
X282453Y182233D01*
X277510Y183866D01*
X272529Y185377D01*
X267512Y186766D01*
X262462Y188031D01*
X257383Y189171D01*
X252277Y190187D01*
X247148Y191077D01*
X241999Y191841D01*
X236832Y192478D01*
X231651Y192988D01*
X226460Y193371D01*
X221260Y193626D01*
X216056Y193754D01*
X210850Y193754D01*
X205646Y193626D01*
X200447Y193371D01*
X195255Y192988D01*
X190074Y192478D01*
X184908Y191841D01*
X179758Y191077D01*
X174629Y190187D01*
X169524Y189171D01*
X164444Y188031D01*
X159395Y186766D01*
X154378Y185377D01*
X149396Y183866D01*
X144453Y182233D01*
X139552Y180479D01*
X134695Y178606D01*
X129885Y176614D01*
X125126Y174504D01*
X120420Y172278D01*
X115770Y169938D01*
X111179Y167484D01*
X106650Y164918D01*
X102185Y162242D01*
X97787Y159457D01*
X93458Y156565D01*
X89202Y153567D01*
X85021Y150466D01*
X80917Y147263D01*
X76893Y143961D01*
X72951Y140561D01*
X69094Y137065D01*
X65323Y133475D01*
X61642Y129794D01*
X58053Y126024D01*
X54557Y122167D01*
X51157Y118225D01*
X47854Y114201D01*
X44651Y110097D01*
X41550Y105915D01*
X38553Y101659D01*
X35661Y97331D01*
X32876Y92933D01*
X30199Y88468D01*
X27634Y83938D01*
X25180Y79347D01*
X22839Y74697D01*
X20613Y69991D01*
X18504Y65232D01*
X16512Y60423D01*
X14638Y55566D01*
X12884Y50664D01*
X11251Y45721D01*
X9740Y40740D01*
X8352Y35723D01*
X7087Y30673D01*
X5946Y25594D01*
X4931Y20488D01*
X4041Y15359D01*
X3277Y10210D01*
X2640Y5043D01*
X2129Y-138D01*
X1746Y-5329D01*
X1491Y-10529D01*
X1363Y-15733D01*
X1363Y-20939D01*
X1491Y-26143D01*
X1746Y-31342D01*
X2129Y-36534D01*
X2640Y-41715D01*
X3277Y-46881D01*
X4041Y-52031D01*
X4931Y-57160D01*
X5946Y-62265D01*
X7087Y-67345D01*
X8352Y-72394D01*
X9740Y-77411D01*
X11251Y-82393D01*
X12884Y-87336D01*
X14638Y-92237D01*
X16512Y-97094D01*
X18504Y-101904D01*
X20613Y-106663D01*
X22839Y-111369D01*
X25180Y-116019D01*
X27634Y-120610D01*
X30199Y-125139D01*
X32876Y-129604D01*
X35661Y-134002D01*
X38553Y-138331D01*
X41550Y-142587D01*
X44651Y-146768D01*
X47854Y-150872D01*
X51157Y-154896D01*
X54557Y-158838D01*
X58053Y-162695D01*
X61642Y-166466D01*
X65323Y-170147D01*
X69094Y-173736D01*
X72951Y-177232D01*
X76893Y-180632D01*
X80917Y-183935D01*
X85021Y-187138D01*
X89202Y-190239D01*
X93458Y-193236D01*
X97787Y-196128D01*
X102185Y-198913D01*
X106650Y-201590D01*
X111179Y-204155D01*
X115770Y-206609D01*
X120420Y-208950D01*
X125126Y-211176D01*
X129885Y-213285D01*
X134695Y-215277D01*
X139552Y-217151D01*
X144453Y-218905D01*
X149396Y-220538D01*
X154378Y-222049D01*
X159395Y-223437D01*
X164444Y-224702D01*
X169524Y-225843D01*
X174629Y-226858D01*
X179758Y-227748D01*
X184908Y-228512D01*
X190074Y-229149D01*
X195255Y-229660D01*
X200447Y-230043D01*
X205646Y-230298D01*
X210850Y-230426D01*
X216056Y-230426D01*
X221260Y-230298D01*
X226460Y-230043D01*
X231651Y-229660D01*
X236832Y-229149D01*
X241999Y-228512D01*
X247148Y-227748D01*
X252277Y-226858D01*
X257383Y-225843D01*
X262462Y-224702D01*
X267512Y-223437D01*
X272529Y-222049D01*
X277510Y-220538D01*
X282453Y-218905D01*
X287355Y-217151D01*
X292212Y-215277D01*
X297021Y-213285D01*
X301780Y-211176D01*
X306486Y-208950D01*
X311136Y-206609D01*
X315727Y-204155D01*
X320257Y-201590D01*
X324722Y-198913D01*
X329120Y-196128D01*
X333448Y-193236D01*
X337704Y-190239D01*
X341886Y-187138D01*
X345990Y-183935D01*
X350014Y-180632D01*
X353956Y-177232D01*
X357813Y-173736D01*
X361583Y-170147D01*
X365264Y-166466D01*
X368854Y-162695D01*
X372350Y-158838D01*
X375750Y-154896D01*
X379052Y-150872D01*
X382255Y-146768D01*
X385356Y-142587D01*
X388354Y-138331D01*
X391246Y-134002D01*
X394031Y-129604D01*
X396707Y-125139D01*
X399273Y-120610D01*
X401727Y-116019D01*
X404067Y-111369D01*
X406293Y-106663D01*
X408403Y-101904D01*
X410395Y-97094D01*
X412268Y-92237D01*
X414022Y-87336D01*
X415655Y-82393D01*
X417166Y-77411D01*
X418555Y-72394D01*
X419820Y-67345D01*
X420960Y-62265D01*
X421976Y-57160D01*
X422866Y-52031D01*
X423630Y-46881D01*
X424267Y-41715D01*
X424777Y-36534D01*
X425160Y-31342D01*
X425415Y-26143D01*
X425543Y-20939D01*
X17813Y-52050D02*
X17822Y-52268D01*
X17850Y-52484D01*
X17898Y-52697D01*
X17963Y-52905D01*
X18047Y-53107D01*
X18147Y-53300D01*
X18265Y-53484D01*
X18397Y-53657D01*
X18545Y-53818D01*
X18706Y-53965D01*
X18879Y-54098D01*
X19063Y-54215D01*
X19256Y-54316D01*
X19457Y-54399D01*
X19665Y-54465D01*
X19878Y-54512D01*
X20095Y-54541D01*
X20313Y-54550D01*
X27313Y-54550D01*
X27530Y-54541D01*
X27747Y-54512D01*
X27960Y-54465D01*
X28168Y-54399D01*
X28369Y-54316D01*
X28563Y-54215D01*
X28746Y-54098D01*
X28919Y-53965D01*
X29080Y-53818D01*
X29228Y-53657D01*
X29360Y-53484D01*
X29478Y-53300D01*
X29578Y-53107D01*
X29662Y-52905D01*
X29727Y-52697D01*
X29775Y-52484D01*
X29803Y-52268D01*
X29813Y-52050D01*
X29803Y-51832D01*
X29775Y-51616D01*
X29727Y-51403D01*
X29662Y-51195D01*
X29578Y-50993D01*
X29478Y-50800D01*
X29360Y-50616D01*
X29228Y-50443D01*
X29080Y-50282D01*
X28919Y-50135D01*
X28746Y-50002D01*
X28563Y-49885D01*
X28369Y-49784D01*
X28168Y-49701D01*
X27960Y-49635D01*
X27747Y-49588D01*
X27530Y-49560D01*
X27313Y-49550D01*
X20313Y-49550D01*
X20095Y-49560D01*
X19878Y-49588D01*
X19665Y-49635D01*
X19457Y-49701D01*
X19256Y-49784D01*
X19063Y-49885D01*
X18879Y-50002D01*
X18706Y-50135D01*
X18545Y-50282D01*
X18397Y-50443D01*
X18265Y-50616D01*
X18147Y-50800D01*
X18047Y-50993D01*
X17963Y-51195D01*
X17898Y-51403D01*
X17850Y-51616D01*
X17822Y-51832D01*
X17813Y-52050D01*
X17813Y13950D02*
X17822Y13732D01*
X17850Y13516D01*
X17898Y13303D01*
X17963Y13095D01*
X18047Y12893D01*
X18147Y12700D01*
X18265Y12516D01*
X18397Y12343D01*
X18545Y12182D01*
X18706Y12035D01*
X18879Y11902D01*
X19063Y11785D01*
X19256Y11684D01*
X19457Y11601D01*
X19665Y11535D01*
X19878Y11488D01*
X20095Y11460D01*
X20313Y11450D01*
X27313Y11450D01*
X27530Y11460D01*
X27747Y11488D01*
X27960Y11535D01*
X28168Y11601D01*
X28369Y11684D01*
X28563Y11785D01*
X28746Y11902D01*
X28919Y12035D01*
X29080Y12182D01*
X29228Y12343D01*
X29360Y12516D01*
X29478Y12700D01*
X29578Y12893D01*
X29662Y13095D01*
X29727Y13303D01*
X29775Y13516D01*
X29803Y13732D01*
X29813Y13950D01*
X29803Y14168D01*
X29775Y14384D01*
X29727Y14597D01*
X29662Y14805D01*
X29578Y15007D01*
X29478Y15200D01*
X29360Y15384D01*
X29228Y15557D01*
X29080Y15718D01*
X28919Y15865D01*
X28746Y15998D01*
X28563Y16115D01*
X28369Y16216D01*
X28168Y16299D01*
X27960Y16365D01*
X27747Y16412D01*
X27530Y16441D01*
X27313Y16450D01*
X20313Y16450D01*
X20095Y16441D01*
X19878Y16412D01*
X19665Y16365D01*
X19457Y16299D01*
X19256Y16216D01*
X19063Y16115D01*
X18879Y15998D01*
X18706Y15865D01*
X18545Y15718D01*
X18397Y15557D01*
X18265Y15384D01*
X18147Y15200D01*
X18047Y15007D01*
X17963Y14805D01*
X17898Y14597D01*
X17850Y14384D01*
X17822Y14168D01*
X17813Y13950D01*
X141486Y-38448D02*
X192673Y-89636D01*
X193691Y-90179D01*
X195795Y-91130D01*
X197974Y-91894D01*
X200211Y-92466D01*
X202489Y-92840D01*
X204792Y-93014D01*
X207100Y-92987D01*
X209398Y-92759D01*
X211667Y-92332D01*
X213890Y-91708D01*
X216051Y-90893D01*
X218132Y-89893D01*
X220118Y-88715D01*
X221994Y-87369D01*
X223745Y-85864D01*
X280681Y-29005D01*
X281906Y-27424D01*
X283229Y-25403D01*
X284371Y-23275D01*
X285323Y-21055D01*
X286077Y-18761D01*
X286629Y-16409D01*
X286974Y-14019D01*
X287109Y-11607D01*
X287034Y-9193D01*
X286748Y-6794D01*
X286255Y-4430D01*
X285557Y-2118D01*
X284660Y125D01*
X283572Y2281D01*
X282299Y4334D01*
X280853Y6269D01*
X279243Y8069D01*
X240171Y46984D01*
X238501Y48504D01*
X236565Y49989D01*
X234507Y51300D01*
X232343Y52427D01*
X230089Y53360D01*
X227763Y54094D01*
X225381Y54622D01*
X222962Y54940D01*
X220525Y55047D01*
X218087Y54940D01*
X215669Y54622D01*
X213287Y54094D01*
X210960Y53360D01*
X208706Y52427D01*
X206542Y51300D01*
X204484Y49989D01*
X202549Y48504D01*
X200750Y46856D01*
X148290Y-5604D01*
X148185Y-5703D01*
X146417Y-7530D01*
X144816Y-9503D01*
X143392Y-11609D01*
X142157Y-13831D01*
X141121Y-16152D01*
X140291Y-18554D01*
X139673Y-21020D01*
X139273Y-23530D01*
X139093Y-26065D01*
X139134Y-28606D01*
X139397Y-31135D01*
X139880Y-33630D01*
X140578Y-36074D01*
X141486Y-38448D01*
X409893Y18601D02*
X409822Y17706D01*
X409682Y16818D01*
X409472Y15945D01*
X409194Y15091D01*
X408851Y14261D01*
X408443Y13461D01*
X407974Y12695D01*
X407446Y11968D01*
X406862Y11285D01*
X406227Y10650D01*
X405544Y10067D01*
X404818Y9539D01*
X404052Y9070D01*
X403251Y8662D01*
X402422Y8318D01*
X401567Y8041D01*
X400694Y7831D01*
X399807Y7690D01*
X398912Y7620D01*
X398013Y7620D01*
X397118Y7690D01*
X396231Y7831D01*
X395358Y8041D01*
X394503Y8318D01*
X393674Y8662D01*
X392873Y9070D01*
X392107Y9539D01*
X391381Y10067D01*
X390698Y10650D01*
X390063Y11285D01*
X389479Y11968D01*
X388951Y12695D01*
X388482Y13461D01*
X388074Y14261D01*
X387731Y15091D01*
X387453Y15945D01*
X387243Y16818D01*
X387103Y17706D01*
X387033Y18601D01*
X387033Y19499D01*
X387103Y20395D01*
X387243Y21282D01*
X387453Y22155D01*
X387731Y23009D01*
X388074Y23839D01*
X388482Y24639D01*
X388951Y25405D01*
X389479Y26132D01*
X390063Y26815D01*
X390698Y27450D01*
X391381Y28033D01*
X392107Y28561D01*
X392873Y29030D01*
X393674Y29438D01*
X394503Y29782D01*
X395358Y30059D01*
X396231Y30269D01*
X397118Y30410D01*
X398013Y30480D01*
X398912Y30480D01*
X399807Y30410D01*
X400694Y30269D01*
X401567Y30059D01*
X402422Y29782D01*
X403251Y29438D01*
X404052Y29030D01*
X404818Y28561D01*
X405544Y28033D01*
X406227Y27450D01*
X406862Y26815D01*
X407446Y26132D01*
X407974Y25405D01*
X408443Y24639D01*
X408851Y23839D01*
X409194Y23009D01*
X409472Y22155D01*
X409682Y21282D01*
X409822Y20395D01*
X409893Y19499D01*
X409893Y18601D01*
X233680Y172588D02*
X233610Y171693D01*
X233469Y170806D01*
X233259Y169933D01*
X232982Y169078D01*
X232638Y168249D01*
X232230Y167448D01*
X231761Y166682D01*
X231233Y165956D01*
X230650Y165273D01*
X230015Y164638D01*
X229332Y164054D01*
X228605Y163526D01*
X227839Y163057D01*
X227039Y162649D01*
X226209Y162306D01*
X225355Y162028D01*
X224482Y161818D01*
X223595Y161678D01*
X222699Y161608D01*
X221801Y161608D01*
X220906Y161678D01*
X220018Y161818D01*
X219145Y162028D01*
X218291Y162306D01*
X217461Y162649D01*
X216661Y163057D01*
X215895Y163526D01*
X215168Y164054D01*
X214485Y164638D01*
X213850Y165273D01*
X213267Y165956D01*
X212739Y166682D01*
X212270Y167448D01*
X211862Y168249D01*
X211518Y169078D01*
X211241Y169933D01*
X211031Y170806D01*
X210890Y171693D01*
X210820Y172588D01*
X210820Y173487D01*
X210890Y174382D01*
X211031Y175269D01*
X211241Y176142D01*
X211518Y176997D01*
X211862Y177826D01*
X212270Y178627D01*
X212739Y179393D01*
X213267Y180119D01*
X213850Y180802D01*
X214485Y181437D01*
X215168Y182021D01*
X215895Y182549D01*
X216661Y183018D01*
X217461Y183426D01*
X218291Y183769D01*
X219145Y184047D01*
X220018Y184257D01*
X220906Y184397D01*
X221801Y184468D01*
X222699Y184468D01*
X223595Y184397D01*
X224482Y184257D01*
X225355Y184047D01*
X226209Y183769D01*
X227039Y183426D01*
X227839Y183018D01*
X228605Y182549D01*
X229332Y182021D01*
X230015Y181437D01*
X230650Y180802D01*
X231233Y180119D01*
X231761Y179393D01*
X232230Y178627D01*
X232638Y177826D01*
X232982Y176997D01*
X233259Y176142D01*
X233469Y175269D01*
X233610Y174382D01*
X233680Y173487D01*
X233680Y172588D01*
X93980Y-160787D02*
X93910Y-161682D01*
X93769Y-162569D01*
X93559Y-163442D01*
X93282Y-164297D01*
X92938Y-165126D01*
X92530Y-165927D01*
X92061Y-166693D01*
X91533Y-167419D01*
X90950Y-168102D01*
X90315Y-168737D01*
X89632Y-169321D01*
X88905Y-169849D01*
X88139Y-170318D01*
X87339Y-170726D01*
X86509Y-171069D01*
X85655Y-171347D01*
X84782Y-171557D01*
X83895Y-171697D01*
X82999Y-171768D01*
X82101Y-171768D01*
X81206Y-171697D01*
X80318Y-171557D01*
X79445Y-171347D01*
X78591Y-171069D01*
X77761Y-170726D01*
X76961Y-170318D01*
X76195Y-169849D01*
X75468Y-169321D01*
X74785Y-168737D01*
X74150Y-168102D01*
X73567Y-167419D01*
X73039Y-166693D01*
X72570Y-165927D01*
X72162Y-165126D01*
X71818Y-164297D01*
X71541Y-163442D01*
X71331Y-162569D01*
X71190Y-161682D01*
X71120Y-160787D01*
X71120Y-159888D01*
X71190Y-158993D01*
X71331Y-158106D01*
X71541Y-157233D01*
X71818Y-156378D01*
X72162Y-155549D01*
X72570Y-154748D01*
X73039Y-153982D01*
X73567Y-153256D01*
X74150Y-152573D01*
X74785Y-151938D01*
X75468Y-151354D01*
X76195Y-150826D01*
X76961Y-150357D01*
X77761Y-149949D01*
X78591Y-149606D01*
X79445Y-149328D01*
X80318Y-149118D01*
X81206Y-148978D01*
X82101Y-148908D01*
X82999Y-148908D01*
X83895Y-148978D01*
X84782Y-149118D01*
X85655Y-149328D01*
X86509Y-149606D01*
X87339Y-149949D01*
X88139Y-150357D01*
X88905Y-150826D01*
X89632Y-151354D01*
X90315Y-151938D01*
X90950Y-152573D01*
X91533Y-153256D01*
X92061Y-153982D01*
X92530Y-154748D01*
X92938Y-155549D01*
X93282Y-156378D01*
X93559Y-157233D01*
X93769Y-158106D01*
X93910Y-158993D01*
X93980Y-159888D01*
X93980Y-160787D01*
X23616Y11450D02*
X23227Y11512D01*
X22853Y11633D01*
X22502Y11812D01*
X22184Y12043D01*
X21906Y12321D01*
X21674Y12640D01*
X21496Y12990D01*
X21374Y13365D01*
X21313Y13753D01*
X21313Y14147D01*
X21374Y14535D01*
X21496Y14910D01*
X21674Y15260D01*
X21906Y15579D01*
X22184Y15857D01*
X22502Y16088D01*
X22853Y16267D01*
X23227Y16388D01*
X23616Y16450D01*
X24009Y16450D01*
X24398Y16388D01*
X24772Y16267D01*
X25123Y16088D01*
X25441Y15857D01*
X25719Y15579D01*
X25951Y15260D01*
X26129Y14910D01*
X26251Y14535D01*
X26313Y14147D01*
X26313Y13753D01*
X26251Y13365D01*
X26129Y12990D01*
X25951Y12640D01*
X25719Y12321D01*
X25441Y12043D01*
X25123Y11812D01*
X24772Y11633D01*
X24398Y11512D01*
X24009Y11450D01*
X23616Y11450D01*
X23616Y-54550D02*
X23227Y-54488D01*
X22853Y-54367D01*
X22502Y-54188D01*
X22184Y-53957D01*
X21906Y-53679D01*
X21674Y-53360D01*
X21496Y-53010D01*
X21374Y-52635D01*
X21313Y-52247D01*
X21313Y-51853D01*
X21374Y-51465D01*
X21496Y-51090D01*
X21674Y-50740D01*
X21906Y-50421D01*
X22184Y-50143D01*
X22502Y-49912D01*
X22853Y-49733D01*
X23227Y-49612D01*
X23616Y-49550D01*
X24009Y-49550D01*
X24398Y-49612D01*
X24772Y-49733D01*
X25123Y-49912D01*
X25441Y-50143D01*
X25719Y-50421D01*
X25951Y-50740D01*
X26129Y-51090D01*
X26251Y-51465D01*
X26313Y-51853D01*
X26313Y-52247D01*
X26251Y-52635D01*
X26129Y-53010D01*
X25951Y-53360D01*
X25719Y-53679D01*
X25441Y-53957D01*
X25123Y-54188D01*
X24772Y-54367D01*
X24398Y-54488D01*
X24009Y-54550D01*
X23616Y-54550D01*
M02*
