G04 EAGLE Gerber RS-274X export*
G75*
%MOMM*%
%FSLAX34Y34*%
%LPD*%
%INSilkscreen Top*%
%IPPOS*%
%AMOC8*
5,1,8,0,0,1.08239X$1,22.5*%
G01*
%ADD10C,0.076200*%
%ADD11C,0.203200*%
%ADD12C,0.025400*%
%ADD13C,0.127000*%
%ADD14C,0.406400*%
%ADD15C,0.101600*%
%ADD16R,0.600000X1.100000*%
%ADD17R,0.050000X0.500000*%
%ADD18C,0.100000*%
%ADD19C,0.152400*%
%ADD20C,0.177800*%
%ADD21C,0.000000*%
%ADD22C,0.406400*%
%ADD23C,0.304800*%
%ADD24C,0.050800*%
%ADD25C,0.200000*%
%ADD26C,0.300000*%


D10*
X326255Y67783D02*
X327482Y67783D01*
X327482Y63691D01*
X325027Y63691D01*
X325027Y63690D02*
X324949Y63692D01*
X324871Y63697D01*
X324794Y63707D01*
X324717Y63720D01*
X324641Y63736D01*
X324566Y63756D01*
X324492Y63780D01*
X324419Y63807D01*
X324347Y63838D01*
X324277Y63872D01*
X324209Y63909D01*
X324142Y63950D01*
X324077Y63994D01*
X324015Y64040D01*
X323955Y64090D01*
X323897Y64142D01*
X323842Y64197D01*
X323790Y64255D01*
X323740Y64315D01*
X323694Y64377D01*
X323650Y64442D01*
X323609Y64509D01*
X323572Y64577D01*
X323538Y64647D01*
X323507Y64719D01*
X323480Y64792D01*
X323456Y64866D01*
X323436Y64941D01*
X323420Y65017D01*
X323407Y65094D01*
X323397Y65171D01*
X323392Y65249D01*
X323390Y65327D01*
X323390Y69420D01*
X323392Y69500D01*
X323398Y69580D01*
X323408Y69660D01*
X323421Y69739D01*
X323439Y69818D01*
X323460Y69895D01*
X323486Y69971D01*
X323515Y70046D01*
X323547Y70120D01*
X323583Y70192D01*
X323623Y70262D01*
X323666Y70329D01*
X323712Y70395D01*
X323762Y70458D01*
X323814Y70519D01*
X323869Y70578D01*
X323928Y70633D01*
X323988Y70685D01*
X324052Y70735D01*
X324118Y70781D01*
X324185Y70824D01*
X324255Y70864D01*
X324327Y70900D01*
X324401Y70932D01*
X324475Y70961D01*
X324552Y70987D01*
X324629Y71008D01*
X324708Y71026D01*
X324787Y71039D01*
X324867Y71049D01*
X324947Y71055D01*
X325027Y71057D01*
X327482Y71057D01*
X331244Y71057D02*
X331244Y63691D01*
X331244Y71057D02*
X333290Y71057D01*
X333290Y71056D02*
X333379Y71054D01*
X333468Y71048D01*
X333557Y71038D01*
X333645Y71025D01*
X333733Y71008D01*
X333820Y70986D01*
X333905Y70961D01*
X333990Y70933D01*
X334073Y70900D01*
X334155Y70864D01*
X334235Y70825D01*
X334313Y70782D01*
X334389Y70736D01*
X334464Y70686D01*
X334536Y70633D01*
X334605Y70577D01*
X334672Y70518D01*
X334737Y70457D01*
X334798Y70392D01*
X334857Y70325D01*
X334913Y70256D01*
X334966Y70184D01*
X335016Y70109D01*
X335062Y70033D01*
X335105Y69955D01*
X335144Y69875D01*
X335180Y69793D01*
X335213Y69710D01*
X335241Y69625D01*
X335266Y69540D01*
X335288Y69453D01*
X335305Y69365D01*
X335318Y69277D01*
X335328Y69188D01*
X335334Y69099D01*
X335336Y69010D01*
X335334Y68921D01*
X335328Y68832D01*
X335318Y68743D01*
X335305Y68655D01*
X335288Y68567D01*
X335266Y68480D01*
X335241Y68395D01*
X335213Y68310D01*
X335180Y68227D01*
X335144Y68145D01*
X335105Y68065D01*
X335062Y67987D01*
X335016Y67911D01*
X334966Y67836D01*
X334913Y67764D01*
X334857Y67695D01*
X334798Y67628D01*
X334737Y67563D01*
X334672Y67502D01*
X334605Y67443D01*
X334536Y67387D01*
X334464Y67334D01*
X334389Y67284D01*
X334313Y67238D01*
X334235Y67195D01*
X334155Y67156D01*
X334073Y67120D01*
X333990Y67087D01*
X333905Y67059D01*
X333820Y67034D01*
X333733Y67012D01*
X333645Y66995D01*
X333557Y66982D01*
X333468Y66972D01*
X333379Y66966D01*
X333290Y66964D01*
X331244Y66964D01*
X333699Y66964D02*
X335336Y63691D01*
X338099Y63691D02*
X340554Y71057D01*
X343010Y63691D01*
X342396Y65532D02*
X338713Y65532D01*
X346067Y63691D02*
X346067Y71057D01*
X350159Y63691D01*
X350159Y71057D01*
X353870Y71057D02*
X353870Y65737D01*
X353872Y65648D01*
X353878Y65559D01*
X353888Y65470D01*
X353901Y65382D01*
X353918Y65294D01*
X353940Y65207D01*
X353965Y65122D01*
X353993Y65037D01*
X354026Y64954D01*
X354062Y64872D01*
X354101Y64792D01*
X354144Y64714D01*
X354190Y64638D01*
X354240Y64563D01*
X354293Y64491D01*
X354349Y64422D01*
X354408Y64355D01*
X354469Y64290D01*
X354534Y64229D01*
X354601Y64170D01*
X354670Y64114D01*
X354742Y64061D01*
X354817Y64011D01*
X354893Y63965D01*
X354971Y63922D01*
X355051Y63883D01*
X355133Y63847D01*
X355216Y63814D01*
X355301Y63786D01*
X355386Y63761D01*
X355473Y63739D01*
X355561Y63722D01*
X355649Y63709D01*
X355738Y63699D01*
X355827Y63693D01*
X355916Y63691D01*
X356005Y63693D01*
X356094Y63699D01*
X356183Y63709D01*
X356271Y63722D01*
X356359Y63739D01*
X356446Y63761D01*
X356531Y63786D01*
X356616Y63814D01*
X356699Y63847D01*
X356781Y63883D01*
X356861Y63922D01*
X356939Y63965D01*
X357015Y64011D01*
X357090Y64061D01*
X357162Y64114D01*
X357231Y64170D01*
X357298Y64229D01*
X357363Y64290D01*
X357424Y64355D01*
X357483Y64422D01*
X357539Y64491D01*
X357592Y64563D01*
X357642Y64638D01*
X357688Y64714D01*
X357731Y64792D01*
X357770Y64872D01*
X357806Y64954D01*
X357839Y65037D01*
X357867Y65122D01*
X357892Y65207D01*
X357914Y65294D01*
X357931Y65382D01*
X357944Y65470D01*
X357954Y65559D01*
X357960Y65648D01*
X357962Y65737D01*
X357962Y71057D01*
X361689Y71057D02*
X361689Y63691D01*
X364962Y63691D01*
X367769Y65737D02*
X367769Y69010D01*
X367771Y69099D01*
X367777Y69188D01*
X367787Y69277D01*
X367800Y69365D01*
X367817Y69453D01*
X367839Y69540D01*
X367864Y69625D01*
X367892Y69710D01*
X367925Y69793D01*
X367961Y69875D01*
X368000Y69955D01*
X368043Y70033D01*
X368089Y70109D01*
X368139Y70184D01*
X368192Y70256D01*
X368248Y70325D01*
X368307Y70392D01*
X368368Y70457D01*
X368433Y70518D01*
X368500Y70577D01*
X368569Y70633D01*
X368641Y70686D01*
X368716Y70736D01*
X368792Y70782D01*
X368870Y70825D01*
X368950Y70864D01*
X369032Y70900D01*
X369115Y70933D01*
X369200Y70961D01*
X369285Y70986D01*
X369372Y71008D01*
X369460Y71025D01*
X369548Y71038D01*
X369637Y71048D01*
X369726Y71054D01*
X369815Y71056D01*
X369904Y71054D01*
X369993Y71048D01*
X370082Y71038D01*
X370170Y71025D01*
X370258Y71008D01*
X370345Y70986D01*
X370430Y70961D01*
X370515Y70933D01*
X370598Y70900D01*
X370680Y70864D01*
X370760Y70825D01*
X370838Y70782D01*
X370914Y70736D01*
X370989Y70686D01*
X371061Y70633D01*
X371130Y70577D01*
X371197Y70518D01*
X371262Y70457D01*
X371323Y70392D01*
X371382Y70325D01*
X371438Y70256D01*
X371491Y70184D01*
X371541Y70109D01*
X371587Y70033D01*
X371630Y69955D01*
X371669Y69875D01*
X371705Y69793D01*
X371738Y69710D01*
X371766Y69625D01*
X371791Y69540D01*
X371813Y69453D01*
X371830Y69365D01*
X371843Y69277D01*
X371853Y69188D01*
X371859Y69099D01*
X371861Y69010D01*
X371861Y65737D01*
X371859Y65648D01*
X371853Y65559D01*
X371843Y65470D01*
X371830Y65382D01*
X371813Y65294D01*
X371791Y65207D01*
X371766Y65122D01*
X371738Y65037D01*
X371705Y64954D01*
X371669Y64872D01*
X371630Y64792D01*
X371587Y64714D01*
X371541Y64638D01*
X371491Y64563D01*
X371438Y64491D01*
X371382Y64422D01*
X371323Y64355D01*
X371262Y64290D01*
X371197Y64229D01*
X371130Y64170D01*
X371061Y64114D01*
X370989Y64061D01*
X370914Y64011D01*
X370838Y63965D01*
X370760Y63922D01*
X370680Y63883D01*
X370598Y63847D01*
X370515Y63814D01*
X370430Y63786D01*
X370345Y63761D01*
X370258Y63739D01*
X370170Y63722D01*
X370082Y63709D01*
X369993Y63699D01*
X369904Y63693D01*
X369815Y63691D01*
X369726Y63693D01*
X369637Y63699D01*
X369548Y63709D01*
X369460Y63722D01*
X369372Y63739D01*
X369285Y63761D01*
X369200Y63786D01*
X369115Y63814D01*
X369032Y63847D01*
X368950Y63883D01*
X368870Y63922D01*
X368792Y63965D01*
X368716Y64011D01*
X368641Y64061D01*
X368569Y64114D01*
X368500Y64170D01*
X368433Y64229D01*
X368368Y64290D01*
X368307Y64355D01*
X368248Y64422D01*
X368192Y64491D01*
X368139Y64563D01*
X368089Y64638D01*
X368043Y64714D01*
X368000Y64792D01*
X367961Y64872D01*
X367925Y64954D01*
X367892Y65037D01*
X367864Y65122D01*
X367839Y65207D01*
X367817Y65294D01*
X367800Y65382D01*
X367787Y65470D01*
X367777Y65559D01*
X367771Y65648D01*
X367769Y65737D01*
X375446Y67783D02*
X377492Y67783D01*
X377581Y67781D01*
X377670Y67775D01*
X377759Y67765D01*
X377847Y67752D01*
X377935Y67735D01*
X378022Y67713D01*
X378107Y67688D01*
X378192Y67660D01*
X378275Y67627D01*
X378357Y67591D01*
X378437Y67552D01*
X378515Y67509D01*
X378591Y67463D01*
X378666Y67413D01*
X378738Y67360D01*
X378807Y67304D01*
X378874Y67245D01*
X378939Y67184D01*
X379000Y67119D01*
X379059Y67052D01*
X379115Y66983D01*
X379168Y66911D01*
X379218Y66836D01*
X379264Y66760D01*
X379307Y66682D01*
X379346Y66602D01*
X379382Y66520D01*
X379415Y66437D01*
X379443Y66352D01*
X379468Y66267D01*
X379490Y66180D01*
X379507Y66092D01*
X379520Y66004D01*
X379530Y65915D01*
X379536Y65826D01*
X379538Y65737D01*
X379536Y65648D01*
X379530Y65559D01*
X379520Y65470D01*
X379507Y65382D01*
X379490Y65294D01*
X379468Y65207D01*
X379443Y65122D01*
X379415Y65037D01*
X379382Y64954D01*
X379346Y64872D01*
X379307Y64792D01*
X379264Y64714D01*
X379218Y64638D01*
X379168Y64563D01*
X379115Y64491D01*
X379059Y64422D01*
X379000Y64355D01*
X378939Y64290D01*
X378874Y64229D01*
X378807Y64170D01*
X378738Y64114D01*
X378666Y64061D01*
X378591Y64011D01*
X378515Y63965D01*
X378437Y63922D01*
X378357Y63883D01*
X378275Y63847D01*
X378192Y63814D01*
X378107Y63786D01*
X378022Y63761D01*
X377935Y63739D01*
X377847Y63722D01*
X377759Y63709D01*
X377670Y63699D01*
X377581Y63693D01*
X377492Y63691D01*
X375446Y63691D01*
X375446Y71057D01*
X377492Y71057D01*
X377571Y71055D01*
X377650Y71049D01*
X377729Y71040D01*
X377807Y71027D01*
X377884Y71009D01*
X377960Y70989D01*
X378035Y70964D01*
X378109Y70936D01*
X378182Y70905D01*
X378253Y70869D01*
X378322Y70831D01*
X378389Y70789D01*
X378454Y70744D01*
X378517Y70696D01*
X378578Y70645D01*
X378635Y70591D01*
X378691Y70535D01*
X378743Y70476D01*
X378793Y70414D01*
X378839Y70350D01*
X378883Y70284D01*
X378923Y70216D01*
X378959Y70146D01*
X378993Y70074D01*
X379023Y70000D01*
X379049Y69926D01*
X379072Y69850D01*
X379090Y69773D01*
X379106Y69696D01*
X379117Y69617D01*
X379125Y69539D01*
X379129Y69460D01*
X379129Y69380D01*
X379125Y69301D01*
X379117Y69223D01*
X379106Y69144D01*
X379090Y69067D01*
X379072Y68990D01*
X379049Y68914D01*
X379023Y68840D01*
X378993Y68766D01*
X378959Y68694D01*
X378923Y68624D01*
X378883Y68556D01*
X378839Y68490D01*
X378793Y68426D01*
X378743Y68364D01*
X378691Y68305D01*
X378635Y68249D01*
X378578Y68195D01*
X378517Y68144D01*
X378454Y68096D01*
X378389Y68051D01*
X378322Y68009D01*
X378253Y67971D01*
X378182Y67935D01*
X378109Y67904D01*
X378035Y67876D01*
X377960Y67851D01*
X377884Y67831D01*
X377807Y67813D01*
X377729Y67800D01*
X377650Y67791D01*
X377571Y67785D01*
X377492Y67783D01*
X382399Y69010D02*
X382399Y65737D01*
X382399Y69010D02*
X382401Y69099D01*
X382407Y69188D01*
X382417Y69277D01*
X382430Y69365D01*
X382447Y69453D01*
X382469Y69540D01*
X382494Y69625D01*
X382522Y69710D01*
X382555Y69793D01*
X382591Y69875D01*
X382630Y69955D01*
X382673Y70033D01*
X382719Y70109D01*
X382769Y70184D01*
X382822Y70256D01*
X382878Y70325D01*
X382937Y70392D01*
X382998Y70457D01*
X383063Y70518D01*
X383130Y70577D01*
X383199Y70633D01*
X383271Y70686D01*
X383346Y70736D01*
X383422Y70782D01*
X383500Y70825D01*
X383580Y70864D01*
X383662Y70900D01*
X383745Y70933D01*
X383830Y70961D01*
X383915Y70986D01*
X384002Y71008D01*
X384090Y71025D01*
X384178Y71038D01*
X384267Y71048D01*
X384356Y71054D01*
X384445Y71056D01*
X384534Y71054D01*
X384623Y71048D01*
X384712Y71038D01*
X384800Y71025D01*
X384888Y71008D01*
X384975Y70986D01*
X385060Y70961D01*
X385145Y70933D01*
X385228Y70900D01*
X385310Y70864D01*
X385390Y70825D01*
X385468Y70782D01*
X385544Y70736D01*
X385619Y70686D01*
X385691Y70633D01*
X385760Y70577D01*
X385827Y70518D01*
X385892Y70457D01*
X385953Y70392D01*
X386012Y70325D01*
X386068Y70256D01*
X386121Y70184D01*
X386171Y70109D01*
X386217Y70033D01*
X386260Y69955D01*
X386299Y69875D01*
X386335Y69793D01*
X386368Y69710D01*
X386396Y69625D01*
X386421Y69540D01*
X386443Y69453D01*
X386460Y69365D01*
X386473Y69277D01*
X386483Y69188D01*
X386489Y69099D01*
X386491Y69010D01*
X386491Y65737D01*
X386489Y65648D01*
X386483Y65559D01*
X386473Y65470D01*
X386460Y65382D01*
X386443Y65294D01*
X386421Y65207D01*
X386396Y65122D01*
X386368Y65037D01*
X386335Y64954D01*
X386299Y64872D01*
X386260Y64792D01*
X386217Y64714D01*
X386171Y64638D01*
X386121Y64563D01*
X386068Y64491D01*
X386012Y64422D01*
X385953Y64355D01*
X385892Y64290D01*
X385827Y64229D01*
X385760Y64170D01*
X385691Y64114D01*
X385619Y64061D01*
X385544Y64011D01*
X385468Y63965D01*
X385390Y63922D01*
X385310Y63883D01*
X385228Y63847D01*
X385145Y63814D01*
X385060Y63786D01*
X384975Y63761D01*
X384888Y63739D01*
X384800Y63722D01*
X384712Y63709D01*
X384623Y63699D01*
X384534Y63693D01*
X384445Y63691D01*
X384356Y63693D01*
X384267Y63699D01*
X384178Y63709D01*
X384090Y63722D01*
X384002Y63739D01*
X383915Y63761D01*
X383830Y63786D01*
X383745Y63814D01*
X383662Y63847D01*
X383580Y63883D01*
X383500Y63922D01*
X383422Y63965D01*
X383346Y64011D01*
X383271Y64061D01*
X383199Y64114D01*
X383130Y64170D01*
X383063Y64229D01*
X382998Y64290D01*
X382937Y64355D01*
X382878Y64422D01*
X382822Y64491D01*
X382769Y64563D01*
X382719Y64638D01*
X382673Y64714D01*
X382630Y64792D01*
X382591Y64872D01*
X382555Y64954D01*
X382522Y65037D01*
X382494Y65122D01*
X382469Y65207D01*
X382447Y65294D01*
X382430Y65382D01*
X382417Y65470D01*
X382407Y65559D01*
X382401Y65648D01*
X382399Y65737D01*
X391273Y63691D02*
X391273Y71057D01*
X389227Y71057D02*
X393319Y71057D01*
X325845Y52474D02*
X323390Y59840D01*
X328301Y59840D02*
X325845Y52474D01*
X331115Y58203D02*
X333161Y59840D01*
X333161Y52474D01*
X331115Y52474D02*
X335207Y52474D01*
X338077Y52474D02*
X338077Y52883D01*
X338486Y52883D01*
X338486Y52474D01*
X338077Y52474D01*
X341356Y58203D02*
X343402Y59840D01*
X343402Y52474D01*
X341356Y52474D02*
X345448Y52474D01*
X325845Y48623D02*
X325845Y42894D01*
X325846Y42894D02*
X325844Y42816D01*
X325839Y42738D01*
X325829Y42661D01*
X325816Y42584D01*
X325800Y42508D01*
X325780Y42433D01*
X325756Y42359D01*
X325729Y42286D01*
X325698Y42214D01*
X325664Y42144D01*
X325627Y42076D01*
X325586Y42009D01*
X325542Y41944D01*
X325496Y41882D01*
X325446Y41822D01*
X325394Y41764D01*
X325339Y41709D01*
X325281Y41657D01*
X325221Y41607D01*
X325159Y41561D01*
X325094Y41517D01*
X325028Y41476D01*
X324959Y41439D01*
X324889Y41405D01*
X324817Y41374D01*
X324744Y41347D01*
X324670Y41323D01*
X324595Y41303D01*
X324519Y41287D01*
X324442Y41274D01*
X324365Y41264D01*
X324287Y41259D01*
X324209Y41257D01*
X323390Y41257D01*
X330593Y44122D02*
X332434Y44122D01*
X330593Y44122D02*
X330518Y44120D01*
X330443Y44114D01*
X330369Y44104D01*
X330295Y44091D01*
X330222Y44073D01*
X330150Y44052D01*
X330080Y44027D01*
X330011Y43998D01*
X329943Y43966D01*
X329877Y43930D01*
X329813Y43891D01*
X329751Y43849D01*
X329692Y43803D01*
X329635Y43754D01*
X329580Y43703D01*
X329529Y43648D01*
X329480Y43591D01*
X329434Y43532D01*
X329392Y43470D01*
X329353Y43406D01*
X329317Y43340D01*
X329285Y43272D01*
X329256Y43203D01*
X329231Y43133D01*
X329210Y43061D01*
X329192Y42988D01*
X329179Y42914D01*
X329169Y42840D01*
X329163Y42765D01*
X329161Y42690D01*
X329163Y42615D01*
X329169Y42540D01*
X329179Y42466D01*
X329192Y42392D01*
X329210Y42319D01*
X329231Y42247D01*
X329256Y42177D01*
X329285Y42108D01*
X329317Y42040D01*
X329353Y41974D01*
X329392Y41910D01*
X329434Y41848D01*
X329480Y41789D01*
X329529Y41732D01*
X329580Y41677D01*
X329635Y41626D01*
X329692Y41577D01*
X329751Y41531D01*
X329813Y41489D01*
X329877Y41450D01*
X329943Y41414D01*
X330011Y41382D01*
X330080Y41353D01*
X330150Y41328D01*
X330222Y41307D01*
X330295Y41289D01*
X330369Y41276D01*
X330443Y41266D01*
X330518Y41260D01*
X330593Y41258D01*
X330593Y41257D02*
X332434Y41257D01*
X332434Y44940D01*
X332435Y44940D02*
X332433Y45009D01*
X332427Y45077D01*
X332418Y45146D01*
X332404Y45213D01*
X332387Y45280D01*
X332366Y45346D01*
X332342Y45410D01*
X332313Y45473D01*
X332282Y45534D01*
X332247Y45593D01*
X332209Y45651D01*
X332167Y45706D01*
X332123Y45758D01*
X332075Y45808D01*
X332025Y45856D01*
X331973Y45900D01*
X331918Y45942D01*
X331860Y45980D01*
X331801Y46015D01*
X331740Y46046D01*
X331677Y46075D01*
X331613Y46099D01*
X331547Y46120D01*
X331480Y46137D01*
X331413Y46151D01*
X331344Y46160D01*
X331276Y46166D01*
X331207Y46168D01*
X329570Y46168D01*
X336029Y46168D02*
X336029Y41257D01*
X336029Y46168D02*
X338075Y46168D01*
X338144Y46166D01*
X338212Y46160D01*
X338281Y46151D01*
X338348Y46137D01*
X338415Y46120D01*
X338481Y46099D01*
X338545Y46075D01*
X338608Y46046D01*
X338669Y46015D01*
X338728Y45980D01*
X338786Y45942D01*
X338841Y45900D01*
X338893Y45856D01*
X338943Y45808D01*
X338991Y45758D01*
X339035Y45706D01*
X339077Y45651D01*
X339115Y45593D01*
X339150Y45534D01*
X339181Y45473D01*
X339210Y45410D01*
X339234Y45346D01*
X339255Y45280D01*
X339272Y45213D01*
X339286Y45146D01*
X339295Y45077D01*
X339301Y45009D01*
X339303Y44940D01*
X339303Y41257D01*
X348843Y48624D02*
X348928Y48622D01*
X349013Y48616D01*
X349097Y48606D01*
X349181Y48593D01*
X349265Y48575D01*
X349347Y48554D01*
X349428Y48529D01*
X349508Y48500D01*
X349587Y48467D01*
X349664Y48431D01*
X349739Y48391D01*
X349813Y48348D01*
X349884Y48302D01*
X349953Y48252D01*
X350020Y48199D01*
X350084Y48143D01*
X350145Y48084D01*
X350204Y48023D01*
X350260Y47959D01*
X350313Y47892D01*
X350363Y47823D01*
X350409Y47752D01*
X350452Y47678D01*
X350492Y47603D01*
X350528Y47526D01*
X350561Y47447D01*
X350590Y47367D01*
X350615Y47286D01*
X350636Y47204D01*
X350654Y47120D01*
X350667Y47036D01*
X350677Y46952D01*
X350683Y46867D01*
X350685Y46782D01*
X348843Y48623D02*
X348747Y48621D01*
X348651Y48615D01*
X348556Y48605D01*
X348461Y48592D01*
X348366Y48574D01*
X348273Y48553D01*
X348180Y48528D01*
X348089Y48499D01*
X347998Y48467D01*
X347909Y48431D01*
X347822Y48391D01*
X347736Y48348D01*
X347652Y48302D01*
X347570Y48252D01*
X347490Y48198D01*
X347413Y48142D01*
X347338Y48082D01*
X347265Y48020D01*
X347195Y47954D01*
X347127Y47886D01*
X347062Y47815D01*
X347001Y47742D01*
X346942Y47666D01*
X346886Y47587D01*
X346834Y47507D01*
X346785Y47424D01*
X346739Y47340D01*
X346697Y47254D01*
X346659Y47166D01*
X346624Y47077D01*
X346592Y46986D01*
X350071Y45350D02*
X350131Y45409D01*
X350188Y45471D01*
X350243Y45535D01*
X350294Y45602D01*
X350343Y45671D01*
X350389Y45741D01*
X350432Y45814D01*
X350472Y45888D01*
X350508Y45964D01*
X350541Y46042D01*
X350571Y46121D01*
X350598Y46201D01*
X350621Y46282D01*
X350640Y46364D01*
X350656Y46446D01*
X350669Y46530D01*
X350678Y46614D01*
X350683Y46698D01*
X350685Y46782D01*
X350071Y45349D02*
X346593Y41257D01*
X350685Y41257D01*
X353908Y44940D02*
X353910Y45093D01*
X353916Y45246D01*
X353925Y45398D01*
X353939Y45551D01*
X353956Y45703D01*
X353977Y45854D01*
X354002Y46005D01*
X354031Y46155D01*
X354063Y46305D01*
X354100Y46453D01*
X354140Y46601D01*
X354183Y46748D01*
X354231Y46893D01*
X354282Y47037D01*
X354336Y47180D01*
X354395Y47322D01*
X354456Y47461D01*
X354522Y47600D01*
X354548Y47670D01*
X354578Y47740D01*
X354611Y47807D01*
X354647Y47873D01*
X354686Y47937D01*
X354729Y47999D01*
X354775Y48058D01*
X354823Y48116D01*
X354874Y48170D01*
X354928Y48223D01*
X354985Y48272D01*
X355044Y48319D01*
X355105Y48362D01*
X355168Y48403D01*
X355233Y48440D01*
X355300Y48475D01*
X355369Y48505D01*
X355439Y48533D01*
X355510Y48556D01*
X355582Y48577D01*
X355655Y48593D01*
X355729Y48606D01*
X355804Y48616D01*
X355879Y48621D01*
X355954Y48623D01*
X356029Y48621D01*
X356104Y48616D01*
X356179Y48606D01*
X356253Y48593D01*
X356326Y48577D01*
X356398Y48556D01*
X356469Y48533D01*
X356539Y48505D01*
X356608Y48475D01*
X356675Y48440D01*
X356740Y48403D01*
X356803Y48362D01*
X356864Y48319D01*
X356923Y48272D01*
X356980Y48223D01*
X357034Y48170D01*
X357085Y48116D01*
X357134Y48058D01*
X357179Y47999D01*
X357222Y47937D01*
X357261Y47873D01*
X357298Y47807D01*
X357330Y47739D01*
X357360Y47670D01*
X357386Y47600D01*
X357451Y47462D01*
X357513Y47322D01*
X357571Y47180D01*
X357626Y47037D01*
X357677Y46893D01*
X357725Y46748D01*
X357768Y46601D01*
X357808Y46454D01*
X357845Y46305D01*
X357877Y46155D01*
X357906Y46005D01*
X357931Y45854D01*
X357952Y45703D01*
X357969Y45551D01*
X357983Y45398D01*
X357992Y45246D01*
X357998Y45093D01*
X358000Y44940D01*
X353907Y44940D02*
X353909Y44787D01*
X353915Y44634D01*
X353924Y44481D01*
X353938Y44329D01*
X353955Y44177D01*
X353976Y44026D01*
X354001Y43875D01*
X354030Y43724D01*
X354062Y43575D01*
X354099Y43426D01*
X354139Y43279D01*
X354182Y43132D01*
X354230Y42987D01*
X354281Y42842D01*
X354336Y42700D01*
X354394Y42558D01*
X354456Y42418D01*
X354521Y42280D01*
X354522Y42280D02*
X354548Y42209D01*
X354578Y42140D01*
X354611Y42073D01*
X354647Y42007D01*
X354686Y41943D01*
X354729Y41881D01*
X354775Y41822D01*
X354823Y41764D01*
X354874Y41710D01*
X354928Y41657D01*
X354985Y41608D01*
X355044Y41561D01*
X355105Y41518D01*
X355168Y41477D01*
X355233Y41440D01*
X355300Y41405D01*
X355369Y41375D01*
X355439Y41347D01*
X355510Y41324D01*
X355582Y41303D01*
X355655Y41287D01*
X355729Y41274D01*
X355804Y41264D01*
X355879Y41259D01*
X355954Y41257D01*
X357386Y42280D02*
X357451Y42418D01*
X357513Y42558D01*
X357571Y42700D01*
X357626Y42843D01*
X357677Y42987D01*
X357725Y43132D01*
X357768Y43279D01*
X357808Y43427D01*
X357845Y43575D01*
X357877Y43725D01*
X357906Y43875D01*
X357931Y44026D01*
X357952Y44177D01*
X357969Y44329D01*
X357983Y44482D01*
X357992Y44634D01*
X357998Y44787D01*
X358000Y44940D01*
X357386Y42280D02*
X357360Y42210D01*
X357330Y42140D01*
X357298Y42073D01*
X357261Y42007D01*
X357222Y41943D01*
X357179Y41881D01*
X357133Y41822D01*
X357085Y41764D01*
X357034Y41710D01*
X356980Y41657D01*
X356923Y41608D01*
X356864Y41561D01*
X356803Y41518D01*
X356740Y41477D01*
X356675Y41440D01*
X356608Y41405D01*
X356539Y41375D01*
X356469Y41347D01*
X356398Y41324D01*
X356326Y41303D01*
X356253Y41287D01*
X356179Y41274D01*
X356104Y41264D01*
X356029Y41259D01*
X355954Y41257D01*
X354317Y42894D02*
X357591Y46986D01*
X363474Y48624D02*
X363559Y48622D01*
X363644Y48616D01*
X363728Y48606D01*
X363812Y48593D01*
X363896Y48575D01*
X363978Y48554D01*
X364059Y48529D01*
X364139Y48500D01*
X364218Y48467D01*
X364295Y48431D01*
X364370Y48391D01*
X364444Y48348D01*
X364515Y48302D01*
X364584Y48252D01*
X364651Y48199D01*
X364715Y48143D01*
X364776Y48084D01*
X364835Y48023D01*
X364891Y47959D01*
X364944Y47892D01*
X364994Y47823D01*
X365040Y47752D01*
X365083Y47678D01*
X365123Y47603D01*
X365159Y47526D01*
X365192Y47447D01*
X365221Y47367D01*
X365246Y47286D01*
X365267Y47204D01*
X365285Y47120D01*
X365298Y47036D01*
X365308Y46952D01*
X365314Y46867D01*
X365316Y46782D01*
X363474Y48623D02*
X363378Y48621D01*
X363282Y48615D01*
X363187Y48605D01*
X363092Y48592D01*
X362997Y48574D01*
X362904Y48553D01*
X362811Y48528D01*
X362720Y48499D01*
X362629Y48467D01*
X362540Y48431D01*
X362453Y48391D01*
X362367Y48348D01*
X362283Y48302D01*
X362201Y48252D01*
X362121Y48198D01*
X362044Y48142D01*
X361969Y48082D01*
X361896Y48020D01*
X361826Y47954D01*
X361758Y47886D01*
X361693Y47815D01*
X361632Y47742D01*
X361573Y47666D01*
X361517Y47587D01*
X361465Y47507D01*
X361416Y47424D01*
X361370Y47340D01*
X361328Y47254D01*
X361290Y47166D01*
X361255Y47077D01*
X361223Y46986D01*
X364701Y45350D02*
X364761Y45409D01*
X364818Y45471D01*
X364873Y45535D01*
X364924Y45602D01*
X364973Y45671D01*
X365019Y45741D01*
X365062Y45814D01*
X365102Y45888D01*
X365138Y45964D01*
X365171Y46042D01*
X365201Y46121D01*
X365228Y46201D01*
X365251Y46282D01*
X365270Y46364D01*
X365286Y46446D01*
X365299Y46530D01*
X365308Y46614D01*
X365313Y46698D01*
X365315Y46782D01*
X364701Y45349D02*
X361223Y41257D01*
X365315Y41257D01*
X368538Y46986D02*
X370584Y48623D01*
X370584Y41257D01*
X368538Y41257D02*
X372630Y41257D01*
D11*
X66344Y72644D02*
X66344Y77724D01*
D12*
X61814Y80074D02*
X60968Y80074D01*
X60968Y80073D02*
X60913Y80075D01*
X60857Y80080D01*
X60803Y80089D01*
X60749Y80102D01*
X60696Y80118D01*
X60644Y80137D01*
X60593Y80160D01*
X60545Y80186D01*
X60497Y80216D01*
X60452Y80248D01*
X60410Y80283D01*
X60369Y80321D01*
X60331Y80362D01*
X60296Y80404D01*
X60264Y80449D01*
X60234Y80497D01*
X60208Y80545D01*
X60185Y80596D01*
X60166Y80648D01*
X60150Y80701D01*
X60137Y80755D01*
X60128Y80809D01*
X60123Y80865D01*
X60121Y80920D01*
X60121Y83037D01*
X60123Y83095D01*
X60129Y83152D01*
X60139Y83209D01*
X60152Y83266D01*
X60170Y83321D01*
X60191Y83374D01*
X60216Y83427D01*
X60244Y83477D01*
X60276Y83525D01*
X60311Y83572D01*
X60349Y83615D01*
X60390Y83656D01*
X60433Y83694D01*
X60480Y83729D01*
X60528Y83761D01*
X60578Y83789D01*
X60631Y83814D01*
X60684Y83835D01*
X60739Y83853D01*
X60796Y83866D01*
X60853Y83876D01*
X60910Y83882D01*
X60968Y83884D01*
X61814Y83884D01*
X63178Y83037D02*
X64237Y83884D01*
X64237Y80074D01*
X65295Y80074D02*
X63178Y80074D01*
X66836Y81979D02*
X66838Y82089D01*
X66844Y82198D01*
X66853Y82307D01*
X66867Y82416D01*
X66884Y82524D01*
X66905Y82632D01*
X66929Y82738D01*
X66958Y82844D01*
X66990Y82949D01*
X67025Y83053D01*
X67064Y83155D01*
X67107Y83256D01*
X67154Y83355D01*
X67153Y83354D02*
X67173Y83404D01*
X67195Y83453D01*
X67221Y83501D01*
X67250Y83546D01*
X67283Y83589D01*
X67318Y83630D01*
X67356Y83669D01*
X67396Y83704D01*
X67439Y83737D01*
X67484Y83767D01*
X67531Y83794D01*
X67579Y83817D01*
X67629Y83837D01*
X67681Y83853D01*
X67733Y83866D01*
X67786Y83876D01*
X67840Y83881D01*
X67894Y83883D01*
X67948Y83881D01*
X68002Y83876D01*
X68055Y83866D01*
X68107Y83853D01*
X68159Y83837D01*
X68209Y83817D01*
X68257Y83794D01*
X68304Y83767D01*
X68349Y83737D01*
X68392Y83704D01*
X68432Y83669D01*
X68470Y83630D01*
X68505Y83589D01*
X68538Y83546D01*
X68567Y83501D01*
X68593Y83453D01*
X68615Y83404D01*
X68635Y83354D01*
X68635Y83355D02*
X68682Y83256D01*
X68725Y83155D01*
X68764Y83053D01*
X68799Y82949D01*
X68831Y82844D01*
X68860Y82738D01*
X68884Y82632D01*
X68905Y82524D01*
X68922Y82416D01*
X68936Y82307D01*
X68945Y82198D01*
X68951Y82089D01*
X68953Y81979D01*
X66836Y81979D02*
X66838Y81869D01*
X66844Y81760D01*
X66853Y81651D01*
X66867Y81542D01*
X66884Y81434D01*
X66905Y81326D01*
X66929Y81220D01*
X66958Y81114D01*
X66990Y81009D01*
X67025Y80906D01*
X67064Y80803D01*
X67107Y80702D01*
X67154Y80603D01*
X67153Y80603D02*
X67173Y80553D01*
X67195Y80504D01*
X67221Y80456D01*
X67250Y80411D01*
X67283Y80368D01*
X67318Y80327D01*
X67356Y80288D01*
X67396Y80253D01*
X67439Y80220D01*
X67484Y80190D01*
X67531Y80163D01*
X67579Y80140D01*
X67629Y80120D01*
X67681Y80104D01*
X67733Y80091D01*
X67786Y80081D01*
X67840Y80076D01*
X67894Y80074D01*
X68635Y80603D02*
X68682Y80702D01*
X68725Y80803D01*
X68764Y80906D01*
X68799Y81009D01*
X68831Y81114D01*
X68860Y81220D01*
X68884Y81326D01*
X68905Y81434D01*
X68922Y81542D01*
X68936Y81651D01*
X68945Y81760D01*
X68951Y81869D01*
X68953Y81979D01*
X68635Y80603D02*
X68615Y80553D01*
X68593Y80504D01*
X68567Y80456D01*
X68538Y80411D01*
X68505Y80368D01*
X68470Y80327D01*
X68432Y80288D01*
X68392Y80253D01*
X68349Y80220D01*
X68304Y80190D01*
X68257Y80163D01*
X68209Y80140D01*
X68159Y80120D01*
X68107Y80104D01*
X68055Y80091D01*
X68002Y80081D01*
X67948Y80076D01*
X67894Y80074D01*
X67048Y80920D02*
X68741Y83037D01*
D11*
X74772Y132359D02*
X73183Y134341D01*
D12*
X79633Y126793D02*
X80294Y127322D01*
X79634Y126793D02*
X79589Y126760D01*
X79543Y126730D01*
X79494Y126702D01*
X79444Y126678D01*
X79393Y126658D01*
X79340Y126641D01*
X79287Y126627D01*
X79232Y126617D01*
X79177Y126610D01*
X79122Y126607D01*
X79066Y126608D01*
X79011Y126612D01*
X78956Y126620D01*
X78902Y126631D01*
X78849Y126646D01*
X78796Y126665D01*
X78745Y126687D01*
X78696Y126712D01*
X78648Y126740D01*
X78603Y126771D01*
X78559Y126806D01*
X78518Y126843D01*
X78479Y126882D01*
X78443Y126924D01*
X77120Y128576D01*
X77119Y128576D02*
X77086Y128621D01*
X77056Y128667D01*
X77028Y128716D01*
X77004Y128766D01*
X76984Y128817D01*
X76967Y128870D01*
X76953Y128923D01*
X76943Y128978D01*
X76936Y129033D01*
X76933Y129088D01*
X76934Y129144D01*
X76938Y129199D01*
X76946Y129254D01*
X76957Y129308D01*
X76972Y129361D01*
X76991Y129414D01*
X77013Y129465D01*
X77038Y129514D01*
X77066Y129562D01*
X77097Y129607D01*
X77132Y129651D01*
X77169Y129692D01*
X77208Y129731D01*
X77250Y129767D01*
X77251Y129766D02*
X77912Y130296D01*
X79506Y130488D02*
X79802Y131810D01*
X82184Y128837D01*
X81359Y128175D02*
X83010Y129499D01*
X84079Y134016D02*
X84040Y134061D01*
X83998Y134104D01*
X83954Y134145D01*
X83907Y134182D01*
X83858Y134217D01*
X83807Y134248D01*
X83754Y134276D01*
X83700Y134300D01*
X83644Y134322D01*
X83586Y134339D01*
X83528Y134353D01*
X83469Y134363D01*
X83410Y134370D01*
X83350Y134373D01*
X83290Y134372D01*
X83230Y134367D01*
X83171Y134359D01*
X83113Y134347D01*
X83055Y134331D01*
X82998Y134311D01*
X82943Y134289D01*
X82889Y134262D01*
X82837Y134233D01*
X82787Y134200D01*
X82739Y134164D01*
X82739Y134163D02*
X82688Y134120D01*
X82639Y134074D01*
X82593Y134025D01*
X82550Y133974D01*
X82509Y133921D01*
X82472Y133866D01*
X82437Y133808D01*
X82406Y133749D01*
X82378Y133688D01*
X82354Y133626D01*
X82332Y133563D01*
X82315Y133498D01*
X82301Y133433D01*
X82290Y133366D01*
X82283Y133300D01*
X82280Y133233D01*
X82281Y133166D01*
X82285Y133099D01*
X82293Y133033D01*
X82304Y132967D01*
X82319Y132902D01*
X82337Y132837D01*
X82359Y132774D01*
X84294Y133239D02*
X84300Y133298D01*
X84303Y133357D01*
X84302Y133416D01*
X84298Y133475D01*
X84291Y133534D01*
X84280Y133592D01*
X84266Y133649D01*
X84248Y133706D01*
X84228Y133761D01*
X84204Y133816D01*
X84177Y133868D01*
X84147Y133919D01*
X84114Y133968D01*
X84078Y134016D01*
X84294Y133239D02*
X84213Y130462D01*
X85865Y131785D01*
D11*
X192904Y53095D02*
X194700Y51299D01*
D12*
X194283Y47133D02*
X196977Y44439D01*
X194283Y47133D02*
X195031Y47881D01*
X195032Y47881D02*
X195078Y47925D01*
X195128Y47966D01*
X195179Y48004D01*
X195233Y48038D01*
X195288Y48070D01*
X195346Y48098D01*
X195405Y48122D01*
X195465Y48143D01*
X195527Y48160D01*
X195589Y48174D01*
X195652Y48183D01*
X195716Y48189D01*
X195780Y48191D01*
X195844Y48189D01*
X195908Y48183D01*
X195971Y48174D01*
X196033Y48160D01*
X196095Y48143D01*
X196155Y48122D01*
X196214Y48098D01*
X196272Y48070D01*
X196327Y48038D01*
X196381Y48004D01*
X196432Y47966D01*
X196482Y47925D01*
X196528Y47881D01*
X196572Y47835D01*
X196613Y47785D01*
X196651Y47734D01*
X196685Y47680D01*
X196717Y47625D01*
X196745Y47567D01*
X196769Y47508D01*
X196790Y47448D01*
X196807Y47386D01*
X196821Y47324D01*
X196830Y47261D01*
X196836Y47197D01*
X196838Y47133D01*
X196836Y47069D01*
X196830Y47005D01*
X196821Y46942D01*
X196807Y46880D01*
X196790Y46818D01*
X196769Y46758D01*
X196745Y46699D01*
X196717Y46641D01*
X196685Y46586D01*
X196651Y46532D01*
X196613Y46481D01*
X196572Y46431D01*
X196528Y46385D01*
X195780Y45636D01*
X196678Y46534D02*
X198474Y45936D01*
X198950Y47609D02*
X197453Y50303D01*
X198950Y47609D02*
X200446Y49106D01*
X199399Y49256D02*
X200596Y48058D01*
D11*
X129368Y102551D02*
X129370Y102622D01*
X129376Y102693D01*
X129386Y102764D01*
X129400Y102834D01*
X129418Y102903D01*
X129439Y102970D01*
X129465Y103037D01*
X129494Y103102D01*
X129526Y103165D01*
X129563Y103227D01*
X129602Y103286D01*
X129645Y103343D01*
X129691Y103397D01*
X129740Y103449D01*
X129792Y103498D01*
X129846Y103544D01*
X129903Y103587D01*
X129962Y103626D01*
X130024Y103663D01*
X130087Y103695D01*
X130152Y103724D01*
X130219Y103750D01*
X130286Y103771D01*
X130355Y103789D01*
X130425Y103803D01*
X130496Y103813D01*
X130567Y103819D01*
X130638Y103821D01*
X130709Y103819D01*
X130780Y103813D01*
X130851Y103803D01*
X130921Y103789D01*
X130990Y103771D01*
X131057Y103750D01*
X131124Y103724D01*
X131189Y103695D01*
X131252Y103663D01*
X131314Y103626D01*
X131373Y103587D01*
X131430Y103544D01*
X131484Y103498D01*
X131536Y103449D01*
X131585Y103397D01*
X131631Y103343D01*
X131674Y103286D01*
X131713Y103227D01*
X131750Y103165D01*
X131782Y103102D01*
X131811Y103037D01*
X131837Y102970D01*
X131858Y102903D01*
X131876Y102834D01*
X131890Y102764D01*
X131900Y102693D01*
X131906Y102622D01*
X131908Y102551D01*
X131906Y102480D01*
X131900Y102409D01*
X131890Y102338D01*
X131876Y102268D01*
X131858Y102199D01*
X131837Y102132D01*
X131811Y102065D01*
X131782Y102000D01*
X131750Y101937D01*
X131713Y101875D01*
X131674Y101816D01*
X131631Y101759D01*
X131585Y101705D01*
X131536Y101653D01*
X131484Y101604D01*
X131430Y101558D01*
X131373Y101515D01*
X131314Y101476D01*
X131252Y101439D01*
X131189Y101407D01*
X131124Y101378D01*
X131057Y101352D01*
X130990Y101331D01*
X130921Y101313D01*
X130851Y101299D01*
X130780Y101289D01*
X130709Y101283D01*
X130638Y101281D01*
X130567Y101283D01*
X130496Y101289D01*
X130425Y101299D01*
X130355Y101313D01*
X130286Y101331D01*
X130219Y101352D01*
X130152Y101378D01*
X130087Y101407D01*
X130024Y101439D01*
X129962Y101476D01*
X129903Y101515D01*
X129846Y101558D01*
X129792Y101604D01*
X129740Y101653D01*
X129691Y101705D01*
X129645Y101759D01*
X129602Y101816D01*
X129563Y101875D01*
X129526Y101937D01*
X129494Y102000D01*
X129465Y102065D01*
X129439Y102132D01*
X129418Y102199D01*
X129400Y102268D01*
X129386Y102338D01*
X129376Y102409D01*
X129370Y102480D01*
X129368Y102551D01*
X132653Y45311D02*
X135128Y42836D01*
X137603Y45311D01*
X109319Y68645D02*
X106844Y71120D01*
X109319Y73595D01*
X160937Y68645D02*
X163412Y71120D01*
X160937Y73595D01*
X137603Y96929D02*
X132653Y96929D01*
D12*
X138301Y73515D02*
X135607Y70821D01*
X135308Y71120D02*
X135906Y70521D01*
X138600Y73215D02*
X138002Y73814D01*
X137520Y68908D02*
X138118Y68309D01*
X137519Y68908D02*
X137481Y68949D01*
X137446Y68991D01*
X137414Y69036D01*
X137384Y69084D01*
X137358Y69132D01*
X137335Y69183D01*
X137316Y69235D01*
X137300Y69288D01*
X137287Y69342D01*
X137278Y69396D01*
X137273Y69452D01*
X137271Y69507D01*
X137273Y69562D01*
X137278Y69618D01*
X137287Y69672D01*
X137300Y69726D01*
X137316Y69779D01*
X137335Y69831D01*
X137358Y69882D01*
X137384Y69931D01*
X137414Y69978D01*
X137446Y70023D01*
X137481Y70065D01*
X137519Y70106D01*
X137520Y70105D02*
X139016Y71602D01*
X139057Y71640D01*
X139099Y71675D01*
X139144Y71707D01*
X139192Y71737D01*
X139240Y71763D01*
X139291Y71786D01*
X139343Y71805D01*
X139396Y71821D01*
X139450Y71834D01*
X139504Y71843D01*
X139560Y71848D01*
X139615Y71850D01*
X139670Y71848D01*
X139726Y71843D01*
X139780Y71834D01*
X139834Y71821D01*
X139887Y71805D01*
X139939Y71786D01*
X139990Y71763D01*
X140039Y71737D01*
X140086Y71707D01*
X140131Y71675D01*
X140173Y71640D01*
X140214Y71602D01*
X140812Y71003D01*
X142600Y69215D02*
X142641Y69172D01*
X142679Y69126D01*
X142714Y69077D01*
X142746Y69027D01*
X142775Y68974D01*
X142801Y68920D01*
X142823Y68864D01*
X142841Y68808D01*
X142856Y68750D01*
X142867Y68691D01*
X142875Y68632D01*
X142879Y68572D01*
X142879Y68512D01*
X142875Y68452D01*
X142867Y68393D01*
X142856Y68334D01*
X142841Y68276D01*
X142823Y68220D01*
X142801Y68164D01*
X142775Y68110D01*
X142746Y68057D01*
X142714Y68007D01*
X142679Y67959D01*
X142641Y67912D01*
X142600Y67869D01*
X142600Y69216D02*
X142552Y69262D01*
X142501Y69305D01*
X142448Y69345D01*
X142392Y69383D01*
X142335Y69417D01*
X142275Y69448D01*
X142215Y69476D01*
X142152Y69501D01*
X142089Y69522D01*
X142024Y69539D01*
X141959Y69553D01*
X141893Y69564D01*
X141826Y69571D01*
X141759Y69574D01*
X141692Y69573D01*
X141626Y69569D01*
X141559Y69561D01*
X141493Y69550D01*
X141428Y69535D01*
X141364Y69516D01*
X141301Y69494D01*
X141239Y69469D01*
X141178Y69440D01*
X141852Y67569D02*
X141911Y67570D01*
X141970Y67573D01*
X142029Y67580D01*
X142087Y67591D01*
X142145Y67605D01*
X142201Y67622D01*
X142257Y67642D01*
X142311Y67666D01*
X142364Y67692D01*
X142415Y67722D01*
X142465Y67755D01*
X142512Y67790D01*
X142557Y67828D01*
X142600Y67869D01*
X141852Y67569D02*
X139083Y67345D01*
X140579Y65848D01*
D11*
X100330Y53340D02*
X97790Y53340D01*
D12*
X96875Y39878D02*
X96028Y39878D01*
X95973Y39880D01*
X95917Y39885D01*
X95863Y39894D01*
X95809Y39907D01*
X95756Y39923D01*
X95704Y39942D01*
X95653Y39965D01*
X95605Y39991D01*
X95557Y40021D01*
X95512Y40053D01*
X95470Y40088D01*
X95429Y40126D01*
X95391Y40167D01*
X95356Y40209D01*
X95324Y40254D01*
X95294Y40302D01*
X95268Y40350D01*
X95245Y40401D01*
X95226Y40453D01*
X95210Y40506D01*
X95197Y40560D01*
X95188Y40614D01*
X95183Y40670D01*
X95181Y40725D01*
X95181Y42841D01*
X95183Y42899D01*
X95189Y42956D01*
X95199Y43013D01*
X95212Y43070D01*
X95230Y43125D01*
X95251Y43178D01*
X95276Y43231D01*
X95304Y43281D01*
X95336Y43329D01*
X95371Y43376D01*
X95409Y43419D01*
X95450Y43460D01*
X95493Y43498D01*
X95540Y43533D01*
X95588Y43565D01*
X95638Y43593D01*
X95691Y43618D01*
X95744Y43639D01*
X95799Y43657D01*
X95856Y43670D01*
X95913Y43680D01*
X95970Y43686D01*
X96028Y43688D01*
X96875Y43688D01*
X98239Y42841D02*
X99297Y43688D01*
X99297Y39878D01*
X98239Y39878D02*
X100355Y39878D01*
X101896Y40725D02*
X102743Y43688D01*
X101896Y40725D02*
X104013Y40725D01*
X103378Y41571D02*
X103378Y39878D01*
D11*
X90170Y53340D02*
X87630Y53340D01*
D12*
X84900Y43625D02*
X84900Y39815D01*
X84900Y43625D02*
X85958Y43625D01*
X85958Y43624D02*
X86022Y43622D01*
X86086Y43616D01*
X86149Y43607D01*
X86211Y43593D01*
X86273Y43576D01*
X86333Y43555D01*
X86392Y43531D01*
X86450Y43503D01*
X86505Y43471D01*
X86559Y43437D01*
X86610Y43399D01*
X86660Y43358D01*
X86706Y43314D01*
X86750Y43268D01*
X86791Y43218D01*
X86829Y43167D01*
X86863Y43113D01*
X86895Y43058D01*
X86923Y43000D01*
X86947Y42941D01*
X86968Y42881D01*
X86985Y42819D01*
X86999Y42757D01*
X87008Y42694D01*
X87014Y42630D01*
X87016Y42566D01*
X87014Y42502D01*
X87008Y42438D01*
X86999Y42375D01*
X86985Y42313D01*
X86968Y42251D01*
X86947Y42191D01*
X86923Y42132D01*
X86895Y42074D01*
X86863Y42019D01*
X86829Y41965D01*
X86791Y41914D01*
X86750Y41864D01*
X86706Y41818D01*
X86660Y41774D01*
X86610Y41733D01*
X86559Y41695D01*
X86505Y41661D01*
X86450Y41629D01*
X86392Y41601D01*
X86333Y41577D01*
X86273Y41556D01*
X86211Y41539D01*
X86149Y41525D01*
X86086Y41516D01*
X86022Y41510D01*
X85958Y41508D01*
X84900Y41508D01*
X86170Y41508D02*
X87016Y39815D01*
X88536Y40873D02*
X88538Y40937D01*
X88544Y41001D01*
X88553Y41064D01*
X88567Y41126D01*
X88584Y41188D01*
X88605Y41248D01*
X88629Y41307D01*
X88657Y41365D01*
X88689Y41420D01*
X88723Y41474D01*
X88761Y41525D01*
X88802Y41575D01*
X88846Y41621D01*
X88892Y41665D01*
X88942Y41706D01*
X88993Y41744D01*
X89047Y41778D01*
X89102Y41810D01*
X89160Y41838D01*
X89219Y41862D01*
X89279Y41883D01*
X89341Y41900D01*
X89403Y41914D01*
X89466Y41923D01*
X89530Y41929D01*
X89594Y41931D01*
X89658Y41929D01*
X89722Y41923D01*
X89785Y41914D01*
X89847Y41900D01*
X89909Y41883D01*
X89969Y41862D01*
X90028Y41838D01*
X90086Y41810D01*
X90141Y41778D01*
X90195Y41744D01*
X90246Y41706D01*
X90296Y41665D01*
X90342Y41621D01*
X90386Y41575D01*
X90427Y41525D01*
X90465Y41474D01*
X90499Y41420D01*
X90531Y41365D01*
X90559Y41307D01*
X90583Y41248D01*
X90604Y41188D01*
X90621Y41126D01*
X90635Y41064D01*
X90644Y41001D01*
X90650Y40937D01*
X90652Y40873D01*
X90650Y40809D01*
X90644Y40745D01*
X90635Y40682D01*
X90621Y40620D01*
X90604Y40558D01*
X90583Y40498D01*
X90559Y40439D01*
X90531Y40381D01*
X90499Y40326D01*
X90465Y40272D01*
X90427Y40221D01*
X90386Y40171D01*
X90342Y40125D01*
X90296Y40081D01*
X90246Y40040D01*
X90195Y40002D01*
X90141Y39968D01*
X90086Y39936D01*
X90028Y39908D01*
X89969Y39884D01*
X89909Y39863D01*
X89847Y39846D01*
X89785Y39832D01*
X89722Y39823D01*
X89658Y39817D01*
X89594Y39815D01*
X89530Y39817D01*
X89466Y39823D01*
X89403Y39832D01*
X89341Y39846D01*
X89279Y39863D01*
X89219Y39884D01*
X89160Y39908D01*
X89102Y39936D01*
X89047Y39968D01*
X88993Y40002D01*
X88942Y40040D01*
X88892Y40081D01*
X88846Y40125D01*
X88802Y40171D01*
X88761Y40221D01*
X88723Y40272D01*
X88689Y40326D01*
X88657Y40381D01*
X88629Y40439D01*
X88605Y40498D01*
X88584Y40558D01*
X88567Y40620D01*
X88553Y40682D01*
X88544Y40745D01*
X88538Y40809D01*
X88536Y40873D01*
X88747Y42778D02*
X88749Y42835D01*
X88755Y42891D01*
X88764Y42947D01*
X88777Y43002D01*
X88794Y43056D01*
X88814Y43109D01*
X88838Y43160D01*
X88865Y43210D01*
X88896Y43257D01*
X88929Y43303D01*
X88966Y43346D01*
X89005Y43387D01*
X89047Y43425D01*
X89092Y43460D01*
X89138Y43492D01*
X89187Y43521D01*
X89237Y43546D01*
X89290Y43568D01*
X89343Y43587D01*
X89398Y43602D01*
X89453Y43613D01*
X89509Y43621D01*
X89566Y43625D01*
X89622Y43625D01*
X89679Y43621D01*
X89735Y43613D01*
X89790Y43602D01*
X89845Y43587D01*
X89898Y43568D01*
X89951Y43546D01*
X90001Y43521D01*
X90050Y43492D01*
X90096Y43460D01*
X90141Y43425D01*
X90183Y43387D01*
X90222Y43346D01*
X90259Y43303D01*
X90292Y43257D01*
X90323Y43210D01*
X90350Y43160D01*
X90374Y43109D01*
X90394Y43056D01*
X90411Y43002D01*
X90424Y42947D01*
X90433Y42891D01*
X90439Y42835D01*
X90441Y42778D01*
X90439Y42721D01*
X90433Y42665D01*
X90424Y42609D01*
X90411Y42554D01*
X90394Y42500D01*
X90374Y42447D01*
X90350Y42396D01*
X90323Y42346D01*
X90292Y42299D01*
X90259Y42253D01*
X90222Y42210D01*
X90183Y42169D01*
X90141Y42131D01*
X90096Y42096D01*
X90050Y42064D01*
X90001Y42035D01*
X89951Y42010D01*
X89898Y41988D01*
X89845Y41969D01*
X89790Y41954D01*
X89735Y41943D01*
X89679Y41935D01*
X89622Y41931D01*
X89566Y41931D01*
X89509Y41935D01*
X89453Y41943D01*
X89398Y41954D01*
X89343Y41969D01*
X89290Y41988D01*
X89237Y42010D01*
X89187Y42035D01*
X89138Y42064D01*
X89092Y42096D01*
X89047Y42131D01*
X89005Y42169D01*
X88966Y42210D01*
X88929Y42253D01*
X88896Y42299D01*
X88865Y42346D01*
X88838Y42396D01*
X88814Y42447D01*
X88794Y42500D01*
X88777Y42554D01*
X88764Y42609D01*
X88755Y42665D01*
X88749Y42721D01*
X88747Y42778D01*
D13*
X194310Y70233D02*
X204188Y80111D01*
X194310Y70233D02*
X184432Y80111D01*
D12*
X175490Y121202D02*
X178185Y123896D01*
X178933Y123147D01*
X178932Y123147D02*
X178976Y123101D01*
X179017Y123051D01*
X179055Y123000D01*
X179089Y122946D01*
X179121Y122891D01*
X179149Y122833D01*
X179173Y122774D01*
X179194Y122714D01*
X179211Y122652D01*
X179225Y122590D01*
X179234Y122527D01*
X179240Y122463D01*
X179242Y122399D01*
X179240Y122335D01*
X179234Y122271D01*
X179225Y122208D01*
X179211Y122146D01*
X179194Y122084D01*
X179173Y122024D01*
X179149Y121965D01*
X179121Y121907D01*
X179089Y121852D01*
X179055Y121798D01*
X179017Y121747D01*
X178976Y121697D01*
X178932Y121651D01*
X178886Y121607D01*
X178836Y121566D01*
X178785Y121528D01*
X178731Y121494D01*
X178676Y121462D01*
X178618Y121434D01*
X178559Y121410D01*
X178499Y121389D01*
X178437Y121372D01*
X178375Y121358D01*
X178312Y121349D01*
X178248Y121343D01*
X178184Y121341D01*
X178120Y121343D01*
X178056Y121349D01*
X177993Y121358D01*
X177931Y121372D01*
X177869Y121389D01*
X177809Y121410D01*
X177750Y121434D01*
X177692Y121462D01*
X177637Y121494D01*
X177583Y121528D01*
X177532Y121566D01*
X177482Y121607D01*
X177436Y121651D01*
X176688Y122399D01*
X178187Y118505D02*
X180882Y121199D01*
X177888Y118804D02*
X178487Y118205D01*
X181181Y120899D02*
X180582Y121498D01*
X180100Y116592D02*
X180699Y115993D01*
X180100Y116592D02*
X180062Y116633D01*
X180027Y116675D01*
X179995Y116720D01*
X179965Y116768D01*
X179939Y116816D01*
X179916Y116867D01*
X179897Y116919D01*
X179881Y116972D01*
X179868Y117026D01*
X179859Y117080D01*
X179854Y117136D01*
X179852Y117191D01*
X179854Y117246D01*
X179859Y117302D01*
X179868Y117356D01*
X179881Y117410D01*
X179897Y117463D01*
X179916Y117515D01*
X179939Y117566D01*
X179965Y117615D01*
X179995Y117662D01*
X180027Y117707D01*
X180062Y117749D01*
X180100Y117790D01*
X180100Y117789D02*
X181597Y119286D01*
X181638Y119324D01*
X181680Y119359D01*
X181725Y119391D01*
X181773Y119421D01*
X181821Y119447D01*
X181872Y119470D01*
X181924Y119489D01*
X181977Y119505D01*
X182031Y119518D01*
X182085Y119527D01*
X182141Y119532D01*
X182196Y119534D01*
X182251Y119532D01*
X182307Y119527D01*
X182361Y119518D01*
X182415Y119505D01*
X182468Y119489D01*
X182520Y119470D01*
X182571Y119447D01*
X182620Y119421D01*
X182667Y119391D01*
X182712Y119359D01*
X182754Y119324D01*
X182795Y119286D01*
X182794Y119286D02*
X183393Y118687D01*
X183609Y116974D02*
X182412Y115777D01*
X183609Y116974D02*
X183655Y117018D01*
X183705Y117059D01*
X183756Y117097D01*
X183810Y117131D01*
X183865Y117163D01*
X183923Y117191D01*
X183982Y117215D01*
X184042Y117236D01*
X184104Y117253D01*
X184166Y117267D01*
X184229Y117276D01*
X184293Y117282D01*
X184357Y117284D01*
X184421Y117282D01*
X184485Y117276D01*
X184548Y117267D01*
X184610Y117253D01*
X184672Y117236D01*
X184732Y117215D01*
X184791Y117191D01*
X184849Y117163D01*
X184904Y117131D01*
X184958Y117097D01*
X185009Y117059D01*
X185059Y117018D01*
X185105Y116974D01*
X185149Y116928D01*
X185190Y116878D01*
X185228Y116827D01*
X185262Y116773D01*
X185294Y116718D01*
X185322Y116660D01*
X185346Y116601D01*
X185367Y116541D01*
X185384Y116479D01*
X185398Y116417D01*
X185407Y116354D01*
X185413Y116290D01*
X185415Y116226D01*
X185413Y116162D01*
X185407Y116098D01*
X185398Y116035D01*
X185384Y115973D01*
X185367Y115911D01*
X185346Y115851D01*
X185322Y115792D01*
X185294Y115734D01*
X185262Y115679D01*
X185228Y115625D01*
X185190Y115574D01*
X185149Y115524D01*
X185105Y115478D01*
X185106Y115478D02*
X183908Y114280D01*
X183908Y114281D02*
X183862Y114237D01*
X183812Y114196D01*
X183761Y114158D01*
X183707Y114124D01*
X183652Y114092D01*
X183594Y114064D01*
X183535Y114040D01*
X183475Y114019D01*
X183413Y114002D01*
X183351Y113988D01*
X183288Y113979D01*
X183224Y113973D01*
X183160Y113971D01*
X183096Y113973D01*
X183032Y113979D01*
X182969Y113988D01*
X182907Y114002D01*
X182845Y114019D01*
X182785Y114040D01*
X182726Y114064D01*
X182668Y114092D01*
X182613Y114124D01*
X182559Y114158D01*
X182508Y114196D01*
X182458Y114237D01*
X182412Y114281D01*
X182368Y114327D01*
X182327Y114377D01*
X182289Y114428D01*
X182255Y114482D01*
X182223Y114537D01*
X182195Y114595D01*
X182171Y114654D01*
X182150Y114714D01*
X182133Y114776D01*
X182119Y114838D01*
X182110Y114901D01*
X182104Y114965D01*
X182102Y115029D01*
X182104Y115093D01*
X182110Y115157D01*
X182119Y115220D01*
X182133Y115282D01*
X182150Y115344D01*
X182171Y115404D01*
X182195Y115463D01*
X182223Y115521D01*
X182255Y115576D01*
X182289Y115630D01*
X182327Y115681D01*
X182368Y115731D01*
X182412Y115777D01*
X185320Y113467D02*
X187116Y111671D01*
X187267Y109425D02*
X189961Y112119D01*
X190709Y111371D01*
X190709Y111370D02*
X190753Y111324D01*
X190794Y111274D01*
X190832Y111223D01*
X190866Y111169D01*
X190898Y111114D01*
X190926Y111056D01*
X190950Y110997D01*
X190971Y110937D01*
X190988Y110875D01*
X191002Y110813D01*
X191011Y110750D01*
X191017Y110686D01*
X191019Y110622D01*
X191017Y110558D01*
X191011Y110494D01*
X191002Y110431D01*
X190988Y110369D01*
X190971Y110307D01*
X190950Y110247D01*
X190926Y110188D01*
X190898Y110130D01*
X190866Y110075D01*
X190832Y110021D01*
X190794Y109970D01*
X190753Y109920D01*
X190709Y109874D01*
X189512Y108677D01*
X189466Y108633D01*
X189416Y108592D01*
X189365Y108554D01*
X189311Y108520D01*
X189256Y108488D01*
X189198Y108460D01*
X189139Y108436D01*
X189079Y108415D01*
X189017Y108398D01*
X188955Y108384D01*
X188892Y108375D01*
X188828Y108369D01*
X188764Y108367D01*
X188700Y108369D01*
X188636Y108375D01*
X188573Y108384D01*
X188511Y108398D01*
X188449Y108415D01*
X188389Y108436D01*
X188330Y108460D01*
X188272Y108488D01*
X188217Y108520D01*
X188163Y108554D01*
X188111Y108592D01*
X188062Y108633D01*
X188016Y108677D01*
X188015Y108677D02*
X187267Y109425D01*
X190538Y107351D02*
X193232Y108848D01*
X190538Y107351D02*
X192035Y105854D01*
X192184Y106902D02*
X190987Y105705D01*
D11*
X224273Y77352D02*
X226069Y75556D01*
D12*
X231131Y69893D02*
X230532Y69295D01*
X230532Y69294D02*
X230490Y69255D01*
X230445Y69218D01*
X230398Y69185D01*
X230348Y69155D01*
X230297Y69128D01*
X230244Y69105D01*
X230189Y69086D01*
X230134Y69070D01*
X230077Y69058D01*
X230020Y69050D01*
X229962Y69046D01*
X229904Y69046D01*
X229846Y69050D01*
X229789Y69058D01*
X229732Y69070D01*
X229677Y69086D01*
X229622Y69105D01*
X229569Y69128D01*
X229518Y69155D01*
X229468Y69185D01*
X229421Y69218D01*
X229376Y69255D01*
X229334Y69294D01*
X229335Y69295D02*
X227838Y70791D01*
X227800Y70832D01*
X227765Y70874D01*
X227733Y70919D01*
X227703Y70967D01*
X227677Y71015D01*
X227654Y71066D01*
X227635Y71118D01*
X227619Y71171D01*
X227606Y71225D01*
X227597Y71279D01*
X227592Y71335D01*
X227590Y71390D01*
X227592Y71445D01*
X227597Y71501D01*
X227606Y71555D01*
X227619Y71609D01*
X227635Y71662D01*
X227654Y71714D01*
X227677Y71765D01*
X227703Y71814D01*
X227733Y71861D01*
X227765Y71906D01*
X227800Y71948D01*
X227838Y71989D01*
X228437Y72587D01*
X230000Y72953D02*
X230150Y74300D01*
X232844Y71606D01*
X232095Y70858D02*
X233592Y72355D01*
D14*
X178603Y62479D03*
D12*
X162971Y51095D02*
X161773Y49897D01*
X162971Y51094D02*
X163017Y51138D01*
X163067Y51179D01*
X163118Y51217D01*
X163172Y51251D01*
X163227Y51283D01*
X163285Y51311D01*
X163344Y51335D01*
X163404Y51356D01*
X163466Y51373D01*
X163528Y51387D01*
X163591Y51396D01*
X163655Y51402D01*
X163719Y51404D01*
X163783Y51402D01*
X163847Y51396D01*
X163910Y51387D01*
X163972Y51373D01*
X164034Y51356D01*
X164094Y51335D01*
X164153Y51311D01*
X164211Y51283D01*
X164266Y51251D01*
X164320Y51217D01*
X164371Y51179D01*
X164421Y51138D01*
X164467Y51094D01*
X164511Y51048D01*
X164552Y50998D01*
X164590Y50947D01*
X164624Y50893D01*
X164656Y50838D01*
X164684Y50780D01*
X164708Y50721D01*
X164729Y50661D01*
X164746Y50599D01*
X164760Y50537D01*
X164769Y50474D01*
X164775Y50410D01*
X164777Y50346D01*
X164775Y50282D01*
X164769Y50218D01*
X164760Y50155D01*
X164746Y50093D01*
X164729Y50031D01*
X164708Y49971D01*
X164684Y49912D01*
X164656Y49854D01*
X164624Y49799D01*
X164590Y49745D01*
X164552Y49694D01*
X164511Y49644D01*
X164467Y49598D01*
X163270Y48401D01*
X163224Y48357D01*
X163174Y48316D01*
X163123Y48278D01*
X163069Y48244D01*
X163014Y48212D01*
X162956Y48184D01*
X162897Y48160D01*
X162837Y48139D01*
X162775Y48122D01*
X162713Y48108D01*
X162650Y48099D01*
X162586Y48093D01*
X162522Y48091D01*
X162458Y48093D01*
X162394Y48099D01*
X162331Y48108D01*
X162269Y48122D01*
X162207Y48139D01*
X162147Y48160D01*
X162088Y48184D01*
X162030Y48212D01*
X161975Y48244D01*
X161921Y48278D01*
X161870Y48316D01*
X161820Y48357D01*
X161774Y48401D01*
X161730Y48447D01*
X161689Y48497D01*
X161651Y48548D01*
X161617Y48602D01*
X161585Y48657D01*
X161557Y48715D01*
X161533Y48774D01*
X161512Y48834D01*
X161495Y48896D01*
X161481Y48958D01*
X161472Y49021D01*
X161466Y49085D01*
X161464Y49149D01*
X161466Y49213D01*
X161472Y49277D01*
X161481Y49340D01*
X161495Y49402D01*
X161512Y49464D01*
X161533Y49524D01*
X161557Y49583D01*
X161585Y49641D01*
X161617Y49696D01*
X161651Y49750D01*
X161689Y49801D01*
X161730Y49851D01*
X161774Y49897D01*
X162821Y48550D02*
X162821Y47353D01*
X163563Y46611D02*
X164311Y45863D01*
X164312Y45863D02*
X164358Y45819D01*
X164407Y45778D01*
X164459Y45740D01*
X164513Y45706D01*
X164568Y45674D01*
X164626Y45646D01*
X164685Y45622D01*
X164745Y45601D01*
X164807Y45584D01*
X164869Y45570D01*
X164932Y45561D01*
X164996Y45555D01*
X165060Y45553D01*
X165124Y45555D01*
X165188Y45561D01*
X165251Y45570D01*
X165313Y45584D01*
X165375Y45601D01*
X165435Y45622D01*
X165494Y45646D01*
X165552Y45674D01*
X165607Y45706D01*
X165661Y45740D01*
X165712Y45778D01*
X165762Y45819D01*
X165808Y45863D01*
X165852Y45909D01*
X165893Y45959D01*
X165931Y46010D01*
X165965Y46064D01*
X165997Y46119D01*
X166025Y46177D01*
X166049Y46236D01*
X166070Y46296D01*
X166087Y46358D01*
X166101Y46420D01*
X166110Y46483D01*
X166116Y46547D01*
X166118Y46611D01*
X166116Y46675D01*
X166110Y46739D01*
X166101Y46802D01*
X166087Y46864D01*
X166070Y46926D01*
X166049Y46986D01*
X166025Y47045D01*
X165997Y47103D01*
X165965Y47158D01*
X165931Y47212D01*
X165893Y47264D01*
X165852Y47313D01*
X165808Y47359D01*
X167155Y48407D02*
X166257Y49305D01*
X167156Y48407D02*
X167195Y48366D01*
X167230Y48322D01*
X167263Y48276D01*
X167293Y48227D01*
X167319Y48177D01*
X167342Y48126D01*
X167362Y48072D01*
X167378Y48018D01*
X167390Y47963D01*
X167398Y47907D01*
X167403Y47850D01*
X167404Y47794D01*
X167401Y47737D01*
X167394Y47681D01*
X167384Y47625D01*
X167370Y47571D01*
X167352Y47517D01*
X167331Y47464D01*
X167306Y47413D01*
X167278Y47364D01*
X167247Y47317D01*
X167213Y47272D01*
X167176Y47229D01*
X167136Y47189D01*
X167093Y47152D01*
X167048Y47118D01*
X167001Y47087D01*
X166952Y47059D01*
X166901Y47034D01*
X166848Y47013D01*
X166794Y46995D01*
X166740Y46981D01*
X166684Y46971D01*
X166628Y46964D01*
X166571Y46961D01*
X166515Y46962D01*
X166458Y46967D01*
X166402Y46975D01*
X166347Y46987D01*
X166293Y47003D01*
X166239Y47023D01*
X166188Y47046D01*
X166138Y47072D01*
X166089Y47102D01*
X166043Y47135D01*
X165999Y47170D01*
X165958Y47209D01*
X165958Y47210D02*
X165359Y47808D01*
D11*
X237608Y90814D02*
X239404Y89018D01*
D12*
X243501Y82993D02*
X242903Y82395D01*
X242903Y82394D02*
X242861Y82355D01*
X242816Y82318D01*
X242769Y82285D01*
X242719Y82255D01*
X242668Y82228D01*
X242615Y82205D01*
X242560Y82186D01*
X242505Y82170D01*
X242448Y82158D01*
X242391Y82150D01*
X242333Y82146D01*
X242275Y82146D01*
X242217Y82150D01*
X242160Y82158D01*
X242103Y82170D01*
X242048Y82186D01*
X241993Y82205D01*
X241940Y82228D01*
X241889Y82255D01*
X241839Y82285D01*
X241792Y82318D01*
X241747Y82355D01*
X241705Y82394D01*
X241705Y82395D02*
X240209Y83892D01*
X240208Y83891D02*
X240170Y83932D01*
X240135Y83974D01*
X240103Y84019D01*
X240073Y84067D01*
X240047Y84115D01*
X240024Y84166D01*
X240005Y84218D01*
X239989Y84271D01*
X239976Y84325D01*
X239967Y84379D01*
X239962Y84435D01*
X239960Y84490D01*
X239962Y84545D01*
X239967Y84601D01*
X239976Y84655D01*
X239989Y84709D01*
X240005Y84762D01*
X240024Y84814D01*
X240047Y84865D01*
X240073Y84914D01*
X240103Y84961D01*
X240135Y85006D01*
X240170Y85048D01*
X240208Y85089D01*
X240209Y85089D02*
X240807Y85688D01*
X242594Y87476D02*
X242638Y87517D01*
X242684Y87555D01*
X242732Y87590D01*
X242783Y87622D01*
X242835Y87651D01*
X242890Y87677D01*
X242945Y87699D01*
X243002Y87717D01*
X243060Y87732D01*
X243119Y87743D01*
X243178Y87751D01*
X243238Y87755D01*
X243298Y87755D01*
X243358Y87751D01*
X243417Y87743D01*
X243476Y87732D01*
X243534Y87717D01*
X243591Y87699D01*
X243646Y87677D01*
X243701Y87651D01*
X243753Y87622D01*
X243804Y87590D01*
X243852Y87555D01*
X243898Y87517D01*
X243942Y87476D01*
X242595Y87476D02*
X242549Y87427D01*
X242505Y87376D01*
X242465Y87323D01*
X242427Y87267D01*
X242393Y87210D01*
X242362Y87150D01*
X242334Y87090D01*
X242309Y87027D01*
X242288Y86964D01*
X242271Y86899D01*
X242257Y86834D01*
X242246Y86768D01*
X242239Y86701D01*
X242236Y86634D01*
X242237Y86567D01*
X242241Y86501D01*
X242249Y86434D01*
X242260Y86368D01*
X242275Y86303D01*
X242294Y86239D01*
X242316Y86176D01*
X242341Y86114D01*
X242370Y86053D01*
X244242Y86727D02*
X244241Y86786D01*
X244238Y86845D01*
X244231Y86904D01*
X244220Y86962D01*
X244206Y87020D01*
X244189Y87076D01*
X244169Y87132D01*
X244145Y87186D01*
X244119Y87239D01*
X244089Y87290D01*
X244056Y87340D01*
X244021Y87387D01*
X243983Y87432D01*
X243942Y87475D01*
X244241Y86727D02*
X244466Y83958D01*
X245963Y85455D01*
D15*
X81779Y85686D02*
X64779Y85686D01*
X64779Y96686D02*
X81779Y96686D01*
D16*
X76779Y91186D03*
D12*
X54039Y89481D02*
X50229Y89481D01*
X50229Y90539D01*
X50231Y90603D01*
X50237Y90667D01*
X50246Y90730D01*
X50260Y90792D01*
X50277Y90854D01*
X50298Y90914D01*
X50322Y90973D01*
X50350Y91031D01*
X50382Y91086D01*
X50416Y91140D01*
X50454Y91191D01*
X50495Y91241D01*
X50539Y91287D01*
X50585Y91331D01*
X50635Y91372D01*
X50686Y91410D01*
X50740Y91444D01*
X50795Y91476D01*
X50853Y91504D01*
X50912Y91528D01*
X50972Y91549D01*
X51034Y91566D01*
X51096Y91580D01*
X51160Y91589D01*
X51223Y91595D01*
X51287Y91597D01*
X51287Y91598D02*
X52980Y91598D01*
X52980Y91597D02*
X53044Y91595D01*
X53108Y91589D01*
X53171Y91580D01*
X53233Y91566D01*
X53295Y91549D01*
X53355Y91528D01*
X53414Y91504D01*
X53472Y91476D01*
X53527Y91444D01*
X53581Y91410D01*
X53632Y91372D01*
X53682Y91331D01*
X53728Y91287D01*
X53772Y91241D01*
X53813Y91191D01*
X53851Y91140D01*
X53885Y91086D01*
X53917Y91031D01*
X53945Y90973D01*
X53969Y90914D01*
X53990Y90854D01*
X54007Y90792D01*
X54021Y90730D01*
X54030Y90667D01*
X54036Y90603D01*
X54038Y90539D01*
X54039Y90539D02*
X54039Y89481D01*
X53192Y93260D02*
X50229Y94107D01*
X53192Y93260D02*
X53192Y95377D01*
X52345Y94742D02*
X54039Y94742D01*
D11*
X87132Y123191D02*
X87132Y139191D01*
X120132Y139191D02*
X120132Y123191D01*
X107632Y141691D02*
X99632Y141691D01*
D12*
X122428Y113557D02*
X122428Y112711D01*
X122426Y112653D01*
X122420Y112596D01*
X122410Y112539D01*
X122397Y112482D01*
X122379Y112427D01*
X122358Y112374D01*
X122333Y112321D01*
X122305Y112271D01*
X122273Y112223D01*
X122238Y112176D01*
X122200Y112133D01*
X122159Y112092D01*
X122116Y112054D01*
X122069Y112019D01*
X122021Y111987D01*
X121971Y111959D01*
X121918Y111934D01*
X121865Y111913D01*
X121810Y111895D01*
X121753Y111882D01*
X121696Y111872D01*
X121639Y111866D01*
X121581Y111864D01*
X119465Y111864D01*
X119407Y111866D01*
X119350Y111872D01*
X119293Y111882D01*
X119236Y111895D01*
X119181Y111913D01*
X119128Y111934D01*
X119075Y111959D01*
X119025Y111987D01*
X118977Y112019D01*
X118930Y112054D01*
X118887Y112092D01*
X118846Y112133D01*
X118808Y112176D01*
X118773Y112223D01*
X118741Y112271D01*
X118713Y112321D01*
X118688Y112374D01*
X118667Y112427D01*
X118649Y112482D01*
X118636Y112539D01*
X118626Y112596D01*
X118620Y112653D01*
X118618Y112711D01*
X118618Y113557D01*
X118618Y115043D02*
X122428Y115043D01*
X120311Y115043D02*
X120311Y117160D01*
X118618Y117160D02*
X122428Y117160D01*
X122428Y118966D02*
X118618Y118966D01*
X118618Y120024D01*
X118620Y120088D01*
X118626Y120152D01*
X118635Y120215D01*
X118649Y120277D01*
X118666Y120339D01*
X118687Y120399D01*
X118711Y120458D01*
X118739Y120516D01*
X118771Y120571D01*
X118805Y120625D01*
X118843Y120676D01*
X118884Y120726D01*
X118928Y120772D01*
X118974Y120816D01*
X119024Y120857D01*
X119075Y120895D01*
X119129Y120929D01*
X119184Y120961D01*
X119242Y120989D01*
X119301Y121013D01*
X119361Y121034D01*
X119423Y121051D01*
X119485Y121065D01*
X119548Y121074D01*
X119612Y121080D01*
X119676Y121082D01*
X119740Y121080D01*
X119804Y121074D01*
X119867Y121065D01*
X119929Y121051D01*
X119991Y121034D01*
X120051Y121013D01*
X120110Y120989D01*
X120168Y120961D01*
X120223Y120929D01*
X120277Y120895D01*
X120328Y120857D01*
X120378Y120816D01*
X120424Y120772D01*
X120468Y120726D01*
X120509Y120676D01*
X120547Y120625D01*
X120581Y120571D01*
X120613Y120516D01*
X120641Y120458D01*
X120665Y120399D01*
X120686Y120339D01*
X120703Y120277D01*
X120717Y120215D01*
X120726Y120152D01*
X120732Y120088D01*
X120734Y120024D01*
X120735Y120024D02*
X120735Y118966D01*
X120735Y120236D02*
X122428Y121083D01*
X120311Y124206D02*
X120311Y124841D01*
X122428Y124841D01*
X122428Y123571D01*
X122426Y123513D01*
X122420Y123456D01*
X122410Y123399D01*
X122397Y123342D01*
X122379Y123287D01*
X122358Y123234D01*
X122333Y123181D01*
X122305Y123131D01*
X122273Y123083D01*
X122238Y123036D01*
X122200Y122993D01*
X122159Y122952D01*
X122116Y122914D01*
X122069Y122879D01*
X122021Y122847D01*
X121971Y122819D01*
X121918Y122794D01*
X121865Y122773D01*
X121810Y122755D01*
X121753Y122742D01*
X121696Y122732D01*
X121639Y122726D01*
X121581Y122724D01*
X119465Y122724D01*
X119407Y122726D01*
X119350Y122732D01*
X119293Y122742D01*
X119236Y122755D01*
X119181Y122773D01*
X119128Y122794D01*
X119075Y122819D01*
X119025Y122847D01*
X118977Y122879D01*
X118930Y122914D01*
X118887Y122952D01*
X118846Y122993D01*
X118808Y123036D01*
X118773Y123083D01*
X118741Y123131D01*
X118713Y123181D01*
X118688Y123234D01*
X118667Y123287D01*
X118649Y123342D01*
X118636Y123399D01*
X118626Y123456D01*
X118620Y123513D01*
X118618Y123571D01*
X118618Y124841D01*
D11*
X68580Y53340D02*
X66040Y53340D01*
D12*
X64262Y44260D02*
X64262Y40450D01*
X64262Y44260D02*
X65320Y44260D01*
X65320Y44259D02*
X65384Y44257D01*
X65448Y44251D01*
X65511Y44242D01*
X65573Y44228D01*
X65635Y44211D01*
X65695Y44190D01*
X65754Y44166D01*
X65812Y44138D01*
X65867Y44106D01*
X65921Y44072D01*
X65972Y44034D01*
X66022Y43993D01*
X66068Y43949D01*
X66112Y43903D01*
X66153Y43853D01*
X66191Y43802D01*
X66225Y43748D01*
X66257Y43693D01*
X66285Y43635D01*
X66309Y43576D01*
X66330Y43516D01*
X66347Y43454D01*
X66361Y43392D01*
X66370Y43329D01*
X66376Y43265D01*
X66378Y43201D01*
X66376Y43137D01*
X66370Y43073D01*
X66361Y43010D01*
X66347Y42948D01*
X66330Y42886D01*
X66309Y42826D01*
X66285Y42767D01*
X66257Y42709D01*
X66225Y42654D01*
X66191Y42600D01*
X66153Y42549D01*
X66112Y42499D01*
X66068Y42453D01*
X66022Y42409D01*
X65972Y42368D01*
X65921Y42330D01*
X65867Y42296D01*
X65812Y42264D01*
X65754Y42236D01*
X65695Y42212D01*
X65635Y42191D01*
X65573Y42174D01*
X65511Y42160D01*
X65448Y42151D01*
X65384Y42145D01*
X65320Y42143D01*
X64262Y42143D01*
X65532Y42143D02*
X66379Y40450D01*
X67899Y43413D02*
X68957Y44260D01*
X68957Y40450D01*
X67899Y40450D02*
X70015Y40450D01*
D11*
X104013Y98044D02*
X104013Y103124D01*
D12*
X90678Y100405D02*
X90678Y99559D01*
X90676Y99501D01*
X90670Y99444D01*
X90660Y99387D01*
X90647Y99330D01*
X90629Y99275D01*
X90608Y99222D01*
X90583Y99169D01*
X90555Y99119D01*
X90523Y99071D01*
X90488Y99024D01*
X90450Y98981D01*
X90409Y98940D01*
X90366Y98902D01*
X90319Y98867D01*
X90271Y98835D01*
X90221Y98807D01*
X90168Y98782D01*
X90115Y98761D01*
X90060Y98743D01*
X90003Y98730D01*
X89946Y98720D01*
X89889Y98714D01*
X89831Y98712D01*
X87715Y98712D01*
X87657Y98714D01*
X87600Y98720D01*
X87543Y98730D01*
X87486Y98743D01*
X87431Y98761D01*
X87378Y98782D01*
X87325Y98807D01*
X87275Y98835D01*
X87227Y98867D01*
X87180Y98902D01*
X87137Y98940D01*
X87096Y98981D01*
X87058Y99024D01*
X87023Y99071D01*
X86991Y99119D01*
X86963Y99169D01*
X86938Y99222D01*
X86917Y99275D01*
X86899Y99330D01*
X86886Y99387D01*
X86876Y99444D01*
X86870Y99501D01*
X86868Y99559D01*
X86868Y100405D01*
X90678Y101769D02*
X90678Y102828D01*
X90676Y102892D01*
X90670Y102956D01*
X90661Y103019D01*
X90647Y103081D01*
X90630Y103143D01*
X90609Y103203D01*
X90585Y103262D01*
X90557Y103320D01*
X90525Y103375D01*
X90491Y103429D01*
X90453Y103480D01*
X90412Y103530D01*
X90368Y103576D01*
X90322Y103620D01*
X90272Y103661D01*
X90221Y103699D01*
X90167Y103733D01*
X90112Y103765D01*
X90054Y103793D01*
X89995Y103817D01*
X89935Y103838D01*
X89873Y103855D01*
X89811Y103869D01*
X89748Y103878D01*
X89684Y103884D01*
X89620Y103886D01*
X89556Y103884D01*
X89492Y103878D01*
X89429Y103869D01*
X89367Y103855D01*
X89305Y103838D01*
X89245Y103817D01*
X89186Y103793D01*
X89128Y103765D01*
X89073Y103733D01*
X89019Y103699D01*
X88968Y103661D01*
X88918Y103620D01*
X88872Y103576D01*
X88828Y103530D01*
X88787Y103480D01*
X88749Y103429D01*
X88715Y103375D01*
X88683Y103320D01*
X88655Y103262D01*
X88631Y103203D01*
X88610Y103143D01*
X88593Y103081D01*
X88579Y103019D01*
X88570Y102956D01*
X88564Y102892D01*
X88562Y102828D01*
X86868Y103039D02*
X86868Y101769D01*
X86868Y103039D02*
X86870Y103096D01*
X86876Y103152D01*
X86885Y103208D01*
X86898Y103263D01*
X86915Y103317D01*
X86935Y103370D01*
X86959Y103421D01*
X86986Y103471D01*
X87017Y103518D01*
X87050Y103564D01*
X87087Y103607D01*
X87126Y103648D01*
X87168Y103686D01*
X87213Y103721D01*
X87259Y103753D01*
X87308Y103782D01*
X87358Y103807D01*
X87411Y103829D01*
X87464Y103848D01*
X87519Y103863D01*
X87574Y103874D01*
X87630Y103882D01*
X87687Y103886D01*
X87743Y103886D01*
X87800Y103882D01*
X87856Y103874D01*
X87911Y103863D01*
X87966Y103848D01*
X88019Y103829D01*
X88072Y103807D01*
X88122Y103782D01*
X88171Y103753D01*
X88217Y103721D01*
X88262Y103686D01*
X88304Y103648D01*
X88343Y103607D01*
X88380Y103564D01*
X88413Y103518D01*
X88444Y103471D01*
X88471Y103421D01*
X88495Y103370D01*
X88515Y103317D01*
X88532Y103263D01*
X88545Y103208D01*
X88554Y103152D01*
X88560Y103096D01*
X88562Y103039D01*
X88561Y103039D02*
X88561Y102193D01*
D11*
X108585Y153670D02*
X108585Y156210D01*
D12*
X108712Y159830D02*
X108712Y163640D01*
X109770Y163640D01*
X109770Y163639D02*
X109834Y163637D01*
X109898Y163631D01*
X109961Y163622D01*
X110023Y163608D01*
X110085Y163591D01*
X110145Y163570D01*
X110204Y163546D01*
X110262Y163518D01*
X110317Y163486D01*
X110371Y163452D01*
X110422Y163414D01*
X110472Y163373D01*
X110518Y163329D01*
X110562Y163283D01*
X110603Y163233D01*
X110641Y163182D01*
X110675Y163128D01*
X110707Y163073D01*
X110735Y163015D01*
X110759Y162956D01*
X110780Y162896D01*
X110797Y162834D01*
X110811Y162772D01*
X110820Y162709D01*
X110826Y162645D01*
X110828Y162581D01*
X110826Y162517D01*
X110820Y162453D01*
X110811Y162390D01*
X110797Y162328D01*
X110780Y162266D01*
X110759Y162206D01*
X110735Y162147D01*
X110707Y162089D01*
X110675Y162034D01*
X110641Y161980D01*
X110603Y161929D01*
X110562Y161879D01*
X110518Y161833D01*
X110472Y161789D01*
X110422Y161748D01*
X110371Y161710D01*
X110317Y161676D01*
X110262Y161644D01*
X110204Y161616D01*
X110145Y161592D01*
X110085Y161571D01*
X110023Y161554D01*
X109961Y161540D01*
X109898Y161531D01*
X109834Y161525D01*
X109770Y161523D01*
X108712Y161523D01*
X109982Y161523D02*
X110829Y159830D01*
X112349Y159830D02*
X113407Y159830D01*
X113471Y159832D01*
X113535Y159838D01*
X113598Y159847D01*
X113660Y159861D01*
X113722Y159878D01*
X113782Y159899D01*
X113841Y159923D01*
X113899Y159951D01*
X113954Y159983D01*
X114008Y160017D01*
X114059Y160055D01*
X114109Y160096D01*
X114155Y160140D01*
X114199Y160186D01*
X114240Y160236D01*
X114278Y160287D01*
X114312Y160341D01*
X114344Y160396D01*
X114372Y160454D01*
X114396Y160513D01*
X114417Y160573D01*
X114434Y160635D01*
X114448Y160697D01*
X114457Y160760D01*
X114463Y160824D01*
X114465Y160888D01*
X114463Y160952D01*
X114457Y161016D01*
X114448Y161079D01*
X114434Y161141D01*
X114417Y161203D01*
X114396Y161263D01*
X114372Y161322D01*
X114344Y161380D01*
X114312Y161435D01*
X114278Y161489D01*
X114240Y161540D01*
X114199Y161590D01*
X114155Y161636D01*
X114109Y161680D01*
X114059Y161721D01*
X114008Y161759D01*
X113954Y161793D01*
X113899Y161825D01*
X113841Y161853D01*
X113782Y161877D01*
X113722Y161898D01*
X113660Y161915D01*
X113598Y161929D01*
X113535Y161938D01*
X113471Y161944D01*
X113407Y161946D01*
X113619Y163640D02*
X112349Y163640D01*
X113619Y163640D02*
X113676Y163638D01*
X113732Y163632D01*
X113788Y163623D01*
X113843Y163610D01*
X113897Y163593D01*
X113950Y163573D01*
X114001Y163549D01*
X114051Y163522D01*
X114098Y163491D01*
X114144Y163458D01*
X114187Y163421D01*
X114228Y163382D01*
X114266Y163340D01*
X114301Y163295D01*
X114333Y163249D01*
X114362Y163200D01*
X114387Y163150D01*
X114409Y163097D01*
X114428Y163044D01*
X114443Y162989D01*
X114454Y162934D01*
X114462Y162878D01*
X114466Y162821D01*
X114466Y162765D01*
X114462Y162708D01*
X114454Y162652D01*
X114443Y162597D01*
X114428Y162542D01*
X114409Y162489D01*
X114387Y162436D01*
X114362Y162386D01*
X114333Y162337D01*
X114301Y162291D01*
X114266Y162246D01*
X114228Y162204D01*
X114187Y162165D01*
X114144Y162128D01*
X114098Y162095D01*
X114051Y162064D01*
X114001Y162037D01*
X113950Y162013D01*
X113897Y161993D01*
X113843Y161976D01*
X113788Y161963D01*
X113732Y161954D01*
X113676Y161948D01*
X113619Y161946D01*
X112772Y161946D01*
D11*
X280035Y120777D02*
X280035Y118237D01*
D12*
X281009Y119634D02*
X281855Y119634D01*
X281009Y119634D02*
X280954Y119636D01*
X280898Y119641D01*
X280844Y119650D01*
X280790Y119663D01*
X280737Y119679D01*
X280685Y119698D01*
X280634Y119721D01*
X280586Y119747D01*
X280538Y119777D01*
X280493Y119809D01*
X280451Y119844D01*
X280410Y119882D01*
X280372Y119923D01*
X280337Y119965D01*
X280305Y120010D01*
X280275Y120058D01*
X280249Y120106D01*
X280226Y120157D01*
X280207Y120209D01*
X280191Y120262D01*
X280178Y120316D01*
X280169Y120370D01*
X280164Y120426D01*
X280162Y120481D01*
X280162Y122597D01*
X280164Y122655D01*
X280170Y122712D01*
X280180Y122769D01*
X280193Y122826D01*
X280211Y122881D01*
X280232Y122934D01*
X280257Y122987D01*
X280285Y123037D01*
X280317Y123085D01*
X280352Y123132D01*
X280390Y123175D01*
X280431Y123216D01*
X280474Y123254D01*
X280521Y123289D01*
X280569Y123321D01*
X280619Y123349D01*
X280672Y123374D01*
X280725Y123395D01*
X280780Y123413D01*
X280837Y123426D01*
X280894Y123436D01*
X280951Y123442D01*
X281009Y123444D01*
X281855Y123444D01*
X283219Y119634D02*
X284489Y119634D01*
X284544Y119636D01*
X284600Y119641D01*
X284654Y119650D01*
X284708Y119663D01*
X284761Y119679D01*
X284813Y119698D01*
X284864Y119721D01*
X284913Y119747D01*
X284960Y119777D01*
X285005Y119809D01*
X285047Y119844D01*
X285088Y119882D01*
X285126Y119923D01*
X285161Y119965D01*
X285193Y120010D01*
X285223Y120058D01*
X285249Y120106D01*
X285272Y120157D01*
X285291Y120209D01*
X285307Y120262D01*
X285320Y120316D01*
X285329Y120370D01*
X285334Y120426D01*
X285336Y120481D01*
X285336Y120904D01*
X285334Y120959D01*
X285329Y121015D01*
X285320Y121069D01*
X285307Y121123D01*
X285291Y121176D01*
X285272Y121228D01*
X285249Y121279D01*
X285223Y121328D01*
X285193Y121375D01*
X285161Y121420D01*
X285126Y121462D01*
X285088Y121503D01*
X285047Y121541D01*
X285005Y121576D01*
X284960Y121608D01*
X284913Y121638D01*
X284864Y121664D01*
X284813Y121687D01*
X284761Y121706D01*
X284708Y121722D01*
X284654Y121735D01*
X284600Y121744D01*
X284544Y121749D01*
X284489Y121751D01*
X283219Y121751D01*
X283219Y123444D01*
X285336Y123444D01*
D17*
X53630Y54610D03*
X58130Y54610D03*
D18*
X55880Y53610D02*
X53880Y53610D01*
X55880Y53610D02*
X57880Y53610D01*
X55880Y53610D02*
X55880Y55610D01*
D12*
X53667Y44641D02*
X53667Y40831D01*
X53667Y44641D02*
X54725Y44641D01*
X54725Y44640D02*
X54789Y44638D01*
X54853Y44632D01*
X54916Y44623D01*
X54978Y44609D01*
X55040Y44592D01*
X55100Y44571D01*
X55159Y44547D01*
X55217Y44519D01*
X55272Y44487D01*
X55326Y44453D01*
X55377Y44415D01*
X55427Y44374D01*
X55473Y44330D01*
X55517Y44284D01*
X55558Y44234D01*
X55596Y44183D01*
X55630Y44129D01*
X55662Y44074D01*
X55690Y44016D01*
X55714Y43957D01*
X55735Y43897D01*
X55752Y43835D01*
X55766Y43773D01*
X55775Y43710D01*
X55781Y43646D01*
X55783Y43582D01*
X55784Y43582D02*
X55784Y41889D01*
X55783Y41889D02*
X55781Y41825D01*
X55775Y41761D01*
X55766Y41698D01*
X55752Y41636D01*
X55735Y41574D01*
X55714Y41514D01*
X55690Y41455D01*
X55662Y41397D01*
X55630Y41342D01*
X55596Y41288D01*
X55558Y41237D01*
X55517Y41187D01*
X55473Y41141D01*
X55427Y41097D01*
X55377Y41056D01*
X55326Y41018D01*
X55272Y40984D01*
X55217Y40952D01*
X55159Y40924D01*
X55100Y40900D01*
X55040Y40879D01*
X54978Y40862D01*
X54916Y40848D01*
X54853Y40839D01*
X54789Y40833D01*
X54725Y40831D01*
X53667Y40831D01*
X57446Y43794D02*
X58505Y44641D01*
X58505Y40831D01*
X59563Y40831D02*
X57446Y40831D01*
D17*
X76490Y54610D03*
X80990Y54610D03*
D18*
X78740Y53610D02*
X76740Y53610D01*
X78740Y53610D02*
X80740Y53610D01*
X78740Y53610D02*
X78740Y55610D01*
D12*
X75892Y43688D02*
X75892Y39878D01*
X75892Y43688D02*
X76950Y43688D01*
X77014Y43686D01*
X77078Y43680D01*
X77141Y43671D01*
X77203Y43657D01*
X77265Y43640D01*
X77325Y43619D01*
X77384Y43595D01*
X77442Y43567D01*
X77497Y43535D01*
X77551Y43501D01*
X77602Y43463D01*
X77652Y43422D01*
X77698Y43378D01*
X77742Y43332D01*
X77783Y43282D01*
X77821Y43231D01*
X77855Y43177D01*
X77887Y43122D01*
X77915Y43064D01*
X77939Y43005D01*
X77960Y42945D01*
X77977Y42883D01*
X77991Y42821D01*
X78000Y42758D01*
X78006Y42694D01*
X78008Y42630D01*
X78009Y42630D02*
X78009Y40936D01*
X78008Y40936D02*
X78006Y40872D01*
X78000Y40808D01*
X77991Y40745D01*
X77977Y40683D01*
X77960Y40621D01*
X77939Y40561D01*
X77915Y40502D01*
X77887Y40444D01*
X77855Y40389D01*
X77821Y40335D01*
X77783Y40284D01*
X77742Y40234D01*
X77698Y40188D01*
X77652Y40144D01*
X77602Y40103D01*
X77551Y40065D01*
X77497Y40031D01*
X77442Y39999D01*
X77384Y39971D01*
X77325Y39947D01*
X77265Y39926D01*
X77203Y39909D01*
X77141Y39895D01*
X77078Y39886D01*
X77014Y39880D01*
X76950Y39878D01*
X75892Y39878D01*
X79671Y39878D02*
X80730Y39878D01*
X80794Y39880D01*
X80858Y39886D01*
X80921Y39895D01*
X80983Y39909D01*
X81045Y39926D01*
X81105Y39947D01*
X81164Y39971D01*
X81222Y39999D01*
X81277Y40031D01*
X81331Y40065D01*
X81382Y40103D01*
X81432Y40144D01*
X81478Y40188D01*
X81522Y40234D01*
X81563Y40284D01*
X81601Y40335D01*
X81635Y40389D01*
X81667Y40444D01*
X81695Y40502D01*
X81719Y40561D01*
X81740Y40621D01*
X81757Y40683D01*
X81771Y40745D01*
X81780Y40808D01*
X81786Y40872D01*
X81788Y40936D01*
X81786Y41000D01*
X81780Y41064D01*
X81771Y41127D01*
X81757Y41189D01*
X81740Y41251D01*
X81719Y41311D01*
X81695Y41370D01*
X81667Y41428D01*
X81635Y41483D01*
X81601Y41537D01*
X81563Y41588D01*
X81522Y41638D01*
X81478Y41684D01*
X81432Y41728D01*
X81382Y41769D01*
X81331Y41807D01*
X81277Y41841D01*
X81222Y41873D01*
X81164Y41901D01*
X81105Y41925D01*
X81045Y41946D01*
X80983Y41963D01*
X80921Y41977D01*
X80858Y41986D01*
X80794Y41992D01*
X80730Y41994D01*
X80941Y43688D02*
X79671Y43688D01*
X80941Y43688D02*
X80998Y43686D01*
X81054Y43680D01*
X81110Y43671D01*
X81165Y43658D01*
X81219Y43641D01*
X81272Y43621D01*
X81323Y43597D01*
X81373Y43570D01*
X81420Y43539D01*
X81466Y43506D01*
X81509Y43469D01*
X81550Y43430D01*
X81588Y43388D01*
X81623Y43343D01*
X81655Y43297D01*
X81684Y43248D01*
X81709Y43198D01*
X81731Y43145D01*
X81750Y43092D01*
X81765Y43037D01*
X81776Y42982D01*
X81784Y42926D01*
X81788Y42869D01*
X81788Y42813D01*
X81784Y42756D01*
X81776Y42700D01*
X81765Y42645D01*
X81750Y42590D01*
X81731Y42537D01*
X81709Y42484D01*
X81684Y42434D01*
X81655Y42385D01*
X81623Y42339D01*
X81588Y42294D01*
X81550Y42252D01*
X81509Y42213D01*
X81466Y42176D01*
X81420Y42143D01*
X81373Y42112D01*
X81323Y42085D01*
X81272Y42061D01*
X81219Y42041D01*
X81165Y42024D01*
X81110Y42011D01*
X81054Y42002D01*
X80998Y41996D01*
X80941Y41994D01*
X80941Y41995D02*
X80095Y41995D01*
D11*
X134239Y135128D02*
X134239Y137668D01*
D12*
X131191Y132398D02*
X131191Y128588D01*
X131191Y132398D02*
X132249Y132398D01*
X132249Y132397D02*
X132313Y132395D01*
X132377Y132389D01*
X132440Y132380D01*
X132502Y132366D01*
X132564Y132349D01*
X132624Y132328D01*
X132683Y132304D01*
X132741Y132276D01*
X132796Y132244D01*
X132850Y132210D01*
X132901Y132172D01*
X132951Y132131D01*
X132997Y132087D01*
X133041Y132041D01*
X133082Y131991D01*
X133120Y131940D01*
X133154Y131886D01*
X133186Y131831D01*
X133214Y131773D01*
X133238Y131714D01*
X133259Y131654D01*
X133276Y131592D01*
X133290Y131530D01*
X133299Y131467D01*
X133305Y131403D01*
X133307Y131339D01*
X133305Y131275D01*
X133299Y131211D01*
X133290Y131148D01*
X133276Y131086D01*
X133259Y131024D01*
X133238Y130964D01*
X133214Y130905D01*
X133186Y130847D01*
X133154Y130792D01*
X133120Y130738D01*
X133082Y130687D01*
X133041Y130637D01*
X132997Y130591D01*
X132951Y130547D01*
X132901Y130506D01*
X132850Y130468D01*
X132796Y130434D01*
X132741Y130402D01*
X132683Y130374D01*
X132624Y130350D01*
X132564Y130329D01*
X132502Y130312D01*
X132440Y130298D01*
X132377Y130289D01*
X132313Y130283D01*
X132249Y130281D01*
X131191Y130281D01*
X132461Y130281D02*
X133308Y128588D01*
X134828Y130704D02*
X136098Y130704D01*
X136098Y130705D02*
X136153Y130703D01*
X136209Y130698D01*
X136263Y130689D01*
X136317Y130676D01*
X136370Y130660D01*
X136422Y130641D01*
X136473Y130618D01*
X136522Y130592D01*
X136569Y130562D01*
X136614Y130530D01*
X136656Y130495D01*
X136697Y130457D01*
X136735Y130416D01*
X136770Y130374D01*
X136802Y130329D01*
X136832Y130282D01*
X136858Y130233D01*
X136881Y130182D01*
X136900Y130130D01*
X136916Y130077D01*
X136929Y130023D01*
X136938Y129969D01*
X136943Y129913D01*
X136945Y129858D01*
X136944Y129858D02*
X136944Y129646D01*
X136942Y129582D01*
X136936Y129518D01*
X136927Y129455D01*
X136913Y129393D01*
X136896Y129331D01*
X136875Y129271D01*
X136851Y129212D01*
X136823Y129154D01*
X136791Y129099D01*
X136757Y129045D01*
X136719Y128994D01*
X136678Y128944D01*
X136634Y128898D01*
X136588Y128854D01*
X136538Y128813D01*
X136487Y128775D01*
X136433Y128741D01*
X136378Y128709D01*
X136320Y128681D01*
X136261Y128657D01*
X136201Y128636D01*
X136139Y128619D01*
X136077Y128605D01*
X136014Y128596D01*
X135950Y128590D01*
X135886Y128588D01*
X135822Y128590D01*
X135758Y128596D01*
X135695Y128605D01*
X135633Y128619D01*
X135571Y128636D01*
X135511Y128657D01*
X135452Y128681D01*
X135394Y128709D01*
X135339Y128741D01*
X135285Y128775D01*
X135234Y128813D01*
X135184Y128854D01*
X135138Y128898D01*
X135094Y128944D01*
X135053Y128994D01*
X135015Y129045D01*
X134981Y129099D01*
X134949Y129154D01*
X134921Y129212D01*
X134897Y129271D01*
X134876Y129331D01*
X134859Y129393D01*
X134845Y129455D01*
X134836Y129518D01*
X134830Y129582D01*
X134828Y129646D01*
X134828Y130704D01*
X134830Y130785D01*
X134836Y130865D01*
X134845Y130945D01*
X134859Y131024D01*
X134876Y131103D01*
X134897Y131181D01*
X134921Y131258D01*
X134949Y131333D01*
X134981Y131407D01*
X135016Y131480D01*
X135055Y131550D01*
X135097Y131619D01*
X135142Y131686D01*
X135190Y131751D01*
X135242Y131813D01*
X135296Y131872D01*
X135353Y131929D01*
X135412Y131983D01*
X135474Y132035D01*
X135539Y132083D01*
X135606Y132128D01*
X135674Y132170D01*
X135745Y132209D01*
X135818Y132244D01*
X135892Y132276D01*
X135967Y132304D01*
X136044Y132328D01*
X136122Y132349D01*
X136201Y132366D01*
X136280Y132380D01*
X136360Y132389D01*
X136440Y132395D01*
X136521Y132397D01*
D11*
X134239Y146050D02*
X134239Y148590D01*
D12*
X124905Y145821D02*
X121095Y145821D01*
X121095Y146880D01*
X121097Y146944D01*
X121103Y147008D01*
X121112Y147071D01*
X121126Y147133D01*
X121143Y147195D01*
X121164Y147255D01*
X121188Y147314D01*
X121216Y147372D01*
X121248Y147427D01*
X121282Y147481D01*
X121320Y147532D01*
X121361Y147582D01*
X121405Y147628D01*
X121451Y147672D01*
X121501Y147713D01*
X121552Y147751D01*
X121606Y147785D01*
X121661Y147817D01*
X121719Y147845D01*
X121778Y147869D01*
X121838Y147890D01*
X121900Y147907D01*
X121962Y147921D01*
X122025Y147930D01*
X122089Y147936D01*
X122153Y147938D01*
X122217Y147936D01*
X122281Y147930D01*
X122344Y147921D01*
X122406Y147907D01*
X122468Y147890D01*
X122528Y147869D01*
X122587Y147845D01*
X122645Y147817D01*
X122700Y147785D01*
X122754Y147751D01*
X122805Y147713D01*
X122855Y147672D01*
X122901Y147628D01*
X122945Y147582D01*
X122986Y147532D01*
X123024Y147481D01*
X123058Y147427D01*
X123090Y147372D01*
X123118Y147314D01*
X123142Y147255D01*
X123163Y147195D01*
X123180Y147133D01*
X123194Y147071D01*
X123203Y147008D01*
X123209Y146944D01*
X123211Y146880D01*
X123211Y145821D01*
X123211Y147091D02*
X124905Y147938D01*
X121518Y149458D02*
X121095Y149458D01*
X121095Y151575D01*
X124905Y150516D01*
X89514Y68009D02*
X89514Y64199D01*
X88456Y68009D02*
X90572Y68009D01*
X93033Y68009D02*
X93093Y68007D01*
X93152Y68001D01*
X93212Y67992D01*
X93270Y67979D01*
X93327Y67962D01*
X93384Y67942D01*
X93439Y67918D01*
X93492Y67891D01*
X93544Y67861D01*
X93593Y67827D01*
X93640Y67790D01*
X93685Y67751D01*
X93728Y67708D01*
X93767Y67663D01*
X93804Y67616D01*
X93838Y67567D01*
X93868Y67515D01*
X93895Y67462D01*
X93919Y67407D01*
X93939Y67350D01*
X93956Y67293D01*
X93969Y67235D01*
X93978Y67175D01*
X93984Y67116D01*
X93986Y67056D01*
X93033Y68009D02*
X92966Y68007D01*
X92899Y68002D01*
X92833Y67993D01*
X92767Y67980D01*
X92703Y67964D01*
X92639Y67944D01*
X92576Y67920D01*
X92514Y67894D01*
X92455Y67864D01*
X92397Y67831D01*
X92340Y67794D01*
X92286Y67755D01*
X92234Y67713D01*
X92185Y67668D01*
X92138Y67620D01*
X92094Y67570D01*
X92052Y67517D01*
X92014Y67462D01*
X91978Y67406D01*
X91946Y67347D01*
X91917Y67287D01*
X91891Y67225D01*
X91869Y67162D01*
X93669Y66315D02*
X93710Y66357D01*
X93749Y66402D01*
X93786Y66448D01*
X93820Y66497D01*
X93851Y66547D01*
X93878Y66599D01*
X93903Y66653D01*
X93925Y66708D01*
X93944Y66764D01*
X93959Y66821D01*
X93971Y66879D01*
X93979Y66938D01*
X93984Y66997D01*
X93986Y67056D01*
X93668Y66315D02*
X91869Y64199D01*
X93986Y64199D01*
D11*
X97790Y75184D02*
X100330Y75184D01*
D12*
X93078Y84011D02*
X93078Y87821D01*
X94136Y87821D01*
X94136Y87820D02*
X94200Y87818D01*
X94264Y87812D01*
X94327Y87803D01*
X94389Y87789D01*
X94451Y87772D01*
X94511Y87751D01*
X94570Y87727D01*
X94628Y87699D01*
X94683Y87667D01*
X94737Y87633D01*
X94788Y87595D01*
X94838Y87554D01*
X94884Y87510D01*
X94928Y87464D01*
X94969Y87414D01*
X95007Y87363D01*
X95041Y87309D01*
X95073Y87254D01*
X95101Y87196D01*
X95125Y87137D01*
X95146Y87077D01*
X95163Y87015D01*
X95177Y86953D01*
X95186Y86890D01*
X95192Y86826D01*
X95194Y86762D01*
X95192Y86698D01*
X95186Y86634D01*
X95177Y86571D01*
X95163Y86509D01*
X95146Y86447D01*
X95125Y86387D01*
X95101Y86328D01*
X95073Y86270D01*
X95041Y86215D01*
X95007Y86161D01*
X94969Y86110D01*
X94928Y86060D01*
X94884Y86014D01*
X94838Y85970D01*
X94788Y85929D01*
X94737Y85891D01*
X94683Y85857D01*
X94628Y85825D01*
X94570Y85797D01*
X94511Y85773D01*
X94451Y85752D01*
X94389Y85735D01*
X94327Y85721D01*
X94264Y85712D01*
X94200Y85706D01*
X94136Y85704D01*
X93078Y85704D01*
X94348Y85704D02*
X95195Y84011D01*
X96715Y86974D02*
X97773Y87821D01*
X97773Y84011D01*
X96715Y84011D02*
X98831Y84011D01*
X102490Y86868D02*
X102488Y86928D01*
X102482Y86987D01*
X102473Y87047D01*
X102460Y87105D01*
X102443Y87162D01*
X102423Y87219D01*
X102399Y87274D01*
X102372Y87327D01*
X102342Y87379D01*
X102308Y87428D01*
X102271Y87475D01*
X102232Y87520D01*
X102189Y87563D01*
X102144Y87602D01*
X102097Y87639D01*
X102048Y87673D01*
X101996Y87703D01*
X101943Y87730D01*
X101888Y87754D01*
X101831Y87774D01*
X101774Y87791D01*
X101716Y87804D01*
X101656Y87813D01*
X101597Y87819D01*
X101537Y87821D01*
X101470Y87819D01*
X101403Y87814D01*
X101337Y87805D01*
X101271Y87792D01*
X101207Y87776D01*
X101143Y87756D01*
X101080Y87732D01*
X101018Y87706D01*
X100959Y87676D01*
X100901Y87643D01*
X100844Y87606D01*
X100790Y87567D01*
X100738Y87525D01*
X100689Y87480D01*
X100642Y87432D01*
X100598Y87382D01*
X100556Y87329D01*
X100518Y87274D01*
X100482Y87218D01*
X100450Y87159D01*
X100421Y87099D01*
X100395Y87037D01*
X100373Y86974D01*
X102172Y86127D02*
X102213Y86169D01*
X102252Y86214D01*
X102289Y86260D01*
X102323Y86309D01*
X102354Y86359D01*
X102381Y86411D01*
X102406Y86465D01*
X102428Y86520D01*
X102447Y86576D01*
X102462Y86633D01*
X102474Y86691D01*
X102482Y86750D01*
X102487Y86809D01*
X102489Y86868D01*
X102172Y86127D02*
X100372Y84011D01*
X102489Y84011D01*
D11*
X72390Y104140D02*
X72390Y106680D01*
D12*
X63627Y105295D02*
X63627Y104448D01*
X63625Y104390D01*
X63619Y104333D01*
X63609Y104276D01*
X63596Y104219D01*
X63578Y104164D01*
X63557Y104111D01*
X63532Y104058D01*
X63504Y104008D01*
X63472Y103960D01*
X63437Y103913D01*
X63399Y103870D01*
X63358Y103829D01*
X63315Y103791D01*
X63268Y103756D01*
X63220Y103724D01*
X63170Y103696D01*
X63117Y103671D01*
X63064Y103650D01*
X63009Y103632D01*
X62952Y103619D01*
X62895Y103609D01*
X62838Y103603D01*
X62780Y103601D01*
X60664Y103601D01*
X60606Y103603D01*
X60549Y103609D01*
X60492Y103619D01*
X60435Y103632D01*
X60380Y103650D01*
X60327Y103671D01*
X60274Y103696D01*
X60224Y103724D01*
X60176Y103756D01*
X60129Y103791D01*
X60086Y103829D01*
X60045Y103870D01*
X60007Y103913D01*
X59972Y103960D01*
X59940Y104008D01*
X59912Y104058D01*
X59887Y104111D01*
X59866Y104164D01*
X59848Y104219D01*
X59835Y104276D01*
X59825Y104333D01*
X59819Y104390D01*
X59817Y104448D01*
X59817Y105295D01*
X59817Y106659D02*
X60240Y106659D01*
X59817Y106659D02*
X59817Y108776D01*
X63627Y107717D01*
D13*
X43292Y-107964D02*
X40292Y-107964D01*
X41292Y-105964D02*
X43292Y-107964D01*
X41292Y-105964D02*
X39292Y-107964D01*
X40292Y-107964D01*
X41292Y-106964D01*
D12*
X35243Y-113385D02*
X31433Y-113385D01*
X35243Y-113385D02*
X35243Y-111692D01*
X35243Y-110215D02*
X35243Y-108522D01*
X35243Y-110215D02*
X31433Y-110215D01*
X31433Y-108522D01*
X33126Y-108945D02*
X33126Y-110215D01*
X31433Y-107052D02*
X35243Y-107052D01*
X31433Y-107052D02*
X31433Y-105993D01*
X31435Y-105929D01*
X31441Y-105865D01*
X31450Y-105802D01*
X31464Y-105740D01*
X31481Y-105678D01*
X31502Y-105618D01*
X31526Y-105559D01*
X31554Y-105501D01*
X31586Y-105446D01*
X31620Y-105392D01*
X31658Y-105341D01*
X31699Y-105291D01*
X31743Y-105245D01*
X31789Y-105201D01*
X31839Y-105160D01*
X31890Y-105122D01*
X31944Y-105088D01*
X31999Y-105056D01*
X32057Y-105028D01*
X32116Y-105004D01*
X32176Y-104983D01*
X32238Y-104966D01*
X32300Y-104952D01*
X32363Y-104943D01*
X32427Y-104937D01*
X32491Y-104935D01*
X34184Y-104935D01*
X34248Y-104937D01*
X34312Y-104943D01*
X34375Y-104952D01*
X34437Y-104966D01*
X34499Y-104983D01*
X34559Y-105004D01*
X34618Y-105028D01*
X34676Y-105056D01*
X34731Y-105088D01*
X34785Y-105122D01*
X34836Y-105160D01*
X34886Y-105201D01*
X34932Y-105245D01*
X34976Y-105291D01*
X35017Y-105341D01*
X35055Y-105392D01*
X35089Y-105446D01*
X35121Y-105501D01*
X35149Y-105559D01*
X35173Y-105618D01*
X35194Y-105678D01*
X35211Y-105740D01*
X35225Y-105802D01*
X35234Y-105866D01*
X35240Y-105929D01*
X35242Y-105993D01*
X35243Y-105993D02*
X35243Y-107052D01*
X32279Y-103272D02*
X31433Y-102214D01*
X35243Y-102214D01*
X35243Y-103272D02*
X35243Y-101156D01*
D13*
X260350Y29972D02*
X262890Y29972D01*
X260350Y29972D02*
X260350Y42672D01*
X260350Y157472D02*
X260350Y167472D01*
X270350Y167472D01*
X302650Y167472D02*
X312650Y167472D01*
X312650Y157472D01*
X312674Y39972D02*
X312674Y29972D01*
X312650Y29972D02*
X302650Y29972D01*
D18*
X76982Y127610D02*
X76984Y127662D01*
X76990Y127713D01*
X77000Y127764D01*
X77013Y127815D01*
X77031Y127863D01*
X77052Y127911D01*
X77076Y127957D01*
X77104Y128001D01*
X77135Y128042D01*
X77169Y128081D01*
X77206Y128117D01*
X77246Y128151D01*
X77288Y128181D01*
X77333Y128208D01*
X77379Y128232D01*
X77427Y128252D01*
X77476Y128269D01*
X77526Y128281D01*
X77577Y128290D01*
X77629Y128295D01*
X77681Y128296D01*
X77733Y128293D01*
X77784Y128286D01*
X77835Y128275D01*
X77885Y128261D01*
X77934Y128243D01*
X77981Y128221D01*
X78026Y128195D01*
X78069Y128167D01*
X78110Y128135D01*
X78148Y128100D01*
X78184Y128062D01*
X78217Y128022D01*
X78246Y127979D01*
X78273Y127934D01*
X78295Y127887D01*
X78315Y127839D01*
X78330Y127790D01*
X78342Y127739D01*
X78350Y127688D01*
X78354Y127636D01*
X78354Y127584D01*
X78350Y127532D01*
X78342Y127481D01*
X78330Y127430D01*
X78315Y127381D01*
X78295Y127333D01*
X78273Y127286D01*
X78246Y127241D01*
X78217Y127198D01*
X78184Y127158D01*
X78148Y127120D01*
X78110Y127085D01*
X78069Y127053D01*
X78026Y127025D01*
X77981Y126999D01*
X77934Y126977D01*
X77885Y126959D01*
X77835Y126945D01*
X77784Y126934D01*
X77733Y126927D01*
X77681Y126924D01*
X77629Y126925D01*
X77577Y126930D01*
X77526Y126939D01*
X77476Y126951D01*
X77427Y126968D01*
X77379Y126988D01*
X77333Y127012D01*
X77288Y127039D01*
X77246Y127069D01*
X77206Y127103D01*
X77169Y127139D01*
X77135Y127178D01*
X77104Y127219D01*
X77076Y127263D01*
X77052Y127309D01*
X77031Y127357D01*
X77013Y127405D01*
X77000Y127456D01*
X76990Y127507D01*
X76984Y127558D01*
X76982Y127610D01*
D12*
X65744Y116532D02*
X62992Y116532D01*
X65744Y116532D02*
X65808Y116534D01*
X65872Y116540D01*
X65935Y116549D01*
X65997Y116563D01*
X66059Y116580D01*
X66119Y116601D01*
X66178Y116625D01*
X66236Y116653D01*
X66291Y116685D01*
X66345Y116719D01*
X66396Y116757D01*
X66446Y116798D01*
X66492Y116842D01*
X66536Y116888D01*
X66577Y116938D01*
X66615Y116989D01*
X66649Y117043D01*
X66681Y117098D01*
X66709Y117156D01*
X66733Y117215D01*
X66754Y117275D01*
X66771Y117337D01*
X66785Y117399D01*
X66794Y117462D01*
X66800Y117526D01*
X66802Y117590D01*
X66800Y117654D01*
X66794Y117718D01*
X66785Y117781D01*
X66771Y117843D01*
X66754Y117905D01*
X66733Y117965D01*
X66709Y118024D01*
X66681Y118082D01*
X66649Y118137D01*
X66615Y118191D01*
X66577Y118242D01*
X66536Y118292D01*
X66492Y118338D01*
X66446Y118382D01*
X66396Y118423D01*
X66345Y118461D01*
X66291Y118495D01*
X66236Y118527D01*
X66178Y118555D01*
X66119Y118579D01*
X66059Y118600D01*
X65997Y118617D01*
X65935Y118631D01*
X65872Y118640D01*
X65808Y118646D01*
X65744Y118648D01*
X65744Y118649D02*
X62992Y118649D01*
X63839Y120311D02*
X62992Y121370D01*
X66802Y121370D01*
X66802Y122428D02*
X66802Y120311D01*
D11*
X217796Y146930D02*
X219592Y148726D01*
D12*
X218874Y154178D02*
X221568Y156872D01*
X222316Y156124D01*
X222316Y156123D02*
X222360Y156077D01*
X222401Y156027D01*
X222439Y155976D01*
X222473Y155922D01*
X222505Y155867D01*
X222533Y155809D01*
X222557Y155750D01*
X222578Y155690D01*
X222595Y155628D01*
X222609Y155566D01*
X222618Y155503D01*
X222624Y155439D01*
X222626Y155375D01*
X222624Y155311D01*
X222618Y155247D01*
X222609Y155184D01*
X222595Y155122D01*
X222578Y155060D01*
X222557Y155000D01*
X222533Y154941D01*
X222505Y154883D01*
X222473Y154828D01*
X222439Y154774D01*
X222401Y154723D01*
X222360Y154673D01*
X222316Y154627D01*
X222270Y154583D01*
X222220Y154542D01*
X222169Y154504D01*
X222115Y154470D01*
X222060Y154438D01*
X222002Y154410D01*
X221943Y154386D01*
X221883Y154365D01*
X221821Y154348D01*
X221759Y154334D01*
X221696Y154325D01*
X221632Y154319D01*
X221568Y154317D01*
X221504Y154319D01*
X221440Y154325D01*
X221377Y154334D01*
X221315Y154348D01*
X221253Y154365D01*
X221193Y154386D01*
X221134Y154410D01*
X221076Y154438D01*
X221021Y154470D01*
X220967Y154504D01*
X220916Y154542D01*
X220866Y154583D01*
X220820Y154627D01*
X220819Y154627D02*
X220071Y155375D01*
X220969Y154477D02*
X220370Y152681D01*
X221445Y151606D02*
X222343Y150708D01*
X222384Y150670D01*
X222426Y150635D01*
X222471Y150603D01*
X222518Y150573D01*
X222567Y150547D01*
X222618Y150524D01*
X222670Y150505D01*
X222723Y150489D01*
X222777Y150476D01*
X222831Y150467D01*
X222887Y150462D01*
X222942Y150460D01*
X222997Y150462D01*
X223053Y150467D01*
X223107Y150476D01*
X223161Y150489D01*
X223214Y150505D01*
X223266Y150524D01*
X223317Y150547D01*
X223366Y150573D01*
X223413Y150603D01*
X223458Y150635D01*
X223500Y150670D01*
X223541Y150708D01*
X223540Y150708D02*
X223840Y151008D01*
X223840Y151007D02*
X223878Y151048D01*
X223913Y151090D01*
X223945Y151135D01*
X223975Y151183D01*
X224001Y151231D01*
X224024Y151282D01*
X224043Y151334D01*
X224059Y151387D01*
X224072Y151441D01*
X224081Y151495D01*
X224086Y151551D01*
X224088Y151606D01*
X224086Y151661D01*
X224081Y151717D01*
X224072Y151771D01*
X224059Y151825D01*
X224043Y151878D01*
X224024Y151930D01*
X224001Y151981D01*
X223975Y152030D01*
X223945Y152077D01*
X223913Y152122D01*
X223878Y152164D01*
X223840Y152205D01*
X222942Y153103D01*
X224139Y154301D01*
X225636Y152804D01*
D11*
X166370Y148590D02*
X166370Y146050D01*
D12*
X164350Y151321D02*
X163503Y151321D01*
X163503Y151320D02*
X163448Y151322D01*
X163392Y151327D01*
X163338Y151336D01*
X163284Y151349D01*
X163231Y151365D01*
X163179Y151384D01*
X163128Y151407D01*
X163080Y151433D01*
X163032Y151463D01*
X162987Y151495D01*
X162945Y151530D01*
X162904Y151568D01*
X162866Y151609D01*
X162831Y151651D01*
X162799Y151696D01*
X162769Y151744D01*
X162743Y151792D01*
X162720Y151843D01*
X162701Y151895D01*
X162685Y151948D01*
X162672Y152002D01*
X162663Y152056D01*
X162658Y152112D01*
X162656Y152167D01*
X162656Y154284D01*
X162658Y154342D01*
X162664Y154399D01*
X162674Y154456D01*
X162687Y154513D01*
X162705Y154568D01*
X162726Y154621D01*
X162751Y154674D01*
X162779Y154724D01*
X162811Y154772D01*
X162846Y154819D01*
X162884Y154862D01*
X162925Y154903D01*
X162968Y154941D01*
X163015Y154976D01*
X163063Y155008D01*
X163113Y155036D01*
X163166Y155061D01*
X163219Y155082D01*
X163274Y155100D01*
X163331Y155113D01*
X163388Y155123D01*
X163445Y155129D01*
X163503Y155131D01*
X164350Y155131D01*
X165714Y153437D02*
X166984Y153437D01*
X166984Y153438D02*
X167039Y153436D01*
X167095Y153431D01*
X167149Y153422D01*
X167203Y153409D01*
X167256Y153393D01*
X167308Y153374D01*
X167359Y153351D01*
X167408Y153325D01*
X167455Y153295D01*
X167500Y153263D01*
X167542Y153228D01*
X167583Y153190D01*
X167621Y153149D01*
X167656Y153107D01*
X167688Y153062D01*
X167718Y153015D01*
X167744Y152966D01*
X167767Y152915D01*
X167786Y152863D01*
X167802Y152810D01*
X167815Y152756D01*
X167824Y152702D01*
X167829Y152646D01*
X167831Y152591D01*
X167831Y152379D01*
X167830Y152379D02*
X167828Y152315D01*
X167822Y152251D01*
X167813Y152188D01*
X167799Y152126D01*
X167782Y152064D01*
X167761Y152004D01*
X167737Y151945D01*
X167709Y151887D01*
X167677Y151832D01*
X167643Y151778D01*
X167605Y151727D01*
X167564Y151677D01*
X167520Y151631D01*
X167474Y151587D01*
X167424Y151546D01*
X167373Y151508D01*
X167319Y151474D01*
X167264Y151442D01*
X167206Y151414D01*
X167147Y151390D01*
X167087Y151369D01*
X167025Y151352D01*
X166963Y151338D01*
X166900Y151329D01*
X166836Y151323D01*
X166772Y151321D01*
X166708Y151323D01*
X166644Y151329D01*
X166581Y151338D01*
X166519Y151352D01*
X166457Y151369D01*
X166397Y151390D01*
X166338Y151414D01*
X166280Y151442D01*
X166225Y151474D01*
X166171Y151508D01*
X166120Y151546D01*
X166070Y151587D01*
X166024Y151631D01*
X165980Y151677D01*
X165939Y151727D01*
X165901Y151778D01*
X165867Y151832D01*
X165835Y151887D01*
X165807Y151945D01*
X165783Y152004D01*
X165762Y152064D01*
X165745Y152126D01*
X165731Y152188D01*
X165722Y152251D01*
X165716Y152315D01*
X165714Y152379D01*
X165714Y153437D01*
X165716Y153518D01*
X165722Y153598D01*
X165731Y153678D01*
X165745Y153757D01*
X165762Y153836D01*
X165783Y153914D01*
X165807Y153991D01*
X165835Y154066D01*
X165867Y154140D01*
X165902Y154213D01*
X165941Y154283D01*
X165983Y154352D01*
X166028Y154419D01*
X166076Y154484D01*
X166128Y154546D01*
X166182Y154605D01*
X166239Y154662D01*
X166298Y154716D01*
X166360Y154768D01*
X166425Y154816D01*
X166492Y154861D01*
X166560Y154903D01*
X166631Y154942D01*
X166704Y154977D01*
X166778Y155009D01*
X166853Y155037D01*
X166930Y155061D01*
X167008Y155082D01*
X167087Y155099D01*
X167166Y155113D01*
X167246Y155122D01*
X167326Y155128D01*
X167407Y155130D01*
X288417Y113792D02*
X292227Y113792D01*
X292227Y115485D01*
X289264Y116834D02*
X288417Y117892D01*
X292227Y117892D01*
X292227Y116834D02*
X292227Y118950D01*
D11*
X268605Y114300D02*
X266065Y114300D01*
D12*
X271272Y110692D02*
X271272Y109846D01*
X271270Y109788D01*
X271264Y109731D01*
X271254Y109674D01*
X271241Y109617D01*
X271223Y109562D01*
X271202Y109509D01*
X271177Y109456D01*
X271149Y109406D01*
X271117Y109358D01*
X271082Y109311D01*
X271044Y109268D01*
X271003Y109227D01*
X270960Y109189D01*
X270913Y109154D01*
X270865Y109122D01*
X270815Y109094D01*
X270762Y109069D01*
X270709Y109048D01*
X270654Y109030D01*
X270597Y109017D01*
X270540Y109007D01*
X270483Y109001D01*
X270425Y108999D01*
X268309Y108999D01*
X268251Y109001D01*
X268194Y109007D01*
X268137Y109017D01*
X268080Y109030D01*
X268025Y109048D01*
X267972Y109069D01*
X267919Y109094D01*
X267869Y109122D01*
X267821Y109154D01*
X267774Y109189D01*
X267731Y109227D01*
X267690Y109268D01*
X267652Y109311D01*
X267617Y109358D01*
X267585Y109406D01*
X267557Y109456D01*
X267532Y109509D01*
X267511Y109562D01*
X267493Y109617D01*
X267480Y109674D01*
X267470Y109731D01*
X267464Y109788D01*
X267462Y109846D01*
X267462Y110692D01*
X267462Y112903D02*
X270425Y112056D01*
X270425Y114173D01*
X269579Y113538D02*
X271272Y113538D01*
D19*
X233974Y-134320D02*
X227149Y-141145D01*
X230741Y-144737D01*
X237566Y-137912D02*
X233974Y-134320D01*
X228945Y-129291D02*
X222120Y-136116D01*
X228945Y-129291D02*
X225353Y-125699D01*
X218528Y-132524D02*
X222120Y-136116D01*
X228945Y-129291D02*
X233974Y-134320D01*
X225353Y-125699D02*
X218528Y-132524D01*
X222120Y-136116D02*
X227149Y-141145D01*
X230741Y-144737D02*
X237566Y-137912D01*
D12*
X228359Y-123614D02*
X231053Y-120920D01*
X231802Y-121669D01*
X231801Y-121669D02*
X231845Y-121715D01*
X231886Y-121764D01*
X231924Y-121816D01*
X231958Y-121870D01*
X231990Y-121925D01*
X232018Y-121983D01*
X232042Y-122042D01*
X232063Y-122102D01*
X232080Y-122164D01*
X232094Y-122226D01*
X232103Y-122289D01*
X232109Y-122353D01*
X232111Y-122417D01*
X232109Y-122481D01*
X232103Y-122545D01*
X232094Y-122608D01*
X232080Y-122670D01*
X232063Y-122732D01*
X232042Y-122792D01*
X232018Y-122851D01*
X231990Y-122909D01*
X231958Y-122964D01*
X231924Y-123018D01*
X231886Y-123069D01*
X231845Y-123119D01*
X231801Y-123165D01*
X231755Y-123209D01*
X231705Y-123250D01*
X231654Y-123288D01*
X231600Y-123322D01*
X231545Y-123354D01*
X231487Y-123382D01*
X231428Y-123406D01*
X231368Y-123427D01*
X231306Y-123444D01*
X231244Y-123458D01*
X231181Y-123467D01*
X231117Y-123473D01*
X231053Y-123475D01*
X230989Y-123473D01*
X230925Y-123467D01*
X230862Y-123458D01*
X230800Y-123444D01*
X230738Y-123427D01*
X230678Y-123406D01*
X230619Y-123382D01*
X230561Y-123354D01*
X230506Y-123322D01*
X230452Y-123288D01*
X230400Y-123250D01*
X230351Y-123209D01*
X230305Y-123165D01*
X229557Y-122417D01*
X230455Y-123315D02*
X229856Y-125111D01*
X231022Y-126277D02*
X233716Y-123582D01*
X234913Y-124780D01*
X233716Y-125977D02*
X232518Y-124780D01*
X234789Y-127051D02*
X235538Y-127799D01*
X235537Y-127800D02*
X235581Y-127846D01*
X235622Y-127896D01*
X235660Y-127947D01*
X235694Y-128001D01*
X235726Y-128056D01*
X235754Y-128114D01*
X235778Y-128173D01*
X235799Y-128233D01*
X235816Y-128295D01*
X235830Y-128357D01*
X235839Y-128420D01*
X235845Y-128484D01*
X235847Y-128548D01*
X235845Y-128612D01*
X235839Y-128676D01*
X235830Y-128739D01*
X235816Y-128801D01*
X235799Y-128863D01*
X235778Y-128923D01*
X235754Y-128982D01*
X235726Y-129040D01*
X235694Y-129095D01*
X235660Y-129149D01*
X235622Y-129200D01*
X235581Y-129250D01*
X235537Y-129296D01*
X235491Y-129340D01*
X235441Y-129381D01*
X235390Y-129419D01*
X235336Y-129453D01*
X235281Y-129485D01*
X235223Y-129513D01*
X235164Y-129537D01*
X235104Y-129558D01*
X235042Y-129575D01*
X234980Y-129589D01*
X234917Y-129598D01*
X234853Y-129604D01*
X234789Y-129606D01*
X234725Y-129604D01*
X234661Y-129598D01*
X234598Y-129589D01*
X234536Y-129575D01*
X234474Y-129558D01*
X234414Y-129537D01*
X234355Y-129513D01*
X234297Y-129485D01*
X234242Y-129453D01*
X234188Y-129419D01*
X234136Y-129381D01*
X234087Y-129340D01*
X234041Y-129296D01*
X233293Y-128548D01*
X235987Y-125853D01*
X236735Y-126602D01*
X236735Y-126601D02*
X236774Y-126642D01*
X236809Y-126686D01*
X236842Y-126732D01*
X236872Y-126781D01*
X236898Y-126831D01*
X236921Y-126882D01*
X236941Y-126936D01*
X236957Y-126990D01*
X236969Y-127045D01*
X236977Y-127101D01*
X236982Y-127158D01*
X236983Y-127214D01*
X236980Y-127271D01*
X236973Y-127327D01*
X236963Y-127383D01*
X236949Y-127437D01*
X236931Y-127491D01*
X236910Y-127544D01*
X236885Y-127595D01*
X236857Y-127644D01*
X236826Y-127691D01*
X236792Y-127736D01*
X236755Y-127779D01*
X236715Y-127819D01*
X236672Y-127856D01*
X236627Y-127890D01*
X236580Y-127921D01*
X236531Y-127949D01*
X236480Y-127974D01*
X236427Y-127995D01*
X236373Y-128013D01*
X236319Y-128027D01*
X236263Y-128037D01*
X236207Y-128044D01*
X236150Y-128047D01*
X236094Y-128046D01*
X236037Y-128041D01*
X235981Y-128033D01*
X235926Y-128021D01*
X235872Y-128005D01*
X235818Y-127985D01*
X235767Y-127962D01*
X235717Y-127936D01*
X235668Y-127906D01*
X235622Y-127873D01*
X235578Y-127838D01*
X235537Y-127799D01*
X237375Y-129637D02*
X238124Y-130385D01*
X238123Y-130386D02*
X238167Y-130432D01*
X238208Y-130482D01*
X238246Y-130533D01*
X238280Y-130587D01*
X238312Y-130642D01*
X238340Y-130700D01*
X238364Y-130759D01*
X238385Y-130819D01*
X238402Y-130881D01*
X238416Y-130943D01*
X238425Y-131006D01*
X238431Y-131070D01*
X238433Y-131134D01*
X238431Y-131198D01*
X238425Y-131262D01*
X238416Y-131325D01*
X238402Y-131387D01*
X238385Y-131449D01*
X238364Y-131509D01*
X238340Y-131568D01*
X238312Y-131626D01*
X238280Y-131681D01*
X238246Y-131735D01*
X238208Y-131786D01*
X238167Y-131836D01*
X238123Y-131882D01*
X238077Y-131926D01*
X238027Y-131967D01*
X237976Y-132005D01*
X237922Y-132039D01*
X237867Y-132071D01*
X237809Y-132099D01*
X237750Y-132123D01*
X237690Y-132144D01*
X237628Y-132161D01*
X237566Y-132175D01*
X237503Y-132184D01*
X237439Y-132190D01*
X237375Y-132192D01*
X237311Y-132190D01*
X237247Y-132184D01*
X237184Y-132175D01*
X237122Y-132161D01*
X237060Y-132144D01*
X237000Y-132123D01*
X236941Y-132099D01*
X236883Y-132071D01*
X236828Y-132039D01*
X236774Y-132005D01*
X236722Y-131967D01*
X236673Y-131926D01*
X236627Y-131882D01*
X235879Y-131134D01*
X238573Y-128440D01*
X239321Y-129188D01*
X239322Y-129188D02*
X239361Y-129229D01*
X239396Y-129273D01*
X239429Y-129319D01*
X239459Y-129368D01*
X239485Y-129418D01*
X239508Y-129469D01*
X239528Y-129523D01*
X239544Y-129577D01*
X239556Y-129632D01*
X239564Y-129688D01*
X239569Y-129745D01*
X239570Y-129801D01*
X239567Y-129858D01*
X239560Y-129914D01*
X239550Y-129970D01*
X239536Y-130024D01*
X239518Y-130078D01*
X239497Y-130131D01*
X239472Y-130182D01*
X239444Y-130231D01*
X239413Y-130278D01*
X239379Y-130323D01*
X239342Y-130366D01*
X239302Y-130406D01*
X239259Y-130443D01*
X239214Y-130477D01*
X239167Y-130508D01*
X239118Y-130536D01*
X239067Y-130561D01*
X239014Y-130582D01*
X238960Y-130600D01*
X238906Y-130614D01*
X238850Y-130624D01*
X238794Y-130631D01*
X238737Y-130634D01*
X238681Y-130633D01*
X238624Y-130628D01*
X238568Y-130620D01*
X238513Y-130608D01*
X238459Y-130592D01*
X238405Y-130572D01*
X238354Y-130549D01*
X238304Y-130523D01*
X238255Y-130493D01*
X238209Y-130460D01*
X238165Y-130425D01*
X238124Y-130386D01*
D19*
X191603Y-105340D02*
X186574Y-110368D01*
X189089Y-112883D01*
X194118Y-107854D02*
X191603Y-105340D01*
X194118Y-107854D02*
X189089Y-112883D01*
D12*
X185263Y-108707D02*
X184664Y-109306D01*
X184665Y-109306D02*
X184623Y-109345D01*
X184578Y-109382D01*
X184531Y-109415D01*
X184481Y-109445D01*
X184430Y-109472D01*
X184377Y-109495D01*
X184322Y-109514D01*
X184267Y-109530D01*
X184210Y-109542D01*
X184153Y-109550D01*
X184095Y-109554D01*
X184037Y-109554D01*
X183979Y-109550D01*
X183922Y-109542D01*
X183865Y-109530D01*
X183810Y-109514D01*
X183755Y-109495D01*
X183702Y-109472D01*
X183651Y-109445D01*
X183601Y-109415D01*
X183554Y-109382D01*
X183509Y-109345D01*
X183467Y-109306D01*
X181970Y-107809D01*
X181970Y-107810D02*
X181932Y-107769D01*
X181897Y-107727D01*
X181865Y-107682D01*
X181835Y-107635D01*
X181809Y-107586D01*
X181786Y-107535D01*
X181767Y-107483D01*
X181751Y-107430D01*
X181738Y-107376D01*
X181729Y-107322D01*
X181724Y-107266D01*
X181722Y-107211D01*
X181724Y-107156D01*
X181729Y-107100D01*
X181738Y-107046D01*
X181751Y-106992D01*
X181767Y-106939D01*
X181786Y-106887D01*
X181809Y-106836D01*
X181835Y-106788D01*
X181865Y-106740D01*
X181897Y-106695D01*
X181932Y-106653D01*
X181970Y-106612D01*
X182569Y-106013D01*
X186820Y-107151D02*
X187418Y-106552D01*
X186820Y-107151D02*
X186778Y-107190D01*
X186733Y-107227D01*
X186686Y-107260D01*
X186636Y-107290D01*
X186585Y-107317D01*
X186532Y-107340D01*
X186477Y-107359D01*
X186422Y-107375D01*
X186365Y-107387D01*
X186308Y-107395D01*
X186250Y-107399D01*
X186192Y-107399D01*
X186134Y-107395D01*
X186077Y-107387D01*
X186020Y-107375D01*
X185965Y-107359D01*
X185910Y-107340D01*
X185857Y-107317D01*
X185806Y-107290D01*
X185756Y-107260D01*
X185709Y-107227D01*
X185664Y-107190D01*
X185622Y-107151D01*
X184126Y-105654D01*
X184125Y-105654D02*
X184087Y-105613D01*
X184052Y-105571D01*
X184020Y-105526D01*
X183990Y-105479D01*
X183964Y-105430D01*
X183941Y-105379D01*
X183922Y-105327D01*
X183906Y-105274D01*
X183893Y-105220D01*
X183884Y-105166D01*
X183879Y-105110D01*
X183877Y-105055D01*
X183879Y-105000D01*
X183884Y-104944D01*
X183893Y-104890D01*
X183906Y-104836D01*
X183922Y-104783D01*
X183941Y-104731D01*
X183964Y-104680D01*
X183990Y-104632D01*
X184020Y-104584D01*
X184052Y-104539D01*
X184087Y-104497D01*
X184125Y-104456D01*
X184126Y-104457D02*
X184724Y-103858D01*
X186512Y-102070D02*
X186556Y-102029D01*
X186602Y-101991D01*
X186650Y-101956D01*
X186701Y-101924D01*
X186753Y-101895D01*
X186808Y-101869D01*
X186863Y-101847D01*
X186920Y-101829D01*
X186978Y-101814D01*
X187037Y-101803D01*
X187096Y-101795D01*
X187156Y-101791D01*
X187216Y-101791D01*
X187276Y-101795D01*
X187335Y-101803D01*
X187394Y-101814D01*
X187452Y-101829D01*
X187509Y-101847D01*
X187564Y-101869D01*
X187619Y-101895D01*
X187671Y-101924D01*
X187722Y-101956D01*
X187770Y-101991D01*
X187816Y-102029D01*
X187860Y-102070D01*
X186512Y-102069D02*
X186466Y-102118D01*
X186422Y-102169D01*
X186382Y-102222D01*
X186344Y-102278D01*
X186310Y-102335D01*
X186279Y-102395D01*
X186251Y-102455D01*
X186226Y-102518D01*
X186205Y-102581D01*
X186188Y-102646D01*
X186174Y-102711D01*
X186163Y-102777D01*
X186156Y-102844D01*
X186153Y-102911D01*
X186154Y-102978D01*
X186158Y-103044D01*
X186166Y-103111D01*
X186177Y-103177D01*
X186192Y-103242D01*
X186211Y-103306D01*
X186233Y-103369D01*
X186258Y-103431D01*
X186287Y-103492D01*
X188159Y-102819D02*
X188158Y-102760D01*
X188155Y-102701D01*
X188148Y-102642D01*
X188137Y-102584D01*
X188123Y-102526D01*
X188106Y-102470D01*
X188086Y-102414D01*
X188062Y-102360D01*
X188036Y-102307D01*
X188006Y-102256D01*
X187973Y-102206D01*
X187938Y-102159D01*
X187900Y-102114D01*
X187859Y-102071D01*
X188158Y-102819D02*
X188383Y-105587D01*
X189880Y-104091D01*
D19*
X204513Y-188335D02*
X200202Y-192646D01*
X203076Y-195519D01*
X207386Y-191209D02*
X204513Y-188335D01*
X202357Y-186180D02*
X198226Y-190670D01*
X202357Y-186180D02*
X199484Y-183306D01*
X195173Y-187617D02*
X198226Y-190670D01*
X202357Y-186180D02*
X204513Y-188335D01*
X199484Y-183306D02*
X195173Y-187617D01*
X198226Y-190670D02*
X200202Y-192646D01*
X203076Y-195519D02*
X207386Y-191209D01*
D12*
X211097Y-192824D02*
X211696Y-192226D01*
X211695Y-192225D02*
X211736Y-192187D01*
X211778Y-192152D01*
X211823Y-192120D01*
X211871Y-192090D01*
X211919Y-192064D01*
X211970Y-192041D01*
X212022Y-192022D01*
X212075Y-192006D01*
X212129Y-191993D01*
X212183Y-191984D01*
X212239Y-191979D01*
X212294Y-191977D01*
X212349Y-191979D01*
X212405Y-191984D01*
X212459Y-191993D01*
X212513Y-192006D01*
X212566Y-192022D01*
X212618Y-192041D01*
X212669Y-192064D01*
X212718Y-192090D01*
X212765Y-192120D01*
X212810Y-192152D01*
X212852Y-192187D01*
X212893Y-192225D01*
X212893Y-192226D02*
X214390Y-193722D01*
X214428Y-193763D01*
X214463Y-193805D01*
X214495Y-193850D01*
X214525Y-193898D01*
X214551Y-193946D01*
X214574Y-193997D01*
X214593Y-194049D01*
X214609Y-194102D01*
X214622Y-194156D01*
X214631Y-194210D01*
X214636Y-194266D01*
X214638Y-194321D01*
X214636Y-194376D01*
X214631Y-194432D01*
X214622Y-194486D01*
X214609Y-194540D01*
X214593Y-194593D01*
X214574Y-194645D01*
X214551Y-194696D01*
X214525Y-194745D01*
X214495Y-194792D01*
X214463Y-194837D01*
X214428Y-194879D01*
X214390Y-194920D01*
X213791Y-195518D01*
X212595Y-196714D02*
X209901Y-194020D01*
X209602Y-194319D02*
X210201Y-193721D01*
X212895Y-196415D02*
X212296Y-197013D01*
X211188Y-198121D02*
X208494Y-195427D01*
X206998Y-196923D02*
X211188Y-198121D01*
X209692Y-199617D02*
X206998Y-196923D01*
X206346Y-201616D02*
X206389Y-201657D01*
X206436Y-201695D01*
X206484Y-201730D01*
X206534Y-201762D01*
X206587Y-201791D01*
X206641Y-201817D01*
X206697Y-201839D01*
X206753Y-201857D01*
X206811Y-201872D01*
X206870Y-201883D01*
X206929Y-201891D01*
X206989Y-201895D01*
X207049Y-201895D01*
X207109Y-201891D01*
X207168Y-201883D01*
X207227Y-201872D01*
X207285Y-201857D01*
X207341Y-201839D01*
X207397Y-201817D01*
X207451Y-201791D01*
X207504Y-201762D01*
X207554Y-201730D01*
X207603Y-201695D01*
X207649Y-201657D01*
X207692Y-201616D01*
X207693Y-201616D02*
X207739Y-201568D01*
X207782Y-201517D01*
X207822Y-201464D01*
X207860Y-201408D01*
X207894Y-201351D01*
X207925Y-201291D01*
X207953Y-201231D01*
X207978Y-201168D01*
X207999Y-201105D01*
X208016Y-201040D01*
X208030Y-200975D01*
X208041Y-200909D01*
X208048Y-200842D01*
X208051Y-200775D01*
X208050Y-200708D01*
X208046Y-200642D01*
X208038Y-200575D01*
X208027Y-200509D01*
X208012Y-200444D01*
X207993Y-200380D01*
X207971Y-200317D01*
X207946Y-200255D01*
X207917Y-200194D01*
X206046Y-200868D02*
X206047Y-200927D01*
X206050Y-200986D01*
X206057Y-201045D01*
X206068Y-201103D01*
X206082Y-201161D01*
X206099Y-201217D01*
X206119Y-201273D01*
X206143Y-201327D01*
X206169Y-201380D01*
X206199Y-201431D01*
X206232Y-201481D01*
X206267Y-201528D01*
X206305Y-201573D01*
X206346Y-201616D01*
X206046Y-200868D02*
X205822Y-198099D01*
X204325Y-199596D01*
D20*
X210684Y-130816D02*
X214815Y-126685D01*
X210684Y-130816D02*
X203500Y-123632D01*
X207631Y-119501D01*
X223795Y-117705D02*
X227926Y-113574D01*
X220742Y-106390D01*
X216611Y-110521D01*
D19*
X228465Y-113754D02*
X210864Y-131355D01*
X202961Y-123453D02*
X220562Y-105851D01*
X228465Y-113754D01*
X210864Y-131355D02*
X202961Y-123453D01*
D12*
X201934Y-122133D02*
X202373Y-121694D01*
X201934Y-122133D02*
X201898Y-122166D01*
X201860Y-122196D01*
X201819Y-122223D01*
X201777Y-122247D01*
X201733Y-122268D01*
X201687Y-122285D01*
X201640Y-122298D01*
X201592Y-122307D01*
X201544Y-122313D01*
X201495Y-122315D01*
X201446Y-122313D01*
X201398Y-122307D01*
X201350Y-122298D01*
X201303Y-122285D01*
X201257Y-122268D01*
X201213Y-122247D01*
X201171Y-122223D01*
X201130Y-122196D01*
X201092Y-122166D01*
X201056Y-122133D01*
X199959Y-121035D01*
X199926Y-120999D01*
X199896Y-120961D01*
X199869Y-120920D01*
X199845Y-120878D01*
X199824Y-120834D01*
X199807Y-120788D01*
X199794Y-120741D01*
X199785Y-120693D01*
X199779Y-120645D01*
X199777Y-120596D01*
X199779Y-120547D01*
X199785Y-120499D01*
X199794Y-120451D01*
X199807Y-120404D01*
X199824Y-120358D01*
X199845Y-120314D01*
X199868Y-120272D01*
X199896Y-120231D01*
X199926Y-120193D01*
X199959Y-120157D01*
X200398Y-119718D01*
X201032Y-119083D02*
X203666Y-120401D01*
X202349Y-117766D01*
X205490Y-118576D02*
X205929Y-118137D01*
X205490Y-118576D02*
X205454Y-118609D01*
X205416Y-118639D01*
X205375Y-118666D01*
X205333Y-118690D01*
X205289Y-118711D01*
X205243Y-118728D01*
X205196Y-118741D01*
X205148Y-118750D01*
X205100Y-118756D01*
X205051Y-118758D01*
X205002Y-118756D01*
X204954Y-118750D01*
X204906Y-118741D01*
X204859Y-118728D01*
X204813Y-118711D01*
X204769Y-118690D01*
X204727Y-118666D01*
X204686Y-118639D01*
X204648Y-118609D01*
X204612Y-118576D01*
X203515Y-117479D01*
X203482Y-117443D01*
X203452Y-117405D01*
X203425Y-117364D01*
X203401Y-117322D01*
X203380Y-117278D01*
X203363Y-117232D01*
X203350Y-117185D01*
X203341Y-117137D01*
X203335Y-117089D01*
X203333Y-117040D01*
X203335Y-116991D01*
X203341Y-116943D01*
X203350Y-116895D01*
X203363Y-116848D01*
X203380Y-116802D01*
X203401Y-116758D01*
X203424Y-116716D01*
X203452Y-116675D01*
X203482Y-116637D01*
X203515Y-116601D01*
X203954Y-116162D01*
X207107Y-116960D02*
X207546Y-116521D01*
X207107Y-116960D02*
X207071Y-116993D01*
X207033Y-117023D01*
X206992Y-117050D01*
X206950Y-117074D01*
X206906Y-117095D01*
X206860Y-117112D01*
X206813Y-117125D01*
X206765Y-117134D01*
X206717Y-117140D01*
X206668Y-117142D01*
X206619Y-117140D01*
X206571Y-117134D01*
X206523Y-117125D01*
X206476Y-117112D01*
X206430Y-117095D01*
X206386Y-117074D01*
X206344Y-117050D01*
X206303Y-117023D01*
X206265Y-116993D01*
X206229Y-116960D01*
X205131Y-115862D01*
X205098Y-115826D01*
X205068Y-115788D01*
X205041Y-115747D01*
X205017Y-115705D01*
X204996Y-115661D01*
X204979Y-115615D01*
X204966Y-115568D01*
X204957Y-115520D01*
X204951Y-115472D01*
X204949Y-115423D01*
X204951Y-115374D01*
X204957Y-115326D01*
X204966Y-115278D01*
X204979Y-115231D01*
X204996Y-115185D01*
X205017Y-115141D01*
X205040Y-115099D01*
X205068Y-115058D01*
X205098Y-115020D01*
X205131Y-114984D01*
X205570Y-114545D01*
D19*
X241774Y-144514D02*
X243929Y-146669D01*
X241774Y-144514D02*
X240337Y-145950D01*
X242492Y-148106D02*
X243929Y-146669D01*
X245546Y-145052D02*
X243031Y-142897D01*
X245546Y-145052D02*
X246803Y-143795D01*
X244648Y-141640D02*
X244468Y-141460D01*
X243031Y-142897D01*
X245546Y-145052D02*
X243929Y-146669D01*
X246803Y-143795D02*
X244648Y-141640D01*
X241774Y-144514D01*
X240337Y-145950D02*
X242492Y-148106D01*
D12*
X250073Y-146434D02*
X252767Y-149128D01*
X252018Y-149876D01*
X251972Y-149920D01*
X251922Y-149961D01*
X251871Y-149999D01*
X251817Y-150033D01*
X251762Y-150065D01*
X251704Y-150093D01*
X251645Y-150117D01*
X251585Y-150138D01*
X251523Y-150155D01*
X251461Y-150169D01*
X251398Y-150178D01*
X251334Y-150184D01*
X251270Y-150186D01*
X251206Y-150184D01*
X251142Y-150178D01*
X251079Y-150169D01*
X251017Y-150155D01*
X250955Y-150138D01*
X250895Y-150117D01*
X250836Y-150093D01*
X250778Y-150065D01*
X250723Y-150033D01*
X250669Y-149999D01*
X250618Y-149961D01*
X250568Y-149920D01*
X250522Y-149876D01*
X250478Y-149830D01*
X250437Y-149780D01*
X250399Y-149729D01*
X250365Y-149675D01*
X250333Y-149620D01*
X250305Y-149562D01*
X250281Y-149503D01*
X250260Y-149443D01*
X250243Y-149381D01*
X250229Y-149319D01*
X250220Y-149256D01*
X250214Y-149192D01*
X250212Y-149128D01*
X250214Y-149064D01*
X250220Y-149000D01*
X250229Y-148937D01*
X250243Y-148875D01*
X250260Y-148813D01*
X250281Y-148753D01*
X250305Y-148694D01*
X250333Y-148636D01*
X250365Y-148581D01*
X250399Y-148527D01*
X250437Y-148476D01*
X250478Y-148426D01*
X250522Y-148380D01*
X251270Y-147631D01*
X250372Y-148529D02*
X248576Y-147931D01*
X246925Y-149581D02*
X249619Y-152275D01*
X250368Y-151527D02*
X248871Y-153024D01*
D19*
X172491Y-169761D02*
X163870Y-178382D01*
X176802Y-191314D02*
X185423Y-182693D01*
X187758Y-180358D02*
X174826Y-167426D01*
X187758Y-180358D02*
X193146Y-174970D01*
X180214Y-162038D02*
X174826Y-167426D01*
X161536Y-180717D02*
X174467Y-193649D01*
X161536Y-180717D02*
X156327Y-186285D01*
X169079Y-199037D01*
X174467Y-193649D01*
X156147Y-186105D02*
X174826Y-167426D01*
X156147Y-186105D02*
X156327Y-186285D01*
X174467Y-193649D02*
X187758Y-180358D01*
X193146Y-174970D02*
X180214Y-162038D01*
D12*
X158408Y-179421D02*
X157809Y-180020D01*
X157767Y-180059D01*
X157722Y-180096D01*
X157675Y-180129D01*
X157625Y-180159D01*
X157574Y-180186D01*
X157521Y-180209D01*
X157466Y-180228D01*
X157411Y-180244D01*
X157354Y-180256D01*
X157297Y-180264D01*
X157239Y-180268D01*
X157181Y-180268D01*
X157123Y-180264D01*
X157066Y-180256D01*
X157009Y-180244D01*
X156954Y-180228D01*
X156899Y-180209D01*
X156846Y-180186D01*
X156795Y-180159D01*
X156745Y-180129D01*
X156698Y-180096D01*
X156653Y-180059D01*
X156611Y-180020D01*
X156612Y-180020D02*
X155115Y-178523D01*
X155077Y-178482D01*
X155042Y-178440D01*
X155010Y-178395D01*
X154980Y-178348D01*
X154954Y-178299D01*
X154931Y-178248D01*
X154912Y-178196D01*
X154896Y-178143D01*
X154883Y-178089D01*
X154874Y-178035D01*
X154869Y-177979D01*
X154867Y-177924D01*
X154869Y-177869D01*
X154874Y-177813D01*
X154883Y-177759D01*
X154896Y-177705D01*
X154912Y-177652D01*
X154931Y-177600D01*
X154954Y-177549D01*
X154980Y-177501D01*
X155010Y-177453D01*
X155042Y-177408D01*
X155077Y-177366D01*
X155115Y-177325D01*
X155115Y-177326D02*
X155714Y-176727D01*
X157427Y-176511D02*
X158624Y-177708D01*
X157427Y-176510D02*
X157383Y-176464D01*
X157342Y-176414D01*
X157304Y-176363D01*
X157270Y-176309D01*
X157238Y-176254D01*
X157210Y-176196D01*
X157186Y-176137D01*
X157165Y-176077D01*
X157148Y-176015D01*
X157134Y-175953D01*
X157125Y-175890D01*
X157119Y-175826D01*
X157117Y-175762D01*
X157119Y-175698D01*
X157125Y-175634D01*
X157134Y-175571D01*
X157148Y-175509D01*
X157165Y-175447D01*
X157186Y-175387D01*
X157210Y-175328D01*
X157238Y-175270D01*
X157270Y-175215D01*
X157304Y-175161D01*
X157342Y-175110D01*
X157383Y-175060D01*
X157427Y-175014D01*
X157473Y-174970D01*
X157523Y-174929D01*
X157574Y-174891D01*
X157628Y-174857D01*
X157683Y-174825D01*
X157741Y-174797D01*
X157800Y-174773D01*
X157860Y-174752D01*
X157922Y-174735D01*
X157984Y-174721D01*
X158047Y-174712D01*
X158111Y-174706D01*
X158175Y-174704D01*
X158239Y-174706D01*
X158303Y-174712D01*
X158366Y-174721D01*
X158428Y-174735D01*
X158490Y-174752D01*
X158550Y-174773D01*
X158609Y-174797D01*
X158667Y-174825D01*
X158722Y-174857D01*
X158776Y-174891D01*
X158827Y-174929D01*
X158877Y-174970D01*
X158923Y-175014D01*
X160121Y-176211D01*
X160120Y-176212D02*
X160164Y-176258D01*
X160205Y-176308D01*
X160243Y-176359D01*
X160277Y-176413D01*
X160309Y-176468D01*
X160337Y-176526D01*
X160361Y-176585D01*
X160382Y-176645D01*
X160399Y-176707D01*
X160413Y-176769D01*
X160422Y-176832D01*
X160428Y-176896D01*
X160430Y-176960D01*
X160428Y-177024D01*
X160422Y-177088D01*
X160413Y-177151D01*
X160399Y-177213D01*
X160382Y-177275D01*
X160361Y-177335D01*
X160337Y-177394D01*
X160309Y-177452D01*
X160277Y-177507D01*
X160243Y-177561D01*
X160205Y-177612D01*
X160164Y-177662D01*
X160120Y-177708D01*
X160074Y-177752D01*
X160024Y-177793D01*
X159973Y-177831D01*
X159919Y-177865D01*
X159864Y-177897D01*
X159806Y-177925D01*
X159747Y-177949D01*
X159687Y-177970D01*
X159625Y-177987D01*
X159563Y-178001D01*
X159500Y-178010D01*
X159436Y-178016D01*
X159372Y-178018D01*
X159308Y-178016D01*
X159244Y-178010D01*
X159181Y-178001D01*
X159119Y-177987D01*
X159057Y-177970D01*
X158997Y-177949D01*
X158938Y-177925D01*
X158880Y-177897D01*
X158825Y-177865D01*
X158771Y-177831D01*
X158720Y-177793D01*
X158670Y-177752D01*
X158624Y-177708D01*
X161297Y-175036D02*
X159351Y-173090D01*
X161297Y-175035D02*
X161343Y-175079D01*
X161393Y-175120D01*
X161444Y-175158D01*
X161498Y-175192D01*
X161553Y-175224D01*
X161611Y-175252D01*
X161670Y-175276D01*
X161730Y-175297D01*
X161792Y-175314D01*
X161854Y-175328D01*
X161917Y-175337D01*
X161981Y-175343D01*
X162045Y-175345D01*
X162109Y-175343D01*
X162173Y-175337D01*
X162236Y-175328D01*
X162298Y-175314D01*
X162360Y-175297D01*
X162420Y-175276D01*
X162479Y-175252D01*
X162537Y-175224D01*
X162592Y-175192D01*
X162646Y-175158D01*
X162697Y-175120D01*
X162747Y-175079D01*
X162793Y-175035D01*
X162837Y-174989D01*
X162878Y-174939D01*
X162916Y-174888D01*
X162950Y-174834D01*
X162982Y-174779D01*
X163010Y-174721D01*
X163034Y-174662D01*
X163055Y-174602D01*
X163072Y-174540D01*
X163086Y-174478D01*
X163095Y-174415D01*
X163101Y-174351D01*
X163103Y-174287D01*
X163101Y-174223D01*
X163095Y-174159D01*
X163086Y-174096D01*
X163072Y-174034D01*
X163055Y-173972D01*
X163034Y-173912D01*
X163010Y-173853D01*
X162982Y-173795D01*
X162950Y-173740D01*
X162916Y-173686D01*
X162878Y-173634D01*
X162837Y-173585D01*
X162793Y-173539D01*
X160848Y-171593D01*
X162599Y-169841D02*
X165293Y-172536D01*
X161851Y-170590D02*
X163348Y-169093D01*
D19*
X233509Y-148007D02*
X239975Y-154473D01*
X224170Y-189676D02*
X230636Y-196142D01*
X256139Y-170638D01*
X249674Y-164172D01*
X233509Y-148007D02*
X208005Y-173511D01*
X214471Y-179977D01*
X210879Y-193268D02*
X210916Y-193308D01*
X210950Y-193350D01*
X210981Y-193395D01*
X211009Y-193442D01*
X211033Y-193490D01*
X211054Y-193541D01*
X211071Y-193592D01*
X211085Y-193645D01*
X211094Y-193699D01*
X211100Y-193753D01*
X211102Y-193807D01*
X211100Y-193861D01*
X211094Y-193915D01*
X211085Y-193969D01*
X211071Y-194022D01*
X211054Y-194073D01*
X211033Y-194124D01*
X211009Y-194172D01*
X210981Y-194219D01*
X210950Y-194264D01*
X210916Y-194306D01*
X210879Y-194346D01*
X210839Y-194383D01*
X210797Y-194417D01*
X210752Y-194448D01*
X210705Y-194476D01*
X210657Y-194500D01*
X210606Y-194521D01*
X210555Y-194538D01*
X210502Y-194552D01*
X210448Y-194561D01*
X210394Y-194567D01*
X210340Y-194569D01*
X210286Y-194567D01*
X210232Y-194561D01*
X210178Y-194552D01*
X210125Y-194538D01*
X210074Y-194521D01*
X210023Y-194500D01*
X209975Y-194476D01*
X209928Y-194448D01*
X209883Y-194417D01*
X209841Y-194383D01*
X209801Y-194346D01*
X209764Y-194306D01*
X209730Y-194264D01*
X209699Y-194219D01*
X209671Y-194172D01*
X209647Y-194124D01*
X209626Y-194073D01*
X209609Y-194022D01*
X209595Y-193969D01*
X209586Y-193915D01*
X209580Y-193861D01*
X209578Y-193807D01*
X209580Y-193753D01*
X209586Y-193699D01*
X209595Y-193645D01*
X209609Y-193592D01*
X209626Y-193541D01*
X209647Y-193490D01*
X209671Y-193442D01*
X209699Y-193395D01*
X209730Y-193350D01*
X209764Y-193308D01*
X209801Y-193268D01*
X209841Y-193231D01*
X209883Y-193197D01*
X209928Y-193166D01*
X209975Y-193138D01*
X210023Y-193114D01*
X210074Y-193093D01*
X210125Y-193076D01*
X210178Y-193062D01*
X210232Y-193053D01*
X210286Y-193047D01*
X210340Y-193045D01*
X210394Y-193047D01*
X210448Y-193053D01*
X210502Y-193062D01*
X210555Y-193076D01*
X210606Y-193093D01*
X210657Y-193114D01*
X210705Y-193138D01*
X210752Y-193166D01*
X210797Y-193197D01*
X210839Y-193231D01*
X210879Y-193268D01*
X230636Y-196142D02*
X256139Y-170638D01*
X233509Y-148007D01*
X208005Y-173511D01*
X230636Y-196142D01*
D21*
X210879Y-193268D02*
X210916Y-193308D01*
X210950Y-193350D01*
X210981Y-193395D01*
X211009Y-193442D01*
X211033Y-193490D01*
X211054Y-193541D01*
X211071Y-193592D01*
X211085Y-193645D01*
X211094Y-193699D01*
X211100Y-193753D01*
X211102Y-193807D01*
X211100Y-193861D01*
X211094Y-193915D01*
X211085Y-193969D01*
X211071Y-194022D01*
X211054Y-194073D01*
X211033Y-194124D01*
X211009Y-194172D01*
X210981Y-194219D01*
X210950Y-194264D01*
X210916Y-194306D01*
X210879Y-194346D01*
X210839Y-194383D01*
X210797Y-194417D01*
X210752Y-194448D01*
X210705Y-194476D01*
X210657Y-194500D01*
X210606Y-194521D01*
X210555Y-194538D01*
X210502Y-194552D01*
X210448Y-194561D01*
X210394Y-194567D01*
X210340Y-194569D01*
X210286Y-194567D01*
X210232Y-194561D01*
X210178Y-194552D01*
X210125Y-194538D01*
X210074Y-194521D01*
X210023Y-194500D01*
X209975Y-194476D01*
X209928Y-194448D01*
X209883Y-194417D01*
X209841Y-194383D01*
X209801Y-194346D01*
X209764Y-194306D01*
X209730Y-194264D01*
X209699Y-194219D01*
X209671Y-194172D01*
X209647Y-194124D01*
X209626Y-194073D01*
X209609Y-194022D01*
X209595Y-193969D01*
X209586Y-193915D01*
X209580Y-193861D01*
X209578Y-193807D01*
X209580Y-193753D01*
X209586Y-193699D01*
X209595Y-193645D01*
X209609Y-193592D01*
X209626Y-193541D01*
X209647Y-193490D01*
X209671Y-193442D01*
X209699Y-193395D01*
X209730Y-193350D01*
X209764Y-193308D01*
X209801Y-193268D01*
X209841Y-193231D01*
X209883Y-193197D01*
X209928Y-193166D01*
X209975Y-193138D01*
X210023Y-193114D01*
X210074Y-193093D01*
X210125Y-193076D01*
X210178Y-193062D01*
X210232Y-193053D01*
X210286Y-193047D01*
X210340Y-193045D01*
X210394Y-193047D01*
X210448Y-193053D01*
X210502Y-193062D01*
X210555Y-193076D01*
X210606Y-193093D01*
X210657Y-193114D01*
X210705Y-193138D01*
X210752Y-193166D01*
X210797Y-193197D01*
X210839Y-193231D01*
X210879Y-193268D01*
D12*
X250458Y-182732D02*
X253152Y-185426D01*
X250458Y-182732D02*
X249260Y-183929D01*
X248831Y-188399D02*
X248874Y-188440D01*
X248921Y-188478D01*
X248969Y-188513D01*
X249019Y-188545D01*
X249072Y-188574D01*
X249126Y-188600D01*
X249182Y-188622D01*
X249238Y-188640D01*
X249296Y-188655D01*
X249355Y-188666D01*
X249414Y-188674D01*
X249474Y-188678D01*
X249534Y-188678D01*
X249594Y-188674D01*
X249653Y-188666D01*
X249712Y-188655D01*
X249770Y-188640D01*
X249826Y-188622D01*
X249882Y-188600D01*
X249936Y-188574D01*
X249989Y-188545D01*
X250039Y-188513D01*
X250088Y-188478D01*
X250134Y-188440D01*
X250177Y-188399D01*
X250179Y-188400D02*
X250225Y-188352D01*
X250268Y-188301D01*
X250308Y-188248D01*
X250346Y-188192D01*
X250380Y-188135D01*
X250411Y-188075D01*
X250439Y-188015D01*
X250464Y-187952D01*
X250485Y-187889D01*
X250502Y-187824D01*
X250516Y-187759D01*
X250527Y-187693D01*
X250534Y-187626D01*
X250537Y-187559D01*
X250536Y-187492D01*
X250532Y-187426D01*
X250524Y-187359D01*
X250513Y-187293D01*
X250498Y-187228D01*
X250479Y-187164D01*
X250457Y-187101D01*
X250432Y-187039D01*
X250403Y-186978D01*
X248531Y-187652D02*
X248532Y-187711D01*
X248535Y-187770D01*
X248542Y-187829D01*
X248553Y-187887D01*
X248567Y-187945D01*
X248584Y-188001D01*
X248604Y-188057D01*
X248628Y-188111D01*
X248654Y-188164D01*
X248684Y-188215D01*
X248717Y-188265D01*
X248752Y-188312D01*
X248790Y-188357D01*
X248831Y-188400D01*
X248532Y-187652D02*
X248307Y-184883D01*
X246810Y-186379D01*
D19*
X204449Y-148279D02*
X200138Y-143968D01*
X197264Y-146842D01*
X201575Y-151153D02*
X204449Y-148279D01*
X206604Y-146124D02*
X202114Y-141993D01*
X206604Y-146124D02*
X209477Y-143250D01*
X205167Y-138939D02*
X202114Y-141993D01*
X206604Y-146124D02*
X204449Y-148279D01*
X209477Y-143250D02*
X205167Y-138939D01*
X202114Y-141993D02*
X200138Y-143968D01*
X197264Y-146842D02*
X201575Y-151153D01*
D12*
X203411Y-135178D02*
X206105Y-132484D01*
X206853Y-133232D01*
X206853Y-133233D02*
X206897Y-133279D01*
X206938Y-133328D01*
X206976Y-133380D01*
X207010Y-133434D01*
X207042Y-133489D01*
X207070Y-133547D01*
X207094Y-133606D01*
X207115Y-133666D01*
X207132Y-133728D01*
X207146Y-133790D01*
X207155Y-133853D01*
X207161Y-133917D01*
X207163Y-133981D01*
X207161Y-134045D01*
X207155Y-134109D01*
X207146Y-134172D01*
X207132Y-134234D01*
X207115Y-134296D01*
X207094Y-134356D01*
X207070Y-134415D01*
X207042Y-134473D01*
X207010Y-134528D01*
X206976Y-134582D01*
X206938Y-134633D01*
X206897Y-134683D01*
X206853Y-134729D01*
X206807Y-134773D01*
X206757Y-134814D01*
X206706Y-134852D01*
X206652Y-134886D01*
X206597Y-134918D01*
X206539Y-134946D01*
X206480Y-134970D01*
X206420Y-134991D01*
X206358Y-135008D01*
X206296Y-135022D01*
X206233Y-135031D01*
X206169Y-135037D01*
X206105Y-135039D01*
X206041Y-135037D01*
X205977Y-135031D01*
X205914Y-135022D01*
X205852Y-135008D01*
X205790Y-134991D01*
X205730Y-134970D01*
X205671Y-134946D01*
X205613Y-134918D01*
X205558Y-134886D01*
X205504Y-134852D01*
X205452Y-134814D01*
X205403Y-134773D01*
X205357Y-134729D01*
X205356Y-134729D02*
X204608Y-133981D01*
X205506Y-134879D02*
X204907Y-136675D01*
X206073Y-137840D02*
X208767Y-135146D01*
X209964Y-136344D01*
X208767Y-137541D02*
X207569Y-136344D01*
X209840Y-138615D02*
X210589Y-139363D01*
X210588Y-139363D02*
X210632Y-139409D01*
X210673Y-139459D01*
X210711Y-139510D01*
X210745Y-139564D01*
X210777Y-139619D01*
X210805Y-139677D01*
X210829Y-139736D01*
X210850Y-139796D01*
X210867Y-139858D01*
X210881Y-139920D01*
X210890Y-139983D01*
X210896Y-140047D01*
X210898Y-140111D01*
X210896Y-140175D01*
X210890Y-140239D01*
X210881Y-140302D01*
X210867Y-140364D01*
X210850Y-140426D01*
X210829Y-140486D01*
X210805Y-140545D01*
X210777Y-140603D01*
X210745Y-140658D01*
X210711Y-140712D01*
X210673Y-140763D01*
X210632Y-140813D01*
X210588Y-140859D01*
X210542Y-140903D01*
X210492Y-140944D01*
X210441Y-140982D01*
X210387Y-141016D01*
X210332Y-141048D01*
X210274Y-141076D01*
X210215Y-141100D01*
X210155Y-141121D01*
X210093Y-141138D01*
X210031Y-141152D01*
X209968Y-141161D01*
X209904Y-141167D01*
X209840Y-141169D01*
X209776Y-141167D01*
X209712Y-141161D01*
X209649Y-141152D01*
X209587Y-141138D01*
X209525Y-141121D01*
X209465Y-141100D01*
X209406Y-141076D01*
X209348Y-141048D01*
X209293Y-141016D01*
X209239Y-140982D01*
X209187Y-140944D01*
X209138Y-140903D01*
X209092Y-140859D01*
X209092Y-140860D02*
X208344Y-140111D01*
X211038Y-137417D01*
X211786Y-138166D01*
X211787Y-138165D02*
X211826Y-138206D01*
X211861Y-138250D01*
X211894Y-138296D01*
X211924Y-138345D01*
X211950Y-138395D01*
X211973Y-138446D01*
X211993Y-138500D01*
X212009Y-138554D01*
X212021Y-138609D01*
X212029Y-138665D01*
X212034Y-138722D01*
X212035Y-138778D01*
X212032Y-138835D01*
X212025Y-138891D01*
X212015Y-138947D01*
X212001Y-139001D01*
X211983Y-139055D01*
X211962Y-139108D01*
X211937Y-139159D01*
X211909Y-139208D01*
X211878Y-139255D01*
X211844Y-139300D01*
X211807Y-139343D01*
X211767Y-139383D01*
X211724Y-139420D01*
X211679Y-139454D01*
X211632Y-139485D01*
X211583Y-139513D01*
X211532Y-139538D01*
X211479Y-139559D01*
X211425Y-139577D01*
X211371Y-139591D01*
X211315Y-139601D01*
X211259Y-139608D01*
X211202Y-139611D01*
X211146Y-139610D01*
X211089Y-139605D01*
X211033Y-139597D01*
X210978Y-139585D01*
X210924Y-139569D01*
X210870Y-139549D01*
X210819Y-139526D01*
X210769Y-139500D01*
X210720Y-139470D01*
X210674Y-139437D01*
X210630Y-139402D01*
X210589Y-139363D01*
X214080Y-140459D02*
X211386Y-143153D01*
X213331Y-139711D02*
X214828Y-141207D01*
D19*
X163909Y-155669D02*
X159598Y-159980D01*
X162472Y-162853D01*
X166783Y-158543D02*
X163909Y-155669D01*
X161754Y-153514D02*
X157623Y-158004D01*
X161754Y-153514D02*
X158880Y-150640D01*
X154569Y-154951D02*
X157623Y-158004D01*
X161754Y-153514D02*
X163909Y-155669D01*
X158880Y-150640D02*
X154569Y-154951D01*
X157623Y-158004D02*
X159598Y-159980D01*
X162472Y-162853D02*
X166783Y-158543D01*
D12*
X161469Y-164614D02*
X158775Y-167308D01*
X158027Y-166560D01*
X157983Y-166514D01*
X157942Y-166464D01*
X157904Y-166413D01*
X157870Y-166359D01*
X157838Y-166304D01*
X157810Y-166246D01*
X157786Y-166187D01*
X157765Y-166127D01*
X157748Y-166065D01*
X157734Y-166003D01*
X157725Y-165940D01*
X157719Y-165876D01*
X157717Y-165812D01*
X157719Y-165748D01*
X157725Y-165684D01*
X157734Y-165621D01*
X157748Y-165559D01*
X157765Y-165497D01*
X157786Y-165437D01*
X157810Y-165378D01*
X157838Y-165320D01*
X157870Y-165265D01*
X157904Y-165211D01*
X157942Y-165160D01*
X157983Y-165110D01*
X158027Y-165064D01*
X158073Y-165020D01*
X158123Y-164979D01*
X158174Y-164941D01*
X158228Y-164907D01*
X158283Y-164875D01*
X158341Y-164847D01*
X158400Y-164823D01*
X158460Y-164802D01*
X158522Y-164785D01*
X158584Y-164771D01*
X158647Y-164762D01*
X158711Y-164756D01*
X158775Y-164754D01*
X158839Y-164756D01*
X158903Y-164762D01*
X158966Y-164771D01*
X159028Y-164785D01*
X159090Y-164802D01*
X159150Y-164823D01*
X159209Y-164847D01*
X159267Y-164875D01*
X159322Y-164907D01*
X159376Y-164941D01*
X159427Y-164979D01*
X159477Y-165020D01*
X159523Y-165064D01*
X159524Y-165063D02*
X160272Y-165812D01*
X159374Y-164914D02*
X159973Y-163118D01*
X158807Y-161952D02*
X156113Y-164646D01*
X158807Y-161952D02*
X157610Y-160755D01*
X156425Y-159570D02*
X153731Y-162264D01*
X156725Y-159870D02*
X156126Y-159271D01*
X153432Y-161965D02*
X154031Y-162564D01*
X152302Y-160835D02*
X154996Y-158141D01*
X152900Y-158440D02*
X152302Y-160835D01*
X152900Y-158440D02*
X150505Y-159039D01*
X153200Y-156345D01*
D19*
X201563Y-203112D02*
X191505Y-213170D01*
X196893Y-218558D01*
X206951Y-208500D02*
X201563Y-203112D01*
X196534Y-198083D02*
X186476Y-208141D01*
X196534Y-198083D02*
X191145Y-192695D01*
X181088Y-202753D02*
X180908Y-202932D01*
X186476Y-208141D01*
X196534Y-198083D02*
X201563Y-203112D01*
X191145Y-192695D02*
X181088Y-202753D01*
X191505Y-213170D01*
X196893Y-218558D02*
X206951Y-208500D01*
D12*
X189451Y-216070D02*
X188853Y-215472D01*
X189452Y-216070D02*
X189490Y-216111D01*
X189525Y-216153D01*
X189557Y-216198D01*
X189587Y-216246D01*
X189613Y-216294D01*
X189636Y-216345D01*
X189655Y-216397D01*
X189671Y-216450D01*
X189684Y-216504D01*
X189693Y-216558D01*
X189698Y-216614D01*
X189700Y-216669D01*
X189698Y-216724D01*
X189693Y-216780D01*
X189684Y-216834D01*
X189671Y-216888D01*
X189655Y-216941D01*
X189636Y-216993D01*
X189613Y-217044D01*
X189587Y-217093D01*
X189557Y-217140D01*
X189525Y-217185D01*
X189490Y-217227D01*
X189452Y-217268D01*
X189451Y-217268D02*
X187955Y-218764D01*
X187955Y-218765D02*
X187914Y-218803D01*
X187872Y-218838D01*
X187827Y-218870D01*
X187780Y-218900D01*
X187731Y-218926D01*
X187680Y-218949D01*
X187628Y-218968D01*
X187575Y-218984D01*
X187521Y-218997D01*
X187467Y-219006D01*
X187411Y-219011D01*
X187356Y-219013D01*
X187301Y-219011D01*
X187245Y-219006D01*
X187191Y-218997D01*
X187137Y-218984D01*
X187084Y-218968D01*
X187032Y-218949D01*
X186981Y-218926D01*
X186933Y-218900D01*
X186885Y-218870D01*
X186840Y-218838D01*
X186798Y-218803D01*
X186757Y-218765D01*
X186757Y-218764D02*
X186159Y-218166D01*
X184963Y-216970D02*
X187657Y-214276D01*
X187956Y-214575D02*
X187358Y-213977D01*
X184664Y-216671D02*
X185262Y-217269D01*
X183556Y-215563D02*
X186250Y-212869D01*
X184753Y-211372D02*
X183556Y-215563D01*
X182059Y-214066D02*
X184753Y-211372D01*
D19*
X195966Y-116168D02*
X193811Y-114013D01*
X192374Y-115449D01*
X194529Y-117605D02*
X195966Y-116168D01*
X197582Y-114551D02*
X195068Y-112396D01*
X197582Y-114551D02*
X198840Y-113294D01*
X196684Y-111139D02*
X196505Y-110959D01*
X195068Y-112396D01*
X197582Y-114551D02*
X195966Y-116168D01*
X198840Y-113294D02*
X196684Y-111139D01*
X193811Y-114013D01*
X192374Y-115449D02*
X194529Y-117605D01*
D12*
X195288Y-119539D02*
X197264Y-121515D01*
X195288Y-119539D02*
X195837Y-118991D01*
X195878Y-118954D01*
X195921Y-118919D01*
X195966Y-118887D01*
X196014Y-118859D01*
X196064Y-118834D01*
X196115Y-118813D01*
X196167Y-118795D01*
X196221Y-118782D01*
X196276Y-118772D01*
X196331Y-118766D01*
X196386Y-118764D01*
X196441Y-118766D01*
X196496Y-118772D01*
X196551Y-118782D01*
X196605Y-118795D01*
X196657Y-118813D01*
X196708Y-118834D01*
X196758Y-118859D01*
X196806Y-118887D01*
X196851Y-118919D01*
X196894Y-118954D01*
X196935Y-118991D01*
X196972Y-119032D01*
X197007Y-119075D01*
X197039Y-119120D01*
X197067Y-119168D01*
X197092Y-119218D01*
X197113Y-119269D01*
X197131Y-119321D01*
X197144Y-119375D01*
X197154Y-119430D01*
X197160Y-119485D01*
X197162Y-119540D01*
X197160Y-119595D01*
X197154Y-119650D01*
X197144Y-119705D01*
X197131Y-119759D01*
X197113Y-119811D01*
X197092Y-119862D01*
X197067Y-119912D01*
X197039Y-119960D01*
X197007Y-120005D01*
X196972Y-120048D01*
X196935Y-120089D01*
X196935Y-120088D02*
X196386Y-120637D01*
X197044Y-119979D02*
X198361Y-120418D01*
X199624Y-119155D02*
X200063Y-118716D01*
X199624Y-119155D02*
X199588Y-119188D01*
X199550Y-119218D01*
X199509Y-119245D01*
X199467Y-119269D01*
X199423Y-119290D01*
X199377Y-119307D01*
X199330Y-119320D01*
X199282Y-119329D01*
X199234Y-119335D01*
X199185Y-119337D01*
X199136Y-119335D01*
X199088Y-119329D01*
X199040Y-119320D01*
X198993Y-119307D01*
X198947Y-119290D01*
X198903Y-119269D01*
X198861Y-119245D01*
X198820Y-119218D01*
X198782Y-119188D01*
X198746Y-119155D01*
X197648Y-118057D01*
X197615Y-118021D01*
X197585Y-117983D01*
X197558Y-117942D01*
X197534Y-117900D01*
X197513Y-117856D01*
X197496Y-117810D01*
X197483Y-117763D01*
X197474Y-117715D01*
X197468Y-117667D01*
X197466Y-117618D01*
X197468Y-117569D01*
X197474Y-117521D01*
X197483Y-117473D01*
X197496Y-117426D01*
X197513Y-117380D01*
X197534Y-117336D01*
X197557Y-117294D01*
X197585Y-117253D01*
X197615Y-117215D01*
X197648Y-117179D01*
X198087Y-116740D01*
X199271Y-116435D02*
X199380Y-115447D01*
X201356Y-117423D01*
X200807Y-117972D02*
X201905Y-116874D01*
D19*
X186697Y-117850D02*
X168377Y-136169D01*
X183105Y-150897D02*
X201425Y-132577D01*
X183105Y-150897D02*
X168377Y-136169D01*
X186697Y-117850D02*
X201425Y-132577D01*
D10*
X194959Y-131500D02*
X194906Y-131450D01*
X194850Y-131402D01*
X194792Y-131358D01*
X194732Y-131316D01*
X194670Y-131278D01*
X194605Y-131243D01*
X194539Y-131212D01*
X194472Y-131184D01*
X194403Y-131159D01*
X194333Y-131139D01*
X194261Y-131122D01*
X194190Y-131108D01*
X194117Y-131099D01*
X194044Y-131093D01*
X193971Y-131091D01*
X193898Y-131093D01*
X193825Y-131099D01*
X193752Y-131108D01*
X193681Y-131122D01*
X193609Y-131139D01*
X193539Y-131159D01*
X193470Y-131184D01*
X193403Y-131212D01*
X193337Y-131243D01*
X193273Y-131278D01*
X193210Y-131316D01*
X193150Y-131358D01*
X193092Y-131402D01*
X193036Y-131450D01*
X192983Y-131500D01*
X192933Y-131553D01*
X192885Y-131609D01*
X192841Y-131667D01*
X192799Y-131727D01*
X192761Y-131790D01*
X192726Y-131854D01*
X192695Y-131920D01*
X192667Y-131987D01*
X192642Y-132056D01*
X192622Y-132126D01*
X192605Y-132198D01*
X192591Y-132269D01*
X192582Y-132342D01*
X192576Y-132415D01*
X192574Y-132488D01*
X192576Y-132561D01*
X192582Y-132634D01*
X192591Y-132707D01*
X192605Y-132778D01*
X192622Y-132850D01*
X192642Y-132920D01*
X192667Y-132989D01*
X192695Y-133056D01*
X192726Y-133122D01*
X192761Y-133187D01*
X192799Y-133249D01*
X192841Y-133309D01*
X192885Y-133367D01*
X192933Y-133423D01*
X192983Y-133476D01*
X193036Y-133526D01*
X193092Y-133574D01*
X193150Y-133618D01*
X193210Y-133660D01*
X193273Y-133698D01*
X193337Y-133733D01*
X193403Y-133764D01*
X193470Y-133792D01*
X193539Y-133817D01*
X193609Y-133837D01*
X193681Y-133854D01*
X193752Y-133868D01*
X193825Y-133877D01*
X193898Y-133883D01*
X193971Y-133885D01*
X194044Y-133883D01*
X194117Y-133877D01*
X194190Y-133868D01*
X194261Y-133854D01*
X194333Y-133837D01*
X194403Y-133817D01*
X194472Y-133792D01*
X194539Y-133764D01*
X194605Y-133733D01*
X194670Y-133698D01*
X194732Y-133660D01*
X194792Y-133618D01*
X194850Y-133574D01*
X194906Y-133526D01*
X194959Y-133476D01*
X195009Y-133423D01*
X195057Y-133367D01*
X195101Y-133309D01*
X195143Y-133249D01*
X195181Y-133187D01*
X195216Y-133122D01*
X195247Y-133056D01*
X195275Y-132989D01*
X195300Y-132920D01*
X195320Y-132850D01*
X195337Y-132778D01*
X195351Y-132707D01*
X195360Y-132634D01*
X195366Y-132561D01*
X195368Y-132488D01*
X195366Y-132415D01*
X195360Y-132342D01*
X195351Y-132269D01*
X195337Y-132198D01*
X195320Y-132126D01*
X195300Y-132056D01*
X195275Y-131987D01*
X195247Y-131920D01*
X195216Y-131854D01*
X195181Y-131789D01*
X195143Y-131727D01*
X195101Y-131667D01*
X195057Y-131609D01*
X195009Y-131553D01*
X194959Y-131500D01*
D11*
X184901Y-150538D02*
X183285Y-152154D01*
X198371Y-137067D02*
X202682Y-132757D01*
X168737Y-134373D02*
X167120Y-135990D01*
X184901Y-118209D02*
X186517Y-116592D01*
D12*
X171608Y-126022D02*
X169662Y-124076D01*
X171608Y-126021D02*
X171654Y-126065D01*
X171704Y-126106D01*
X171755Y-126144D01*
X171809Y-126178D01*
X171864Y-126210D01*
X171922Y-126238D01*
X171981Y-126262D01*
X172041Y-126283D01*
X172103Y-126300D01*
X172165Y-126314D01*
X172228Y-126323D01*
X172292Y-126329D01*
X172356Y-126331D01*
X172420Y-126329D01*
X172484Y-126323D01*
X172547Y-126314D01*
X172609Y-126300D01*
X172671Y-126283D01*
X172731Y-126262D01*
X172790Y-126238D01*
X172848Y-126210D01*
X172903Y-126178D01*
X172957Y-126144D01*
X173008Y-126106D01*
X173058Y-126065D01*
X173104Y-126021D01*
X173148Y-125975D01*
X173189Y-125925D01*
X173227Y-125874D01*
X173261Y-125820D01*
X173293Y-125765D01*
X173321Y-125707D01*
X173345Y-125648D01*
X173366Y-125588D01*
X173383Y-125526D01*
X173397Y-125464D01*
X173406Y-125401D01*
X173412Y-125337D01*
X173414Y-125273D01*
X173412Y-125209D01*
X173406Y-125145D01*
X173397Y-125082D01*
X173383Y-125020D01*
X173366Y-124958D01*
X173345Y-124898D01*
X173321Y-124839D01*
X173293Y-124781D01*
X173261Y-124726D01*
X173227Y-124672D01*
X173189Y-124620D01*
X173148Y-124571D01*
X173104Y-124525D01*
X173105Y-124525D02*
X171159Y-122579D01*
X173157Y-120580D02*
X173201Y-120539D01*
X173247Y-120501D01*
X173295Y-120466D01*
X173346Y-120434D01*
X173398Y-120405D01*
X173453Y-120379D01*
X173508Y-120357D01*
X173565Y-120339D01*
X173623Y-120324D01*
X173682Y-120313D01*
X173741Y-120305D01*
X173801Y-120301D01*
X173861Y-120301D01*
X173921Y-120305D01*
X173980Y-120313D01*
X174039Y-120324D01*
X174097Y-120339D01*
X174154Y-120357D01*
X174209Y-120379D01*
X174264Y-120405D01*
X174316Y-120434D01*
X174367Y-120466D01*
X174415Y-120501D01*
X174461Y-120539D01*
X174505Y-120580D01*
X173158Y-120579D02*
X173112Y-120628D01*
X173068Y-120679D01*
X173028Y-120732D01*
X172990Y-120788D01*
X172956Y-120845D01*
X172925Y-120905D01*
X172897Y-120965D01*
X172872Y-121028D01*
X172851Y-121091D01*
X172834Y-121156D01*
X172820Y-121221D01*
X172809Y-121287D01*
X172802Y-121354D01*
X172799Y-121421D01*
X172800Y-121488D01*
X172804Y-121554D01*
X172812Y-121621D01*
X172823Y-121687D01*
X172838Y-121752D01*
X172857Y-121816D01*
X172879Y-121879D01*
X172904Y-121941D01*
X172933Y-122002D01*
X174804Y-121329D02*
X174803Y-121270D01*
X174800Y-121211D01*
X174793Y-121152D01*
X174782Y-121094D01*
X174768Y-121036D01*
X174751Y-120980D01*
X174731Y-120924D01*
X174707Y-120870D01*
X174681Y-120817D01*
X174651Y-120766D01*
X174618Y-120716D01*
X174583Y-120669D01*
X174545Y-120624D01*
X174504Y-120581D01*
X174804Y-121329D02*
X175029Y-124097D01*
X176525Y-122601D01*
D19*
X209457Y-153361D02*
X213767Y-157672D01*
X209457Y-153361D02*
X206583Y-156235D01*
X210894Y-160545D02*
X213767Y-157672D01*
X215922Y-155516D02*
X211432Y-151385D01*
X215922Y-155516D02*
X218796Y-152643D01*
X214486Y-148332D02*
X211432Y-151385D01*
X215922Y-155516D02*
X213767Y-157672D01*
X218796Y-152643D02*
X214486Y-148332D01*
X211432Y-151385D02*
X209457Y-153361D01*
X206583Y-156235D02*
X210894Y-160545D01*
D12*
X219431Y-153940D02*
X220029Y-153341D01*
X220070Y-153303D01*
X220112Y-153268D01*
X220157Y-153236D01*
X220205Y-153206D01*
X220253Y-153180D01*
X220304Y-153157D01*
X220356Y-153138D01*
X220409Y-153122D01*
X220463Y-153109D01*
X220517Y-153100D01*
X220573Y-153095D01*
X220628Y-153093D01*
X220683Y-153095D01*
X220739Y-153100D01*
X220793Y-153109D01*
X220847Y-153122D01*
X220900Y-153138D01*
X220952Y-153157D01*
X221003Y-153180D01*
X221052Y-153206D01*
X221099Y-153236D01*
X221144Y-153268D01*
X221186Y-153303D01*
X221227Y-153341D01*
X222724Y-154838D01*
X222762Y-154879D01*
X222797Y-154921D01*
X222829Y-154966D01*
X222859Y-155014D01*
X222885Y-155062D01*
X222908Y-155113D01*
X222927Y-155165D01*
X222943Y-155218D01*
X222956Y-155272D01*
X222965Y-155326D01*
X222970Y-155382D01*
X222972Y-155437D01*
X222970Y-155492D01*
X222965Y-155548D01*
X222956Y-155602D01*
X222943Y-155656D01*
X222927Y-155709D01*
X222908Y-155761D01*
X222885Y-155812D01*
X222859Y-155861D01*
X222829Y-155908D01*
X222797Y-155953D01*
X222762Y-155995D01*
X222724Y-156036D01*
X222125Y-156634D01*
X219843Y-156522D02*
X219094Y-157270D01*
X219048Y-157314D01*
X218998Y-157355D01*
X218947Y-157393D01*
X218893Y-157427D01*
X218838Y-157459D01*
X218780Y-157487D01*
X218721Y-157511D01*
X218661Y-157532D01*
X218599Y-157549D01*
X218537Y-157563D01*
X218474Y-157572D01*
X218410Y-157578D01*
X218346Y-157580D01*
X218282Y-157578D01*
X218218Y-157572D01*
X218155Y-157563D01*
X218093Y-157549D01*
X218031Y-157532D01*
X217971Y-157511D01*
X217912Y-157487D01*
X217854Y-157459D01*
X217799Y-157427D01*
X217745Y-157393D01*
X217694Y-157355D01*
X217644Y-157314D01*
X217598Y-157270D01*
X217554Y-157224D01*
X217513Y-157174D01*
X217475Y-157123D01*
X217441Y-157069D01*
X217409Y-157014D01*
X217381Y-156956D01*
X217357Y-156897D01*
X217336Y-156837D01*
X217319Y-156775D01*
X217305Y-156713D01*
X217296Y-156650D01*
X217290Y-156586D01*
X217288Y-156522D01*
X217290Y-156458D01*
X217296Y-156394D01*
X217305Y-156331D01*
X217319Y-156269D01*
X217336Y-156207D01*
X217357Y-156147D01*
X217381Y-156088D01*
X217409Y-156030D01*
X217441Y-155975D01*
X217475Y-155921D01*
X217513Y-155869D01*
X217554Y-155820D01*
X217598Y-155774D01*
X217597Y-155773D02*
X218346Y-155025D01*
X221040Y-157719D01*
X220292Y-158467D01*
X220292Y-158468D02*
X220251Y-158507D01*
X220207Y-158542D01*
X220161Y-158575D01*
X220112Y-158605D01*
X220062Y-158631D01*
X220011Y-158654D01*
X219957Y-158674D01*
X219903Y-158690D01*
X219848Y-158702D01*
X219792Y-158710D01*
X219735Y-158715D01*
X219679Y-158716D01*
X219622Y-158713D01*
X219566Y-158706D01*
X219510Y-158696D01*
X219456Y-158682D01*
X219402Y-158664D01*
X219349Y-158643D01*
X219298Y-158618D01*
X219249Y-158590D01*
X219202Y-158559D01*
X219157Y-158525D01*
X219114Y-158488D01*
X219074Y-158448D01*
X219037Y-158405D01*
X219003Y-158360D01*
X218972Y-158313D01*
X218944Y-158264D01*
X218919Y-158213D01*
X218898Y-158160D01*
X218880Y-158106D01*
X218866Y-158052D01*
X218856Y-157996D01*
X218849Y-157940D01*
X218846Y-157883D01*
X218847Y-157827D01*
X218852Y-157770D01*
X218860Y-157714D01*
X218872Y-157659D01*
X218888Y-157605D01*
X218908Y-157551D01*
X218931Y-157500D01*
X218957Y-157450D01*
X218987Y-157401D01*
X219020Y-157355D01*
X219055Y-157311D01*
X219094Y-157270D01*
X215068Y-158302D02*
X215030Y-158343D01*
X214995Y-158385D01*
X214963Y-158430D01*
X214933Y-158478D01*
X214907Y-158526D01*
X214884Y-158577D01*
X214865Y-158629D01*
X214849Y-158682D01*
X214836Y-158736D01*
X214827Y-158790D01*
X214822Y-158846D01*
X214820Y-158901D01*
X214822Y-158956D01*
X214827Y-159012D01*
X214836Y-159066D01*
X214849Y-159120D01*
X214865Y-159173D01*
X214884Y-159225D01*
X214907Y-159276D01*
X214933Y-159325D01*
X214963Y-159372D01*
X214995Y-159417D01*
X215030Y-159459D01*
X215068Y-159500D01*
X215068Y-158302D02*
X215128Y-158245D01*
X215191Y-158190D01*
X215256Y-158139D01*
X215323Y-158090D01*
X215393Y-158045D01*
X215465Y-158003D01*
X215538Y-157964D01*
X215614Y-157929D01*
X215690Y-157897D01*
X215769Y-157869D01*
X215848Y-157845D01*
X215929Y-157824D01*
X216010Y-157807D01*
X216092Y-157794D01*
X216174Y-157785D01*
X216257Y-157780D01*
X216340Y-157778D01*
X217987Y-159575D02*
X218025Y-159616D01*
X218060Y-159658D01*
X218092Y-159703D01*
X218122Y-159751D01*
X218148Y-159799D01*
X218171Y-159850D01*
X218190Y-159902D01*
X218206Y-159955D01*
X218219Y-160009D01*
X218228Y-160063D01*
X218233Y-160119D01*
X218235Y-160174D01*
X218233Y-160229D01*
X218228Y-160285D01*
X218219Y-160339D01*
X218206Y-160393D01*
X218190Y-160446D01*
X218171Y-160498D01*
X218148Y-160549D01*
X218122Y-160598D01*
X218092Y-160645D01*
X218060Y-160690D01*
X218025Y-160732D01*
X217987Y-160773D01*
X217930Y-160827D01*
X217870Y-160878D01*
X217808Y-160927D01*
X217744Y-160972D01*
X217678Y-161014D01*
X217609Y-161052D01*
X217539Y-161087D01*
X217467Y-161119D01*
X217393Y-161147D01*
X217319Y-161172D01*
X217243Y-161192D01*
X217166Y-161209D01*
X217089Y-161222D01*
X217164Y-159350D02*
X217218Y-159338D01*
X217273Y-159330D01*
X217329Y-159324D01*
X217385Y-159323D01*
X217440Y-159325D01*
X217496Y-159331D01*
X217551Y-159340D01*
X217605Y-159353D01*
X217659Y-159370D01*
X217711Y-159390D01*
X217762Y-159413D01*
X217811Y-159439D01*
X217858Y-159469D01*
X217903Y-159501D01*
X217946Y-159537D01*
X217987Y-159575D01*
X215891Y-159725D02*
X215837Y-159737D01*
X215782Y-159745D01*
X215726Y-159751D01*
X215670Y-159752D01*
X215615Y-159750D01*
X215559Y-159744D01*
X215504Y-159735D01*
X215450Y-159722D01*
X215396Y-159705D01*
X215344Y-159685D01*
X215293Y-159662D01*
X215244Y-159636D01*
X215197Y-159606D01*
X215152Y-159574D01*
X215109Y-159538D01*
X215068Y-159500D01*
X215891Y-159725D02*
X217163Y-159350D01*
X215584Y-163175D02*
X212890Y-160481D01*
X216332Y-162426D02*
X214836Y-163923D01*
D19*
X202653Y-109119D02*
X206964Y-104809D01*
X202653Y-109119D02*
X205527Y-111993D01*
X209838Y-107682D02*
X206964Y-104809D01*
X204809Y-102653D02*
X200678Y-107143D01*
X204809Y-102653D02*
X201935Y-99780D01*
X197624Y-104090D02*
X200678Y-107143D01*
X204809Y-102653D02*
X206964Y-104809D01*
X201935Y-99780D02*
X197624Y-104090D01*
X200678Y-107143D02*
X202653Y-109119D01*
X205527Y-111993D02*
X209838Y-107682D01*
D12*
X206248Y-101756D02*
X205649Y-101157D01*
X205610Y-101115D01*
X205573Y-101070D01*
X205540Y-101023D01*
X205510Y-100973D01*
X205483Y-100922D01*
X205460Y-100869D01*
X205441Y-100814D01*
X205425Y-100759D01*
X205413Y-100702D01*
X205405Y-100645D01*
X205401Y-100587D01*
X205401Y-100529D01*
X205405Y-100471D01*
X205413Y-100414D01*
X205425Y-100357D01*
X205441Y-100302D01*
X205460Y-100247D01*
X205483Y-100194D01*
X205510Y-100143D01*
X205540Y-100093D01*
X205573Y-100046D01*
X205610Y-100001D01*
X205649Y-99959D01*
X205649Y-99960D02*
X207146Y-98463D01*
X207187Y-98425D01*
X207229Y-98390D01*
X207274Y-98358D01*
X207322Y-98328D01*
X207370Y-98302D01*
X207421Y-98279D01*
X207473Y-98260D01*
X207526Y-98244D01*
X207580Y-98231D01*
X207634Y-98222D01*
X207690Y-98217D01*
X207745Y-98215D01*
X207800Y-98217D01*
X207856Y-98222D01*
X207910Y-98231D01*
X207964Y-98244D01*
X208017Y-98260D01*
X208069Y-98279D01*
X208120Y-98302D01*
X208169Y-98328D01*
X208216Y-98358D01*
X208261Y-98390D01*
X208303Y-98425D01*
X208344Y-98463D01*
X208343Y-98463D02*
X208942Y-99062D01*
X207804Y-103312D02*
X208403Y-103911D01*
X207804Y-103313D02*
X207765Y-103271D01*
X207728Y-103226D01*
X207695Y-103179D01*
X207665Y-103129D01*
X207638Y-103078D01*
X207615Y-103025D01*
X207596Y-102970D01*
X207580Y-102915D01*
X207568Y-102858D01*
X207560Y-102801D01*
X207556Y-102743D01*
X207556Y-102685D01*
X207560Y-102627D01*
X207568Y-102570D01*
X207580Y-102513D01*
X207596Y-102458D01*
X207615Y-102403D01*
X207638Y-102350D01*
X207665Y-102299D01*
X207695Y-102249D01*
X207728Y-102202D01*
X207765Y-102157D01*
X207804Y-102115D01*
X209301Y-100618D01*
X209342Y-100580D01*
X209384Y-100545D01*
X209429Y-100513D01*
X209477Y-100483D01*
X209525Y-100457D01*
X209576Y-100434D01*
X209628Y-100415D01*
X209681Y-100399D01*
X209735Y-100386D01*
X209789Y-100377D01*
X209845Y-100372D01*
X209900Y-100370D01*
X209955Y-100372D01*
X210011Y-100377D01*
X210065Y-100386D01*
X210119Y-100399D01*
X210172Y-100415D01*
X210224Y-100434D01*
X210275Y-100457D01*
X210324Y-100483D01*
X210371Y-100513D01*
X210416Y-100545D01*
X210458Y-100580D01*
X210499Y-100618D01*
X210498Y-100618D02*
X211097Y-101217D01*
X211463Y-102780D02*
X212810Y-102930D01*
X210116Y-105624D01*
X209368Y-104876D02*
X210864Y-106372D01*
D22*
X117500Y-126209D02*
X117502Y-126120D01*
X117508Y-126031D01*
X117518Y-125942D01*
X117532Y-125854D01*
X117549Y-125767D01*
X117571Y-125681D01*
X117597Y-125595D01*
X117626Y-125511D01*
X117659Y-125428D01*
X117695Y-125347D01*
X117736Y-125267D01*
X117779Y-125190D01*
X117826Y-125114D01*
X117877Y-125041D01*
X117930Y-124970D01*
X117987Y-124901D01*
X118047Y-124835D01*
X118110Y-124771D01*
X118175Y-124711D01*
X118243Y-124653D01*
X118314Y-124599D01*
X118387Y-124548D01*
X118462Y-124500D01*
X118539Y-124455D01*
X118618Y-124414D01*
X118699Y-124377D01*
X118781Y-124343D01*
X118865Y-124312D01*
X118950Y-124286D01*
X119036Y-124263D01*
X119123Y-124245D01*
X119211Y-124230D01*
X119300Y-124219D01*
X119389Y-124212D01*
X119478Y-124209D01*
X119567Y-124210D01*
X119656Y-124215D01*
X119744Y-124224D01*
X119833Y-124237D01*
X119920Y-124254D01*
X120007Y-124274D01*
X120093Y-124299D01*
X120177Y-124327D01*
X120260Y-124359D01*
X120342Y-124395D01*
X120422Y-124434D01*
X120500Y-124477D01*
X120576Y-124523D01*
X120650Y-124573D01*
X120722Y-124626D01*
X120791Y-124682D01*
X120858Y-124741D01*
X120922Y-124803D01*
X120983Y-124867D01*
X121042Y-124935D01*
X121097Y-125005D01*
X121149Y-125077D01*
X121198Y-125152D01*
X121243Y-125228D01*
X121285Y-125307D01*
X121323Y-125387D01*
X121358Y-125469D01*
X121389Y-125553D01*
X121417Y-125638D01*
X121440Y-125724D01*
X121460Y-125811D01*
X121476Y-125898D01*
X121488Y-125987D01*
X121496Y-126075D01*
X121500Y-126164D01*
X121500Y-126254D01*
X121496Y-126343D01*
X121488Y-126431D01*
X121476Y-126520D01*
X121460Y-126607D01*
X121440Y-126694D01*
X121417Y-126780D01*
X121389Y-126865D01*
X121358Y-126949D01*
X121323Y-127031D01*
X121285Y-127111D01*
X121243Y-127190D01*
X121198Y-127266D01*
X121149Y-127341D01*
X121097Y-127413D01*
X121042Y-127483D01*
X120983Y-127551D01*
X120922Y-127615D01*
X120858Y-127677D01*
X120791Y-127736D01*
X120722Y-127792D01*
X120650Y-127845D01*
X120576Y-127895D01*
X120500Y-127941D01*
X120422Y-127984D01*
X120342Y-128023D01*
X120260Y-128059D01*
X120177Y-128091D01*
X120093Y-128119D01*
X120007Y-128144D01*
X119920Y-128164D01*
X119833Y-128181D01*
X119744Y-128194D01*
X119656Y-128203D01*
X119567Y-128208D01*
X119478Y-128209D01*
X119389Y-128206D01*
X119300Y-128199D01*
X119211Y-128188D01*
X119123Y-128173D01*
X119036Y-128155D01*
X118950Y-128132D01*
X118865Y-128106D01*
X118781Y-128075D01*
X118699Y-128041D01*
X118618Y-128004D01*
X118539Y-127963D01*
X118462Y-127918D01*
X118387Y-127870D01*
X118314Y-127819D01*
X118243Y-127765D01*
X118175Y-127707D01*
X118110Y-127647D01*
X118047Y-127583D01*
X117987Y-127517D01*
X117930Y-127448D01*
X117877Y-127377D01*
X117826Y-127304D01*
X117779Y-127228D01*
X117736Y-127151D01*
X117695Y-127071D01*
X117659Y-126990D01*
X117626Y-126907D01*
X117597Y-126823D01*
X117571Y-126737D01*
X117549Y-126651D01*
X117532Y-126564D01*
X117518Y-126476D01*
X117508Y-126387D01*
X117502Y-126298D01*
X117500Y-126209D01*
D11*
X166876Y-88732D02*
X135763Y-57619D01*
X97579Y-95803D02*
X128692Y-126916D01*
D19*
X151106Y-65797D02*
X154478Y-62424D01*
X151106Y-65797D02*
X151048Y-65858D01*
X150992Y-65922D01*
X150939Y-65989D01*
X150890Y-66058D01*
X150844Y-66129D01*
X150801Y-66202D01*
X150761Y-66277D01*
X150725Y-66353D01*
X150693Y-66431D01*
X150664Y-66511D01*
X150639Y-66592D01*
X150618Y-66674D01*
X150600Y-66757D01*
X150587Y-66841D01*
X150577Y-66925D01*
X150571Y-67009D01*
X150569Y-67094D01*
X150571Y-67179D01*
X150577Y-67263D01*
X150587Y-67347D01*
X150600Y-67431D01*
X150618Y-67514D01*
X150639Y-67596D01*
X150664Y-67677D01*
X150693Y-67757D01*
X150725Y-67835D01*
X150761Y-67911D01*
X150801Y-67986D01*
X150844Y-68059D01*
X150890Y-68130D01*
X150939Y-68199D01*
X150992Y-68266D01*
X151048Y-68330D01*
X151106Y-68391D01*
X151167Y-68449D01*
X151231Y-68505D01*
X151298Y-68558D01*
X151367Y-68607D01*
X151438Y-68653D01*
X151511Y-68696D01*
X151586Y-68736D01*
X151662Y-68772D01*
X151740Y-68804D01*
X151820Y-68833D01*
X151901Y-68858D01*
X151983Y-68879D01*
X152066Y-68897D01*
X152150Y-68910D01*
X152234Y-68920D01*
X152318Y-68926D01*
X152403Y-68928D01*
X152488Y-68926D01*
X152572Y-68920D01*
X152656Y-68910D01*
X152740Y-68897D01*
X152823Y-68879D01*
X152905Y-68858D01*
X152986Y-68833D01*
X153066Y-68804D01*
X153144Y-68772D01*
X153220Y-68736D01*
X153295Y-68696D01*
X153368Y-68653D01*
X153439Y-68607D01*
X153508Y-68558D01*
X153575Y-68505D01*
X153639Y-68449D01*
X153700Y-68391D01*
X157073Y-65018D01*
X155154Y-72439D02*
X156451Y-73736D01*
X156512Y-73794D01*
X156576Y-73850D01*
X156643Y-73903D01*
X156712Y-73952D01*
X156783Y-73998D01*
X156856Y-74041D01*
X156931Y-74081D01*
X157007Y-74117D01*
X157085Y-74149D01*
X157165Y-74178D01*
X157246Y-74203D01*
X157328Y-74224D01*
X157411Y-74242D01*
X157495Y-74255D01*
X157579Y-74265D01*
X157663Y-74271D01*
X157748Y-74273D01*
X157833Y-74271D01*
X157917Y-74265D01*
X158001Y-74255D01*
X158085Y-74242D01*
X158168Y-74224D01*
X158250Y-74203D01*
X158331Y-74178D01*
X158411Y-74149D01*
X158489Y-74117D01*
X158565Y-74081D01*
X158640Y-74041D01*
X158713Y-73998D01*
X158784Y-73952D01*
X158853Y-73903D01*
X158920Y-73850D01*
X158984Y-73794D01*
X159045Y-73736D01*
X159103Y-73675D01*
X159159Y-73611D01*
X159212Y-73544D01*
X159261Y-73475D01*
X159307Y-73404D01*
X159350Y-73331D01*
X159390Y-73256D01*
X159426Y-73180D01*
X159458Y-73102D01*
X159487Y-73022D01*
X159512Y-72941D01*
X159533Y-72859D01*
X159551Y-72776D01*
X159564Y-72692D01*
X159574Y-72608D01*
X159580Y-72524D01*
X159582Y-72439D01*
X159580Y-72354D01*
X159574Y-72270D01*
X159564Y-72186D01*
X159551Y-72102D01*
X159533Y-72019D01*
X159512Y-71937D01*
X159487Y-71856D01*
X159458Y-71776D01*
X159426Y-71698D01*
X159390Y-71622D01*
X159350Y-71547D01*
X159307Y-71474D01*
X159261Y-71403D01*
X159212Y-71334D01*
X159159Y-71267D01*
X159103Y-71203D01*
X159045Y-71142D01*
X161380Y-69326D02*
X159823Y-67769D01*
X161380Y-69325D02*
X161432Y-69380D01*
X161481Y-69437D01*
X161527Y-69497D01*
X161570Y-69559D01*
X161610Y-69624D01*
X161647Y-69690D01*
X161679Y-69758D01*
X161709Y-69828D01*
X161735Y-69899D01*
X161757Y-69971D01*
X161775Y-70044D01*
X161789Y-70118D01*
X161800Y-70193D01*
X161807Y-70269D01*
X161810Y-70344D01*
X161809Y-70420D01*
X161804Y-70495D01*
X161795Y-70570D01*
X161783Y-70645D01*
X161766Y-70719D01*
X161746Y-70791D01*
X161722Y-70863D01*
X161695Y-70933D01*
X161663Y-71002D01*
X161629Y-71070D01*
X161591Y-71135D01*
X161549Y-71198D01*
X161505Y-71259D01*
X161457Y-71318D01*
X161406Y-71374D01*
X161353Y-71427D01*
X161297Y-71478D01*
X161238Y-71526D01*
X161177Y-71570D01*
X161114Y-71612D01*
X161049Y-71650D01*
X160981Y-71684D01*
X160912Y-71716D01*
X160842Y-71743D01*
X160770Y-71767D01*
X160698Y-71787D01*
X160624Y-71804D01*
X160549Y-71816D01*
X160474Y-71825D01*
X160399Y-71830D01*
X160323Y-71831D01*
X160248Y-71828D01*
X160172Y-71821D01*
X160097Y-71810D01*
X160023Y-71796D01*
X159950Y-71778D01*
X159878Y-71756D01*
X159807Y-71730D01*
X159737Y-71700D01*
X159669Y-71668D01*
X159603Y-71631D01*
X159538Y-71591D01*
X159476Y-71548D01*
X159416Y-71502D01*
X159359Y-71453D01*
X159304Y-71401D01*
X158267Y-70363D01*
D11*
X95598Y-106525D02*
X127927Y-138854D01*
X111762Y-155019D01*
X79433Y-122690D01*
X95598Y-106525D01*
D15*
X80558Y-116531D02*
X76966Y-112939D01*
X77963Y-111941D01*
X78017Y-111890D01*
X78073Y-111842D01*
X78132Y-111797D01*
X78193Y-111756D01*
X78256Y-111717D01*
X78320Y-111682D01*
X78387Y-111650D01*
X78455Y-111622D01*
X78525Y-111597D01*
X78596Y-111576D01*
X78668Y-111559D01*
X78740Y-111545D01*
X78814Y-111536D01*
X78887Y-111530D01*
X78961Y-111528D01*
X79035Y-111530D01*
X79109Y-111536D01*
X79182Y-111545D01*
X79254Y-111559D01*
X79326Y-111576D01*
X79397Y-111597D01*
X79467Y-111622D01*
X79535Y-111650D01*
X79602Y-111682D01*
X79667Y-111717D01*
X79729Y-111756D01*
X79790Y-111797D01*
X79849Y-111842D01*
X79905Y-111890D01*
X79959Y-111941D01*
X80010Y-111995D01*
X80058Y-112051D01*
X80103Y-112110D01*
X80144Y-112171D01*
X80183Y-112233D01*
X80218Y-112298D01*
X80250Y-112365D01*
X80278Y-112433D01*
X80303Y-112503D01*
X80324Y-112574D01*
X80341Y-112646D01*
X80355Y-112718D01*
X80364Y-112791D01*
X80370Y-112865D01*
X80372Y-112939D01*
X80370Y-113013D01*
X80364Y-113086D01*
X80355Y-113160D01*
X80341Y-113232D01*
X80324Y-113304D01*
X80303Y-113375D01*
X80278Y-113445D01*
X80250Y-113513D01*
X80218Y-113580D01*
X80183Y-113644D01*
X80144Y-113707D01*
X80103Y-113768D01*
X80058Y-113827D01*
X80010Y-113883D01*
X79959Y-113937D01*
X79959Y-113936D02*
X78961Y-114934D01*
X80159Y-113737D02*
X82553Y-114535D01*
X81605Y-109896D02*
X81804Y-108100D01*
X85396Y-111692D01*
X84399Y-112690D02*
X86394Y-110694D01*
X86482Y-107014D02*
X86394Y-106923D01*
X86309Y-106830D01*
X86226Y-106734D01*
X86147Y-106635D01*
X86070Y-106534D01*
X85997Y-106431D01*
X85926Y-106326D01*
X85859Y-106219D01*
X85795Y-106109D01*
X85735Y-105998D01*
X85678Y-105885D01*
X85624Y-105771D01*
X85574Y-105654D01*
X85527Y-105537D01*
X85484Y-105418D01*
X85459Y-105362D01*
X85437Y-105304D01*
X85418Y-105245D01*
X85403Y-105186D01*
X85391Y-105125D01*
X85383Y-105064D01*
X85379Y-105002D01*
X85378Y-104941D01*
X85381Y-104879D01*
X85388Y-104818D01*
X85398Y-104757D01*
X85411Y-104697D01*
X85429Y-104638D01*
X85449Y-104580D01*
X85473Y-104523D01*
X85501Y-104468D01*
X85531Y-104414D01*
X85565Y-104362D01*
X85602Y-104313D01*
X85641Y-104266D01*
X85684Y-104221D01*
X85729Y-104178D01*
X85776Y-104139D01*
X85825Y-104102D01*
X85877Y-104068D01*
X85931Y-104038D01*
X85986Y-104010D01*
X86043Y-103986D01*
X86101Y-103966D01*
X86160Y-103948D01*
X86220Y-103935D01*
X86281Y-103925D01*
X86342Y-103918D01*
X86404Y-103915D01*
X86465Y-103916D01*
X86527Y-103920D01*
X86588Y-103928D01*
X86649Y-103940D01*
X86708Y-103955D01*
X86767Y-103974D01*
X86825Y-103996D01*
X86881Y-104021D01*
X87000Y-104064D01*
X87117Y-104111D01*
X87233Y-104161D01*
X87348Y-104215D01*
X87461Y-104272D01*
X87572Y-104332D01*
X87682Y-104396D01*
X87789Y-104463D01*
X87894Y-104534D01*
X87997Y-104607D01*
X88098Y-104684D01*
X88197Y-104763D01*
X88293Y-104846D01*
X88386Y-104931D01*
X88477Y-105019D01*
X86481Y-107015D02*
X86572Y-107103D01*
X86666Y-107188D01*
X86762Y-107271D01*
X86860Y-107350D01*
X86961Y-107427D01*
X87064Y-107500D01*
X87169Y-107571D01*
X87277Y-107638D01*
X87386Y-107702D01*
X87497Y-107762D01*
X87610Y-107819D01*
X87725Y-107873D01*
X87841Y-107923D01*
X87959Y-107970D01*
X88078Y-108013D01*
X88078Y-108012D02*
X88134Y-108037D01*
X88192Y-108059D01*
X88251Y-108078D01*
X88310Y-108093D01*
X88371Y-108105D01*
X88432Y-108113D01*
X88494Y-108117D01*
X88555Y-108118D01*
X88617Y-108115D01*
X88678Y-108108D01*
X88739Y-108098D01*
X88799Y-108085D01*
X88858Y-108067D01*
X88916Y-108047D01*
X88973Y-108023D01*
X89028Y-107995D01*
X89082Y-107965D01*
X89134Y-107931D01*
X89183Y-107894D01*
X89230Y-107855D01*
X89275Y-107812D01*
X89476Y-106615D02*
X89432Y-106496D01*
X89386Y-106378D01*
X89336Y-106262D01*
X89282Y-106147D01*
X89225Y-106034D01*
X89164Y-105923D01*
X89101Y-105813D01*
X89033Y-105706D01*
X88963Y-105601D01*
X88890Y-105498D01*
X88813Y-105397D01*
X88734Y-105298D01*
X88651Y-105202D01*
X88566Y-105109D01*
X88478Y-105018D01*
X89475Y-106615D02*
X89500Y-106671D01*
X89522Y-106729D01*
X89541Y-106788D01*
X89556Y-106847D01*
X89568Y-106908D01*
X89576Y-106969D01*
X89580Y-107031D01*
X89581Y-107092D01*
X89578Y-107154D01*
X89571Y-107215D01*
X89561Y-107276D01*
X89548Y-107336D01*
X89530Y-107395D01*
X89510Y-107453D01*
X89486Y-107510D01*
X89458Y-107565D01*
X89428Y-107619D01*
X89394Y-107671D01*
X89357Y-107720D01*
X89318Y-107767D01*
X89275Y-107812D01*
X87679Y-107812D02*
X87280Y-104220D01*
D23*
X72699Y-63235D02*
X79883Y-56050D01*
D19*
X59746Y-69181D02*
X58709Y-68143D01*
X58708Y-68144D02*
X58657Y-68090D01*
X58608Y-68034D01*
X58563Y-67975D01*
X58520Y-67914D01*
X58481Y-67851D01*
X58445Y-67786D01*
X58412Y-67719D01*
X58383Y-67651D01*
X58357Y-67581D01*
X58335Y-67510D01*
X58316Y-67438D01*
X58301Y-67365D01*
X58290Y-67291D01*
X58282Y-67217D01*
X58278Y-67143D01*
X58278Y-67069D01*
X58282Y-66995D01*
X58290Y-66921D01*
X58301Y-66847D01*
X58316Y-66774D01*
X58335Y-66702D01*
X58357Y-66631D01*
X58383Y-66561D01*
X58412Y-66493D01*
X58445Y-66426D01*
X58481Y-66361D01*
X58520Y-66298D01*
X58563Y-66237D01*
X58608Y-66178D01*
X58657Y-66122D01*
X58708Y-66068D01*
X58709Y-66068D02*
X61303Y-63474D01*
X61303Y-63473D02*
X61357Y-63422D01*
X61413Y-63373D01*
X61472Y-63328D01*
X61533Y-63285D01*
X61596Y-63246D01*
X61661Y-63210D01*
X61728Y-63177D01*
X61796Y-63148D01*
X61866Y-63122D01*
X61937Y-63100D01*
X62009Y-63081D01*
X62082Y-63066D01*
X62156Y-63055D01*
X62230Y-63047D01*
X62304Y-63043D01*
X62378Y-63043D01*
X62452Y-63047D01*
X62526Y-63055D01*
X62600Y-63066D01*
X62673Y-63081D01*
X62745Y-63100D01*
X62816Y-63122D01*
X62886Y-63148D01*
X62954Y-63177D01*
X63021Y-63210D01*
X63086Y-63246D01*
X63149Y-63285D01*
X63210Y-63328D01*
X63269Y-63373D01*
X63325Y-63422D01*
X63379Y-63473D01*
X63378Y-63474D02*
X64416Y-64511D01*
X65638Y-67809D02*
X67973Y-68069D01*
X63304Y-72738D01*
X62006Y-71441D02*
X64601Y-74036D01*
X67179Y-76614D02*
X68476Y-77911D01*
X68537Y-77969D01*
X68601Y-78025D01*
X68668Y-78078D01*
X68737Y-78127D01*
X68808Y-78173D01*
X68881Y-78216D01*
X68956Y-78256D01*
X69032Y-78292D01*
X69110Y-78324D01*
X69190Y-78353D01*
X69271Y-78378D01*
X69353Y-78399D01*
X69436Y-78417D01*
X69520Y-78430D01*
X69604Y-78440D01*
X69688Y-78446D01*
X69773Y-78448D01*
X69858Y-78446D01*
X69942Y-78440D01*
X70026Y-78430D01*
X70110Y-78417D01*
X70193Y-78399D01*
X70275Y-78378D01*
X70356Y-78353D01*
X70436Y-78324D01*
X70514Y-78292D01*
X70590Y-78256D01*
X70665Y-78216D01*
X70738Y-78173D01*
X70809Y-78127D01*
X70878Y-78078D01*
X70945Y-78025D01*
X71009Y-77969D01*
X71070Y-77911D01*
X71128Y-77850D01*
X71184Y-77786D01*
X71237Y-77719D01*
X71286Y-77650D01*
X71332Y-77579D01*
X71375Y-77506D01*
X71415Y-77431D01*
X71451Y-77355D01*
X71483Y-77277D01*
X71512Y-77197D01*
X71537Y-77116D01*
X71558Y-77034D01*
X71576Y-76951D01*
X71589Y-76867D01*
X71599Y-76783D01*
X71605Y-76699D01*
X71607Y-76614D01*
X71605Y-76529D01*
X71599Y-76445D01*
X71589Y-76361D01*
X71576Y-76277D01*
X71558Y-76194D01*
X71537Y-76112D01*
X71512Y-76031D01*
X71483Y-75951D01*
X71451Y-75873D01*
X71415Y-75797D01*
X71375Y-75722D01*
X71332Y-75649D01*
X71286Y-75578D01*
X71237Y-75509D01*
X71184Y-75442D01*
X71128Y-75378D01*
X71070Y-75317D01*
X73405Y-73501D02*
X71849Y-71944D01*
X73406Y-73500D02*
X73458Y-73555D01*
X73507Y-73612D01*
X73553Y-73672D01*
X73596Y-73734D01*
X73636Y-73799D01*
X73673Y-73865D01*
X73705Y-73933D01*
X73735Y-74003D01*
X73761Y-74074D01*
X73783Y-74146D01*
X73801Y-74219D01*
X73815Y-74293D01*
X73826Y-74368D01*
X73833Y-74444D01*
X73836Y-74519D01*
X73835Y-74595D01*
X73830Y-74670D01*
X73821Y-74745D01*
X73809Y-74820D01*
X73792Y-74894D01*
X73772Y-74966D01*
X73748Y-75038D01*
X73721Y-75108D01*
X73689Y-75177D01*
X73655Y-75245D01*
X73617Y-75310D01*
X73575Y-75373D01*
X73531Y-75434D01*
X73483Y-75493D01*
X73432Y-75549D01*
X73379Y-75602D01*
X73323Y-75653D01*
X73264Y-75701D01*
X73203Y-75745D01*
X73140Y-75787D01*
X73075Y-75825D01*
X73007Y-75859D01*
X72938Y-75891D01*
X72868Y-75918D01*
X72796Y-75942D01*
X72724Y-75962D01*
X72650Y-75979D01*
X72575Y-75991D01*
X72500Y-76000D01*
X72425Y-76005D01*
X72349Y-76006D01*
X72274Y-76003D01*
X72198Y-75996D01*
X72123Y-75985D01*
X72049Y-75971D01*
X71976Y-75953D01*
X71904Y-75931D01*
X71833Y-75905D01*
X71763Y-75875D01*
X71695Y-75843D01*
X71629Y-75806D01*
X71564Y-75766D01*
X71502Y-75723D01*
X71442Y-75677D01*
X71385Y-75628D01*
X71330Y-75576D01*
X70292Y-74538D01*
D23*
X102782Y-47970D02*
X109966Y-55154D01*
D19*
X115980Y-34927D02*
X114942Y-33890D01*
X114891Y-33836D01*
X114842Y-33780D01*
X114797Y-33721D01*
X114754Y-33660D01*
X114715Y-33597D01*
X114679Y-33532D01*
X114646Y-33465D01*
X114617Y-33397D01*
X114591Y-33327D01*
X114569Y-33256D01*
X114550Y-33184D01*
X114535Y-33111D01*
X114524Y-33037D01*
X114516Y-32963D01*
X114512Y-32889D01*
X114512Y-32815D01*
X114516Y-32741D01*
X114524Y-32667D01*
X114535Y-32593D01*
X114550Y-32520D01*
X114569Y-32448D01*
X114591Y-32377D01*
X114617Y-32307D01*
X114646Y-32239D01*
X114679Y-32172D01*
X114715Y-32107D01*
X114754Y-32044D01*
X114797Y-31983D01*
X114842Y-31924D01*
X114891Y-31868D01*
X114942Y-31814D01*
X117537Y-29220D01*
X117536Y-29220D02*
X117590Y-29169D01*
X117646Y-29120D01*
X117705Y-29075D01*
X117766Y-29032D01*
X117829Y-28993D01*
X117894Y-28957D01*
X117961Y-28924D01*
X118029Y-28895D01*
X118099Y-28869D01*
X118170Y-28847D01*
X118242Y-28828D01*
X118315Y-28813D01*
X118389Y-28802D01*
X118463Y-28794D01*
X118537Y-28790D01*
X118611Y-28790D01*
X118685Y-28794D01*
X118759Y-28802D01*
X118833Y-28813D01*
X118906Y-28828D01*
X118978Y-28847D01*
X119049Y-28869D01*
X119119Y-28895D01*
X119187Y-28924D01*
X119254Y-28957D01*
X119319Y-28993D01*
X119382Y-29032D01*
X119443Y-29075D01*
X119502Y-29120D01*
X119558Y-29169D01*
X119612Y-29220D01*
X120650Y-30258D01*
X121872Y-33555D02*
X124207Y-33815D01*
X119537Y-38485D01*
X118240Y-37188D02*
X120834Y-39782D01*
X123413Y-42360D02*
X124969Y-43917D01*
X125023Y-43968D01*
X125079Y-44017D01*
X125138Y-44062D01*
X125199Y-44105D01*
X125262Y-44144D01*
X125327Y-44180D01*
X125394Y-44213D01*
X125462Y-44242D01*
X125532Y-44268D01*
X125603Y-44290D01*
X125675Y-44309D01*
X125748Y-44324D01*
X125822Y-44335D01*
X125896Y-44343D01*
X125970Y-44347D01*
X126044Y-44347D01*
X126118Y-44343D01*
X126192Y-44335D01*
X126266Y-44324D01*
X126339Y-44309D01*
X126411Y-44290D01*
X126482Y-44268D01*
X126552Y-44242D01*
X126620Y-44213D01*
X126687Y-44180D01*
X126752Y-44144D01*
X126815Y-44105D01*
X126876Y-44062D01*
X126935Y-44017D01*
X126991Y-43968D01*
X127045Y-43917D01*
X127564Y-43398D01*
X127615Y-43344D01*
X127664Y-43288D01*
X127709Y-43229D01*
X127752Y-43168D01*
X127791Y-43105D01*
X127827Y-43040D01*
X127860Y-42973D01*
X127889Y-42905D01*
X127915Y-42835D01*
X127937Y-42764D01*
X127956Y-42692D01*
X127971Y-42619D01*
X127982Y-42545D01*
X127990Y-42471D01*
X127994Y-42397D01*
X127994Y-42323D01*
X127990Y-42249D01*
X127982Y-42175D01*
X127971Y-42101D01*
X127956Y-42028D01*
X127937Y-41956D01*
X127915Y-41885D01*
X127889Y-41815D01*
X127860Y-41747D01*
X127827Y-41680D01*
X127791Y-41615D01*
X127752Y-41552D01*
X127709Y-41491D01*
X127664Y-41432D01*
X127615Y-41376D01*
X127564Y-41322D01*
X126007Y-39766D01*
X128083Y-37690D01*
X130677Y-40285D01*
D23*
X101869Y-37513D02*
X94685Y-30329D01*
D19*
X107864Y-16037D02*
X106826Y-14999D01*
X106775Y-14945D01*
X106726Y-14889D01*
X106681Y-14830D01*
X106638Y-14769D01*
X106599Y-14706D01*
X106563Y-14641D01*
X106530Y-14574D01*
X106501Y-14506D01*
X106475Y-14436D01*
X106453Y-14365D01*
X106434Y-14293D01*
X106419Y-14220D01*
X106408Y-14146D01*
X106400Y-14072D01*
X106396Y-13998D01*
X106396Y-13924D01*
X106400Y-13850D01*
X106408Y-13776D01*
X106419Y-13702D01*
X106434Y-13629D01*
X106453Y-13557D01*
X106475Y-13486D01*
X106501Y-13416D01*
X106530Y-13348D01*
X106563Y-13281D01*
X106599Y-13216D01*
X106638Y-13153D01*
X106681Y-13092D01*
X106726Y-13033D01*
X106775Y-12977D01*
X106826Y-12923D01*
X106826Y-12924D02*
X109420Y-10329D01*
X109474Y-10278D01*
X109530Y-10229D01*
X109589Y-10184D01*
X109650Y-10141D01*
X109713Y-10102D01*
X109778Y-10066D01*
X109845Y-10033D01*
X109913Y-10004D01*
X109983Y-9978D01*
X110054Y-9956D01*
X110126Y-9937D01*
X110199Y-9922D01*
X110273Y-9911D01*
X110347Y-9903D01*
X110421Y-9899D01*
X110495Y-9899D01*
X110569Y-9903D01*
X110643Y-9911D01*
X110717Y-9922D01*
X110790Y-9937D01*
X110862Y-9956D01*
X110933Y-9978D01*
X111003Y-10004D01*
X111071Y-10033D01*
X111138Y-10066D01*
X111203Y-10102D01*
X111266Y-10141D01*
X111327Y-10184D01*
X111386Y-10229D01*
X111442Y-10278D01*
X111496Y-10329D01*
X112533Y-11367D01*
X113756Y-14665D02*
X116091Y-14924D01*
X111421Y-19594D01*
X110124Y-18297D02*
X112718Y-20891D01*
X117891Y-20875D02*
X119447Y-22432D01*
X119448Y-22432D02*
X119499Y-22486D01*
X119548Y-22542D01*
X119593Y-22601D01*
X119636Y-22662D01*
X119675Y-22725D01*
X119711Y-22790D01*
X119744Y-22857D01*
X119773Y-22925D01*
X119799Y-22995D01*
X119821Y-23066D01*
X119840Y-23138D01*
X119855Y-23211D01*
X119866Y-23285D01*
X119874Y-23359D01*
X119878Y-23433D01*
X119878Y-23507D01*
X119874Y-23581D01*
X119866Y-23655D01*
X119855Y-23729D01*
X119840Y-23802D01*
X119821Y-23874D01*
X119799Y-23945D01*
X119773Y-24015D01*
X119744Y-24083D01*
X119711Y-24150D01*
X119675Y-24215D01*
X119636Y-24278D01*
X119593Y-24339D01*
X119548Y-24398D01*
X119499Y-24454D01*
X119448Y-24508D01*
X119447Y-24507D02*
X119188Y-24767D01*
X119126Y-24825D01*
X119063Y-24881D01*
X118996Y-24934D01*
X118927Y-24983D01*
X118856Y-25029D01*
X118783Y-25072D01*
X118708Y-25112D01*
X118632Y-25148D01*
X118553Y-25180D01*
X118474Y-25209D01*
X118393Y-25234D01*
X118311Y-25255D01*
X118228Y-25273D01*
X118144Y-25286D01*
X118060Y-25296D01*
X117976Y-25302D01*
X117891Y-25304D01*
X117806Y-25302D01*
X117722Y-25296D01*
X117638Y-25286D01*
X117554Y-25273D01*
X117471Y-25255D01*
X117389Y-25234D01*
X117308Y-25209D01*
X117228Y-25180D01*
X117150Y-25148D01*
X117073Y-25112D01*
X116999Y-25072D01*
X116926Y-25029D01*
X116855Y-24983D01*
X116786Y-24934D01*
X116719Y-24881D01*
X116655Y-24825D01*
X116594Y-24767D01*
X116536Y-24706D01*
X116480Y-24642D01*
X116427Y-24575D01*
X116378Y-24506D01*
X116332Y-24435D01*
X116289Y-24362D01*
X116249Y-24288D01*
X116213Y-24211D01*
X116181Y-24133D01*
X116152Y-24053D01*
X116127Y-23972D01*
X116106Y-23890D01*
X116088Y-23807D01*
X116075Y-23723D01*
X116065Y-23639D01*
X116059Y-23555D01*
X116057Y-23470D01*
X116059Y-23385D01*
X116065Y-23301D01*
X116075Y-23217D01*
X116088Y-23133D01*
X116106Y-23050D01*
X116127Y-22968D01*
X116152Y-22887D01*
X116181Y-22808D01*
X116213Y-22729D01*
X116249Y-22653D01*
X116289Y-22578D01*
X116332Y-22505D01*
X116378Y-22434D01*
X116427Y-22365D01*
X116480Y-22298D01*
X116536Y-22235D01*
X116594Y-22173D01*
X116594Y-22172D02*
X117891Y-20875D01*
X117891Y-20876D02*
X117968Y-20801D01*
X118048Y-20730D01*
X118130Y-20661D01*
X118215Y-20596D01*
X118302Y-20533D01*
X118392Y-20474D01*
X118483Y-20418D01*
X118577Y-20366D01*
X118672Y-20317D01*
X118769Y-20271D01*
X118868Y-20229D01*
X118968Y-20191D01*
X119069Y-20156D01*
X119172Y-20125D01*
X119276Y-20098D01*
X119380Y-20075D01*
X119486Y-20056D01*
X119592Y-20040D01*
X119698Y-20028D01*
X119805Y-20020D01*
X119912Y-20016D01*
X120020Y-20016D01*
X120127Y-20020D01*
X120234Y-20028D01*
X120340Y-20040D01*
X120446Y-20056D01*
X120552Y-20075D01*
X120656Y-20098D01*
X120760Y-20125D01*
X120863Y-20156D01*
X120964Y-20191D01*
X121064Y-20229D01*
X121163Y-20271D01*
X121260Y-20317D01*
X121355Y-20366D01*
X121449Y-20418D01*
X121540Y-20474D01*
X121630Y-20533D01*
X121717Y-20596D01*
X121802Y-20661D01*
X121884Y-20730D01*
X121964Y-20801D01*
X122041Y-20876D01*
D23*
X85839Y-28860D02*
X78655Y-21676D01*
D19*
X86775Y-4473D02*
X85737Y-3435D01*
X85737Y-3436D02*
X85686Y-3382D01*
X85637Y-3326D01*
X85592Y-3267D01*
X85549Y-3206D01*
X85510Y-3143D01*
X85474Y-3078D01*
X85441Y-3011D01*
X85412Y-2943D01*
X85386Y-2873D01*
X85364Y-2802D01*
X85345Y-2730D01*
X85330Y-2657D01*
X85319Y-2583D01*
X85311Y-2509D01*
X85307Y-2435D01*
X85307Y-2361D01*
X85311Y-2287D01*
X85319Y-2213D01*
X85330Y-2139D01*
X85345Y-2066D01*
X85364Y-1994D01*
X85386Y-1923D01*
X85412Y-1853D01*
X85441Y-1785D01*
X85474Y-1718D01*
X85510Y-1653D01*
X85549Y-1590D01*
X85592Y-1529D01*
X85637Y-1470D01*
X85686Y-1414D01*
X85737Y-1360D01*
X88331Y1234D01*
X88331Y1235D02*
X88385Y1286D01*
X88441Y1335D01*
X88500Y1380D01*
X88561Y1423D01*
X88624Y1462D01*
X88689Y1498D01*
X88756Y1531D01*
X88824Y1560D01*
X88894Y1586D01*
X88965Y1608D01*
X89037Y1627D01*
X89110Y1642D01*
X89184Y1653D01*
X89258Y1661D01*
X89332Y1665D01*
X89406Y1665D01*
X89480Y1661D01*
X89554Y1653D01*
X89628Y1642D01*
X89701Y1627D01*
X89773Y1608D01*
X89844Y1586D01*
X89914Y1560D01*
X89982Y1531D01*
X90049Y1498D01*
X90114Y1462D01*
X90177Y1423D01*
X90238Y1380D01*
X90297Y1335D01*
X90353Y1286D01*
X90407Y1235D01*
X90407Y1234D02*
X91445Y197D01*
X92667Y-3101D02*
X95002Y-3361D01*
X90332Y-8030D01*
X89035Y-6733D02*
X91629Y-9328D01*
X98358Y-7755D02*
X98877Y-7236D01*
X101472Y-9830D01*
X95505Y-13203D01*
D11*
X150043Y8054D02*
X161357Y19368D01*
X140851Y39874D02*
X129537Y28560D01*
X153640Y19721D02*
X153642Y19784D01*
X153648Y19846D01*
X153658Y19908D01*
X153671Y19970D01*
X153689Y20030D01*
X153710Y20089D01*
X153735Y20147D01*
X153764Y20203D01*
X153796Y20257D01*
X153831Y20309D01*
X153869Y20358D01*
X153911Y20406D01*
X153955Y20450D01*
X154003Y20492D01*
X154052Y20530D01*
X154104Y20565D01*
X154158Y20597D01*
X154214Y20626D01*
X154272Y20651D01*
X154331Y20672D01*
X154391Y20690D01*
X154453Y20703D01*
X154515Y20713D01*
X154577Y20719D01*
X154640Y20721D01*
X154703Y20719D01*
X154765Y20713D01*
X154827Y20703D01*
X154889Y20690D01*
X154949Y20672D01*
X155008Y20651D01*
X155066Y20626D01*
X155122Y20597D01*
X155176Y20565D01*
X155228Y20530D01*
X155277Y20492D01*
X155325Y20450D01*
X155369Y20406D01*
X155411Y20358D01*
X155449Y20309D01*
X155484Y20257D01*
X155516Y20203D01*
X155545Y20147D01*
X155570Y20089D01*
X155591Y20030D01*
X155609Y19970D01*
X155622Y19908D01*
X155632Y19846D01*
X155638Y19784D01*
X155640Y19721D01*
X155638Y19658D01*
X155632Y19596D01*
X155622Y19534D01*
X155609Y19472D01*
X155591Y19412D01*
X155570Y19353D01*
X155545Y19295D01*
X155516Y19239D01*
X155484Y19185D01*
X155449Y19133D01*
X155411Y19084D01*
X155369Y19036D01*
X155325Y18992D01*
X155277Y18950D01*
X155228Y18912D01*
X155176Y18877D01*
X155122Y18845D01*
X155066Y18816D01*
X155008Y18791D01*
X154949Y18770D01*
X154889Y18752D01*
X154827Y18739D01*
X154765Y18729D01*
X154703Y18723D01*
X154640Y18721D01*
X154577Y18723D01*
X154515Y18729D01*
X154453Y18739D01*
X154391Y18752D01*
X154331Y18770D01*
X154272Y18791D01*
X154214Y18816D01*
X154158Y18845D01*
X154104Y18877D01*
X154052Y18912D01*
X154003Y18950D01*
X153955Y18992D01*
X153911Y19036D01*
X153869Y19084D01*
X153831Y19133D01*
X153796Y19185D01*
X153764Y19239D01*
X153735Y19295D01*
X153710Y19353D01*
X153689Y19412D01*
X153671Y19472D01*
X153658Y19534D01*
X153648Y19596D01*
X153642Y19658D01*
X153640Y19721D01*
D10*
X158953Y13500D02*
X161288Y11166D01*
X159602Y14149D02*
X158304Y12852D01*
X160813Y15360D02*
X163148Y13026D01*
X164186Y14063D01*
X165943Y15821D02*
X162830Y17377D01*
X164387Y18934D02*
X165943Y15821D01*
D13*
X382213Y-39381D02*
X386703Y-43871D01*
X391193Y-39381D01*
X367844Y-25013D02*
X363354Y-20522D01*
X367844Y-16032D01*
X383111Y-766D02*
X387601Y-5256D01*
X383111Y-766D02*
X378621Y-5256D01*
X401969Y-28605D02*
X406459Y-24115D01*
X401969Y-19624D01*
D19*
X376824Y-58579D02*
X376186Y-59217D01*
X376824Y-58579D02*
X377463Y-59217D01*
X376824Y-59856D01*
X376186Y-59217D01*
D24*
X394248Y-8747D02*
X398199Y-4796D01*
X394248Y-8747D02*
X396004Y-10503D01*
X398661Y-13160D02*
X398711Y-13208D01*
X398765Y-13253D01*
X398820Y-13295D01*
X398878Y-13334D01*
X398938Y-13369D01*
X399000Y-13401D01*
X399064Y-13429D01*
X399129Y-13454D01*
X399195Y-13475D01*
X399263Y-13493D01*
X399331Y-13506D01*
X399400Y-13516D01*
X399469Y-13522D01*
X399539Y-13524D01*
X399609Y-13522D01*
X399678Y-13516D01*
X399747Y-13506D01*
X399815Y-13493D01*
X399883Y-13475D01*
X399949Y-13454D01*
X400014Y-13429D01*
X400078Y-13401D01*
X400140Y-13369D01*
X400200Y-13334D01*
X400258Y-13295D01*
X400313Y-13253D01*
X400367Y-13208D01*
X400417Y-13160D01*
X398660Y-13160D02*
X398592Y-13089D01*
X398526Y-13015D01*
X398463Y-12939D01*
X398403Y-12861D01*
X398346Y-12781D01*
X398292Y-12698D01*
X398242Y-12613D01*
X398194Y-12527D01*
X398150Y-12439D01*
X398109Y-12349D01*
X398071Y-12258D01*
X398037Y-12165D01*
X398007Y-12072D01*
X397979Y-11977D01*
X397956Y-11881D01*
X397936Y-11784D01*
X397920Y-11687D01*
X397907Y-11589D01*
X397899Y-11491D01*
X397893Y-11393D01*
X397892Y-11294D01*
X400526Y-8879D02*
X400576Y-8831D01*
X400630Y-8786D01*
X400685Y-8744D01*
X400743Y-8705D01*
X400803Y-8670D01*
X400865Y-8638D01*
X400929Y-8610D01*
X400994Y-8585D01*
X401060Y-8564D01*
X401128Y-8546D01*
X401196Y-8533D01*
X401265Y-8523D01*
X401334Y-8517D01*
X401404Y-8515D01*
X401474Y-8517D01*
X401543Y-8523D01*
X401612Y-8533D01*
X401680Y-8546D01*
X401748Y-8564D01*
X401814Y-8585D01*
X401879Y-8610D01*
X401943Y-8638D01*
X402005Y-8670D01*
X402065Y-8705D01*
X402123Y-8744D01*
X402178Y-8786D01*
X402232Y-8831D01*
X402282Y-8879D01*
X402282Y-8880D02*
X402347Y-8947D01*
X402409Y-9017D01*
X402468Y-9090D01*
X402525Y-9165D01*
X402578Y-9242D01*
X402628Y-9321D01*
X402675Y-9402D01*
X402718Y-9485D01*
X402758Y-9569D01*
X402795Y-9656D01*
X402828Y-9743D01*
X402858Y-9832D01*
X402884Y-9922D01*
X402907Y-10013D01*
X402926Y-10104D01*
X402941Y-10197D01*
X400197Y-10087D02*
X400182Y-10019D01*
X400170Y-9952D01*
X400162Y-9883D01*
X400158Y-9814D01*
X400157Y-9745D01*
X400161Y-9677D01*
X400168Y-9608D01*
X400178Y-9540D01*
X400193Y-9473D01*
X400211Y-9406D01*
X400233Y-9341D01*
X400258Y-9277D01*
X400287Y-9214D01*
X400319Y-9153D01*
X400354Y-9094D01*
X400393Y-9037D01*
X400434Y-8982D01*
X400479Y-8929D01*
X400526Y-8879D01*
X400746Y-11953D02*
X400761Y-12020D01*
X400773Y-12088D01*
X400781Y-12156D01*
X400785Y-12225D01*
X400786Y-12294D01*
X400782Y-12363D01*
X400775Y-12431D01*
X400765Y-12499D01*
X400750Y-12566D01*
X400732Y-12633D01*
X400710Y-12698D01*
X400685Y-12762D01*
X400656Y-12825D01*
X400624Y-12886D01*
X400589Y-12945D01*
X400550Y-13002D01*
X400509Y-13057D01*
X400464Y-13110D01*
X400417Y-13160D01*
X400746Y-11953D02*
X400197Y-10087D01*
X405213Y-11810D02*
X401262Y-15761D01*
X404335Y-15322D02*
X405213Y-11810D01*
X404335Y-15322D02*
X407847Y-14444D01*
X403896Y-18396D01*
X407944Y-18053D02*
X409261Y-19370D01*
X409309Y-19420D01*
X409354Y-19474D01*
X409396Y-19529D01*
X409435Y-19587D01*
X409470Y-19647D01*
X409502Y-19709D01*
X409530Y-19773D01*
X409555Y-19838D01*
X409576Y-19904D01*
X409594Y-19972D01*
X409607Y-20040D01*
X409617Y-20109D01*
X409623Y-20178D01*
X409625Y-20248D01*
X409623Y-20318D01*
X409617Y-20387D01*
X409607Y-20456D01*
X409594Y-20524D01*
X409576Y-20592D01*
X409555Y-20658D01*
X409530Y-20723D01*
X409502Y-20787D01*
X409470Y-20849D01*
X409435Y-20909D01*
X409396Y-20967D01*
X409354Y-21022D01*
X409309Y-21076D01*
X409261Y-21126D01*
X409042Y-21346D01*
X409041Y-21345D02*
X408984Y-21400D01*
X408925Y-21451D01*
X408863Y-21499D01*
X408798Y-21544D01*
X408731Y-21585D01*
X408663Y-21624D01*
X408592Y-21658D01*
X408520Y-21689D01*
X408446Y-21717D01*
X408371Y-21740D01*
X408295Y-21760D01*
X408218Y-21776D01*
X408140Y-21788D01*
X408062Y-21796D01*
X407983Y-21800D01*
X407905Y-21800D01*
X407826Y-21796D01*
X407748Y-21788D01*
X407670Y-21776D01*
X407593Y-21760D01*
X407517Y-21740D01*
X407442Y-21717D01*
X407368Y-21689D01*
X407296Y-21658D01*
X407225Y-21624D01*
X407157Y-21585D01*
X407090Y-21544D01*
X407025Y-21499D01*
X406963Y-21451D01*
X406904Y-21400D01*
X406847Y-21345D01*
X406792Y-21288D01*
X406741Y-21229D01*
X406693Y-21167D01*
X406648Y-21102D01*
X406607Y-21035D01*
X406568Y-20967D01*
X406534Y-20896D01*
X406503Y-20824D01*
X406475Y-20750D01*
X406452Y-20675D01*
X406432Y-20599D01*
X406416Y-20522D01*
X406404Y-20444D01*
X406396Y-20366D01*
X406392Y-20287D01*
X406392Y-20209D01*
X406396Y-20130D01*
X406404Y-20052D01*
X406416Y-19974D01*
X406432Y-19897D01*
X406452Y-19821D01*
X406475Y-19746D01*
X406503Y-19672D01*
X406534Y-19600D01*
X406568Y-19529D01*
X406607Y-19461D01*
X406648Y-19394D01*
X406693Y-19329D01*
X406741Y-19267D01*
X406792Y-19208D01*
X406847Y-19151D01*
X406846Y-19151D02*
X407944Y-18053D01*
X408014Y-17985D01*
X408087Y-17920D01*
X408162Y-17858D01*
X408240Y-17799D01*
X408320Y-17744D01*
X408402Y-17691D01*
X408486Y-17642D01*
X408572Y-17596D01*
X408660Y-17553D01*
X408749Y-17514D01*
X408840Y-17479D01*
X408932Y-17447D01*
X409026Y-17418D01*
X409120Y-17394D01*
X409215Y-17373D01*
X409311Y-17356D01*
X409408Y-17342D01*
X409505Y-17333D01*
X409602Y-17327D01*
X409700Y-17325D01*
X409797Y-17327D01*
X409895Y-17333D01*
X409992Y-17342D01*
X410089Y-17356D01*
X410185Y-17373D01*
X410280Y-17394D01*
X410374Y-17418D01*
X410468Y-17447D01*
X410560Y-17479D01*
X410651Y-17514D01*
X410740Y-17553D01*
X410828Y-17596D01*
X410914Y-17642D01*
X410998Y-17691D01*
X411080Y-17744D01*
X411160Y-17799D01*
X411238Y-17858D01*
X411313Y-17920D01*
X411386Y-17985D01*
X411456Y-18052D01*
D23*
X367953Y-6003D02*
X362297Y-347D01*
D10*
X376206Y9319D02*
X376725Y8800D01*
X376206Y9319D02*
X376170Y9357D01*
X376137Y9398D01*
X376108Y9441D01*
X376081Y9486D01*
X376057Y9533D01*
X376037Y9581D01*
X376021Y9631D01*
X376008Y9682D01*
X375998Y9734D01*
X375993Y9786D01*
X375991Y9838D01*
X375993Y9890D01*
X375998Y9942D01*
X376008Y9994D01*
X376021Y10045D01*
X376037Y10095D01*
X376057Y10143D01*
X376081Y10190D01*
X376108Y10235D01*
X376137Y10278D01*
X376170Y10319D01*
X376206Y10357D01*
X377503Y11654D01*
X377541Y11690D01*
X377582Y11723D01*
X377625Y11752D01*
X377670Y11779D01*
X377717Y11803D01*
X377765Y11823D01*
X377815Y11839D01*
X377866Y11852D01*
X377918Y11862D01*
X377970Y11867D01*
X378022Y11869D01*
X378074Y11867D01*
X378126Y11862D01*
X378178Y11852D01*
X378229Y11839D01*
X378279Y11823D01*
X378327Y11803D01*
X378374Y11779D01*
X378419Y11752D01*
X378462Y11723D01*
X378503Y11690D01*
X378541Y11654D01*
X379060Y11135D01*
X378504Y8318D02*
X378546Y8359D01*
X378592Y8396D01*
X378639Y8430D01*
X378689Y8462D01*
X378741Y8490D01*
X378794Y8514D01*
X378849Y8536D01*
X378905Y8553D01*
X378962Y8567D01*
X379020Y8577D01*
X379079Y8584D01*
X379137Y8587D01*
X379196Y8586D01*
X379255Y8581D01*
X379313Y8573D01*
X379370Y8561D01*
X379427Y8545D01*
X379482Y8525D01*
X379537Y8502D01*
X379589Y8476D01*
X379640Y8446D01*
X379689Y8414D01*
X379735Y8378D01*
X379779Y8339D01*
X379821Y8297D01*
X379860Y8253D01*
X379896Y8207D01*
X379928Y8158D01*
X379958Y8107D01*
X379984Y8055D01*
X380007Y8000D01*
X380027Y7945D01*
X380043Y7888D01*
X380055Y7831D01*
X380063Y7773D01*
X380068Y7714D01*
X380069Y7655D01*
X380066Y7597D01*
X380059Y7538D01*
X380049Y7480D01*
X380035Y7423D01*
X380018Y7367D01*
X379996Y7312D01*
X379972Y7259D01*
X379944Y7207D01*
X379912Y7157D01*
X379878Y7110D01*
X379841Y7064D01*
X379800Y7022D01*
X379757Y6981D01*
X379710Y6942D01*
X379661Y6908D01*
X379610Y6876D01*
X379558Y6848D01*
X379503Y6823D01*
X379447Y6802D01*
X379389Y6784D01*
X379331Y6771D01*
X379272Y6761D01*
X379212Y6755D01*
X379152Y6753D01*
X379092Y6755D01*
X379032Y6761D01*
X378973Y6771D01*
X378915Y6784D01*
X378857Y6802D01*
X378801Y6823D01*
X378746Y6848D01*
X378693Y6876D01*
X378643Y6908D01*
X378594Y6943D01*
X378547Y6981D01*
X378504Y7022D01*
X378463Y7065D01*
X378424Y7112D01*
X378390Y7161D01*
X378358Y7212D01*
X378330Y7264D01*
X378305Y7319D01*
X378284Y7375D01*
X378266Y7433D01*
X378253Y7491D01*
X378243Y7550D01*
X378237Y7610D01*
X378235Y7670D01*
X378237Y7730D01*
X378243Y7790D01*
X378253Y7849D01*
X378266Y7907D01*
X378284Y7965D01*
X378305Y8021D01*
X378330Y8076D01*
X378358Y8128D01*
X378390Y8179D01*
X378424Y8228D01*
X378463Y8275D01*
X378504Y8318D01*
X379800Y9357D02*
X379839Y9394D01*
X379881Y9427D01*
X379925Y9457D01*
X379972Y9485D01*
X380020Y9508D01*
X380069Y9528D01*
X380120Y9545D01*
X380173Y9557D01*
X380225Y9566D01*
X380279Y9571D01*
X380332Y9572D01*
X380386Y9569D01*
X380439Y9562D01*
X380492Y9551D01*
X380543Y9537D01*
X380594Y9519D01*
X380643Y9497D01*
X380690Y9471D01*
X380735Y9443D01*
X380778Y9411D01*
X380819Y9376D01*
X380857Y9338D01*
X380892Y9297D01*
X380924Y9254D01*
X380952Y9209D01*
X380978Y9162D01*
X381000Y9113D01*
X381018Y9062D01*
X381032Y9011D01*
X381043Y8958D01*
X381050Y8905D01*
X381053Y8851D01*
X381052Y8798D01*
X381047Y8744D01*
X381038Y8692D01*
X381026Y8639D01*
X381009Y8588D01*
X380989Y8539D01*
X380966Y8491D01*
X380938Y8444D01*
X380908Y8400D01*
X380875Y8358D01*
X380838Y8319D01*
X380800Y8283D01*
X380759Y8250D01*
X380716Y8221D01*
X380671Y8194D01*
X380624Y8170D01*
X380576Y8150D01*
X380526Y8134D01*
X380475Y8121D01*
X380423Y8111D01*
X380371Y8106D01*
X380319Y8104D01*
X380267Y8106D01*
X380215Y8111D01*
X380163Y8121D01*
X380112Y8134D01*
X380063Y8150D01*
X380014Y8170D01*
X379967Y8194D01*
X379922Y8221D01*
X379879Y8250D01*
X379838Y8283D01*
X379800Y8319D01*
X379764Y8357D01*
X379731Y8398D01*
X379702Y8441D01*
X379675Y8486D01*
X379651Y8533D01*
X379631Y8581D01*
X379615Y8631D01*
X379602Y8682D01*
X379592Y8734D01*
X379587Y8786D01*
X379585Y8838D01*
X379587Y8890D01*
X379592Y8942D01*
X379602Y8994D01*
X379615Y9045D01*
X379631Y9095D01*
X379651Y9143D01*
X379675Y9190D01*
X379702Y9235D01*
X379731Y9278D01*
X379764Y9319D01*
X379800Y9357D01*
D12*
X345008Y18159D02*
X342314Y20853D01*
X343063Y21602D01*
X343063Y21601D02*
X343109Y21645D01*
X343159Y21686D01*
X343210Y21724D01*
X343264Y21758D01*
X343319Y21790D01*
X343377Y21818D01*
X343436Y21842D01*
X343496Y21863D01*
X343558Y21880D01*
X343620Y21894D01*
X343683Y21903D01*
X343747Y21909D01*
X343811Y21911D01*
X343875Y21909D01*
X343939Y21903D01*
X344002Y21894D01*
X344064Y21880D01*
X344126Y21863D01*
X344186Y21842D01*
X344245Y21818D01*
X344303Y21790D01*
X344358Y21758D01*
X344412Y21724D01*
X344463Y21686D01*
X344513Y21645D01*
X344559Y21601D01*
X344603Y21555D01*
X344644Y21505D01*
X344682Y21454D01*
X344716Y21400D01*
X344748Y21345D01*
X344776Y21287D01*
X344800Y21228D01*
X344821Y21168D01*
X344838Y21106D01*
X344852Y21044D01*
X344861Y20981D01*
X344867Y20917D01*
X344869Y20853D01*
X344867Y20789D01*
X344861Y20725D01*
X344852Y20662D01*
X344838Y20600D01*
X344821Y20538D01*
X344800Y20478D01*
X344776Y20419D01*
X344748Y20361D01*
X344716Y20306D01*
X344682Y20252D01*
X344644Y20201D01*
X344603Y20151D01*
X344559Y20105D01*
X343811Y19357D01*
X344709Y20255D02*
X346505Y19656D01*
X347056Y24249D02*
X347012Y24290D01*
X346966Y24328D01*
X346918Y24363D01*
X346867Y24395D01*
X346815Y24424D01*
X346760Y24450D01*
X346705Y24472D01*
X346648Y24490D01*
X346590Y24505D01*
X346531Y24516D01*
X346472Y24524D01*
X346412Y24528D01*
X346352Y24528D01*
X346292Y24524D01*
X346233Y24516D01*
X346174Y24505D01*
X346116Y24490D01*
X346059Y24472D01*
X346004Y24450D01*
X345949Y24424D01*
X345897Y24395D01*
X345846Y24363D01*
X345798Y24328D01*
X345752Y24290D01*
X345708Y24249D01*
X345709Y24249D02*
X345663Y24200D01*
X345619Y24149D01*
X345579Y24096D01*
X345541Y24040D01*
X345507Y23983D01*
X345476Y23923D01*
X345448Y23863D01*
X345423Y23800D01*
X345402Y23737D01*
X345385Y23672D01*
X345371Y23607D01*
X345360Y23541D01*
X345353Y23474D01*
X345350Y23407D01*
X345351Y23340D01*
X345355Y23274D01*
X345363Y23207D01*
X345374Y23141D01*
X345389Y23076D01*
X345408Y23012D01*
X345430Y22949D01*
X345455Y22887D01*
X345484Y22826D01*
X347356Y23500D02*
X347355Y23559D01*
X347352Y23618D01*
X347345Y23677D01*
X347334Y23735D01*
X347320Y23793D01*
X347303Y23849D01*
X347283Y23905D01*
X347259Y23959D01*
X347233Y24012D01*
X347203Y24063D01*
X347170Y24113D01*
X347135Y24160D01*
X347097Y24205D01*
X347056Y24248D01*
X347355Y23500D02*
X347580Y20731D01*
X349076Y22228D01*
X335484Y-31096D02*
X332790Y-33790D01*
X335484Y-31096D02*
X336232Y-31844D01*
X336232Y-31845D02*
X336276Y-31891D01*
X336317Y-31940D01*
X336355Y-31992D01*
X336389Y-32046D01*
X336421Y-32101D01*
X336449Y-32159D01*
X336473Y-32218D01*
X336494Y-32278D01*
X336511Y-32340D01*
X336525Y-32402D01*
X336534Y-32465D01*
X336540Y-32529D01*
X336542Y-32593D01*
X336540Y-32657D01*
X336534Y-32721D01*
X336525Y-32784D01*
X336511Y-32846D01*
X336494Y-32908D01*
X336473Y-32968D01*
X336449Y-33027D01*
X336421Y-33085D01*
X336389Y-33140D01*
X336355Y-33194D01*
X336317Y-33245D01*
X336276Y-33295D01*
X336232Y-33341D01*
X336186Y-33385D01*
X336136Y-33426D01*
X336085Y-33464D01*
X336031Y-33498D01*
X335976Y-33530D01*
X335918Y-33558D01*
X335859Y-33582D01*
X335799Y-33603D01*
X335737Y-33620D01*
X335675Y-33634D01*
X335612Y-33643D01*
X335548Y-33649D01*
X335484Y-33651D01*
X335420Y-33649D01*
X335356Y-33643D01*
X335293Y-33634D01*
X335231Y-33620D01*
X335169Y-33603D01*
X335109Y-33582D01*
X335050Y-33558D01*
X334992Y-33530D01*
X334937Y-33498D01*
X334883Y-33464D01*
X334831Y-33426D01*
X334782Y-33385D01*
X334736Y-33341D01*
X333987Y-32593D01*
X334885Y-33491D02*
X334287Y-35287D01*
X337157Y-35763D02*
X338055Y-36661D01*
X337157Y-35763D02*
X337119Y-35722D01*
X337084Y-35680D01*
X337052Y-35635D01*
X337022Y-35587D01*
X336996Y-35539D01*
X336973Y-35488D01*
X336954Y-35436D01*
X336938Y-35383D01*
X336925Y-35329D01*
X336916Y-35275D01*
X336911Y-35219D01*
X336909Y-35164D01*
X336911Y-35109D01*
X336916Y-35053D01*
X336925Y-34999D01*
X336938Y-34945D01*
X336954Y-34892D01*
X336973Y-34840D01*
X336996Y-34789D01*
X337022Y-34740D01*
X337052Y-34693D01*
X337084Y-34648D01*
X337119Y-34606D01*
X337157Y-34565D01*
X337307Y-34416D01*
X337353Y-34372D01*
X337403Y-34331D01*
X337454Y-34293D01*
X337508Y-34259D01*
X337563Y-34227D01*
X337621Y-34199D01*
X337680Y-34175D01*
X337740Y-34154D01*
X337802Y-34137D01*
X337864Y-34123D01*
X337927Y-34114D01*
X337991Y-34108D01*
X338055Y-34106D01*
X338119Y-34108D01*
X338183Y-34114D01*
X338246Y-34123D01*
X338308Y-34137D01*
X338370Y-34154D01*
X338430Y-34175D01*
X338489Y-34199D01*
X338547Y-34227D01*
X338602Y-34259D01*
X338656Y-34293D01*
X338707Y-34331D01*
X338757Y-34372D01*
X338803Y-34416D01*
X338847Y-34462D01*
X338888Y-34512D01*
X338926Y-34563D01*
X338960Y-34617D01*
X338992Y-34672D01*
X339020Y-34730D01*
X339044Y-34789D01*
X339065Y-34849D01*
X339082Y-34911D01*
X339096Y-34973D01*
X339105Y-35036D01*
X339111Y-35100D01*
X339113Y-35164D01*
X339111Y-35228D01*
X339105Y-35292D01*
X339096Y-35355D01*
X339082Y-35417D01*
X339065Y-35479D01*
X339044Y-35539D01*
X339020Y-35598D01*
X338992Y-35656D01*
X338960Y-35711D01*
X338926Y-35765D01*
X338888Y-35816D01*
X338847Y-35866D01*
X338803Y-35912D01*
X338804Y-35912D02*
X338055Y-36661D01*
X338055Y-36660D02*
X337997Y-36716D01*
X337936Y-36769D01*
X337873Y-36818D01*
X337807Y-36865D01*
X337739Y-36909D01*
X337669Y-36949D01*
X337598Y-36986D01*
X337524Y-37019D01*
X337450Y-37049D01*
X337373Y-37076D01*
X337296Y-37098D01*
X337218Y-37117D01*
X337139Y-37133D01*
X337059Y-37144D01*
X336979Y-37152D01*
X336898Y-37156D01*
X336818Y-37156D01*
X336737Y-37152D01*
X336657Y-37144D01*
X336577Y-37133D01*
X336498Y-37117D01*
X336420Y-37098D01*
X336343Y-37076D01*
X336266Y-37049D01*
X336192Y-37019D01*
X336118Y-36986D01*
X336047Y-36949D01*
X335977Y-36909D01*
X335909Y-36865D01*
X335843Y-36818D01*
X335780Y-36769D01*
X335719Y-36716D01*
X335661Y-36660D01*
D11*
X358920Y86155D02*
X329956Y116570D01*
X352049Y137609D02*
X381013Y107194D01*
D19*
X334908Y106602D02*
X330126Y102048D01*
X334908Y106602D02*
X336173Y105274D01*
X336173Y105273D02*
X336230Y105210D01*
X336284Y105145D01*
X336335Y105077D01*
X336383Y105007D01*
X336427Y104935D01*
X336469Y104861D01*
X336506Y104785D01*
X336540Y104708D01*
X336571Y104629D01*
X336598Y104548D01*
X336621Y104467D01*
X336640Y104384D01*
X336655Y104301D01*
X336667Y104217D01*
X336675Y104133D01*
X336679Y104048D01*
X336678Y103963D01*
X336674Y103879D01*
X336666Y103794D01*
X336655Y103710D01*
X336639Y103627D01*
X336619Y103545D01*
X336596Y103463D01*
X336569Y103383D01*
X336538Y103304D01*
X336504Y103226D01*
X336466Y103151D01*
X336425Y103077D01*
X336380Y103005D01*
X336332Y102935D01*
X336281Y102867D01*
X336227Y102802D01*
X336170Y102740D01*
X336110Y102680D01*
X336047Y102623D01*
X335982Y102569D01*
X335914Y102518D01*
X335844Y102470D01*
X335772Y102426D01*
X335698Y102384D01*
X335622Y102347D01*
X335545Y102313D01*
X335466Y102282D01*
X335385Y102255D01*
X335304Y102232D01*
X335221Y102213D01*
X335138Y102198D01*
X335054Y102186D01*
X334970Y102178D01*
X334885Y102174D01*
X334800Y102175D01*
X334716Y102179D01*
X334631Y102187D01*
X334547Y102198D01*
X334464Y102214D01*
X334382Y102234D01*
X334300Y102257D01*
X334220Y102284D01*
X334141Y102315D01*
X334063Y102349D01*
X333988Y102387D01*
X333914Y102428D01*
X333842Y102473D01*
X333772Y102521D01*
X333704Y102572D01*
X333639Y102626D01*
X333577Y102683D01*
X333517Y102743D01*
X333516Y102743D02*
X332251Y104072D01*
X333769Y102478D02*
X332656Y99391D01*
X335301Y96613D02*
X337325Y94488D01*
X335301Y96613D02*
X340083Y101167D01*
X342107Y99042D01*
X339476Y97549D02*
X337958Y99143D01*
X340838Y90799D02*
X340891Y90746D01*
X340946Y90696D01*
X341003Y90649D01*
X341063Y90605D01*
X341126Y90564D01*
X341190Y90527D01*
X341256Y90492D01*
X341323Y90461D01*
X341392Y90434D01*
X341463Y90410D01*
X341534Y90390D01*
X341607Y90373D01*
X341680Y90360D01*
X341754Y90350D01*
X341828Y90345D01*
X341902Y90343D01*
X341977Y90345D01*
X342051Y90351D01*
X342125Y90360D01*
X342198Y90373D01*
X342270Y90390D01*
X342342Y90411D01*
X342412Y90435D01*
X342481Y90462D01*
X342549Y90494D01*
X342615Y90528D01*
X342679Y90566D01*
X342741Y90607D01*
X342801Y90651D01*
X342858Y90698D01*
X342913Y90748D01*
X340838Y90798D02*
X340763Y90880D01*
X340691Y90965D01*
X340621Y91052D01*
X340555Y91141D01*
X340493Y91233D01*
X340433Y91327D01*
X340377Y91423D01*
X340325Y91521D01*
X340276Y91621D01*
X340230Y91723D01*
X340189Y91826D01*
X340151Y91931D01*
X340116Y92037D01*
X340086Y92144D01*
X340059Y92252D01*
X340037Y92361D01*
X340018Y92470D01*
X340003Y92581D01*
X339993Y92691D01*
X339986Y92802D01*
X339983Y92914D01*
X339984Y93025D01*
X343166Y95802D02*
X343221Y95852D01*
X343278Y95899D01*
X343338Y95943D01*
X343400Y95984D01*
X343464Y96022D01*
X343530Y96056D01*
X343598Y96088D01*
X343667Y96115D01*
X343737Y96139D01*
X343809Y96160D01*
X343881Y96177D01*
X343954Y96190D01*
X344028Y96199D01*
X344102Y96205D01*
X344177Y96207D01*
X344251Y96205D01*
X344325Y96200D01*
X344399Y96190D01*
X344472Y96177D01*
X344545Y96160D01*
X344616Y96140D01*
X344687Y96116D01*
X344756Y96089D01*
X344823Y96058D01*
X344889Y96023D01*
X344953Y95986D01*
X345016Y95945D01*
X345076Y95901D01*
X345133Y95854D01*
X345188Y95804D01*
X345241Y95751D01*
X345241Y95752D02*
X345311Y95675D01*
X345379Y95596D01*
X345443Y95514D01*
X345504Y95430D01*
X345562Y95343D01*
X345617Y95254D01*
X345668Y95164D01*
X345716Y95071D01*
X345760Y94977D01*
X345801Y94881D01*
X345838Y94784D01*
X345872Y94685D01*
X345901Y94585D01*
X345927Y94484D01*
X345949Y94382D01*
X345967Y94280D01*
X345981Y94177D01*
X342742Y94385D02*
X342727Y94458D01*
X342715Y94530D01*
X342708Y94604D01*
X342704Y94677D01*
X342703Y94751D01*
X342706Y94825D01*
X342713Y94898D01*
X342724Y94971D01*
X342738Y95043D01*
X342755Y95115D01*
X342777Y95186D01*
X342801Y95255D01*
X342829Y95323D01*
X342860Y95390D01*
X342895Y95455D01*
X342933Y95518D01*
X342974Y95580D01*
X343018Y95639D01*
X343064Y95696D01*
X343114Y95751D01*
X343166Y95803D01*
X343337Y92165D02*
X343352Y92092D01*
X343364Y92020D01*
X343371Y91946D01*
X343375Y91873D01*
X343376Y91799D01*
X343373Y91725D01*
X343366Y91652D01*
X343355Y91579D01*
X343341Y91507D01*
X343324Y91435D01*
X343302Y91364D01*
X343278Y91295D01*
X343250Y91227D01*
X343219Y91160D01*
X343184Y91095D01*
X343146Y91032D01*
X343105Y90970D01*
X343062Y90911D01*
X343015Y90854D01*
X342965Y90799D01*
X342913Y90747D01*
X343337Y92165D02*
X342742Y94385D01*
X344381Y87078D02*
X346405Y84952D01*
X344381Y87078D02*
X349164Y91632D01*
X351188Y89506D01*
X348556Y88014D02*
X347038Y89608D01*
X354280Y86260D02*
X349497Y81705D01*
X353014Y87588D02*
X355545Y84931D01*
X336906Y-69188D02*
X352639Y-84921D01*
X377388Y-109670D02*
X393121Y-125403D01*
X387818Y-130706D01*
X363069Y-155455D02*
X357766Y-160758D01*
X301551Y-104543D01*
X306854Y-99240D01*
X331603Y-74491D02*
X336906Y-69188D01*
X304533Y-182656D02*
X320267Y-198390D01*
X279785Y-157908D02*
X264052Y-142175D01*
X269355Y-136871D01*
X294104Y-112123D02*
X299407Y-106819D01*
X355622Y-163034D01*
X350319Y-168338D01*
X325570Y-193086D02*
X320267Y-198390D01*
D25*
X57813Y950D02*
X57815Y1013D01*
X57821Y1075D01*
X57831Y1137D01*
X57844Y1199D01*
X57862Y1259D01*
X57883Y1318D01*
X57908Y1376D01*
X57937Y1432D01*
X57969Y1486D01*
X58004Y1538D01*
X58042Y1587D01*
X58084Y1635D01*
X58128Y1679D01*
X58176Y1721D01*
X58225Y1759D01*
X58277Y1794D01*
X58331Y1826D01*
X58387Y1855D01*
X58445Y1880D01*
X58504Y1901D01*
X58564Y1919D01*
X58626Y1932D01*
X58688Y1942D01*
X58750Y1948D01*
X58813Y1950D01*
X58876Y1948D01*
X58938Y1942D01*
X59000Y1932D01*
X59062Y1919D01*
X59122Y1901D01*
X59181Y1880D01*
X59239Y1855D01*
X59295Y1826D01*
X59349Y1794D01*
X59401Y1759D01*
X59450Y1721D01*
X59498Y1679D01*
X59542Y1635D01*
X59584Y1587D01*
X59622Y1538D01*
X59657Y1486D01*
X59689Y1432D01*
X59718Y1376D01*
X59743Y1318D01*
X59764Y1259D01*
X59782Y1199D01*
X59795Y1137D01*
X59805Y1075D01*
X59811Y1013D01*
X59813Y950D01*
X59811Y887D01*
X59805Y825D01*
X59795Y763D01*
X59782Y701D01*
X59764Y641D01*
X59743Y582D01*
X59718Y524D01*
X59689Y468D01*
X59657Y414D01*
X59622Y362D01*
X59584Y313D01*
X59542Y265D01*
X59498Y221D01*
X59450Y179D01*
X59401Y141D01*
X59349Y106D01*
X59295Y74D01*
X59239Y45D01*
X59181Y20D01*
X59122Y-1D01*
X59062Y-19D01*
X59000Y-32D01*
X58938Y-42D01*
X58876Y-48D01*
X58813Y-50D01*
X58750Y-48D01*
X58688Y-42D01*
X58626Y-32D01*
X58564Y-19D01*
X58504Y-1D01*
X58445Y20D01*
X58387Y45D01*
X58331Y74D01*
X58277Y106D01*
X58225Y141D01*
X58176Y179D01*
X58128Y221D01*
X58084Y265D01*
X58042Y313D01*
X58004Y362D01*
X57969Y414D01*
X57937Y468D01*
X57908Y524D01*
X57883Y582D01*
X57862Y641D01*
X57844Y701D01*
X57831Y763D01*
X57821Y825D01*
X57815Y887D01*
X57813Y950D01*
D13*
X9313Y18950D02*
X9313Y-57050D01*
X34813Y18950D02*
X38813Y18950D01*
X38813Y-57050D02*
X34813Y-57050D01*
X12813Y18950D02*
X9813Y18950D01*
X9813Y-57050D02*
X12813Y-57050D01*
D15*
X62860Y7222D02*
X71947Y7222D01*
X71947Y7221D02*
X72046Y7219D01*
X72146Y7213D01*
X72245Y7204D01*
X72343Y7191D01*
X72441Y7174D01*
X72539Y7153D01*
X72635Y7128D01*
X72730Y7100D01*
X72824Y7068D01*
X72917Y7033D01*
X73009Y6994D01*
X73099Y6951D01*
X73187Y6906D01*
X73274Y6856D01*
X73358Y6804D01*
X73441Y6748D01*
X73521Y6690D01*
X73599Y6628D01*
X73674Y6563D01*
X73747Y6495D01*
X73817Y6425D01*
X73885Y6352D01*
X73950Y6277D01*
X74012Y6199D01*
X74070Y6119D01*
X74126Y6036D01*
X74178Y5952D01*
X74228Y5865D01*
X74273Y5777D01*
X74316Y5687D01*
X74355Y5595D01*
X74390Y5502D01*
X74422Y5408D01*
X74450Y5313D01*
X74475Y5217D01*
X74496Y5119D01*
X74513Y5021D01*
X74526Y4923D01*
X74535Y4824D01*
X74541Y4724D01*
X74543Y4625D01*
X74544Y4625D02*
X74544Y3327D01*
X65456Y12495D02*
X62860Y15741D01*
X74544Y15741D01*
X74544Y18986D02*
X74544Y12495D01*
D13*
X235330Y-115901D02*
X260078Y-140650D01*
X334325Y-66403D02*
X309576Y-41655D01*
D26*
X274062Y-136159D02*
X274064Y-136096D01*
X274070Y-136034D01*
X274080Y-135972D01*
X274093Y-135910D01*
X274111Y-135850D01*
X274132Y-135791D01*
X274157Y-135733D01*
X274186Y-135677D01*
X274218Y-135623D01*
X274253Y-135571D01*
X274291Y-135522D01*
X274333Y-135474D01*
X274377Y-135430D01*
X274425Y-135388D01*
X274474Y-135350D01*
X274526Y-135315D01*
X274580Y-135283D01*
X274636Y-135254D01*
X274694Y-135229D01*
X274753Y-135208D01*
X274813Y-135190D01*
X274875Y-135177D01*
X274937Y-135167D01*
X274999Y-135161D01*
X275062Y-135159D01*
X275125Y-135161D01*
X275187Y-135167D01*
X275249Y-135177D01*
X275311Y-135190D01*
X275371Y-135208D01*
X275430Y-135229D01*
X275488Y-135254D01*
X275544Y-135283D01*
X275598Y-135315D01*
X275650Y-135350D01*
X275699Y-135388D01*
X275747Y-135430D01*
X275791Y-135474D01*
X275833Y-135522D01*
X275871Y-135571D01*
X275906Y-135623D01*
X275938Y-135677D01*
X275967Y-135733D01*
X275992Y-135791D01*
X276013Y-135850D01*
X276031Y-135910D01*
X276044Y-135972D01*
X276054Y-136034D01*
X276060Y-136096D01*
X276062Y-136159D01*
X276060Y-136222D01*
X276054Y-136284D01*
X276044Y-136346D01*
X276031Y-136408D01*
X276013Y-136468D01*
X275992Y-136527D01*
X275967Y-136585D01*
X275938Y-136641D01*
X275906Y-136695D01*
X275871Y-136747D01*
X275833Y-136796D01*
X275791Y-136844D01*
X275747Y-136888D01*
X275699Y-136930D01*
X275650Y-136968D01*
X275598Y-137003D01*
X275544Y-137035D01*
X275488Y-137064D01*
X275430Y-137089D01*
X275371Y-137110D01*
X275311Y-137128D01*
X275249Y-137141D01*
X275187Y-137151D01*
X275125Y-137157D01*
X275062Y-137159D01*
X274999Y-137157D01*
X274937Y-137151D01*
X274875Y-137141D01*
X274813Y-137128D01*
X274753Y-137110D01*
X274694Y-137089D01*
X274636Y-137064D01*
X274580Y-137035D01*
X274526Y-137003D01*
X274474Y-136968D01*
X274425Y-136930D01*
X274377Y-136888D01*
X274333Y-136844D01*
X274291Y-136796D01*
X274253Y-136747D01*
X274218Y-136695D01*
X274186Y-136641D01*
X274157Y-136585D01*
X274132Y-136527D01*
X274111Y-136468D01*
X274093Y-136408D01*
X274080Y-136346D01*
X274070Y-136284D01*
X274064Y-136222D01*
X274062Y-136159D01*
D13*
X260078Y-140650D02*
X334325Y-66403D01*
X309576Y-41655D02*
X235330Y-115901D01*
X329807Y-87312D02*
X336095Y-93600D01*
X336096Y-93599D02*
X336165Y-93671D01*
X336231Y-93746D01*
X336294Y-93823D01*
X336355Y-93902D01*
X336412Y-93984D01*
X336466Y-94068D01*
X336516Y-94154D01*
X336563Y-94242D01*
X336607Y-94332D01*
X336647Y-94424D01*
X336683Y-94517D01*
X336716Y-94611D01*
X336745Y-94706D01*
X336770Y-94803D01*
X336791Y-94900D01*
X336809Y-94999D01*
X336822Y-95097D01*
X336832Y-95197D01*
X336838Y-95296D01*
X336840Y-95396D01*
X336838Y-95496D01*
X336832Y-95595D01*
X336822Y-95695D01*
X336809Y-95794D01*
X336791Y-95892D01*
X336770Y-95989D01*
X336745Y-96086D01*
X336716Y-96181D01*
X336683Y-96276D01*
X336647Y-96368D01*
X336607Y-96460D01*
X336563Y-96550D01*
X336516Y-96638D01*
X336466Y-96724D01*
X336412Y-96808D01*
X336355Y-96890D01*
X336294Y-96969D01*
X336231Y-97046D01*
X336165Y-97121D01*
X336096Y-97193D01*
X336095Y-97193D02*
X335197Y-98091D01*
X336103Y-81016D02*
X336180Y-80942D01*
X336260Y-80871D01*
X336342Y-80802D01*
X336427Y-80737D01*
X336514Y-80676D01*
X336604Y-80617D01*
X336695Y-80562D01*
X336789Y-80510D01*
X336884Y-80462D01*
X336981Y-80417D01*
X337080Y-80377D01*
X337180Y-80339D01*
X337282Y-80306D01*
X337384Y-80276D01*
X337488Y-80251D01*
X337593Y-80229D01*
X337698Y-80211D01*
X337804Y-80197D01*
X337910Y-80187D01*
X338017Y-80181D01*
X338124Y-80179D01*
X338231Y-80181D01*
X338338Y-80187D01*
X338444Y-80197D01*
X338550Y-80211D01*
X338655Y-80229D01*
X338760Y-80251D01*
X338864Y-80276D01*
X338966Y-80306D01*
X339068Y-80339D01*
X339168Y-80377D01*
X339267Y-80417D01*
X339364Y-80462D01*
X339459Y-80510D01*
X339553Y-80562D01*
X339645Y-80617D01*
X339734Y-80676D01*
X339821Y-80737D01*
X339906Y-80803D01*
X339988Y-80871D01*
X340068Y-80942D01*
X340145Y-81016D01*
X336103Y-81015D02*
X336020Y-81101D01*
X335941Y-81188D01*
X335864Y-81278D01*
X335790Y-81371D01*
X335719Y-81466D01*
X335652Y-81563D01*
X335587Y-81662D01*
X335526Y-81764D01*
X335468Y-81867D01*
X335414Y-81972D01*
X335362Y-82079D01*
X335315Y-82187D01*
X335270Y-82297D01*
X335230Y-82408D01*
X335193Y-82521D01*
X335160Y-82634D01*
X335130Y-82749D01*
X335104Y-82865D01*
X335082Y-82981D01*
X335063Y-83098D01*
X335048Y-83215D01*
X335038Y-83333D01*
X335031Y-83451D01*
X335027Y-83570D01*
X335028Y-83688D01*
X335032Y-83807D01*
X335040Y-83925D01*
X335052Y-84042D01*
X335068Y-84160D01*
X335088Y-84277D01*
X335111Y-84393D01*
X335138Y-84508D01*
X335169Y-84622D01*
X335203Y-84736D01*
X335241Y-84848D01*
X335283Y-84959D01*
X335328Y-85068D01*
X335377Y-85176D01*
X335429Y-85282D01*
X341043Y-83262D02*
X341044Y-83154D01*
X341041Y-83046D01*
X341034Y-82938D01*
X341023Y-82830D01*
X341009Y-82723D01*
X340991Y-82617D01*
X340969Y-82511D01*
X340943Y-82406D01*
X340914Y-82302D01*
X340881Y-82199D01*
X340844Y-82097D01*
X340804Y-81997D01*
X340760Y-81898D01*
X340713Y-81801D01*
X340663Y-81705D01*
X340609Y-81611D01*
X340552Y-81520D01*
X340491Y-81430D01*
X340428Y-81342D01*
X340362Y-81257D01*
X340292Y-81174D01*
X340220Y-81094D01*
X340145Y-81016D01*
X341044Y-83262D02*
X341717Y-91571D01*
X346209Y-87079D01*
M02*
