G04 EAGLE Gerber RS-274X export*
G75*
%MOMM*%
%FSLAX34Y34*%
%LPD*%
%INSilkscreen Bottom*%
%IPPOS*%
%AMOC8*
5,1,8,0,0,1.08239X$1,22.5*%
G01*
%ADD10C,0.203200*%
%ADD11C,0.076200*%


D10*
X172794Y77325D02*
X172794Y119275D01*
X172244Y104775D02*
X172086Y104773D01*
X171927Y104767D01*
X171769Y104757D01*
X171612Y104743D01*
X171454Y104726D01*
X171298Y104704D01*
X171141Y104679D01*
X170986Y104649D01*
X170831Y104616D01*
X170677Y104579D01*
X170524Y104538D01*
X170372Y104493D01*
X170222Y104444D01*
X170072Y104392D01*
X169924Y104336D01*
X169777Y104276D01*
X169632Y104213D01*
X169489Y104146D01*
X169347Y104076D01*
X169207Y104002D01*
X169069Y103924D01*
X168933Y103843D01*
X168799Y103759D01*
X168667Y103672D01*
X168537Y103581D01*
X168410Y103487D01*
X168285Y103390D01*
X168162Y103289D01*
X168042Y103186D01*
X167925Y103080D01*
X167810Y102971D01*
X167698Y102859D01*
X167589Y102744D01*
X167483Y102627D01*
X167380Y102507D01*
X167279Y102384D01*
X167182Y102259D01*
X167088Y102132D01*
X166997Y102002D01*
X166910Y101870D01*
X166826Y101736D01*
X166745Y101600D01*
X166667Y101462D01*
X166593Y101322D01*
X166523Y101180D01*
X166456Y101037D01*
X166393Y100892D01*
X166333Y100745D01*
X166277Y100597D01*
X166225Y100447D01*
X166176Y100297D01*
X166131Y100145D01*
X166090Y99992D01*
X166053Y99838D01*
X166020Y99683D01*
X165990Y99528D01*
X165965Y99371D01*
X165943Y99215D01*
X165926Y99057D01*
X165912Y98900D01*
X165902Y98742D01*
X165896Y98583D01*
X165894Y98425D01*
X165896Y98267D01*
X165902Y98108D01*
X165912Y97950D01*
X165926Y97793D01*
X165943Y97635D01*
X165965Y97479D01*
X165990Y97322D01*
X166020Y97167D01*
X166053Y97012D01*
X166090Y96858D01*
X166131Y96705D01*
X166176Y96553D01*
X166225Y96403D01*
X166277Y96253D01*
X166333Y96105D01*
X166393Y95958D01*
X166456Y95813D01*
X166523Y95670D01*
X166593Y95528D01*
X166667Y95388D01*
X166745Y95250D01*
X166826Y95114D01*
X166910Y94980D01*
X166997Y94848D01*
X167088Y94718D01*
X167182Y94591D01*
X167279Y94466D01*
X167380Y94343D01*
X167483Y94223D01*
X167589Y94106D01*
X167698Y93991D01*
X167810Y93879D01*
X167925Y93770D01*
X168042Y93664D01*
X168162Y93561D01*
X168285Y93460D01*
X168410Y93363D01*
X168537Y93269D01*
X168667Y93178D01*
X168799Y93091D01*
X168933Y93007D01*
X169069Y92926D01*
X169207Y92848D01*
X169347Y92774D01*
X169489Y92704D01*
X169632Y92637D01*
X169777Y92574D01*
X169924Y92514D01*
X170072Y92458D01*
X170222Y92406D01*
X170372Y92357D01*
X170524Y92312D01*
X170677Y92271D01*
X170831Y92234D01*
X170986Y92201D01*
X171141Y92171D01*
X171298Y92146D01*
X171454Y92124D01*
X171612Y92107D01*
X171769Y92093D01*
X171927Y92083D01*
X172086Y92077D01*
X172244Y92075D01*
D11*
X145923Y140081D02*
X145923Y147447D01*
X143877Y147447D01*
X143788Y147445D01*
X143699Y147439D01*
X143610Y147429D01*
X143522Y147416D01*
X143434Y147399D01*
X143347Y147377D01*
X143262Y147352D01*
X143177Y147324D01*
X143094Y147291D01*
X143012Y147255D01*
X142932Y147216D01*
X142854Y147173D01*
X142778Y147127D01*
X142703Y147077D01*
X142631Y147024D01*
X142562Y146968D01*
X142495Y146909D01*
X142430Y146848D01*
X142369Y146783D01*
X142310Y146716D01*
X142254Y146647D01*
X142201Y146575D01*
X142151Y146500D01*
X142105Y146424D01*
X142062Y146346D01*
X142023Y146266D01*
X141987Y146184D01*
X141954Y146101D01*
X141926Y146016D01*
X141901Y145931D01*
X141879Y145844D01*
X141862Y145756D01*
X141849Y145668D01*
X141839Y145579D01*
X141833Y145490D01*
X141831Y145401D01*
X141833Y145312D01*
X141839Y145223D01*
X141849Y145134D01*
X141862Y145046D01*
X141879Y144958D01*
X141901Y144871D01*
X141926Y144786D01*
X141954Y144701D01*
X141987Y144618D01*
X142023Y144536D01*
X142062Y144456D01*
X142105Y144378D01*
X142151Y144302D01*
X142201Y144227D01*
X142254Y144155D01*
X142310Y144086D01*
X142369Y144019D01*
X142430Y143954D01*
X142495Y143893D01*
X142562Y143834D01*
X142631Y143778D01*
X142703Y143725D01*
X142778Y143675D01*
X142854Y143629D01*
X142932Y143586D01*
X143012Y143547D01*
X143094Y143511D01*
X143177Y143478D01*
X143262Y143450D01*
X143347Y143425D01*
X143434Y143403D01*
X143522Y143386D01*
X143610Y143373D01*
X143699Y143363D01*
X143788Y143357D01*
X143877Y143355D01*
X145923Y143355D01*
X136758Y140081D02*
X136680Y140083D01*
X136602Y140088D01*
X136525Y140098D01*
X136448Y140111D01*
X136372Y140127D01*
X136297Y140147D01*
X136223Y140171D01*
X136150Y140198D01*
X136078Y140229D01*
X136008Y140263D01*
X135940Y140300D01*
X135873Y140341D01*
X135808Y140385D01*
X135746Y140431D01*
X135686Y140481D01*
X135628Y140533D01*
X135573Y140588D01*
X135521Y140646D01*
X135471Y140706D01*
X135425Y140768D01*
X135381Y140833D01*
X135340Y140899D01*
X135303Y140968D01*
X135269Y141038D01*
X135238Y141110D01*
X135211Y141183D01*
X135187Y141257D01*
X135167Y141332D01*
X135151Y141408D01*
X135138Y141485D01*
X135128Y141562D01*
X135123Y141640D01*
X135121Y141718D01*
X136758Y140081D02*
X136872Y140083D01*
X136985Y140088D01*
X137099Y140098D01*
X137212Y140111D01*
X137324Y140128D01*
X137436Y140148D01*
X137547Y140172D01*
X137658Y140200D01*
X137767Y140231D01*
X137875Y140266D01*
X137982Y140305D01*
X138088Y140347D01*
X138192Y140392D01*
X138295Y140441D01*
X138396Y140494D01*
X138495Y140549D01*
X138593Y140608D01*
X138688Y140670D01*
X138781Y140735D01*
X138873Y140803D01*
X138961Y140874D01*
X139048Y140948D01*
X139132Y141025D01*
X139213Y141104D01*
X139009Y145810D02*
X139007Y145888D01*
X139002Y145966D01*
X138992Y146043D01*
X138979Y146120D01*
X138963Y146196D01*
X138943Y146271D01*
X138919Y146345D01*
X138892Y146418D01*
X138861Y146490D01*
X138827Y146560D01*
X138790Y146629D01*
X138749Y146695D01*
X138705Y146760D01*
X138659Y146822D01*
X138609Y146882D01*
X138557Y146940D01*
X138502Y146995D01*
X138444Y147047D01*
X138384Y147097D01*
X138322Y147143D01*
X138257Y147187D01*
X138191Y147228D01*
X138122Y147265D01*
X138052Y147299D01*
X137980Y147330D01*
X137907Y147357D01*
X137833Y147381D01*
X137758Y147401D01*
X137682Y147417D01*
X137605Y147430D01*
X137528Y147440D01*
X137450Y147445D01*
X137372Y147447D01*
X137262Y147445D01*
X137153Y147439D01*
X137043Y147429D01*
X136935Y147416D01*
X136826Y147398D01*
X136719Y147377D01*
X136612Y147351D01*
X136506Y147322D01*
X136401Y147290D01*
X136298Y147253D01*
X136196Y147213D01*
X136095Y147169D01*
X135996Y147121D01*
X135899Y147071D01*
X135804Y147016D01*
X135711Y146958D01*
X135620Y146897D01*
X135531Y146833D01*
X138190Y144377D02*
X138257Y144419D01*
X138322Y144463D01*
X138384Y144511D01*
X138444Y144561D01*
X138502Y144614D01*
X138557Y144670D01*
X138609Y144729D01*
X138659Y144789D01*
X138706Y144853D01*
X138749Y144918D01*
X138790Y144985D01*
X138827Y145054D01*
X138861Y145125D01*
X138892Y145197D01*
X138919Y145271D01*
X138943Y145345D01*
X138963Y145421D01*
X138979Y145498D01*
X138992Y145575D01*
X139002Y145653D01*
X139007Y145732D01*
X139009Y145810D01*
X135939Y143150D02*
X135873Y143109D01*
X135808Y143064D01*
X135746Y143017D01*
X135686Y142966D01*
X135628Y142913D01*
X135573Y142857D01*
X135520Y142799D01*
X135471Y142738D01*
X135424Y142675D01*
X135381Y142610D01*
X135340Y142543D01*
X135303Y142474D01*
X135269Y142403D01*
X135238Y142331D01*
X135211Y142257D01*
X135187Y142182D01*
X135167Y142107D01*
X135151Y142030D01*
X135138Y141953D01*
X135128Y141875D01*
X135123Y141796D01*
X135121Y141718D01*
X135939Y143150D02*
X138190Y144378D01*
X131847Y147447D02*
X131847Y140081D01*
X131847Y147447D02*
X129801Y147447D01*
X129712Y147445D01*
X129623Y147439D01*
X129534Y147429D01*
X129446Y147416D01*
X129358Y147399D01*
X129271Y147377D01*
X129186Y147352D01*
X129101Y147324D01*
X129018Y147291D01*
X128936Y147255D01*
X128856Y147216D01*
X128778Y147173D01*
X128702Y147127D01*
X128627Y147077D01*
X128555Y147024D01*
X128486Y146968D01*
X128419Y146909D01*
X128354Y146848D01*
X128293Y146783D01*
X128234Y146716D01*
X128178Y146647D01*
X128125Y146575D01*
X128075Y146500D01*
X128029Y146424D01*
X127986Y146346D01*
X127947Y146266D01*
X127911Y146184D01*
X127878Y146101D01*
X127850Y146016D01*
X127825Y145931D01*
X127803Y145844D01*
X127786Y145756D01*
X127773Y145668D01*
X127763Y145579D01*
X127757Y145490D01*
X127755Y145401D01*
X127757Y145312D01*
X127763Y145223D01*
X127773Y145134D01*
X127786Y145046D01*
X127803Y144958D01*
X127825Y144871D01*
X127850Y144786D01*
X127878Y144701D01*
X127911Y144618D01*
X127947Y144536D01*
X127986Y144456D01*
X128029Y144378D01*
X128075Y144302D01*
X128125Y144227D01*
X128178Y144155D01*
X128234Y144086D01*
X128293Y144019D01*
X128354Y143954D01*
X128419Y143893D01*
X128486Y143834D01*
X128555Y143778D01*
X128627Y143725D01*
X128702Y143675D01*
X128778Y143629D01*
X128856Y143586D01*
X128936Y143547D01*
X129018Y143511D01*
X129101Y143478D01*
X129186Y143450D01*
X129271Y143425D01*
X129358Y143403D01*
X129446Y143386D01*
X129534Y143373D01*
X129623Y143363D01*
X129712Y143357D01*
X129801Y143355D01*
X131847Y143355D01*
X129391Y143355D02*
X127755Y140081D01*
X124992Y140081D02*
X122537Y147447D01*
X120081Y140081D01*
X120695Y141923D02*
X124378Y141923D01*
X116945Y140081D02*
X116945Y147447D01*
X114490Y143355D01*
X112035Y147447D01*
X112035Y140081D01*
M02*
