G04 EAGLE Gerber RS-274X export*
G75*
%MOMM*%
%FSLAX34Y34*%
%LPD*%
%INSoldermask Top*%
%IPPOS*%
%AMOC8*
5,1,8,0,0,1.08239X$1,22.5*%
G01*
%ADD10C,2.349500*%
%ADD11R,0.863500X0.863500*%
%ADD12R,0.563500X0.563500*%
%ADD13C,0.202663*%
%ADD14R,2.349500X2.349500*%
%ADD15R,0.563500X0.563500*%
%ADD16C,0.101600*%
%ADD17R,4.572000X4.572000*%
%ADD18R,0.363500X0.723500*%
%ADD19R,0.863500X0.663500*%
%ADD20R,0.613500X1.263500*%
%ADD21R,0.600000X0.800000*%
%ADD22R,0.800000X0.500000*%
%ADD23R,0.350000X0.500000*%
%ADD24R,0.413500X0.763500*%
%ADD25R,0.923500X0.863500*%
%ADD26R,0.546100X0.546100*%
%ADD27R,0.500000X0.800000*%
%ADD28R,0.500000X0.350000*%
%ADD29R,0.663500X0.663500*%
%ADD30R,0.723900X1.028700*%
%ADD31R,0.263500X0.263500*%
%ADD32R,0.622300X0.673100*%
%ADD33R,0.663500X0.863500*%
%ADD34R,0.419100X0.393700*%
%ADD35R,1.181100X1.866900*%
%ADD36R,0.774700X1.816100*%
%ADD37R,1.181100X1.511300*%
%ADD38R,0.613500X0.313500*%
%ADD39R,1.163500X0.513500*%
%ADD40R,1.163500X1.163500*%
%ADD41R,0.363500X1.663500*%
%ADD42R,4.863500X3.263500*%
%ADD43R,1.463500X1.863500*%
%ADD44R,1.303500X1.563500*%
%ADD45R,0.538500X0.313500*%
%ADD46R,1.138500X1.063500*%
%ADD47R,1.063500X1.163500*%
%ADD48R,0.963500X0.963500*%
%ADD49R,1.063500X5.563500*%
%ADD50R,1.663500X3.063500*%
%ADD51R,1.413500X0.463500*%
%ADD52R,1.463500X1.663500*%
%ADD53R,1.963500X1.963500*%
%ADD54C,0.563500*%
%ADD55C,0.963500*%
%ADD56R,1.113500X1.113500*%
%ADD57C,1.113500*%
%ADD58C,0.616700*%

G36*
X190207Y-146166D02*
X190207Y-146166D01*
X190210Y-146167D01*
X190294Y-146130D01*
X191354Y-145069D01*
X191355Y-145066D01*
X191358Y-145065D01*
X191391Y-144980D01*
X191391Y-144273D01*
X191390Y-144271D01*
X191391Y-144269D01*
X191391Y-144268D01*
X191391Y-144267D01*
X191354Y-144184D01*
X189411Y-142241D01*
X189411Y-141638D01*
X192166Y-138884D01*
X192768Y-138884D01*
X194711Y-140827D01*
X194714Y-140828D01*
X194716Y-140831D01*
X194801Y-140864D01*
X195508Y-140864D01*
X195511Y-140862D01*
X195514Y-140863D01*
X195597Y-140827D01*
X196658Y-139766D01*
X196659Y-139763D01*
X196662Y-139762D01*
X196695Y-139677D01*
X196695Y-138970D01*
X196694Y-138968D01*
X196694Y-138967D01*
X196694Y-138965D01*
X196694Y-138964D01*
X196658Y-138880D01*
X190294Y-132516D01*
X190291Y-132515D01*
X190289Y-132512D01*
X190204Y-132479D01*
X189497Y-132479D01*
X189494Y-132481D01*
X189491Y-132480D01*
X189408Y-132516D01*
X183044Y-138880D01*
X183043Y-138883D01*
X183042Y-138884D01*
X183040Y-138885D01*
X183007Y-138970D01*
X183007Y-139677D01*
X183008Y-139680D01*
X183007Y-139683D01*
X183044Y-139766D01*
X189408Y-146130D01*
X189411Y-146131D01*
X189412Y-146134D01*
X189497Y-146167D01*
X190204Y-146167D01*
X190207Y-146166D01*
G37*
G36*
X77944Y120479D02*
X77944Y120479D01*
X77944Y120480D01*
X77944Y126380D01*
X77941Y126384D01*
X77940Y126384D01*
X73340Y126384D01*
X73336Y126381D01*
X73336Y126380D01*
X73336Y123488D01*
X73337Y123487D01*
X73337Y123485D01*
X76345Y120477D01*
X76347Y120477D01*
X76348Y120476D01*
X77940Y120476D01*
X77944Y120479D01*
G37*
G36*
X68434Y120477D02*
X68434Y120477D01*
X68435Y120477D01*
X71443Y123485D01*
X71443Y123487D01*
X71444Y123487D01*
X71444Y123488D01*
X71444Y126380D01*
X71441Y126384D01*
X71440Y126384D01*
X66840Y126384D01*
X66836Y126381D01*
X66836Y126380D01*
X66836Y120480D01*
X66839Y120476D01*
X66840Y120476D01*
X68432Y120476D01*
X68434Y120477D01*
G37*
G36*
X77944Y112379D02*
X77944Y112379D01*
X77944Y112380D01*
X77944Y118280D01*
X77941Y118284D01*
X77940Y118284D01*
X76348Y118284D01*
X76347Y118283D01*
X76345Y118283D01*
X73337Y115275D01*
X73337Y115273D01*
X73336Y115272D01*
X73336Y112380D01*
X73339Y112376D01*
X73340Y112376D01*
X77940Y112376D01*
X77944Y112379D01*
G37*
G36*
X71444Y112379D02*
X71444Y112379D01*
X71444Y112380D01*
X71444Y115272D01*
X71443Y115274D01*
X71443Y115275D01*
X68435Y118283D01*
X68433Y118283D01*
X68432Y118284D01*
X66840Y118284D01*
X66836Y118281D01*
X66836Y118280D01*
X66836Y112380D01*
X66839Y112376D01*
X66840Y112376D01*
X71440Y112376D01*
X71444Y112379D01*
G37*
G36*
X191057Y-111358D02*
X191057Y-111358D01*
X191059Y-111359D01*
X191142Y-111322D01*
X192557Y-109908D01*
X192558Y-109906D01*
X192560Y-109905D01*
X192576Y-109860D01*
X192594Y-109816D01*
X192593Y-109814D01*
X192594Y-109812D01*
X192557Y-109729D01*
X189728Y-106901D01*
X189726Y-106900D01*
X189725Y-106898D01*
X189681Y-106881D01*
X189637Y-106864D01*
X189635Y-106865D01*
X189633Y-106864D01*
X189550Y-106901D01*
X188135Y-108315D01*
X188135Y-108317D01*
X188133Y-108318D01*
X188116Y-108362D01*
X188099Y-108406D01*
X188099Y-108408D01*
X188099Y-108410D01*
X188135Y-108493D01*
X190964Y-111322D01*
X190966Y-111323D01*
X190967Y-111325D01*
X191011Y-111341D01*
X191055Y-111359D01*
X191057Y-111358D01*
G37*
D10*
X398463Y19050D03*
X222250Y173038D03*
X82550Y-160338D03*
D11*
X58724Y75184D03*
X73964Y75184D03*
D12*
G36*
X73983Y136963D02*
X78379Y140485D01*
X81901Y136089D01*
X77505Y132567D01*
X73983Y136963D01*
G37*
G36*
X66054Y130611D02*
X70450Y134133D01*
X73972Y129737D01*
X69576Y126215D01*
X66054Y130611D01*
G37*
G36*
X194193Y48605D02*
X190210Y44622D01*
X186227Y48605D01*
X190210Y52588D01*
X194193Y48605D01*
G37*
G36*
X201377Y55789D02*
X197394Y51806D01*
X193411Y55789D01*
X197394Y59772D01*
X201377Y55789D01*
G37*
D13*
X132656Y92264D02*
X128433Y96487D01*
X132656Y92264D02*
X131661Y91269D01*
X127438Y95492D01*
X128433Y96487D01*
X129735Y93195D02*
X131725Y93195D01*
X129799Y95121D02*
X127809Y95121D01*
X124898Y92952D02*
X129121Y88729D01*
X128126Y87734D01*
X123903Y91957D01*
X124898Y92952D01*
X126200Y89660D02*
X128190Y89660D01*
X126264Y91586D02*
X124274Y91586D01*
X121362Y89416D02*
X125585Y85193D01*
X124590Y84198D01*
X120367Y88421D01*
X121362Y89416D01*
X122664Y86124D02*
X124654Y86124D01*
X122728Y88050D02*
X120738Y88050D01*
X117827Y85881D02*
X122050Y81658D01*
X121055Y80663D01*
X116832Y84886D01*
X117827Y85881D01*
X119129Y82589D02*
X121119Y82589D01*
X119193Y84515D02*
X117203Y84515D01*
X114291Y82345D02*
X118514Y78122D01*
X117519Y77127D01*
X113296Y81350D01*
X114291Y82345D01*
X115593Y79053D02*
X117583Y79053D01*
X115657Y80979D02*
X113667Y80979D01*
X110756Y78810D02*
X114979Y74587D01*
X113984Y73592D01*
X109761Y77815D01*
X110756Y78810D01*
X112058Y75518D02*
X114048Y75518D01*
X112122Y77444D02*
X110132Y77444D01*
X114979Y67653D02*
X110756Y63430D01*
X109761Y64425D01*
X113984Y68648D01*
X114979Y67653D01*
X112682Y65356D02*
X110692Y65356D01*
X112618Y67282D02*
X114608Y67282D01*
X118514Y64118D02*
X114291Y59895D01*
X113296Y60890D01*
X117519Y65113D01*
X118514Y64118D01*
X116217Y61821D02*
X114227Y61821D01*
X116153Y63747D02*
X118143Y63747D01*
X122050Y60582D02*
X117827Y56359D01*
X116832Y57354D01*
X121055Y61577D01*
X122050Y60582D01*
X119753Y58285D02*
X117763Y58285D01*
X119689Y60211D02*
X121679Y60211D01*
X125585Y57047D02*
X121362Y52824D01*
X120367Y53819D01*
X124590Y58042D01*
X125585Y57047D01*
X123288Y54750D02*
X121298Y54750D01*
X123224Y56676D02*
X125214Y56676D01*
X129121Y53511D02*
X124898Y49288D01*
X123903Y50283D01*
X128126Y54506D01*
X129121Y53511D01*
X126824Y51214D02*
X124834Y51214D01*
X126760Y53140D02*
X128750Y53140D01*
X132656Y49976D02*
X128433Y45753D01*
X127438Y46748D01*
X131661Y50971D01*
X132656Y49976D01*
X130359Y47679D02*
X128369Y47679D01*
X130295Y49605D02*
X132285Y49605D01*
X137600Y49976D02*
X141823Y45753D01*
X137600Y49976D02*
X138595Y50971D01*
X142818Y46748D01*
X141823Y45753D01*
X141887Y47679D02*
X139897Y47679D01*
X139961Y49605D02*
X137971Y49605D01*
X141135Y53511D02*
X145358Y49288D01*
X141135Y53511D02*
X142130Y54506D01*
X146353Y50283D01*
X145358Y49288D01*
X145422Y51214D02*
X143432Y51214D01*
X143496Y53140D02*
X141506Y53140D01*
X144671Y57047D02*
X148894Y52824D01*
X144671Y57047D02*
X145666Y58042D01*
X149889Y53819D01*
X148894Y52824D01*
X148958Y54750D02*
X146968Y54750D01*
X147032Y56676D02*
X145042Y56676D01*
X148206Y60582D02*
X152429Y56359D01*
X148206Y60582D02*
X149201Y61577D01*
X153424Y57354D01*
X152429Y56359D01*
X152493Y58285D02*
X150503Y58285D01*
X150567Y60211D02*
X148577Y60211D01*
X151742Y64118D02*
X155965Y59895D01*
X151742Y64118D02*
X152737Y65113D01*
X156960Y60890D01*
X155965Y59895D01*
X156029Y61821D02*
X154039Y61821D01*
X154103Y63747D02*
X152113Y63747D01*
X157162Y65767D02*
X159410Y63519D01*
X157162Y65767D02*
X158158Y66763D01*
X160406Y64515D01*
X159410Y63519D01*
X159476Y65445D02*
X157484Y65445D01*
X155277Y74587D02*
X159500Y78810D01*
X160495Y77815D01*
X156272Y73592D01*
X155277Y74587D01*
X156208Y75518D02*
X158198Y75518D01*
X158134Y77444D02*
X160124Y77444D01*
X155965Y82345D02*
X151742Y78122D01*
X155965Y82345D02*
X156960Y81350D01*
X152737Y77127D01*
X151742Y78122D01*
X152673Y79053D02*
X154663Y79053D01*
X154599Y80979D02*
X156589Y80979D01*
X152429Y85881D02*
X148206Y81658D01*
X152429Y85881D02*
X153424Y84886D01*
X149201Y80663D01*
X148206Y81658D01*
X149137Y82589D02*
X151127Y82589D01*
X151063Y84515D02*
X153053Y84515D01*
X148894Y89416D02*
X144671Y85193D01*
X148894Y89416D02*
X149889Y88421D01*
X145666Y84198D01*
X144671Y85193D01*
X145602Y86124D02*
X147592Y86124D01*
X147528Y88050D02*
X149518Y88050D01*
X145358Y92952D02*
X141135Y88729D01*
X145358Y92952D02*
X146353Y91957D01*
X142130Y87734D01*
X141135Y88729D01*
X142066Y89660D02*
X144056Y89660D01*
X143992Y91586D02*
X145982Y91586D01*
X141823Y96487D02*
X137600Y92264D01*
X141823Y96487D02*
X142818Y95492D01*
X138595Y91269D01*
X137600Y92264D01*
X138531Y93195D02*
X140521Y93195D01*
X140457Y95121D02*
X142447Y95121D01*
D14*
G36*
X135128Y54508D02*
X118516Y71120D01*
X135128Y87732D01*
X151740Y71120D01*
X135128Y54508D01*
G37*
D15*
X99060Y58420D03*
X99060Y48260D03*
X88900Y58420D03*
X88900Y48260D03*
D16*
X195795Y66231D02*
X199670Y62356D01*
X195795Y66231D02*
X197138Y67574D01*
X201013Y63700D01*
X199670Y62356D01*
X199988Y63381D02*
X196820Y66549D01*
X199330Y69766D02*
X203205Y65892D01*
X199330Y69766D02*
X200674Y71110D01*
X204549Y67235D01*
X203205Y65892D01*
X203568Y66872D02*
X200356Y70084D01*
X202866Y73302D02*
X206741Y69427D01*
X202866Y73302D02*
X204209Y74645D01*
X208084Y70771D01*
X206741Y69427D01*
X207104Y70408D02*
X203891Y73620D01*
X206402Y76837D02*
X210276Y72963D01*
X206402Y76837D02*
X207745Y78181D01*
X211620Y74306D01*
X210276Y72963D01*
X210594Y73988D02*
X207427Y77155D01*
X209937Y80373D02*
X213812Y76498D01*
X209937Y80373D02*
X211281Y81716D01*
X215155Y77842D01*
X213812Y76498D01*
X214130Y77524D02*
X210962Y80691D01*
X213473Y83908D02*
X217347Y80034D01*
X213473Y83908D02*
X214816Y85252D01*
X218691Y81377D01*
X217347Y80034D01*
X217710Y81014D02*
X214498Y84227D01*
X217008Y87444D02*
X220883Y83569D01*
X217008Y87444D02*
X218352Y88787D01*
X222226Y84913D01*
X220883Y83569D01*
X221156Y84640D02*
X218033Y87762D01*
X220544Y90979D02*
X224418Y87105D01*
X220544Y90979D02*
X221887Y92323D01*
X225762Y88448D01*
X224418Y87105D01*
X224736Y88130D02*
X221569Y91298D01*
X224079Y94515D02*
X227954Y90640D01*
X224079Y94515D02*
X225423Y95858D01*
X229297Y91984D01*
X227954Y90640D01*
X228182Y91755D02*
X225105Y94833D01*
X227615Y98051D02*
X231489Y94176D01*
X227615Y98051D02*
X228958Y99394D01*
X232833Y95519D01*
X231489Y94176D01*
X231763Y95246D02*
X228640Y98369D01*
X231150Y101586D02*
X235025Y97711D01*
X231150Y101586D02*
X232494Y102930D01*
X236368Y99055D01*
X235025Y97711D01*
X235433Y98647D02*
X232176Y101904D01*
X234686Y105122D02*
X238560Y101247D01*
X234686Y105122D02*
X236029Y106465D01*
X239904Y102590D01*
X238560Y101247D01*
X238879Y102272D02*
X235711Y105440D01*
X236029Y109435D02*
X239904Y113310D01*
X236029Y109435D02*
X234686Y110778D01*
X238560Y114653D01*
X239904Y113310D01*
X238923Y113673D02*
X235711Y110460D01*
X232494Y112970D02*
X236368Y116845D01*
X232494Y112970D02*
X231150Y114314D01*
X235025Y118189D01*
X236368Y116845D01*
X235388Y117208D02*
X232176Y113996D01*
X228958Y116506D02*
X232833Y120381D01*
X228958Y116506D02*
X227615Y117849D01*
X231489Y121724D01*
X232833Y120381D01*
X231852Y120744D02*
X228640Y117531D01*
X225423Y120042D02*
X229297Y123916D01*
X225423Y120042D02*
X224079Y121385D01*
X227954Y125260D01*
X229297Y123916D01*
X228272Y124234D02*
X225105Y121067D01*
X221887Y123577D02*
X225762Y127452D01*
X221887Y123577D02*
X220544Y124921D01*
X224418Y128795D01*
X225762Y127452D01*
X224826Y127860D02*
X221569Y124602D01*
X218352Y127113D02*
X222226Y130987D01*
X218352Y127113D02*
X217008Y128456D01*
X220883Y132331D01*
X222226Y130987D01*
X221201Y131305D02*
X218033Y128138D01*
X214816Y130648D02*
X218691Y134523D01*
X214816Y130648D02*
X213473Y131992D01*
X217347Y135866D01*
X218691Y134523D01*
X217710Y134886D02*
X214498Y131673D01*
X211281Y134184D02*
X215155Y138058D01*
X211281Y134184D02*
X209937Y135527D01*
X213812Y139402D01*
X215155Y138058D01*
X214265Y138511D02*
X210962Y135209D01*
X207745Y137719D02*
X211620Y141594D01*
X207745Y137719D02*
X206402Y139063D01*
X210276Y142937D01*
X211620Y141594D01*
X210684Y142002D02*
X207427Y138745D01*
X204209Y141255D02*
X208084Y145129D01*
X204209Y141255D02*
X202866Y142598D01*
X206741Y146473D01*
X208084Y145129D01*
X207149Y145537D02*
X203891Y142280D01*
X200674Y144790D02*
X204549Y148665D01*
X200674Y144790D02*
X199330Y146134D01*
X203205Y150008D01*
X204549Y148665D01*
X203478Y148938D02*
X200356Y145816D01*
X197138Y148326D02*
X201013Y152200D01*
X197138Y148326D02*
X195795Y149669D01*
X199670Y153544D01*
X201013Y152200D01*
X199898Y152429D02*
X196820Y149351D01*
X192825Y149669D02*
X188950Y153544D01*
X192825Y149669D02*
X191482Y148326D01*
X187607Y152200D01*
X188950Y153544D01*
X188677Y152474D02*
X191800Y149351D01*
X189290Y146134D02*
X185415Y150008D01*
X189290Y146134D02*
X187946Y144790D01*
X184071Y148665D01*
X185415Y150008D01*
X185097Y148983D02*
X188264Y145816D01*
X185754Y142598D02*
X181879Y146473D01*
X185754Y142598D02*
X184411Y141255D01*
X180536Y145129D01*
X181879Y146473D01*
X181606Y145403D02*
X184729Y142280D01*
X182218Y139063D02*
X178389Y142982D01*
X182218Y139063D02*
X180875Y137719D01*
X177045Y141639D01*
X178389Y142982D01*
X178026Y141912D02*
X181193Y138745D01*
X178683Y135527D02*
X174808Y139402D01*
X178683Y135527D02*
X177339Y134184D01*
X173465Y138058D01*
X174808Y139402D01*
X174490Y138376D02*
X177658Y135209D01*
X175147Y131992D02*
X171273Y135866D01*
X175147Y131992D02*
X173804Y130648D01*
X169929Y134523D01*
X171273Y135866D01*
X170955Y134841D02*
X174122Y131673D01*
X171612Y128456D02*
X167737Y132331D01*
X171612Y128456D02*
X170268Y127113D01*
X166394Y130987D01*
X167737Y132331D01*
X167374Y131350D02*
X170587Y128138D01*
X168076Y124921D02*
X164202Y128795D01*
X168076Y124921D02*
X166733Y123577D01*
X162858Y127452D01*
X164202Y128795D01*
X163839Y127815D02*
X167051Y124602D01*
X164541Y121385D02*
X160666Y125260D01*
X164541Y121385D02*
X163197Y120042D01*
X159323Y123916D01*
X160666Y125260D01*
X160348Y124234D02*
X163515Y121067D01*
X161005Y117849D02*
X157131Y121724D01*
X161005Y117849D02*
X159662Y116506D01*
X155787Y120381D01*
X157131Y121724D01*
X156812Y120699D02*
X159980Y117531D01*
X157470Y114314D02*
X153595Y118189D01*
X157470Y114314D02*
X156126Y112970D01*
X152252Y116845D01*
X153595Y118189D01*
X153277Y117163D02*
X156444Y113996D01*
X153934Y110778D02*
X150060Y114653D01*
X153934Y110778D02*
X152591Y109435D01*
X148716Y113310D01*
X150060Y114653D01*
X149786Y113583D02*
X152909Y110460D01*
X152591Y106465D02*
X148716Y102590D01*
X152591Y106465D02*
X153934Y105122D01*
X150060Y101247D01*
X148716Y102590D01*
X149741Y102272D02*
X152909Y105440D01*
X156126Y102930D02*
X152252Y99055D01*
X156126Y102930D02*
X157470Y101586D01*
X153595Y97711D01*
X152252Y99055D01*
X153187Y98647D02*
X156444Y101904D01*
X159662Y99394D02*
X155787Y95519D01*
X159662Y99394D02*
X161005Y98051D01*
X157131Y94176D01*
X155787Y95519D01*
X156812Y95201D02*
X159980Y98369D01*
X163197Y95858D02*
X159323Y91984D01*
X163197Y95858D02*
X164541Y94515D01*
X160666Y90640D01*
X159323Y91984D01*
X160393Y91711D02*
X163515Y94833D01*
X166733Y92323D02*
X162858Y88448D01*
X166733Y92323D02*
X168076Y90979D01*
X164202Y87105D01*
X162858Y88448D01*
X163973Y88220D02*
X167051Y91298D01*
X170268Y88787D02*
X166394Y84913D01*
X170268Y88787D02*
X171612Y87444D01*
X167737Y83569D01*
X166394Y84913D01*
X167464Y84640D02*
X170587Y87762D01*
X173804Y85252D02*
X169929Y81377D01*
X173804Y85252D02*
X175147Y83908D01*
X171273Y80034D01*
X169929Y81377D01*
X171000Y81104D02*
X174122Y84227D01*
X177339Y81716D02*
X173465Y77842D01*
X177339Y81716D02*
X178683Y80373D01*
X174808Y76498D01*
X173465Y77842D01*
X174535Y77568D02*
X177658Y80691D01*
X180875Y78181D02*
X177000Y74306D01*
X180875Y78181D02*
X182218Y76837D01*
X178344Y72963D01*
X177000Y74306D01*
X177981Y73943D02*
X181193Y77155D01*
X184411Y74645D02*
X180536Y70771D01*
X184411Y74645D02*
X185754Y73302D01*
X181879Y69427D01*
X180536Y70771D01*
X181427Y70318D02*
X184729Y73620D01*
X187946Y71110D02*
X184071Y67235D01*
X187946Y71110D02*
X189290Y69766D01*
X185415Y65892D01*
X184071Y67235D01*
X185052Y66872D02*
X188264Y70084D01*
X191482Y67574D02*
X187607Y63700D01*
X191482Y67574D02*
X192825Y66231D01*
X188950Y62356D01*
X187607Y63700D01*
X188498Y63247D02*
X191800Y66549D01*
D17*
G36*
X194310Y140278D02*
X226638Y107950D01*
X194310Y75622D01*
X161982Y107950D01*
X194310Y140278D01*
G37*
D12*
G36*
X225562Y72862D02*
X221579Y68879D01*
X217596Y72862D01*
X221579Y76845D01*
X225562Y72862D01*
G37*
G36*
X232746Y80046D02*
X228763Y76063D01*
X224780Y80046D01*
X228763Y84029D01*
X232746Y80046D01*
G37*
D18*
G36*
X176494Y66472D02*
X173924Y63902D01*
X168810Y69016D01*
X171380Y71586D01*
X176494Y66472D01*
G37*
G36*
X171898Y61875D02*
X169328Y59305D01*
X164214Y64419D01*
X166784Y66989D01*
X171898Y61875D01*
G37*
G36*
X167302Y57279D02*
X164732Y54709D01*
X159618Y59823D01*
X162188Y62393D01*
X167302Y57279D01*
G37*
G36*
X172629Y46812D02*
X175199Y49382D01*
X180313Y44268D01*
X177743Y41698D01*
X172629Y46812D01*
G37*
G36*
X177225Y51409D02*
X179795Y53979D01*
X184909Y48865D01*
X182339Y46295D01*
X177225Y51409D01*
G37*
G36*
X181821Y56005D02*
X184391Y58575D01*
X189505Y53461D01*
X186935Y50891D01*
X181821Y56005D01*
G37*
D12*
G36*
X238115Y93508D02*
X242098Y97491D01*
X246081Y93508D01*
X242098Y89525D01*
X238115Y93508D01*
G37*
G36*
X230931Y86324D02*
X234914Y90307D01*
X238897Y86324D01*
X234914Y82341D01*
X230931Y86324D01*
G37*
D19*
X85779Y91186D03*
X60779Y91186D03*
D20*
X94132Y118190D03*
X103632Y118190D03*
X113132Y118190D03*
X113132Y144192D03*
X94132Y144192D03*
D15*
X67310Y58420D03*
X67310Y48260D03*
D11*
X111633Y100584D03*
X96393Y100584D03*
D15*
X103505Y154940D03*
X113665Y154940D03*
X274955Y119507D03*
X285115Y119507D03*
D21*
X55880Y49110D03*
X55880Y60110D03*
X78740Y49110D03*
X78740Y60110D03*
D15*
X129159Y136398D03*
X139319Y136398D03*
X139319Y147320D03*
X129159Y147320D03*
D22*
X87884Y71684D03*
D23*
X90134Y78684D03*
X85634Y78684D03*
D15*
X99060Y70104D03*
X99060Y80264D03*
X77470Y105410D03*
X67310Y105410D03*
D24*
X41268Y-99466D03*
X48768Y-99466D03*
X56268Y-99466D03*
X56268Y-118466D03*
X48768Y-118466D03*
X41268Y-118466D03*
D25*
X268650Y33972D03*
X268650Y140972D03*
X304350Y140972D03*
X304350Y118972D03*
D26*
G36*
X68530Y119380D02*
X72390Y123240D01*
X76250Y119380D01*
X72390Y115520D01*
X68530Y119380D01*
G37*
D12*
G36*
X215102Y147437D02*
X211119Y151420D01*
X215102Y155403D01*
X219085Y151420D01*
X215102Y147437D01*
G37*
G36*
X222286Y140253D02*
X218303Y144236D01*
X222286Y148219D01*
X226269Y144236D01*
X222286Y140253D01*
G37*
D27*
X55570Y-86614D03*
D28*
X48570Y-84364D03*
X48570Y-88864D03*
D15*
X171450Y147320D03*
X161290Y147320D03*
D29*
X292354Y108165D03*
X292354Y119165D03*
D15*
X267335Y119380D03*
X267335Y109220D03*
D30*
G36*
X234063Y-133962D02*
X239181Y-139080D01*
X231909Y-146352D01*
X226791Y-141234D01*
X234063Y-133962D01*
G37*
G36*
X224185Y-124084D02*
X229303Y-129202D01*
X222031Y-136474D01*
X216913Y-131356D01*
X224185Y-124084D01*
G37*
D31*
G36*
X188932Y-108663D02*
X190794Y-110525D01*
X188932Y-112387D01*
X187070Y-110525D01*
X188932Y-108663D01*
G37*
G36*
X191760Y-105835D02*
X193622Y-107697D01*
X191760Y-109559D01*
X189898Y-107697D01*
X191760Y-105835D01*
G37*
D32*
G36*
X204422Y-187797D02*
X208822Y-192197D01*
X204064Y-196955D01*
X199664Y-192555D01*
X204422Y-187797D01*
G37*
G36*
X198495Y-181870D02*
X202895Y-186270D01*
X198137Y-191028D01*
X193737Y-186628D01*
X198495Y-181870D01*
G37*
D33*
G36*
X212177Y-117448D02*
X216868Y-122139D01*
X210763Y-128244D01*
X206072Y-123553D01*
X212177Y-117448D01*
G37*
G36*
X220663Y-108963D02*
X225354Y-113654D01*
X219249Y-119759D01*
X214558Y-115068D01*
X220663Y-108963D01*
G37*
D34*
G36*
X244377Y-146849D02*
X241416Y-149810D01*
X238633Y-147027D01*
X241594Y-144066D01*
X244377Y-146849D01*
G37*
G36*
X248508Y-142718D02*
X245547Y-145679D01*
X242764Y-142896D01*
X245725Y-139935D01*
X248508Y-142718D01*
G37*
D35*
G36*
X174468Y-167517D02*
X182819Y-159166D01*
X196018Y-172365D01*
X187667Y-180716D01*
X174468Y-167517D01*
G37*
G36*
X153275Y-188710D02*
X161626Y-180359D01*
X174825Y-193558D01*
X166474Y-201909D01*
X153275Y-188710D01*
G37*
D36*
G36*
X228120Y-170549D02*
X233598Y-176027D01*
X220758Y-188867D01*
X215280Y-183389D01*
X228120Y-170549D01*
G37*
G36*
X243387Y-155282D02*
X248865Y-160760D01*
X236025Y-173600D01*
X230547Y-168122D01*
X243387Y-155282D01*
G37*
D32*
G36*
X204986Y-148188D02*
X200586Y-152588D01*
X195828Y-147830D01*
X200228Y-143430D01*
X204986Y-148188D01*
G37*
G36*
X210913Y-142261D02*
X206513Y-146661D01*
X201755Y-141903D01*
X206155Y-137503D01*
X210913Y-142261D01*
G37*
G36*
X163818Y-155131D02*
X168218Y-159531D01*
X163460Y-164289D01*
X159060Y-159889D01*
X163818Y-155131D01*
G37*
G36*
X157891Y-149204D02*
X162291Y-153604D01*
X157533Y-158362D01*
X153133Y-153962D01*
X157891Y-149204D01*
G37*
D37*
G36*
X201562Y-202484D02*
X209913Y-210835D01*
X199228Y-221520D01*
X190877Y-213169D01*
X201562Y-202484D01*
G37*
G36*
X188810Y-189732D02*
X197161Y-198083D01*
X186476Y-208768D01*
X178125Y-200417D01*
X188810Y-189732D01*
G37*
D34*
G36*
X196413Y-116348D02*
X193452Y-119309D01*
X190669Y-116526D01*
X193630Y-113565D01*
X196413Y-116348D01*
G37*
G36*
X200544Y-112217D02*
X197583Y-115178D01*
X194800Y-112395D01*
X197761Y-109434D01*
X200544Y-112217D01*
G37*
D38*
G36*
X195237Y-132428D02*
X199573Y-128092D01*
X201789Y-130308D01*
X197453Y-134644D01*
X195237Y-132428D01*
G37*
G36*
X191701Y-128893D02*
X196037Y-124557D01*
X198253Y-126773D01*
X193917Y-131109D01*
X191701Y-128893D01*
G37*
G36*
X188166Y-125357D02*
X192502Y-121021D01*
X194718Y-123237D01*
X190382Y-127573D01*
X188166Y-125357D01*
G37*
G36*
X184630Y-121822D02*
X188966Y-117486D01*
X191182Y-119702D01*
X186846Y-124038D01*
X184630Y-121822D01*
G37*
D39*
G36*
X184724Y-132877D02*
X176498Y-124651D01*
X180128Y-121021D01*
X188354Y-129247D01*
X184724Y-132877D01*
G37*
G36*
X179774Y-137827D02*
X171548Y-129601D01*
X175178Y-125971D01*
X183404Y-134197D01*
X179774Y-137827D01*
G37*
D38*
G36*
X168013Y-138439D02*
X172349Y-134103D01*
X174565Y-136319D01*
X170229Y-140655D01*
X168013Y-138439D01*
G37*
G36*
X171549Y-141974D02*
X175885Y-137638D01*
X178101Y-139854D01*
X173765Y-144190D01*
X171549Y-141974D01*
G37*
G36*
X175084Y-145510D02*
X179420Y-141174D01*
X181636Y-143390D01*
X177300Y-147726D01*
X175084Y-145510D01*
G37*
G36*
X178620Y-149045D02*
X182956Y-144709D01*
X185172Y-146925D01*
X180836Y-151261D01*
X178620Y-149045D01*
G37*
D40*
G36*
X181625Y-139323D02*
X189851Y-131097D01*
X198077Y-139323D01*
X189851Y-147549D01*
X181625Y-139323D01*
G37*
D32*
G36*
X214305Y-157581D02*
X209905Y-161981D01*
X205147Y-157223D01*
X209547Y-152823D01*
X214305Y-157581D01*
G37*
G36*
X220232Y-151654D02*
X215832Y-156054D01*
X211074Y-151296D01*
X215474Y-146896D01*
X220232Y-151654D01*
G37*
G36*
X206874Y-104271D02*
X211274Y-108671D01*
X206516Y-113429D01*
X202116Y-109029D01*
X206874Y-104271D01*
G37*
G36*
X200947Y-98344D02*
X205347Y-102744D01*
X200589Y-107502D01*
X196189Y-103102D01*
X200947Y-98344D01*
G37*
D41*
G36*
X143105Y-132749D02*
X140536Y-135318D01*
X128775Y-123557D01*
X131344Y-120988D01*
X143105Y-132749D01*
G37*
G36*
X147701Y-128153D02*
X145132Y-130722D01*
X133371Y-118961D01*
X135940Y-116392D01*
X147701Y-128153D01*
G37*
G36*
X152297Y-123557D02*
X149728Y-126126D01*
X137967Y-114365D01*
X140536Y-111796D01*
X152297Y-123557D01*
G37*
G36*
X156893Y-118961D02*
X154324Y-121530D01*
X142563Y-109769D01*
X145132Y-107200D01*
X156893Y-118961D01*
G37*
G36*
X161490Y-114365D02*
X158921Y-116934D01*
X147160Y-105173D01*
X149729Y-102604D01*
X161490Y-114365D01*
G37*
G36*
X166086Y-109768D02*
X163517Y-112337D01*
X151756Y-100576D01*
X154325Y-98007D01*
X166086Y-109768D01*
G37*
G36*
X170682Y-105172D02*
X168113Y-107741D01*
X156352Y-95980D01*
X158921Y-93411D01*
X170682Y-105172D01*
G37*
G36*
X175278Y-100576D02*
X172709Y-103145D01*
X160948Y-91384D01*
X163517Y-88815D01*
X175278Y-100576D01*
G37*
G36*
X135680Y-60978D02*
X133111Y-63547D01*
X121350Y-51786D01*
X123919Y-49217D01*
X135680Y-60978D01*
G37*
G36*
X131084Y-65574D02*
X128515Y-68143D01*
X116754Y-56382D01*
X119323Y-53813D01*
X131084Y-65574D01*
G37*
G36*
X126488Y-70170D02*
X123919Y-72739D01*
X112158Y-60978D01*
X114727Y-58409D01*
X126488Y-70170D01*
G37*
G36*
X121892Y-74767D02*
X119323Y-77336D01*
X107562Y-65575D01*
X110131Y-63006D01*
X121892Y-74767D01*
G37*
G36*
X117295Y-79363D02*
X114726Y-81932D01*
X102965Y-70171D01*
X105534Y-67602D01*
X117295Y-79363D01*
G37*
G36*
X112699Y-83959D02*
X110130Y-86528D01*
X98369Y-74767D01*
X100938Y-72198D01*
X112699Y-83959D01*
G37*
G36*
X108103Y-88555D02*
X105534Y-91124D01*
X93773Y-79363D01*
X96342Y-76794D01*
X108103Y-88555D01*
G37*
G36*
X103507Y-93151D02*
X100938Y-95720D01*
X89177Y-83959D01*
X91746Y-81390D01*
X103507Y-93151D01*
G37*
D42*
G36*
X160959Y-86612D02*
X126571Y-121000D01*
X103495Y-97924D01*
X137883Y-63536D01*
X160959Y-86612D01*
G37*
D43*
G36*
X111246Y-151514D02*
X100898Y-141166D01*
X114074Y-127990D01*
X124422Y-138338D01*
X111246Y-151514D01*
G37*
G36*
X93286Y-133554D02*
X82938Y-123206D01*
X96114Y-110030D01*
X106462Y-120378D01*
X93286Y-133554D01*
G37*
D44*
G36*
X83928Y-56225D02*
X93144Y-65441D01*
X82090Y-76495D01*
X72874Y-67279D01*
X83928Y-56225D01*
G37*
G36*
X70493Y-42790D02*
X79709Y-52006D01*
X68655Y-63060D01*
X59439Y-53844D01*
X70493Y-42790D01*
G37*
G36*
X109791Y-59199D02*
X100575Y-68415D01*
X89521Y-57361D01*
X98737Y-48145D01*
X109791Y-59199D01*
G37*
G36*
X123226Y-45764D02*
X114010Y-54980D01*
X102956Y-43926D01*
X112172Y-34710D01*
X123226Y-45764D01*
G37*
G36*
X101694Y-41557D02*
X92478Y-50773D01*
X81424Y-39719D01*
X90640Y-30503D01*
X101694Y-41557D01*
G37*
G36*
X115129Y-28122D02*
X105913Y-37338D01*
X94859Y-26284D01*
X104075Y-17068D01*
X115129Y-28122D01*
G37*
G36*
X78829Y-17631D02*
X88045Y-8415D01*
X99099Y-19469D01*
X89883Y-28685D01*
X78829Y-17631D01*
G37*
G36*
X65394Y-31066D02*
X74610Y-21850D01*
X85664Y-32904D01*
X76448Y-42120D01*
X65394Y-31066D01*
G37*
D20*
G36*
X163655Y33074D02*
X167992Y28737D01*
X159059Y19804D01*
X154722Y24141D01*
X163655Y33074D01*
G37*
G36*
X156938Y39791D02*
X161275Y35454D01*
X152342Y26521D01*
X148005Y30858D01*
X156938Y39791D01*
G37*
G36*
X150220Y46509D02*
X154557Y42172D01*
X145624Y33239D01*
X141287Y37576D01*
X150220Y46509D01*
G37*
G36*
X131835Y28124D02*
X136172Y23787D01*
X127239Y14854D01*
X122902Y19191D01*
X131835Y28124D01*
G37*
G36*
X138553Y21407D02*
X142890Y17070D01*
X133957Y8137D01*
X129620Y12474D01*
X138553Y21407D01*
G37*
G36*
X145270Y14689D02*
X149607Y10352D01*
X140674Y1419D01*
X136337Y5756D01*
X145270Y14689D01*
G37*
D45*
G36*
X387029Y-32831D02*
X390835Y-36637D01*
X388619Y-38853D01*
X384813Y-35047D01*
X387029Y-32831D01*
G37*
G36*
X390564Y-29295D02*
X394370Y-33101D01*
X392154Y-35317D01*
X388348Y-31511D01*
X390564Y-29295D01*
G37*
G36*
X394100Y-25760D02*
X397906Y-29566D01*
X395690Y-31782D01*
X391884Y-27976D01*
X394100Y-25760D01*
G37*
G36*
X397635Y-22224D02*
X401441Y-26030D01*
X399225Y-28246D01*
X395419Y-24440D01*
X397635Y-22224D01*
G37*
G36*
X391884Y-20197D02*
X395690Y-16391D01*
X397906Y-18607D01*
X394100Y-22413D01*
X391884Y-20197D01*
G37*
G36*
X388348Y-16661D02*
X392154Y-12855D01*
X394370Y-15071D01*
X390564Y-18877D01*
X388348Y-16661D01*
G37*
G36*
X384813Y-13126D02*
X388619Y-9320D01*
X390835Y-11536D01*
X387029Y-15342D01*
X384813Y-13126D01*
G37*
G36*
X382785Y-11806D02*
X378979Y-8000D01*
X381195Y-5784D01*
X385001Y-9590D01*
X382785Y-11806D01*
G37*
G36*
X379249Y-15342D02*
X375443Y-11536D01*
X377659Y-9320D01*
X381465Y-13126D01*
X379249Y-15342D01*
G37*
G36*
X375714Y-18877D02*
X371908Y-15071D01*
X374124Y-12855D01*
X377930Y-16661D01*
X375714Y-18877D01*
G37*
G36*
X372178Y-22413D02*
X368372Y-18607D01*
X370588Y-16391D01*
X374394Y-20197D01*
X372178Y-22413D01*
G37*
G36*
X377930Y-24440D02*
X374124Y-28246D01*
X371908Y-26030D01*
X375714Y-22224D01*
X377930Y-24440D01*
G37*
G36*
X381465Y-27976D02*
X377659Y-31782D01*
X375443Y-29566D01*
X379249Y-25760D01*
X381465Y-27976D01*
G37*
G36*
X385001Y-31511D02*
X381195Y-35317D01*
X378979Y-33101D01*
X382785Y-29295D01*
X385001Y-31511D01*
G37*
D46*
G36*
X366899Y-8920D02*
X358850Y-16969D01*
X351331Y-9450D01*
X359380Y-1401D01*
X366899Y-8920D01*
G37*
G36*
X378919Y3100D02*
X370870Y-4949D01*
X363351Y2570D01*
X371400Y10619D01*
X378919Y3100D01*
G37*
D47*
G36*
X357855Y10029D02*
X350336Y2510D01*
X342111Y10735D01*
X349630Y18254D01*
X357855Y10029D01*
G37*
G36*
X369876Y22050D02*
X362357Y14531D01*
X354132Y22756D01*
X361651Y30275D01*
X369876Y22050D01*
G37*
G36*
X323072Y-43461D02*
X315553Y-35942D01*
X323778Y-27717D01*
X331297Y-35236D01*
X323072Y-43461D01*
G37*
G36*
X335093Y-55482D02*
X327574Y-47963D01*
X335799Y-39738D01*
X343318Y-47257D01*
X335093Y-55482D01*
G37*
D48*
G36*
X335720Y128020D02*
X342364Y121044D01*
X335388Y114400D01*
X328744Y121376D01*
X335720Y128020D01*
G37*
G36*
X347307Y139054D02*
X353951Y132078D01*
X346975Y125434D01*
X340331Y132410D01*
X347307Y139054D01*
G37*
G36*
X375581Y109363D02*
X382225Y102387D01*
X375249Y95743D01*
X368605Y102719D01*
X375581Y109363D01*
G37*
G36*
X363995Y98329D02*
X370639Y91353D01*
X363663Y84709D01*
X357019Y91685D01*
X363995Y98329D01*
G37*
D49*
G36*
X354408Y-129563D02*
X346888Y-122043D01*
X386226Y-82705D01*
X393746Y-90225D01*
X354408Y-129563D01*
G37*
G36*
X340266Y-115421D02*
X332746Y-107901D01*
X372084Y-68563D01*
X379604Y-76083D01*
X340266Y-115421D01*
G37*
D50*
G36*
X366429Y-155726D02*
X354667Y-143964D01*
X376327Y-122304D01*
X388089Y-134066D01*
X366429Y-155726D01*
G37*
G36*
X318345Y-107642D02*
X306583Y-95880D01*
X328243Y-74220D01*
X340005Y-85982D01*
X318345Y-107642D01*
G37*
D49*
G36*
X302765Y-138014D02*
X310285Y-145534D01*
X270947Y-184872D01*
X263427Y-177352D01*
X302765Y-138014D01*
G37*
G36*
X316907Y-152156D02*
X324427Y-159676D01*
X285089Y-199014D01*
X277569Y-191494D01*
X316907Y-152156D01*
G37*
D50*
G36*
X290744Y-111852D02*
X302506Y-123614D01*
X280846Y-145274D01*
X269084Y-133512D01*
X290744Y-111852D01*
G37*
G36*
X338827Y-159935D02*
X350589Y-171697D01*
X328929Y-193357D01*
X317167Y-181595D01*
X338827Y-159935D01*
G37*
D51*
X50563Y-6050D03*
X50563Y-12550D03*
X50563Y-19050D03*
X50563Y-25550D03*
X50563Y-32050D03*
D52*
X48313Y12950D03*
X48313Y-51050D03*
D53*
X23813Y-7050D03*
X23813Y-31050D03*
D54*
X23813Y13950D03*
X23813Y-52050D03*
D55*
X19313Y13950D02*
X28313Y13950D01*
X28313Y-52050D02*
X19313Y-52050D01*
D56*
G36*
X255129Y-106615D02*
X263001Y-114487D01*
X255129Y-122359D01*
X247257Y-114487D01*
X255129Y-106615D01*
G37*
D57*
X265735Y-103880D03*
X276342Y-93273D03*
X286948Y-82667D03*
X308162Y-61454D03*
X297555Y-72060D03*
D58*
X173038Y-150813D03*
X206375Y-180975D03*
X103188Y142875D03*
X55563Y112713D03*
M02*
