G04 EAGLE Gerber RS-274X export*
G75*
%MOMM*%
%FSLAX34Y34*%
%LPD*%
%INSolderpaste Top*%
%IPPOS*%
%AMOC8*
5,1,8,0,0,1.08239X$1,22.5*%
G01*
%ADD10R,0.800000X0.800000*%
%ADD11R,0.500000X0.500000*%
%ADD12R,0.600000X0.600000*%
%ADD13C,0.140000*%
%ADD14R,0.500000X0.500000*%
%ADD15C,0.101600*%
%ADD16R,1.143000X1.143000*%
%ADD17R,0.300000X0.660000*%
%ADD18R,0.800000X0.600000*%
%ADD19R,0.550000X1.200000*%
%ADD20R,0.508000X0.609600*%
%ADD21R,0.600000X0.254000*%
%ADD22R,0.350000X0.700000*%
%ADD23R,0.860000X0.800000*%
%ADD24R,0.482600X0.482600*%
%ADD25R,0.254000X0.600000*%
%ADD26R,0.600000X0.600000*%
%ADD27R,0.660400X0.965200*%
%ADD28R,0.200000X0.200000*%
%ADD29R,0.558800X0.609600*%
%ADD30R,0.600000X0.800000*%
%ADD31R,0.355600X0.330200*%
%ADD32R,1.117600X1.803400*%
%ADD33R,0.711200X1.752600*%
%ADD34R,1.117600X1.447800*%
%ADD35R,0.550000X0.250000*%
%ADD36R,0.300000X1.600000*%
%ADD37R,2.310000X2.460000*%
%ADD38R,1.400000X1.800000*%
%ADD39R,1.240000X1.500000*%
%ADD40R,0.475000X0.250000*%
%ADD41R,1.075000X1.000000*%
%ADD42R,1.000000X1.100000*%
%ADD43R,0.900000X0.900000*%
%ADD44R,1.000000X5.500000*%
%ADD45R,1.600000X3.000000*%
%ADD46R,1.350000X0.400000*%
%ADD47R,1.400000X1.600000*%
%ADD48R,1.900000X1.900000*%

G36*
X186460Y-143124D02*
X186460Y-143124D01*
X186462Y-143125D01*
X186545Y-143088D01*
X193616Y-136017D01*
X193617Y-136015D01*
X193619Y-136015D01*
X193635Y-135970D01*
X193653Y-135926D01*
X193652Y-135924D01*
X193653Y-135922D01*
X193616Y-135839D01*
X189940Y-132163D01*
X189938Y-132162D01*
X189937Y-132160D01*
X189892Y-132144D01*
X189848Y-132126D01*
X189846Y-132127D01*
X189844Y-132126D01*
X189761Y-132163D01*
X182690Y-139234D01*
X182689Y-139236D01*
X182687Y-139237D01*
X182671Y-139281D01*
X182653Y-139325D01*
X182654Y-139327D01*
X182653Y-139329D01*
X182690Y-139412D01*
X186366Y-143088D01*
X186368Y-143089D01*
X186369Y-143091D01*
X186414Y-143108D01*
X186458Y-143125D01*
X186460Y-143124D01*
G37*
G36*
X184162Y-131282D02*
X184162Y-131282D01*
X184164Y-131282D01*
X184247Y-131246D01*
X186723Y-128770D01*
X186723Y-128768D01*
X186725Y-128767D01*
X186742Y-128723D01*
X186760Y-128679D01*
X186759Y-128677D01*
X186759Y-128675D01*
X186723Y-128592D01*
X180218Y-122087D01*
X180216Y-122086D01*
X180215Y-122084D01*
X180170Y-122067D01*
X180126Y-122050D01*
X180124Y-122051D01*
X180122Y-122050D01*
X180039Y-122087D01*
X177564Y-124562D01*
X177563Y-124564D01*
X177561Y-124565D01*
X177544Y-124610D01*
X177527Y-124653D01*
X177528Y-124655D01*
X177527Y-124657D01*
X177564Y-124741D01*
X184069Y-131246D01*
X184071Y-131246D01*
X184071Y-131248D01*
X184116Y-131265D01*
X184160Y-131283D01*
X184162Y-131282D01*
G37*
G36*
X179213Y-136231D02*
X179213Y-136231D01*
X179215Y-136232D01*
X179298Y-136195D01*
X181773Y-133720D01*
X181774Y-133718D01*
X181776Y-133717D01*
X181792Y-133673D01*
X181810Y-133629D01*
X181809Y-133627D01*
X181810Y-133625D01*
X181773Y-133542D01*
X175268Y-127037D01*
X175266Y-127036D01*
X175265Y-127034D01*
X175220Y-127017D01*
X175176Y-127000D01*
X175174Y-127001D01*
X175172Y-127000D01*
X175089Y-127037D01*
X172614Y-129511D01*
X172613Y-129513D01*
X172611Y-129514D01*
X172595Y-129559D01*
X172577Y-129603D01*
X172578Y-129605D01*
X172577Y-129607D01*
X172614Y-129690D01*
X179119Y-136195D01*
X179121Y-136196D01*
X179122Y-136198D01*
X179167Y-136214D01*
X179211Y-136232D01*
X179213Y-136231D01*
G37*
G36*
X76944Y121479D02*
X76944Y121479D01*
X76944Y121480D01*
X76944Y125380D01*
X76941Y125384D01*
X76940Y125384D01*
X74340Y125384D01*
X74336Y125381D01*
X74336Y125380D01*
X74336Y122980D01*
X74337Y122979D01*
X74337Y122977D01*
X75837Y121477D01*
X75839Y121477D01*
X75840Y121476D01*
X76940Y121476D01*
X76944Y121479D01*
G37*
G36*
X76944Y113379D02*
X76944Y113379D01*
X76944Y113380D01*
X76944Y117280D01*
X76941Y117284D01*
X76940Y117284D01*
X75840Y117284D01*
X75839Y117283D01*
X75837Y117283D01*
X74337Y115783D01*
X74337Y115782D01*
X74336Y115781D01*
X74337Y115781D01*
X74336Y115780D01*
X74336Y113380D01*
X74339Y113376D01*
X74340Y113376D01*
X76940Y113376D01*
X76944Y113379D01*
G37*
G36*
X68942Y121477D02*
X68942Y121477D01*
X68943Y121477D01*
X70443Y122977D01*
X70443Y122979D01*
X70444Y122980D01*
X70444Y125380D01*
X70441Y125384D01*
X70440Y125384D01*
X67840Y125384D01*
X67836Y125381D01*
X67836Y125380D01*
X67836Y121480D01*
X67839Y121476D01*
X67840Y121476D01*
X68940Y121476D01*
X68942Y121477D01*
G37*
G36*
X70444Y113379D02*
X70444Y113379D01*
X70444Y113380D01*
X70444Y115780D01*
X70443Y115782D01*
X70443Y115783D01*
X68943Y117283D01*
X68941Y117283D01*
X68940Y117284D01*
X67840Y117284D01*
X67836Y117281D01*
X67836Y117280D01*
X67836Y113380D01*
X67839Y113376D01*
X67840Y113376D01*
X70440Y113376D01*
X70444Y113379D01*
G37*
G36*
X189857Y-146518D02*
X189857Y-146518D01*
X189859Y-146518D01*
X189943Y-146482D01*
X191708Y-144716D01*
X191709Y-144714D01*
X191711Y-144713D01*
X191727Y-144669D01*
X191745Y-144625D01*
X191744Y-144623D01*
X191745Y-144621D01*
X191708Y-144538D01*
X189728Y-142557D01*
X189726Y-142556D01*
X189725Y-142554D01*
X189680Y-142538D01*
X189636Y-142520D01*
X189634Y-142521D01*
X189632Y-142520D01*
X189549Y-142557D01*
X187784Y-144323D01*
X187783Y-144325D01*
X187781Y-144326D01*
X187764Y-144370D01*
X187747Y-144414D01*
X187748Y-144416D01*
X187747Y-144418D01*
X187784Y-144501D01*
X189764Y-146482D01*
X189766Y-146482D01*
X189767Y-146484D01*
X189811Y-146501D01*
X189855Y-146519D01*
X189857Y-146518D01*
G37*
G36*
X195159Y-141215D02*
X195159Y-141215D01*
X195161Y-141215D01*
X195244Y-141179D01*
X197011Y-139412D01*
X197012Y-139410D01*
X197014Y-139409D01*
X197030Y-139365D01*
X197048Y-139321D01*
X197047Y-139319D01*
X197048Y-139317D01*
X197011Y-139233D01*
X195032Y-137255D01*
X195030Y-137254D01*
X195029Y-137252D01*
X194985Y-137236D01*
X194941Y-137218D01*
X194939Y-137219D01*
X194937Y-137218D01*
X194854Y-137255D01*
X193087Y-139022D01*
X193086Y-139024D01*
X193084Y-139025D01*
X193068Y-139069D01*
X193050Y-139113D01*
X193051Y-139115D01*
X193050Y-139117D01*
X193087Y-139200D01*
X195066Y-141179D01*
X195068Y-141179D01*
X195069Y-141181D01*
X195113Y-141198D01*
X195157Y-141216D01*
X195159Y-141215D01*
G37*
G36*
X90885Y77179D02*
X90885Y77179D01*
X91076Y77217D01*
X91077Y77218D01*
X91078Y77218D01*
X91240Y77326D01*
X91241Y77328D01*
X91242Y77328D01*
X91350Y77490D01*
X91350Y77491D01*
X91351Y77492D01*
X91353Y77501D01*
X91356Y77516D01*
X91359Y77531D01*
X91361Y77541D01*
X91364Y77556D01*
X91367Y77571D01*
X91372Y77596D01*
X91374Y77611D01*
X91375Y77611D01*
X91374Y77611D01*
X91379Y77635D01*
X91379Y77636D01*
X91382Y77650D01*
X91385Y77665D01*
X91387Y77675D01*
X91389Y77683D01*
X91389Y77684D01*
X91389Y79684D01*
X91389Y79685D01*
X91351Y79876D01*
X91350Y79877D01*
X91350Y79878D01*
X91242Y80040D01*
X91241Y80041D01*
X91240Y80042D01*
X91078Y80150D01*
X91077Y80150D01*
X91076Y80151D01*
X90885Y80189D01*
X90884Y80189D01*
X89384Y80189D01*
X89383Y80189D01*
X89192Y80151D01*
X89191Y80150D01*
X89190Y80150D01*
X89028Y80042D01*
X89027Y80041D01*
X89026Y80040D01*
X88918Y79878D01*
X88918Y79877D01*
X88917Y79876D01*
X88915Y79863D01*
X88914Y79863D01*
X88915Y79863D01*
X88912Y79848D01*
X88910Y79838D01*
X88907Y79823D01*
X88904Y79808D01*
X88899Y79783D01*
X88896Y79768D01*
X88891Y79744D01*
X88891Y79743D01*
X88888Y79729D01*
X88885Y79714D01*
X88883Y79704D01*
X88880Y79689D01*
X88879Y79685D01*
X88879Y79684D01*
X88879Y77684D01*
X88879Y77683D01*
X88917Y77492D01*
X88918Y77491D01*
X88918Y77490D01*
X89026Y77328D01*
X89028Y77327D01*
X89028Y77326D01*
X89190Y77218D01*
X89191Y77218D01*
X89192Y77217D01*
X89383Y77179D01*
X89384Y77179D01*
X90884Y77179D01*
X90885Y77179D01*
G37*
G36*
X86385Y77179D02*
X86385Y77179D01*
X86576Y77217D01*
X86577Y77218D01*
X86578Y77218D01*
X86740Y77326D01*
X86741Y77328D01*
X86742Y77328D01*
X86850Y77490D01*
X86850Y77491D01*
X86851Y77492D01*
X86853Y77501D01*
X86856Y77516D01*
X86859Y77531D01*
X86861Y77541D01*
X86864Y77556D01*
X86867Y77571D01*
X86872Y77596D01*
X86874Y77611D01*
X86875Y77611D01*
X86874Y77611D01*
X86879Y77635D01*
X86879Y77636D01*
X86882Y77650D01*
X86885Y77665D01*
X86887Y77675D01*
X86889Y77683D01*
X86889Y77684D01*
X86889Y79684D01*
X86889Y79685D01*
X86851Y79876D01*
X86850Y79877D01*
X86850Y79878D01*
X86742Y80040D01*
X86741Y80041D01*
X86740Y80042D01*
X86578Y80150D01*
X86577Y80150D01*
X86576Y80151D01*
X86385Y80189D01*
X86384Y80189D01*
X84884Y80189D01*
X84883Y80189D01*
X84692Y80151D01*
X84691Y80150D01*
X84690Y80150D01*
X84528Y80042D01*
X84527Y80041D01*
X84526Y80040D01*
X84418Y79878D01*
X84418Y79877D01*
X84417Y79876D01*
X84415Y79863D01*
X84414Y79863D01*
X84415Y79863D01*
X84412Y79848D01*
X84410Y79838D01*
X84407Y79823D01*
X84404Y79808D01*
X84399Y79783D01*
X84396Y79768D01*
X84391Y79744D01*
X84391Y79743D01*
X84388Y79729D01*
X84385Y79714D01*
X84383Y79704D01*
X84380Y79689D01*
X84379Y79685D01*
X84379Y79684D01*
X84379Y77684D01*
X84379Y77683D01*
X84417Y77492D01*
X84418Y77491D01*
X84418Y77490D01*
X84526Y77328D01*
X84528Y77327D01*
X84528Y77326D01*
X84690Y77218D01*
X84691Y77218D01*
X84692Y77217D01*
X84883Y77179D01*
X84884Y77179D01*
X86384Y77179D01*
X86385Y77179D01*
G37*
G36*
X49570Y-85619D02*
X49570Y-85619D01*
X49571Y-85619D01*
X49762Y-85581D01*
X49763Y-85580D01*
X49764Y-85580D01*
X49926Y-85472D01*
X49927Y-85471D01*
X49928Y-85470D01*
X50036Y-85308D01*
X50036Y-85307D01*
X50037Y-85306D01*
X50040Y-85290D01*
X50041Y-85285D01*
X50046Y-85260D01*
X50047Y-85255D01*
X50052Y-85230D01*
X50057Y-85205D01*
X50058Y-85200D01*
X50063Y-85175D01*
X50064Y-85170D01*
X50069Y-85145D01*
X50070Y-85140D01*
X50075Y-85115D01*
X50075Y-85114D01*
X50075Y-83614D01*
X50075Y-83613D01*
X50037Y-83422D01*
X50036Y-83421D01*
X50036Y-83420D01*
X49928Y-83258D01*
X49927Y-83257D01*
X49926Y-83256D01*
X49764Y-83148D01*
X49763Y-83148D01*
X49762Y-83147D01*
X49571Y-83109D01*
X49570Y-83109D01*
X47570Y-83109D01*
X47569Y-83109D01*
X47378Y-83147D01*
X47377Y-83148D01*
X47376Y-83148D01*
X47214Y-83256D01*
X47213Y-83258D01*
X47212Y-83258D01*
X47104Y-83420D01*
X47104Y-83421D01*
X47103Y-83422D01*
X47102Y-83428D01*
X47101Y-83433D01*
X47096Y-83458D01*
X47091Y-83483D01*
X47090Y-83488D01*
X47085Y-83513D01*
X47084Y-83518D01*
X47079Y-83543D01*
X47078Y-83548D01*
X47073Y-83573D01*
X47072Y-83578D01*
X47067Y-83603D01*
X47065Y-83613D01*
X47065Y-83614D01*
X47065Y-85114D01*
X47065Y-85115D01*
X47103Y-85306D01*
X47104Y-85307D01*
X47104Y-85308D01*
X47212Y-85470D01*
X47214Y-85471D01*
X47214Y-85472D01*
X47376Y-85580D01*
X47377Y-85580D01*
X47378Y-85581D01*
X47569Y-85619D01*
X47570Y-85619D01*
X49570Y-85619D01*
X49570Y-85619D01*
G37*
G36*
X49570Y-90119D02*
X49570Y-90119D01*
X49571Y-90119D01*
X49762Y-90081D01*
X49763Y-90080D01*
X49764Y-90080D01*
X49926Y-89972D01*
X49927Y-89971D01*
X49928Y-89970D01*
X50036Y-89808D01*
X50036Y-89807D01*
X50037Y-89806D01*
X50040Y-89790D01*
X50041Y-89785D01*
X50046Y-89760D01*
X50047Y-89755D01*
X50052Y-89730D01*
X50057Y-89705D01*
X50058Y-89700D01*
X50063Y-89675D01*
X50064Y-89670D01*
X50069Y-89645D01*
X50070Y-89640D01*
X50075Y-89615D01*
X50075Y-89614D01*
X50075Y-88114D01*
X50075Y-88113D01*
X50037Y-87922D01*
X50036Y-87921D01*
X50036Y-87920D01*
X49928Y-87758D01*
X49927Y-87757D01*
X49926Y-87756D01*
X49764Y-87648D01*
X49763Y-87648D01*
X49762Y-87647D01*
X49571Y-87609D01*
X49570Y-87609D01*
X47570Y-87609D01*
X47569Y-87609D01*
X47378Y-87647D01*
X47377Y-87648D01*
X47376Y-87648D01*
X47214Y-87756D01*
X47213Y-87758D01*
X47212Y-87758D01*
X47104Y-87920D01*
X47104Y-87921D01*
X47103Y-87922D01*
X47102Y-87928D01*
X47101Y-87933D01*
X47096Y-87958D01*
X47091Y-87983D01*
X47090Y-87988D01*
X47085Y-88013D01*
X47084Y-88018D01*
X47079Y-88043D01*
X47078Y-88048D01*
X47073Y-88073D01*
X47072Y-88078D01*
X47067Y-88103D01*
X47065Y-88113D01*
X47065Y-88114D01*
X47065Y-89614D01*
X47065Y-89615D01*
X47103Y-89806D01*
X47104Y-89807D01*
X47104Y-89808D01*
X47212Y-89970D01*
X47214Y-89971D01*
X47214Y-89972D01*
X47376Y-90080D01*
X47377Y-90080D01*
X47378Y-90081D01*
X47569Y-90119D01*
X47570Y-90119D01*
X49570Y-90119D01*
X49570Y-90119D01*
G37*
D10*
X58724Y75184D03*
X73964Y75184D03*
D11*
G36*
X74428Y136913D02*
X78329Y140040D01*
X81456Y136139D01*
X77555Y133012D01*
X74428Y136913D01*
G37*
G36*
X66499Y130561D02*
X70400Y133688D01*
X73527Y129787D01*
X69626Y126660D01*
X66499Y130561D01*
G37*
G36*
X193745Y48605D02*
X190210Y45070D01*
X186675Y48605D01*
X190210Y52140D01*
X193745Y48605D01*
G37*
G36*
X200929Y55789D02*
X197394Y52254D01*
X193859Y55789D01*
X197394Y59324D01*
X200929Y55789D01*
G37*
D12*
G36*
X124196Y66878D02*
X119954Y71120D01*
X124196Y75362D01*
X128438Y71120D01*
X124196Y66878D01*
G37*
G36*
X135128Y66878D02*
X130886Y71120D01*
X135128Y75362D01*
X139370Y71120D01*
X135128Y66878D01*
G37*
G36*
X129662Y72344D02*
X125420Y76586D01*
X129662Y80828D01*
X133904Y76586D01*
X129662Y72344D01*
G37*
G36*
X135128Y77810D02*
X130886Y82052D01*
X135128Y86294D01*
X139370Y82052D01*
X135128Y77810D01*
G37*
G36*
X146060Y66878D02*
X141818Y71120D01*
X146060Y75362D01*
X150302Y71120D01*
X146060Y66878D01*
G37*
G36*
X135128Y55946D02*
X130886Y60188D01*
X135128Y64430D01*
X139370Y60188D01*
X135128Y55946D01*
G37*
G36*
X140594Y61412D02*
X136352Y65654D01*
X140594Y69896D01*
X144836Y65654D01*
X140594Y61412D01*
G37*
G36*
X140594Y72344D02*
X136352Y76586D01*
X140594Y80828D01*
X144836Y76586D01*
X140594Y72344D01*
G37*
G36*
X129662Y61412D02*
X125420Y65654D01*
X129662Y69896D01*
X133904Y65654D01*
X129662Y61412D01*
G37*
D13*
X132651Y92264D02*
X128433Y96482D01*
X132651Y92264D02*
X131661Y91274D01*
X127443Y95492D01*
X128433Y96482D01*
X130331Y92604D02*
X132311Y92604D01*
X130981Y93934D02*
X129001Y93934D01*
X129651Y95264D02*
X127671Y95264D01*
X124898Y92947D02*
X129116Y88729D01*
X128126Y87739D01*
X123908Y91957D01*
X124898Y92947D01*
X126796Y89069D02*
X128776Y89069D01*
X127446Y90399D02*
X125466Y90399D01*
X126116Y91729D02*
X124136Y91729D01*
X121362Y89411D02*
X125580Y85193D01*
X124590Y84203D01*
X120372Y88421D01*
X121362Y89411D01*
X123260Y85533D02*
X125240Y85533D01*
X123910Y86863D02*
X121930Y86863D01*
X122580Y88193D02*
X120600Y88193D01*
X117827Y85876D02*
X122045Y81658D01*
X121055Y80668D01*
X116837Y84886D01*
X117827Y85876D01*
X119725Y81998D02*
X121705Y81998D01*
X120375Y83328D02*
X118395Y83328D01*
X119045Y84658D02*
X117065Y84658D01*
X114291Y82340D02*
X118509Y78122D01*
X117519Y77132D01*
X113301Y81350D01*
X114291Y82340D01*
X116189Y78462D02*
X118169Y78462D01*
X116839Y79792D02*
X114859Y79792D01*
X115509Y81122D02*
X113529Y81122D01*
X110756Y78805D02*
X114974Y74587D01*
X113984Y73597D01*
X109766Y77815D01*
X110756Y78805D01*
X112654Y74927D02*
X114634Y74927D01*
X113304Y76257D02*
X111324Y76257D01*
X111974Y77587D02*
X109994Y77587D01*
X114974Y67653D02*
X110756Y63435D01*
X109766Y64425D01*
X113984Y68643D01*
X114974Y67653D01*
X112086Y64765D02*
X110106Y64765D01*
X111436Y66095D02*
X113416Y66095D01*
X112766Y67425D02*
X114746Y67425D01*
X118509Y64118D02*
X114291Y59900D01*
X113301Y60890D01*
X117519Y65108D01*
X118509Y64118D01*
X115621Y61230D02*
X113641Y61230D01*
X114971Y62560D02*
X116951Y62560D01*
X116301Y63890D02*
X118281Y63890D01*
X122045Y60582D02*
X117827Y56364D01*
X116837Y57354D01*
X121055Y61572D01*
X122045Y60582D01*
X119157Y57694D02*
X117177Y57694D01*
X118507Y59024D02*
X120487Y59024D01*
X119837Y60354D02*
X121817Y60354D01*
X125580Y57047D02*
X121362Y52829D01*
X120372Y53819D01*
X124590Y58037D01*
X125580Y57047D01*
X122692Y54159D02*
X120712Y54159D01*
X122042Y55489D02*
X124022Y55489D01*
X123372Y56819D02*
X125352Y56819D01*
X129116Y53511D02*
X124898Y49293D01*
X123908Y50283D01*
X128126Y54501D01*
X129116Y53511D01*
X126228Y50623D02*
X124248Y50623D01*
X125578Y51953D02*
X127558Y51953D01*
X126908Y53283D02*
X128888Y53283D01*
X132651Y49976D02*
X128433Y45758D01*
X127443Y46748D01*
X131661Y50966D01*
X132651Y49976D01*
X129763Y47088D02*
X127783Y47088D01*
X129113Y48418D02*
X131093Y48418D01*
X130443Y49748D02*
X132423Y49748D01*
X137605Y49976D02*
X141823Y45758D01*
X137605Y49976D02*
X138595Y50966D01*
X142813Y46748D01*
X141823Y45758D01*
X142473Y47088D02*
X140493Y47088D01*
X141143Y48418D02*
X139163Y48418D01*
X139813Y49748D02*
X137833Y49748D01*
X141140Y53511D02*
X145358Y49293D01*
X141140Y53511D02*
X142130Y54501D01*
X146348Y50283D01*
X145358Y49293D01*
X146008Y50623D02*
X144028Y50623D01*
X144678Y51953D02*
X142698Y51953D01*
X143348Y53283D02*
X141368Y53283D01*
X144676Y57047D02*
X148894Y52829D01*
X144676Y57047D02*
X145666Y58037D01*
X149884Y53819D01*
X148894Y52829D01*
X149544Y54159D02*
X147564Y54159D01*
X148214Y55489D02*
X146234Y55489D01*
X146884Y56819D02*
X144904Y56819D01*
X148211Y60582D02*
X152429Y56364D01*
X148211Y60582D02*
X149201Y61572D01*
X153419Y57354D01*
X152429Y56364D01*
X153079Y57694D02*
X151099Y57694D01*
X151749Y59024D02*
X149769Y59024D01*
X150419Y60354D02*
X148439Y60354D01*
X151747Y64118D02*
X155965Y59900D01*
X151747Y64118D02*
X152737Y65108D01*
X156955Y60890D01*
X155965Y59900D01*
X156615Y61230D02*
X154635Y61230D01*
X155285Y62560D02*
X153305Y62560D01*
X153955Y63890D02*
X151975Y63890D01*
X157168Y65767D02*
X159410Y63525D01*
X157168Y65767D02*
X158158Y66757D01*
X160400Y64515D01*
X159410Y63525D01*
X160060Y64855D02*
X158080Y64855D01*
X157586Y66185D02*
X158730Y66185D01*
X155282Y74587D02*
X159500Y78805D01*
X160490Y77815D01*
X156272Y73597D01*
X155282Y74587D01*
X155622Y74927D02*
X157602Y74927D01*
X156952Y76257D02*
X158932Y76257D01*
X158282Y77587D02*
X160262Y77587D01*
X155965Y82340D02*
X151747Y78122D01*
X155965Y82340D02*
X156955Y81350D01*
X152737Y77132D01*
X151747Y78122D01*
X152087Y78462D02*
X154067Y78462D01*
X153417Y79792D02*
X155397Y79792D01*
X154747Y81122D02*
X156727Y81122D01*
X152429Y85876D02*
X148211Y81658D01*
X152429Y85876D02*
X153419Y84886D01*
X149201Y80668D01*
X148211Y81658D01*
X148551Y81998D02*
X150531Y81998D01*
X149881Y83328D02*
X151861Y83328D01*
X151211Y84658D02*
X153191Y84658D01*
X148894Y89411D02*
X144676Y85193D01*
X148894Y89411D02*
X149884Y88421D01*
X145666Y84203D01*
X144676Y85193D01*
X145016Y85533D02*
X146996Y85533D01*
X146346Y86863D02*
X148326Y86863D01*
X147676Y88193D02*
X149656Y88193D01*
X145358Y92947D02*
X141140Y88729D01*
X145358Y92947D02*
X146348Y91957D01*
X142130Y87739D01*
X141140Y88729D01*
X141480Y89069D02*
X143460Y89069D01*
X142810Y90399D02*
X144790Y90399D01*
X144140Y91729D02*
X146120Y91729D01*
X141823Y96482D02*
X137605Y92264D01*
X141823Y96482D02*
X142813Y95492D01*
X138595Y91274D01*
X137605Y92264D01*
X137945Y92604D02*
X139925Y92604D01*
X139275Y93934D02*
X141255Y93934D01*
X140605Y95264D02*
X142585Y95264D01*
D14*
X99060Y58420D03*
X99060Y48260D03*
X88900Y58420D03*
X88900Y48260D03*
D15*
X195866Y66231D02*
X199625Y62472D01*
X195866Y66231D02*
X197138Y67503D01*
X200897Y63745D01*
X199625Y62472D01*
X199907Y63462D02*
X196856Y66514D01*
X199401Y69766D02*
X203160Y66007D01*
X199401Y69766D02*
X200674Y71039D01*
X204433Y67280D01*
X203160Y66007D01*
X203443Y66997D02*
X200391Y70049D01*
X202937Y73302D02*
X206696Y69543D01*
X202937Y73302D02*
X204209Y74575D01*
X207968Y70816D01*
X206696Y69543D01*
X207158Y70353D02*
X203927Y73585D01*
X206472Y76837D02*
X210231Y73078D01*
X206472Y76837D02*
X207745Y78110D01*
X211504Y74351D01*
X210231Y73078D01*
X210514Y74068D02*
X207462Y77120D01*
X210008Y80373D02*
X213767Y76614D01*
X210008Y80373D02*
X211281Y81646D01*
X215040Y77887D01*
X213767Y76614D01*
X214050Y77604D02*
X210998Y80656D01*
X213543Y83908D02*
X217302Y80149D01*
X213543Y83908D02*
X214816Y85181D01*
X218575Y81422D01*
X217302Y80149D01*
X217585Y81139D02*
X214533Y84191D01*
X217079Y87444D02*
X220838Y83685D01*
X217079Y87444D02*
X218352Y88717D01*
X222111Y84958D01*
X220838Y83685D01*
X221121Y84675D02*
X218069Y87727D01*
X220614Y90979D02*
X224373Y87220D01*
X220614Y90979D02*
X221887Y92252D01*
X225646Y88493D01*
X224373Y87220D01*
X224656Y88210D02*
X221604Y91262D01*
X224150Y94515D02*
X227909Y90756D01*
X224150Y94515D02*
X225423Y95788D01*
X229182Y92029D01*
X227909Y90756D01*
X228371Y91566D02*
X225140Y94798D01*
X227685Y98051D02*
X231444Y94292D01*
X227685Y98051D02*
X228958Y99323D01*
X232717Y95564D01*
X231444Y94292D01*
X231727Y95281D02*
X228675Y98333D01*
X231221Y101586D02*
X234980Y97827D01*
X231221Y101586D02*
X232494Y102859D01*
X236253Y99100D01*
X234980Y97827D01*
X235263Y98817D02*
X232211Y101869D01*
X234757Y105122D02*
X238515Y101363D01*
X234757Y105122D02*
X236029Y106394D01*
X239788Y102635D01*
X238515Y101363D01*
X238978Y102173D02*
X235746Y105404D01*
X236029Y109506D02*
X239788Y113265D01*
X236029Y109506D02*
X234757Y110778D01*
X238515Y114537D01*
X239788Y113265D01*
X238798Y113547D02*
X235746Y110496D01*
X232494Y113041D02*
X236253Y116800D01*
X232494Y113041D02*
X231221Y114314D01*
X234980Y118073D01*
X236253Y116800D01*
X235263Y117083D02*
X232211Y114031D01*
X228958Y116577D02*
X232717Y120336D01*
X228958Y116577D02*
X227685Y117849D01*
X231444Y121608D01*
X232717Y120336D01*
X231727Y120619D02*
X228675Y117567D01*
X225423Y120112D02*
X229182Y123871D01*
X225423Y120112D02*
X224150Y121385D01*
X227909Y125144D01*
X229182Y123871D01*
X228192Y124154D02*
X225140Y121102D01*
X221887Y123648D02*
X225646Y127407D01*
X221887Y123648D02*
X220614Y124921D01*
X224373Y128680D01*
X225646Y127407D01*
X224836Y127869D02*
X221604Y124638D01*
X218352Y127183D02*
X222111Y130942D01*
X218352Y127183D02*
X217079Y128456D01*
X220838Y132215D01*
X222111Y130942D01*
X221121Y131225D02*
X218069Y128173D01*
X214816Y130719D02*
X218575Y134478D01*
X214816Y130719D02*
X213543Y131992D01*
X217302Y135751D01*
X218575Y134478D01*
X217585Y134761D02*
X214533Y131709D01*
X211281Y134254D02*
X215040Y138013D01*
X211281Y134254D02*
X210008Y135527D01*
X213767Y139286D01*
X215040Y138013D01*
X214050Y138296D02*
X210998Y135244D01*
X207745Y137790D02*
X211504Y141549D01*
X207745Y137790D02*
X206472Y139063D01*
X210231Y142822D01*
X211504Y141549D01*
X210514Y141832D02*
X207462Y138780D01*
X204209Y141325D02*
X207968Y145084D01*
X204209Y141325D02*
X202937Y142598D01*
X206696Y146357D01*
X207968Y145084D01*
X206979Y145367D02*
X203927Y142315D01*
X200674Y144861D02*
X204433Y148620D01*
X200674Y144861D02*
X199401Y146134D01*
X203160Y149893D01*
X204433Y148620D01*
X203443Y148903D02*
X200391Y145851D01*
X197138Y148397D02*
X200897Y152155D01*
X197138Y148397D02*
X195866Y149669D01*
X199625Y153428D01*
X200897Y152155D01*
X199907Y152438D02*
X196856Y149386D01*
X192754Y149669D02*
X188995Y153428D01*
X192754Y149669D02*
X191482Y148397D01*
X187723Y152155D01*
X188995Y153428D01*
X188713Y152438D02*
X191764Y149386D01*
X189219Y146134D02*
X185460Y149893D01*
X189219Y146134D02*
X187946Y144861D01*
X184187Y148620D01*
X185460Y149893D01*
X185177Y148903D02*
X188229Y145851D01*
X185683Y142598D02*
X181924Y146357D01*
X185683Y142598D02*
X184411Y141325D01*
X180652Y145084D01*
X181924Y146357D01*
X181641Y145367D02*
X184693Y142315D01*
X182148Y139063D02*
X178389Y142822D01*
X182148Y139063D02*
X180875Y137790D01*
X177116Y141549D01*
X178389Y142822D01*
X178106Y141832D02*
X181158Y138780D01*
X178612Y135527D02*
X174853Y139286D01*
X178612Y135527D02*
X177339Y134254D01*
X173580Y138013D01*
X174853Y139286D01*
X174570Y138296D02*
X177622Y135244D01*
X175077Y131992D02*
X171318Y135751D01*
X175077Y131992D02*
X173804Y130719D01*
X170045Y134478D01*
X171318Y135751D01*
X171035Y134761D02*
X174087Y131709D01*
X171541Y128456D02*
X167782Y132215D01*
X171541Y128456D02*
X170268Y127183D01*
X166509Y130942D01*
X167782Y132215D01*
X167499Y131225D02*
X170551Y128173D01*
X168006Y124921D02*
X164247Y128680D01*
X168006Y124921D02*
X166733Y123648D01*
X162974Y127407D01*
X164247Y128680D01*
X163964Y127690D02*
X167016Y124638D01*
X164470Y121385D02*
X160711Y125144D01*
X164470Y121385D02*
X163197Y120112D01*
X159438Y123871D01*
X160711Y125144D01*
X160428Y124154D02*
X163480Y121102D01*
X160935Y117849D02*
X157176Y121608D01*
X160935Y117849D02*
X159662Y116577D01*
X155903Y120336D01*
X157176Y121608D01*
X156713Y120798D02*
X159945Y117567D01*
X157399Y114314D02*
X153640Y118073D01*
X157399Y114314D02*
X156126Y113041D01*
X152367Y116800D01*
X153640Y118073D01*
X153357Y117083D02*
X156409Y114031D01*
X153863Y110778D02*
X150105Y114537D01*
X153863Y110778D02*
X152591Y109506D01*
X148832Y113265D01*
X150105Y114537D01*
X149822Y113547D02*
X152874Y110496D01*
X152591Y106394D02*
X148832Y102635D01*
X152591Y106394D02*
X153863Y105122D01*
X150105Y101363D01*
X148832Y102635D01*
X149822Y102353D02*
X152874Y105404D01*
X156126Y102859D02*
X152367Y99100D01*
X156126Y102859D02*
X157399Y101586D01*
X153640Y97827D01*
X152367Y99100D01*
X153537Y98997D02*
X156409Y101869D01*
X159662Y99323D02*
X155903Y95564D01*
X159662Y99323D02*
X160935Y98051D01*
X157176Y94292D01*
X155903Y95564D01*
X156893Y95281D02*
X159945Y98333D01*
X163197Y95788D02*
X159438Y92029D01*
X163197Y95788D02*
X164470Y94515D01*
X160711Y90756D01*
X159438Y92029D01*
X160428Y91746D02*
X163480Y94798D01*
X166733Y92252D02*
X162974Y88493D01*
X166733Y92252D02*
X168006Y90979D01*
X164247Y87220D01*
X162974Y88493D01*
X163964Y88210D02*
X167016Y91262D01*
X170268Y88717D02*
X166509Y84958D01*
X170268Y88717D02*
X171541Y87444D01*
X167782Y83685D01*
X166509Y84958D01*
X167499Y84675D02*
X170551Y87727D01*
X173804Y85181D02*
X170045Y81422D01*
X173804Y85181D02*
X175077Y83908D01*
X171318Y80149D01*
X170045Y81422D01*
X170855Y80960D02*
X174087Y84191D01*
X177339Y81646D02*
X173580Y77887D01*
X177339Y81646D02*
X178612Y80373D01*
X174853Y76614D01*
X173580Y77887D01*
X174391Y77424D02*
X177622Y80656D01*
X180875Y78110D02*
X177116Y74351D01*
X180875Y78110D02*
X182148Y76837D01*
X178389Y73078D01*
X177116Y74351D01*
X178106Y74068D02*
X181158Y77120D01*
X184411Y74575D02*
X180652Y70816D01*
X184411Y74575D02*
X185683Y73302D01*
X181924Y69543D01*
X180652Y70816D01*
X181462Y70353D02*
X184693Y73585D01*
X187946Y71039D02*
X184187Y67280D01*
X187946Y71039D02*
X189219Y69766D01*
X185460Y66007D01*
X184187Y67280D01*
X185177Y66997D02*
X188229Y70049D01*
X191482Y67503D02*
X187705Y63727D01*
X191482Y67503D02*
X192754Y66231D01*
X188978Y62454D01*
X188341Y63090D01*
X187705Y63727D01*
X188341Y63090D02*
X191764Y66514D01*
D16*
G36*
X194310Y93581D02*
X202392Y85499D01*
X194310Y77417D01*
X186228Y85499D01*
X194310Y93581D01*
G37*
G36*
X171859Y116032D02*
X179941Y107950D01*
X171859Y99868D01*
X163777Y107950D01*
X171859Y116032D01*
G37*
G36*
X183085Y104807D02*
X191167Y96725D01*
X183085Y88643D01*
X175003Y96725D01*
X183085Y104807D01*
G37*
G36*
X194310Y138483D02*
X202392Y130401D01*
X194310Y122319D01*
X186228Y130401D01*
X194310Y138483D01*
G37*
G36*
X216761Y116032D02*
X224843Y107950D01*
X216761Y99868D01*
X208679Y107950D01*
X216761Y116032D01*
G37*
G36*
X205535Y127257D02*
X213617Y119175D01*
X205535Y111093D01*
X197453Y119175D01*
X205535Y127257D01*
G37*
G36*
X205535Y104807D02*
X213617Y96725D01*
X205535Y88643D01*
X197453Y96725D01*
X205535Y104807D01*
G37*
G36*
X194310Y116032D02*
X202392Y107950D01*
X194310Y99868D01*
X186228Y107950D01*
X194310Y116032D01*
G37*
G36*
X183085Y127257D02*
X191167Y119175D01*
X183085Y111093D01*
X175003Y119175D01*
X183085Y127257D01*
G37*
D11*
G36*
X225114Y72862D02*
X221579Y69327D01*
X218044Y72862D01*
X221579Y76397D01*
X225114Y72862D01*
G37*
G36*
X232298Y80046D02*
X228763Y76511D01*
X225228Y80046D01*
X228763Y83581D01*
X232298Y80046D01*
G37*
D17*
G36*
X176046Y66472D02*
X173924Y64350D01*
X169258Y69016D01*
X171380Y71138D01*
X176046Y66472D01*
G37*
G36*
X171450Y61875D02*
X169328Y59753D01*
X164662Y64419D01*
X166784Y66541D01*
X171450Y61875D01*
G37*
G36*
X166854Y57279D02*
X164732Y55157D01*
X160066Y59823D01*
X162188Y61945D01*
X166854Y57279D01*
G37*
G36*
X173077Y46812D02*
X175199Y48934D01*
X179865Y44268D01*
X177743Y42146D01*
X173077Y46812D01*
G37*
G36*
X177673Y51409D02*
X179795Y53531D01*
X184461Y48865D01*
X182339Y46743D01*
X177673Y51409D01*
G37*
G36*
X182269Y56005D02*
X184391Y58127D01*
X189057Y53461D01*
X186935Y51339D01*
X182269Y56005D01*
G37*
D11*
G36*
X238563Y93508D02*
X242098Y97043D01*
X245633Y93508D01*
X242098Y89973D01*
X238563Y93508D01*
G37*
G36*
X231379Y86324D02*
X234914Y89859D01*
X238449Y86324D01*
X234914Y82789D01*
X231379Y86324D01*
G37*
D18*
X85779Y91186D03*
X60779Y91186D03*
D19*
X94132Y118190D03*
X103632Y118190D03*
X113132Y118190D03*
X113132Y144192D03*
X94132Y144192D03*
D14*
X67310Y58420D03*
X67310Y48260D03*
D10*
X111633Y100584D03*
X96393Y100584D03*
D14*
X103505Y154940D03*
X113665Y154940D03*
X274955Y119507D03*
X285115Y119507D03*
D20*
X55880Y49022D03*
X55880Y60198D03*
X78740Y49022D03*
X78740Y60198D03*
D14*
X129159Y136398D03*
X139319Y136398D03*
X139319Y147320D03*
X129159Y147320D03*
D21*
X87884Y71780D03*
D14*
X99060Y70104D03*
X99060Y80264D03*
X77470Y105410D03*
X67310Y105410D03*
D22*
X41268Y-99466D03*
X48768Y-99466D03*
X56268Y-99466D03*
X56268Y-118466D03*
X48768Y-118466D03*
X41268Y-118466D03*
D23*
X268650Y33972D03*
X268650Y140972D03*
X304350Y140972D03*
X304350Y118972D03*
D24*
G36*
X68978Y119380D02*
X72390Y122792D01*
X75802Y119380D01*
X72390Y115968D01*
X68978Y119380D01*
G37*
D11*
G36*
X215102Y147885D02*
X211567Y151420D01*
X215102Y154955D01*
X218637Y151420D01*
X215102Y147885D01*
G37*
G36*
X222286Y140701D02*
X218751Y144236D01*
X222286Y147771D01*
X225821Y144236D01*
X222286Y140701D01*
G37*
D25*
X55474Y-86614D03*
D14*
X171450Y147320D03*
X161290Y147320D03*
D26*
X292354Y108165D03*
X292354Y119165D03*
D14*
X267335Y119380D03*
X267335Y109220D03*
D27*
G36*
X234063Y-134410D02*
X238733Y-139080D01*
X231909Y-145904D01*
X227239Y-141234D01*
X234063Y-134410D01*
G37*
G36*
X224185Y-124532D02*
X228855Y-129202D01*
X222031Y-136026D01*
X217361Y-131356D01*
X224185Y-124532D01*
G37*
D28*
G36*
X188932Y-109111D02*
X190346Y-110525D01*
X188932Y-111939D01*
X187518Y-110525D01*
X188932Y-109111D01*
G37*
G36*
X191760Y-106283D02*
X193174Y-107697D01*
X191760Y-109111D01*
X190346Y-107697D01*
X191760Y-106283D01*
G37*
D29*
G36*
X204422Y-188246D02*
X208373Y-192197D01*
X204064Y-196506D01*
X200113Y-192555D01*
X204422Y-188246D01*
G37*
G36*
X198495Y-182319D02*
X202446Y-186270D01*
X198137Y-190579D01*
X194186Y-186628D01*
X198495Y-182319D01*
G37*
D30*
G36*
X212177Y-117897D02*
X216419Y-122139D01*
X210763Y-127795D01*
X206521Y-123553D01*
X212177Y-117897D01*
G37*
G36*
X220663Y-109412D02*
X224905Y-113654D01*
X219249Y-119310D01*
X215007Y-115068D01*
X220663Y-109412D01*
G37*
D31*
G36*
X243929Y-146849D02*
X241416Y-149362D01*
X239081Y-147027D01*
X241594Y-144514D01*
X243929Y-146849D01*
G37*
G36*
X248060Y-142718D02*
X245547Y-145231D01*
X243212Y-142896D01*
X245725Y-140383D01*
X248060Y-142718D01*
G37*
D32*
G36*
X174916Y-167517D02*
X182819Y-159614D01*
X195570Y-172365D01*
X187667Y-180268D01*
X174916Y-167517D01*
G37*
G36*
X153723Y-188710D02*
X161626Y-180807D01*
X174377Y-193558D01*
X166474Y-201461D01*
X153723Y-188710D01*
G37*
D33*
G36*
X228120Y-170998D02*
X233149Y-176027D01*
X220758Y-188418D01*
X215729Y-183389D01*
X228120Y-170998D01*
G37*
G36*
X243387Y-155731D02*
X248416Y-160760D01*
X236025Y-173151D01*
X230996Y-168122D01*
X243387Y-155731D01*
G37*
D29*
G36*
X204537Y-148188D02*
X200586Y-152139D01*
X196277Y-147830D01*
X200228Y-143879D01*
X204537Y-148188D01*
G37*
G36*
X210464Y-142261D02*
X206513Y-146212D01*
X202204Y-141903D01*
X206155Y-137952D01*
X210464Y-142261D01*
G37*
G36*
X163818Y-155580D02*
X167769Y-159531D01*
X163460Y-163840D01*
X159509Y-159889D01*
X163818Y-155580D01*
G37*
G36*
X157891Y-149653D02*
X161842Y-153604D01*
X157533Y-157913D01*
X153582Y-153962D01*
X157891Y-149653D01*
G37*
D34*
G36*
X201562Y-202932D02*
X209465Y-210835D01*
X199228Y-221072D01*
X191325Y-213169D01*
X201562Y-202932D01*
G37*
G36*
X188810Y-190180D02*
X196713Y-198083D01*
X186476Y-208320D01*
X178573Y-200417D01*
X188810Y-190180D01*
G37*
D31*
G36*
X195965Y-116348D02*
X193452Y-118861D01*
X191117Y-116526D01*
X193630Y-114013D01*
X195965Y-116348D01*
G37*
G36*
X200096Y-112217D02*
X197583Y-114730D01*
X195248Y-112395D01*
X197761Y-109882D01*
X200096Y-112217D01*
G37*
D35*
G36*
X195685Y-132428D02*
X199573Y-128540D01*
X201341Y-130308D01*
X197453Y-134196D01*
X195685Y-132428D01*
G37*
G36*
X192149Y-128893D02*
X196037Y-125005D01*
X197805Y-126773D01*
X193917Y-130661D01*
X192149Y-128893D01*
G37*
G36*
X188614Y-125357D02*
X192502Y-121469D01*
X194270Y-123237D01*
X190382Y-127125D01*
X188614Y-125357D01*
G37*
G36*
X185078Y-121822D02*
X188966Y-117934D01*
X190734Y-119702D01*
X186846Y-123590D01*
X185078Y-121822D01*
G37*
G36*
X168461Y-138439D02*
X172349Y-134551D01*
X174117Y-136319D01*
X170229Y-140207D01*
X168461Y-138439D01*
G37*
G36*
X171997Y-141974D02*
X175885Y-138086D01*
X177653Y-139854D01*
X173765Y-143742D01*
X171997Y-141974D01*
G37*
G36*
X175532Y-145510D02*
X179420Y-141622D01*
X181188Y-143390D01*
X177300Y-147278D01*
X175532Y-145510D01*
G37*
G36*
X179068Y-149045D02*
X182956Y-145157D01*
X184724Y-146925D01*
X180836Y-150813D01*
X179068Y-149045D01*
G37*
D29*
G36*
X213856Y-157581D02*
X209905Y-161532D01*
X205596Y-157223D01*
X209547Y-153272D01*
X213856Y-157581D01*
G37*
G36*
X219783Y-151654D02*
X215832Y-155605D01*
X211523Y-151296D01*
X215474Y-147345D01*
X219783Y-151654D01*
G37*
G36*
X206874Y-104720D02*
X210825Y-108671D01*
X206516Y-112980D01*
X202565Y-109029D01*
X206874Y-104720D01*
G37*
G36*
X200947Y-98793D02*
X204898Y-102744D01*
X200589Y-107053D01*
X196638Y-103102D01*
X200947Y-98793D01*
G37*
D36*
G36*
X142657Y-132749D02*
X140536Y-134870D01*
X129223Y-123557D01*
X131344Y-121436D01*
X142657Y-132749D01*
G37*
G36*
X147253Y-128153D02*
X145132Y-130274D01*
X133819Y-118961D01*
X135940Y-116840D01*
X147253Y-128153D01*
G37*
G36*
X151849Y-123557D02*
X149728Y-125678D01*
X138415Y-114365D01*
X140536Y-112244D01*
X151849Y-123557D01*
G37*
G36*
X156445Y-118961D02*
X154324Y-121082D01*
X143011Y-109769D01*
X145132Y-107648D01*
X156445Y-118961D01*
G37*
G36*
X161042Y-114365D02*
X158921Y-116486D01*
X147608Y-105173D01*
X149729Y-103052D01*
X161042Y-114365D01*
G37*
G36*
X165638Y-109768D02*
X163517Y-111889D01*
X152204Y-100576D01*
X154325Y-98455D01*
X165638Y-109768D01*
G37*
G36*
X170234Y-105172D02*
X168113Y-107293D01*
X156800Y-95980D01*
X158921Y-93859D01*
X170234Y-105172D01*
G37*
G36*
X174830Y-100576D02*
X172709Y-102697D01*
X161396Y-91384D01*
X163517Y-89263D01*
X174830Y-100576D01*
G37*
G36*
X135232Y-60978D02*
X133111Y-63099D01*
X121798Y-51786D01*
X123919Y-49665D01*
X135232Y-60978D01*
G37*
G36*
X130636Y-65574D02*
X128515Y-67695D01*
X117202Y-56382D01*
X119323Y-54261D01*
X130636Y-65574D01*
G37*
G36*
X126040Y-70170D02*
X123919Y-72291D01*
X112606Y-60978D01*
X114727Y-58857D01*
X126040Y-70170D01*
G37*
G36*
X121444Y-74767D02*
X119323Y-76888D01*
X108010Y-65575D01*
X110131Y-63454D01*
X121444Y-74767D01*
G37*
G36*
X116847Y-79363D02*
X114726Y-81484D01*
X103413Y-70171D01*
X105534Y-68050D01*
X116847Y-79363D01*
G37*
G36*
X112251Y-83959D02*
X110130Y-86080D01*
X98817Y-74767D01*
X100938Y-72646D01*
X112251Y-83959D01*
G37*
G36*
X107655Y-88555D02*
X105534Y-90676D01*
X94221Y-79363D01*
X96342Y-77242D01*
X107655Y-88555D01*
G37*
G36*
X103059Y-93151D02*
X100938Y-95272D01*
X89625Y-83959D01*
X91746Y-81838D01*
X103059Y-93151D01*
G37*
D37*
G36*
X149091Y-92798D02*
X132757Y-109132D01*
X115363Y-91738D01*
X131697Y-75404D01*
X149091Y-92798D01*
G37*
D38*
G36*
X111246Y-151065D02*
X101347Y-141166D01*
X114074Y-128439D01*
X123973Y-138338D01*
X111246Y-151065D01*
G37*
G36*
X93286Y-133105D02*
X83387Y-123206D01*
X96114Y-110479D01*
X106013Y-120378D01*
X93286Y-133105D01*
G37*
D39*
G36*
X83928Y-56673D02*
X92696Y-65441D01*
X82090Y-76047D01*
X73322Y-67279D01*
X83928Y-56673D01*
G37*
G36*
X70493Y-43238D02*
X79261Y-52006D01*
X68655Y-62612D01*
X59887Y-53844D01*
X70493Y-43238D01*
G37*
G36*
X109343Y-59199D02*
X100575Y-67967D01*
X89969Y-57361D01*
X98737Y-48593D01*
X109343Y-59199D01*
G37*
G36*
X122778Y-45764D02*
X114010Y-54532D01*
X103404Y-43926D01*
X112172Y-35158D01*
X122778Y-45764D01*
G37*
G36*
X101246Y-41557D02*
X92478Y-50325D01*
X81872Y-39719D01*
X90640Y-30951D01*
X101246Y-41557D01*
G37*
G36*
X114681Y-28122D02*
X105913Y-36890D01*
X95307Y-26284D01*
X104075Y-17516D01*
X114681Y-28122D01*
G37*
G36*
X79277Y-17631D02*
X88045Y-8863D01*
X98651Y-19469D01*
X89883Y-28237D01*
X79277Y-17631D01*
G37*
G36*
X65842Y-31066D02*
X74610Y-22298D01*
X85216Y-32904D01*
X76448Y-41672D01*
X65842Y-31066D01*
G37*
D19*
G36*
X163655Y32626D02*
X167544Y28737D01*
X159059Y20252D01*
X155170Y24141D01*
X163655Y32626D01*
G37*
G36*
X156938Y39343D02*
X160827Y35454D01*
X152342Y26969D01*
X148453Y30858D01*
X156938Y39343D01*
G37*
G36*
X150220Y46061D02*
X154109Y42172D01*
X145624Y33687D01*
X141735Y37576D01*
X150220Y46061D01*
G37*
G36*
X131835Y27676D02*
X135724Y23787D01*
X127239Y15302D01*
X123350Y19191D01*
X131835Y27676D01*
G37*
G36*
X138553Y20959D02*
X142442Y17070D01*
X133957Y8585D01*
X130068Y12474D01*
X138553Y20959D01*
G37*
G36*
X145270Y14241D02*
X149159Y10352D01*
X140674Y1867D01*
X136785Y5756D01*
X145270Y14241D01*
G37*
D40*
G36*
X387029Y-33279D02*
X390387Y-36637D01*
X388619Y-38405D01*
X385261Y-35047D01*
X387029Y-33279D01*
G37*
G36*
X390564Y-29743D02*
X393922Y-33101D01*
X392154Y-34869D01*
X388796Y-31511D01*
X390564Y-29743D01*
G37*
G36*
X394100Y-26208D02*
X397458Y-29566D01*
X395690Y-31334D01*
X392332Y-27976D01*
X394100Y-26208D01*
G37*
G36*
X397635Y-22672D02*
X400993Y-26030D01*
X399225Y-27798D01*
X395867Y-24440D01*
X397635Y-22672D01*
G37*
G36*
X392332Y-20197D02*
X395690Y-16839D01*
X397458Y-18607D01*
X394100Y-21965D01*
X392332Y-20197D01*
G37*
G36*
X388796Y-16661D02*
X392154Y-13303D01*
X393922Y-15071D01*
X390564Y-18429D01*
X388796Y-16661D01*
G37*
G36*
X385261Y-13126D02*
X388619Y-9768D01*
X390387Y-11536D01*
X387029Y-14894D01*
X385261Y-13126D01*
G37*
G36*
X382785Y-11358D02*
X379427Y-8000D01*
X381195Y-6232D01*
X384553Y-9590D01*
X382785Y-11358D01*
G37*
G36*
X379249Y-14894D02*
X375891Y-11536D01*
X377659Y-9768D01*
X381017Y-13126D01*
X379249Y-14894D01*
G37*
G36*
X375714Y-18429D02*
X372356Y-15071D01*
X374124Y-13303D01*
X377482Y-16661D01*
X375714Y-18429D01*
G37*
G36*
X372178Y-21965D02*
X368820Y-18607D01*
X370588Y-16839D01*
X373946Y-20197D01*
X372178Y-21965D01*
G37*
G36*
X377482Y-24440D02*
X374124Y-27798D01*
X372356Y-26030D01*
X375714Y-22672D01*
X377482Y-24440D01*
G37*
G36*
X381017Y-27976D02*
X377659Y-31334D01*
X375891Y-29566D01*
X379249Y-26208D01*
X381017Y-27976D01*
G37*
G36*
X384553Y-31511D02*
X381195Y-34869D01*
X379427Y-33101D01*
X382785Y-29743D01*
X384553Y-31511D01*
G37*
D41*
G36*
X366451Y-8920D02*
X358850Y-16521D01*
X351779Y-9450D01*
X359380Y-1849D01*
X366451Y-8920D01*
G37*
G36*
X378471Y3100D02*
X370870Y-4501D01*
X363799Y2570D01*
X371400Y10171D01*
X378471Y3100D01*
G37*
D42*
G36*
X357407Y10029D02*
X350336Y2958D01*
X342559Y10735D01*
X349630Y17806D01*
X357407Y10029D01*
G37*
G36*
X369428Y22050D02*
X362357Y14979D01*
X354580Y22756D01*
X361651Y29827D01*
X369428Y22050D01*
G37*
G36*
X323072Y-43013D02*
X316001Y-35942D01*
X323778Y-28165D01*
X330849Y-35236D01*
X323072Y-43013D01*
G37*
G36*
X335093Y-55034D02*
X328022Y-47963D01*
X335799Y-40186D01*
X342870Y-47257D01*
X335093Y-55034D01*
G37*
D43*
G36*
X335709Y127572D02*
X341916Y121055D01*
X335399Y114848D01*
X329192Y121365D01*
X335709Y127572D01*
G37*
G36*
X347296Y138606D02*
X353503Y132089D01*
X346986Y125882D01*
X340779Y132399D01*
X347296Y138606D01*
G37*
G36*
X375570Y108915D02*
X381777Y102398D01*
X375260Y96191D01*
X369053Y102708D01*
X375570Y108915D01*
G37*
G36*
X363984Y97881D02*
X370191Y91364D01*
X363674Y85157D01*
X357467Y91674D01*
X363984Y97881D01*
G37*
D44*
G36*
X354408Y-129114D02*
X347337Y-122043D01*
X386226Y-83154D01*
X393297Y-90225D01*
X354408Y-129114D01*
G37*
G36*
X340266Y-114972D02*
X333195Y-107901D01*
X372084Y-69012D01*
X379155Y-76083D01*
X340266Y-114972D01*
G37*
D45*
G36*
X366429Y-155278D02*
X355115Y-143964D01*
X376327Y-122752D01*
X387641Y-134066D01*
X366429Y-155278D01*
G37*
G36*
X318345Y-107194D02*
X307031Y-95880D01*
X328243Y-74668D01*
X339557Y-85982D01*
X318345Y-107194D01*
G37*
D44*
G36*
X302765Y-138463D02*
X309836Y-145534D01*
X270947Y-184423D01*
X263876Y-177352D01*
X302765Y-138463D01*
G37*
G36*
X316907Y-152605D02*
X323978Y-159676D01*
X285089Y-198565D01*
X278018Y-191494D01*
X316907Y-152605D01*
G37*
D45*
G36*
X290744Y-112300D02*
X302058Y-123614D01*
X280846Y-144826D01*
X269532Y-133512D01*
X290744Y-112300D01*
G37*
G36*
X338827Y-160383D02*
X350141Y-171697D01*
X328929Y-192909D01*
X317615Y-181595D01*
X338827Y-160383D01*
G37*
D46*
X50563Y-6050D03*
X50563Y-12550D03*
X50563Y-19050D03*
X50563Y-25550D03*
X50563Y-32050D03*
D47*
X48313Y12950D03*
X48313Y-51050D03*
D48*
X23813Y-7050D03*
X23813Y-31050D03*
M02*
