G04 EAGLE Gerber RS-274X export*
G75*
%MOIN*%
%FSLAX34Y34*%
%LPD*%
%INCopper Layer 2*%
%IPPOS*%
%AMOC8*
5,1,8,0,0,1.08239X$1,22.5*%
G01*
%ADD10C,0.029528*%
%ADD11C,0.041339*%
%ADD12C,0.015874*%
%ADD13C,0.019811*%
%ADD14C,0.021780*%
%ADD15C,0.017843*%

G36*
X8130Y-8972D02*
X8130Y-8972D01*
X8131Y-8972D01*
X9227Y-8935D01*
X9231Y-8934D01*
X9233Y-8934D01*
X10314Y-8752D01*
X10318Y-8751D01*
X10320Y-8750D01*
X11367Y-8426D01*
X11371Y-8424D01*
X11373Y-8423D01*
X12368Y-7962D01*
X12371Y-7960D01*
X12373Y-7959D01*
X13297Y-7369D01*
X13301Y-7366D01*
X13303Y-7365D01*
X14140Y-6657D01*
X14142Y-6654D01*
X14144Y-6653D01*
X14880Y-5840D01*
X14882Y-5836D01*
X14884Y-5835D01*
X15504Y-4931D01*
X15506Y-4927D01*
X15507Y-4926D01*
X16002Y-3947D01*
X16003Y-3943D01*
X16004Y-3941D01*
X16364Y-2906D01*
X16365Y-2902D01*
X16365Y-2899D01*
X16584Y-1825D01*
X16584Y-1821D01*
X16585Y-1819D01*
X16658Y-725D01*
X16658Y-721D01*
X16658Y-719D01*
X16585Y375D01*
X16584Y379D01*
X16584Y382D01*
X16365Y1456D01*
X16364Y1460D01*
X16364Y1462D01*
X16004Y2497D01*
X16002Y2501D01*
X16002Y2504D01*
X15507Y3482D01*
X15505Y3485D01*
X15504Y3487D01*
X15345Y3719D01*
X15342Y3722D01*
X15340Y3725D01*
X15338Y3727D01*
X15337Y3728D01*
X15333Y3730D01*
X15330Y3733D01*
X15328Y3734D01*
X15326Y3735D01*
X15323Y3736D01*
X15319Y3738D01*
X15317Y3739D01*
X15315Y3739D01*
X15311Y3740D01*
X15307Y3740D01*
X15305Y3740D01*
X15302Y3740D01*
X15298Y3740D01*
X15295Y3739D01*
X15292Y3739D01*
X15290Y3738D01*
X15286Y3737D01*
X15283Y3735D01*
X15281Y3734D01*
X15279Y3733D01*
X15276Y3731D01*
X15272Y3729D01*
X15271Y3727D01*
X15269Y3725D01*
X15267Y3722D01*
X15264Y3719D01*
X15263Y3717D01*
X15262Y3715D01*
X15260Y3712D01*
X15258Y3708D01*
X15258Y3707D01*
X15257Y3704D01*
X15255Y3692D01*
X15255Y3691D01*
X15255Y3634D01*
X15179Y3557D01*
X15071Y3557D01*
X14995Y3634D01*
X14995Y3741D01*
X15071Y3818D01*
X15184Y3818D01*
X15185Y3818D01*
X15186Y3818D01*
X15191Y3819D01*
X15196Y3819D01*
X15197Y3820D01*
X15198Y3820D01*
X15203Y3822D01*
X15208Y3824D01*
X15209Y3825D01*
X15213Y3828D01*
X15218Y3831D01*
X15218Y3832D01*
X15219Y3833D01*
X15222Y3837D01*
X15225Y3841D01*
X15226Y3842D01*
X15227Y3843D01*
X15229Y3847D01*
X15231Y3852D01*
X15231Y3853D01*
X15231Y3854D01*
X15232Y3859D01*
X15233Y3864D01*
X15233Y3865D01*
X15233Y3866D01*
X15232Y3872D01*
X15232Y3877D01*
X15232Y3878D01*
X15232Y3879D01*
X15231Y3881D01*
X15228Y3888D01*
X15225Y3893D01*
X15224Y3895D01*
X14884Y4391D01*
X14881Y4394D01*
X14880Y4396D01*
X14144Y5209D01*
X14141Y5212D01*
X14140Y5214D01*
X13303Y5921D01*
X13299Y5924D01*
X13297Y5925D01*
X12373Y6515D01*
X12369Y6517D01*
X12368Y6518D01*
X11373Y6980D01*
X11369Y6981D01*
X11367Y6982D01*
X10320Y7307D01*
X10316Y7307D01*
X10314Y7308D01*
X9233Y7491D01*
X9229Y7491D01*
X9227Y7491D01*
X8131Y7528D01*
X8127Y7527D01*
X8125Y7528D01*
X7034Y7418D01*
X7030Y7417D01*
X7028Y7417D01*
X5961Y7163D01*
X5957Y7161D01*
X5955Y7161D01*
X4932Y6767D01*
X4928Y6765D01*
X4926Y6764D01*
X3965Y6237D01*
X3962Y6235D01*
X3959Y6234D01*
X3338Y5776D01*
X3336Y5774D01*
X3334Y5773D01*
X3332Y5770D01*
X3329Y5767D01*
X3328Y5765D01*
X3326Y5764D01*
X3325Y5760D01*
X3323Y5757D01*
X3322Y5755D01*
X3321Y5752D01*
X3320Y5749D01*
X3319Y5745D01*
X3319Y5743D01*
X3318Y5740D01*
X3318Y5736D01*
X3318Y5733D01*
X3319Y5730D01*
X3319Y5728D01*
X3320Y5724D01*
X3321Y5720D01*
X3322Y5718D01*
X3323Y5716D01*
X3324Y5714D01*
X3326Y5709D01*
X3331Y5704D01*
X3333Y5701D01*
X3420Y5614D01*
X3420Y5506D01*
X3344Y5430D01*
X3236Y5430D01*
X3160Y5506D01*
X3160Y5547D01*
X3160Y5549D01*
X3160Y5551D01*
X3159Y5555D01*
X3158Y5560D01*
X3158Y5561D01*
X3157Y5563D01*
X3155Y5567D01*
X3154Y5571D01*
X3153Y5573D01*
X3152Y5574D01*
X3149Y5578D01*
X3146Y5581D01*
X3145Y5582D01*
X3144Y5584D01*
X3140Y5586D01*
X3137Y5589D01*
X3135Y5590D01*
X3133Y5591D01*
X3129Y5592D01*
X3125Y5594D01*
X3124Y5594D01*
X3122Y5595D01*
X3117Y5596D01*
X3113Y5596D01*
X3111Y5596D01*
X3109Y5596D01*
X3105Y5596D01*
X3101Y5595D01*
X3099Y5595D01*
X3097Y5595D01*
X3095Y5593D01*
X3089Y5591D01*
X3084Y5588D01*
X3081Y5587D01*
X3077Y5584D01*
X3076Y5582D01*
X3074Y5581D01*
X3073Y5580D01*
X3072Y5579D01*
X2284Y4817D01*
X2281Y4814D01*
X2280Y4812D01*
X2173Y4677D01*
X2171Y4675D01*
X2170Y4672D01*
X2168Y4669D01*
X2166Y4666D01*
X2165Y4664D01*
X2164Y4661D01*
X2164Y4658D01*
X2163Y4654D01*
X2163Y4652D01*
X2162Y4649D01*
X2162Y4645D01*
X2162Y4642D01*
X2163Y4639D01*
X2163Y4637D01*
X2164Y4633D01*
X2165Y4630D01*
X2166Y4627D01*
X2167Y4625D01*
X2169Y4622D01*
X2171Y4619D01*
X2172Y4617D01*
X2174Y4614D01*
X2176Y4612D01*
X2179Y4609D01*
X2181Y4608D01*
X2183Y4606D01*
X2186Y4604D01*
X2189Y4602D01*
X2192Y4602D01*
X2194Y4600D01*
X2196Y4600D01*
X2201Y4598D01*
X2209Y4598D01*
X2211Y4597D01*
X2254Y4597D01*
X2347Y4504D01*
X2347Y4371D01*
X2254Y4278D01*
X2121Y4278D01*
X2016Y4383D01*
X2014Y4386D01*
X2013Y4387D01*
X2011Y4389D01*
X2008Y4391D01*
X2005Y4393D01*
X2003Y4394D01*
X2001Y4396D01*
X1997Y4397D01*
X1993Y4399D01*
X1991Y4399D01*
X1989Y4400D01*
X1985Y4400D01*
X1981Y4401D01*
X1979Y4401D01*
X1977Y4401D01*
X1973Y4400D01*
X1969Y4400D01*
X1967Y4399D01*
X1964Y4399D01*
X1961Y4397D01*
X1957Y4396D01*
X1955Y4395D01*
X1953Y4394D01*
X1951Y4392D01*
X1947Y4389D01*
X1942Y4384D01*
X1940Y4382D01*
X1600Y3952D01*
X1598Y3949D01*
X1597Y3947D01*
X1038Y3004D01*
X1036Y3000D01*
X1035Y2998D01*
X607Y1989D01*
X606Y1985D01*
X605Y1983D01*
X316Y925D01*
X315Y921D01*
X314Y919D01*
X168Y-167D01*
X168Y-172D01*
X168Y-174D01*
X168Y-1270D01*
X168Y-1274D01*
X168Y-1276D01*
X314Y-2363D01*
X315Y-2367D01*
X316Y-2369D01*
X398Y-2671D01*
X400Y-2676D01*
X403Y-2682D01*
X406Y-2687D01*
X410Y-2692D01*
X415Y-2696D01*
X416Y-2697D01*
X415Y-2698D01*
X415Y-2699D01*
X413Y-2705D01*
X412Y-2710D01*
X412Y-2711D01*
X413Y-2723D01*
X413Y-2726D01*
X414Y-2727D01*
X414Y-2728D01*
X605Y-3426D01*
X607Y-3430D01*
X607Y-3433D01*
X1035Y-4442D01*
X1037Y-4445D01*
X1038Y-4448D01*
X1597Y-5391D01*
X1599Y-5394D01*
X1600Y-5396D01*
X2280Y-6256D01*
X2283Y-6259D01*
X2284Y-6261D01*
X2713Y-6676D01*
X2715Y-6677D01*
X2717Y-6679D01*
X2720Y-6681D01*
X2723Y-6683D01*
X2725Y-6684D01*
X2727Y-6686D01*
X2731Y-6687D01*
X2734Y-6688D01*
X2737Y-6688D01*
X2739Y-6689D01*
X2743Y-6689D01*
X2747Y-6690D01*
X2749Y-6690D01*
X2752Y-6690D01*
X2755Y-6689D01*
X2759Y-6688D01*
X2761Y-6687D01*
X2764Y-6687D01*
X2767Y-6685D01*
X2771Y-6684D01*
X2773Y-6682D01*
X2775Y-6681D01*
X2778Y-6679D01*
X2781Y-6677D01*
X2782Y-6675D01*
X2784Y-6673D01*
X2786Y-6670D01*
X2789Y-6667D01*
X2790Y-6665D01*
X2791Y-6663D01*
X2792Y-6659D01*
X2794Y-6656D01*
X2795Y-6653D01*
X2795Y-6651D01*
X2796Y-6647D01*
X2796Y-6644D01*
X2796Y-6641D01*
X2796Y-6639D01*
X2796Y-6636D01*
X2796Y-6631D01*
X2793Y-6624D01*
X2793Y-6622D01*
X2709Y-6420D01*
X2709Y-6205D01*
X2792Y-6006D01*
X2944Y-5854D01*
X3142Y-5772D01*
X3358Y-5772D01*
X3556Y-5854D01*
X3708Y-6006D01*
X3791Y-6205D01*
X3791Y-6420D01*
X3708Y-6619D01*
X3556Y-6771D01*
X3358Y-6853D01*
X3142Y-6853D01*
X2951Y-6774D01*
X2948Y-6773D01*
X2945Y-6772D01*
X2942Y-6772D01*
X2939Y-6771D01*
X2936Y-6771D01*
X2933Y-6770D01*
X2930Y-6771D01*
X2927Y-6771D01*
X2924Y-6771D01*
X2920Y-6772D01*
X2918Y-6773D01*
X2915Y-6774D01*
X2912Y-6775D01*
X2909Y-6776D01*
X2906Y-6778D01*
X2904Y-6779D01*
X2901Y-6782D01*
X2899Y-6783D01*
X2897Y-6786D01*
X2895Y-6788D01*
X2893Y-6791D01*
X2891Y-6793D01*
X2890Y-6796D01*
X2888Y-6798D01*
X2887Y-6801D01*
X2886Y-6804D01*
X2885Y-6807D01*
X2884Y-6810D01*
X2884Y-6813D01*
X2883Y-6816D01*
X2883Y-6820D01*
X2883Y-6823D01*
X2884Y-6826D01*
X2884Y-6829D01*
X2885Y-6832D01*
X2886Y-6835D01*
X2887Y-6838D01*
X2888Y-6841D01*
X2889Y-6842D01*
X2891Y-6846D01*
X2897Y-6854D01*
X2898Y-6855D01*
X3072Y-7023D01*
X3075Y-7026D01*
X3077Y-7027D01*
X3959Y-7678D01*
X3963Y-7680D01*
X3965Y-7681D01*
X4926Y-8208D01*
X4930Y-8209D01*
X4932Y-8211D01*
X5955Y-8605D01*
X5959Y-8606D01*
X5961Y-8606D01*
X7028Y-8861D01*
X7032Y-8861D01*
X7034Y-8862D01*
X8125Y-8971D01*
X8128Y-8971D01*
X8129Y-8972D01*
X8130Y-8972D01*
X8130Y-8972D01*
G37*
%LPC*%
G36*
X7697Y-3701D02*
X7697Y-3701D01*
X7572Y-3631D01*
X7568Y-3630D01*
X7565Y-3628D01*
X7563Y-3627D01*
X7560Y-3626D01*
X7548Y-3625D01*
X7546Y-3625D01*
X7532Y-3611D01*
X7522Y-3603D01*
X7521Y-3603D01*
X7504Y-3593D01*
X7504Y-3591D01*
X7502Y-3588D01*
X7501Y-3584D01*
X7500Y-3583D01*
X7499Y-3580D01*
X7493Y-3572D01*
X7492Y-3571D01*
X7491Y-3570D01*
X5524Y-1603D01*
X5523Y-1602D01*
X5522Y-1601D01*
X5520Y-1600D01*
X5514Y-1595D01*
X5509Y-1593D01*
X5507Y-1592D01*
X5498Y-1588D01*
X5494Y-1577D01*
X5493Y-1577D01*
X5493Y-1576D01*
X5492Y-1575D01*
X5487Y-1566D01*
X5484Y-1564D01*
X5483Y-1562D01*
X5475Y-1553D01*
X5475Y-1544D01*
X5474Y-1543D01*
X5475Y-1541D01*
X5474Y-1539D01*
X5473Y-1531D01*
X5471Y-1527D01*
X5471Y-1524D01*
X5406Y-1376D01*
X5367Y-993D01*
X5445Y-617D01*
X5633Y-282D01*
X5771Y-152D01*
X5772Y-152D01*
X5772Y-151D01*
X5960Y36D01*
X5963Y40D01*
X5966Y44D01*
X5967Y45D01*
X5968Y46D01*
X5969Y51D01*
X5972Y55D01*
X5972Y56D01*
X5972Y58D01*
X5973Y63D01*
X5974Y67D01*
X5974Y69D01*
X5974Y70D01*
X5974Y75D01*
X5974Y80D01*
X5973Y81D01*
X5973Y82D01*
X5971Y87D01*
X5970Y92D01*
X5969Y92D01*
X5969Y94D01*
X5962Y104D01*
X5961Y105D01*
X5960Y106D01*
X5870Y196D01*
X5870Y304D01*
X5946Y380D01*
X6054Y380D01*
X6144Y290D01*
X6148Y287D01*
X6152Y284D01*
X6153Y283D01*
X6154Y282D01*
X6158Y281D01*
X6163Y278D01*
X6164Y278D01*
X6165Y278D01*
X6170Y277D01*
X6175Y276D01*
X6176Y276D01*
X6177Y276D01*
X6182Y276D01*
X6187Y276D01*
X6189Y277D01*
X6190Y277D01*
X6194Y279D01*
X6199Y280D01*
X6200Y281D01*
X6202Y281D01*
X6212Y288D01*
X6213Y289D01*
X6214Y290D01*
X7793Y1870D01*
X7836Y1912D01*
X7839Y1916D01*
X7878Y1955D01*
X7969Y2046D01*
X8305Y2218D01*
X8678Y2278D01*
X9051Y2220D01*
X9388Y2050D01*
X9480Y1960D01*
X9482Y1959D01*
X9523Y1918D01*
X9564Y1878D01*
X9565Y1876D01*
X9565Y1875D01*
X10155Y1288D01*
X10160Y1285D01*
X10164Y1281D01*
X10165Y1281D01*
X10165Y1280D01*
X10170Y1278D01*
X10175Y1276D01*
X10176Y1276D01*
X10177Y1275D01*
X10182Y1275D01*
X10187Y1274D01*
X10188Y1274D01*
X10189Y1274D01*
X10194Y1274D01*
X10200Y1275D01*
X10201Y1275D01*
X10206Y1277D01*
X10212Y1279D01*
X10213Y1279D01*
X10217Y1282D01*
X10222Y1285D01*
X10222Y1286D01*
X10223Y1286D01*
X10227Y1290D01*
X10230Y1295D01*
X10231Y1295D01*
X10231Y1296D01*
X10234Y1301D01*
X10236Y1306D01*
X10237Y1307D01*
X10239Y1319D01*
X10239Y1321D01*
X10239Y1323D01*
X10239Y1656D01*
X10254Y1671D01*
X10901Y1671D01*
X10916Y1656D01*
X10916Y1072D01*
X10901Y1057D01*
X10507Y1057D01*
X10501Y1056D01*
X10495Y1055D01*
X10494Y1055D01*
X10489Y1053D01*
X10484Y1051D01*
X10483Y1051D01*
X10478Y1047D01*
X10474Y1044D01*
X10473Y1044D01*
X10473Y1043D01*
X10469Y1039D01*
X10465Y1035D01*
X10465Y1034D01*
X10462Y1028D01*
X10460Y1023D01*
X10460Y1022D01*
X10459Y1017D01*
X10457Y1011D01*
X10457Y1010D01*
X10458Y1004D01*
X10458Y999D01*
X10458Y998D01*
X10460Y992D01*
X10462Y987D01*
X10462Y986D01*
X10469Y976D01*
X10471Y974D01*
X10472Y973D01*
X11020Y427D01*
X11023Y425D01*
X11026Y422D01*
X11062Y385D01*
X11100Y347D01*
X11103Y343D01*
X11103Y342D01*
X11185Y259D01*
X11347Y-52D01*
X11411Y-397D01*
X11373Y-746D01*
X11236Y-1069D01*
X11157Y-1163D01*
X11156Y-1165D01*
X11155Y-1166D01*
X11153Y-1170D01*
X11151Y-1174D01*
X11150Y-1176D01*
X11149Y-1177D01*
X11149Y-1179D01*
X11123Y-1205D01*
X11121Y-1207D01*
X11120Y-1208D01*
X11096Y-1236D01*
X11095Y-1237D01*
X11093Y-1238D01*
X11088Y-1241D01*
X11083Y-1245D01*
X11081Y-1247D01*
X9995Y-2327D01*
X8917Y-3408D01*
X8915Y-3410D01*
X8912Y-3413D01*
X8911Y-3415D01*
X8910Y-3417D01*
X8876Y-3449D01*
X8875Y-3449D01*
X8875Y-3450D01*
X8843Y-3482D01*
X8842Y-3482D01*
X8833Y-3489D01*
X8802Y-3518D01*
X8749Y-3568D01*
X8742Y-3574D01*
X8413Y-3728D01*
X8053Y-3772D01*
X7697Y-3701D01*
G37*
%LPD*%
%LPC*%
G36*
X10106Y-4473D02*
X10106Y-4473D01*
X10102Y-4469D01*
X10098Y-4466D01*
X10097Y-4466D01*
X10096Y-4465D01*
X10092Y-4463D01*
X10090Y-4462D01*
X10089Y-4460D01*
X10089Y-4459D01*
X10088Y-4458D01*
X10081Y-4448D01*
X10080Y-4447D01*
X10079Y-4446D01*
X9881Y-4247D01*
X9899Y-4235D01*
X9955Y-4212D01*
X10014Y-4200D01*
X10075Y-4200D01*
X10134Y-4212D01*
X10145Y-4216D01*
X10150Y-4218D01*
X10155Y-4219D01*
X10156Y-4219D01*
X10157Y-4219D01*
X10162Y-4219D01*
X10168Y-4220D01*
X10169Y-4220D01*
X10175Y-4218D01*
X10180Y-4217D01*
X10181Y-4217D01*
X10186Y-4214D01*
X10191Y-4211D01*
X10192Y-4211D01*
X10196Y-4207D01*
X10200Y-4203D01*
X10201Y-4203D01*
X10201Y-4202D01*
X10204Y-4198D01*
X10207Y-4193D01*
X10208Y-4192D01*
X10210Y-4187D01*
X10212Y-4181D01*
X10212Y-4180D01*
X10212Y-4174D01*
X10213Y-4169D01*
X10213Y-4168D01*
X10210Y-4155D01*
X10209Y-4153D01*
X10209Y-4152D01*
X10205Y-4141D01*
X10205Y-4039D01*
X10244Y-3944D01*
X10316Y-3872D01*
X10411Y-3832D01*
X10513Y-3832D01*
X10589Y-3864D01*
X10595Y-3865D01*
X10600Y-3867D01*
X10601Y-3867D01*
X10607Y-3867D01*
X10612Y-3867D01*
X10613Y-3867D01*
X10614Y-3867D01*
X10619Y-3866D01*
X10625Y-3865D01*
X10625Y-3864D01*
X10626Y-3864D01*
X10631Y-3862D01*
X10636Y-3859D01*
X10637Y-3858D01*
X10641Y-3855D01*
X10645Y-3851D01*
X10645Y-3850D01*
X10646Y-3850D01*
X10649Y-3845D01*
X10652Y-3841D01*
X10652Y-3840D01*
X10653Y-3840D01*
X10654Y-3834D01*
X10656Y-3829D01*
X10656Y-3828D01*
X10657Y-3828D01*
X10657Y-3822D01*
X10657Y-3817D01*
X10657Y-3816D01*
X10657Y-3815D01*
X10655Y-3803D01*
X10654Y-3801D01*
X10654Y-3799D01*
X10622Y-3723D01*
X10622Y-3621D01*
X10661Y-3526D01*
X10734Y-3454D01*
X10828Y-3415D01*
X10931Y-3415D01*
X11007Y-3446D01*
X11012Y-3448D01*
X11018Y-3449D01*
X11019Y-3450D01*
X11024Y-3450D01*
X11030Y-3450D01*
X11031Y-3450D01*
X11037Y-3448D01*
X11042Y-3447D01*
X11043Y-3447D01*
X11048Y-3444D01*
X11053Y-3442D01*
X11054Y-3441D01*
X11058Y-3437D01*
X11063Y-3433D01*
X11063Y-3432D01*
X11067Y-3428D01*
X11070Y-3423D01*
X11070Y-3422D01*
X11072Y-3417D01*
X11074Y-3411D01*
X11074Y-3410D01*
X11074Y-3405D01*
X11075Y-3399D01*
X11075Y-3398D01*
X11073Y-3386D01*
X11072Y-3383D01*
X11071Y-3382D01*
X11040Y-3306D01*
X11040Y-3203D01*
X11079Y-3109D01*
X11151Y-3036D01*
X11246Y-2997D01*
X11348Y-2997D01*
X11424Y-3029D01*
X11430Y-3030D01*
X11435Y-3032D01*
X11436Y-3032D01*
X11442Y-3032D01*
X11448Y-3032D01*
X11449Y-3032D01*
X11454Y-3031D01*
X11460Y-3030D01*
X11460Y-3029D01*
X11461Y-3029D01*
X11466Y-3027D01*
X11471Y-3024D01*
X11472Y-3023D01*
X11476Y-3019D01*
X11480Y-3016D01*
X11481Y-3015D01*
X11484Y-3010D01*
X11487Y-3006D01*
X11487Y-3005D01*
X11488Y-3004D01*
X11490Y-2999D01*
X11491Y-2994D01*
X11491Y-2993D01*
X11492Y-2993D01*
X11492Y-2987D01*
X11493Y-2981D01*
X11492Y-2981D01*
X11493Y-2980D01*
X11490Y-2968D01*
X11489Y-2966D01*
X11489Y-2964D01*
X11457Y-2888D01*
X11457Y-2786D01*
X11497Y-2691D01*
X11569Y-2619D01*
X11664Y-2580D01*
X11766Y-2580D01*
X11842Y-2611D01*
X11847Y-2613D01*
X11853Y-2614D01*
X11854Y-2614D01*
X11860Y-2614D01*
X11865Y-2615D01*
X11866Y-2615D01*
X11872Y-2613D01*
X11877Y-2612D01*
X11878Y-2612D01*
X11879Y-2612D01*
X11883Y-2609D01*
X11888Y-2606D01*
X11889Y-2606D01*
X11890Y-2606D01*
X11894Y-2602D01*
X11898Y-2598D01*
X11899Y-2597D01*
X11902Y-2593D01*
X11905Y-2588D01*
X11905Y-2587D01*
X11907Y-2582D01*
X11909Y-2576D01*
X11909Y-2575D01*
X11910Y-2569D01*
X11910Y-2564D01*
X11910Y-2563D01*
X11908Y-2550D01*
X11907Y-2548D01*
X11906Y-2547D01*
X11875Y-2471D01*
X11875Y-2368D01*
X11914Y-2274D01*
X11987Y-2201D01*
X12081Y-2162D01*
X12184Y-2162D01*
X12278Y-2201D01*
X12351Y-2274D01*
X12390Y-2368D01*
X12390Y-2471D01*
X12351Y-2565D01*
X12278Y-2638D01*
X12184Y-2677D01*
X12081Y-2677D01*
X12005Y-2645D01*
X12000Y-2644D01*
X11994Y-2642D01*
X11993Y-2642D01*
X11987Y-2642D01*
X11982Y-2642D01*
X11981Y-2642D01*
X11975Y-2643D01*
X11970Y-2644D01*
X11969Y-2645D01*
X11964Y-2647D01*
X11959Y-2650D01*
X11958Y-2650D01*
X11958Y-2651D01*
X11953Y-2655D01*
X11949Y-2658D01*
X11949Y-2659D01*
X11948Y-2659D01*
X11945Y-2664D01*
X11942Y-2668D01*
X11942Y-2669D01*
X11942Y-2670D01*
X11940Y-2675D01*
X11938Y-2680D01*
X11938Y-2681D01*
X11937Y-2687D01*
X11937Y-2693D01*
X11937Y-2694D01*
X11939Y-2706D01*
X11940Y-2708D01*
X11941Y-2710D01*
X11972Y-2786D01*
X11972Y-2888D01*
X11933Y-2983D01*
X11861Y-3055D01*
X11766Y-3094D01*
X11664Y-3094D01*
X11587Y-3063D01*
X11582Y-3061D01*
X11577Y-3060D01*
X11576Y-3060D01*
X11575Y-3060D01*
X11570Y-3060D01*
X11564Y-3059D01*
X11564Y-3060D01*
X11563Y-3059D01*
X11558Y-3061D01*
X11552Y-3062D01*
X11551Y-3062D01*
X11546Y-3065D01*
X11541Y-3068D01*
X11540Y-3068D01*
X11536Y-3072D01*
X11532Y-3076D01*
X11531Y-3076D01*
X11531Y-3077D01*
X11528Y-3081D01*
X11525Y-3086D01*
X11524Y-3087D01*
X11522Y-3093D01*
X11521Y-3098D01*
X11520Y-3098D01*
X11520Y-3099D01*
X11520Y-3105D01*
X11519Y-3110D01*
X11519Y-3111D01*
X11522Y-3124D01*
X11523Y-3126D01*
X11523Y-3127D01*
X11555Y-3203D01*
X11555Y-3306D01*
X11515Y-3400D01*
X11443Y-3473D01*
X11348Y-3512D01*
X11246Y-3512D01*
X11170Y-3481D01*
X11164Y-3479D01*
X11159Y-3477D01*
X11158Y-3477D01*
X11152Y-3477D01*
X11147Y-3477D01*
X11146Y-3477D01*
X11145Y-3477D01*
X11140Y-3478D01*
X11135Y-3480D01*
X11134Y-3480D01*
X11133Y-3480D01*
X11128Y-3483D01*
X11123Y-3485D01*
X11123Y-3486D01*
X11122Y-3486D01*
X11118Y-3490D01*
X11114Y-3493D01*
X11114Y-3494D01*
X11113Y-3494D01*
X11110Y-3499D01*
X11107Y-3504D01*
X11107Y-3505D01*
X11105Y-3510D01*
X11103Y-3515D01*
X11103Y-3516D01*
X11103Y-3517D01*
X11102Y-3522D01*
X11102Y-3528D01*
X11102Y-3529D01*
X11104Y-3541D01*
X11105Y-3543D01*
X11106Y-3545D01*
X11137Y-3621D01*
X11137Y-3723D01*
X11098Y-3818D01*
X11025Y-3890D01*
X10931Y-3930D01*
X10828Y-3930D01*
X10752Y-3898D01*
X10747Y-3897D01*
X10742Y-3895D01*
X10741Y-3895D01*
X10740Y-3895D01*
X10735Y-3895D01*
X10729Y-3895D01*
X10728Y-3895D01*
X10722Y-3896D01*
X10717Y-3897D01*
X10716Y-3897D01*
X10716Y-3898D01*
X10711Y-3900D01*
X10706Y-3903D01*
X10705Y-3903D01*
X10701Y-3907D01*
X10697Y-3911D01*
X10696Y-3911D01*
X10696Y-3912D01*
X10693Y-3917D01*
X10690Y-3921D01*
X10689Y-3922D01*
X10687Y-3928D01*
X10685Y-3933D01*
X10685Y-3934D01*
X10685Y-3940D01*
X10684Y-3945D01*
X10684Y-3946D01*
X10684Y-3947D01*
X10687Y-3959D01*
X10688Y-3961D01*
X10688Y-3962D01*
X10719Y-4039D01*
X10719Y-4141D01*
X10680Y-4236D01*
X10608Y-4308D01*
X10513Y-4347D01*
X10411Y-4347D01*
X10400Y-4343D01*
X10395Y-4341D01*
X10389Y-4340D01*
X10388Y-4339D01*
X10382Y-4339D01*
X10377Y-4339D01*
X10376Y-4339D01*
X10370Y-4341D01*
X10365Y-4342D01*
X10364Y-4342D01*
X10359Y-4345D01*
X10354Y-4347D01*
X10353Y-4348D01*
X10348Y-4352D01*
X10344Y-4356D01*
X10343Y-4357D01*
X10340Y-4361D01*
X10337Y-4366D01*
X10337Y-4367D01*
X10335Y-4372D01*
X10333Y-4378D01*
X10333Y-4379D01*
X10332Y-4384D01*
X10332Y-4390D01*
X10332Y-4391D01*
X10334Y-4403D01*
X10335Y-4406D01*
X10336Y-4407D01*
X10340Y-4418D01*
X10352Y-4477D01*
X10352Y-4538D01*
X10340Y-4597D01*
X10317Y-4653D01*
X10305Y-4671D01*
X10106Y-4473D01*
G37*
%LPD*%
%LPC*%
G36*
X8642Y6272D02*
X8642Y6272D01*
X8444Y6354D01*
X8292Y6506D01*
X8209Y6705D01*
X8209Y6920D01*
X8292Y7119D01*
X8444Y7271D01*
X8642Y7353D01*
X8858Y7353D01*
X9056Y7271D01*
X9208Y7119D01*
X9291Y6920D01*
X9291Y6705D01*
X9208Y6506D01*
X9056Y6354D01*
X8858Y6272D01*
X8642Y6272D01*
G37*
%LPD*%
%LPC*%
G36*
X15580Y209D02*
X15580Y209D01*
X15381Y292D01*
X15229Y444D01*
X15147Y642D01*
X15147Y858D01*
X15229Y1056D01*
X15381Y1208D01*
X15580Y1291D01*
X15795Y1291D01*
X15994Y1208D01*
X16146Y1056D01*
X16228Y858D01*
X16228Y642D01*
X16146Y444D01*
X15994Y292D01*
X15795Y209D01*
X15580Y209D01*
G37*
%LPD*%
%LPC*%
G36*
X10254Y5214D02*
X10254Y5214D01*
X10239Y5229D01*
X10239Y5876D01*
X10254Y5891D01*
X10901Y5891D01*
X10916Y5876D01*
X10916Y5229D01*
X10901Y5214D01*
X10254Y5214D01*
G37*
%LPD*%
%LPC*%
G36*
X11716Y4414D02*
X11716Y4414D01*
X11704Y4426D01*
X11704Y4952D01*
X11716Y4964D01*
X12254Y4964D01*
X12266Y4952D01*
X12266Y4426D01*
X12254Y4414D01*
X11716Y4414D01*
G37*
%LPD*%
%LPC*%
G36*
X8621Y4575D02*
X8621Y4575D01*
X8545Y4651D01*
X8545Y4691D01*
X8544Y4696D01*
X8544Y4700D01*
X8544Y4702D01*
X8543Y4703D01*
X8542Y4708D01*
X8540Y4712D01*
X8539Y4713D01*
X8539Y4715D01*
X8536Y4718D01*
X8533Y4723D01*
X8532Y4723D01*
X8531Y4725D01*
X8528Y4728D01*
X8524Y4731D01*
X8523Y4732D01*
X8522Y4732D01*
X8517Y4734D01*
X8513Y4737D01*
X8512Y4737D01*
X8511Y4738D01*
X8498Y4740D01*
X8497Y4740D01*
X8496Y4740D01*
X8451Y4740D01*
X8375Y4816D01*
X8375Y4881D01*
X8374Y4886D01*
X8374Y4890D01*
X8373Y4892D01*
X8373Y4893D01*
X8371Y4898D01*
X8370Y4902D01*
X8369Y4903D01*
X8369Y4905D01*
X8366Y4908D01*
X8363Y4913D01*
X8362Y4913D01*
X8361Y4915D01*
X8358Y4918D01*
X8354Y4921D01*
X8353Y4922D01*
X8352Y4922D01*
X8347Y4924D01*
X8343Y4927D01*
X8342Y4927D01*
X8340Y4928D01*
X8328Y4930D01*
X8327Y4930D01*
X8326Y4930D01*
X8266Y4930D01*
X8190Y5006D01*
X8190Y5071D01*
X8189Y5076D01*
X8189Y5080D01*
X8188Y5082D01*
X8188Y5083D01*
X8186Y5088D01*
X8185Y5092D01*
X8184Y5093D01*
X8184Y5095D01*
X8181Y5098D01*
X8178Y5103D01*
X8177Y5103D01*
X8176Y5105D01*
X8173Y5108D01*
X8169Y5111D01*
X8168Y5112D01*
X8167Y5112D01*
X8162Y5114D01*
X8158Y5117D01*
X8157Y5117D01*
X8155Y5118D01*
X8143Y5120D01*
X8142Y5120D01*
X8141Y5120D01*
X8071Y5120D01*
X7995Y5196D01*
X7995Y5304D01*
X8071Y5380D01*
X8179Y5380D01*
X8255Y5304D01*
X8255Y5239D01*
X8256Y5234D01*
X8256Y5230D01*
X8257Y5228D01*
X8257Y5227D01*
X8259Y5222D01*
X8260Y5218D01*
X8261Y5217D01*
X8261Y5215D01*
X8264Y5212D01*
X8267Y5207D01*
X8268Y5207D01*
X8269Y5205D01*
X8272Y5202D01*
X8276Y5199D01*
X8277Y5198D01*
X8278Y5198D01*
X8283Y5196D01*
X8287Y5193D01*
X8288Y5193D01*
X8290Y5192D01*
X8302Y5190D01*
X8303Y5190D01*
X8304Y5190D01*
X8374Y5190D01*
X8450Y5114D01*
X8450Y5049D01*
X8451Y5044D01*
X8451Y5040D01*
X8452Y5038D01*
X8452Y5037D01*
X8454Y5032D01*
X8455Y5028D01*
X8456Y5027D01*
X8456Y5025D01*
X8459Y5022D01*
X8462Y5017D01*
X8463Y5017D01*
X8464Y5015D01*
X8467Y5012D01*
X8471Y5009D01*
X8472Y5008D01*
X8473Y5008D01*
X8478Y5006D01*
X8482Y5003D01*
X8483Y5003D01*
X8485Y5002D01*
X8497Y5000D01*
X8498Y5000D01*
X8499Y5000D01*
X8559Y5000D01*
X8635Y4924D01*
X8635Y4884D01*
X8636Y4879D01*
X8636Y4874D01*
X8637Y4873D01*
X8637Y4872D01*
X8639Y4867D01*
X8640Y4863D01*
X8641Y4862D01*
X8641Y4860D01*
X8644Y4856D01*
X8647Y4852D01*
X8648Y4851D01*
X8649Y4850D01*
X8652Y4847D01*
X8656Y4844D01*
X8657Y4843D01*
X8658Y4843D01*
X8663Y4840D01*
X8667Y4838D01*
X8668Y4838D01*
X8670Y4837D01*
X8682Y4835D01*
X8683Y4835D01*
X8684Y4835D01*
X8729Y4835D01*
X8805Y4759D01*
X8805Y4651D01*
X8729Y4575D01*
X8621Y4575D01*
G37*
%LPD*%
%LPC*%
G36*
X1759Y-3193D02*
X1759Y-3193D01*
X1682Y-3116D01*
X1682Y-3012D01*
X1682Y-3007D01*
X1681Y-3002D01*
X1681Y-3001D01*
X1681Y-2999D01*
X1679Y-2995D01*
X1677Y-2990D01*
X1677Y-2989D01*
X1676Y-2988D01*
X1673Y-2984D01*
X1671Y-2980D01*
X1670Y-2979D01*
X1669Y-2978D01*
X1665Y-2975D01*
X1661Y-2971D01*
X1660Y-2971D01*
X1659Y-2970D01*
X1655Y-2968D01*
X1650Y-2965D01*
X1649Y-2965D01*
X1648Y-2965D01*
X1636Y-2962D01*
X1634Y-2962D01*
X1633Y-2962D01*
X1625Y-2962D01*
X1538Y-2875D01*
X1538Y-2750D01*
X1611Y-2677D01*
X1614Y-2673D01*
X1617Y-2670D01*
X1618Y-2668D01*
X1619Y-2667D01*
X1621Y-2663D01*
X1623Y-2658D01*
X1623Y-2657D01*
X1624Y-2656D01*
X1624Y-2651D01*
X1625Y-2646D01*
X1625Y-2645D01*
X1625Y-2644D01*
X1625Y-2639D01*
X1625Y-2634D01*
X1624Y-2633D01*
X1624Y-2631D01*
X1622Y-2627D01*
X1621Y-2622D01*
X1620Y-2621D01*
X1620Y-2620D01*
X1613Y-2609D01*
X1612Y-2608D01*
X1611Y-2608D01*
X1557Y-2554D01*
X1557Y-2446D01*
X1634Y-2370D01*
X1741Y-2370D01*
X1818Y-2446D01*
X1818Y-2554D01*
X1764Y-2608D01*
X1761Y-2611D01*
X1758Y-2615D01*
X1757Y-2616D01*
X1756Y-2617D01*
X1754Y-2622D01*
X1752Y-2626D01*
X1752Y-2628D01*
X1751Y-2629D01*
X1751Y-2634D01*
X1750Y-2638D01*
X1750Y-2640D01*
X1750Y-2641D01*
X1750Y-2646D01*
X1750Y-2651D01*
X1751Y-2652D01*
X1751Y-2653D01*
X1753Y-2658D01*
X1754Y-2663D01*
X1755Y-2664D01*
X1755Y-2665D01*
X1762Y-2675D01*
X1763Y-2676D01*
X1764Y-2677D01*
X1837Y-2750D01*
X1837Y-2883D01*
X1838Y-2888D01*
X1838Y-2893D01*
X1839Y-2894D01*
X1839Y-2895D01*
X1841Y-2900D01*
X1842Y-2905D01*
X1843Y-2906D01*
X1843Y-2907D01*
X1846Y-2911D01*
X1849Y-2915D01*
X1850Y-2916D01*
X1851Y-2917D01*
X1852Y-2918D01*
X1943Y-3009D01*
X1943Y-3116D01*
X1866Y-3193D01*
X1759Y-3193D01*
G37*
%LPD*%
%LPC*%
G36*
X987Y-2288D02*
X987Y-2288D01*
X986Y-2283D01*
X986Y-2278D01*
X985Y-2277D01*
X985Y-2275D01*
X983Y-2271D01*
X982Y-2266D01*
X981Y-2265D01*
X981Y-2264D01*
X978Y-2260D01*
X975Y-2256D01*
X974Y-2255D01*
X973Y-2254D01*
X969Y-2251D01*
X966Y-2247D01*
X965Y-2247D01*
X964Y-2246D01*
X959Y-2244D01*
X955Y-2242D01*
X954Y-2241D01*
X952Y-2241D01*
X940Y-2238D01*
X939Y-2239D01*
X938Y-2238D01*
X937Y-2238D01*
X933Y-2239D01*
X928Y-2239D01*
X926Y-2240D01*
X925Y-2240D01*
X921Y-2242D01*
X916Y-2243D01*
X915Y-2244D01*
X914Y-2245D01*
X910Y-2247D01*
X906Y-2250D01*
X905Y-2251D01*
X904Y-2252D01*
X900Y-2256D01*
X897Y-2259D01*
X897Y-2261D01*
X896Y-2262D01*
X894Y-2266D01*
X891Y-2270D01*
X891Y-2271D01*
X891Y-2273D01*
X888Y-2285D01*
X888Y-2287D01*
X888Y-2288D01*
X888Y-2293D01*
X865Y-2288D01*
X820Y-2269D01*
X779Y-2242D01*
X745Y-2208D01*
X717Y-2167D01*
X699Y-2122D01*
X694Y-2098D01*
X699Y-2098D01*
X704Y-2098D01*
X709Y-2097D01*
X710Y-2097D01*
X711Y-2097D01*
X716Y-2095D01*
X721Y-2093D01*
X722Y-2093D01*
X723Y-2092D01*
X727Y-2089D01*
X731Y-2087D01*
X732Y-2086D01*
X733Y-2085D01*
X736Y-2081D01*
X739Y-2077D01*
X740Y-2076D01*
X741Y-2075D01*
X743Y-2071D01*
X745Y-2066D01*
X745Y-2065D01*
X746Y-2064D01*
X748Y-2052D01*
X748Y-2050D01*
X748Y-2049D01*
X748Y-2044D01*
X747Y-2039D01*
X747Y-2038D01*
X747Y-2037D01*
X745Y-2032D01*
X743Y-2028D01*
X743Y-2027D01*
X742Y-2025D01*
X739Y-2021D01*
X737Y-2017D01*
X736Y-2016D01*
X735Y-2015D01*
X731Y-2012D01*
X727Y-2009D01*
X726Y-2008D01*
X725Y-2007D01*
X721Y-2005D01*
X716Y-2003D01*
X715Y-2003D01*
X714Y-2002D01*
X702Y-2000D01*
X700Y-2000D01*
X699Y-2000D01*
X694Y-2000D01*
X699Y-1977D01*
X717Y-1932D01*
X745Y-1891D01*
X779Y-1856D01*
X820Y-1829D01*
X865Y-1810D01*
X888Y-1806D01*
X888Y-1811D01*
X889Y-1816D01*
X889Y-1821D01*
X890Y-1822D01*
X890Y-1823D01*
X892Y-1828D01*
X893Y-1832D01*
X894Y-1833D01*
X894Y-1835D01*
X897Y-1839D01*
X900Y-1843D01*
X901Y-1844D01*
X902Y-1845D01*
X906Y-1848D01*
X909Y-1851D01*
X910Y-1852D01*
X911Y-1853D01*
X916Y-1855D01*
X920Y-1857D01*
X921Y-1857D01*
X923Y-1858D01*
X935Y-1860D01*
X936Y-1860D01*
X937Y-1860D01*
X938Y-1860D01*
X942Y-1859D01*
X947Y-1859D01*
X949Y-1859D01*
X950Y-1858D01*
X954Y-1857D01*
X959Y-1855D01*
X960Y-1854D01*
X961Y-1854D01*
X965Y-1851D01*
X969Y-1848D01*
X970Y-1847D01*
X971Y-1847D01*
X975Y-1843D01*
X978Y-1839D01*
X978Y-1838D01*
X979Y-1837D01*
X981Y-1832D01*
X984Y-1828D01*
X984Y-1827D01*
X984Y-1826D01*
X987Y-1813D01*
X987Y-1812D01*
X987Y-1811D01*
X987Y-1806D01*
X1010Y-1810D01*
X1055Y-1829D01*
X1096Y-1856D01*
X1130Y-1891D01*
X1158Y-1932D01*
X1176Y-1977D01*
X1181Y-2000D01*
X1176Y-2000D01*
X1171Y-2001D01*
X1166Y-2001D01*
X1165Y-2001D01*
X1164Y-2002D01*
X1159Y-2003D01*
X1154Y-2005D01*
X1153Y-2006D01*
X1152Y-2006D01*
X1148Y-2009D01*
X1144Y-2012D01*
X1143Y-2013D01*
X1142Y-2013D01*
X1139Y-2017D01*
X1136Y-2021D01*
X1135Y-2022D01*
X1134Y-2023D01*
X1132Y-2028D01*
X1130Y-2032D01*
X1130Y-2033D01*
X1129Y-2034D01*
X1127Y-2047D01*
X1127Y-2048D01*
X1127Y-2049D01*
X1127Y-2054D01*
X1128Y-2059D01*
X1128Y-2060D01*
X1128Y-2062D01*
X1130Y-2066D01*
X1132Y-2071D01*
X1132Y-2072D01*
X1133Y-2073D01*
X1136Y-2077D01*
X1138Y-2081D01*
X1139Y-2082D01*
X1140Y-2083D01*
X1144Y-2086D01*
X1148Y-2090D01*
X1149Y-2090D01*
X1150Y-2091D01*
X1154Y-2093D01*
X1159Y-2095D01*
X1160Y-2096D01*
X1161Y-2096D01*
X1173Y-2098D01*
X1175Y-2098D01*
X1176Y-2098D01*
X1181Y-2098D01*
X1176Y-2122D01*
X1158Y-2167D01*
X1130Y-2208D01*
X1096Y-2242D01*
X1055Y-2269D01*
X1010Y-2288D01*
X987Y-2293D01*
X987Y-2288D01*
G37*
%LPD*%
%LPC*%
G36*
X987Y311D02*
X987Y311D01*
X986Y316D01*
X986Y321D01*
X985Y322D01*
X985Y323D01*
X983Y328D01*
X982Y332D01*
X981Y333D01*
X981Y335D01*
X978Y339D01*
X975Y343D01*
X974Y344D01*
X973Y345D01*
X969Y348D01*
X966Y351D01*
X965Y352D01*
X964Y353D01*
X959Y355D01*
X955Y357D01*
X954Y357D01*
X952Y358D01*
X940Y360D01*
X939Y360D01*
X938Y360D01*
X937Y360D01*
X933Y359D01*
X928Y359D01*
X926Y359D01*
X925Y358D01*
X921Y357D01*
X916Y355D01*
X915Y354D01*
X914Y354D01*
X910Y351D01*
X906Y348D01*
X905Y347D01*
X904Y347D01*
X900Y343D01*
X897Y339D01*
X897Y338D01*
X896Y337D01*
X894Y332D01*
X891Y328D01*
X891Y327D01*
X891Y326D01*
X888Y313D01*
X888Y312D01*
X888Y311D01*
X888Y306D01*
X865Y310D01*
X820Y329D01*
X779Y356D01*
X745Y391D01*
X717Y432D01*
X699Y477D01*
X694Y500D01*
X699Y500D01*
X704Y501D01*
X709Y501D01*
X710Y501D01*
X711Y502D01*
X716Y503D01*
X721Y505D01*
X722Y506D01*
X723Y506D01*
X727Y509D01*
X731Y512D01*
X732Y513D01*
X733Y513D01*
X736Y517D01*
X739Y521D01*
X740Y522D01*
X741Y523D01*
X743Y528D01*
X745Y532D01*
X745Y533D01*
X746Y534D01*
X748Y547D01*
X748Y548D01*
X748Y549D01*
X748Y554D01*
X747Y559D01*
X747Y560D01*
X747Y562D01*
X745Y566D01*
X743Y571D01*
X743Y572D01*
X742Y573D01*
X739Y577D01*
X737Y581D01*
X736Y582D01*
X735Y583D01*
X731Y586D01*
X727Y590D01*
X726Y590D01*
X725Y591D01*
X721Y593D01*
X716Y595D01*
X715Y596D01*
X714Y596D01*
X702Y598D01*
X700Y598D01*
X699Y598D01*
X694Y598D01*
X699Y622D01*
X717Y667D01*
X745Y708D01*
X779Y742D01*
X820Y769D01*
X865Y788D01*
X888Y793D01*
X888Y788D01*
X889Y783D01*
X889Y778D01*
X890Y777D01*
X890Y775D01*
X892Y771D01*
X893Y766D01*
X894Y765D01*
X894Y764D01*
X897Y760D01*
X900Y756D01*
X901Y755D01*
X902Y754D01*
X906Y751D01*
X909Y747D01*
X910Y747D01*
X911Y746D01*
X916Y744D01*
X920Y742D01*
X921Y741D01*
X923Y741D01*
X935Y738D01*
X936Y739D01*
X937Y738D01*
X938Y738D01*
X942Y739D01*
X947Y739D01*
X949Y740D01*
X950Y740D01*
X954Y742D01*
X959Y743D01*
X960Y744D01*
X961Y745D01*
X965Y747D01*
X969Y750D01*
X970Y751D01*
X971Y752D01*
X975Y756D01*
X978Y759D01*
X978Y761D01*
X979Y762D01*
X981Y766D01*
X984Y770D01*
X984Y771D01*
X984Y773D01*
X987Y785D01*
X987Y787D01*
X987Y788D01*
X987Y793D01*
X1010Y788D01*
X1055Y769D01*
X1096Y742D01*
X1130Y708D01*
X1158Y667D01*
X1176Y622D01*
X1181Y598D01*
X1176Y598D01*
X1171Y598D01*
X1166Y597D01*
X1165Y597D01*
X1164Y597D01*
X1159Y595D01*
X1154Y593D01*
X1153Y593D01*
X1152Y592D01*
X1148Y589D01*
X1144Y587D01*
X1143Y586D01*
X1142Y585D01*
X1139Y581D01*
X1136Y577D01*
X1135Y576D01*
X1134Y575D01*
X1132Y571D01*
X1130Y566D01*
X1130Y565D01*
X1129Y564D01*
X1127Y552D01*
X1127Y550D01*
X1127Y549D01*
X1127Y544D01*
X1128Y539D01*
X1128Y538D01*
X1128Y537D01*
X1130Y532D01*
X1132Y528D01*
X1132Y527D01*
X1133Y525D01*
X1136Y521D01*
X1138Y517D01*
X1139Y516D01*
X1140Y515D01*
X1144Y512D01*
X1148Y509D01*
X1149Y508D01*
X1150Y507D01*
X1154Y505D01*
X1159Y503D01*
X1160Y503D01*
X1161Y502D01*
X1173Y500D01*
X1175Y500D01*
X1176Y500D01*
X1181Y500D01*
X1176Y477D01*
X1158Y432D01*
X1130Y391D01*
X1096Y356D01*
X1055Y329D01*
X1010Y310D01*
X987Y306D01*
X987Y311D01*
G37*
%LPD*%
%LPC*%
G36*
X8698Y3757D02*
X8698Y3757D01*
X8622Y3833D01*
X8622Y3941D01*
X8699Y4018D01*
X8751Y4018D01*
X8756Y4018D01*
X8760Y4019D01*
X8762Y4019D01*
X8763Y4019D01*
X8768Y4021D01*
X8772Y4022D01*
X8773Y4023D01*
X8775Y4024D01*
X8778Y4027D01*
X8783Y4029D01*
X8783Y4030D01*
X8785Y4031D01*
X8788Y4035D01*
X8791Y4039D01*
X8792Y4040D01*
X8792Y4041D01*
X8794Y4045D01*
X8797Y4050D01*
X8797Y4051D01*
X8798Y4052D01*
X8800Y4064D01*
X8800Y4066D01*
X8800Y4067D01*
X8800Y4109D01*
X8876Y4185D01*
X8897Y4185D01*
X8902Y4186D01*
X8908Y4186D01*
X8909Y4187D01*
X8914Y4189D01*
X8920Y4191D01*
X8921Y4191D01*
X8925Y4195D01*
X8930Y4198D01*
X8931Y4199D01*
X8934Y4203D01*
X8938Y4207D01*
X8938Y4208D01*
X8939Y4208D01*
X8941Y4213D01*
X8944Y4218D01*
X8944Y4219D01*
X8944Y4220D01*
X8945Y4225D01*
X8946Y4230D01*
X8946Y4231D01*
X8946Y4232D01*
X8946Y4237D01*
X8945Y4243D01*
X8945Y4244D01*
X8943Y4249D01*
X8942Y4255D01*
X8941Y4255D01*
X8941Y4256D01*
X8934Y4266D01*
X8933Y4268D01*
X8932Y4269D01*
X8858Y4343D01*
X8858Y4451D01*
X8934Y4527D01*
X9042Y4527D01*
X9118Y4451D01*
X9118Y4343D01*
X9042Y4267D01*
X9021Y4267D01*
X9015Y4266D01*
X9010Y4266D01*
X9009Y4266D01*
X9003Y4263D01*
X8998Y4262D01*
X8998Y4261D01*
X8997Y4261D01*
X8992Y4258D01*
X8988Y4254D01*
X8987Y4254D01*
X8983Y4249D01*
X8980Y4245D01*
X8979Y4244D01*
X8977Y4239D01*
X8974Y4234D01*
X8974Y4233D01*
X8973Y4227D01*
X8972Y4222D01*
X8972Y4221D01*
X8972Y4220D01*
X8972Y4215D01*
X8972Y4209D01*
X8973Y4209D01*
X8973Y4208D01*
X8974Y4203D01*
X8976Y4197D01*
X8977Y4196D01*
X8983Y4186D01*
X8985Y4184D01*
X8986Y4183D01*
X9060Y4109D01*
X9060Y4001D01*
X8984Y3925D01*
X8932Y3925D01*
X8927Y3924D01*
X8922Y3924D01*
X8921Y3923D01*
X8919Y3923D01*
X8915Y3921D01*
X8910Y3920D01*
X8909Y3919D01*
X8908Y3919D01*
X8904Y3916D01*
X8900Y3913D01*
X8899Y3912D01*
X8898Y3911D01*
X8895Y3908D01*
X8891Y3904D01*
X8891Y3903D01*
X8890Y3902D01*
X8888Y3897D01*
X8886Y3893D01*
X8885Y3892D01*
X8885Y3890D01*
X8883Y3878D01*
X8883Y3877D01*
X8883Y3876D01*
X8883Y3834D01*
X8806Y3757D01*
X8698Y3757D01*
G37*
%LPD*%
%LPC*%
G36*
X6206Y5045D02*
X6206Y5045D01*
X6130Y5121D01*
X6130Y5241D01*
X6130Y5243D01*
X6131Y5248D01*
X6131Y5249D01*
X6131Y5255D01*
X6130Y5260D01*
X6130Y5261D01*
X6130Y5262D01*
X6128Y5267D01*
X6126Y5272D01*
X6126Y5273D01*
X6122Y5278D01*
X6119Y5283D01*
X6119Y5284D01*
X6114Y5287D01*
X6110Y5291D01*
X6109Y5292D01*
X6104Y5294D01*
X6099Y5297D01*
X6098Y5297D01*
X6086Y5300D01*
X6083Y5300D01*
X6082Y5300D01*
X5986Y5300D01*
X5911Y5375D01*
X5907Y5378D01*
X5904Y5381D01*
X5902Y5382D01*
X5901Y5383D01*
X5897Y5385D01*
X5893Y5387D01*
X5891Y5387D01*
X5889Y5388D01*
X5877Y5390D01*
X5876Y5390D01*
X5794Y5390D01*
X5717Y5466D01*
X5717Y5574D01*
X5794Y5650D01*
X5901Y5650D01*
X5977Y5575D01*
X5980Y5572D01*
X5984Y5569D01*
X5985Y5568D01*
X5987Y5567D01*
X5991Y5565D01*
X5995Y5563D01*
X5996Y5563D01*
X5998Y5562D01*
X6010Y5560D01*
X6011Y5560D01*
X6012Y5560D01*
X6094Y5560D01*
X6170Y5484D01*
X6170Y5364D01*
X6170Y5362D01*
X6169Y5357D01*
X6169Y5356D01*
X6169Y5350D01*
X6170Y5345D01*
X6170Y5344D01*
X6170Y5343D01*
X6172Y5338D01*
X6174Y5333D01*
X6174Y5332D01*
X6178Y5327D01*
X6181Y5322D01*
X6181Y5321D01*
X6186Y5318D01*
X6190Y5314D01*
X6191Y5313D01*
X6196Y5311D01*
X6201Y5308D01*
X6202Y5308D01*
X6214Y5305D01*
X6217Y5305D01*
X6218Y5305D01*
X6314Y5305D01*
X6390Y5229D01*
X6390Y5121D01*
X6314Y5045D01*
X6206Y5045D01*
G37*
%LPD*%
%LPC*%
G36*
X4259Y-68D02*
X4259Y-68D01*
X4182Y9D01*
X4182Y116D01*
X4259Y193D01*
X4321Y193D01*
X4326Y193D01*
X4330Y194D01*
X4332Y194D01*
X4333Y194D01*
X4338Y196D01*
X4342Y198D01*
X4343Y198D01*
X4345Y199D01*
X4348Y202D01*
X4353Y204D01*
X4353Y205D01*
X4355Y206D01*
X4358Y210D01*
X4361Y214D01*
X4362Y215D01*
X4362Y216D01*
X4364Y220D01*
X4367Y225D01*
X4367Y226D01*
X4368Y227D01*
X4370Y239D01*
X4370Y241D01*
X4446Y318D01*
X4508Y318D01*
X4513Y318D01*
X4518Y319D01*
X4519Y319D01*
X4520Y319D01*
X4525Y321D01*
X4530Y323D01*
X4531Y323D01*
X4532Y324D01*
X4536Y327D01*
X4540Y329D01*
X4541Y330D01*
X4542Y331D01*
X4545Y335D01*
X4548Y339D01*
X4549Y340D01*
X4550Y341D01*
X4552Y345D01*
X4554Y350D01*
X4554Y351D01*
X4555Y352D01*
X4557Y364D01*
X4557Y366D01*
X4557Y367D01*
X4557Y429D01*
X4634Y505D01*
X4741Y505D01*
X4818Y429D01*
X4818Y321D01*
X4741Y245D01*
X4679Y245D01*
X4674Y244D01*
X4670Y244D01*
X4668Y243D01*
X4667Y243D01*
X4662Y241D01*
X4658Y240D01*
X4657Y239D01*
X4655Y239D01*
X4652Y236D01*
X4647Y233D01*
X4647Y232D01*
X4645Y231D01*
X4642Y228D01*
X4639Y224D01*
X4638Y223D01*
X4638Y222D01*
X4636Y217D01*
X4633Y213D01*
X4633Y212D01*
X4632Y210D01*
X4630Y198D01*
X4630Y197D01*
X4630Y196D01*
X4630Y134D01*
X4554Y57D01*
X4492Y57D01*
X4487Y57D01*
X4482Y56D01*
X4481Y56D01*
X4480Y56D01*
X4475Y54D01*
X4470Y52D01*
X4469Y52D01*
X4468Y51D01*
X4464Y48D01*
X4460Y46D01*
X4459Y45D01*
X4458Y44D01*
X4455Y40D01*
X4452Y36D01*
X4451Y35D01*
X4450Y34D01*
X4448Y30D01*
X4446Y25D01*
X4446Y24D01*
X4445Y23D01*
X4443Y11D01*
X4443Y9D01*
X4366Y-68D01*
X4259Y-68D01*
G37*
%LPD*%
%LPC*%
G36*
X5009Y-943D02*
X5009Y-943D01*
X4932Y-866D01*
X4932Y-742D01*
X4932Y-737D01*
X4931Y-732D01*
X4931Y-731D01*
X4931Y-730D01*
X4929Y-725D01*
X4927Y-720D01*
X4927Y-719D01*
X4926Y-718D01*
X4923Y-714D01*
X4921Y-710D01*
X4920Y-709D01*
X4919Y-708D01*
X4915Y-705D01*
X4911Y-702D01*
X4910Y-701D01*
X4909Y-700D01*
X4905Y-698D01*
X4900Y-696D01*
X4899Y-696D01*
X4898Y-695D01*
X4886Y-693D01*
X4884Y-693D01*
X4883Y-693D01*
X4759Y-693D01*
X4682Y-616D01*
X4682Y-509D01*
X4759Y-432D01*
X4866Y-432D01*
X4943Y-509D01*
X4943Y-633D01*
X4943Y-638D01*
X4944Y-643D01*
X4944Y-644D01*
X4944Y-645D01*
X4946Y-650D01*
X4948Y-655D01*
X4948Y-656D01*
X4949Y-657D01*
X4952Y-661D01*
X4954Y-665D01*
X4955Y-666D01*
X4956Y-667D01*
X4960Y-670D01*
X4964Y-673D01*
X4965Y-674D01*
X4966Y-675D01*
X4970Y-677D01*
X4975Y-679D01*
X4976Y-679D01*
X4977Y-680D01*
X4989Y-682D01*
X4991Y-682D01*
X4992Y-682D01*
X5116Y-682D01*
X5193Y-759D01*
X5193Y-866D01*
X5116Y-943D01*
X5009Y-943D01*
G37*
%LPD*%
%LPC*%
G36*
X7035Y5031D02*
X7035Y5031D01*
X6958Y5108D01*
X6958Y5215D01*
X7035Y5292D01*
X7152Y5292D01*
X7157Y5292D01*
X7162Y5293D01*
X7163Y5293D01*
X7164Y5293D01*
X7169Y5295D01*
X7174Y5297D01*
X7175Y5297D01*
X7176Y5298D01*
X7180Y5301D01*
X7184Y5303D01*
X7185Y5304D01*
X7186Y5305D01*
X7189Y5309D01*
X7192Y5313D01*
X7193Y5314D01*
X7194Y5315D01*
X7196Y5319D01*
X7198Y5324D01*
X7198Y5325D01*
X7199Y5326D01*
X7201Y5338D01*
X7201Y5340D01*
X7201Y5341D01*
X7201Y5444D01*
X7278Y5520D01*
X7385Y5520D01*
X7462Y5444D01*
X7462Y5336D01*
X7385Y5260D01*
X7268Y5260D01*
X7263Y5259D01*
X7258Y5259D01*
X7257Y5258D01*
X7256Y5258D01*
X7251Y5256D01*
X7246Y5255D01*
X7245Y5254D01*
X7244Y5254D01*
X7240Y5251D01*
X7236Y5248D01*
X7235Y5247D01*
X7234Y5246D01*
X7231Y5242D01*
X7228Y5239D01*
X7227Y5238D01*
X7226Y5237D01*
X7224Y5232D01*
X7222Y5228D01*
X7222Y5227D01*
X7221Y5225D01*
X7219Y5213D01*
X7219Y5211D01*
X7219Y5210D01*
X7219Y5108D01*
X7142Y5031D01*
X7035Y5031D01*
G37*
%LPD*%
%LPC*%
G36*
X3276Y2410D02*
X3276Y2410D01*
X3200Y2486D01*
X3200Y2488D01*
X3199Y2493D01*
X3199Y2498D01*
X3198Y2499D01*
X3198Y2500D01*
X3196Y2505D01*
X3195Y2510D01*
X3194Y2511D01*
X3194Y2512D01*
X3191Y2516D01*
X3188Y2520D01*
X3187Y2521D01*
X3186Y2522D01*
X3183Y2525D01*
X3179Y2528D01*
X3178Y2529D01*
X3177Y2530D01*
X3172Y2532D01*
X3168Y2534D01*
X3167Y2534D01*
X3165Y2535D01*
X3153Y2537D01*
X3152Y2537D01*
X3151Y2537D01*
X3048Y2537D01*
X2972Y2613D01*
X2972Y2721D01*
X3048Y2797D01*
X3156Y2797D01*
X3232Y2721D01*
X3232Y2719D01*
X3233Y2714D01*
X3233Y2710D01*
X3234Y2708D01*
X3234Y2707D01*
X3236Y2702D01*
X3237Y2698D01*
X3238Y2697D01*
X3238Y2695D01*
X3241Y2692D01*
X3244Y2687D01*
X3245Y2687D01*
X3246Y2685D01*
X3250Y2682D01*
X3253Y2679D01*
X3254Y2678D01*
X3255Y2678D01*
X3260Y2676D01*
X3264Y2673D01*
X3265Y2673D01*
X3267Y2672D01*
X3279Y2670D01*
X3281Y2670D01*
X3282Y2670D01*
X3384Y2670D01*
X3460Y2594D01*
X3460Y2486D01*
X3384Y2410D01*
X3276Y2410D01*
G37*
%LPD*%
%LPC*%
G36*
X12321Y-1068D02*
X12321Y-1068D01*
X12245Y-991D01*
X12245Y-884D01*
X12250Y-879D01*
X12253Y-875D01*
X12256Y-871D01*
X12257Y-870D01*
X12258Y-869D01*
X12259Y-864D01*
X12262Y-860D01*
X12262Y-859D01*
X12262Y-857D01*
X12263Y-852D01*
X12264Y-848D01*
X12264Y-846D01*
X12264Y-845D01*
X12264Y-840D01*
X12264Y-835D01*
X12263Y-834D01*
X12263Y-833D01*
X12261Y-828D01*
X12260Y-823D01*
X12259Y-822D01*
X12259Y-821D01*
X12252Y-811D01*
X12250Y-810D01*
X12250Y-809D01*
X12182Y-741D01*
X12182Y-634D01*
X12259Y-557D01*
X12366Y-557D01*
X12443Y-634D01*
X12443Y-741D01*
X12438Y-746D01*
X12435Y-750D01*
X12431Y-754D01*
X12431Y-755D01*
X12430Y-756D01*
X12428Y-761D01*
X12426Y-765D01*
X12426Y-766D01*
X12425Y-768D01*
X12424Y-773D01*
X12423Y-777D01*
X12423Y-779D01*
X12423Y-780D01*
X12424Y-785D01*
X12424Y-790D01*
X12424Y-791D01*
X12424Y-792D01*
X12426Y-797D01*
X12428Y-802D01*
X12428Y-803D01*
X12429Y-804D01*
X12436Y-814D01*
X12437Y-815D01*
X12438Y-816D01*
X12505Y-884D01*
X12505Y-991D01*
X12429Y-1068D01*
X12321Y-1068D01*
G37*
%LPD*%
%LPC*%
G36*
X5446Y932D02*
X5446Y932D01*
X5370Y1009D01*
X5370Y1116D01*
X5375Y1121D01*
X5378Y1125D01*
X5381Y1129D01*
X5382Y1130D01*
X5383Y1131D01*
X5384Y1136D01*
X5387Y1140D01*
X5387Y1141D01*
X5387Y1143D01*
X5388Y1148D01*
X5389Y1152D01*
X5389Y1154D01*
X5389Y1155D01*
X5389Y1160D01*
X5389Y1165D01*
X5388Y1166D01*
X5388Y1167D01*
X5386Y1172D01*
X5385Y1177D01*
X5384Y1178D01*
X5384Y1179D01*
X5377Y1189D01*
X5375Y1190D01*
X5375Y1191D01*
X5307Y1259D01*
X5307Y1366D01*
X5384Y1443D01*
X5491Y1443D01*
X5568Y1366D01*
X5568Y1259D01*
X5563Y1254D01*
X5560Y1250D01*
X5556Y1246D01*
X5556Y1245D01*
X5555Y1244D01*
X5553Y1239D01*
X5551Y1235D01*
X5551Y1234D01*
X5550Y1232D01*
X5549Y1227D01*
X5548Y1223D01*
X5548Y1221D01*
X5548Y1220D01*
X5549Y1215D01*
X5549Y1210D01*
X5549Y1209D01*
X5549Y1208D01*
X5551Y1203D01*
X5553Y1198D01*
X5553Y1197D01*
X5554Y1196D01*
X5561Y1186D01*
X5562Y1185D01*
X5563Y1184D01*
X5630Y1116D01*
X5630Y1009D01*
X5554Y932D01*
X5446Y932D01*
G37*
%LPD*%
%LPC*%
G36*
X3321Y-3255D02*
X3321Y-3255D01*
X3245Y-3179D01*
X3245Y-3071D01*
X3321Y-2995D01*
X3383Y-2995D01*
X3388Y-2994D01*
X3393Y-2994D01*
X3394Y-2993D01*
X3395Y-2993D01*
X3400Y-2991D01*
X3405Y-2990D01*
X3406Y-2989D01*
X3407Y-2989D01*
X3411Y-2986D01*
X3415Y-2983D01*
X3416Y-2982D01*
X3417Y-2981D01*
X3420Y-2978D01*
X3423Y-2974D01*
X3424Y-2973D01*
X3425Y-2972D01*
X3427Y-2967D01*
X3429Y-2963D01*
X3429Y-2962D01*
X3430Y-2960D01*
X3432Y-2948D01*
X3432Y-2947D01*
X3432Y-2946D01*
X3432Y-2884D01*
X3509Y-2807D01*
X3616Y-2807D01*
X3693Y-2884D01*
X3693Y-2991D01*
X3616Y-3068D01*
X3554Y-3068D01*
X3549Y-3068D01*
X3545Y-3069D01*
X3543Y-3069D01*
X3542Y-3069D01*
X3537Y-3071D01*
X3533Y-3073D01*
X3532Y-3073D01*
X3530Y-3074D01*
X3527Y-3077D01*
X3522Y-3079D01*
X3522Y-3080D01*
X3520Y-3081D01*
X3517Y-3085D01*
X3514Y-3089D01*
X3513Y-3090D01*
X3513Y-3091D01*
X3511Y-3095D01*
X3508Y-3100D01*
X3508Y-3101D01*
X3507Y-3102D01*
X3505Y-3114D01*
X3505Y-3116D01*
X3505Y-3117D01*
X3505Y-3179D01*
X3429Y-3255D01*
X3321Y-3255D01*
G37*
%LPD*%
%LPC*%
G36*
X6507Y5301D02*
X6507Y5301D01*
X6431Y5377D01*
X6431Y5485D01*
X6507Y5561D01*
X6569Y5561D01*
X6574Y5562D01*
X6579Y5562D01*
X6581Y5562D01*
X6582Y5563D01*
X6586Y5564D01*
X6591Y5566D01*
X6592Y5567D01*
X6593Y5567D01*
X6597Y5570D01*
X6601Y5573D01*
X6602Y5574D01*
X6603Y5575D01*
X6606Y5578D01*
X6610Y5582D01*
X6610Y5583D01*
X6611Y5584D01*
X6613Y5589D01*
X6616Y5593D01*
X6616Y5594D01*
X6616Y5595D01*
X6619Y5608D01*
X6619Y5609D01*
X6619Y5610D01*
X6619Y5622D01*
X6695Y5698D01*
X6803Y5698D01*
X6879Y5622D01*
X6879Y5514D01*
X6803Y5438D01*
X6740Y5438D01*
X6735Y5438D01*
X6730Y5437D01*
X6729Y5437D01*
X6728Y5437D01*
X6723Y5435D01*
X6719Y5433D01*
X6718Y5432D01*
X6716Y5432D01*
X6712Y5429D01*
X6708Y5426D01*
X6707Y5425D01*
X6706Y5425D01*
X6703Y5421D01*
X6700Y5417D01*
X6699Y5416D01*
X6699Y5415D01*
X6696Y5411D01*
X6694Y5406D01*
X6694Y5405D01*
X6693Y5404D01*
X6691Y5391D01*
X6691Y5390D01*
X6691Y5389D01*
X6691Y5377D01*
X6615Y5301D01*
X6507Y5301D01*
G37*
%LPD*%
%LPC*%
G36*
X3906Y3423D02*
X3906Y3423D01*
X3830Y3499D01*
X3830Y3607D01*
X3906Y3683D01*
X4014Y3683D01*
X4039Y3658D01*
X4043Y3655D01*
X4047Y3652D01*
X4048Y3651D01*
X4049Y3650D01*
X4053Y3649D01*
X4058Y3646D01*
X4059Y3646D01*
X4060Y3646D01*
X4065Y3645D01*
X4070Y3644D01*
X4071Y3644D01*
X4073Y3644D01*
X4077Y3644D01*
X4082Y3644D01*
X4084Y3645D01*
X4085Y3645D01*
X4090Y3647D01*
X4094Y3648D01*
X4095Y3649D01*
X4097Y3649D01*
X4107Y3656D01*
X4108Y3658D01*
X4109Y3658D01*
X4134Y3684D01*
X4242Y3684D01*
X4319Y3608D01*
X4319Y3500D01*
X4242Y3424D01*
X4134Y3424D01*
X4109Y3449D01*
X4105Y3452D01*
X4102Y3455D01*
X4101Y3456D01*
X4100Y3456D01*
X4095Y3458D01*
X4091Y3461D01*
X4089Y3461D01*
X4088Y3461D01*
X4083Y3462D01*
X4078Y3463D01*
X4077Y3463D01*
X4076Y3463D01*
X4071Y3463D01*
X4066Y3462D01*
X4065Y3462D01*
X4063Y3462D01*
X4059Y3460D01*
X4054Y3459D01*
X4053Y3458D01*
X4052Y3458D01*
X4042Y3451D01*
X4041Y3449D01*
X4040Y3449D01*
X4014Y3423D01*
X3906Y3423D01*
G37*
%LPD*%
%LPC*%
G36*
X4153Y5456D02*
X4153Y5456D01*
X4153Y5457D01*
X4152Y5457D01*
X4147Y5460D01*
X4142Y5462D01*
X4141Y5463D01*
X4129Y5465D01*
X4126Y5465D01*
X4125Y5465D01*
X3996Y5465D01*
X3903Y5559D01*
X3903Y5691D01*
X3996Y5785D01*
X4129Y5785D01*
X4222Y5691D01*
X4222Y5559D01*
X4167Y5504D01*
X4164Y5500D01*
X4161Y5495D01*
X4160Y5495D01*
X4160Y5494D01*
X4158Y5489D01*
X4155Y5484D01*
X4155Y5483D01*
X4154Y5477D01*
X4153Y5472D01*
X4153Y5471D01*
X4154Y5465D01*
X4154Y5460D01*
X4154Y5459D01*
X4154Y5458D01*
X4156Y5454D01*
X4153Y5456D01*
G37*
%LPD*%
%LPC*%
G36*
X6746Y-6097D02*
X6746Y-6097D01*
X6653Y-6004D01*
X6653Y-5871D01*
X6746Y-5778D01*
X6879Y-5778D01*
X6972Y-5871D01*
X6972Y-6004D01*
X6879Y-6097D01*
X6746Y-6097D01*
G37*
%LPD*%
%LPC*%
G36*
X8059Y-7285D02*
X8059Y-7285D01*
X7965Y-7191D01*
X7965Y-7059D01*
X8059Y-6965D01*
X8191Y-6965D01*
X8285Y-7059D01*
X8285Y-7191D01*
X8191Y-7285D01*
X8059Y-7285D01*
G37*
%LPD*%
%LPC*%
G36*
X6505Y-5390D02*
X6505Y-5390D01*
X6423Y-5308D01*
X6423Y-5192D01*
X6505Y-5110D01*
X6620Y-5110D01*
X6702Y-5192D01*
X6702Y-5308D01*
X6620Y-5390D01*
X6505Y-5390D01*
G37*
%LPD*%
%LPC*%
G36*
X7505Y-6140D02*
X7505Y-6140D01*
X7423Y-6058D01*
X7423Y-5942D01*
X7505Y-5860D01*
X7620Y-5860D01*
X7702Y-5942D01*
X7702Y-6058D01*
X7620Y-6140D01*
X7505Y-6140D01*
G37*
%LPD*%
%LPC*%
G36*
X4199Y5160D02*
X4199Y5160D01*
X4122Y5236D01*
X4122Y5344D01*
X4160Y5381D01*
X4163Y5386D01*
X4167Y5390D01*
X4167Y5391D01*
X4170Y5396D01*
X4172Y5401D01*
X4172Y5402D01*
X4172Y5403D01*
X4173Y5408D01*
X4174Y5414D01*
X4174Y5415D01*
X4174Y5420D01*
X4173Y5426D01*
X4173Y5427D01*
X4171Y5431D01*
X4174Y5429D01*
X4175Y5429D01*
X4175Y5428D01*
X4180Y5426D01*
X4185Y5423D01*
X4186Y5423D01*
X4198Y5420D01*
X4201Y5420D01*
X4202Y5420D01*
X4306Y5420D01*
X4383Y5344D01*
X4383Y5236D01*
X4306Y5160D01*
X4199Y5160D01*
G37*
%LPD*%
%LPC*%
G36*
X571Y-2755D02*
X571Y-2755D01*
X496Y-2680D01*
X491Y-2677D01*
X491Y-2676D01*
X492Y-2675D01*
X492Y-2674D01*
X495Y-2662D01*
X494Y-2660D01*
X495Y-2658D01*
X495Y-2571D01*
X571Y-2495D01*
X679Y-2495D01*
X755Y-2571D01*
X755Y-2679D01*
X679Y-2755D01*
X571Y-2755D01*
G37*
%LPD*%
%LPC*%
G36*
X5236Y5870D02*
X5236Y5870D01*
X5160Y5946D01*
X5160Y6054D01*
X5236Y6130D01*
X5344Y6130D01*
X5420Y6054D01*
X5420Y5946D01*
X5344Y5870D01*
X5236Y5870D01*
G37*
%LPD*%
%LPC*%
G36*
X7576Y5565D02*
X7576Y5565D01*
X7499Y5642D01*
X7499Y5749D01*
X7576Y5826D01*
X7683Y5826D01*
X7760Y5749D01*
X7760Y5642D01*
X7683Y5565D01*
X7576Y5565D01*
G37*
%LPD*%
%LPC*%
G36*
X8884Y5245D02*
X8884Y5245D01*
X8807Y5321D01*
X8807Y5429D01*
X8884Y5505D01*
X8991Y5505D01*
X9068Y5429D01*
X9068Y5321D01*
X8991Y5245D01*
X8884Y5245D01*
G37*
%LPD*%
%LPC*%
G36*
X9556Y4432D02*
X9556Y4432D01*
X9480Y4509D01*
X9480Y4616D01*
X9556Y4693D01*
X9664Y4693D01*
X9740Y4616D01*
X9740Y4509D01*
X9664Y4432D01*
X9556Y4432D01*
G37*
%LPD*%
%LPC*%
G36*
X5196Y4245D02*
X5196Y4245D01*
X5120Y4321D01*
X5120Y4429D01*
X5196Y4505D01*
X5304Y4505D01*
X5380Y4429D01*
X5380Y4321D01*
X5304Y4245D01*
X5196Y4245D01*
G37*
%LPD*%
%LPC*%
G36*
X6166Y4080D02*
X6166Y4080D01*
X6090Y4156D01*
X6090Y4264D01*
X6166Y4340D01*
X6274Y4340D01*
X6350Y4264D01*
X6350Y4156D01*
X6274Y4080D01*
X6166Y4080D01*
G37*
%LPD*%
%LPC*%
G36*
X6776Y1955D02*
X6776Y1955D01*
X6700Y2031D01*
X6700Y2139D01*
X6776Y2215D01*
X6884Y2215D01*
X6960Y2139D01*
X6960Y2031D01*
X6884Y1955D01*
X6776Y1955D01*
G37*
%LPD*%
%LPC*%
G36*
X4946Y1245D02*
X4946Y1245D01*
X4870Y1321D01*
X4870Y1429D01*
X4946Y1505D01*
X5054Y1505D01*
X5130Y1429D01*
X5130Y1321D01*
X5054Y1245D01*
X4946Y1245D01*
G37*
%LPD*%
%LPC*%
G36*
X7159Y2295D02*
X7159Y2295D01*
X7082Y2371D01*
X7082Y2479D01*
X7159Y2555D01*
X7266Y2555D01*
X7343Y2479D01*
X7343Y2371D01*
X7266Y2295D01*
X7159Y2295D01*
G37*
%LPD*%
%LPC*%
G36*
X2656Y2530D02*
X2656Y2530D01*
X2580Y2606D01*
X2580Y2714D01*
X2656Y2790D01*
X2764Y2790D01*
X2840Y2714D01*
X2840Y2606D01*
X2764Y2530D01*
X2656Y2530D01*
G37*
%LPD*%
%LPC*%
G36*
X14821Y995D02*
X14821Y995D01*
X14745Y1071D01*
X14745Y1179D01*
X14821Y1255D01*
X14929Y1255D01*
X15005Y1179D01*
X15005Y1071D01*
X14929Y995D01*
X14821Y995D01*
G37*
%LPD*%
%LPC*%
G36*
X1904Y876D02*
X1904Y876D01*
X1827Y952D01*
X1827Y1060D01*
X1904Y1136D01*
X2011Y1136D01*
X2088Y1060D01*
X2088Y952D01*
X2011Y876D01*
X1904Y876D01*
G37*
%LPD*%
%LPC*%
G36*
X1404Y870D02*
X1404Y870D01*
X1327Y946D01*
X1327Y1054D01*
X1404Y1130D01*
X1511Y1130D01*
X1588Y1054D01*
X1588Y946D01*
X1511Y870D01*
X1404Y870D01*
G37*
%LPD*%
%LPC*%
G36*
X6208Y2655D02*
X6208Y2655D01*
X6132Y2731D01*
X6132Y2839D01*
X6208Y2915D01*
X6316Y2915D01*
X6392Y2839D01*
X6392Y2731D01*
X6316Y2655D01*
X6208Y2655D01*
G37*
%LPD*%
%LPC*%
G36*
X7560Y2666D02*
X7560Y2666D01*
X7483Y2742D01*
X7483Y2850D01*
X7560Y2926D01*
X7667Y2926D01*
X7744Y2850D01*
X7744Y2742D01*
X7667Y2666D01*
X7560Y2666D01*
G37*
%LPD*%
%LPC*%
G36*
X3071Y3120D02*
X3071Y3120D01*
X2995Y3196D01*
X2995Y3304D01*
X3071Y3380D01*
X3179Y3380D01*
X3255Y3304D01*
X3255Y3196D01*
X3179Y3120D01*
X3071Y3120D01*
G37*
%LPD*%
%LPC*%
G36*
X6836Y3420D02*
X6836Y3420D01*
X6760Y3496D01*
X6760Y3604D01*
X6836Y3680D01*
X6944Y3680D01*
X7020Y3604D01*
X7020Y3496D01*
X6944Y3420D01*
X6836Y3420D01*
G37*
%LPD*%
%LPC*%
G36*
X13759Y-1943D02*
X13759Y-1943D01*
X13682Y-1866D01*
X13682Y-1759D01*
X13759Y-1682D01*
X13866Y-1682D01*
X13943Y-1759D01*
X13943Y-1866D01*
X13866Y-1943D01*
X13759Y-1943D01*
G37*
%LPD*%
%LPC*%
G36*
X6436Y3819D02*
X6436Y3819D01*
X6359Y3896D01*
X6359Y4004D01*
X6436Y4080D01*
X6544Y4080D01*
X6620Y4004D01*
X6620Y3896D01*
X6544Y3819D01*
X6436Y3819D01*
G37*
%LPD*%
%LPC*%
G36*
X9774Y3992D02*
X9774Y3992D01*
X9697Y4069D01*
X9697Y4176D01*
X9774Y4253D01*
X9881Y4253D01*
X9958Y4176D01*
X9958Y4069D01*
X9881Y3992D01*
X9774Y3992D01*
G37*
%LPD*%
%LPC*%
G36*
X4071Y4057D02*
X4071Y4057D01*
X3995Y4134D01*
X3995Y4241D01*
X4071Y4318D01*
X4179Y4318D01*
X4255Y4241D01*
X4255Y4134D01*
X4179Y4057D01*
X4071Y4057D01*
G37*
%LPD*%
%LPC*%
G36*
X4759Y4057D02*
X4759Y4057D01*
X4682Y4134D01*
X4682Y4241D01*
X4759Y4318D01*
X4866Y4318D01*
X4943Y4241D01*
X4943Y4134D01*
X4866Y4057D01*
X4759Y4057D01*
G37*
%LPD*%
%LPC*%
G36*
X1446Y-3505D02*
X1446Y-3505D01*
X1370Y-3429D01*
X1370Y-3321D01*
X1446Y-3245D01*
X1554Y-3245D01*
X1630Y-3321D01*
X1630Y-3429D01*
X1554Y-3505D01*
X1446Y-3505D01*
G37*
%LPD*%
%LPC*%
G36*
X7759Y-4943D02*
X7759Y-4943D01*
X7682Y-4866D01*
X7682Y-4759D01*
X7759Y-4682D01*
X7866Y-4682D01*
X7943Y-4759D01*
X7943Y-4866D01*
X7866Y-4943D01*
X7759Y-4943D01*
G37*
%LPD*%
%LPC*%
G36*
X4193Y2173D02*
X4193Y2173D01*
X4117Y2249D01*
X4117Y2357D01*
X4193Y2433D01*
X4301Y2433D01*
X4377Y2357D01*
X4377Y2249D01*
X4301Y2173D01*
X4193Y2173D01*
G37*
%LPD*%
%LPC*%
G36*
X7946Y6120D02*
X7946Y6120D01*
X7870Y6196D01*
X7870Y6304D01*
X7946Y6380D01*
X8054Y6380D01*
X8130Y6304D01*
X8130Y6196D01*
X8054Y6120D01*
X7946Y6120D01*
G37*
%LPD*%
%LPC*%
G36*
X5134Y-5380D02*
X5134Y-5380D01*
X5057Y-5304D01*
X5057Y-5196D01*
X5134Y-5120D01*
X5241Y-5120D01*
X5318Y-5196D01*
X5318Y-5304D01*
X5241Y-5380D01*
X5134Y-5380D01*
G37*
%LPD*%
%LPC*%
G36*
X5821Y-5443D02*
X5821Y-5443D01*
X5745Y-5366D01*
X5745Y-5259D01*
X5821Y-5182D01*
X5929Y-5182D01*
X6005Y-5259D01*
X6005Y-5366D01*
X5929Y-5443D01*
X5821Y-5443D01*
G37*
%LPD*%
%LPC*%
G36*
X7884Y-5505D02*
X7884Y-5505D01*
X7807Y-5429D01*
X7807Y-5321D01*
X7884Y-5245D01*
X7991Y-5245D01*
X8068Y-5321D01*
X8068Y-5429D01*
X7991Y-5505D01*
X7884Y-5505D01*
G37*
%LPD*%
%LPC*%
G36*
X6321Y-5818D02*
X6321Y-5818D01*
X6245Y-5741D01*
X6245Y-5634D01*
X6321Y-5557D01*
X6429Y-5557D01*
X6505Y-5634D01*
X6505Y-5741D01*
X6429Y-5818D01*
X6321Y-5818D01*
G37*
%LPD*%
%LPC*%
G36*
X9509Y2182D02*
X9509Y2182D01*
X9432Y2259D01*
X9432Y2366D01*
X9509Y2443D01*
X9616Y2443D01*
X9693Y2366D01*
X9693Y2259D01*
X9616Y2182D01*
X9509Y2182D01*
G37*
%LPD*%
%LPC*%
G36*
X5941Y6035D02*
X5941Y6035D01*
X5865Y6111D01*
X5865Y6219D01*
X5941Y6295D01*
X6049Y6295D01*
X6125Y6219D01*
X6125Y6111D01*
X6049Y6035D01*
X5941Y6035D01*
G37*
%LPD*%
%LPC*%
G36*
X6384Y-5005D02*
X6384Y-5005D01*
X6307Y-4929D01*
X6307Y-4821D01*
X6384Y-4745D01*
X6491Y-4745D01*
X6568Y-4821D01*
X6568Y-4929D01*
X6491Y-5005D01*
X6384Y-5005D01*
G37*
%LPD*%
%LPC*%
G36*
X5384Y-255D02*
X5384Y-255D01*
X5307Y-179D01*
X5307Y-71D01*
X5384Y5D01*
X5491Y5D01*
X5568Y-71D01*
X5568Y-179D01*
X5491Y-255D01*
X5384Y-255D01*
G37*
%LPD*%
%LPC*%
G36*
X10014Y-4815D02*
X10014Y-4815D01*
X9955Y-4803D01*
X9899Y-4780D01*
X9881Y-4768D01*
X10044Y-4604D01*
X10208Y-4768D01*
X10190Y-4780D01*
X10134Y-4803D01*
X10075Y-4815D01*
X10014Y-4815D01*
G37*
%LPD*%
%LPC*%
G36*
X9772Y-4653D02*
X9772Y-4653D01*
X9749Y-4597D01*
X9737Y-4538D01*
X9737Y-4477D01*
X9749Y-4418D01*
X9772Y-4362D01*
X9784Y-4343D01*
X9948Y-4507D01*
X9784Y-4671D01*
X9772Y-4653D01*
G37*
%LPD*%
D10*
X938Y549D03*
X938Y-2049D03*
D11*
X10044Y-4507D03*
X10462Y-4090D03*
X10880Y-3672D03*
X11297Y-3255D03*
X12132Y-2419D03*
X11715Y-2837D03*
D12*
X4185Y5050D03*
D13*
X7625Y5155D03*
X8585Y4240D03*
X7625Y3530D03*
X6655Y4295D03*
X7160Y4600D03*
X8130Y4630D03*
X8050Y3860D03*
X7160Y3905D03*
X7620Y4265D03*
X5260Y2440D03*
D12*
X3900Y1655D03*
X2230Y2660D03*
X11260Y620D03*
X11760Y620D03*
X10260Y6150D03*
X12260Y4120D03*
X11260Y6150D03*
X11260Y3650D03*
X11260Y3150D03*
X12260Y3120D03*
X11260Y2650D03*
X11260Y5650D03*
X11260Y1650D03*
X11260Y2150D03*
X10260Y6650D03*
X10260Y7150D03*
X1000Y1160D03*
X12260Y620D03*
X12260Y1620D03*
X12260Y2120D03*
X12260Y2620D03*
X12260Y3620D03*
X11250Y6650D03*
X12260Y6150D03*
X10260Y2150D03*
X10260Y2650D03*
X12260Y1120D03*
X11260Y1150D03*
X10760Y6150D03*
X10750Y6650D03*
X11760Y6150D03*
X11750Y6650D03*
X11760Y3120D03*
X11760Y1620D03*
X11760Y2120D03*
X11760Y2620D03*
X11760Y3620D03*
X11760Y1120D03*
X10760Y3650D03*
X10760Y3150D03*
X10760Y2650D03*
X10760Y2150D03*
X9305Y3115D03*
X10260Y3150D03*
X3280Y4665D03*
X6100Y5800D03*
D13*
X4730Y2800D03*
D12*
X11063Y4250D03*
X13125Y5438D03*
X6125Y1875D03*
X3875Y-563D03*
X2250Y-5063D03*
X6220Y4210D03*
X7614Y2796D03*
X8320Y5060D03*
X3290Y5560D03*
X1500Y-3375D03*
X5000Y1375D03*
X13813Y-1813D03*
X14875Y1125D03*
X9828Y4123D03*
X15125Y3688D03*
X9563Y2313D03*
X7213Y2425D03*
X7630Y5695D03*
X1958Y1006D03*
X4188Y3554D03*
X6262Y2785D03*
X6830Y2085D03*
X5995Y6165D03*
X8930Y4055D03*
X8938Y5375D03*
X1688Y-2500D03*
X1813Y-3063D03*
X8000Y6250D03*
X8125Y5250D03*
X625Y-2625D03*
X7331Y5390D03*
X6040Y5430D03*
X3102Y2667D03*
D13*
X1688Y-2813D03*
D14*
X6813Y-5938D03*
X8125Y-7125D03*
D12*
X4125Y4188D03*
X3125Y3250D03*
X3330Y2540D03*
X4253Y5290D03*
X8752Y3887D03*
X5290Y6000D03*
X1458Y1000D03*
X3960Y3553D03*
X2710Y2660D03*
X4247Y2303D03*
D14*
X4063Y5625D03*
X2188Y4438D03*
D12*
X7088Y5162D03*
X6260Y5175D03*
X6561Y5431D03*
X5847Y5520D03*
X6749Y5568D03*
X7813Y-4813D03*
X7938Y-5375D03*
D15*
X7563Y-6000D03*
X6563Y-5250D03*
D12*
X9610Y4563D03*
X6375Y-5688D03*
X5875Y-5313D03*
X6438Y-4875D03*
X4813Y4188D03*
X4313Y63D03*
X4813Y-563D03*
X5188Y-5250D03*
X8988Y4397D03*
X3375Y-3125D03*
X8675Y4705D03*
X3563Y-2938D03*
X6490Y3950D03*
X5438Y1313D03*
X6000Y250D03*
X12313Y-688D03*
X6890Y3550D03*
X5500Y1063D03*
X5438Y-125D03*
X12375Y-938D03*
X8505Y4870D03*
X4688Y375D03*
X5250Y4375D03*
X4500Y188D03*
X5063Y-813D03*
M02*
