G04 EAGLE Gerber RS-274X export*
G75*
%MOIN*%
%FSLAX34Y34*%
%LPD*%
%INBottom Copper*%
%IPPOS*%
%AMOC8*
5,1,8,0,0,1.08239X$1,22.5*%
G01*
%ADD10R,0.023622X0.062992*%
%ADD11C,0.035433*%
%ADD12R,0.041339X0.041339*%
%ADD13C,0.041339*%
%ADD14C,0.015874*%
%ADD15C,0.019811*%
%ADD16C,0.012000*%
%ADD17C,0.006000*%
%ADD18C,0.021780*%
%ADD19C,0.016000*%
%ADD20C,0.010000*%
%ADD21C,0.017843*%


D10*
X6510Y2851D03*
X6010Y2851D03*
X5510Y2851D03*
X5010Y2851D03*
X5010Y4899D03*
X5510Y4899D03*
X6010Y4899D03*
X6510Y4899D03*
D11*
X1115Y549D02*
X760Y549D01*
X760Y-2049D02*
X1115Y-2049D01*
D12*
G36*
X10044Y-4216D02*
X10335Y-4507D01*
X10044Y-4798D01*
X9753Y-4507D01*
X10044Y-4216D01*
G37*
D13*
X10462Y-4090D03*
X10880Y-3672D03*
X11297Y-3255D03*
X12132Y-2419D03*
X11715Y-2837D03*
D14*
X4185Y5050D03*
D15*
X7625Y5155D03*
X8585Y4240D03*
X7625Y3530D03*
X6655Y4295D03*
X7160Y4600D03*
X8130Y4630D03*
X8050Y3860D03*
X7160Y3905D03*
X7620Y4265D03*
X5260Y2440D03*
D14*
X3900Y1655D03*
X2230Y2660D03*
X11260Y620D03*
X11760Y620D03*
X10260Y6150D03*
X12260Y4120D03*
X11260Y6150D03*
X11260Y3650D03*
X11260Y3150D03*
X12260Y3120D03*
X11260Y2650D03*
X11260Y5650D03*
X11260Y1650D03*
X11260Y2150D03*
X10260Y6650D03*
X10260Y7150D03*
X1000Y1160D03*
X12260Y620D03*
X12260Y1620D03*
X12260Y2120D03*
X12260Y2620D03*
X12260Y3620D03*
X11250Y6650D03*
X12260Y6150D03*
X10260Y2150D03*
X10260Y2650D03*
X12260Y1120D03*
X11260Y1150D03*
X10760Y6150D03*
X10750Y6650D03*
X11760Y6150D03*
X11750Y6650D03*
X11760Y3120D03*
X11760Y1620D03*
X11760Y2120D03*
X11760Y2620D03*
X11760Y3620D03*
X11760Y1120D03*
X10760Y3650D03*
X10760Y3150D03*
X10760Y2650D03*
X10760Y2150D03*
X9305Y3115D03*
X10260Y3150D03*
X3280Y4665D03*
X6100Y5800D03*
D16*
X5010Y2851D02*
X4959Y2800D01*
X4730Y2800D01*
D15*
X4730Y2800D03*
D14*
X11063Y4250D03*
X13125Y5438D03*
X6125Y1875D03*
X3875Y-563D03*
X2250Y-5063D03*
X6220Y4210D03*
X7614Y2796D03*
X8320Y5060D03*
X3290Y5560D03*
X1500Y-3375D03*
X5000Y1375D03*
X13813Y-1813D03*
X14875Y1125D03*
X9828Y4123D03*
D17*
X9765Y4060D01*
X9765Y2313D01*
X9765Y1780D01*
D14*
X15125Y3688D03*
D17*
X13188Y1750D01*
X13188Y250D01*
D14*
X9563Y2313D03*
D17*
X9765Y2313D01*
X9765Y1780D02*
X11295Y250D01*
X13188Y250D01*
D14*
X7213Y2425D03*
X7630Y5695D03*
D17*
X7630Y5435D01*
X7420Y5225D01*
X7420Y2877D01*
X7213Y2670D01*
X7213Y2425D01*
D14*
X1958Y1006D03*
X4188Y3554D03*
D17*
X3036Y2827D02*
X2943Y2733D01*
X2943Y2601D01*
X3461Y2827D02*
X4188Y3554D01*
X3461Y2827D02*
X3036Y2827D01*
X2943Y2601D02*
X2159Y1818D01*
X2159Y1208D02*
X1958Y1006D01*
X2159Y1208D02*
X2159Y1818D01*
D14*
X6262Y2785D03*
D17*
X6262Y2551D01*
D14*
X6830Y2085D03*
D17*
X6728Y2085D02*
X6262Y2551D01*
X6728Y2085D02*
X6830Y2085D01*
D14*
X5995Y6165D03*
D17*
X8340Y4055D02*
X8930Y4055D01*
X8340Y4055D02*
X7945Y4450D01*
D14*
X8930Y4055D03*
D17*
X7945Y4450D02*
X7945Y5820D01*
X7600Y6165D01*
X5995Y6165D01*
D14*
X8938Y5375D03*
D17*
X4543Y5634D02*
X4543Y3460D01*
X7990Y6485D02*
X8159Y6316D01*
X7990Y6485D02*
X5394Y6485D01*
X4543Y5634D01*
X4543Y3460D02*
X2750Y1667D01*
X8159Y6153D02*
X8938Y5375D01*
X8159Y6153D02*
X8159Y6316D01*
X2750Y-1753D02*
X1939Y-2564D01*
X2750Y-1753D02*
X2750Y1667D01*
X1875Y-2500D02*
X1939Y-2564D01*
X1875Y-2500D02*
X1688Y-2500D01*
D14*
X1688Y-2500D03*
X1813Y-3063D03*
D17*
X2640Y-2235D01*
X2640Y-2142D01*
X4088Y2849D02*
X4653Y3414D01*
X4088Y-694D02*
X2640Y-2142D01*
X4088Y-694D02*
X4088Y2849D01*
X4653Y3414D02*
X4653Y5589D01*
X5389Y6324D01*
X7926Y6324D01*
X8000Y6250D01*
D14*
X8000Y6250D03*
X8125Y5250D03*
D17*
X9004Y5216D02*
X9097Y5309D01*
X9004Y5216D02*
X8809Y5216D01*
X9097Y5309D02*
X9097Y5534D01*
X8036Y6595D01*
X8125Y5250D02*
X8775Y5250D01*
X8809Y5216D01*
X625Y-2625D02*
X375Y-2375D01*
D14*
X625Y-2625D03*
D17*
X3464Y5122D02*
X3827Y5122D01*
X5300Y6595D02*
X8036Y6595D01*
X5300Y6595D02*
X3827Y5122D01*
X375Y875D02*
X375Y-2375D01*
X375Y875D02*
X2071Y2571D01*
X2071Y3729D01*
X3464Y5122D01*
D14*
X7331Y5390D03*
D17*
X7091Y5390D01*
X6864Y5162D01*
X6864Y3906D01*
X6010Y3052D01*
X6010Y2851D01*
D14*
X6040Y5430D03*
D17*
X5510Y4950D02*
X5510Y4899D01*
X5510Y4950D02*
X5990Y5430D01*
X6040Y5430D01*
D14*
X3102Y2667D03*
D15*
X1688Y-2813D03*
D18*
X6813Y-5938D03*
D19*
X8000Y-7125D01*
X8125Y-7125D01*
D18*
X8125Y-7125D03*
D14*
X4125Y4188D03*
D16*
X4063Y4188D01*
X3125Y3250D01*
D14*
X3125Y3250D03*
D16*
X3083Y2648D02*
X3083Y2543D01*
X3083Y2648D02*
X3102Y2667D01*
X3083Y2543D02*
X2299Y1760D01*
X2299Y830D01*
X1688Y-2768D02*
X1688Y-2813D01*
X1688Y-2768D02*
X1498Y-2578D01*
X1498Y28D01*
X2299Y830D01*
D14*
X3330Y2540D03*
X4253Y5290D03*
D17*
X4368Y3498D02*
X3410Y2540D01*
X3330Y2540D01*
D14*
X8752Y3887D03*
X5290Y6000D03*
D17*
X7820Y5779D02*
X7820Y4399D01*
X8332Y3887D02*
X8752Y3887D01*
X8332Y3887D02*
X7820Y4399D01*
X4368Y5175D02*
X4253Y5290D01*
X4368Y5175D02*
X4368Y3498D01*
X7599Y6000D02*
X7820Y5779D01*
X7599Y6000D02*
X5290Y6000D01*
D14*
X1458Y1000D03*
X3960Y3553D03*
D17*
X3344Y2937D01*
X2761Y2937D01*
X1458Y1633D01*
X1458Y1000D01*
D14*
X2710Y2660D03*
X4247Y2303D03*
D18*
X4063Y5625D03*
D19*
X3719Y5282D01*
X3398Y5282D01*
X2553Y4438D02*
X2188Y4438D01*
X2553Y4438D02*
X3398Y5282D01*
D18*
X2188Y4438D03*
D14*
X7088Y5162D03*
D17*
X6510Y3397D02*
X6510Y2851D01*
X7088Y4782D02*
X7088Y5162D01*
X7088Y4782D02*
X6981Y4674D01*
X6981Y3868D01*
X6510Y3397D01*
D14*
X6260Y5175D03*
D17*
X6260Y5175D01*
X6260Y4625D02*
X6260Y4486D01*
X6260Y4625D02*
X6260Y5175D01*
X5510Y3735D02*
X5510Y2851D01*
X5510Y3735D02*
X6260Y4486D01*
D14*
X6561Y5431D03*
D17*
X6274Y5431D01*
X6010Y5167D01*
X6010Y4899D01*
D14*
X5847Y5520D03*
D17*
X5697Y5369D01*
X5434Y5369D01*
X5010Y4945D02*
X5010Y4899D01*
X5010Y4945D02*
X5434Y5369D01*
D20*
X6510Y5000D02*
X6510Y4899D01*
D14*
X6749Y5568D03*
D20*
X6749Y5239D01*
X6510Y5000D01*
D14*
X7813Y-4813D03*
D17*
X7938Y-4938D01*
X7938Y-5375D01*
D14*
X7938Y-5375D03*
D21*
X7563Y-6000D03*
D19*
X7313Y-6000D01*
X6563Y-5250D01*
D21*
X6563Y-5250D03*
D14*
X9610Y4563D03*
D17*
X9610Y3944D01*
D14*
X6375Y-5688D03*
D17*
X6229Y563D02*
X9610Y3944D01*
X6229Y563D02*
X5843Y563D01*
X4972Y-309D02*
X4972Y-629D01*
X4750Y-850D01*
X4972Y-309D02*
X5843Y563D01*
X6159Y-5472D02*
X6375Y-5688D01*
X6159Y-5472D02*
X5809Y-5472D01*
X4750Y-4413D02*
X4750Y-850D01*
X4750Y-4413D02*
X5809Y-5472D01*
D14*
X5875Y-5313D03*
D17*
X6504Y-5034D02*
X6913Y-4625D01*
X6153Y-5034D02*
X5875Y-5313D01*
X6153Y-5034D02*
X6504Y-5034D01*
X6913Y-4625D02*
X9500Y-4625D01*
X9938Y-5063D01*
X10438Y-5063D01*
X12132Y-3368D01*
X12132Y-2419D01*
X12132Y-2419D01*
D14*
X6438Y-4875D03*
D17*
X6813Y-4500D01*
X10407Y-4938D02*
X11735Y-3610D01*
X9531Y-4500D02*
X6813Y-4500D01*
X9531Y-4500D02*
X9968Y-4938D01*
X10407Y-4938D01*
X11735Y-3610D02*
X11735Y-2857D01*
X11715Y-2837D01*
D14*
X4813Y4188D03*
D17*
X4813Y3418D01*
D14*
X4313Y63D03*
X4813Y-563D03*
D17*
X4625Y-750D01*
X4625Y-4688D01*
X5188Y-5250D01*
D14*
X5188Y-5250D03*
D17*
X4198Y2028D02*
X4407Y2237D01*
X4407Y3012D01*
X4198Y177D02*
X4313Y63D01*
X4407Y3012D02*
X4813Y3418D01*
X4198Y2028D02*
X4198Y177D01*
D14*
X8988Y4397D03*
D17*
X8988Y4378D01*
X9283Y4083D01*
X9283Y3970D01*
X6125Y813D01*
X5750Y813D01*
X3375Y-1563D01*
X3375Y-3125D01*
D14*
X3375Y-3125D03*
X8675Y4705D03*
D17*
X9393Y3925D02*
X6171Y703D01*
X5828Y703D01*
X8823Y4557D02*
X8675Y4705D01*
X8823Y4557D02*
X9054Y4557D01*
X9393Y4217D01*
X9393Y3925D01*
X5828Y703D02*
X3563Y-1563D01*
X3563Y-2938D01*
D14*
X3563Y-2938D03*
X6490Y3950D03*
D17*
X5770Y3344D02*
X5770Y1548D01*
X6376Y3950D02*
X6490Y3950D01*
X6376Y3950D02*
X5770Y3344D01*
X5770Y1548D02*
X5535Y1313D01*
X5438Y1313D01*
D14*
X5438Y1313D03*
X6000Y250D03*
D17*
X6000Y122D01*
X5561Y-350D02*
X5347Y-564D01*
X5561Y-317D02*
X6000Y122D01*
X5561Y-317D02*
X5561Y-350D01*
X5347Y-564D02*
X5347Y-1535D01*
X7603Y-3790D02*
X8617Y-3790D01*
X11579Y-828D01*
X7603Y-3790D02*
X5347Y-1535D01*
X11579Y-828D02*
X12173Y-828D01*
X12313Y-688D01*
D14*
X12313Y-688D03*
X6890Y3550D03*
D17*
X6355Y1375D02*
X5813Y1375D01*
X6355Y1375D02*
X6989Y2009D01*
X6989Y3451D02*
X6890Y3550D01*
X6989Y3451D02*
X6989Y2009D01*
X5813Y1375D02*
X5500Y1063D01*
D14*
X5500Y1063D03*
X5438Y-125D03*
D17*
X5438Y-313D01*
X7563Y-3938D02*
X8625Y-3938D01*
X11625Y-938D02*
X12375Y-938D01*
X5438Y-313D02*
X5222Y-528D01*
X8625Y-3938D02*
X11625Y-938D01*
D14*
X12375Y-938D03*
D17*
X7563Y-3938D02*
X5222Y-1597D01*
X5222Y-528D01*
D14*
X8505Y4870D03*
D17*
X8505Y4573D01*
X8996Y4214D02*
X9173Y4037D01*
X8996Y4214D02*
X8864Y4214D01*
X6136Y1001D02*
X5688Y1001D01*
X6136Y1001D02*
X9173Y4037D01*
X8864Y4214D02*
X8505Y4573D01*
X5688Y1001D02*
X5063Y375D01*
X4688Y375D01*
D14*
X4688Y375D03*
X5250Y4375D03*
D17*
X5250Y3700D01*
D14*
X4500Y188D03*
X5063Y-813D03*
D17*
X4517Y2191D02*
X4517Y2967D01*
X4517Y2191D02*
X4313Y1987D01*
X4313Y375D02*
X4500Y188D01*
X4517Y2967D02*
X5250Y3700D01*
X4313Y1987D02*
X4313Y375D01*
X7534Y-4091D02*
X7546Y-4103D01*
X7534Y-4091D02*
X5063Y-1619D01*
X5063Y-813D01*
X10343Y-3803D02*
X10749Y-3803D01*
X10343Y-3803D02*
X10044Y-4103D01*
X10880Y-3672D02*
X10880Y-3672D01*
X10749Y-3803D01*
X10032Y-4091D02*
X7534Y-4091D01*
X10032Y-4091D02*
X10044Y-4103D01*
M02*
